<?xml version="1.0" standalone="no"?>
<!DOCTYPE svg PUBLIC "-//W3C//DTD SVG 20010904//EN"
 "http://www.w3.org/TR/2001/REC-SVG-20010904/DTD/svg10.dtd">
<svg version="1.0" xmlns="http://www.w3.org/2000/svg"
 width="382.000000pt" height="336.000000pt" viewBox="0 0 382.000000 336.000000"
 preserveAspectRatio="xMidYMid meet">
<metadata>
Created by potrace 1.15, written by Peter Selinger 2001-2017
</metadata>
<g transform="translate(0.000000,336.000000) scale(0.100000,-0.100000)"
fill="#000000" stroke="none">
<path d="M1708 3116 c-153 -44 -262 -179 -275 -342 -15 -169 112 -346 277
-387 l54 -14 -94 -7 c-52 -4 -122 -17 -155 -27 -122 -41 -233 -136 -288 -249
l-32 -65 -3 -332 -3 -333 623 2 623 3 3 285 c3 305 -2 358 -44 444 -35 71 -80
123 -146 172 -78 57 -152 83 -278 99 -58 7 -97 13 -88 14 10 1 42 10 73 22 77
29 157 104 197 187 30 61 33 75 33 162 0 82 -4 103 -27 152 -37 79 -107 152
-185 190 -52 25 -79 32 -141 34 -44 2 -97 -2 -124 -10z m249 -69 c66 -34 115
-83 150 -150 25 -46 28 -63 28 -147 0 -84 -3 -101 -28 -147 -34 -67 -84 -116
-150 -150 -45 -24 -64 -28 -137 -28 -108 0 -167 22 -236 87 -73 69 -99 130
-99 238 0 71 4 94 26 140 41 86 115 150 209 181 14 5 61 7 105 5 63 -2 91 -8
132 -29z m-252 -788 c28 -34 53 -68 58 -75 5 -9 -74 -410 -117 -588 -4 -14 18
-43 76 -103 l82 -83 -147 0 -147 0 -2 278 c-3 269 -4 277 -23 277 -19 0 -20
-8 -23 -277 l-2 -278 -116 0 -116 0 4 293 3 293 38 76 c59 120 167 204 300
233 34 7 67 14 72 14 6 1 33 -27 60 -60z m349 46 c111 -18 243 -122 298 -233
l33 -67 3 -297 3 -298 -115 0 -116 0 0 280 c0 268 -1 280 -19 280 -10 0 -22
-7 -25 -16 -3 -9 -6 -135 -6 -280 l0 -264 -142 0 -141 0 23 28 c14 15 49 52
78 83 l54 57 -61 283 c-34 156 -64 291 -66 299 -3 8 22 47 56 88 48 58 64 71
82 68 12 -3 39 -8 61 -11z m-183 -779 l-62 -61 -58 65 c-32 36 -57 69 -55 75
1 5 26 118 54 250 28 132 54 249 57 260 4 12 31 -96 65 -254 l60 -274 -61 -61z"/>
<path d="M790 1324 c-155 -33 -315 -153 -388 -291 -118 -224 -85 -491 83 -672
119 -128 260 -191 427 -191 167 0 303 55 419 172 178 178 220 445 106 678 -41
84 -158 204 -244 248 -126 66 -267 86 -403 56z m305 -63 c162 -57 289 -193
339 -361 20 -67 22 -215 3 -285 -58 -212 -233 -365 -451 -395 -263 -37 -524
138 -591 395 -19 75 -19 194 0 269 49 187 198 338 386 391 77 21 235 14 314
-14z"/>
<path d="M845 1135 c-5 -2 -30 -9 -53 -15 -39 -10 -43 -14 -38 -34 8 -34 -14
-50 -43 -29 -22 15 -25 14 -68 -29 -40 -41 -44 -48 -33 -67 17 -32 5 -55 -24
-47 -23 6 -26 1 -40 -48 -21 -70 -20 -83 4 -89 26 -7 26 -43 0 -50 -23 -6 -24
-15 -7 -82 12 -46 16 -50 45 -53 34 -3 43 -27 20 -50 -10 -10 -2 -22 35 -60
41 -41 49 -45 67 -35 27 18 49 6 47 -25 -2 -24 3 -28 61 -43 l63 -18 11 25
c14 31 35 31 50 -1 8 -17 17 -24 27 -20 9 4 37 11 64 17 42 10 47 14 47 39 0
36 15 45 44 26 22 -15 25 -14 66 28 40 41 43 46 32 70 -15 33 -8 45 27 45 25
0 28 5 43 64 l15 64 -24 11 c-30 14 -29 35 1 49 l25 11 -18 63 c-17 58 -20 63
-44 60 -33 -3 -43 13 -26 44 12 23 10 28 -34 72 -37 36 -49 44 -59 34 -23 -23
-48 -14 -48 17 0 27 -4 31 -56 46 -60 17 -84 15 -84 -10 0 -22 -37 -18 -50 5
-10 19 -22 23 -45 15z m18 -65 c4 -17 14 -20 56 -20 38 0 51 4 51 14 0 20 16
29 41 21 14 -5 19 -14 17 -31 -2 -20 5 -30 35 -47 32 -18 41 -19 58 -8 18 10
24 10 40 -5 18 -16 18 -19 3 -35 -14 -16 -14 -21 6 -59 18 -35 25 -41 48 -38
23 3 27 -1 30 -24 2 -19 -2 -28 -17 -33 -17 -5 -21 -15 -21 -55 0 -40 3 -49
21 -53 32 -9 22 -51 -13 -55 -18 -2 -34 -15 -49 -38 -19 -32 -20 -36 -5 -58
14 -22 14 -25 -3 -40 -16 -14 -19 -14 -40 0 -21 15 -25 14 -60 -9 -31 -21 -38
-30 -34 -50 4 -20 0 -25 -20 -29 -19 -4 -28 1 -36 19 -9 19 -18 23 -56 23 -39
0 -47 -3 -55 -25 -8 -20 -13 -23 -32 -16 -17 6 -22 15 -20 33 2 19 -5 28 -38
47 -38 21 -43 22 -59 7 -16 -15 -19 -15 -35 3 -14 15 -15 23 -5 38 9 16 7 27
-9 60 -18 34 -25 40 -46 36 -18 -4 -26 0 -31 16 -8 25 1 41 21 41 10 0 14 13
14 51 0 42 -3 52 -20 56 -36 9 -22 63 14 56 18 -4 28 3 46 32 20 32 21 39 9
61 -11 21 -10 27 3 40 12 12 20 13 41 3 22 -10 31 -8 62 11 29 18 35 27 31 45
-4 14 -1 25 7 28 26 11 45 6 50 -13z"/>
<path d="M832 909 c-64 -32 -96 -92 -90 -170 11 -157 187 -222 299 -110 145
145 -24 371 -209 280z m170 -56 c47 -42 59 -98 34 -158 -45 -107 -209 -93
-246 21 -14 42 1 102 34 133 45 42 134 44 178 4z"/>
<path d="M2585 1325 c-234 -51 -410 -238 -455 -484 -14 -73 -12 -123 5 -204
46 -218 217 -397 430 -452 77 -20 211 -19 289 1 200 52 368 220 420 420 20 78
21 212 1 289 -27 106 -72 184 -154 266 -146 147 -342 207 -536 164z m237 -46
c131 -27 278 -131 343 -243 56 -97 77 -172 77 -281 0 -150 -43 -263 -141 -369
-130 -139 -336 -202 -521 -157 -234 57 -410 282 -410 527 0 196 122 390 300
478 41 20 95 40 120 45 65 13 171 13 232 0z"/>
<path d="M2680 1095 c0 -30 -5 -37 -27 -45 -84 -30 -123 -78 -123 -152 0 -81
45 -140 116 -154 l34 -6 0 -114 c0 -73 -4 -114 -10 -114 -25 0 -71 33 -85 60
-18 35 -55 42 -55 10 0 -30 55 -86 105 -107 40 -16 45 -21 45 -50 0 -28 3 -33
25 -33 22 0 25 4 25 33 0 30 4 34 50 50 151 54 144 252 -10 298 l-40 12 0 114
c0 114 0 114 23 108 37 -11 67 -35 79 -61 7 -16 19 -24 35 -24 21 0 23 3 17
23 -17 54 -55 89 -115 104 -30 8 -34 13 -37 46 -3 32 -7 37 -28 37 -21 0 -24
-5 -24 -35z m0 -200 l0 -115 -27 11 c-63 24 -97 92 -72 145 13 26 71 74 90 74
5 0 9 -52 9 -115z m110 -182 c49 -29 66 -105 34 -151 -15 -22 -63 -52 -84 -52
-6 0 -10 40 -10 110 0 121 4 127 60 93z"/>
<path d="M1792 1304 c-20 -14 -22 -24 -22 -136 l0 -121 -99 -94 c-55 -51 -103
-103 -106 -114 -8 -23 10 -49 34 -49 8 0 60 44 113 97 l98 98 99 -99 c78 -77
103 -97 122 -94 17 2 25 10 27 28 2 20 -18 45 -103 130 l-105 105 0 122 c0
109 -2 123 -18 132 -14 7 -25 6 -40 -5z"/>
</g>
</svg>
