<?xml version="1.0" standalone="no"?>
<!DOCTYPE svg PUBLIC "-//W3C//DTD SVG 20010904//EN"
 "http://www.w3.org/TR/2001/REC-SVG-20010904/DTD/svg10.dtd">
<svg version="1.0" xmlns="http://www.w3.org/2000/svg"
 width="373.000000pt" height="329.000000pt" viewBox="0 0 373.000000 329.000000"
 preserveAspectRatio="xMidYMid meet">
<metadata>
Created by potrace 1.15, written by Peter Selinger 2001-2017
</metadata>
<g transform="translate(0.000000,329.000000) scale(0.100000,-0.100000)"
fill="#000000" stroke="none">
<path d="M1520 3070 c-30 -5 -102 -8 -159 -9 -93 -1 -109 -4 -149 -27 -43 -25
-64 -27 -147 -12 -14 2 -24 -8 -40 -39 -11 -24 -37 -57 -57 -74 -29 -23 -40
-41 -44 -71 -6 -35 -14 -45 -56 -71 -36 -23 -57 -45 -75 -82 -14 -27 -45 -81
-70 -118 l-44 -69 7 -98 c6 -88 5 -102 -13 -132 -14 -23 -18 -39 -13 -53 5
-11 9 -32 9 -46 1 -17 18 -45 44 -75 24 -27 52 -71 62 -98 14 -36 29 -56 60
-75 22 -14 62 -44 89 -65 l48 -40 61 16 c34 8 80 14 102 11 30 -3 57 3 109 27
84 38 121 35 151 -13 17 -27 28 -33 67 -37 64 -8 77 -21 71 -73 -2 -23 -11
-56 -20 -74 -15 -30 -14 -34 6 -67 12 -19 39 -56 60 -81 35 -42 59 -106 67
-176 2 -14 8 -37 13 -51 11 -28 5 -62 -16 -94 -7 -12 -19 -52 -26 -90 -16 -80
-6 -135 38 -217 16 -28 28 -68 30 -95 4 -75 23 -143 49 -176 40 -53 74 -130
69 -156 -4 -27 49 -110 70 -110 7 0 62 10 122 21 l110 22 58 56 c32 31 70 75
83 98 14 22 31 44 39 46 7 3 18 30 24 60 11 49 15 55 56 75 50 24 52 32 35
122 -10 51 -9 55 17 83 16 16 57 52 93 79 54 41 67 57 76 93 13 51 4 164 -20
239 -40 124 2 217 161 364 73 67 102 102 128 154 54 104 75 169 75 226 0 59
-15 74 -53 50 -29 -20 -163 -52 -182 -44 -9 3 -24 24 -34 46 -10 22 -37 55
-63 74 -38 29 -48 44 -58 86 -7 29 -20 55 -30 60 -12 6 -21 30 -29 72 -7 40
-19 70 -34 87 -37 40 -101 161 -85 161 7 0 26 20 42 45 l28 46 -26 39 c-24 37
-30 40 -72 40 -25 0 -54 4 -64 10 -13 7 -31 5 -60 -5 -50 -18 -123 -6 -186 31
-53 31 -104 31 -132 1 -15 -16 -19 -30 -15 -46 5 -19 3 -22 -13 -18 -10 3 -38
11 -62 17 -30 8 -46 18 -52 34 -7 18 -21 26 -69 35 -34 7 -61 14 -61 16 0 2 5
14 11 27 8 18 5 33 -11 71 -11 26 -26 46 -33 46 -7 -1 -37 -5 -67 -9z m60 -60
c8 -15 7 -27 -5 -51 -15 -28 -15 -32 1 -50 9 -10 43 -24 75 -30 33 -6 59 -15
59 -18 0 -23 34 -44 96 -60 62 -16 74 -16 98 -4 22 12 27 20 24 46 -4 42 21
47 70 14 21 -13 68 -31 106 -40 58 -13 74 -13 105 -2 23 8 43 10 52 4 8 -5 32
-9 54 -9 50 0 68 -15 54 -43 -10 -18 -12 -18 -39 8 -30 28 -55 29 -66 1 -6
-16 104 -231 141 -274 13 -16 28 -53 34 -86 7 -38 18 -64 30 -72 11 -8 25 -37
32 -65 11 -42 21 -56 57 -82 24 -18 52 -48 62 -67 10 -19 29 -46 43 -59 l26
-23 73 16 c40 9 84 19 97 23 23 6 24 5 18 -37 -3 -24 -24 -82 -47 -128 -35
-71 -58 -99 -141 -180 -125 -120 -189 -219 -189 -291 0 -26 9 -74 20 -107 14
-39 22 -89 23 -148 l2 -88 -35 -27 c-19 -14 -65 -52 -103 -85 -61 -52 -68 -62
-64 -86 3 -15 9 -49 12 -77 l7 -49 -41 -18 c-37 -17 -41 -23 -52 -73 -7 -30
-19 -57 -26 -60 -8 -3 -25 -26 -38 -52 -13 -25 -43 -65 -68 -89 -42 -41 -51
-45 -148 -64 l-104 -20 -17 23 c-10 12 -16 30 -13 40 6 18 -39 118 -78 173
-21 29 -34 81 -43 166 -3 25 -18 70 -34 100 -44 86 -52 125 -38 195 6 33 19
71 30 84 28 36 25 65 -19 250 -10 38 -27 76 -43 95 -15 17 -39 48 -54 70 -23
35 -24 40 -11 59 10 14 15 44 14 87 0 60 -2 67 -30 88 -16 13 -48 26 -70 29
-29 4 -45 13 -57 32 -9 14 -17 28 -19 30 -1 2 -23 7 -48 12 -41 8 -54 5 -113
-22 -49 -22 -79 -30 -112 -28 -25 2 -69 -3 -98 -10 -52 -13 -54 -13 -80 11
-15 14 -48 39 -73 56 -32 22 -52 44 -63 73 -9 23 -34 62 -55 88 -42 50 -62
120 -42 145 18 22 25 138 11 180 -11 35 -10 40 23 90 19 29 49 80 66 114 25
49 42 68 85 96 50 32 55 39 61 80 6 38 13 49 41 67 19 11 41 36 48 54 14 32
16 33 60 28 36 -4 57 0 101 21 48 24 72 28 198 35 78 5 145 9 149 10 4 0 12
-8 18 -19z"/>
<path d="M2805 1200 c-20 -39 -36 -55 -73 -74 -26 -13 -58 -38 -71 -56 -21
-29 -22 -37 -14 -80 8 -41 7 -53 -9 -79 -26 -40 -26 -104 0 -163 23 -52 32
-56 90 -33 33 13 43 26 70 83 17 37 43 105 57 152 14 47 34 99 44 116 16 26
18 39 10 72 -11 51 -47 112 -65 112 -7 0 -25 -22 -39 -50z m59 -66 c5 -17 1
-35 -9 -50 -9 -14 -30 -71 -46 -127 -53 -176 -105 -243 -135 -172 -19 46 -18
68 7 110 18 29 20 45 15 88 -8 60 -2 69 69 105 22 11 49 34 60 51 22 34 30 33
39 -5z"/>
</g>
</svg>
