<?xml version="1.0" standalone="no"?>
<!DOCTYPE svg PUBLIC "-//W3C//DTD SVG 20010904//EN"
 "http://www.w3.org/TR/2001/REC-SVG-20010904/DTD/svg10.dtd">
<svg version="1.0" xmlns="http://www.w3.org/2000/svg"
 width="396.000000pt" height="349.000000pt" viewBox="0 0 396.000000 349.000000"
 preserveAspectRatio="xMidYMid meet">
<metadata>
Created by potrace 1.15, written by Peter Selinger 2001-2017
</metadata>
<g transform="translate(0.000000,349.000000) scale(0.100000,-0.100000)"
fill="#000000" stroke="none">
<path d="M1918 3153 c-48 -51 -103 -139 -129 -208 l-21 -57 -25 43 c-41 73
-90 125 -156 169 -84 55 -106 52 -131 -20 -23 -66 -27 -215 -7 -273 7 -21 11
-40 8 -43 -2 -3 -22 4 -43 15 -84 43 -229 65 -275 41 -11 -6 -19 -21 -19 -36
0 -46 42 -149 85 -210 l43 -60 -79 -12 c-84 -12 -186 -52 -214 -82 -12 -14
-14 -23 -7 -37 20 -36 118 -123 171 -152 l54 -29 -31 -7 c-37 -8 -137 -67
-174 -103 -48 -45 -34 -70 75 -136 67 -40 168 -66 254 -66 86 0 103 7 103 40
0 32 23 60 49 60 29 0 49 32 53 80 3 43 4 45 48 57 148 43 418 63 580 44 52
-6 139 -21 193 -33 l97 -21 0 -41 c0 -51 23 -86 55 -86 27 0 45 -25 45 -63 0
-19 6 -26 31 -31 83 -16 223 5 305 47 51 26 134 92 134 107 0 21 -81 84 -154
120 l-78 38 33 17 c83 42 189 145 189 183 0 34 -173 102 -261 102 l-49 0 37
48 c63 83 116 229 92 258 -26 32 -198 11 -292 -35 -22 -11 -42 -19 -44 -18 -1
2 4 25 12 52 30 97 9 280 -36 321 -17 15 -21 14 -74 -16 -71 -41 -145 -115
-181 -180 l-27 -50 -22 54 c-40 98 -141 246 -169 246 -6 0 -28 -17 -48 -37z
m138 -203 c42 -92 57 -172 52 -290 -6 -126 -34 -215 -99 -314 l-44 -67 -27 32
c-71 84 -128 248 -128 369 0 132 45 277 116 374 l36 48 34 -48 c19 -26 46 -73
60 -104z m-445 40 c26 -26 61 -74 78 -107 l30 -60 -80 -51 -79 -51 -19 37
c-38 74 -47 183 -24 279 4 19 8 21 26 11 11 -6 42 -32 68 -58z m806 -22 c6
-78 -7 -158 -35 -213 -8 -16 -16 -31 -17 -33 -2 -2 -33 17 -70 42 -37 25 -72
47 -78 49 -31 10 51 143 128 206 27 22 53 37 58 32 5 -5 11 -42 14 -83z
m-1125 -219 c58 -12 157 -61 183 -89 16 -18 15 -21 -8 -52 -14 -18 -34 -52
-46 -75 -12 -24 -25 -43 -30 -43 -4 0 -30 19 -56 42 -52 46 -102 118 -128 186
l-17 42 25 0 c13 0 48 -5 77 -11z m1433 -11 c-18 -60 -74 -144 -127 -193 -33
-30 -63 -55 -68 -55 -5 0 -19 19 -31 43 -12 23 -32 57 -46 75 -20 27 -22 36
-12 48 36 43 180 102 252 103 35 1 38 -1 32 -21z m-935 -310 c7 -18 29 -59 48
-91 19 -32 33 -59 31 -61 -2 -1 -50 -8 -105 -15 -119 -14 -279 -51 -346 -80
l-48 -20 0 54 c0 49 4 59 35 93 53 60 232 133 366 151 4 1 12 -14 19 -31z
m547 -17 c98 -34 178 -83 198 -122 8 -15 15 -50 15 -78 l0 -50 -42 19 c-86 38
-336 90 -432 90 -31 0 -32 4 -7 38 10 15 32 55 49 88 l31 61 53 -9 c29 -5 90
-22 135 -37z m-1037 18 c35 -5 67 -12 69 -15 3 -2 -12 -21 -32 -42 -22 -22
-41 -55 -48 -83 l-12 -46 -36 9 c-20 6 -49 17 -66 25 -48 25 -135 93 -135 106
0 15 55 37 115 48 60 10 74 10 145 -2z m1547 -19 l48 -22 -45 -40 c-47 -42
-154 -98 -190 -98 -14 0 -20 7 -20 23 0 27 -53 115 -75 123 -28 11 -15 22 38
33 77 15 187 6 244 -19z m-1562 -290 c4 -16 19 -40 33 -52 l27 -22 -20 -44
-20 -43 -56 5 c-63 6 -146 36 -192 68 -28 20 -29 22 -11 35 36 28 99 57 149
69 76 19 83 18 90 -16z m1490 2 c52 -20 115 -60 115 -72 0 -21 -145 -80 -210
-85 l-65 -6 -21 45 -20 44 20 10 c20 9 37 34 50 75 5 16 12 18 49 12 23 -4 60
-14 82 -23z"/>
<path d="M1335 1734 c-13 -14 -15 -44 -13 -216 3 -172 5 -202 19 -211 9 -6 24
-7 33 -4 14 6 16 31 16 216 0 198 -1 211 -19 221 -15 7 -23 6 -36 -6z"/>
<path d="M2547 1738 c-15 -8 -17 -32 -17 -219 0 -185 2 -210 16 -216 9 -3 24
-2 33 4 14 9 16 38 19 199 1 104 0 199 -3 210 -6 26 -25 35 -48 22z"/>
<path d="M1311 1243 c-114 -139 -156 -355 -102 -533 13 -41 30 -88 38 -105 24
-47 94 -135 108 -135 17 0 66 57 99 113 89 151 100 380 25 538 -40 83 -96 159
-119 159 -10 0 -32 -16 -49 -37z m100 -146 c66 -128 63 -314 -6 -454 -20 -40
-40 -73 -45 -73 -5 0 -21 20 -36 45 -89 153 -87 386 4 533 31 49 33 48 83 -51z"/>
<path d="M2509 1238 c-138 -190 -156 -418 -50 -633 47 -95 93 -145 119 -129
28 18 98 128 122 191 37 100 46 207 26 310 -27 138 -118 303 -167 303 -11 0
-32 -18 -50 -42z m87 -103 c87 -149 87 -371 0 -520 -15 -25 -31 -45 -35 -45
-15 0 -70 117 -86 181 -19 82 -19 172 0 257 15 67 67 172 85 172 5 0 21 -20
36 -45z"/>
</g>
</svg>
