<?xml version="1.0" standalone="no"?>
<!DOCTYPE svg PUBLIC "-//W3C//DTD SVG 20010904//EN"
 "http://www.w3.org/TR/2001/REC-SVG-20010904/DTD/svg10.dtd">
<svg version="1.0" xmlns="http://www.w3.org/2000/svg"
 width="385.000000pt" height="330.000000pt" viewBox="0 0 385.000000 330.000000"
 preserveAspectRatio="xMidYMid meet">
<metadata>
Created by potrace 1.15, written by Peter Selinger 2001-2017
</metadata>
<g transform="translate(0.000000,330.000000) scale(0.100000,-0.100000)"
fill="#000000" stroke="none">
<path d="M2220 2661 c-49 -15 -87 -40 -124 -81 -93 -103 -100 -218 -21 -312
19 -23 23 -34 15 -42 -8 -8 -13 -7 -19 3 -5 7 -17 11 -27 9 -16 -3 -20 -15
-24 -77 l-5 -73 -27 22 -28 21 22 42 c32 64 29 143 -8 204 -58 93 -175 153
-272 138 -73 -11 -144 -42 -218 -94 -88 -62 -179 -155 -171 -174 3 -8 25 -17
49 -21 62 -9 142 -58 177 -109 56 -82 126 -127 197 -127 43 0 122 31 150 60
16 16 34 30 40 30 6 0 29 -17 52 -38 l42 -39 0 -80 0 -80 -82 -7 c-46 -4 -112
-14 -148 -22 -132 -32 -325 -149 -325 -198 0 -34 32 -31 77 10 48 43 174 104
268 130 49 14 101 18 215 18 136 0 158 -3 230 -27 124 -41 219 -107 271 -189
25 -39 60 -51 70 -23 15 39 -116 174 -218 224 -59 29 -177 63 -260 76 l-38 6
0 132 c1 135 3 147 47 201 l21 26 34 -20 c75 -44 177 -41 245 8 19 14 47 54
73 105 48 95 85 138 143 163 57 24 66 32 60 52 -8 31 -188 123 -298 151 -46
12 -148 13 -185 2z m186 -65 c54 -14 177 -67 171 -73 -2 -2 -37 -13 -78 -24
-112 -31 -214 -85 -287 -153 -71 -66 -81 -67 -114 -6 -32 61 -22 122 32 190
59 74 157 98 276 66z m-570 -169 c76 -39 121 -121 104 -190 -8 -35 -20 -67
-25 -67 -2 0 -41 20 -87 44 -91 47 -183 72 -317 84 l-83 7 58 44 c142 104 252
129 350 78z m674 5 c0 -4 -6 -14 -12 -20 -7 -7 -29 -45 -48 -85 -43 -88 -80
-117 -151 -117 -48 0 -99 16 -99 32 0 18 71 85 124 116 50 31 161 81 179 82 4
0 7 -4 7 -8z m-796 -233 c33 -11 82 -34 109 -51 40 -26 46 -33 35 -46 -26 -31
-97 -54 -144 -47 -46 7 -66 22 -156 127 l-46 54 70 -8 c39 -5 98 -18 132 -29z"/>
<path d="M712 1648 c-14 -14 -17 -804 -4 -826 7 -9 44 -12 153 -10 l144 3 3
48 c2 26 5 47 7 47 2 0 83 -29 180 -65 228 -85 295 -99 449 -93 191 8 230 24
811 337 531 285 545 295 545 365 0 60 -62 126 -119 126 -15 0 -554 -145 -693
-186 -15 -4 -18 1 -18 30 0 27 -9 46 -34 74 l-34 37 -369 5 -368 5 -40 25
c-36 23 -52 25 -176 28 l-137 4 -6 29 -5 29 -139 0 c-94 0 -142 -4 -150 -12z
m238 -413 l0 -365 -95 0 -95 0 0 365 0 365 95 0 95 0 0 -365z m369 273 l53
-28 341 0 c377 0 390 -2 395 -56 6 -62 -3 -64 -269 -64 -239 0 -279 -5 -279
-35 0 -30 40 -35 273 -35 177 0 243 3 268 14 19 7 202 60 407 117 398 109 392
109 422 56 13 -24 13 -28 -6 -53 -27 -37 -969 -543 -1079 -580 -63 -21 -105
-28 -200 -31 -149 -6 -220 9 -460 100 l-170 65 -3 282 -2 282 128 -3 c116 -4
133 -6 181 -31z"/>
</g>
</svg>
