<?xml version="1.0" standalone="no"?>
<!DOCTYPE svg PUBLIC "-//W3C//DTD SVG 20010904//EN"
 "http://www.w3.org/TR/2001/REC-SVG-20010904/DTD/svg10.dtd">
<svg version="1.0" xmlns="http://www.w3.org/2000/svg"
 width="407.000000pt" height="345.000000pt" viewBox="0 0 407.000000 345.000000"
 preserveAspectRatio="xMidYMid meet">
<metadata>
Created by potrace 1.15, written by Peter Selinger 2001-2017
</metadata>
<g transform="translate(0.000000,345.000000) scale(0.100000,-0.100000)"
fill="#000000" stroke="none">
<path d="M2185 2751 l-200 -87 -3 -226 -2 -225 -40 -32 c-74 -59 -76 -148 -4
-211 64 -56 171 -34 207 43 9 19 17 47 17 62 0 40 -29 93 -61 112 l-29 17 0
107 0 106 160 68 160 68 0 144 c0 78 -1 143 -2 142 -2 0 -93 -40 -203 -88z
m115 -94 l0 -43 -102 -43 c-57 -24 -109 -46 -116 -49 -10 -3 -12 6 -10 38 l3
43 110 48 c61 26 111 48 113 48 1 1 2 -18 2 -42z"/>
<path d="M2795 2384 c-138 -30 -244 -96 -288 -178 -21 -40 -22 -52 -25 -401
l-3 -360 75 -369 c83 -414 70 -383 181 -436 128 -63 303 -63 430 0 103 50 97
34 175 426 l70 349 -2 386 -3 386 -28 41 c-40 57 -119 108 -213 138 -102 33
-266 41 -369 18z m320 -100 c102 -25 189 -89 201 -149 11 -58 -53 -122 -164
-167 -50 -19 -76 -22 -202 -22 -158 -1 -214 12 -295 67 -227 154 114 355 460
271z m-434 -388 c30 -13 80 -30 111 -37 l58 -12 -53 -56 c-28 -31 -55 -57 -58
-59 -4 -1 -31 40 -62 93 -31 52 -54 95 -52 95 1 0 27 -11 56 -24z m537 -74
c-29 -51 -56 -92 -60 -92 -3 0 -29 26 -57 58 l-50 59 57 13 c31 7 79 23 107
35 27 12 51 21 53 20 1 -1 -21 -43 -50 -93z m-189 -91 l82 -90 -32 -55 c-17
-31 -33 -56 -35 -56 -3 0 -16 8 -30 17 -33 21 -105 21 -137 0 -28 -18 -30 -17
-67 50 l-23 42 59 66 c32 36 68 77 78 91 11 13 21 24 22 24 0 0 38 -40 83 -89z
m-261 -246 l42 -74 0 -351 0 -351 -22 7 c-13 3 -35 15 -49 25 -24 17 -30 40
-91 346 l-66 327 66 73 c36 40 68 73 71 73 3 0 25 -34 49 -75z m480 1 c34 -37
62 -73 62 -80 0 -11 -113 -581 -125 -633 -4 -19 -68 -63 -90 -63 -3 0 -5 159
-5 354 l0 354 41 72 c23 39 44 70 48 68 4 -2 35 -34 69 -72z m-258 -496 l0
-300 -45 0 -45 0 0 300 0 300 45 0 45 0 0 -300z"/>
<path d="M2715 2121 c-26 -41 -25 -41 53 -71 84 -32 178 -43 258 -30 62 10
174 51 174 64 0 3 -9 20 -20 39 l-21 35 -67 -24 c-90 -32 -192 -32 -285 0
l-69 23 -23 -36z"/>
<path d="M1390 2286 l-245 -83 -5 -160 -5 -161 -28 -22 c-15 -12 -34 -35 -42
-50 -58 -111 66 -238 179 -185 96 46 111 166 30 234 -30 24 -35 34 -32 61 l3
33 158 53 157 52 0 -42 c0 -36 -4 -45 -25 -54 -38 -17 -65 -69 -65 -124 0 -39
6 -54 31 -82 58 -67 149 -67 208 -1 25 29 31 44 31 83 0 55 -27 107 -65 124
l-25 11 0 199 c0 109 -3 198 -7 197 -5 0 -118 -38 -253 -83z m170 -89 l0 -43
-147 -48 c-82 -27 -154 -51 -160 -53 -9 -4 -13 8 -13 39 l0 43 153 52 c83 28
155 52 160 52 4 1 7 -18 7 -42z"/>
<path d="M852 1417 c-83 -30 -146 -112 -189 -242 -22 -68 -26 -99 -26 -205 -1
-179 35 -297 121 -392 70 -78 69 -78 487 -78 l370 0 349 70 c383 76 372 72
419 159 80 146 74 355 -13 490 -21 32 -47 62 -57 65 -10 3 -176 37 -368 76
l-349 70 -356 -1 c-246 0 -365 -4 -388 -12z m122 -111 c71 -54 116 -185 116
-338 0 -117 -13 -185 -50 -258 -75 -149 -183 -152 -256 -8 -38 74 -54 153 -54
261 0 259 125 434 244 343z m992 -47 l312 -61 21 -38 c11 -21 21 -43 21 -49 0
-8 -99 -11 -350 -11 l-350 0 -52 31 c-29 18 -64 39 -77 47 l-24 15 74 68 c52
48 80 67 94 65 11 -3 160 -32 331 -67z m-728 -44 c35 -20 62 -40 60 -44 -4 -9
-104 -101 -110 -101 -3 0 -11 26 -18 58 -7 31 -23 81 -36 110 l-23 53 32 -19
c17 -10 60 -36 95 -57z m211 -121 c25 -15 47 -28 49 -30 2 -1 -4 -17 -13 -35
-21 -39 -16 -120 8 -147 16 -17 13 -20 -38 -51 -54 -33 -55 -33 -78 -15 -61
49 -157 140 -156 149 1 12 160 155 173 155 5 0 30 -12 55 -26z m891 -129 l0
-45 -299 0 -299 0 0 45 0 45 299 0 299 0 0 -45z m-1066 -183 l39 -41 -109 -70
c-60 -38 -109 -69 -111 -68 -1 2 13 33 32 70 19 37 39 94 46 127 l12 60 26
-19 c14 -11 43 -37 65 -59z m1046 33 c0 -19 -43 -84 -57 -89 -10 -3 -159 -33
-331 -67 l-312 -62 -68 60 c-37 33 -67 65 -67 71 0 6 27 29 60 51 l60 39 358
1 c196 1 357 -1 357 -4z"/>
</g>
</svg>
