<?xml version="1.0" standalone="no"?>
<!DOCTYPE svg PUBLIC "-//W3C//DTD SVG 20010904//EN"
 "http://www.w3.org/TR/2001/REC-SVG-20010904/DTD/svg10.dtd">
<svg version="1.0" xmlns="http://www.w3.org/2000/svg"
 width="331.000000pt" height="296.000000pt" viewBox="0 0 331.000000 296.000000"
 preserveAspectRatio="xMidYMid meet">
<metadata>
Created by potrace 1.15, written by Peter Selinger 2001-2017
</metadata>
<g transform="translate(0.000000,296.000000) scale(0.100000,-0.100000)"
fill="#000000" stroke="none">
<path d="M2244 2518 c-99 -8 -214 -45 -308 -100 -68 -40 -190 -151 -234 -213
l-21 -30 -16 23 c-94 131 -221 227 -378 286 -79 29 -88 30 -242 31 -150 0
-165 -2 -240 -28 -251 -88 -435 -286 -501 -542 -21 -84 -24 -242 -5 -330 31
-145 109 -285 213 -385 61 -57 1156 -910 1170 -910 15 0 1137 876 1183 924
183 191 255 460 190 711 -55 211 -211 400 -408 494 -132 62 -247 82 -403 69z
m-1111 -118 c151 -22 312 -113 403 -229 40 -51 105 -171 134 -246 11 -28 12
-27 54 67 62 137 108 199 205 278 210 169 513 181 743 30 332 -218 385 -693
109 -969 -58 -59 -1063 -845 -1094 -856 -13 -5 -999 753 -1088 837 -75 70
-133 163 -166 262 -33 103 -38 267 -9 360 64 212 216 371 421 441 99 34 179
41 288 25z"/>
<path d="M1749 1576 c-63 -195 -117 -351 -120 -348 -4 4 -53 112 -110 240 -57
127 -106 232 -109 232 -3 0 -23 -52 -45 -115 l-40 -115 -152 0 -153 0 0 -55 0
-55 189 0 189 0 11 32 c6 17 13 29 15 27 2 -2 50 -107 106 -234 56 -126 106
-237 110 -245 5 -9 46 102 115 315 59 182 111 334 115 338 4 4 28 -51 55 -123
l48 -130 183 0 184 0 0 50 0 49 -146 3 -146 3 -89 239 c-49 132 -90 241 -92
242 -2 2 -55 -156 -118 -350z"/>
</g>
</svg>
