<?xml version="1.0" standalone="no"?>
<!DOCTYPE svg PUBLIC "-//W3C//DTD SVG 20010904//EN"
 "http://www.w3.org/TR/2001/REC-SVG-20010904/DTD/svg10.dtd">
<svg version="1.0" xmlns="http://www.w3.org/2000/svg"
 width="369.000000pt" height="328.000000pt" viewBox="0 0 369.000000 328.000000"
 preserveAspectRatio="xMidYMid meet">
<metadata>
Created by potrace 1.15, written by Peter Selinger 2001-2017
</metadata>
<g transform="translate(0.000000,328.000000) scale(0.100000,-0.100000)"
fill="#000000" stroke="none">
<path d="M2530 2715 c-16 -19 -4 -52 23 -59 12 -3 89 -6 172 -6 l150 0 -183
-182 c-137 -138 -185 -180 -195 -173 -66 49 -143 93 -211 118 -77 30 -89 31
-221 32 -128 0 -147 -3 -217 -28 l-76 -28 -79 28 c-71 25 -91 28 -213 27 -121
0 -143 -3 -210 -27 -106 -39 -173 -81 -255 -162 -130 -127 -196 -287 -196
-470 0 -120 17 -191 73 -305 53 -109 167 -226 275 -283 71 -37 202 -77 255
-77 l28 0 0 -145 0 -145 -134 0 c-109 0 -138 -3 -150 -16 -19 -18 -19 -20 -6
-45 10 -17 23 -19 150 -19 l139 0 3 -136 c3 -115 6 -139 20 -147 12 -8 21 -7
32 2 13 11 16 38 16 152 l0 138 141 3 c120 3 144 6 152 20 8 12 7 21 -2 32
-11 13 -38 16 -152 16 l-139 0 0 144 c0 162 -7 149 85 161 28 4 77 17 110 29
l60 23 61 -23 c310 -116 674 29 823 327 54 108 74 204 69 332 -6 148 -52 269
-153 404 -7 10 35 58 173 195 l182 183 0 -163 c0 -149 2 -164 20 -182 16 -16
25 -18 40 -10 19 10 20 22 20 233 0 160 -3 226 -12 235 -9 9 -75 12 -234 12
-181 0 -224 -3 -234 -15z m-926 -350 c38 -8 71 -16 73 -19 2 -2 -33 -41 -79
-87 -95 -96 -145 -180 -179 -304 -30 -110 -24 -276 14 -383 43 -123 127 -239
226 -314 l35 -26 -60 -18 c-84 -25 -238 -22 -324 5 -205 65 -376 257 -410 462
-70 416 295 771 704 684z m646 -21 c186 -62 336 -221 385 -410 19 -75 19 -223
0 -298 -75 -286 -361 -476 -657 -436 -130 18 -131 20 -49 96 142 132 215 297
214 489 0 186 -63 336 -200 473 l-82 83 27 10 c90 34 246 31 362 -7z m-425
-74 c122 -84 217 -238 243 -394 13 -84 13 -102 -1 -186 -19 -114 -65 -212
-137 -292 -50 -57 -139 -128 -158 -128 -6 0 -38 22 -71 48 -261 210 -307 561
-107 830 41 56 154 152 178 152 5 0 29 -13 53 -30z"/>
</g>
</svg>
