<?xml version="1.0" standalone="no"?>
<!DOCTYPE svg PUBLIC "-//W3C//DTD SVG 20010904//EN"
 "http://www.w3.org/TR/2001/REC-SVG-20010904/DTD/svg10.dtd">
<svg version="1.0" xmlns="http://www.w3.org/2000/svg"
 width="387.000000pt" height="362.000000pt" viewBox="0 0 387.000000 362.000000"
 preserveAspectRatio="xMidYMid meet">
<metadata>
Created by potrace 1.15, written by Peter Selinger 2001-2017
</metadata>
<g transform="translate(0.000000,362.000000) scale(0.100000,-0.100000)"
fill="#000000" stroke="none">
<path d="M1873 3295 c-41 -17 -63 -61 -73 -144 -4 -36 -8 -59 -9 -50 0 8 -15
28 -32 45 -25 24 -39 29 -79 29 -43 0 -54 -5 -82 -33 -32 -32 -33 -35 -36
-132 -2 -55 -5 -100 -6 -100 -2 0 -18 7 -35 16 -45 22 -97 12 -136 -26 l-30
-30 -6 -323 c-4 -264 -8 -331 -22 -370 -29 -85 -42 -250 -28 -371 41 -361 160
-513 385 -492 77 7 98 19 94 50 -3 20 -8 21 -85 18 -137 -6 -202 27 -253 131
-82 167 -100 486 -39 682 17 53 19 94 19 356 0 216 3 298 12 307 16 16 63 15
77 -1 6 -8 15 -108 21 -253 l11 -239 -26 -20 c-28 -23 -32 -47 -10 -65 12 -10
22 -8 53 13 142 94 313 132 482 109 52 -8 78 -8 87 0 19 16 16 46 -6 53 -18 5
-19 13 -15 73 2 37 9 177 14 311 6 149 15 250 21 258 14 16 43 17 70 3 18 -10
19 -27 19 -529 l0 -518 -92 -6 c-140 -8 -242 -52 -326 -140 -23 -24 -33 -42
-30 -58 5 -40 40 -35 76 10 21 26 58 53 109 78 l77 38 127 0 128 -1 17 46 c61
163 155 282 248 313 65 22 109 22 130 -2 24 -26 13 -46 -79 -142 -86 -91 -144
-199 -178 -333 l-22 -90 -173 -180 -172 -179 2 -276 3 -276 22 -3 c38 -5 43
32 43 290 l0 240 171 179 171 178 15 73 c30 146 96 268 202 372 71 69 88 110
66 162 -22 53 -68 76 -138 71 -109 -9 -228 -92 -294 -205 l-28 -47 -5 472 -5
473 -33 32 c-28 28 -39 33 -82 33 -42 0 -54 -5 -81 -32 -28 -27 -33 -41 -39
-100 -7 -63 -7 -60 -9 45 -1 130 -14 172 -63 202 -38 23 -70 25 -115 5z m90
-72 c13 -15 16 -68 22 -348 3 -181 8 -344 11 -362 l5 -31 -73 -4 c-40 -2 -74
-3 -76 -2 -1 0 3 163 9 360 12 383 16 404 63 404 12 0 30 -8 39 -17z m-250
-125 c15 -11 18 -50 27 -313 5 -165 10 -307 10 -316 0 -10 -19 -22 -52 -33
-29 -9 -59 -20 -65 -23 -10 -4 -13 39 -13 195 0 290 10 471 27 488 18 17 44
18 66 2z"/>
<path d="M1164 2590 c-32 -12 -64 -59 -64 -92 0 -28 -1 -29 -22 -14 -35 25
-91 20 -120 -9 -19 -19 -27 -40 -32 -86 -7 -59 -8 -61 -32 -55 -33 9 -88 -18
-103 -50 -7 -16 -11 -98 -11 -230 0 -168 -3 -216 -17 -262 -14 -43 -18 -90
-17 -192 2 -306 104 -453 294 -424 47 8 55 12 58 33 5 33 -10 39 -82 34 -52
-4 -66 -2 -96 19 -45 30 -76 93 -95 192 -21 109 -19 227 5 321 17 66 20 111
20 282 0 176 2 204 16 210 8 3 19 2 24 -3 5 -5 12 -82 16 -172 6 -146 5 -164
-10 -181 -21 -23 -18 -54 6 -59 9 -2 34 8 55 21 58 36 122 58 198 65 71 7 94
23 82 56 -4 11 -19 16 -46 16 l-40 0 6 183 c3 100 8 216 12 257 5 66 8 75 26
75 19 0 20 -9 28 -165 8 -169 16 -198 49 -185 9 4 19 12 21 19 3 7 3 86 0 176
-6 158 -7 164 -32 191 -29 30 -65 41 -97 29z m-110 -386 l6 -212 -31 -11 c-18
-6 -34 -11 -36 -11 -2 0 -3 101 -1 225 2 188 6 227 18 235 31 19 37 -12 44
-226z"/>
<path d="M2692 2098 c-9 -9 -12 -79 -12 -273 l0 -262 -41 -1 c-63 -3 -111 -19
-157 -52 -46 -33 -65 -61 -56 -84 11 -28 34 -26 72 9 52 46 84 57 169 57 79
-1 81 1 107 69 32 88 123 164 173 145 12 -5 6 -16 -29 -54 -57 -61 -92 -122
-114 -197 -15 -52 -29 -73 -115 -165 l-99 -105 0 -163 c0 -141 2 -163 16 -169
9 -3 24 -2 33 4 13 8 16 35 19 158 l3 149 98 101 c85 87 99 106 105 144 10 66
49 140 106 200 66 71 69 125 8 157 -53 28 -166 -13 -206 -74 -16 -25 -17 -20
-22 193 -5 211 -6 220 -25 223 -11 1 -26 -3 -33 -10z"/>
<path d="M2590 1975 c-6 -8 -14 -58 -17 -112 -5 -80 -3 -101 9 -111 20 -16 47
-5 52 22 3 11 7 58 9 104 4 64 2 86 -10 97 -18 19 -27 19 -43 0z"/>
<path d="M1330 1298 l-50 -53 0 -186 c0 -197 4 -215 47 -207 16 3 18 19 21
189 l2 185 35 34 c40 38 44 64 15 80 -18 10 -27 4 -70 -42z"/>
<path d="M2182 1328 c-19 -19 -14 -49 14 -107 41 -81 117 -121 204 -106 42 7
64 32 50 55 -6 9 -30 14 -75 14 -62 1 -69 3 -95 33 -16 18 -34 50 -40 72 -5
21 -17 42 -26 45 -20 8 -18 8 -32 -6z"/>
<path d="M1441 1266 c-8 -9 -11 -73 -9 -206 3 -165 5 -194 19 -203 9 -6 24 -7
33 -4 14 6 16 30 16 205 0 198 -4 222 -36 222 -6 0 -17 -6 -23 -14z"/>
<path d="M844 1157 c-2 -7 -3 -78 -2 -157 3 -134 4 -145 22 -148 37 -7 46 24
46 156 0 68 -5 132 -10 143 -12 22 -48 26 -56 6z"/>
<path d="M2231 1101 c-6 -11 -11 -64 -11 -118 0 -106 11 -138 46 -131 18 3 19
13 19 133 0 126 -1 130 -22 133 -14 2 -26 -4 -32 -17z"/>
</g>
</svg>
