<?xml version="1.0" standalone="no"?>
<!DOCTYPE svg PUBLIC "-//W3C//DTD SVG 20010904//EN"
 "http://www.w3.org/TR/2001/REC-SVG-20010904/DTD/svg10.dtd">
<svg version="1.0" xmlns="http://www.w3.org/2000/svg"
 width="356.000000pt" height="293.000000pt" viewBox="0 0 356.000000 293.000000"
 preserveAspectRatio="xMidYMid meet">
<metadata>
Created by potrace 1.15, written by Peter Selinger 2001-2017
</metadata>
<g transform="translate(0.000000,293.000000) scale(0.100000,-0.100000)"
fill="#000000" stroke="none">
<path d="M1698 2656 c-171 -46 -219 -261 -83 -374 87 -71 197 -68 281 10 100
92 92 249 -17 327 -22 17 -55 33 -72 36 -18 4 -39 8 -47 10 -8 2 -36 -2 -62
-9z m148 -61 c28 -16 49 -39 63 -68 60 -124 -22 -257 -158 -257 -62 0 -97 16
-139 64 -71 81 -47 207 52 267 46 28 128 26 182 -6z"/>
<path d="M1747 2184 c-14 -15 -6 -34 14 -34 33 0 89 -30 107 -58 12 -19 18
-57 22 -136 l5 -111 133 0 c169 0 185 19 20 23 l-118 3 0 85 c0 115 -27 176
-90 209 -34 17 -84 27 -93 19z"/>
<path d="M1577 2024 c-4 -4 -7 -185 -7 -402 0 -345 2 -398 16 -429 32 -66 40
-68 314 -71 l246 -3 215 -215 214 -214 117 117 c65 65 118 123 118 130 0 33
-42 4 -135 -94 l-101 -107 -208 212 -208 211 -254 3 c-227 3 -255 5 -271 21
-17 16 -18 52 -23 429 -5 393 -8 436 -33 412z"/>
<path d="M1303 1835 c-322 -149 -494 -478 -429 -819 30 -155 95 -275 211 -391
144 -143 306 -208 520 -208 108 0 130 3 215 31 147 49 284 149 365 267 31 45
36 58 26 68 -10 10 -18 5 -39 -23 -57 -77 -178 -185 -247 -222 -122 -63 -203
-83 -340 -82 -101 1 -133 5 -200 27 -114 38 -198 90 -287 179 -214 214 -261
552 -116 830 68 132 227 274 356 319 30 10 42 32 24 43 -5 3 -31 -6 -59 -19z"/>
<path d="M1895 1697 c-3 -7 -4 -94 -3 -192 l3 -180 155 -5 c137 -4 159 -8 190
-27 19 -12 100 -87 180 -168 80 -80 148 -145 152 -145 31 0 -13 57 -145 187
-190 189 -196 192 -369 193 l-128 0 0 160 0 159 118 3 c161 4 149 22 -18 26
-100 2 -132 0 -135 -11z"/>
<path d="M1104 906 c-3 -8 6 -33 21 -55 63 -101 162 -181 283 -229 60 -23 80
-26 192 -26 147 0 204 16 313 90 104 71 227 234 176 234 -4 0 -26 -24 -47 -53
-118 -159 -264 -237 -442 -237 -181 0 -343 89 -441 241 -32 51 -46 59 -55 35z"/>
</g>
</svg>
