<svg id="Layer_1" data-name="Layer 1" xmlns="http://www.w3.org/2000/svg" xmlns:xlink="http://www.w3.org/1999/xlink" viewBox="0 0 112.59 113.38"><defs><style>.cls-1{fill:none;}.cls-2{clip-path:url(#clip-path);}</style><clipPath id="clip-path" transform="translate(-14.57 -14.18)"><rect class="cls-1" x="14.47" y="14.17" width="112.8" height="113.39"/></clipPath></defs><title>eambiental</title><g class="cls-2"><path d="M125.19,94.55a12.9,12.9,0,0,0-15.62-4.23L94,97.11c-.45-5.87-5.44-11.36-13.72-11.36A89.6,89.6,0,0,0,80,73.29,20.47,20.47,0,0,0,102.34,64a41,41,0,0,0-3.7-48.58,3.53,3.53,0,0,0-3.37-1.14,39.91,39.91,0,0,0-17.65,8.6A40,40,0,0,0,60,14.25a3.54,3.54,0,0,0-3.38,1.14A41,41,0,0,0,52.89,64,20.41,20.41,0,0,0,73,73.69a81.76,81.76,0,0,1,.34,10C62,76.14,59.61,77,43.66,77v-.79a3.52,3.52,0,0,0-3.52-3.52h-22a3.52,3.52,0,0,0-3.52,3.52V124a3.52,3.52,0,0,0,3.52,3.52h22A3.52,3.52,0,0,0,43.63,124v-4.61H55.92c18.61,6.21,17.12,6.22,27.91,6.22a33.2,33.2,0,0,0,14.9-3.52L120.66,111c6.26-3.17,8.48-10.72,4.53-16.48ZM96.36,60.22a13.43,13.43,0,0,1-9.78,6.46,20.94,20.94,0,0,0,5.26-16,40.92,40.92,0,0,0-9.26-22.86,32.84,32.84,0,0,1,12-6.22,33.94,33.94,0,0,1,1.73,38.57Zm-37.53,0a34,34,0,0,1,1.73-38.58A33.31,33.31,0,0,1,84.8,51.28a13.76,13.76,0,0,1-6.12,13A107.53,107.53,0,0,0,72.5,43.65,3.53,3.53,0,0,0,66,46.32a100.15,100.15,0,0,1,6,20.39,13.41,13.41,0,0,1-13.13-6.49ZM36.59,120.51h-15V79.77h15ZM120,101.79a4.63,4.63,0,0,1-2.5,2.95l-21.94,11.1c-6,3-10.75,2.76-15.53,2.76-5.58,0-7.91-1.21-22.4-6-.78-.26-.1-.18-14-.18V84.09h11a21.37,21.37,0,0,1,11.77,3.5l6.92,4.62c1.17.78,1.68.59,7.55.59,3.34,0,6,2.33,6,5.21V99c-16,0-16.25.47-21.46-1.75a3.53,3.53,0,1,0-2.77,6.49A24.57,24.57,0,0,0,73.12,106c18.71,0,17.82.12,18.78-.29l20.49-8.93c4-1.75,8.54,1.28,7.6,5Z" transform="translate(-14.57 -14.18)"/></g></svg>