<svg id="Layer_1" data-name="Layer 1" xmlns="http://www.w3.org/2000/svg" xmlns:xlink="http://www.w3.org/1999/xlink" viewBox="0 0 106.81 114.37"><defs><style>.cls-1{fill:none;}.cls-2{clip-path:url(#clip-path);}</style><clipPath id="clip-path" transform="translate(-17.2 -13.68)"><rect class="cls-1" x="17.42" y="14.17" width="106.89" height="113.39"/></clipPath></defs><title>africa</title><g class="cls-2"><path d="M117.32,52.19c-1.78-1.47-4.07-.72-6.08-.06s-3.75,1.15-4.34.45l-.59-.7c-1.76-2.09-2-2.41-3.48-3.18-.41-.22-1.11-.58-2.36-1.38-.71-.45-1.29-3.1-1.58-4.39a16.55,16.55,0,0,0-1.06-3.59,8.6,8.6,0,0,0-2.48-3,9.78,9.78,0,0,1-2.55-3c-.39-.69-.32-1.52-.15-2.92.24-2,.53-4.5-1.3-7.07-1.15-1.6-2.84-1.42-5.91-1.08-2.06.23-5.51.6-7,0a29.68,29.68,0,0,0-3.83-1.09c-2.16-.46-4.54-.69-5.91,1a4,4,0,0,0-.92,2.7l-.08-.05A10,10,0,0,0,65,23.75a5.78,5.78,0,0,1-2.53-1.62l-.08-.35C61.86,19.19,61.36,17,57.77,15a11.76,11.76,0,0,0-10.5-.17,11.11,11.11,0,0,0-1.12.69,8.37,8.37,0,0,1-2.5,1.3,6.78,6.78,0,0,1-1.47,0A10.15,10.15,0,0,0,38.4,17c-3.85,1.11-8,3.73-8,7.77a3,3,0,0,1-.21,1.45,5.43,5.43,0,0,1-1.27.6,14,14,0,0,0-7,5.43c-.18.26-.34.48-.52.72-1.64,2.23-2.25,3.55-2.25,8.6a12.25,12.25,0,0,1-.82,3.87c-1.12,3.45-2.4,7.36,1.52,14.68,1.18,2.2,5.72,5.72,6.24,6.11,5.36,4.11,7.53,4.07,9,3.48a8.49,8.49,0,0,1,4.47-.64,11.16,11.16,0,0,0,7.79-1.94,15.84,15.84,0,0,1,3,.59,23.19,23.19,0,0,0,3.9.77,20.89,20.89,0,0,1-.81,2.47c-.1.27-.2.52-.27.72-1.45,4.08,1,5.91,2.4,7a8.16,8.16,0,0,1,1.72,1.6,2.72,2.72,0,0,0,3.8.54,2.72,2.72,0,0,0,.53-3.8,13.1,13.1,0,0,0-2.78-2.66c-.13-.1-.47-.35-.66-.52a3.43,3.43,0,0,1,.1-.33c.05-.14.11-.31.18-.49l.05-.12c.84-2.19,2.1-5.5.44-7.91A4.48,4.48,0,0,0,55,63.08a15.86,15.86,0,0,1-3.31-.63c-2.51-.64-5.1-1.31-7.15,0a6.12,6.12,0,0,1-4.64,1.18,13.68,13.68,0,0,0-6.38.84,21,21,0,0,1-4.59-3,26.45,26.45,0,0,1-4.25-4C21.81,52.27,22.56,50,23.5,47.11a17.06,17.06,0,0,0,1.09-5.54c0-3.75.23-4.06,1.2-5.39l.59-.82A8.64,8.64,0,0,1,31,31.86c2.06-.82,4.89-1.95,4.89-7.1,0-.41,1.38-1.78,4-2.55a5.93,5.93,0,0,1,1.8,0,9.53,9.53,0,0,0,3.26-.1A13.27,13.27,0,0,0,49.25,20c.18-.12.39-.27.47-.31a6.46,6.46,0,0,1,5.45.1c1.42.77,1.46,1,2,3.18l.08.38c.65,2.89,4.26,5.17,6.62,5.71a7.35,7.35,0,0,1,1.19.58c1.46.82,4.19,2.35,7.11.37a3.42,3.42,0,0,0,1.55-3.4,23.21,23.21,0,0,1,2.83.82c2.73,1,6.5.62,9.54.29l1.3-.14a9.06,9.06,0,0,1-.09,2.25,9.47,9.47,0,0,0,.82,6.23,14.92,14.92,0,0,0,3.77,4.49A3.56,3.56,0,0,1,93,41.72a15.28,15.28,0,0,1,.64,2.38c.6,2.73,1.35,6.14,4,7.8,1.39.88,2.18,1.3,2.74,1.6s.51.27,1.87,1.88l.59.7c3,3.55,7.49,2.09,10.17,1.21l.12,0c-.57,3.65-1.33,4.59-4.29,8.21l-.26.31a37.28,37.28,0,0,1-6.19,6.12c-1.8,1.45-3.36,2.71-4.26,5.36-.75,2.2-1,5.26-1,11.29a24.53,24.53,0,0,0,.35,4.18,9.17,9.17,0,0,1,.11,3c-.11.87-.46,1.19-2.39,2.12-2.26,1.1-6.48,3.15-4.92,9.61a11.62,11.62,0,0,1-.4,3.43,7.42,7.42,0,0,1-2.59,3.25,40.49,40.49,0,0,0-4.38,3.3c-3,2.44-7.08,5.79-9.41,5.08a7,7,0,0,1-1.77-.72c0-.13-.06-.35-.08-.52A9.56,9.56,0,0,0,70,117a6.83,6.83,0,0,1-1.4-3.69c-.21-1.71-.47-3.84-3.06-8a10.19,10.19,0,0,1-1.57-6.66,2.72,2.72,0,1,0-5.33-1.05,15.47,15.47,0,0,0,2.3,10.58c1.94,3.09,2.1,4.37,2.27,5.73a12.1,12.1,0,0,0,2.27,6,4.26,4.26,0,0,1,.72,2.09c.38,2.67,1.39,4.37,5.64,5.67a7.64,7.64,0,0,0,2.24.33c4.36,0,8.7-3.55,12.22-6.43A38.41,38.41,0,0,1,90,118.79a12.77,12.77,0,0,0,4.8-5.87,15.33,15.33,0,0,0,.67-6.6c-.38-1.52-.16-2.12,0-2.34a6,6,0,0,1,2-1.24c1.84-.9,4.92-2.39,5.4-6.34a14.61,14.61,0,0,0-.14-4.53,19.64,19.64,0,0,1-.28-3.34c0-5.23.21-8,.74-9.54.38-1.11.91-1.58,2.54-2.9a42.81,42.81,0,0,0,7-6.9l.26-.31c3.65-4.47,4.87-6,5.69-12.58A4.28,4.28,0,0,0,117.32,52.19Z" transform="translate(-17.2 -13.68)"/></g><path d="M122.55,90.57a4.68,4.68,0,0,0-3.23-2c-3-.4-4.66,2.32-5.79,4.13l-.2.31c-.54.85-.77.93-2.07,1.36l-.61.2c-2.3.8-2.66,3.26-3,5.64a14.51,14.51,0,0,1-1,4.09c-1.34,2.78-2.26,6.7-.81,9.35a4.65,4.65,0,0,0,3.62,2.41,9.12,9.12,0,0,0,1,.06c4.6,0,6.46-4.05,7.72-6.8a11.93,11.93,0,0,1,1.52-2.75,17.46,17.46,0,0,0,4.13-8.68c.36-1.72.3-5.11-1.28-7.32Zm-3,6.48a13.17,13.17,0,0,1-3,6.53,14.77,14.77,0,0,0-2.3,3.92c-1.55,3.38-2.33,4.4-4.18,4.18-.2,0-.22-.06-.26-.14-.42-.77-.19-3,.91-5.3a18.46,18.46,0,0,0,1.39-5.37,16.4,16.4,0,0,1,.43-2.23l.22-.07a7,7,0,0,0,4.41-3.2l.2-.33A9.83,9.83,0,0,1,118.81,93a1.1,1.1,0,0,1,.14.15,6.54,6.54,0,0,1,.56,3.91Z" transform="translate(-17.2 -13.68)"/><path d="M62,85.51a2.71,2.71,0,1,0,2.71,2.71A2.71,2.71,0,0,0,62,85.51Z" transform="translate(-17.2 -13.68)"/></svg>