<svg id="Layer_1" data-name="Layer 1" xmlns="http://www.w3.org/2000/svg" viewBox="0 0 126.76 113.4"><defs><style>.cls-1{fill:#010101;}</style></defs><title>indigena</title><path class="cls-1" d="M131.77,98.64H109.7c5.48-3.37,16-13.32,16-39.94,0-34.9-18.11-43.92-18.89-44.29a2.48,2.48,0,0,0-2.13,0c-.77.37-18.89,9.39-18.89,44.29Q85.82,62,86,65c-9.25-4.52-15.65-2.35-16-2.24a2.45,2.45,0,0,0-1.5,1.5c-.18.51-4.22,12.56,11,27.77a46.3,46.3,0,0,0,8.08,6.57H10a2.48,2.48,0,0,0-2.48,2.48v24A2.48,2.48,0,0,0,10,127.57H62.81a2.48,2.48,0,0,0,0-5H56L70.87,105l14.8,17.63H79.73a2.48,2.48,0,0,0,0,5h52a2.48,2.48,0,0,0,2.48-2.48v-24A2.47,2.47,0,0,0,131.77,98.64Zm-2.48,20.22-12.83-15.27h12.83ZM91,52.6l12.31,12.31v7.67L99.72,69a2.47,2.47,0,0,0-3.5,3.5l7.09,7.09v14a22.62,22.62,0,0,1-4.56-4.56c-3.63-4.77-8-13.91-8-30.36Q90.79,55.49,91,52.6Zm2.12-12.9,10.19,10.19v8l-11.6-11.6A61.45,61.45,0,0,1,93.12,39.7Zm26.75,6.6L108.26,57.91v-8l10.21-10.21A60.37,60.37,0,0,1,119.87,46.3Zm-14,57.29L91,121.22l-14.8-17.63Zm7-14.53a22.87,22.87,0,0,1-4.56,4.56v-14l7.09-7.09a2.47,2.47,0,0,0-3.5-3.5l-3.59,3.59V64.91l12.32-12.32c.13,1.93.21,4,.21,6.11C120.78,75.15,116.46,84.29,112.83,89.06Zm3.9-54.62-.18.16-8.29,8.29V21.51A34.69,34.69,0,0,1,116.73,34.44Zm-17.86-7.7a29.92,29.92,0,0,1,4.44-5.22V42.88l-8.44-8.45A40.39,40.39,0,0,1,98.87,26.74ZM73.28,72.29A16.17,16.17,0,0,1,73,67.21c2.22-.28,7.15-.23,13.68,3.86,2.43,16.11,9.4,23.57,14,26.82a13.46,13.46,0,0,1-2.18-.15c-3.37-.5-8.8-2.49-15.48-9.17S74,76,73.28,72.29Zm-7.71,31.3L50.72,121.22,35.91,103.59Zm-40.28,0L12.44,118.86V103.59Zm-9.53,19L30.6,105l14.82,17.63ZM111.15,105,126,122.61H96.29Z" transform="translate(-7.48 -14.17)"/></svg>