<svg id="Layer_1" data-name="Layer 1" xmlns="http://www.w3.org/2000/svg" xmlns:xlink="http://www.w3.org/1999/xlink" viewBox="0 0 131.99 112.93"><defs><style>.cls-1{fill:none;}.cls-2{clip-path:url(#clip-path);}</style><clipPath id="clip-path" transform="translate(-4.87 -14.41)"><rect class="cls-1" x="4.88" y="14.17" width="131.98" height="113.39"/></clipPath></defs><title>pcultural</title><g class="cls-2"><path d="M135.16,21.78c-.44-.3-11-7.37-37-7.37s-36.58,7.07-37,7.37A3.9,3.9,0,0,0,59.43,25v7.74a103.34,103.34,0,0,0-23.64,8.13C12.28,51.9,5.68,62.8,5.41,63.25a3.92,3.92,0,0,0-.17,3.63l15.84,33.76a46.35,46.35,0,0,0,53.79,25.17h0a3.73,3.73,0,0,0,1.24-.59,46.31,46.31,0,0,0,15.37-18.79,47.92,47.92,0,0,0,5.92,1.5l.35,0h0l.35,0a4.25,4.25,0,0,0,.71-.06,46.4,46.4,0,0,0,38-45.64V25a3.91,3.91,0,0,0-1.7-3.21Zm-107,75.55L13.29,65.69c2.59-3.07,9.85-10.28,25.81-17.77s26.15-8.46,30.17-8.49L84.12,71.07A38.6,38.6,0,0,1,72.2,118.45,38.6,38.6,0,0,1,28.14,97.33Zm100.92-35a38.6,38.6,0,0,1-30.92,37.83,38.78,38.78,0,0,1-4-1.05,46.48,46.48,0,0,0,.19-22.46,14.37,14.37,0,0,1,14,3.67,3.9,3.9,0,1,0,5.52-5.51,22.21,22.21,0,0,0-22-5.57c-.21-.48-.42-1-.64-1.45L84.86,54.28a11.85,11.85,0,0,0,8.33-3.49,3.9,3.9,0,1,0-5.51-5.51,4.13,4.13,0,0,1-5.84,0,3.93,3.93,0,0,0-1.67-1L75.33,34a3.92,3.92,0,0,0-2.9-2.19,25.62,25.62,0,0,0-5.21-.11V27.32c3.61-1.67,13.23-5.12,30.92-5.12s27.27,3.45,30.92,5.13Z" transform="translate(-4.87 -14.41)"/></g><path d="M113.2,54.29a11.84,11.84,0,0,0,8.43-3.49,3.9,3.9,0,0,0-5.51-5.51,4.13,4.13,0,0,1-5.84,0,3.9,3.9,0,0,0-5.51,5.51,11.84,11.84,0,0,0,8.43,3.49Z" transform="translate(-4.87 -14.41)"/><path d="M47.94,78.43a3.9,3.9,0,0,0-2.34-5A11.93,11.93,0,0,0,30.33,80.6a3.9,3.9,0,0,0,2.34,5,3.83,3.83,0,0,0,1.32.23,3.9,3.9,0,0,0,3.66-2.57,4.14,4.14,0,0,1,5.29-2.49,3.88,3.88,0,0,0,5-2.33Z" transform="translate(-4.87 -14.41)"/><path d="M58.43,73.51a3.83,3.83,0,0,0,1.32.23,3.91,3.91,0,0,0,3.67-2.57,4.14,4.14,0,0,1,5.29-2.49,3.9,3.9,0,0,0,2.65-7.33,12,12,0,0,0-15.27,7.16,3.89,3.89,0,0,0,2.34,5Z" transform="translate(-4.87 -14.41)"/><path d="M75.6,88.8a3.9,3.9,0,1,0-7.33-2.65,14.39,14.39,0,0,1-18.4,8.63,3.9,3.9,0,1,0-2.65,7.33,21.94,21.94,0,0,0,7.51,1.32A22.22,22.22,0,0,0,75.6,88.8Z" transform="translate(-4.87 -14.41)"/></svg>