<svg id="Layer_1" data-name="Layer 1" xmlns="http://www.w3.org/2000/svg" xmlns:xlink="http://www.w3.org/1999/xlink" viewBox="0 0 113.38 113.38"><defs><style>.cls-1{fill:none;}.cls-2{clip-path:url(#clip-path);}</style><clipPath id="clip-path" transform="translate(-14.18 -14.18)"><rect class="cls-1" x="14.17" y="14.17" width="113.39" height="113.39"/></clipPath></defs><title>saude</title><g class="cls-2"><path d="M124.65,24.33a14.28,14.28,0,0,0-11.49-5.73h-1.93V17.5a3.32,3.32,0,0,0-6.64,0v8.86a3.32,3.32,0,0,0,6.64,0V25.25h1.93a7.75,7.75,0,0,1,7.46,9.88L111.8,66A20.16,20.16,0,0,1,73,66L64.2,35.13a7.74,7.74,0,0,1,7.45-9.88h1.93v1.11a3.32,3.32,0,1,0,6.64,0V17.5a3.32,3.32,0,1,0-6.64,0v1.11H71.65A14.4,14.4,0,0,0,57.81,37l8.82,30.86a26.58,26.58,0,0,0,9.63,14,27.51,27.51,0,0,0,3.13,2l9.69,22.87v2.4a11.76,11.76,0,0,1-23.52,0V86.37a19,19,0,1,0-38.09,0v7.86a16.61,16.61,0,1,0,6.64,0V86.37a12.4,12.4,0,1,1,24.8,0v22.78a18.41,18.41,0,0,0,36.82,0v-2.4l9.69-22.87a26.21,26.21,0,0,0,3.13-2,26.58,26.58,0,0,0,9.63-14L127,37a14.3,14.3,0,0,0-2.35-12.62Zm-83.9,86.18a10,10,0,1,1-10-10,10,10,0,0,1,10,10Zm51.65-13L87.87,86.87a27.19,27.19,0,0,0,9.06,0Z" transform="translate(-14.18 -14.18)"/></g><path d="M34.1,110.51a3.32,3.32,0,1,1-3.32-3.32,3.32,3.32,0,0,1,3.32,3.32Z" transform="translate(-14.18 -14.18)"/></svg>