<?xml version="1.0" encoding="utf-8"?>
<!-- Generator: Adobe Illustrator 23.0.0, SVG Export Plug-In . SVG Version: 6.00 Build 0)  -->
<svg version="1.1" id="Layer_1" xmlns="http://www.w3.org/2000/svg" xmlns:xlink="http://www.w3.org/1999/xlink" x="0px" y="0px"
	 viewBox="0 0 141.73 141.73" style="enable-background:new 0 0 141.73 141.73;" xml:space="preserve">
<style type="text/css">
	.st0{fill:#FDD4BF;}
	.st1{clip-path:url(#SVGID_2_);}
	.st2{fill:#010101;}
	.st3{clip-path:url(#SVGID_4_);}
	.st4{fill:#FFFFFF;}
	.st5{clip-path:url(#SVGID_6_);}
	.st6{fill:#010101;stroke:#000000;stroke-width:2;stroke-miterlimit:10;}
	.st7{stroke:#000000;stroke-width:0.75;stroke-miterlimit:10;}
	.st8{clip-path:url(#SVGID_8_);stroke:#000000;stroke-width:0.75;stroke-miterlimit:10;}
	.st9{clip-path:url(#SVGID_8_);stroke:#000000;stroke-miterlimit:10;}
	.st10{clip-path:url(#SVGID_10_);}
	.st11{fill:#73B9E6;}
	.st12{clip-path:url(#SVGID_12_);}
	.st13{fill:#201113;}
	.st14{fill:none;}
	.st15{clip-path:url(#SVGID_14_);fill-rule:evenodd;clip-rule:evenodd;}
	.st16{fill-rule:evenodd;clip-rule:evenodd;}
	.st17{clip-path:url(#SVGID_16_);stroke:#000000;stroke-miterlimit:10;}
	.st18{stroke:#000000;stroke-miterlimit:10;}
	.st19{clip-path:url(#SVGID_18_);}
	.st20{fill:#FEE55B;stroke:#000000;stroke-miterlimit:10;}
	.st21{clip-path:url(#SVGID_20_);fill:#231F20;stroke:#000000;stroke-miterlimit:10;}
	.st22{fill:#231F20;stroke:#000000;stroke-miterlimit:10;}
	.st23{fill:#231F20;}
	.st24{fill:#E9E9E9;}
	.st25{clip-path:url(#SVGID_22_);}
	.st26{fill:#E6E7E8;}
	.st27{fill:#949A9B;}
	.st28{clip-path:url(#SVGID_24_);}
	.st29{clip-path:url(#SVGID_26_);}
	.st30{clip-path:url(#SVGID_28_);stroke:#000000;stroke-miterlimit:10;}
	.st31{fill-rule:evenodd;clip-rule:evenodd;fill:#A44424;}
	.st32{fill-rule:evenodd;clip-rule:evenodd;fill:#38A749;}
	.st33{fill-rule:evenodd;clip-rule:evenodd;fill:#CA3229;}
	.st34{fill-rule:evenodd;clip-rule:evenodd;fill:#EDBE2E;}
	.st35{fill-rule:evenodd;clip-rule:evenodd;fill:#1C76BC;}
	.st36{fill:#204583;}
</style>
<g>
	<path class="st2" d="M70.87,55.36c1.22,0,2.21-0.99,2.21-2.21c0-1.22-0.99-2.21-2.21-2.21c-1.22,0-2.21,0.99-2.21,2.21
		C68.65,54.37,69.64,55.36,70.87,55.36z"/>
	<path class="st2" d="M70.87,81.94c-1.22,0-2.21,0.99-2.21,2.21c0,1.22,0.99,2.21,2.21,2.21c1.22,0,2.21-0.99,2.21-2.21
		C73.08,82.93,72.09,81.94,70.87,81.94z"/>
	<path class="st2" d="M20.82,109.18h47.83v5.47c-2.58,0.91-4.43,3.38-4.43,6.26c0,3.66,2.98,6.64,6.64,6.64s6.64-2.98,6.64-6.64
		c0-2.89-1.85-5.35-4.43-6.26v-5.47h47.83c3.66,0,6.64-2.98,6.64-6.64v-4.43c0-1.22-0.99-2.21-2.21-2.21h-2.21V27.46h2.21
		c1.22,0,2.21-0.99,2.21-2.21v-4.43c0-3.66-2.98-6.64-6.64-6.64H20.82c-3.66,0-6.64,2.98-6.64,6.64v4.43c0,1.22,0.99,2.21,2.21,2.21
		h2.21v68.43h-2.21c-1.22,0-2.21,0.99-2.21,2.21v4.43C14.17,106.2,17.15,109.18,20.82,109.18z M70.87,123.13
		c-1.22,0-2.21-0.99-2.21-2.21s0.99-2.21,2.21-2.21s2.21,0.99,2.21,2.21S72.09,123.13,70.87,123.13z M18.6,20.82
		c0-1.22,0.99-2.21,2.21-2.21h100.1c1.22,0,2.21,0.99,2.21,2.21v2.21H18.6V20.82z M23.03,27.46h95.67v68.43H23.03V27.46z
		 M18.6,100.32h104.53v2.21c0,1.22-0.99,2.21-2.21,2.21H20.82c-1.22,0-2.21-0.99-2.21-2.21V100.32z"/>
	<path class="st2" d="M56.91,50.18c-1.22,0-2.21,0.99-2.21,2.21v2.97H36.98V36.98h11.83c1.22,0,2.21-0.99,2.21-2.21
		s-0.99-2.21-2.21-2.21H34.77c-1.22,0-2.21,0.99-2.21,2.21v22.81c0,1.22,0.99,2.21,2.21,2.21h22.15c1.22,0,2.21-0.99,2.21-2.21
		v-5.19C59.13,51.17,58.14,50.18,56.91,50.18z"/>
	<path class="st2" d="M45.3,42.17c-0.8-0.92-2.2-1.02-3.12-0.22c-0.92,0.8-1.02,2.2-0.22,3.12l4.43,5.09
		c0.41,0.47,1.01,0.75,1.63,0.76c0.01,0,0.02,0,0.04,0c0.61,0,1.2-0.26,1.62-0.71l8.86-9.52c0.83-0.9,0.78-2.3-0.11-3.13
		c-0.9-0.83-2.3-0.78-3.13,0.11l-7.18,7.72L45.3,42.17z"/>
	<path class="st2" d="M56.91,81.18c-1.22,0-2.21,0.99-2.21,2.21v2.97H36.98V68.65h11.83c1.22,0,2.21-0.99,2.21-2.21
		c0-1.22-0.99-2.21-2.21-2.21H34.77c-1.22,0-2.21,0.99-2.21,2.21v22.15c0,1.22,0.99,2.21,2.21,2.21h22.15
		c1.22,0,2.21-0.99,2.21-2.21v-5.19C59.13,82.17,58.14,81.18,56.91,81.18z"/>
	<path class="st2" d="M45.19,73.73c-0.86-0.86-2.27-0.86-3.13,0c-0.86,0.86-0.86,2.27,0,3.13l4.43,4.43c0.43,0.43,1,0.65,1.57,0.65
		c0.57,0,1.13-0.22,1.57-0.65l8.86-8.86c0.86-0.86,0.86-2.27,0-3.13c-0.86-0.86-2.27-0.86-3.13,0l-7.29,7.29L45.19,73.73z"/>
	<path class="st2" d="M70.87,41.41h36.76c1.22,0,2.21-0.99,2.21-2.21s-0.99-2.21-2.21-2.21H70.87c-1.22,0-2.21,0.99-2.21,2.21
		S69.64,41.41,70.87,41.41z"/>
	<path class="st2" d="M107.63,50.94h-27.9c-1.22,0-2.21,0.99-2.21,2.21c0,1.22,0.99,2.21,2.21,2.21h27.9c1.22,0,2.21-0.99,2.21-2.21
		C109.84,51.93,108.85,50.94,107.63,50.94z"/>
	<path class="st2" d="M107.63,68.65H70.87c-1.22,0-2.21,0.99-2.21,2.21s0.99,2.21,2.21,2.21h36.76c1.22,0,2.21-0.99,2.21-2.21
		S108.85,68.65,107.63,68.65z"/>
	<path class="st2" d="M107.63,81.94h-27.9c-1.22,0-2.21,0.99-2.21,2.21s0.99,2.21,2.21,2.21h27.9c1.22,0,2.21-0.99,2.21-2.21
		S108.85,81.94,107.63,81.94z"/>
</g>
</svg>
