<?xml version="1.0" encoding="utf-8"?>
<!-- Generator: Adobe Illustrator 16.0.0, SVG Export Plug-In . SVG Version: 6.00 Build 0)  -->
<!DOCTYPE svg PUBLIC "-//W3C//DTD SVG 1.1//EN" "http://www.w3.org/Graphics/SVG/1.1/DTD/svg11.dtd">
<svg version="1.1" id="Layer_1" xmlns="http://www.w3.org/2000/svg" xmlns:xlink="http://www.w3.org/1999/xlink" x="0px" y="0px"
	 width="85px" height="85px" viewBox="0 0 85 85" enable-background="new 0 0 85 85" xml:space="preserve">
<g>
	<defs>
		<rect id="SVGID_1_" width="85" height="85"/>
	</defs>
	<clipPath id="SVGID_2_">
		<use xlink:href="#SVGID_1_"  overflow="visible"/>
	</clipPath>
	<path clip-path="url(#SVGID_2_)" fill="#23A971" d="M84.368,42.224C84.368,18.904,65.472,0,42.148,0
		C18.832,0-0.065,18.904-0.065,42.224c0,23.317,18.897,42.218,42.214,42.218C65.472,84.441,84.368,65.541,84.368,42.224"/>
	<path clip-path="url(#SVGID_2_)" fill-rule="evenodd" clip-rule="evenodd" fill="#FFFFFF" d="M44.583,29.407
		c-0.324-0.198-0.65-0.395-0.973-0.595c-0.802-0.496-1.6-0.996-2.349-1.572c-0.245-0.189-0.482-0.387-0.694-0.613
		c-0.078-0.084-0.163-0.133-0.276-0.159c-0.551-0.124-1.059-0.367-1.57-0.598c-0.724-0.327-1.443-0.665-2.19-0.939
		c-0.213-0.077-0.208-0.078-0.312,0.115c-0.541,1.008-1.313,1.755-2.418,2.114c-0.896,0.289-1.776,0.227-2.651-0.119
		c-0.585-0.233-1.114-0.54-1.538-1.007c-0.874-0.961-1.349-2.083-1.253-3.395c0.081-1.113,0.674-2.067,1.906-2.42
		c1.41-0.401,2.74-0.172,4.007,0.517c0.678,0.369,1.239,0.879,1.706,1.493c0.047,0.063,0.103,0.098,0.185,0.117
		c1.303,0.317,2.598,0.655,3.834,1.194c0.503,0.219,0.969,0.508,1.46,0.747c1.75,0.852,3.517,1.666,5.247,2.561
		c0.13,0.067,0.276,0.058,0.414,0.098c0.851,0.252,1.574,0.688,2.066,1.447c0.202,0.313,0.342,0.658,0.49,0.999
		c0.273,0.637,0.636,1.203,1.246,1.574c0.101,0.062,0.211,0.11,0.309,0.177c0.108,0.07,0.188,0.037,0.282-0.028
		c0.403-0.276,0.729-0.64,1.113-0.939c0.794-0.619,1.652-1.105,2.65-1.302c0.82-0.163,1.609-0.102,2.288,0.446
		c0.568,0.457,0.85,1.087,0.996,1.783c0.124,0.581,0.031,1.126-0.315,1.616c-0.238,0.336-0.553,0.587-0.907,0.791
		c-0.719,0.416-1.506,0.624-2.314,0.776c-0.585,0.109-1.179,0.134-1.769,0.203c-0.65,0.076-1.012,0.485-1.071,1.137
		c-0.039,0.427-0.015,0.855-0.053,1.282c-0.016,0.176,0.083,0.331,0.156,0.484c0.096,0.202,0.189,0.407,0.313,0.592
		c0.496,0.735,0.469,1.5,0.162,2.288c-0.069,0.177-0.139,0.355-0.228,0.523c-0.227,0.436-0.302,0.904-0.347,1.386
		c-0.07,0.779-0.255,1.536-0.464,2.287c-0.13,0.467-0.286,0.927-0.404,1.396c-0.092,0.363-0.138,0.737-0.212,1.105
		c-0.252,1.263-0.763,2.417-1.483,3.479c-0.334,0.491-0.666,0.987-1.021,1.464c-0.25,0.337-0.39,0.708-0.479,1.112
		c-0.099,0.441-0.222,0.877-0.401,1.293c-0.223,0.517-0.546,0.939-1.127,1.087c-0.167,0.042-0.336,0.063-0.509,0.054
		c-0.077-0.003-0.12,0.027-0.16,0.092c-1.087,1.79-1.906,3.69-2.351,5.743c-0.092,0.419,0.059,0.768,0.33,1.074
		c0.358,0.403,0.822,0.656,1.297,0.894c0.651,0.324,1.341,0.566,2.006,0.861c0.174,0.077,0.343,0.161,0.5,0.272
		c0.055,0.038,0.104,0.081,0.143,0.138c0.083,0.126,0.07,0.197-0.061,0.268c-0.26,0.14-0.541,0.203-0.832,0.233
		c-0.533,0.055-1.063,0.023-1.593-0.046c-0.382-0.05-0.768-0.065-1.15-0.094c-1.095-0.081-2.194-0.127-3.278-0.317
		c-0.191-0.035-0.381-0.08-0.564-0.148c-0.337-0.126-0.438-0.281-0.411-0.641c0.008-0.128,0.036-0.255,0.104-0.367
		c0.45-0.744,0.67-1.571,0.855-2.408c0.226-1.021,0.376-2.056,0.513-3.092c0.045-0.333,0.079-0.67,0.121-1.022
		c-0.264,0.164-0.511,0.32-0.762,0.473c-0.943,0.569-1.941,1.028-2.95,1.467c-0.702,0.305-1.416,0.587-2.072,0.988
		c-0.322,0.197-0.617,0.425-0.867,0.714c-0.111,0.131-0.165,0.271-0.175,0.437c-0.032,0.521-0.083,1.042-0.146,1.561
		c-0.063,0.515-0.123,1.028-0.194,1.542c-0.018,0.134,0.007,0.204,0.141,0.26c0.247,0.103,0.476,0.244,0.644,0.46
		c0.202,0.263,0.138,0.486-0.181,0.575c-0.366,0.101-0.742,0.168-1.126,0.143c-0.596-0.041-1.177-0.156-1.729-0.397
		c-0.043-0.019-0.087-0.039-0.129-0.059c-0.183-0.088-0.269-0.214-0.263-0.438c0.019-0.684-0.016-1.369-0.083-2.052
		c-0.05-0.509-0.176-1.001-0.357-1.479c-0.113-0.303-0.205-0.612-0.287-0.925c-0.145-0.559,0.082-1.013,0.614-1.241
		c0.264-0.113,0.546-0.158,0.825-0.219c0.989-0.219,1.864-0.675,2.665-1.283c0.783-0.597,1.469-1.298,2.179-1.974
		c0.626-0.594,1.272-1.162,2.032-1.585c0.387-0.217,0.795-0.387,1.225-0.498c0.162-0.04,0.164-0.043,0.055-0.166
		c-0.46-0.521-0.921-1.041-1.382-1.56c-0.394-0.446-0.809-0.875-1.179-1.34c-0.286-0.361-0.515-0.766-0.767-1.151
		c-0.493-0.754-1.014-1.485-1.675-2.108c-0.333-0.314-0.724-0.555-1.082-0.839c-0.96-0.761-1.49-1.757-1.609-2.974
		c-0.007-0.072-0.013-0.143-0.024-0.213c-0.07-0.445,0.126-0.829,0.286-1.218c0.602-1.461,1.364-2.837,2.229-4.157
		c0.983-1.501,2.088-2.905,3.348-4.184c1.467-1.49,3.09-2.766,4.989-3.667c0.231-0.109,0.47-0.205,0.707-0.306
		C44.5,29.466,44.55,29.462,44.583,29.407 M49.614,41.21c-0.004-0.67-0.258-1.068-0.85-1.178c-0.543-0.1-1.088-0.094-1.63-0.012
		c-0.692,0.104-1.337,0.366-1.989,0.603c-0.657,0.238-1.306,0.505-1.992,0.649c-0.271,0.057-0.465,0.177-0.601,0.415
		c-0.063,0.11-0.153,0.205-0.227,0.311c-0.261,0.366-0.5,0.738-0.584,1.193c-0.062,0.329-0.019,0.605,0.25,0.833
		c0.187,0.16,0.355,0.343,0.535,0.513c1.64,1.554,3.095,3.269,4.438,5.079c0.14,0.188,0.189,0.199,0.393,0.073
		c0.085-0.053,0.153-0.125,0.207-0.212c0.079-0.127,0.131-0.267,0.162-0.41c0.158-0.714,0.41-1.396,0.74-2.046
		c0.474-0.94,0.686-1.936,0.727-2.981c0.022-0.555,0.081-1.107,0.207-1.653C49.497,41.977,49.604,41.565,49.614,41.21"/>
</g>
</svg>
