<?xml version="1.0" encoding="utf-8"?>
<!-- Generator: Adobe Illustrator 16.0.0, SVG Export Plug-In . SVG Version: 6.00 Build 0)  -->
<!DOCTYPE svg PUBLIC "-//W3C//DTD SVG 1.1//EN" "http://www.w3.org/Graphics/SVG/1.1/DTD/svg11.dtd">
<svg version="1.1" id="Layer_1" xmlns="http://www.w3.org/2000/svg" xmlns:xlink="http://www.w3.org/1999/xlink" x="0px" y="0px"
	 width="85px" height="85px" viewBox="0 0 85 85" enable-background="new 0 0 85 85" xml:space="preserve">
<g>
	<path fill="#F16122" d="M84.638,42.502c0-23.271-18.86-42.138-42.137-42.138c-23.271,0-42.139,18.867-42.139,42.138
		c0,23.268,18.867,42.133,42.139,42.133C65.777,84.636,84.638,65.771,84.638,42.502"/>
	<path fill="#FFFFFF" d="M42.467,62.472L42.467,62.472c-4.06,0-7.355-8.941-7.355-19.973c0-11.03,3.296-19.973,7.355-19.973
		c4.065,0,7.358,8.943,7.358,19.973C49.825,53.53,46.532,62.472,42.467,62.472 M42.467,18.647c-4.854,0-8.783,10.676-8.783,23.852
		c0,13.174,3.929,23.855,8.783,23.855c4.857,0,8.796-10.682,8.796-23.855C51.263,29.323,47.324,18.647,42.467,18.647"/>
	<path fill="#FFFFFF" d="M22.498,42.499L22.498,42.499c0-4.065,8.938-7.359,19.969-7.359c11.031,0,19.974,3.294,19.974,7.359
		c0,4.066-8.942,7.358-19.974,7.358C31.437,49.856,22.498,46.564,22.498,42.499 M66.323,42.499c0-4.854-10.679-8.785-23.856-8.785
		c-13.173,0-23.853,3.931-23.853,8.785c0,4.853,10.68,8.79,23.853,8.79C55.645,51.288,66.323,47.352,66.323,42.499"/>
	<path fill="#FFFFFF" d="M28.345,56.628L28.345,56.628c-2.871-2.88,1.123-11.532,8.923-19.332c7.8-7.803,16.451-11.796,19.325-8.921
		c2.875,2.874-1.113,11.53-8.92,19.327C39.876,55.505,31.218,59.497,28.345,56.628 M59.339,25.632
		c-3.435-3.432-13.768,1.334-23.086,10.652c-9.312,9.319-14.082,19.651-10.65,23.086c3.431,3.432,13.762-1.34,23.081-10.66
		C58,39.398,62.774,29.065,59.339,25.632"/>
	<path fill="#FFFFFF" d="M28.345,28.375L28.345,28.375c2.873-2.875,11.531,1.118,19.328,8.921
		c7.807,7.801,11.795,16.452,8.918,19.333c-2.872,2.869-11.523-1.127-19.323-8.926C29.468,39.905,25.474,31.249,28.345,28.375
		 M59.339,59.37c3.436-3.436-1.339-13.77-10.655-23.087c-9.319-9.316-19.65-14.082-23.081-10.651
		c-3.432,3.433,1.339,13.766,10.65,23.078C45.571,58.028,55.904,62.802,59.339,59.37"/>
	<path fill="#FFFFFF" d="M46.181,42.499c0-2.035-1.648-3.681-3.682-3.681c-2.031,0-3.679,1.646-3.679,3.681
		c0,2.036,1.647,3.684,3.679,3.684C44.532,46.183,46.181,44.534,46.181,42.499"/>
</g>
</svg>
