<?xml version="1.0" encoding="utf-8"?>
<!-- Generator: Adobe Illustrator 16.0.0, SVG Export Plug-In . SVG Version: 6.00 Build 0)  -->
<!DOCTYPE svg PUBLIC "-//W3C//DTD SVG 1.1//EN" "http://www.w3.org/Graphics/SVG/1.1/DTD/svg11.dtd">
<svg version="1.1" id="Layer_1" xmlns="http://www.w3.org/2000/svg" xmlns:xlink="http://www.w3.org/1999/xlink" x="0px" y="0px"
	 width="85px" height="85px" viewBox="0 0 85 85" enable-background="new 0 0 85 85" xml:space="preserve">
<g>
	<defs>
		<rect id="SVGID_1_" width="85" height="85"/>
	</defs>
	<clipPath id="SVGID_2_">
		<use xlink:href="#SVGID_1_"  overflow="visible"/>
	</clipPath>
	<path clip-path="url(#SVGID_2_)" fill="#774E9F" d="M84.433,42.503c0-23.32-18.896-42.224-42.219-42.224
		C18.896,0.279,0,19.183,0,42.503C0,65.82,18.896,84.721,42.214,84.721C65.536,84.721,84.433,65.82,84.433,42.503"/>
	<path clip-path="url(#SVGID_2_)" fill="#FFFFFF" d="M30.087,23.616c-15.109,10.287-12.375,30.539-5.517,40.61
		c1.716,2.518,10.18,4.124,7.555-5.144c-1.175-4.146,5.839-7.663,9.268-2.626c3.836,5.63,9.377,8.357,14.413,4.928
		c15.107-10.287,9.053-24.592,3.909-32.146C54.571,21.685,45.193,13.328,30.087,23.616 M29.927,50.443
		c-1.736,1.183-4.108,0.732-5.291-1.003c-1.181-1.736-0.731-4.109,1.005-5.291c1.736-1.183,4.108-0.732,5.29,1.003
		C32.114,46.889,31.663,49.262,29.927,50.443 M29.164,37.144c-1.184-1.736-0.733-4.108,1.003-5.292
		c1.736-1.181,4.109-0.73,5.291,1.005c1.182,1.736,0.731,4.109-1.004,5.29C32.719,39.331,30.345,38.879,29.164,37.144
		 M52.349,53.604c-2.429,1.653-5.752,1.023-7.407-1.406c-1.653-2.429-1.021-5.753,1.406-7.406c2.43-1.654,5.753-1.024,7.407,1.405
		C55.41,48.626,54.778,51.948,52.349,53.604 M54.761,40.905c-1.044,0.709-2.466,0.44-3.177-0.603
		c-0.708-1.043-0.44-2.464,0.604-3.173c1.042-0.711,2.464-0.441,3.174,0.601C56.072,38.773,55.802,40.196,54.761,40.905
		 M47.098,35.066c-2.43,1.654-5.752,1.023-7.408-1.406c-1.655-2.429-1.024-5.753,1.406-7.407c2.43-1.655,5.753-1.025,7.408,1.406
		C50.159,30.087,49.526,33.413,47.098,35.066"/>
</g>
</svg>
