<?xml version="1.0" encoding="utf-8"?>
<!-- Generator: Adobe Illustrator 16.0.0, SVG Export Plug-In . SVG Version: 6.00 Build 0)  -->
<!DOCTYPE svg PUBLIC "-//W3C//DTD SVG 1.1//EN" "http://www.w3.org/Graphics/SVG/1.1/DTD/svg11.dtd">
<svg version="1.1" id="Layer_1" xmlns="http://www.w3.org/2000/svg" xmlns:xlink="http://www.w3.org/1999/xlink" x="0px" y="0px"
	 width="85px" height="85px" viewBox="0 0 85 85" enable-background="new 0 0 85 85" xml:space="preserve">
<g>
	<defs>
		<rect id="SVGID_1_" width="85" height="85"/>
	</defs>
	<clipPath id="SVGID_2_">
		<use xlink:href="#SVGID_1_"  overflow="visible"/>
	</clipPath>
	<path clip-path="url(#SVGID_2_)" fill="#1FC4F4" d="M84.401,42.132C84.401,18.863,65.531,0,42.266,0
		C18.99,0,0.126,18.863,0.126,42.132c0,23.277,18.864,42.141,42.14,42.141C65.531,84.272,84.401,65.409,84.401,42.132"/>
	<path clip-path="url(#SVGID_2_)" fill-rule="evenodd" clip-rule="evenodd" fill="#FFFFFF" d="M53.29,61.753
		c-0.116-1.085-0.094-2.229,0.027-3.46c0.119-1.214,0.332-2.5,0.603-3.896l0.1-0.508l0.508-0.099
		c1.395-0.271,2.682-0.484,3.895-0.604c1.231-0.121,2.374-0.142,3.46-0.025l1.591,0.171l-1.13,1.131l-7.752,7.751l-1.131,1.131
		L53.29,61.753z M49.714,50.191c-1.3,0.252-2.499,0.454-3.633,0.578c-1.146,0.125-2.219,0.167-3.244,0.096l-1.678-0.117l1.188-1.188
		l7.343-7.342l1.186-1.186l0.118,1.676c0.072,1.025,0.03,2.097-0.094,3.245c-0.123,1.132-0.326,2.332-0.578,3.631l-0.099,0.509
		L49.714,50.191z M36.379,48.018c-0.274-0.273-0.534-0.565-0.779-0.874c-0.244-0.306-0.464-0.618-0.656-0.932l-0.317-0.515
		l0.427-0.428l10.343-10.342l0.427-0.427l0.515,0.316c0.315,0.194,0.627,0.414,0.935,0.658c0.308,0.245,0.6,0.505,0.873,0.779
		l-0.001,0.001c0.282,0.283,0.543,0.574,0.78,0.872c0.244,0.307,0.464,0.619,0.657,0.934l0.317,0.515l-0.428,0.427L39.13,49.345
		l-0.428,0.428l-0.514-0.316c-0.315-0.194-0.628-0.414-0.935-0.659C36.945,48.552,36.653,48.292,36.379,48.018 M34.813,34.079
		c1.3-0.252,2.5-0.455,3.633-0.578c1.148-0.125,2.22-0.167,3.245-0.095l1.676,0.118l-1.186,1.186l-7.343,7.345l-1.186,1.186
		l-0.118-1.672c-0.072-1.027-0.031-2.1,0.094-3.249c0.123-1.133,0.326-2.333,0.578-3.633l0.099-0.508L34.813,34.079z M30,30.479
		c-1.395,0.27-2.681,0.484-3.894,0.603c-1.23,0.121-2.373,0.143-3.459,0.027l-1.592-0.171l1.132-1.131l7.749-7.749l1.13-1.13
		l0.171,1.591c0.116,1.085,0.094,2.229-0.027,3.459c-0.119,1.213-0.333,2.499-0.603,3.894l-0.099,0.509L30,30.479z M70.53,52.327
		c-0.025-0.025,0.012,0.006-0.007-0.012l-0.012-0.01l-0.042-0.033c-2.256-2.047-4.69-3.048-7.134-3.446
		c-2.476-0.407-4.987-0.201-7.34,0.161l-1.032,0.16l0.159-1.033c0.38-2.461,0.584-5.087,0.108-7.661
		c-0.471-2.537-1.612-5.055-3.921-7.365c-2.31-2.31-4.828-3.45-7.366-3.92c-2.574-0.477-5.2-0.272-7.662,0.108l-1.033,0.159
		l0.159-1.033c0.365-2.362,0.571-4.885,0.159-7.371c-0.407-2.455-1.421-4.899-3.491-7.161c-0.015-0.016-0.036-0.03-0.062-0.042
		c-0.021-0.009-0.041-0.016-0.06-0.018v0.002h-0.038v-0.002c-0.019,0.002-0.038,0.007-0.057,0.016
		c-0.023,0.009-0.043,0.022-0.059,0.039v0.003l-2.901,2.9h-0.003c-0.035,0.036-0.054,0.081-0.055,0.127
		c-0.002,0.047,0.014,0.095,0.046,0.133l0.002-0.001c0.128,0.146,0.263,0.31,0.401,0.489c0.128,0.167,0.252,0.338,0.368,0.512
		l0.351,0.523l-0.443,0.443L19.121,29.44l-0.445,0.446l-0.524-0.353c-0.158-0.107-0.328-0.229-0.507-0.368
		c-0.163-0.127-0.326-0.261-0.488-0.402c-0.038-0.034-0.087-0.05-0.134-0.049c-0.045,0.002-0.091,0.021-0.127,0.058l-2.901,2.901
		c-0.021,0.021-0.035,0.04-0.042,0.056v0.004c-0.008,0.019-0.014,0.038-0.016,0.057h0.002v0.039h-0.002
		c0.003,0.018,0.009,0.038,0.018,0.059c0.011,0.022,0.026,0.043,0.046,0.062L14,31.951c2.261,2.069,4.705,3.083,7.159,3.489
		c2.487,0.413,5.009,0.207,7.371-0.157l1.032-0.16l-0.159,1.033c-0.38,2.462-0.584,5.088-0.108,7.661
		c0.47,2.538,1.611,5.057,3.921,7.366c2.309,2.31,4.828,3.45,7.366,3.92c2.574,0.477,5.2,0.271,7.663-0.107l1.033-0.159l-0.16,1.032
		c-0.364,2.361-0.57,4.886-0.158,7.372c0.406,2.454,1.42,4.898,3.489,7.159l0.002-0.001c0.019,0.02,0.039,0.034,0.062,0.045
		c0.025,0.012,0.052,0.019,0.075,0.02h0.002c0.024,0,0.051-0.005,0.075-0.016c0.021-0.008,0.042-0.022,0.063-0.043l2.9-2.9
		c0.037-0.037,0.058-0.083,0.059-0.127c0.002-0.048-0.015-0.098-0.048-0.135c-0.143-0.161-0.277-0.325-0.403-0.489
		c-0.127-0.165-0.25-0.335-0.367-0.509l-0.351-0.522l0.443-0.444l10.445-10.444l0.443-0.444l0.522,0.351
		c0.173,0.116,0.342,0.238,0.506,0.365s0.327,0.263,0.488,0.403c0.039,0.034,0.088,0.05,0.136,0.048
		c0.045-0.001,0.093-0.021,0.129-0.057l-0.002-0.001l2.901-2.9h0.001l0.003-0.003c0.035-0.035,0.053-0.083,0.053-0.134
		C70.586,52.412,70.567,52.363,70.53,52.327"/>
</g>
</svg>
