<?xml version="1.0" encoding="utf-8"?>
<!-- Generator: Adobe Illustrator 16.0.0, SVG Export Plug-In . SVG Version: 6.00 Build 0)  -->
<!DOCTYPE svg PUBLIC "-//W3C//DTD SVG 1.1//EN" "http://www.w3.org/Graphics/SVG/1.1/DTD/svg11.dtd">
<svg version="1.1" id="Layer_1" xmlns="http://www.w3.org/2000/svg" xmlns:xlink="http://www.w3.org/1999/xlink" x="0px" y="0px"
	 width="85px" height="85px" viewBox="0 0 85 85" enable-background="new 0 0 85 85" xml:space="preserve">
<g>
	<defs>
		<rect id="SVGID_1_" width="85" height="85"/>
	</defs>
	<clipPath id="SVGID_2_">
		<use xlink:href="#SVGID_1_"  overflow="visible"/>
	</clipPath>
	<path clip-path="url(#SVGID_2_)" fill="#EB5098" d="M84.433,42.503c0-23.32-18.896-42.224-42.219-42.224
		C18.896,0.279,0,19.183,0,42.503C0,65.82,18.896,84.722,42.214,84.722C65.536,84.722,84.433,65.82,84.433,42.503"/>
	<path clip-path="url(#SVGID_2_)" fill-rule="evenodd" clip-rule="evenodd" fill="#FFFFFF" d="M48.425,30.524
		c-0.182-0.007-0.354-0.001-0.528,0.016c0.198,0.234,0.308,0.523,0.294,0.843c-0.031,0.747-0.745,1.321-1.59,1.282
		c-0.593-0.026-1.09-0.354-1.32-0.804c-0.41,0.5-0.656,1.102-0.687,1.763c-0.079,1.801,1.503,3.333,3.543,3.424
		c2.037,0.089,3.759-1.296,3.837-3.099C52.052,32.145,50.46,30.616,48.425,30.524"/>
	<path clip-path="url(#SVGID_2_)" fill-rule="evenodd" clip-rule="evenodd" fill="#FFFFFF" d="M35.601,36.507
		c2.045,0.09,3.771-1.302,3.852-3.111c0.078-1.814-1.516-3.352-3.564-3.442c-0.39-0.016-0.768,0.019-1.128,0.099
		c0.149,0.22,0.231,0.475,0.22,0.747c-0.034,0.746-0.744,1.319-1.589,1.281c-0.375-0.015-0.699-0.146-0.957-0.354
		c-0.237,0.404-0.376,0.854-0.397,1.342C31.957,34.878,33.554,36.417,35.601,36.507"/>
	<path clip-path="url(#SVGID_2_)" fill-rule="evenodd" clip-rule="evenodd" fill="#FFFFFF" d="M54.359,39.865
		c0,0-0.139,0.105-0.375,0.293c0.769-1.255,1.236-2.726,1.312-4.396c0.112-2.548-0.305-4.389-1.801-6.38
		c0.324-0.316,0.55-0.737,0.702-1.179l0.158-0.041l0.026-0.547c-2.945-0.408-5.971-1.613-9.025-1.967
		c-7.096-0.824-9.669,0.78-14.764,1.162l-0.012,0.263l0.32,0.452c0.112,0.32,0.263,0.626,0.477,0.888
		c-1.661,1.842-2.233,3.638-2.347,6.196c-0.081,1.81,0.322,3.43,1.097,4.838c-0.068,0.089-0.139,0.183-0.199,0.283
		c-1.947,0.48-7.517,2.613-5.735,11.001c2.147,10.103,9.235,14.603,9.235,14.603s0.294-0.388,0.711-1.123
		c0.185,1.802,1.947,3.274,4.138,3.372c1.577,0.07,2.989-0.592,3.795-1.616c0.758,0.827,1.918,1.389,3.249,1.452
		c2.386,0.102,4.395-1.452,4.485-3.459c0.002-0.028-0.006-0.062-0.005-0.101c0.503,1.033,0.894,1.602,0.894,1.602
		s7.232-4.179,9.694-14.19C62.851,41.271,54.359,39.865,54.359,39.865 M48.258,28.735c3.091,0,5.597,2.169,5.597,4.844
		c0,0.405-0.064,0.795-0.172,1.17c-0.5,2.321-2.861,4.02-5.615,3.896c-2.07-0.09-3.831-1.185-4.705-2.721
		c-0.445-0.695-0.7-1.494-0.7-2.345C42.662,30.904,45.167,28.735,48.258,28.735 M42.101,35.892c1.249,0.126,1.299,1.329,1.299,1.329
		l-1.367,1.449l-1.502-1.574C40.53,37.096,40.84,35.766,42.101,35.892 M35.99,28.201c3.091,0,5.597,2.169,5.597,4.845
		c0,0.616-0.139,1.202-0.379,1.743c-0.742,2.015-2.932,3.425-5.451,3.314c-2.376-0.106-4.338-1.528-5.028-3.421
		c-0.212-0.512-0.334-1.061-0.334-1.636C30.395,30.37,32.9,28.201,35.99,28.201 M38.342,66.132c-1.481-0.065-2.642-1.1-2.589-2.312
		c0.055-1.21,1.302-2.143,2.783-2.078c1.492,0.067,2.655,1.104,2.603,2.314C41.083,65.272,39.835,66.198,38.342,66.132
		 M45.382,65.965c-1.482-0.067-2.644-1.106-2.592-2.313c0.053-1.216,1.305-2.145,2.783-2.078c1.49,0.066,2.658,1.099,2.602,2.314
		C48.123,65.096,46.872,66.029,45.382,65.965 M47.59,52.203c-0.245,3.817,0.454,7.022,1.249,9.32
		c-0.761-0.806-1.9-1.341-3.201-1.398c-1.575-0.071-2.985,0.588-3.786,1.617c-0.757-0.831-1.923-1.386-3.251-1.441
		c-1.19-0.054-2.291,0.304-3.102,0.93c0.834-2.247,1.569-5.326,1.449-9.007c-0.136-3.852-1.629-6.916-3.129-9.071
		c2.161,1.308,4.891,2.079,7.893,2.22c3.66,0.151,7.023-0.661,9.473-2.34C49.562,45.13,47.854,48.219,47.59,52.203 M41.755,44.407
		c-6.152-0.287-11.102-3.365-11.603-8.484c1.065,1.782,3.14,3.035,5.562,3.142c1.812,0.082,3.473-0.49,4.717-1.48l0.129,0.132
		l1.4,2.057l1.587-1.981c1.141,1.049,2.711,1.739,4.485,1.818c2.624,0.116,4.949-1.149,6.096-3.078
		C53.411,41.876,48.082,44.671,41.755,44.407"/>
	<path clip-path="url(#SVGID_2_)" fill-rule="evenodd" clip-rule="evenodd" fill="#FFFFFF" d="M48.425,30.524
		c-0.182-0.007-0.354-0.001-0.528,0.016c0.198,0.234,0.308,0.523,0.294,0.843c-0.031,0.747-0.745,1.321-1.59,1.282
		c-0.593-0.026-1.09-0.354-1.32-0.804c-0.41,0.5-0.656,1.102-0.687,1.763c-0.079,1.801,1.503,3.333,3.543,3.424
		c2.037,0.089,3.759-1.296,3.837-3.099C52.052,32.145,50.46,30.616,48.425,30.524"/>
	<path clip-path="url(#SVGID_2_)" fill-rule="evenodd" clip-rule="evenodd" fill="#FFFFFF" d="M35.601,36.507
		c2.045,0.09,3.771-1.302,3.852-3.111c0.078-1.814-1.516-3.352-3.564-3.442c-0.39-0.016-0.768,0.019-1.128,0.099
		c0.149,0.22,0.231,0.475,0.22,0.747c-0.034,0.746-0.744,1.319-1.589,1.281c-0.375-0.015-0.699-0.146-0.957-0.354
		c-0.237,0.404-0.376,0.854-0.397,1.342C31.957,34.878,33.554,36.417,35.601,36.507"/>
	<path clip-path="url(#SVGID_2_)" fill-rule="evenodd" clip-rule="evenodd" fill="#FFFFFF" d="M54.359,39.865
		c0,0-0.139,0.105-0.375,0.293c0.769-1.255,1.236-2.726,1.312-4.396c0.112-2.548-0.305-4.389-1.801-6.38
		c0.324-0.316,0.55-0.737,0.702-1.179l0.158-0.041l0.026-0.547c-2.945-0.408-5.971-1.613-9.025-1.967
		c-7.096-0.824-9.669,0.78-14.764,1.162l-0.012,0.263l0.32,0.452c0.112,0.32,0.263,0.626,0.477,0.888
		c-1.661,1.842-2.233,3.638-2.347,6.196c-0.081,1.81,0.322,3.43,1.097,4.838c-0.068,0.089-0.139,0.183-0.199,0.283
		c-1.947,0.48-7.517,2.613-5.735,11.001c2.147,10.103,9.235,14.603,9.235,14.603s0.294-0.388,0.711-1.123
		c0.185,1.802,1.947,3.274,4.138,3.372c1.577,0.07,2.989-0.592,3.795-1.616c0.758,0.827,1.918,1.389,3.249,1.452
		c2.386,0.102,4.395-1.452,4.485-3.459c0.002-0.028-0.006-0.062-0.005-0.101c0.503,1.033,0.894,1.602,0.894,1.602
		s7.232-4.179,9.694-14.19C62.851,41.271,54.359,39.865,54.359,39.865 M48.258,28.735c3.091,0,5.597,2.169,5.597,4.844
		c0,0.405-0.064,0.795-0.172,1.17c-0.5,2.321-2.861,4.02-5.615,3.896c-2.07-0.09-3.831-1.185-4.705-2.721
		c-0.445-0.695-0.7-1.494-0.7-2.345C42.662,30.904,45.167,28.735,48.258,28.735 M42.101,35.892c1.249,0.126,1.299,1.329,1.299,1.329
		l-1.367,1.449l-1.502-1.574C40.53,37.096,40.84,35.766,42.101,35.892 M35.99,28.201c3.091,0,5.597,2.169,5.597,4.845
		c0,0.616-0.139,1.202-0.379,1.743c-0.742,2.015-2.932,3.425-5.451,3.314c-2.376-0.106-4.338-1.528-5.028-3.421
		c-0.212-0.512-0.334-1.061-0.334-1.636C30.395,30.37,32.9,28.201,35.99,28.201 M38.342,66.132c-1.481-0.065-2.642-1.1-2.589-2.312
		c0.055-1.21,1.302-2.143,2.783-2.078c1.492,0.067,2.655,1.104,2.603,2.314C41.083,65.272,39.835,66.198,38.342,66.132
		 M45.382,65.965c-1.482-0.067-2.644-1.106-2.592-2.313c0.053-1.216,1.305-2.145,2.783-2.078c1.49,0.066,2.658,1.099,2.602,2.314
		C48.123,65.096,46.872,66.029,45.382,65.965 M47.59,52.203c-0.245,3.817,0.454,7.022,1.249,9.32
		c-0.761-0.806-1.9-1.341-3.201-1.398c-1.575-0.071-2.985,0.588-3.786,1.617c-0.757-0.831-1.923-1.386-3.251-1.441
		c-1.19-0.054-2.291,0.304-3.102,0.93c0.834-2.247,1.569-5.326,1.449-9.007c-0.136-3.852-1.629-6.916-3.129-9.071
		c2.161,1.308,4.891,2.079,7.893,2.22c3.66,0.151,7.023-0.661,9.473-2.34C49.562,45.13,47.854,48.219,47.59,52.203 M41.755,44.407
		c-6.152-0.287-11.102-3.365-11.603-8.484c1.065,1.782,3.14,3.035,5.562,3.142c1.812,0.082,3.473-0.49,4.717-1.48l0.129,0.132
		l1.4,2.057l1.587-1.981c1.141,1.049,2.711,1.739,4.485,1.818c2.624,0.116,4.949-1.149,6.096-3.078
		C53.411,41.876,48.082,44.671,41.755,44.407"/>
</g>
</svg>
