<?xml version="1.0" encoding="utf-8"?>
<!-- Generator: Adobe Illustrator 16.0.0, SVG Export Plug-In . SVG Version: 6.00 Build 0)  -->
<!DOCTYPE svg PUBLIC "-//W3C//DTD SVG 1.1//EN" "http://www.w3.org/Graphics/SVG/1.1/DTD/svg11.dtd">
<svg version="1.1" id="Layer_1" xmlns="http://www.w3.org/2000/svg" xmlns:xlink="http://www.w3.org/1999/xlink" x="0px" y="0px"
	 width="85px" height="85px" viewBox="0 0 85 85" enable-background="new 0 0 85 85" xml:space="preserve">
<g>
	<defs>
		<rect id="SVGID_1_" width="85" height="85"/>
	</defs>
	<clipPath id="SVGID_2_">
		<use xlink:href="#SVGID_1_"  overflow="visible"/>
	</clipPath>
	<path clip-path="url(#SVGID_2_)" fill="#8C288D" d="M84.717,42.502c0-23.32-18.896-42.224-42.22-42.224
		c-23.317,0-42.214,18.904-42.214,42.224c0,23.318,18.897,42.219,42.214,42.219C65.82,84.722,84.717,65.82,84.717,42.502"/>
	<path clip-path="url(#SVGID_2_)" fill="#FFFFFF" d="M58.516,42.66l-2.326-1.146l-1.152,2.319c-1.775,3.591-6.847,5.308-10.44,3.521
		l-10.665-5.285l-4.91,1.659l-0.681,1.361c-1.155,2.328,0.019,5.8,2.341,6.954l11.635,5.768l3.518,10.438l3.452-6.98
		c2.33,1.158,5.813-0.016,6.959-2.349l4.62-9.293C62.015,47.295,60.843,43.814,58.516,42.66"/>
	<path clip-path="url(#SVGID_2_)" fill="#FFFFFF" d="M34.129,39.262l11.632,5.771c2.316,1.153,5.799-0.021,6.952-2.333l4.61-9.315
		c1.154-2.33-0.011-5.803-2.339-6.952l-18.611-9.233c-2.327-1.149-5.803,0.015-6.956,2.351l-4.607,9.302
		c-1.152,2.333,0.014,5.803,2.339,6.958l-3.46,6.97L34.129,39.262z"/>
	<path clip-path="url(#SVGID_2_)" fill="#892470" d="M84.717,42.502c0-23.32-18.896-42.224-42.22-42.224
		c-23.317,0-42.214,18.904-42.214,42.224c0,23.318,18.897,42.219,42.214,42.219C65.82,84.722,84.717,65.82,84.717,42.502"/>
	<path clip-path="url(#SVGID_2_)" fill="#FFFFFF" d="M58.516,42.66l-2.326-1.146l-1.152,2.319c-1.775,3.591-6.847,5.308-10.44,3.521
		l-10.665-5.285l-4.91,1.659l-0.681,1.361c-1.155,2.328,0.019,5.8,2.341,6.954l11.635,5.768l3.518,10.438l3.452-6.98
		c2.33,1.158,5.813-0.016,6.959-2.349l4.62-9.293C62.015,47.295,60.843,43.814,58.516,42.66"/>
	<path clip-path="url(#SVGID_2_)" fill="#FFFFFF" d="M34.129,39.262l11.632,5.771c2.316,1.153,5.799-0.021,6.952-2.333l4.61-9.315
		c1.154-2.33-0.011-5.803-2.339-6.952l-18.611-9.233c-2.327-1.149-5.803,0.015-6.956,2.351l-4.607,9.302
		c-1.152,2.333,0.014,5.803,2.339,6.958l-3.46,6.97L34.129,39.262z"/>
</g>
</svg>
