<?xml version="1.0" encoding="utf-8"?>
<!-- Generator: Adobe Illustrator 16.0.0, SVG Export Plug-In . SVG Version: 6.00 Build 0)  -->
<!DOCTYPE svg PUBLIC "-//W3C//DTD SVG 1.1//EN" "http://www.w3.org/Graphics/SVG/1.1/DTD/svg11.dtd">
<svg version="1.1" id="Layer_1" xmlns="http://www.w3.org/2000/svg" xmlns:xlink="http://www.w3.org/1999/xlink" x="0px" y="0px"
	 width="85px" height="85px" viewBox="0 0 85 85" enable-background="new 0 0 85 85" xml:space="preserve">
<g>
	<defs>
		<rect id="SVGID_1_" width="85" height="85"/>
	</defs>
	<clipPath id="SVGID_2_">
		<use xlink:href="#SVGID_1_"  overflow="visible"/>
	</clipPath>
	<path clip-path="url(#SVGID_2_)" fill="#EEA320" d="M84.638,42.499c0-23.27-18.867-42.137-42.138-42.137
		c-23.278,0-42.137,18.867-42.137,42.137c0,23.273,18.859,42.14,42.137,42.14C65.771,84.639,84.638,65.771,84.638,42.499"/>
	<path clip-path="url(#SVGID_2_)" fill="#FFFFFF" d="M17.599,32.561h9.74h1.321l0.291,1.294l3.862,17.206
		c2.999-8.312,5.999-16.624,8.999-24.936c0.363-1.006,0.486-1.731,1.763-1.682h19.715c0.833,0.666,1.022,2.384,0,3.312H46.271
		c-1.628,0-1.493-0.099-1.945,1.122L33.995,57.502l-1.923,5.329l-1.241-5.522l-4.812-21.436h-8.42
		C16.604,34.973,16.43,33.313,17.599,32.561"/>
	<path clip-path="url(#SVGID_2_)" fill="none" stroke="#FFFFFF" stroke-width="1.627" stroke-miterlimit="22.926" d="M17.599,32.561
		h9.74h1.321l0.291,1.294l3.862,17.206c2.999-8.312,5.999-16.624,8.999-24.936c0.363-1.006,0.486-1.731,1.763-1.682h19.715
		c0.833,0.666,1.022,2.384,0,3.312H46.271c-1.628,0-1.493-0.099-1.945,1.122L33.995,57.502l-1.923,5.329l-1.241-5.522l-4.812-21.436
		h-8.42C16.604,34.973,16.43,33.313,17.599,32.561z"/>
</g>
<text transform="matrix(1 0 0 1 45.1855 62.835)" fill="#FFFFFF" font-family="'Harabara'" font-size="34.907">x</text>
</svg>
