<?xml version="1.0" encoding="utf-8"?>
<!-- Generator: Adobe Illustrator 16.0.0, SVG Export Plug-In . SVG Version: 6.00 Build 0)  -->
<!DOCTYPE svg PUBLIC "-//W3C//DTD SVG 1.1//EN" "http://www.w3.org/Graphics/SVG/1.1/DTD/svg11.dtd">
<svg version="1.1" id="Layer_1" xmlns="http://www.w3.org/2000/svg" xmlns:xlink="http://www.w3.org/1999/xlink" x="0px" y="0px"
	 width="85px" height="85px" viewBox="0 0 85 85" enable-background="new 0 0 85 85" xml:space="preserve">
<g>
	<defs>
		<rect id="SVGID_1_" width="85" height="85"/>
	</defs>
	<clipPath id="SVGID_2_">
		<use xlink:href="#SVGID_1_"  overflow="visible"/>
	</clipPath>
	<path clip-path="url(#SVGID_2_)" fill="#F16382" d="M84.638,42.496c0-23.269-18.87-42.132-42.135-42.132
		c-23.276,0-42.14,18.863-42.14,42.132c0,23.277,18.864,42.141,42.14,42.141C65.768,84.637,84.638,65.772,84.638,42.496"/>
	<path clip-path="url(#SVGID_2_)" fill="#FFFFFF" d="M68.902,28.695h-0.597v29.822c0,0.64-0.518,1.157-1.157,1.157H17.879
		c-0.64,0-1.158-0.518-1.158-1.157V28.695h-0.625c-0.638,0-1.157,0.518-1.157,1.157v30.405c0,0.639,0.519,1.157,1.157,1.157h52.806
		c0.64,0,1.158-0.519,1.158-1.157V29.852C70.061,29.213,69.542,28.695,68.902,28.695"/>
	<path clip-path="url(#SVGID_2_)" fill="#FFFFFF" d="M19.133,58.889c2.826-0.521,7.26-1.447,10.995-1.447
		c3.73,0,7.714,0.982,10.707,1.447c0.631,0.098,1.157-0.518,1.157-1.157V26.191c0-0.639-0.531-1.027-1.157-1.157
		c-2.713-0.563-7.259-1.447-10.707-1.447c-3.511,0-8.337,0.884-10.995,1.447c-0.626,0.132-1.158,0.518-1.158,1.157v31.541
		C17.975,58.371,18.504,59.005,19.133,58.889"/>
	<path clip-path="url(#SVGID_2_)" fill="#FFFFFF" d="M44.165,58.889c2.993-0.465,6.978-1.447,10.706-1.447
		c3.736,0,8.17,0.927,10.996,1.447c0.629,0.116,1.158-0.518,1.158-1.157V26.191c0-0.639-0.532-1.025-1.158-1.157
		c-2.658-0.563-7.485-1.447-10.996-1.447c-3.448,0-7.994,0.884-10.706,1.447c-0.626,0.13-1.157,0.518-1.157,1.157v31.541
		C43.008,58.371,43.533,58.986,44.165,58.889"/>
</g>
</svg>
