<?xml version="1.0" encoding="utf-8"?>
<!-- Generator: Adobe Illustrator 16.0.0, SVG Export Plug-In . SVG Version: 6.00 Build 0)  -->
<!DOCTYPE svg PUBLIC "-//W3C//DTD SVG 1.1//EN" "http://www.w3.org/Graphics/SVG/1.1/DTD/svg11.dtd">
<svg version="1.1" id="Layer_1" xmlns="http://www.w3.org/2000/svg" xmlns:xlink="http://www.w3.org/1999/xlink" x="0px" y="0px"
	 width="85px" height="85px" viewBox="0 0 85 85" enable-background="new 0 0 85 85" xml:space="preserve">
<g>
	<defs>
		<rect id="SVGID_1_" width="85" height="85"/>
	</defs>
	<clipPath id="SVGID_2_">
		<use xlink:href="#SVGID_1_"  overflow="visible"/>
	</clipPath>
	<path clip-path="url(#SVGID_2_)" fill="#EC1C24" d="M84.637,42.503c0-23.272-18.859-42.139-42.135-42.139
		c-23.273,0-42.138,18.867-42.138,42.139c0,23.269,18.865,42.133,42.138,42.133C65.777,84.636,84.637,65.771,84.637,42.503"/>
	<path clip-path="url(#SVGID_2_)" fill-rule="evenodd" clip-rule="evenodd" fill="#FFFFFF" d="M40.702,22.243
		c0.943,0,1.701,0.768,1.701,1.711s-0.758,1.711-1.701,1.711c-0.954,0-1.711-0.768-1.711-1.711S39.748,22.243,40.702,22.243
		 M46.293,25.765c1.07,0,1.939,0.877,1.939,1.939c0,1.071-0.869,1.95-1.939,1.95c-1.074,0-1.941-0.879-1.941-1.95
		C44.352,26.642,45.219,25.765,46.293,25.765 M43.658,54.322c-1.993,0-3.605-1.614-3.605-3.605c0-1.994,1.613-3.608,3.605-3.608
		c1.994,0,3.619,1.614,3.619,3.608C47.277,52.708,45.652,54.322,43.658,54.322 M42.314,63.631c-1.192,0-2.154-0.977-2.154-2.166
		c0-1.192,0.962-2.169,2.154-2.169c1.193,0,2.166,0.977,2.166,2.169C44.48,62.654,43.52,63.631,42.314,63.631 M35.25,59.177
		c-1.353,0-2.459-1.094-2.459-2.446c0-1.357,1.106-2.461,2.459-2.461c1.344,0,2.45,1.104,2.45,2.461
		C37.7,58.083,36.605,59.177,35.25,59.177 M49.477,45.558c0-0.261-0.043-0.519-0.074-0.769v-8.247
		c1.051-0.226,1.83-1.158,1.83-2.273c0-1.29-1.039-2.33-2.33-2.33h-6.512c-0.258-1.32-1.365-2.33-2.764-2.33
		c-1.386,0-2.49,1.01-2.75,2.33h-0.779c-1.279,0-2.33,1.04-2.33,2.33c0,1.115,0.791,2.047,1.83,2.273v8.247
		c-0.033,0.25-0.074,0.499-0.074,0.769L25.207,62.472c0,3.251,2.633,5.894,5.895,5.894h22.797c3.262,0,5.895-2.643,5.895-5.894
		L49.477,45.558z"/>
</g>
</svg>
