<?xml version="1.0" encoding="utf-8"?>
<!-- Generator: Adobe Illustrator 16.0.0, SVG Export Plug-In . SVG Version: 6.00 Build 0)  -->
<!DOCTYPE svg PUBLIC "-//W3C//DTD SVG 1.1//EN" "http://www.w3.org/Graphics/SVG/1.1/DTD/svg11.dtd">
<svg version="1.1" id="Layer_1" xmlns="http://www.w3.org/2000/svg" xmlns:xlink="http://www.w3.org/1999/xlink" x="0px" y="0px"
	 width="85px" height="85px" viewBox="0 0 85 85" enable-background="new 0 0 85 85" xml:space="preserve">
<g>
	<defs>
		<rect id="SVGID_1_" width="85" height="85"/>
	</defs>
	<clipPath id="SVGID_2_">
		<use xlink:href="#SVGID_1_"  overflow="visible"/>
	</clipPath>
	<path clip-path="url(#SVGID_2_)" fill="#8DC641" d="M84.721,42.503c0-23.324-18.898-42.229-42.223-42.229
		c-23.32,0-42.218,18.905-42.218,42.229c0,23.32,18.898,42.224,42.218,42.224C65.822,84.727,84.721,65.823,84.721,42.503"/>
	<path clip-path="url(#SVGID_2_)" fill="#FFFFFF" d="M42.498,16.674c-14.236,0-25.824,11.586-25.824,25.822
		c0,14.245,11.588,25.83,25.824,25.83c14.246,0,25.83-11.585,25.83-25.83C68.328,28.26,56.744,16.674,42.498,16.674 M64.822,50.197
		c-0.082,0.005-0.154,0.034-0.139,0.159c-0.008,0.079-0.003,0.139,0.021,0.172c-0.605,1.692-1.414,3.281-2.371,4.764
		c-0.158,0.076-0.307,0.166-0.408,0.315c-0.586-0.12-0.781,0.203-1.102,0.37c-0.227,0.021-0.244-0.208-0.475-0.185
		c-0.063-0.439,0.127-0.591,0.081-1.013c-0.03-0.211-0.089-0.407-0.235-0.46c0.199-0.46,0-0.971-0.082-1.383
		c0.108-0.219,0.461-0.146,0.627-0.278c0.297-0.122,0.207-0.688,0.4-0.92c0.162-0.186,0.15,0.039,0.309,0.089
		c0.178-0.032,0.01-0.496,0.162-0.551c0.24,0.019,0.443-0.217,0.627,0c0.287-0.059,0.221-0.547,0.316-0.833
		c0.238-0.128,0.494-0.213,0.789-0.269c0.166-0.032,0.025-0.414,0.166-0.467c0.375,0.171,1.082-0.028,1.406,0.203
		C64.887,50,64.854,50.101,64.822,50.197 M24.326,27.447c0.09,0.051,0.174,0.09,0.262,0.135c0.318-0.032,0.308-0.436,0.711-0.369
		c-0.008,0.225,0.035,0.38,0.16,0.459c0.17-0.16,0.269-0.896,0-1.015c-0.065-0.257,0.107-0.245,0.074-0.463
		c0.387-0.13,0.332,0.234,0.627,0.186c0.115,0.396,0.369,0.621,0.643,0.833c0.084,0.361-0.288,0.324-0.086,0.549
		c0.148-0.203,0.304-0.373,0.398-0.638c0.014-0.212-0.275-0.048-0.398-0.092c-0.485-0.526-0.014-1.47,0.398-1.761
		c0.244,0.015,0.346,0.208,0.309,0.557c0.093-0.301,0.759-0.484,0.716,0.089c0.268-0.021,0.444-0.149,0.786-0.089
		c0.021,0.211,0.273,0.166,0.232,0.464h0.711c-0.035,0.37,0.217,0.421,0.32,0.644c-0.025,0.188-0.218,0.175-0.24,0.366
		c0.232,0.091,0.441,0.226,0.713,0.28c0.08,0.082,0.016,0.338,0.232,0.27c0.01,0.214-0.134,0.276-0.074,0.559
		c-0.267-0.101-0.267,0.127-0.238,0.366c-0.248-0.073-0.334-0.349-0.633-0.366c0,0.277,0.207,0.306,0.24,0.547
		c0.045,0.55-0.258,0.544-0.08,1.016c-0.656-0.067-0.861-0.661-1.338-0.924c-0.336,0.016-0.664,0.037-0.787-0.18
		c0.084-0.663,0.942-0.432,1.018-1.108c0.052-0.391-0.428-0.173-0.309-0.638c-0.258,0.105-0.488-0.286-0.629,0
		c-0.136-0.196-0.402-0.219-0.711-0.188c0.092,0.134,0.295,0.134,0.391,0.277c-0.082,0.241-0.096,0.563-0.082,0.915
		c-0.35,0.177-0.649,0.251-1.186,0.38c-0.013,0.165,0.096,0.196,0.08,0.362c-0.412,0.031-0.533,0.416-0.703,0.745
		c-0.261,0.155-0.375,0.483-0.631,0.639c-0.003,0.148,0.006,0.314-0.16,0.278c-0.043,0.354,0.362,0.189,0.237,0.645
		c0.361,0.122,0.632,0.368,0.861,0.642c0.201-0.009,0.254-0.174,0.316,0.091c0.162-0.051,0.162-0.278,0.327-0.091
		c0.091,0.374,0.126,0.827,0.312,1.107c0.107-0.392,0.115-0.912,0.393-1.107c-0.055-0.128-0.248,0.084-0.321-0.187
		c0.08-0.256,0.342,0.03,0.475,0c-0.133-0.679,0.197-1.197,0.082-2.124c0.225,0.076,0.203-0.12,0.396-0.089
		c0.221-0.017,0.182,0.351,0.393,0.089c0.363,0.067,0.277,0.503,0.703,0.286v0.92c0.033,0.203,0.391,0.036,0.555,0.088
		c0.172,0.017,0.035-0.323,0.078-0.459c0.441,0.043,0.33,0.728,0.633,0.927c0.004,0.157-0.018,0.287-0.074,0.362
		c0.033,0.391,0.392,0.391,0.392,0.839c0.188-0.017,0.244-0.181,0.391,0c0.027,0.567,0.027,0.621,0,1.187
		c0.119,0.248,0.187,0.525,0.476,0.557c-0.158,0.175-0.045,0.439,0,0.642c-0.248,0.135-0.48-0.221-0.558,0
		c-0.117-0.015-0.065-0.221-0.073-0.367c-0.296-0.059-0.339,0.164-0.628,0.095c0.14-0.522,0.527-0.794,0.701-1.293
		c-0.264-0.162-0.717,0.583-1.098,0.282c-0.068,0.264,0.107,0.233,0.078,0.46c-0.178,0.113-0.428,0.115-0.469,0.366
		c-0.035,0.407,0.354,0.318,0.549,0.457c-0.218,0.279-0.549,0.403-0.867,0.561c0-0.186,0.211-0.113,0.152-0.369
		c-0.377,0.166-0.81,0.277-1.105,0.551c-0.078,0.339,0.199,0.253,0.164,0.557c-0.271,0.109-0.531,0.239-0.789,0.368
		c0.103,0.616-0.357,0.51-0.152,1.007c-0.1,0.085-0.223,0.131-0.405,0.099c0.073,0.273,0.073,0.287,0,0.55
		c-0.543,0.126-0.892,0.494-1.027,1.112c0.014,0.229,0.154,0.322,0.244,0.455c-0.06,0.3-0.09,0.449,0,0.924
		c-0.381-0.045-0.588-0.3-0.551-0.831c-0.052-0.388-0.57-0.259-0.947-0.275c-0.09,0.016-0.086,0.144-0.082,0.275
		c-0.408,0.027-0.514-0.328-0.939-0.275c-0.276,0.091-0.436,0.294-0.715,0.369c0.236,0.722-0.428,2.363,0.629,2.303
		c0.246-0.082,0.175-0.54,0.314-0.728c0.387,0.045,0.406,0.045,0.793,0c0.068,0.57-0.16,0.788-0.236,1.186
		c0.279,0.178,0.799,0.054,0.945,0.378c0.08,0.587-0.191,1.024,0,1.472c0.254-0.04,0.348-0.273,0.545-0.365
		c0.228,0.023,0.346,0.158,0.316,0.461c0.198-0.303,0.518-0.452,0.639-0.837c0.244,0.051,0.32-0.112,0.393-0.279
		c0.187,0.067,0.214,0.318,0.384,0.37c0.161-0.03,0.069-0.347,0.323-0.271c0.058,0.392,0.449,0.399,0.556,0.73
		c0.112-0.016,0.135-0.15,0.231-0.174c0.402,0.143,0.705,0.405,1.107,0.551c0.041,0.407,0.225,0.66,0.473,0.82
		c0.709-0.404,1.17,0.778,0.947,1.204c0.008,0.24,0.266,0.183,0.473,0.188c0.047,0.378,0.566,0.196,0.709,0.459h0.554
		c0.278,0.137,0.582,0.242,0.707,0.551c0.161-0.05,0.249-0.266,0.395-0.092c0.076,0.249,0.168,0.49,0.168,0.834
		c0,0.215-0.154,0.277-0.092,0.552c-0.258,0.107-0.027,0.317-0.23,0.557c-0.094,0.235-0.297,0.333-0.319,0.641
		c-0.099,0.006-0.111,0.112-0.242,0.094c0.014,0.23-0.041,0.382-0.148,0.457c0.252,0.654-0.133,1.166-0.164,1.752
		c-0.336,0.148-0.328,0.148-0.711,0.278c-0.149,0.174-0.241,0.387-0.393,0.558v0.641c-0.176,0.295-0.494,0.408-0.476,0.925
		c-0.245-0.012-0.264,0.238-0.313,0.459c-0.055,0.017-0.156,0-0.156,0.091h-0.629c0.039,0.33,0.205,0.5,0.158,0.919
		c-0.301,0.111-0.449,0.41-0.871,0.376c-0.119,0.318-0.102,0.798-0.627,0.644c0.533,0.093,0.207,1.006,0,1.287
		c-0.045,0.337,0.279,0.222,0.234,0.557c-0.005,0.235-0.113,0.36-0.32,0.369c-0.008,0.357-0.26,0.424-0.234,0.834
		c-0.088,0.339,0.295,0.142,0.234,0.458c0.11,0.188,0.256,0.317,0.481,0.366c-0.059,0.332-0.577,0.128-0.871,0.186
		c-0.139-0.092-0.272-0.213-0.452-0.262c-0.002-0.009-0.015-0.014-0.025-0.014c0.023-0.178-0.088-0.206-0.07-0.367
		c-0.264-0.193-0.237-0.703-0.481-0.924c0.188-0.529-0.082-0.851-0.156-1.478c0.166-0.284-0.07-0.511,0.082-0.729
		c0.094-0.304-0.256-0.077-0.152-0.377c0.121-0.22,0.455-0.197,0.392-0.64c-0.08-0.257-0.281,0.165-0.392-0.095
		c0.16-0.611-0.036-1.641,0.392-1.941c0.098-0.569-0.221-1.059,0-1.476c-0.015-0.162-0.056-0.307-0.166-0.367
		c0.086-0.112,0.074-0.343,0.166-0.457c0-0.591-0.256-0.882-0.392-1.291c-0.469-0.072-0.579-0.565-0.875-0.833
		c-0.073-0.256,0.109-0.242,0.086-0.46c-0.426-0.189-0.776-0.458-0.715-1.198c0.136-0.059,0.326-0.05,0.388-0.183
		c-0.152-0.153-0.404-0.192-0.545-0.375c0.315-0.289-0.152-0.646,0-1.285c0.063-0.353,0.348-0.449,0.315-0.926
		c-0.059-0.248,0.158-0.181,0.158-0.367c-0.078-0.277-0.209-0.499-0.244-0.828c-0.162,0.021-0.152,0.238-0.229,0.368
		c-0.402-0.121-0.496-0.596-0.941-0.645v-0.273c-0.17-0.124-0.326-0.242-0.402-0.468c-0.258,0.03-0.332-0.164-0.633-0.091
		c-0.115-0.193-0.225-0.407-0.317-0.64c-0.783,0.199-1.16-0.278-1.808-0.471c-0.162-0.385-0.373-0.729-0.315-1.382
		c-0.181-0.277-0.388-0.534-0.632-0.728c-0.004-0.153,0.004-0.332-0.151-0.278c0,0.517,0.155,0.428,0.151,0.829
		c-0.239,0.063-0.233-0.161-0.471-0.097c-0.152-0.347-0.229-0.786-0.561-0.921c0.022-0.112-0.004-0.261,0.084-0.278
		c-0.271-0.295-0.256-0.934-0.464-1.291c-0.077-0.058-0.137-0.126-0.196-0.195C20.015,34.2,21.785,30.502,24.326,27.447
		 M27.256,24.489c1.308-1.115,2.738-2.082,4.281-2.895c0.033,0.109,0.223,0.034,0.223,0.175c-0.118,0.555-0.62,0.279-0.94,0.463
		c-0.174,0.018,0.098,0.231,0,0.458c-0.301-0.01-0.449,0.149-0.557,0.373c-0.5-0.095-0.533,0.353-0.941,0.366
		c0.082,0.592-0.396,0.527-0.396,1.016h-0.557c-0.053,0.253,0.375-0.062,0.324,0.184c0.02,0.243-0.119,0.303-0.324,0.275
		c-0.182,0.681-0.977,0.177-1.566,0.275c0-0.104-0.059-0.167-0.12-0.185c0.1-0.1,0.204-0.175,0.299-0.274
		c0.213,0.099,0.463,0.168,0.762,0.099C27.629,24.576,27.453,24.508,27.256,24.489 M63.418,31.557
		c-0.115,0.134-0.256,0.24-0.311,0.445c0.127,0.434,0.373,0.181,0.582,0.084c0.131,0.275,0.26,0.56,0.393,0.84
		c0.018,0.445,0.125,0.966,0.051,1.474c-0.283,0.304-0.434,0.766-0.623,1.2c-0.232,0.101-0.467,0.194-0.631,0.367
		c-0.262,0.708,0.236,1.725-0.242,2.122c-0.246-0.116-0.471-0.246-0.398-0.735c-0.104-0.268-0.385-0.354-0.469-0.643
		c-0.514,0,0.066,0.43-0.158,0.544c0.01,0.173-0.078,0.217-0.234,0.189c0.064,0.266-0.107,0.239-0.08,0.46
		c0.006,0.271,0.182,0.345,0.314,0.461c0,0.282,0.068,0.477,0.24,0.558c-0.255,0.215-0.109,0.906-0.24,1.292
		c-0.104,0-0.111,0.119-0.234,0.097c-0.131,0.586-0.457,0.928-0.709,1.372c-0.42-0.017-0.813-0.017-0.873,0.376
		c0.145-0.008,0.242,0.02,0.318,0.088c-0.098,0.195-0.098,0.496-0.318,0.548c0.086,1.116-0.104,1.917-0.861,2.035
		c0-0.159-0.02-0.295-0.084-0.377c-0.336-0.057-0.459-0.378-0.633-0.641c-0.266,0.034-0.119,0.535-0.148,0.832
		c0.117,0.285,0.33,0.466,0.549,0.645c0.023,0.557,0.408,0.683,0.391,1.291c-0.445-0.31-0.799-0.719-1.184-1.099
		c0.084-0.418-0.129-0.471-0.158-0.741c-0.061-0.294,0.135-0.294,0.158-0.461c-0.043-0.293-0.182-0.459-0.385-0.557
		c0.113-0.286-0.035-0.361,0.072-0.55c-0.16-0.211-0.709,0.011-0.789-0.286c-0.064-0.257,0.107-0.229,0.08-0.459
		c-0.297-0.111-0.297-0.572-0.475-0.819c-0.291,0.045-0.516,0.188-0.711,0.364c-0.109,0.266-0.414,0.304-0.393,0.729
		c-0.242-0.065-0.1,0.328-0.389,0.185v0.376h-0.322c0.07,0.795-0.215,1.167-0.316,1.748c-0.205,0-0.445,0.036-0.549-0.09v-0.55
		c-0.061-0.296-0.236-0.474-0.395-0.648c-0.135-0.43-0.23-0.896-0.473-1.202c0.059-0.327-0.117-0.349-0.074-0.646
		c-0.115-0.143-0.4-0.092-0.479-0.266c0.012-0.124,0.029-0.227,0.158-0.197c-0.344-0.148-0.471-0.545-1.027-0.456
		c-0.154,0.026-0.154-0.125-0.232-0.185c-0.348-0.007-0.408,0.318-0.789,0.275c0.068-0.29-0.127-0.282-0.16-0.454
		c-0.799,0.097-0.662-0.89-1.104-1.2c-0.119,0.049-0.189,0.129-0.313,0.183c0.164,0.082,0.135,0.392,0.393,0.365
		c-0.041,0.474,0.248,0.576,0.318,0.927c0.119-0.164,0.332-0.235,0.629-0.194c-0.066,0.572,0.34,0.595,0.473,0.936
		c-0.006,0.324-0.291,0.33-0.236,0.728c-0.303,0.105-0.447,0.401-0.783,0.458c-0.152,0.018-0.057,0.317-0.164,0.378
		c-0.641,0.106-1.025,0.519-1.578,0.73c-0.387-0.324-0.367-0.902-0.551-1.292c-0.318-0.391-0.537-0.905-0.863-1.292
		c0.078-0.177-0.129-0.67-0.316-0.819c-0.113,0.015,0.066,0.455,0,0.73c0.09,0.254,0.332,0.337,0.469,0.552
		c-0.152,0.706,0.389,0.6,0.32,1.205c0.277,0.346,0.674,0.57,0.709,1.196h0.713c0.309,0.02,0.283-0.329,0.619-0.28
		c0.252,0.2,0.141,0.679,0.084,1.018c-0.385,0.622-0.732,1.301-1.102,1.934c-0.203,0.135-0.359,0.314-0.557,0.469
		c-0.088,0.446-0.221,0.835-0.395,1.193c0.119,0.746,0.119,1.823,0,2.577c-0.607,0.37-0.93,1.06-0.943,2.121
		c-0.273-0.075-0.334,0.105-0.469,0.188c0.063,0.382-0.121,0.477-0.086,0.831c-0.349,0.235-0.588,0.603-0.707,1.115
		c-0.676,0.165-1.057,0.67-1.816,0.728c-0.363-0.466-0.355-1.366-0.707-1.843v-0.831c-0.127-0.621-0.373-1.097-0.71-1.476
		c0.17-0.45,0.125-1.149,0.318-1.565c-0.096-0.445-0.103-0.984-0.318-1.29c0.136-0.645-0.246-1.008-0.471-1.475
		c-0.01-0.629,0.246-0.953,0.154-1.661c-0.267-0.074-0.332,0.099-0.472,0.181c-0.278-0.036-0.412-0.248-0.787-0.181
		c-0.11-0.06-0.008-0.354-0.153-0.373c-0.326-0.034-0.318,0.313-0.478,0.464c-0.407-0.022-0.787,0-1.102,0.09
		c-0.504-0.097-0.736-0.487-1.101-0.737c-0.129-0.525-0.358-0.933-0.633-1.292v-2.389c0.203-0.325,0.385-0.666,0.388-1.197
		c0.176-0.256,0.606-0.503,0.719-0.745c0.178-0.387,0.098-0.95,0.313-1.383c0.197-0.169,0.49-0.238,0.558-0.553
		c0.233-0.007,0.399,0.076,0.475,0.278c0.293-0.36,0.844-0.415,1.49-0.368c0.32-0.172,0.703-0.277,1.184-0.277
		c0.095,0.118,0.095,0.343-0.084,0.367c0.072,0.159,0.218,0.239,0.164,0.553c0.328,0.47,1.057,0.487,1.414,0.923
		c0.215-0.099,0.16-0.484,0.396-0.557c0.76,0.035,1.479,0.123,2.053,0.376c0.315-0.06,0.166-0.676,0.391-0.835v-0.55
		c-0.385-0.139-0.075,0.527-0.391,0.458c-0.365,0.016,0.065-0.329-0.156-0.458c-0.221,0.164-0.744,0.233-1.025,0
		c-0.133-0.105-0.063-0.404-0.24-0.376c0.068-0.394-0.012-0.369,0.074-0.73h-0.236c-0.219,0.33,0.061,0.781-0.07,1.106
		c0.264-0.038,0.447,0.032,0.385,0.368c-0.205-0.202-0.441-0.016-0.471-0.278c0.051-0.007,0.092-0.011,0.086-0.09
		c-0.213,0-0.453,0.041-0.559-0.099v-0.548c0.031-0.141-0.097-0.252-0.152-0.366c-0.053-0.083-0.11-0.299-0.16-0.376
		c-0.258-0.397-0.707-0.583-0.943-1.01c-0.254,0.722,0.729,0.799,0.943,1.293c-0.129,0.31-0.252-0.293-0.395,0
		c0.014,0.144,0.201,0.076,0.16,0.278c-0.182,0.154-0.438,0.232-0.398,0.641c-0.121-0.17-0.41-0.138-0.385-0.46
		C42.178,37,42.363,37,42.373,36.803c-0.084-0.368-0.32-0.545-0.705-0.561c-0.08-0.118-0.074-0.342-0.242-0.364
		c-0.045,0.488,0.257,0.965-0.239,1.016c-0.107-0.45-0.22-1.028,0-1.385c-0.314,0.022-0.449,0.324-0.783,0.091
		c-0.42,0.02-0.365,0.625-0.719,0.743c0.065,0.641-0.205,0.906-0.388,1.288c-0.295-0.179-0.33-0.179-0.625,0
		c-0.233-0.066-0.342-0.274-0.711-0.187c0.08-0.432-0.108-0.55-0.16-0.826c0.332-0.017,0.072-0.711,0.16-1.018
		c0.484,0.084,0.812-0.218,1.181,0c0.164-0.024,0.155-0.251,0.233-0.368c0.047-0.425-0.346-0.326-0.309-0.742
		c-0.219,0-0.457,0.037-0.556-0.09c-0.008-0.294,0.209-0.313,0.404-0.366c0.205-0.125,0.266-0.407,0.615-0.376
		c0.063-0.018,0.1-0.075,0.086-0.186c-0.473-0.032-0.867,0.025-1.266,0.102c-0.019-0.282,0.26-0.196,0.399-0.282
		c-0.108-0.214-0.227-0.414-0.164-0.821c0.135,0.131,0.429-0.056,0.396-0.378c-0.103-0.041-0.199-0.051-0.396-0.183
		c-0.039-0.483,0.144-0.698,0.088-1.196c0.191-0.084,0.338-0.218,0.625-0.182c0.023,0.227-0.123,0.287-0.231,0.369
		c0.076,0.127,0.209,0.184,0.309,0.276c-0.283,0.473,0.33,0.558,0.24,1.103c0.07,0.119,0.205,0.191,0.313,0.282
		c-0.295,0.267-0.245,0.522-0.313,0.91c0.375,0.079,0.1-0.612,0.549-0.455c-0.065-0.316,0.09-0.391,0.162-0.546
		c0.258-0.051,0.424-0.181,0.707-0.191c-0.01-0.143,0.01-0.317-0.16-0.278c0-0.267,0.146-0.374,0.314-0.643
		c-0.132-0.182-0.545-0.037-0.627-0.274c0.024-0.435,0-0.798-0.156-1.012c0.158-0.436,0.211-0.986,0.711-1.023v-0.362
		c0.092,0.016,0.223-0.015,0.234,0.089c0.227-0.255,0.379-0.593,0.473-1.015c0.305-0.315,0.67-0.574,0.949-0.924
		c0.135,0.042,0.205-0.139,0.234,0c0.216-0.176,0.408-0.379,0.633-0.546h0.711c0.164,0.136,0.285,0.335,0.389,0.546
		c0.295,0.026,0.518,0.146,0.637,0.375c0.5,0.046,1.15,0.337,0.943,0.915c0.469,0.068,0.487-0.413,0.469-0.915
		c0.1,0.097,0.275,0.097,0.475,0.089v0.55c0.4-0.112,0.59-0.474,0.943-0.639c0.504,0.046,0.852-0.089,1.186,0
		c0.09-0.416-0.436-0.102-0.316-0.556c0.559,0.014,0.518,0.232,1.027,0.181c0.264-0.332,0.566-0.627,0.791-1.01
		c0.361-0.121,0.346,0.2,0.467,0.366c0.342,0.127,0.17-0.358,0.477-0.277c-0.02,0.233-0.02,0.444,0.08,0.555
		c0.199-0.013,0.154-0.31,0.162-0.555c0.416-0.063,0.49,0.272,0.779,0.375c0.074-0.42-0.393-0.22-0.393-0.554
		c-0.066-0.332,0.311-0.137,0.475-0.181c0.205-0.02,0.131-0.354,0.234-0.467c0.268,0.028,0.338-0.158,0.475-0.271
		c0.461,0.037,0.736-0.121,0.941-0.374c0.254-0.079,0.172,0.246,0.316,0.275c0.297,0.047,0.162-0.424,0.555-0.275
		c-0.018-0.334,0.057-0.561,0.238-0.652c0.313-0.047,0.268,0.296,0.467,0.37c0.35,0.01,0.713,0.034,0.949-0.09
		c0.111,0.269,0.363,0.372,0.479,0.647c0,0.28-0.197,0.308-0.238,0.551c0.445-0.105,0.59,0.141,0.791,0.191
		c0.09,0.017,0.213-0.041,0.307,0c0.188,0.065,0.365,0.168,0.578,0.2C60.783,27.378,62.264,29.357,63.418,31.557 M65.129,35.772
		c-0.016,0.036-0.025,0.073-0.049,0.106c-0.178,0.029-0.088-0.27-0.232-0.278c-0.281-0.052-0.256,0.431-0.475,0.189
		c-0.008-0.379,0.133-0.581,0.072-1.022c0.154,0.019,0.279,0.066,0.402,0.115C64.949,35.176,65.045,35.478,65.129,35.772
		 M62.326,44.085c0.121-0.22,0.199-0.44,0.467-0.28c0-0.24-0.029-0.526,0.086-0.641c0.221,0.017,0.326,0.157,0.313,0.46
		c0.137,0.175,0.463,0.132,0.389,0.557c-0.375-0.052-0.596,0.092-0.701,0.365c-0.254-0.063-0.105-0.248-0.086-0.461
		C62.543,44.041,62.48,44.277,62.326,44.085 M62.555,47.861c-0.291,0.194-0.293-0.097-0.475-0.278
		c-0.129,0.088-0.174,0.294-0.154,0.561c-0.609-0.35-0.329-1.372,0.08-1.758c0.135,0.28,0.611,0.145,0.631,0.558
		c-0.111,0.12-0.29,0.12-0.398,0C62.262,47.361,62.516,47.479,62.555,47.861 M61.533,46.854c-0.26,0.121-0.139,0.694-0.393,0.828
		c0,0.091,0.094,0.07,0.156,0.091c-0.006,0.173-0.26,0.066-0.241,0.274c-0.509,0.14-0.429-0.411-0.942-0.274
		c0.029-0.495-0.318-0.548-0.398-0.919c0.141-0.893,1.193-0.693,1.268-1.663c0.357-0.025,0.512,0.201,0.713,0.361
		c0.035,0.292-0.105,0.384-0.246,0.466C61.597,46.243,61.347,46.552,61.533,46.854 M61.056,49.063
		c-0.856,0.117-1.212-0.364-1.97-0.368c-0.064-0.313,0.092-0.393,0.158-0.552c0.482,0.178,0.932,0.383,1.58,0.368
		C60.775,48.843,61.097,48.736,61.056,49.063 M61.611,41.41c-0.039-0.241-0.111-0.432-0.234-0.553
		c0.082-0.214,0.354-0.475,0.549-0.283C61.906,40.963,61.936,41.386,61.611,41.41 M62.477,42.148
		c0.049,0.455-0.215,0.543-0.316,0.832c-0.188-0.146-0.346-0.336-0.465-0.558C61.68,41.967,62.264,41.813,62.477,42.148
		 M64.373,46.57c-0.021,0.382-0.6,0.477-0.863,0.283C63.48,46.426,64.107,46.386,64.373,46.57 M64.056,38.458
		c-0.071-0.05-0.125-0.102-0.243-0.092c-0.216,0.136-0.418,0.31-0.469,0.651c-0.127-0.155-0.324-0.232-0.309-0.559h0.475
		c0.037-0.255-0.434,0.077-0.402-0.183c0.008-0.479,0.514-0.383,0.787-0.553c0.287-0.293,0.432-0.415,0.709-0.556
		c-0.004-0.109,0.021-0.165,0.08-0.181c-0.117-0.467,0.016-0.674-0.08-1.106h0.322c-0.021,0.698,0.133,1.187,0.154,1.843
		C64.83,38.069,64.313,38.105,64.056,38.458 M64.381,33.64c0.125,0.301,0.244,0.614,0.359,0.917
		C64.482,34.409,64.406,34.063,64.381,33.64 M57.201,45.464c0.203-0.1,0.404,0.313,0.393-0.081c0.152,0,0.102,0.236,0.314,0.169
		c-0.061,0.285,0.197,0.439,0.309,0.656c0.115,0.19,0.391,0.458,0.633,0.646c-0.008,0.438,0.346,0.842,0.158,1.193
		c-0.367,0.199-0.479-0.411-0.861-0.464C58.301,46.32,57.201,46.537,57.201,45.464 M54.514,44.354c0.16,0.184,0.33,0.36,0.393,0.647
		c-0.18,0.028-0.145,0.329-0.393,0.278C54.222,45.012,54.633,44.907,54.514,44.354 M48.684,51.828
		c-0.063,0.039-0.148,0.085-0.158,0.189v0.454c-0.211,0.424-0.148,0.603-0.32,1.021c-0.295-0.081-0.379,0.11-0.625,0.09
		c-0.295-0.322-0.068-0.688-0.242-1.111c0.113-0.144,0.168-0.365,0.242-0.551c0.039-0.297-0.143-0.322-0.074-0.644
		c0.186-0.267,0.369-0.547,0.699-0.647c0.059-0.367,0.178-0.652,0.32-0.921c0.33-0.047,0.02,0.647,0.311,0.647
		C48.83,51.038,48.535,51.432,48.684,51.828 M30.894,60.219c-0.011-0.304,0.371-0.364,0.317,0H30.894z M33.894,30.161
		c-0.183,0.07-0.242,0.274-0.318,0.458c-0.264,0.027-0.17-0.358-0.383-0.365h-0.564c-0.418-0.625,0.013-1.672-0.555-2.126
		c-0.084-0.267,0.381-0.343,0.162-0.456c0.154-0.197,0.369-0.301,0.549-0.459c-0.107-0.364-0.637-0.236-0.711-0.648
		c0.248,0,0.531,0.05,0.479-0.273c-0.196-0.337-0.231,0.266-0.551,0.088c-0.051-0.303,0.052-0.425,0.072-0.642
		c-0.096-0.211-0.215-0.427-0.152-0.834c-0.459,0.09-0.711-0.085-0.946-0.275c-0.242-0.066-0.156,0.25-0.394,0.19
		c-0.26-0.128-0.561-0.212-0.633-0.565c0.215-0.172,0.682-0.052,1.027-0.091c-0.017-0.504-0.357-0.152-0.548-0.09
		c0-0.24-0.407-0.24-0.397,0c-0.144-0.036-0.144-0.264-0.391-0.189c0.094-0.368,0.354-0.392,0.549-0.274
		c0.213-0.236,0.631-0.236,0.867-0.455c0.03-0.293-0.394-0.031-0.322-0.366c0.817-0.099,1.195-0.708,1.977-0.83
		c0.527,0.142,0.851-0.026,1.416,0.089c0.138-0.052-0.08-0.444-0.08-0.646c0.138-0.267,0.588-0.181,0.943-0.181
		c0.334-0.234,1.111,0.051,1.43-0.192c0.135,0.053,0.326,0.053,0.388,0.192c0.147-0.25,0.454-0.115,0.709,0
		c0.434-0.045,0.78,0,0.955,0.268c-0.101,0.417-0.742,0.183-0.796,0.648c0.164,0.151,0.533-0.241,0.869-0.178
		c0.244-0.053,0.203,0.247,0.392,0.273c0.057,0.186,0.475-0.055,0.397,0.275c0.041,0.37-0.43,0.105-0.631,0.183
		c-0.273-0.053-0.193,0.321-0.475,0.278c-0.056,0.278,0.143,0.269,0.077,0.553c-0.297-0.098-0.227,0.225-0.465,0.185
		c0.201,0.193,0.605,0.149,0.632,0.548c-0.296-0.024-0.521,0.018-0.718,0.101c0.119,0.501,0.34,1.429-0.309,1.473
		c0.061,0.157,0.221,0.236,0.156,0.552c-0.117-0.051-0.207-0.133-0.316-0.186c-0.223,0.147,0.424,0.326,0.16,0.552
		c-0.42,0.025-0.582-0.24-0.873-0.366c-0.213-0.069-0.158,0.185-0.31,0.185c0.214,0.029,0.543,0.401,0.703,0.181
		c0.22,0.324-0.436,0.405-0.477,0.735c-0.394,0.093-0.562,0.447-0.947,0.561c-0.141,0.103-0.254,0.239-0.391,0.369
		c-0.326-0.227-0.326,0.181-0.615,0c-0.221,0-0.125,0.36-0.322,0.366C34.295,29.451,33.795,29.458,33.894,30.161 M42.611,23.063
		c0.1-0.013,0.295,0.311,0.311,0.092c0.217,0.361,0.709,0.408,0.637,1.099c-0.541,0.141-0.662-0.203-0.873-0.461
		c-0.096,0.318-0.168,0.671-0.229,1.026c-0.23,0.014-0.432,0-0.395-0.283c-0.287,0.064-0.422-0.065-0.558-0.181
		c0.009-0.424,0.377-0.424,0.394-0.834c-0.371-0.042-0.385,0.353-0.711,0.363c-0.144-0.172-0.006-0.231,0-0.455
		c-0.043-0.24-0.349-0.199-0.386-0.461c0.017-0.867,0.775-0.436,0.945,0c0.203-0.078-0.152-0.4,0.076-0.55
		c0.33-0.089,0.582,0.215,0.393,0.459C42.283,23.011,42.416,23.072,42.611,23.063 M42.533,22.232
		c0.639,0.018,1.326,0.05,2.055,0.186c0.093,0.421-0.279,0.288-0.326,0.55c-0.748,0.112-1.152-0.179-1.65-0.37
		C42.549,22.511,42.527,22.387,42.533,22.232 M38.439,32.745c-0.162,0.121-0.459,0.084-0.638,0.181
		c-0.121-0.134-0.063-0.472-0.077-0.743c0.135-0.16,0.309,0.142,0.317-0.273h0.398C38.41,32.337,38.349,32.361,38.439,32.745
		 M37.84,29.232c-0.25-0.05-0.164-0.483-0.555-0.362c-0.068-0.36,0.184-0.329,0.232-0.56c-0.189-0.029-0.166,0.179-0.394,0.101
		c0-0.345,0.41-0.197,0.322-0.649c0.272-0.013,0.246,0.318,0.467,0.366c0.322-0.139,0.441,0.032,0.791-0.086
		c-0.023,0.396,0.242,0.451,0.16,0.916c-0.107,0.129-0.385,0.044-0.391,0.274C38.383,29.145,37.904,29.042,37.84,29.232
		 M48.443,24.904c0.469-0.228,0.914-0.477,1.496-0.549c0.084-0.013,0.064-0.117,0.084-0.192h0.398
		c-0.049,0.481-0.293,0.709-0.789,0.656c-0.428,0.209-0.629,0.676-1.189,0.738c-0.09,0.646,0.281,0.772,0.393,1.189
		c-0.133,0-0.203,0.074-0.232,0.19c-0.289-0.16-0.535-0.364-0.791-0.556c0.014-0.283,0.219-0.356,0.314-0.552
		C48.068,25.323,48.479,25.377,48.443,24.904 M48.443,22.877c-0.025-0.481,0.705-0.671,0.711-0.088
		C48.855,22.744,48.709,23.161,48.443,22.877 M53.648,22.789c0.434-0.234,1.152-0.083,1.34,0.274
		c-0.145,0.596-0.801,0.153-1.418,0.271C53.613,23.169,53.484,22.798,53.648,22.789 M27.662,29.232
		c-0.09,0.586-0.66-0.438-0.631,0.276c-0.291,0-0.543-0.041-0.555-0.364c0.364,0.108,0.289-0.282,0.403-0.456
		c0.236-0.067,0.232,0.158,0.474,0.089C27.556,29.002,27.353,29.133,27.662,29.232 M29.002,42.238
		c0.074,0.393-0.192,0.393-0.469,0.365v-0.365H29.002z M26.803,41.967c-0.356-0.061-0.389-0.489-0.715-0.557
		c-0.393-0.12-0.393,0.223-0.705,0.189c-0.02-0.233,0.121-0.294,0.15-0.467h1.184c0.035,0.264,0.304,0.264,0.47,0.378
		c0,0.174,0.219,0.104,0.166,0.364c0.475,0.022,0.909-0.07,1.016,0.548c-0.213,0.012-0.541-0.079-0.551,0.181
		c-0.17-0.072-0.262-0.229-0.551-0.181c-0.037-0.229-0.134-0.356,0.157-0.362C27.369,41.849,26.982,42.018,26.803,41.967
		 M26.957,42.513c-0.283,0.126-0.291-0.004-0.553,0.09v-0.365C26.656,42.246,27.004,42.148,26.957,42.513 M26.476,40.947v-0.373
		c0.207,0.016,0.311,0.142,0.327,0.373H26.476z M27.031,40.574h0.236c0.069,0.108,0.102,0.252,0.086,0.47
		C27.058,41.107,27.002,40.898,27.031,40.574 M27.424,41.41v-0.463c0.205,0.016,0.304,0.133,0.32,0.366
		c0.115,0.016,0.291-0.03,0.32,0.097c0.078,0.32-0.484,0.24-0.32-0.097C27.638,41.344,27.592,41.449,27.424,41.41 M65.242,48.864
		v-0.543c-0.293-0.393-0.76-0.591-1.109-0.919c-0.189-0.125-0.375,0.213-0.393,0c-0.066-0.292,0.26-0.125,0.236-0.368
		c0.245-0.073,0.148,0.257,0.396,0.19c0.193,0.011,0.252-0.146,0.311-0.281h0.559c0.15,0.053,0.275,0.15,0.4,0.266
		C65.535,47.765,65.391,48.313,65.242,48.864"/>
	<path clip-path="url(#SVGID_2_)" fill="#FFFFFF" d="M28.141,24.819c-0.029-0.031-0.127,0.037-0.076,0.085
		C28.082,24.932,28.174,24.863,28.141,24.819"/>
	<path clip-path="url(#SVGID_2_)" fill="#FFFFFF" d="M61.297,36.984c-0.119-0.019-0.068-0.227-0.08-0.366
		c-0.297-0.042-0.359,0.192-0.477,0.366C60.951,36.911,61.178,37.267,61.297,36.984"/>
	<path clip-path="url(#SVGID_2_)" fill="#FFFFFF" d="M56.723,25.646c0.021,0.024,0.115-0.053,0.08-0.089
		C56.784,25.527,56.682,25.593,56.723,25.646"/>
	<path clip-path="url(#SVGID_2_)" fill="#FFFFFF" d="M56.961,25.558c0.016,0.014,0.115-0.049,0.08-0.096
		C57.012,25.43,56.918,25.509,56.961,25.558"/>
	<path clip-path="url(#SVGID_2_)" fill="#FFFFFF" d="M51.516,27.032c-0.023,0.239,0.166,0.229,0.32,0.271
		C51.908,27.001,51.577,27.167,51.516,27.032"/>
	<path clip-path="url(#SVGID_2_)" fill="#FFFFFF" d="M20.732,40.215v-0.1C20.636,40.139,20.682,40.215,20.732,40.215"/>
	<path clip-path="url(#SVGID_2_)" fill="#FFFFFF" d="M41.426,35.878V35.69C41.33,35.716,41.35,35.878,41.426,35.878"/>
	<path clip-path="url(#SVGID_2_)" fill="#FFFFFF" d="M43.479,28.411c-0.26,0.618-0.816,0.887-0.867,1.75
		c0.064,0.176,0.127,0.335,0.16,0.553c-0.176,0.38-0.299,0.818-0.473,1.196c-0.706,0.38-0.552-0.875-0.949-0.914
		c0.018,0.409,0.133,0.695,0.318,0.914c-0.185,0.035-0.185,0.248,0,0.273c0.01-0.22,0.258-0.013,0.231,0.097
		c0.211-0.011,0.254-0.227,0.475-0.278c0.186-0.039,0.375,0.035,0.633,0c0.25-0.234,0.139-0.875,0.313-1.199
		c0.363-0.166,0.135,0.332,0.32,0.374v-0.923c-0.273-0.054-0.486-0.176-0.633-0.37c-0.07-0.788,0.57-0.751,0.633-1.376
		C43.615,28.429,43.576,28.397,43.479,28.411"/>
	<path clip-path="url(#SVGID_2_)" fill="#FFFFFF" d="M30.734,32.563c-0.008-0.034-0.115,0.04-0.072,0.089
		C30.677,32.679,30.779,32.603,30.734,32.563"/>
	<path clip-path="url(#SVGID_2_)" fill="#FFFFFF" d="M59.244,41.874c-0.223,0.267,0.262,0.23,0.162,0.64
		c0.1,0.089,0.285,0.089,0.389,0.182c-0.104-0.563-0.15-0.293,0-0.635C59.455,42.175,59.482,41.614,59.244,41.874"/>
	<path clip-path="url(#SVGID_2_)" fill="#FFFFFF" d="M45.287,28.042c-0.02,0.165,0.01,0.937,0.482,0.828
		c0.215-0.093-0.123-0.249,0.072-0.362c0.186-0.097,0.502-0.037,0.477-0.38C46.058,27.995,45.654,28.043,45.287,28.042"/>
	<path clip-path="url(#SVGID_2_)" fill="#FFFFFF" d="M44.5,26.937c0.021,0.029,0.123-0.047,0.088-0.099
		C44.562,26.808,44.459,26.89,44.5,26.937"/>
	<path clip-path="url(#SVGID_2_)" fill="#FFFFFF" d="M45.922,40.215c0.021,0.025,0.123-0.054,0.078-0.1
		C45.984,40.095,45.881,40.161,45.922,40.215"/>
	<path clip-path="url(#SVGID_2_)" fill="#FFFFFF" d="M46,28.777c0.021,0.027,0.127-0.045,0.082-0.089
		C46.053,28.666,45.965,28.73,46,28.777"/>
	<path clip-path="url(#SVGID_2_)" fill="#FFFFFF" d="M51.516,27.032C51.596,26.645,51.283,27.001,51.516,27.032"/>
	<path clip-path="url(#SVGID_2_)" fill="#FFFFFF" d="M43.877,30.532c0.232,0,0.48,0.004,0.473-0.278
		C44.15,30.303,43.877,30.254,43.877,30.532"/>
	<path clip-path="url(#SVGID_2_)" fill="#FFFFFF" d="M57.201,25.36c0.016,0.032,0.111-0.037,0.078-0.089
		C57.252,25.248,57.16,25.323,57.201,25.36"/>
	<path clip-path="url(#SVGID_2_)" fill="#FFFFFF" d="M37.285,22.232c0.131-0.115,0.312-0.193,0.316-0.463
		c-0.339,0.052-1.072-0.105-1.339,0.278C36.685,22.007,37.041,22.047,37.285,22.232"/>
	<path clip-path="url(#SVGID_2_)" fill="#FFFFFF" d="M37.041,26.194c0.031-0.239,0.201-0.322,0.244-0.548
		C37.041,25.585,36.838,26.028,37.041,26.194"/>
	<path clip-path="url(#SVGID_2_)" fill="#FFFFFF" d="M20.645,39.841c-0.139-0.08-0.127-0.34-0.314-0.364
		C20.268,39.748,20.544,40.07,20.645,39.841"/>
	<path clip-path="url(#SVGID_2_)" fill="#FFFFFF" d="M20.33,39.293c0-0.058-0.059-0.11-0.08,0
		C20.25,39.342,20.312,39.394,20.33,39.293"/>
</g>
</svg>
