<?xml version="1.0" encoding="utf-8"?>
<!-- Generator: Adobe Illustrator 16.0.0, SVG Export Plug-In . SVG Version: 6.00 Build 0)  -->
<!DOCTYPE svg PUBLIC "-//W3C//DTD SVG 1.1//EN" "http://www.w3.org/Graphics/SVG/1.1/DTD/svg11.dtd">
<svg version="1.1" id="Layer_1" xmlns="http://www.w3.org/2000/svg" xmlns:xlink="http://www.w3.org/1999/xlink" x="0px" y="0px"
	 width="85px" height="85px" viewBox="0 0 85 85" enable-background="new 0 0 85 85" xml:space="preserve">
<g>
	<defs>
		<rect id="SVGID_1_" width="85" height="85"/>
	</defs>
	<clipPath id="SVGID_2_">
		<use xlink:href="#SVGID_1_"  overflow="visible"/>
	</clipPath>
	<path clip-path="url(#SVGID_2_)" fill="#D63F28" d="M84.638,42.499c0-23.27-18.866-42.137-42.137-42.137
		c-23.278,0-42.138,18.867-42.138,42.137c0,23.273,18.86,42.14,42.138,42.14C65.771,84.639,84.638,65.771,84.638,42.499"/>
	<path clip-path="url(#SVGID_2_)" fill-rule="evenodd" clip-rule="evenodd" fill="#D63F28" d="M30.849,61.877l23.503,0.029
		c0.799-3.754-2.235-9.297-3.88-11.066l-3.855-3.556c-1.108-1.086-2.915-2.368-2.961-4.76c-0.057-3.002,2.983-4.853,4.725-6.481
		c0.732-0.685,1.216-1.24,1.96-1.971c2.664-2.622,4.091-7.018,4.132-11.03l-23.7-0.011c0.083,12.595,10.952,13.813,10.855,19.491
		c-0.057,3.39-3.852,5.138-6.734,8.338C32.453,53.572,30.305,58.317,30.849,61.877 M34.786,31.949l15.643-0.003
		c-0.193,1.353-4.123,4.69-5.227,5.796c-2.673,2.682-2.057,4.351-2.234,8.954c-0.265,6.918,0.302,7.534,4.91,11.851
		c0.777,0.729,2.596,2.116,2.978,2.674l-16.38-0.003c0.244-0.541,4.097-3.538,5.624-5.397c0.755-0.919,1.852-1.996,2.046-3.553
		c0.189-1.529,0.251-4.004,0.183-5.55c-0.214-4.877,0.549-6.036-2.225-8.921C38.238,35.854,36.019,34.389,34.786,31.949"/>
	<path clip-path="url(#SVGID_2_)" fill-rule="evenodd" clip-rule="evenodd" fill="#FFFFFF" d="M39.811,40.437
		c2.021,3.702-0.878,4.994-3.627,7.527c-5.054,4.658-6.152,7.82-6.557,15.009l25.972,0.016c0.015-7.73-2.521-11.759-7.703-16.057
		c-4.946-4.104-3.56-5.571,0.228-9.293c0.718-0.706,1.388-1.119,2.112-1.833c3.328-3.285,5.749-8.208,5.314-13.903l-25.872,0.066
		c-0.218,4.393,1.068,8.212,3.076,11.106C34.821,36.054,39.283,39.208,39.811,40.437 M50.474,50.83
		c1.645,1.77,4.68,7.313,3.881,11.066L30.85,61.867c-0.544-3.559,1.604-8.305,4.046-11.017c2.882-3.202,6.677-4.949,6.734-8.339
		c0.097-5.678-10.773-6.895-10.856-19.492l23.701,0.012c-0.04,4.012-1.468,8.408-4.132,11.029c-0.744,0.733-1.228,1.287-1.96,1.972
		c-1.74,1.628-4.78,3.479-4.724,6.482c0.044,2.391,1.852,3.674,2.96,4.76L50.474,50.83z"/>
	<path clip-path="url(#SVGID_2_)" fill="none" stroke="#FFFFFF" stroke-width="0.77" stroke-miterlimit="22.926" d="M39.811,40.437
		c2.021,3.702-0.878,4.994-3.627,7.527c-5.054,4.658-6.152,7.82-6.557,15.009l25.972,0.016c0.015-7.73-2.521-11.759-7.703-16.057
		c-4.946-4.104-3.56-5.571,0.228-9.293c0.718-0.706,1.388-1.119,2.112-1.833c3.328-3.285,5.749-8.208,5.314-13.903l-25.872,0.066
		c-0.218,4.393,1.068,8.212,3.076,11.106C34.821,36.054,39.283,39.208,39.811,40.437z M50.474,50.83
		c1.645,1.77,4.68,7.313,3.881,11.066L30.85,61.867c-0.544-3.559,1.604-8.305,4.046-11.017c2.882-3.202,6.677-4.949,6.734-8.339
		c0.097-5.678-10.773-6.895-10.856-19.492l23.701,0.012c-0.04,4.012-1.468,8.408-4.132,11.029c-0.744,0.733-1.228,1.287-1.96,1.972
		c-1.74,1.628-4.78,3.479-4.724,6.482c0.044,2.391,1.852,3.674,2.96,4.76L50.474,50.83z"/>
	<path clip-path="url(#SVGID_2_)" fill-rule="evenodd" clip-rule="evenodd" fill="#FFFFFF" d="M34.786,31.949
		c1.233,2.44,3.452,3.906,5.317,5.847c2.774,2.885,2.011,4.044,2.225,8.921c0.068,1.546,0.007,4.021-0.183,5.55
		c-0.194,1.557-1.292,2.634-2.046,3.553c-1.527,1.859-5.38,4.856-5.624,5.397l16.38,0.003c-0.382-0.558-2.2-1.945-2.978-2.674
		c-4.608-4.316-5.175-4.933-4.91-11.851c0.178-4.603-0.438-6.271,2.234-8.954c1.104-1.106,5.033-4.443,5.227-5.796L34.786,31.949z"
		/>
	<path clip-path="url(#SVGID_2_)" fill-rule="evenodd" clip-rule="evenodd" fill="#FFFFFF" d="M25.103,19.247
		c0.036,1.499,0.221,1.202,0.917,1.907c0.615,0.623,0.533,0.995,1.332,1.183l30.505-0.071c0.731-0.306,0.292-0.148,0.695-0.692
		c1.036-1.39,1.221-0.677,1.345-2.32L25.103,19.247z"/>
</g>
</svg>
