<svg id="Layer_1" data-name="Layer 1" xmlns="http://www.w3.org/2000/svg" viewBox="0 0 120.57 113.39"><defs><style>.cls-1{fill:none;}</style></defs><title>biologia</title><path d="M112.25,52a1.89,1.89,0,1,1-1.89-1.89A1.89,1.89,0,0,1,112.25,52Z" transform="translate(-10.58 -14.17)"/><rect class="cls-1" x="6.87" width="113.7" height="113.39"/><path d="M27.78,51.66c.08.23,2,5.68,7.65,5.68a1.55,1.55,0,0,0,0-3.09,5.31,5.31,0,0,1-4.63-3.58,1.55,1.55,0,1,0-2.93,1Z" transform="translate(-10.58 -14.17)"/><path d="M19.2,24.91a6.94,6.94,0,1,0,3.29,13l2.32,2.72a13.89,13.89,0,0,0-.54,17.25L22.4,60a7.73,7.73,0,1,0,2.21,2.09l1.71-1.92C36.76,69.07,52.58,59,48.67,45.69l2.69-2A10,10,0,1,0,46.22,36l-3,2.18A13.91,13.91,0,0,0,27,38.55l-2.24-2.61a6.95,6.95,0,0,0-5.56-11Zm-3.86,7a3.86,3.86,0,1,1,7.37,1.54l-1.54-1.82a1.55,1.55,0,1,0-2.35,2l1.55,1.87a3.85,3.85,0,0,1-5-3.6Zm3.09,39.39a4.64,4.64,0,1,1,1.87-8.87l-1.54,1.67a1.54,1.54,0,0,0,2.31,2l1.41-1.54a4.63,4.63,0,0,1-4.05,6.7Zm17-10.81a10.81,10.81,0,1,1,5.17-20.3A4.63,4.63,0,0,0,46,47.62,10.81,10.81,0,0,1,35.42,60.44ZM56.27,28a7,7,0,1,1-7,7,6.95,6.95,0,0,1,7-7ZM48.91,41.75,44.4,45a1.56,1.56,0,0,1-1.84-2.52l4.63-3.35a10,10,0,0,0,1.72,2.63Z" transform="translate(-10.58 -14.17)"/><path d="M131.15,80.31a39.26,39.26,0,0,0-11.4-27.74c0-.2.06-.4.06-.61a9.45,9.45,0,0,0-18.9,0,9.29,9.29,0,0,0,1.23,4.57l-5,5-12-12-1.33-1.33,21.38-21.39,14.7,14.7a1.9,1.9,0,0,0,1.34.58,1.88,1.88,0,0,0,1.32-3.24l-2.67-2.67,5.35-5.35,2.67,2.67a1.89,1.89,0,0,0,2.67-2.67l-16-16a1.89,1.89,0,0,0-2.67,2.67l2.67,2.67-5.35,5.34-2.67-2.67a1.88,1.88,0,0,0-2.67,0l-24.05,24a1.88,1.88,0,0,0,0,2.67l1.34,1.34-6.68,6.68a1.88,1.88,0,0,0,0,2.67l1.34,1.34-5.35,5.34a1.88,1.88,0,0,0,0,2.67l5.35,5.35a1.88,1.88,0,0,0,2.67,0l5.34-5.35,1.34,1.34a1.88,1.88,0,0,0,2.67,0l3-3a1.87,1.87,0,0,0,.55-1.34,1.93,1.93,0,0,0-.55-1.34,1.85,1.85,0,0,0-1.34-.55,1.93,1.93,0,0,0-1.34.55L86.5,66.83l-8-8,5.34-5.33,12,12a1.88,1.88,0,0,0,2.67,0l6.09-6.09a9.25,9.25,0,0,0,7.71,1.79,28,28,0,0,1,7.49,19.11,28.34,28.34,0,0,1-49.46,18.9h7.88a7.56,7.56,0,0,0,7.56-7.56V89.77a1.89,1.89,0,0,0-1.89-1.89H65.13a5,5,0,1,0-9-3.12,4.94,4.94,0,0,0,1.1,3.12H42.33a1.89,1.89,0,0,0-1.89,1.89v1.89A7.56,7.56,0,0,0,48,99.22H65.51a32.1,32.1,0,1,0,50.43-39.65,9.58,9.58,0,0,0,2.55-2.83,35.5,35.5,0,0,1,8.9,23.58,35.88,35.88,0,0,1-64.08,22.21,1.9,1.9,0,0,0-1.27-.74,1.85,1.85,0,0,0-1.41.39,1.91,1.91,0,0,0-.71,1.28,1.87,1.87,0,0,0,.42,1.4,39.6,39.6,0,0,0,14.24,11.36h-2a5.67,5.67,0,0,0-5.67,5.67v3.78a1.89,1.89,0,0,0,1.89,1.89H82a1.89,1.89,0,0,0,0-3.78H70.67v-1.89A1.89,1.89,0,0,1,72.56,120h37.8a1.89,1.89,0,0,1,1.89,1.89v1.89H89.57a1.89,1.89,0,1,0,0,3.78h24.57a1.89,1.89,0,0,0,1.89-1.89v-3.78a5.67,5.67,0,0,0-5.67-5.67h-2.11A39.72,39.72,0,0,0,131.15,80.31ZM117.23,22.74l5.35,5.35-5.35,5.34-5.34-5.34ZM81.15,66.84l-4,4-2.67-2.67,4-4Zm-20,16a1.88,1.88,0,1,1-1.88,1.88A1.88,1.88,0,0,1,61.2,82.87ZM48,95.43a3.78,3.78,0,0,1-3.78-3.78H82a3.78,3.78,0,0,1-3.78,3.78Zm67.6-41.29A5.67,5.67,0,1,1,114.37,48,5.67,5.67,0,0,1,115.6,54.14Z" transform="translate(-10.58 -14.17)"/></svg>