<svg id="Layer_1" data-name="Layer 1" xmlns="http://www.w3.org/2000/svg" viewBox="0 0 132.05 113.36"><defs><style>.cls-1{fill:#e9e9e9;}</style></defs><title>efisica</title><path class="cls-1" d="M58.8,100.56,79.24,88.31a4.88,4.88,0,0,0,2.37-4.18V80.45h-.35a5.14,5.14,0,0,0-2.67.74L53.3,96.34a2.08,2.08,0,0,0-.58,3.06,4.64,4.64,0,0,0,6.08,1.16Z" transform="translate(-4.84 -14.18)"/><path d="M136.89,54.5V45.33a4.51,4.51,0,0,0-4.5-4.5,5.94,5.94,0,0,1-5.94-5.94V18.74a4.56,4.56,0,0,0-4.56-4.56h-5.5a4.56,4.56,0,0,0-4.56,4.56V28.2A10.76,10.76,0,0,1,101.4,39a10.6,10.6,0,0,1-10.79-10.6V18.75a4.56,4.56,0,0,0-4.56-4.56h-5.5A4.56,4.56,0,0,0,76,18.75v5.83a1.93,1.93,0,1,0,3.86,0V18.75a.69.69,0,0,1,.69-.69H86a.69.69,0,0,1,.69.69v9.66a14.48,14.48,0,0,0,14.73,14.47A14.65,14.65,0,0,0,115.69,28.2V18.74a.69.69,0,0,1,.69-.69h5.5a.69.69,0,0,1,.69.69V34.89a9.8,9.8,0,0,0,9.81,9.81.63.63,0,0,1,.63.63v8l-31.8,15.26L69.41,53.32v-8a.63.63,0,0,1,.19-.45A.6.6,0,0,1,70,44.7a9.82,9.82,0,0,0,9.81-9.81V32.3a1.93,1.93,0,0,0-3.86,0v2.59a6,6,0,0,1-5.94,5.94,4.51,4.51,0,0,0-4.5,4.5V86.74l-9.95,6A9.39,9.39,0,0,0,51,91.46H39.43V58.05H51a9.3,9.3,0,1,0,0-18.6h-2V37.34a7.6,7.6,0,0,0-7.59-7.59H39.43V26a4,4,0,0,0-4-4H29.68a4,4,0,0,0-4,4v3.79H23.76a7.6,7.6,0,0,0-7.59,7.59v2.11h-2a9.54,9.54,0,0,0-2.5.34,1.93,1.93,0,1,0,1,3.72,5.47,5.47,0,0,1,1.46-.2H51a5.43,5.43,0,1,1,0,10.86H14.14a5.44,5.44,0,0,1-5.43-5.43,5.62,5.62,0,0,1,.08-.92A1.93,1.93,0,1,0,5,47.17a9,9,0,0,0-.13,1.56,9.31,9.31,0,0,0,9.3,9.3H25.69V91.45H14.14a9.3,9.3,0,1,0,0,18.6h2v2.11a7.6,7.6,0,0,0,7.59,7.59h1.92v3.79a4,4,0,0,0,4,4h5.75a4,4,0,0,0,4-4v-3.79h.08a14.21,14.21,0,0,0,1.32,1.49,13.38,13.38,0,0,0,9.4,3.83H120a7.4,7.4,0,0,0,7.39-7.39V106.22h1a8.52,8.52,0,0,0,8.51-8.51V54.5ZM29.55,26a.13.13,0,0,1,.13-.13h5.75a.13.13,0,0,1,.13.13v3.79h-6ZM20,39.46V37.35a3.73,3.73,0,0,1,3.72-3.72h17.6a3.73,3.73,0,0,1,3.72,3.72v2.11ZM86,82.37a2.08,2.08,0,0,1,1.94,1.36,15.71,15.71,0,0,0,29.65-.29A1.57,1.57,0,0,1,119,82.38h1.2a3.26,3.26,0,0,1,3.25,3.25V110H96.7l-6.35-9.09a1.93,1.93,0,0,0-3.17,2.21L92,110H87.34L75.4,92.87l3.27-2,4.09,5.86a1.94,1.94,0,0,0,1.59.83,1.87,1.87,0,0,0,1.1-.35,1.93,1.93,0,0,0,.48-2.69l-4.12-5.9a6.87,6.87,0,0,0,1.73-4.53V82.38H86ZM78.12,110,68.89,96.76l3.18-1.9L82.63,110Zm-9.36,0-6.47-9.27,3.27-2L73.4,110Zm-17.92-9.92a4.21,4.21,0,0,0,.34.52,6.57,6.57,0,0,0,5.23,2.57,6.46,6.46,0,0,0,2.51-.5L64,110H40.77a9.68,9.68,0,0,1,4.52-6.6ZM79.68,82.79v1.34a3,3,0,0,1-1.4,2.51l-.1.06-6.49,3.89-.1.06-6.44,3.86,0,0-7.3,4.38a2.72,2.72,0,0,1-3.56-.68.14.14,0,0,1,0-.12.17.17,0,0,1,.06-.1l2.22-1.33.08-.05,23-13.8.08,0ZM29.55,58.05h6V91.47h-6ZM20,112.18v-2.11H31a1.93,1.93,0,1,0,0-3.86H14.14a5.43,5.43,0,0,1-5.43-5.43,5.44,5.44,0,0,1,5.43-5.43H51.2l-7.9,4.73a13.52,13.52,0,0,0-6.54,11.55,13.36,13.36,0,0,0,.52,3.71.43.43,0,0,1,0,0s0,0,0,0l.15.49H23.75A3.74,3.74,0,0,1,20,112.18Zm15.53,11.38a.13.13,0,0,1-.13.13H29.68a.13.13,0,0,1-.13-.13v-3.79h6Zm87.93-5.86a3.53,3.53,0,0,1-3.52,3.52H50a9.62,9.62,0,0,1-9.08-7.36h82.58v3.84Zm4.9-15.32h-1V85.62a7.12,7.12,0,0,0-7.12-7.12H119a5.43,5.43,0,0,0-5.15,3.69,11.84,11.84,0,0,1-22.35.22A6,6,0,0,0,86,78.5c-4.31.11-6-.42-8.36,1l-8.18,4.9V57.61l31,14.86a2,2,0,0,0,1.68,0l31-14.86V97.74a4.69,4.69,0,0,1-4.66,4.64Z" transform="translate(-4.84 -14.18)"/><path d="M99.2,48.26H97.9a1.93,1.93,0,0,0,0,3.86h.41v6.69h-.24a1.93,1.93,0,1,0,0,3.86h4.34a1.93,1.93,0,1,0,0-3.86h-.24V51.23a3,3,0,0,0-3-3Z" transform="translate(-4.84 -14.18)"/></svg>