<?xml version="1.0" encoding="UTF-8" standalone="no"?>
<svg
   id="Layer_1"
   data-name="Layer 1"
   viewBox="0 0 125 113"
   version="1.1"
   sodipodi:docname="filosofia.svg"
   width="125"
   height="113"
   inkscape:version="1.2 (1:1.2.1+202207142221+cd75a1ee6d)"
   xmlns:inkscape="http://www.inkscape.org/namespaces/inkscape"
   xmlns:sodipodi="http://sodipodi.sourceforge.net/DTD/sodipodi-0.dtd"
   xmlns="http://www.w3.org/2000/svg"
   xmlns:svg="http://www.w3.org/2000/svg"
   xmlns:rdf="http://www.w3.org/1999/02/22-rdf-syntax-ns#"
   xmlns:cc="http://creativecommons.org/ns#"
   xmlns:dc="http://purl.org/dc/elements/1.1/">
  <sodipodi:namedview
     id="namedview553"
     pagecolor="#ffffff"
     bordercolor="#000000"
     borderopacity="0.25"
     inkscape:showpageshadow="2"
     inkscape:pageopacity="0.0"
     inkscape:pagecheckerboard="0"
     inkscape:deskcolor="#d1d1d1"
     showgrid="false"
     inkscape:zoom="4.3768418"
     inkscape:cx="57.575761"
     inkscape:cy="21.248198"
     inkscape:window-width="1366"
     inkscape:window-height="671"
     inkscape:window-x="0"
     inkscape:window-y="27"
     inkscape:window-maximized="1"
     inkscape:current-layer="Layer_1" />
  <defs
     id="defs532">
    <style
       id="style530">.cls-1{fill:#010101;stroke:#000;stroke-miterlimit:10;stroke-width:2px;}</style>
  </defs>
  <title
     id="title534">filosofia</title>
  <path
     class="cls-1"
     d="m 55.775739,49.005663 a 7.1501619,6.428977 0 1 0 -7.150161,6.428978 7.1501619,6.428977 0 0 0 7.150161,-6.428978 z m -7.150161,3.21449 a 3.575081,3.2144885 0 1 1 3.575081,-3.21449 3.575081,3.2144885 0 0 1 -3.575081,3.21449 z"
     id="path536" />
  <path
     class="cls-1"
     d="m 18.237389,68.292595 h 8.966076 a 1.7875405,1.6072443 0 0 0 1.787541,-1.607244 v 0 A 1.7875405,1.6072443 0 0 0 27.203465,65.078106 H 20.772103 C 23.609468,58.028342 32.443135,35.807552 34.504954,32.040307 A 36.583104,32.893232 0 0 1 70.123353,13.739834 c 1.097115,0.06803 2.184772,0.187086 3.262971,0.348661 a 1.7875405,1.6072443 0 0 0 2.052361,-1.250079 v 0 a 1.7875405,1.6072443 0 0 0 -1.456514,-1.92189 C 72.799935,10.737943 71.598783,10.610384 70.397631,10.53385 A 40.158185,36.10772 0 0 0 31.29873,30.628654 C 28.754559,35.2633 17.045696,64.899523 16.544428,66.158107 a 1.7780826,1.5987403 0 0 0 1.106572,2.040944 2.1847717,1.9644097 0 0 0 0.586389,0.09354 z"
     id="path538" />
  <path
     class="cls-1"
     d="m 48.625578,91.006613 v 8.036221 a 1.7875405,1.6072443 0 0 0 1.78754,1.607246 h 44.679055 a 1.7875405,1.6072443 0 0 0 1.78754,-1.607246 v -2.551181 a 115.09301,103.48442 0 0 1 8.095947,-36.796539 c 0.27428,-0.654803 0.52965,-1.309607 0.76609,-1.981418 a 1.7875405,1.6072443 0 0 0 -1.24844,-2.032441 v 0 a 1.7780826,1.5987403 0 0 0 -2.1564,1.062992 c -0.21753,0.60378 -0.44452,1.20756 -0.69988,1.802835 a 118.56406,106.60536 0 0 0 -8.332398,37.944571 v 0.977953 H 52.200659 v -6.428978 h 7.15962 a 8.9849919,8.0787409 0 0 0 8.597219,-5.825197 l 5.173463,-16.293545 a 1.7780826,1.5987403 0 0 0 -1.229526,-1.981417 v 0 A 1.7875405,1.6072443 0 0 0 69.68829,68.04598 l -5.211295,16.225514 a 5.3815373,4.8387406 0 0 1 -5.116716,3.529134 H 43.281872 a 1.7875405,1.6072443 0 0 0 -1.806457,1.573229 v 0 a 1.7875405,1.6072443 0 0 0 1.806457,1.64126 h 5.362621 z"
     id="path540" />
  <path
     class="cls-1"
     d="M 9.2996868,106.85796 H 31.648672 a 6.2516628,5.6211029 0 0 0 4.369543,-9.643472 6.242205,5.612599 0 0 0 0.104033,-7.942678 1.0781991,0.96944891 0 0 0 -0.104033,-0.09354 6.2516628,5.6211029 0 0 0 1.276816,-6.428977 h 1.494345 a 6.2516628,5.6211029 0 0 0 0,-11.242205 H 16.449848 a 8.9471604,8.0447252 0 0 0 -8.9377017,8.03622 v 25.715902 a 1.7875405,1.6072443 0 0 0 1.7875405,1.59875 z M 11.125059,79.5348 a 5.3626215,4.8217328 0 0 1 5.362622,-4.821732 h 22.301695 a 2.6765818,2.4066145 0 0 1 0,4.813229 H 21.81247 a 1.7875405,1.6072443 0 1 0 0,3.214488 h 9.836202 a 2.6765821,2.4066148 0 1 1 0,4.813229 H 21.81247 a 1.7875407,1.6072445 0 1 0 0,3.214489 h 9.836202 a 2.6765818,2.4066145 0 1 1 0,4.813228 H 21.81247 a 1.7875409,1.6072446 0 1 0 0,3.214489 h 9.836202 a 2.6765824,2.406615 0 1 1 0,4.81323 H 11.125059 Z"
     id="path542" />
  <path
     class="cls-1"
     d="m 66.273994,22.490385 a 11.472416,10.315277 0 0 0 1.38085,12.050081 11.472416,10.315277 0 0 0 -1.38085,12.05008 11.737237,10.553387 0 0 0 12.427662,4.949291 11.642658,10.468348 0 0 0 22.046334,0 11.718322,10.536379 0 0 0 12.42766,-4.949291 11.472416,10.315277 0 0 0 -1.38085,-12.05008 11.472416,10.315277 0 0 0 1.38085,-12.050081 11.737237,10.553387 0 0 0 -12.42766,-4.949292 11.642658,10.468348 0 0 0 -22.046334,0 11.718322,10.536379 0 0 0 -12.427662,4.949292 z m 13.061341,-1.445669 a 1.7780826,1.5987403 0 0 0 2.317181,-0.901417 1.9766983,1.7773231 0 0 0 0.104033,-0.365669 8.058119,7.2453551 0 0 1 15.927082,0 1.7875405,1.6072443 0 0 0 2.023987,1.360629 1.9766983,1.7773231 0 0 0 0.406692,-0.09354 8.1337821,7.3133866 0 0 1 9.97807,3.052913 7.897335,7.1007881 0 0 1 -2.00507,9.150238 1.7780826,1.5987403 0 0 0 -0.32157,2.253544 1.7213353,1.5477167 0 0 0 0.32157,0.289133 7.9067929,7.109292 0 0 1 2.00507,9.184253 8.1243243,7.3048826 0 0 1 -9.97807,3.052914 1.7780826,1.5987403 0 0 0 -2.317185,0.901418 1.9766983,1.7773231 0 0 0 -0.104034,0.365669 8.058119,7.2453551 0 0 1 -15.92708,0 1.7875405,1.6072443 0 0 0 -1.768625,-1.377638 1.9577824,1.7603151 0 0 0 -0.662051,0.110551 8.14324,7.3218904 0 0 1 -9.987528,-3.052914 7.897335,7.1007881 0 0 1 2.005072,-9.175749 1.7780826,1.5987403 0 0 0 0.302652,-2.219528 1.7213353,1.5477167 0 0 0 -0.321569,-0.289133 7.9067929,7.109292 0 0 1 -2.005071,-9.192758 8.152698,7.3303944 0 0 1 10.006444,-3.052913 z"
     id="path544" />
  <rect
     x="96.047417"
     y="32.082829"
     width="5.4666581"
     height="4.9152765"
     id="rect546"
     style="stroke-width:0.896824" />
  <rect
     x="87.005684"
     y="32.082829"
     width="5.4666581"
     height="4.9152765"
     id="rect548"
     style="stroke-width:0.896824" />
  <rect
     x="77.963943"
     y="32.082829"
     width="5.4666581"
     height="4.9152765"
     id="rect550"
     style="stroke-width:0.896824" />
  <metadata
     id="metadata555">
    <rdf:RDF>
      <cc:Work
         rdf:about="">
        <dc:title>filosofia</dc:title>
      </cc:Work>
    </rdf:RDF>
  </metadata>
</svg>
