<svg id="Layer_1" data-name="Layer 1" xmlns="http://www.w3.org/2000/svg" xmlns:xlink="http://www.w3.org/1999/xlink" viewBox="0 0 114.39 114.38"><defs><style>.cls-1{fill:none;}.cls-2{fill:#fee55b;}.cls-2,.cls-4{stroke:#000;stroke-miterlimit:10;}.cls-3{clip-path:url(#clip-path);}.cls-4{fill:#231f20;}</style><clipPath id="clip-path" transform="translate(-13.67 -13.66)"><rect class="cls-1" x="8.88" y="9.46" width="122.26" height="122.21"/></clipPath></defs><title>geografia</title><path class="cls-2" d="M63.6,46.51H61.92a1.6,1.6,0,0,1,0-3.19H63.6a1.6,1.6,0,1,1,0,3.19Z" transform="translate(-13.67 -13.66)"/><g class="cls-3"><path class="cls-4" d="M126.41,82.47a58.52,58.52,0,0,0,1.06-14.71,56.35,56.35,0,0,0-26.93-45.18.09.09,0,0,1-.09-.09,56.7,56.7,0,1,0,25.86,60.05l.1-.07ZM100.81,26.4a53.69,53.69,0,0,1,22.94,35.79c.09.44.09.89.18,1.24L113.39,53a1.62,1.62,0,0,0-1.06-.44h-9.74l-7.26-7.26V30.56L100,25.87a3.06,3.06,0,0,0,.79.53ZM43.05,25.07a49.62,49.62,0,0,1,9.74-4.61l-7.35,7.35H39.06c1.33-1,2.66-1.94,4-2.74ZM27.73,40.13a1.42,1.42,0,0,0,1.06,1.24l9.74,3.37,2.84,6a1.53,1.53,0,0,0,1.15.89l5.58,1.06a1.82,1.82,0,0,0,1.33-.35l2.84-2.66h3.54a9.48,9.48,0,0,0,2.3,2.3,37.38,37.38,0,0,0,3,6.64,2,2,0,0,0,1.59,1.15c1.15,0,1.68-1.24,2.13-2.13a31,31,0,0,0,1.86-3.9l2.3,2.3a1.62,1.62,0,0,0,1.06.44h3.19L77.77,61l.27.27,13.38,8.33v2.13l-4.34,4.34a1.62,1.62,0,0,0-.44,1.06v4.61L76.9,87.87a1.58,1.58,0,0,0-.71,1.33v2.92l-6.55,6.55-10.28,4.7a2,2,0,0,0-.8.89l-2.84,8H55.1l-1.24-3.72,3-26.13a1.5,1.5,0,0,0-.8-1.51L49.78,77.5l-5.31-10,3.72-10.19a1.51,1.51,0,0,0-.89-2c-.09,0-.09,0-.18-.09l-8-1.77-3.1-6.82a1.57,1.57,0,0,0-.89-.8l-7-2.74L26,41.81l.53-.8c.35-.53.8-1.06,1.15-1.68Zm37.64,9.39c-.71.44-.8,1-1.06,1.77A31.34,31.34,0,0,1,62.71,55a18.81,18.81,0,0,1-1.51-3.63,3.07,3.07,0,0,0-.89-1.68A13.7,13.7,0,0,1,59,48.64a6.63,6.63,0,0,1-.89-1.24,5.21,5.21,0,1,1,7.28,2.12Zm5.5,74.94A53.53,53.53,0,0,1,17.28,71a52.77,52.77,0,0,1,7.09-26.57l2.3,1.42a.33.33,0,0,0,.27.09l6.55,2.57,3.1,7a1.55,1.55,0,0,0,1.06.89L44.74,58l-3.37,9.12a1.48,1.48,0,0,0,.09,1.24l5.85,11.07a1.37,1.37,0,0,0,.62.62l5.76,3.1-2.92,25.42a1.93,1.93,0,0,0,.09.71l1.77,5.14a1.55,1.55,0,0,0,1.51,1.06H57a1.52,1.52,0,0,0,1.42-1.06l3-8.33,10-4.7c.18-.09.27-.18.44-.27L79,93.89a1.62,1.62,0,0,0,.44-1.06V90.09L89.21,84a1.58,1.58,0,0,0,.71-1.33V77.87l4.34-4.34a1.62,1.62,0,0,0,.44-1.06V68.84A1.58,1.58,0,0,0,94,67.51L80,58.83,75.12,54a1.62,1.62,0,0,0-1.06-.44H70.87l-2.3-2.3A8.33,8.33,0,1,0,57.14,39.09a7.52,7.52,0,0,0-2.57,7.44H51.65a1.65,1.65,0,0,0-1.06.44l-2.75,2.48-4-.71L41.1,42.89a1.58,1.58,0,0,0-.89-.8l-9.48-3.28L30.37,36a42.89,42.89,0,0,1,4.43-4.52l1.06-.53H46.05a1.48,1.48,0,0,0,1.06-.44L59,18.6a53.17,53.17,0,0,1,38.18,5.58l-4.61,4.61a1.62,1.62,0,0,0-.44,1.06V45.8a1.48,1.48,0,0,0,.44,1.06L100.72,55a1.62,1.62,0,0,0,1.06.44h9.74l11.34,11.34v15a2.07,2.07,0,0,0,.18.71,53.44,53.44,0,0,1-52.17,42Z" transform="translate(-13.67 -13.66)"/></g><path class="cls-4" d="M63.6,43.41H61.92a1.6,1.6,0,0,0,0,3.19H63.6a1.6,1.6,0,1,0,0-3.19Z" transform="translate(-13.67 -13.66)"/></svg>