<svg id="Layer_1" data-name="Layer 1" xmlns="http://www.w3.org/2000/svg" viewBox="0 0 113.39 113.37"><title>historia</title><path d="M115.6,98.57V50.42a2.22,2.22,0,0,0-.91-1.79l-5.47-4,4.3-2.69a2.21,2.21,0,0,0,.16-3.64l-4-3V33.89h3.69a2.21,2.21,0,0,0,2.21-2.21V27.25a13.09,13.09,0,0,0-13.07-13.07H26.81A11.45,11.45,0,0,0,17.69,19a18.07,18.07,0,0,0-3.51,11c0,7.4,4.84,13.42,10.8,13.42H37.23v35.1a2.22,2.22,0,0,0,1,1.86l4.34,2.81L38,87.3A2.21,2.21,0,0,0,37.23,89v19.19a2,2,0,0,0,0,.35,2.07,2.07,0,0,0,0,.35c0,5.63,1.45,10.38,4.21,13.71a13.58,13.58,0,0,0,10.64,5H113a14.61,14.61,0,0,0,2.65-29ZM32.35,39a8.9,8.9,0,0,0,1-4.17c0-5.11-3.31-8.67-8-8.67a2.21,2.21,0,0,0,0,4.42c2.26,0,3.61,1.59,3.61,4.24A4,4,0,0,1,25,39c-3.45,0-6.37-4.12-6.37-9,0-6.28,3.68-11.38,8.2-11.38a9.21,9.21,0,0,1,7.27,2.89c2.09,2.36,3.15,6.2,3.15,11.39V39H32.35Zm12.5,80.76c-2.09-2.53-3.19-6.3-3.19-10.9a2.06,2.06,0,0,1,0-.7V89.94l6-5.39A2.22,2.22,0,0,0,47.42,81L41.66,77.3V32.89c0-6.28-1.42-11.09-4.22-14.28h65.1a8.65,8.65,0,0,1,8.64,8.64v2.21h-3.69a2.21,2.21,0,0,0-2.21,2.21v4.72a2.24,2.24,0,0,0,.88,1.77l2.31,1.75-4.36,2.73a2.22,2.22,0,0,0-.13,3.67l7.21,5.24V98.33H54.89a1.66,1.66,0,0,0-.32,0c-.21,0-.43,0-.64,0a8.41,8.41,0,0,0-8.4,8.6c0,5.11,3.31,8.67,8,8.67a2.21,2.21,0,1,0,0-4.42c-2.26,0-3.61-1.59-3.61-4.24a4,4,0,0,1,4-4.17c3.45,0,6.37,4.12,6.37,9,0,6.28-3.68,11.38-8.2,11.38a9.11,9.11,0,0,1-7.25-3.4Zm68.09,3.39H60.85l.34-.42a17.89,17.89,0,0,0,3.49-10.21H99.21a2.21,2.21,0,0,0,0-4.42H64.28a14.6,14.6,0,0,0-2.37-5.31h51a10.18,10.18,0,1,1,0,20.36Z" transform="translate(-14.18 -14.18)"/><path d="M56.11,35.88a2.27,2.27,0,0,0,1.57-.65,2.23,2.23,0,0,0,.65-1.57,2.27,2.27,0,0,0-.65-1.57,2.23,2.23,0,0,0-1.57-.65,2.27,2.27,0,0,0-1.57.65,2.23,2.23,0,0,0-.65,1.57,2.27,2.27,0,0,0,.65,1.57,2.23,2.23,0,0,0,1.57.65Z" transform="translate(-14.18 -14.18)"/><path d="M65.55,35.88h32a2.21,2.21,0,1,0,0-4.42h-32a2.21,2.21,0,1,0,0,4.42Z" transform="translate(-14.18 -14.18)"/><path d="M56.11,48.28H97.52a2.21,2.21,0,1,0,0-4.42H56.11a2.21,2.21,0,1,0,0,4.42Z" transform="translate(-14.18 -14.18)"/><path d="M56.11,60.68H97.52a2.21,2.21,0,1,0,0-4.42H56.11a2.21,2.21,0,0,0,0,4.42Z" transform="translate(-14.18 -14.18)"/><path d="M56.11,73.08H97.52a2.21,2.21,0,0,0,0-4.42H56.11a2.21,2.21,0,0,0,0,4.42Z" transform="translate(-14.18 -14.18)"/><path d="M56.11,85.48H97.52a2.21,2.21,0,1,0,0-4.42H56.11a2.21,2.21,0,1,0,0,4.42Z" transform="translate(-14.18 -14.18)"/><path d="M107.82,108.07a2.27,2.27,0,0,0-1.57.65,2.23,2.23,0,0,0-.65,1.57,2.27,2.27,0,0,0,.65,1.57,2.23,2.23,0,0,0,1.57.65,2.27,2.27,0,0,0,1.57-.65,2.23,2.23,0,0,0,.65-1.57,2.22,2.22,0,0,0-2.22-2.22Z" transform="translate(-14.18 -14.18)"/></svg>