<?xml version="1.0" encoding="UTF-8" standalone="no"?>
<!-- Generator: Adobe Illustrator 19.0.0, SVG Export Plug-In . SVG Version: 6.00 Build 0)  -->

<svg
   version="1.1"
   id="Capa_1"
   x="0px"
   y="0px"
   viewBox="0 0 125 113"
   xml:space="preserve"
   sodipodi:docname="science-svgrepo-com (1).svg"
   width="125"
   height="113"
   inkscape:version="1.2 (1:1.2.1+202207142221+cd75a1ee6d)"
   xmlns:inkscape="http://www.inkscape.org/namespaces/inkscape"
   xmlns:sodipodi="http://sodipodi.sourceforge.net/DTD/sodipodi-0.dtd"
   xmlns="http://www.w3.org/2000/svg"
   xmlns:svg="http://www.w3.org/2000/svg"><defs
   id="defs43" /><sodipodi:namedview
   id="namedview41"
   pagecolor="#ffffff"
   bordercolor="#000000"
   borderopacity="0.25"
   inkscape:showpageshadow="2"
   inkscape:pageopacity="0.0"
   inkscape:pagecheckerboard="0"
   inkscape:deskcolor="#d1d1d1"
   showgrid="false"
   inkscape:zoom="1.0306122"
   inkscape:cx="245"
   inkscape:cy="166.89109"
   inkscape:window-width="1366"
   inkscape:window-height="671"
   inkscape:window-x="0"
   inkscape:window-y="27"
   inkscape:window-maximized="1"
   inkscape:current-layer="Capa_1" />
<g
   id="g8"
   transform="matrix(0.21675276,0,0,0.18526485,8.5006126,12.454335)">
	<path
   d="M 195.234,357.719 260.313,245 195.235,132.281 H 65.078 L 0,245 65.078,357.719 Z M 82.76,162.906 h 94.794 L 224.95,245 177.554,327.094 H 82.76 L 35.362,245 Z"
   id="path2" />
	<path
   d="m 294.766,0 -65.078,112.718 65.078,112.718 H 424.922 L 490,112.718 424.922,0 Z M 407.241,194.812 H 312.447 L 265.05,112.719 312.447,30.626 h 94.794 l 47.396,82.093 z"
   id="path4" />
	<path
   d="M 294.766,264.563 229.688,377.281 294.766,490 H 424.922 L 490,377.281 424.922,264.563 Z m 112.475,194.812 h -94.794 l -47.397,-82.094 47.397,-82.093 h 94.794 l 47.396,82.093 z"
   id="path6" />
</g>
<g
   id="g10"
   transform="matrix(0.21675276,0,0,0.18526485,8.5006126,12.454335)">
</g>
<g
   id="g12"
   transform="matrix(0.21675276,0,0,0.18526485,8.5006126,12.454335)">
</g>
<g
   id="g14"
   transform="matrix(0.21675276,0,0,0.18526485,8.5006126,12.454335)">
</g>
<g
   id="g16"
   transform="matrix(0.21675276,0,0,0.18526485,8.5006126,12.454335)">
</g>
<g
   id="g18"
   transform="matrix(0.21675276,0,0,0.18526485,8.5006126,12.454335)">
</g>
<g
   id="g20"
   transform="matrix(0.21675276,0,0,0.18526485,8.5006126,12.454335)">
</g>
<g
   id="g22"
   transform="matrix(0.21675276,0,0,0.18526485,8.5006126,12.454335)">
</g>
<g
   id="g24"
   transform="matrix(0.21675276,0,0,0.18526485,8.5006126,12.454335)">
</g>
<g
   id="g26"
   transform="matrix(0.21675276,0,0,0.18526485,8.5006126,12.454335)">
</g>
<g
   id="g28"
   transform="matrix(0.21675276,0,0,0.18526485,8.5006126,12.454335)">
</g>
<g
   id="g30"
   transform="matrix(0.21675276,0,0,0.18526485,8.5006126,12.454335)">
</g>
<g
   id="g32"
   transform="matrix(0.21675276,0,0,0.18526485,8.5006126,12.454335)">
</g>
<g
   id="g34"
   transform="matrix(0.21675276,0,0,0.18526485,8.5006126,12.454335)">
</g>
<g
   id="g36"
   transform="matrix(0.21675276,0,0,0.18526485,8.5006126,12.454335)">
</g>
<g
   id="g38"
   transform="matrix(0.21675276,0,0,0.18526485,8.5006126,12.454335)">
</g>
</svg>
