<?xml version="1.0" encoding="UTF-8" standalone="no"?>
<svg
   id="Layer_1"
   data-name="Layer 1"
   viewBox="0 0 125 113"
   version="1.1"
   sodipodi:docname="lingua-portuguesa.svg"
   width="125"
   height="113"
   inkscape:version="1.2 (1:1.2.1+202207142221+cd75a1ee6d)"
   xmlns:inkscape="http://www.inkscape.org/namespaces/inkscape"
   xmlns:sodipodi="http://sodipodi.sourceforge.net/DTD/sodipodi-0.dtd"
   xmlns="http://www.w3.org/2000/svg"
   xmlns:svg="http://www.w3.org/2000/svg"
   xmlns:rdf="http://www.w3.org/1999/02/22-rdf-syntax-ns#"
   xmlns:cc="http://creativecommons.org/ns#"
   xmlns:dc="http://purl.org/dc/elements/1.1/">
  <sodipodi:namedview
     id="namedview795"
     pagecolor="#ffffff"
     bordercolor="#000000"
     borderopacity="0.25"
     inkscape:showpageshadow="2"
     inkscape:pageopacity="0.0"
     inkscape:pagecheckerboard="0"
     inkscape:deskcolor="#d1d1d1"
     showgrid="false"
     inkscape:zoom="2.2272206"
     inkscape:cx="53.878813"
     inkscape:cy="56.572754"
     inkscape:window-width="1366"
     inkscape:window-height="671"
     inkscape:window-x="0"
     inkscape:window-y="27"
     inkscape:window-maximized="1"
     inkscape:current-layer="Layer_1" />
  <defs
     id="defs778">
    <style
       id="style776">.cls-1{fill:#201113;}</style>
  </defs>
  <title
     id="title780">Lportuguesa</title>
  <path
     class="cls-1"
     d="m 43.77984,58.825968 a 4.2974462,3.5606781 0 0 0 5.532962,1.99398 L 89.977387,47.458503 A 4.2974462,3.5606781 0 0 0 92.383956,42.87413 L 76.268533,8.9586717 A 4.469344,3.7031053 0 0 0 70.735571,6.964692 L 29.81314,20.326136 A 4.2974462,3.5606781 0 0 0 27.40657,24.91051 Z M 72.390088,10.952651 88.043536,43.888923 48.292159,56.858693 32.649455,23.922421 Z"
     id="path782"
     style="stroke-width:0.977943" />
  <path
     class="cls-1"
     d="M 53.126786,64.211494 H 9.3143221 a 4.2974462,3.5606781 0 0 0 -4.2974462,3.560678 v 36.301108 a 4.2974462,3.5606781 0 0 0 4.2974462,3.56068 H 53.126786 a 4.2974462,3.5606781 0 0 0 4.297446,-3.56068 V 67.798877 A 4.2974462,3.5606781 0 0 0 53.126786,64.211494 Z M 52.643323,103.70831 H 9.7977848 V 68.199453 H 52.654067 v 35.508857 z"
     id="path784"
     style="stroke-width:0.977943" />
  <path
     class="cls-1"
     d="m 117.91078,64.006754 -42.3943,-9.328976 a 4.3941387,3.6407934 0 0 0 -5.296602,2.590394 L 58.906851,92.331949 a 4.2974462,3.5606781 0 0 0 3.137136,4.388534 v 0 l 42.372813,9.373487 a 4.2974462,3.5606781 0 0 0 5.2966,-2.5904 v 0 l 11.07667,-35.108279 a 4.2974462,3.5606781 0 0 0 -2.87929,-4.388537 z M 105.15811,101.91017 63.730734,92.955068 74.807402,58.630131 116.21329,67.807779 Z"
     id="path786"
     style="stroke-width:0.977943" />
  <path
     class="cls-1"
     d="m 52.890426,44.058056 c 0,0.400575 0,0.596413 0.23636,0.801152 a 2.8255709,2.3411459 0 0 0 1.203285,0.99699 2.6751602,2.2165221 0 0 0 1.923107,0 2.8255709,2.3411459 0 0 0 1.203285,-0.970285 11.936157,9.8897831 0 0 0 0.290077,-2.421261 v -2.795133 l 9.669254,-2.990969 2.148723,1.99398 0.966926,0.801153 c 0.236359,0.195836 0.719822,0.400576 0.966925,0.596413 0.247103,0.195837 0.483463,0.195837 0.966925,0.195837 a 1.4933625,1.2373357 0 0 0 0.966926,-0.195837 2.8255709,2.3411459 0 0 0 1.203285,-0.99699 2.1487231,1.7803391 0 0 0 0,-1.397566 7.6494542,6.338007 0 0 0 -1.686748,-1.780339 L 60.840702,25.302183 59.401057,24.109356 a 2.4065699,1.9939798 0 0 0 -1.203285,-0.801152 3.3627516,2.7862306 0 0 0 -1.439644,-0.400577 5.7908087,4.7980137 0 0 0 -3.373495,0.996991 l -0.719823,1.192827 a 5.3718077,4.4508477 0 0 0 -0.236359,1.593404 v 16.156576 c 0.214872,0.418379 0.214872,0.818956 0.461975,1.210631 z M 64.19271,34.088157 57.20936,36.277974 56.973,27.305066 Z"
     id="path788"
     style="stroke-width:0.977943" />
  <path
     class="cls-1"
     d="m 24.441333,95.331818 h 7.703172 c 1.203285,0 2.148723,-0.195835 3.373495,-0.195835 a 5.3718077,4.4508477 0 0 0 2.642929,-0.596414 7.0478117,5.839512 0 0 0 2.890033,-1.99398 7.2949149,6.044251 0 0 0 1.246259,-3.151199 5.9519629,4.9315392 0 0 0 -5.060242,-4.98495 5.9412193,4.9226375 0 0 0 3.856957,-4.628881 6.8329394,5.6614781 0 0 0 -0.236359,-1.780339 7.0263245,5.8217087 0 0 0 -0.966925,-1.593404 l -1.482619,-1.21063 a 7.2411968,5.9997426 0 0 0 -2.40657,-0.801153 13.9667,11.572203 0 0 0 -3.126392,-0.195838 h -8.38002 a 4.0395994,3.3470374 0 0 0 -2.40657,0.596414 4.0395994,3.3470374 0 0 0 -0.719822,1.99398 v 15.560163 a 4.0395994,3.3470374 0 0 0 0.719822,1.99398 c 0.709078,0.988086 1.428901,1.183923 2.352852,0.988086 z m 1.966081,-17.509633 h 4.093318 a 11.227078,9.3022715 0 0 1 4.093317,0.596414 2.6321858,2.1809153 0 0 1 1.439645,1.99398 4.3619079,3.6140883 0 0 1 -0.483463,1.397566 2.5354932,2.1008001 0 0 1 -1.686748,1.192827 12.322927,10.210244 0 0 1 -2.890032,0.400577 h -4.57678 v -5.581364 z m 0,8.376496 h 5.296603 a 7.8428392,6.4982375 0 0 1 4.093317,0.801153 2.5677241,2.1275052 0 0 1 1.203285,2.189816 q 0,2.99097 -5.060243,2.99097 h -5.532962 z"
     id="path790"
     style="stroke-width:0.977943" />
  <path
     class="cls-1"
     d="m 79.856901,85.157183 a 6.843683,5.6703799 0 0 0 1.923107,2.189816 10.840308,8.9818105 0 0 0 2.642929,1.593404 13.741084,11.385268 0 0 0 3.405727,0.99699 14.74024,12.213126 0 0 0 4.57678,0.400576 9.4866124,7.8601969 0 0 0 3.609854,-1.192827 6.7684777,5.608068 0 0 0 2.40657,-1.780339 7.3378893,6.0798578 0 0 0 1.20328,-1.99398 2.1487231,1.7803391 0 0 0 -0.23636,-1.397566 1.5900551,1.3174509 0 0 0 -1.203279,-0.801153 2.1487231,1.7803391 0 0 0 -1.686748,0.195838 c -0.483463,0.400576 -0.966925,0.596414 -1.203285,1.192827 a 6.0593991,5.0205561 0 0 1 -6.98335,1.99398 7.3808638,6.1154646 0 0 1 -3.126392,-1.192828 6.0808863,5.0383595 0 0 1 -1.439644,-2.795132 10.657666,8.8304817 0 0 1 0.483462,-3.987959 11.141129,9.2310579 0 0 1 3.599112,-5.207492 5.6833726,4.7089968 0 0 1 5.532961,-0.801152 5.7585779,4.7713087 0 0 1 2.890033,1.397566 8.4444817,6.9967325 0 0 1 1.439644,2.795132 6.1131172,5.0650646 0 0 0 0.719823,1.593403 1.3107211,1.0860068 0 0 0 1.203279,0.596414 2.1487231,1.7803391 0 0 0 1.686746,-0.195837 1.5900551,1.3174509 0 0 0 0.96693,-0.996991 4.8453705,4.0146645 0 0 0 -0.48347,-2.990969 7.8428392,6.4982375 0 0 0 -2.642925,-3.560678 12.892338,10.682034 0 0 0 -4.866852,-2.020685 16.308808,13.512773 0 0 0 -4.81314,-0.400576 13.107211,10.860068 0 0 0 -4.297446,1.192827 12.161773,10.076719 0 0 0 -3.609855,2.795132 15.911294,13.183411 0 0 0 -2.148723,4.192699 18.919507,15.675886 0 0 0 -0.483463,2.990969 16.212116,13.432658 0 0 0 0.23636,2.795133 11.9469,9.898685 0 0 0 0.698335,2.403458 z"
     id="path792"
     style="stroke-width:0.977943" />
  <metadata
     id="metadata797">
    <rdf:RDF>
      <cc:Work
         rdf:about="">
        <dc:title>Lportuguesa</dc:title>
      </cc:Work>
    </rdf:RDF>
  </metadata>
</svg>
