<svg id="Layer_1" data-name="Layer 1" xmlns="http://www.w3.org/2000/svg" viewBox="0 0 113.39 113.4"><defs><style>.cls-1{fill:#fff;}.cls-2{fill:none;}</style></defs><title>Lestrangeira2</title><rect class="cls-1" y="9.45" width="3.78" height="60.47"/><path d="M15.35,70.72a1.35,1.35,0,0,0,.34.11l.38,0a2,2,0,0,0,1.34-.55,1.94,1.94,0,0,0,.4-.62,1.91,1.91,0,0,0-.4-2.06,1.94,1.94,0,0,0-.62-.4,1.79,1.79,0,0,0-.72-.15,1.9,1.9,0,0,0-1.34,3.23l.28.23A1.8,1.8,0,0,0,15.35,70.72Z" transform="translate(-14.17 -14.17)"/><path d="M118.11,14.17H23.62a9.46,9.46,0,0,0-9.45,9.45V61.41a1.89,1.89,0,0,0,3.78,0V23.62A5.67,5.67,0,0,1,23.62,18H87L58.25,89.76H23.62A5.67,5.67,0,0,1,18,84.09V76.53a1.89,1.89,0,0,0-3.78,0v7.56a9.46,9.46,0,0,0,9.45,9.45h60.2a16.84,16.84,0,0,1,12,4.92l25.66,27.91a3.47,3.47,0,0,0,2.6,1.18,3.55,3.55,0,0,0,1.25-.23,3.46,3.46,0,0,0,2.25-3.27V23.62A9.45,9.45,0,0,0,118.11,14.17Zm5.67,109.15L98.52,95.85a20.67,20.67,0,0,0-14.7-6.09H62.32L91,18H118.1a5.67,5.67,0,0,1,5.67,5.67v99.7Z" transform="translate(-14.17 -14.17)"/><rect class="cls-2" width="113.39" height="113.39"/><path d="M59.42,74l-14.25-41a2.81,2.81,0,0,0-5.29,0L25.62,74A1.88,1.88,0,0,0,26,75.91a1.91,1.91,0,0,0,1.81.63,1.88,1.88,0,0,0,1.43-1.28l4.16-12H51.7l4.16,12A1.88,1.88,0,1,0,59.42,74ZM34.66,59.53l7.86-22.59,7.86,22.59Z" transform="translate(-14.17 -14.17)"/><path d="M118.11,67.09c-5.73,0-10.38-5.39-12.56-11.34h3.8A4.31,4.31,0,0,0,112.78,54l2.69-3.58a3.78,3.78,0,0,0-3-6.05h-7.56V40.63h3.78a1.89,1.89,0,1,0,0-3.78h-3.78V33.07a1.89,1.89,0,1,0-3.78,0v3.78H97.33a1.89,1.89,0,1,0,0,3.78h3.78v3.78H93.55a3.78,3.78,0,0,0-3,6.05L93.22,54a4.28,4.28,0,0,0,3.43,1.71h3.8c-2.18,6-6.83,11.34-12.56,11.34a1.89,1.89,0,0,0,0,3.78c5.62,0,10.16-3.5,13.23-8.1V74.65a1.89,1.89,0,0,0,3.78,0V62.76c3.07,4.6,7.61,8.1,13.23,8.1A1.89,1.89,0,0,0,120,69,1.92,1.92,0,0,0,118.11,67.09ZM101.1,52H96.63a.48.48,0,0,1-.4-.2l-2.68-3.58h7.56V52Zm3.78-3.79h7.56l-2.69,3.59a.48.48,0,0,1-.4.2h-4.47Z" transform="translate(-14.17 -14.17)"/><rect class="cls-2" width="113.39" height="113.39"/><path d="M78.43,123.78H42.34l0-.12-2.37-5.74a7.28,7.28,0,0,0-1.6-2.39L27.5,104.68h0l-3.73-3.73a5.68,5.68,0,0,0-7.27-.73,5.55,5.55,0,0,0-.7,8.43l14.7,14.73a7.17,7.17,0,0,0,2.39,1.6l5.74,2.38a2.86,2.86,0,0,0,1.08.22,2.63,2.63,0,0,0,.48-.06,1.63,1.63,0,0,0,.45.06H78.42a1.9,1.9,0,0,0,0-3.79ZM18,104.57a1.77,1.77,0,0,1,.75-1.29,1.52,1.52,0,0,1,.92-.28,2.09,2.09,0,0,1,1.46.62l2.4,2.4L21,108.51,18.46,106A1.8,1.8,0,0,1,18,104.57Zm16.38,16.9a3.39,3.39,0,0,1-1.16-.78l-9.5-9.51,2.49-2.49,9.5,9.51a3.65,3.65,0,0,1,.78,1.16L37.94,123Z" transform="translate(-14.17 -14.17)"/><path d="M65.2,120H46.3a1.89,1.89,0,0,1,0-3.78H65.2a1.89,1.89,0,0,1,0,3.78Z" transform="translate(-14.17 -14.17)"/><path d="M59.53,112.44H40.63a1.89,1.89,0,0,1,0-3.78h18.9a1.89,1.89,0,0,1,0,3.78Z" transform="translate(-14.17 -14.17)"/></svg>