<?xml version="1.0" encoding="UTF-8" standalone="no"?>
<svg
   id="Layer_1"
   data-name="Layer 1"
   viewBox="0 0 125 113"
   version="1.1"
   sodipodi:docname="lingua-estrangeira.svg"
   width="125"
   height="113"
   inkscape:version="1.2 (1:1.2.1+202207142221+cd75a1ee6d)"
   xmlns:inkscape="http://www.inkscape.org/namespaces/inkscape"
   xmlns:sodipodi="http://sodipodi.sourceforge.net/DTD/sodipodi-0.dtd"
   xmlns="http://www.w3.org/2000/svg"
   xmlns:svg="http://www.w3.org/2000/svg"
   xmlns:rdf="http://www.w3.org/1999/02/22-rdf-syntax-ns#"
   xmlns:cc="http://creativecommons.org/ns#"
   xmlns:dc="http://purl.org/dc/elements/1.1/">
  <sodipodi:namedview
     id="namedview740"
     pagecolor="#ffffff"
     bordercolor="#000000"
     borderopacity="0.25"
     inkscape:showpageshadow="2"
     inkscape:pageopacity="0.0"
     inkscape:pagecheckerboard="0"
     inkscape:deskcolor="#d1d1d1"
     showgrid="false"
     inkscape:zoom="4.4532627"
     inkscape:cx="56.587724"
     inkscape:cy="20.883565"
     inkscape:window-width="1366"
     inkscape:window-height="671"
     inkscape:window-x="0"
     inkscape:window-y="27"
     inkscape:window-maximized="1"
     inkscape:current-layer="Layer_1" />
  <defs
     id="defs715">
    <style
       id="style713">.cls-1{fill:#fff;}.cls-2{fill:none;}</style>
  </defs>
  <title
     id="title717">Lestrangeira2</title>
  <rect
     class="cls-1"
     y="15.985982"
     width="3.6533532"
     height="52.541119"
     id="rect719"
     x="7.896946"
     style="stroke-width:0.916388" />
  <path
     d="m 9.037411,56.910188 a 1.3047691,1.1729866 0 0 0 0.3286088,0.09558 H 9.7332875 A 1.9329912,1.7377581 0 0 0 11.028392,56.52789 1.8750014,1.6856254 0 0 0 11.41499,55.989185 1.8460065,1.6595591 0 0 0 11.028392,54.199295 1.8750014,1.6856254 0 0 0 10.429164,53.851742 1.7300271,1.5552935 0 0 0 9.7332875,53.721411 1.8363415,1.6508702 0 0 0 8.4381833,56.52789 l 0.2706189,0.199843 a 1.7396919,1.5639823 0 0 0 0.3286088,0.182465 z"
     id="path721"
     style="stroke-width:0.916388" />
  <path
     d="M 108.35449,7.7750757 H 17.030329 A 9.1430481,8.2195961 0 0 0 7.8969456,15.985982 v 32.83494 a 1.826677,1.6421817 0 0 0 3.6533534,0 v -32.83494 a 5.4800299,4.9265445 0 0 1 5.48003,-4.883099 H 78.286818 L 50.500071,73.453646 H 17.030329 A 5.4800299,4.9265445 0 0 1 11.598624,68.5271 v -6.568726 a 1.8266766,1.6421814 0 0 0 -3.6533528,0 V 68.5271 a 9.1430481,8.2195961 0 0 0 9.1333828,8.210908 h 58.183034 a 16.275785,14.631925 0 0 1 11.597945,4.274885 L 111.6599,105.26331 a 3.3537396,3.0150104 0 0 0 2.5129,1.02528 3.4310593,3.0845207 0 0 0 1.20812,-0.19985 3.3440747,3.0063216 0 0 0 2.1746,-2.84123 V 15.985982 A 9.133383,8.2109073 0 0 0 108.35449,7.7750757 Z M 113.83453,102.61323 89.420847,78.745119 A 19.977464,17.95973 0 0 0 75.213362,73.453646 H 54.433708 L 82.152801,11.102883 h 26.192019 a 5.4800299,4.9265445 0 0 1 5.48004,4.926543 v 86.627244 z"
     id="path723"
     style="stroke-width:0.916388" />
  <rect
     class="cls-2"
     width="109.59091"
     height="98.522209"
     id="rect725"
     x="7.896946"
     y="7.7750745"
     style="stroke-width:0.916388" />
  <path
     d="M 51.630871,59.76011 37.858308,24.136069 a 2.7158526,2.4415503 0 0 0 -5.112761,0 L 18.963321,59.76011 a 1.8170117,1.6334927 0 0 0 0.367267,1.65956 1.8460065,1.6595591 0 0 0 1.749358,0.547394 1.8170117,1.6334927 0 0 0 1.382088,-1.112166 L 26.482655,50.42835 h 17.68687 l 4.020622,10.426548 A 1.8249372,1.6406176 0 1 0 51.630871,59.76011 Z M 27.70044,47.187431 l 7.596655,-19.62798 7.596655,19.62798 z"
     id="path727"
     style="stroke-width:0.916388" />
  <path
     d="m 108.35449,53.756156 c -5.53801,0 -10.03222,-4.683258 -12.139179,-9.853089 h 3.672683 a 4.1655959,3.7448688 0 0 0 3.315086,-1.520538 l 2.59987,-3.110587 a 3.6533533,3.2843629 0 0 0 -2.89949,-5.256718 h -7.306707 v -3.249609 h 3.653354 a 1.8266766,1.6421814 0 1 0 0,-3.284362 H 95.596753 V 24.19689 a 1.8266766,1.6421814 0 1 0 -3.653352,0 v 3.284363 h -3.672684 a 1.8266766,1.6421814 0 1 0 0,3.284362 h 3.653354 v 3.284364 h -7.306707 a 3.6533533,3.2843629 0 0 0 -2.899487,5.256718 l 2.580543,3.075832 a 4.136601,3.7188025 0 0 0 3.31508,1.485783 h 3.672684 c -2.106961,5.213275 -6.601166,9.853089 -12.139185,9.853089 a 1.8266766,1.6421814 0 0 0 0,3.284362 c 5.431704,0 9.819595,-3.041076 12.786736,-7.03792 v 10.357039 a 1.8266772,1.6421819 0 0 0 3.653354,0 V 49.99391 c 2.967141,3.996843 7.355031,7.03792 12.786741,7.03792 a 1.8266766,1.6421814 0 0 0 1.80735,-1.616115 1.8556715,1.6682478 0 0 0 -1.82669,-1.659559 z M 91.914406,40.644771 H 87.59417 a 0.46391787,0.41706196 0 0 1 -0.386598,-0.173777 l -2.590208,-3.110586 h 7.306707 v 3.284363 z m 3.653353,-3.293053 h 7.306711 l -2.59988,3.119276 a 0.46391787,0.41706196 0 0 1 -0.386596,0.173777 h -4.320235 z"
     id="path729"
     style="stroke-width:0.916388" />
  <rect
     class="cls-2"
     width="109.59091"
     height="98.522209"
     id="rect731"
     x="7.896946"
     y="7.7750745"
     style="stroke-width:0.916388" />
  <path
     d="M 70.003951,103.01291 H 35.123126 v -0.1043 L 32.832532,97.921276 A 7.0360877,6.3254396 0 0 0 31.286139,95.844663 L 20.780331,86.417321 v 0 L 17.175303,83.176402 A 5.4896948,4.9352332 0 0 0 10.148881,82.54212 5.3640503,4.8222788 0 0 0 9.4723343,89.866771 L 23.679819,102.66536 a 6.9297733,6.229863 0 0 0 2.309924,1.39021 l 5.547685,2.06793 a 2.7641773,2.4849942 0 0 0 1.043815,0.19115 2.5418834,2.285152 0 0 0 0.463918,-0.0522 1.5753878,1.4162729 0 0 0 0.434922,0.0522 h 36.514203 a 1.8363415,1.6508702 0 0 0 0,-3.29305 z M 11.598624,86.321744 a 1.7106973,1.537916 0 0 1 0.724872,-1.120854 1.4690732,1.3206962 0 0 1 0.889176,-0.243285 2.0199757,1.8159573 0 0 1 1.411083,0.538704 l 2.31959,2.085309 -2.445235,2.163511 -2.454898,-2.180887 A 1.7396919,1.5639823 0 0 1 11.598624,86.321744 Z M 27.429822,101.0058 a 3.27642,2.9455001 0 0 1 -1.121136,-0.67772 l -9.181707,-8.263046 2.406574,-2.163508 9.181708,8.263043 a 3.5277088,3.1714087 0 0 1 0.753866,1.007893 l 1.401419,3.162728 z"
     id="path733"
     style="stroke-width:0.916388" />
  <path
     d="M 57.217214,99.728549 H 38.950449 a 1.8266795,1.642184 0 0 1 0,-3.284367 h 18.266765 a 1.8266795,1.642184 0 0 1 0,3.284367 z"
     id="path735"
     style="stroke-width:0.916388" />
  <path
     d="M 51.737185,93.159822 H 33.470419 a 1.8266766,1.6421814 0 0 1 0,-3.284362 h 18.266766 a 1.8266766,1.6421814 0 0 1 0,3.284362 z"
     id="path737"
     style="stroke-width:0.916388" />
  <metadata
     id="metadata742">
    <rdf:RDF>
      <cc:Work
         rdf:about="">
        <dc:title>Lestrangeira2</dc:title>
      </cc:Work>
    </rdf:RDF>
  </metadata>
</svg>
