<?xml version="1.0" encoding="UTF-8" standalone="no"?>
<!-- Generator: Adobe Illustrator 23.0.0, SVG Export Plug-In . SVG Version: 6.00 Build 0)  -->

<svg
   version="1.1"
   id="Camada_1"
   x="0px"
   y="0px"
   viewBox="0 0 124.99999 113"
   xml:space="preserve"
   sodipodi:docname="matematica-aplicada-as-financas-e-consumo.svg"
   width="125"
   height="113"
   inkscape:version="1.2 (1:1.2.1+202207142221+cd75a1ee6d)"
   xmlns:inkscape="http://www.inkscape.org/namespaces/inkscape"
   xmlns:sodipodi="http://sodipodi.sourceforge.net/DTD/sodipodi-0.dtd"
   xmlns="http://www.w3.org/2000/svg"
   xmlns:svg="http://www.w3.org/2000/svg"><defs
   id="defs910" /><sodipodi:namedview
   id="namedview908"
   pagecolor="#ffffff"
   bordercolor="#000000"
   borderopacity="0.25"
   inkscape:showpageshadow="2"
   inkscape:pageopacity="0.0"
   inkscape:pagecheckerboard="0"
   inkscape:deskcolor="#d1d1d1"
   showgrid="false"
   inkscape:zoom="1.6966061"
   inkscape:cx="18.861185"
   inkscape:cy="67.782382"
   inkscape:window-width="1366"
   inkscape:window-height="671"
   inkscape:window-x="0"
   inkscape:window-y="27"
   inkscape:window-maximized="1"
   inkscape:current-layer="Camada_1" />
<path
   d="m 55.8218,105.54148 c -1.581161,0.12486 -3.157369,-0.0487 -4.706314,-0.31746 -1.07807,-0.18835 -2.128869,-0.51004 -3.167287,-0.82749 -1.11524,-0.34073 -2.20569,-0.73861 -3.301104,-1.12802 -1.898385,-0.673 -3.789343,-1.35658 -5.685246,-2.03804 -1.620813,-0.582 -3.2342,-1.18304 -4.864931,-1.743877 -1.615849,-0.55448 -3.261452,-0.99468 -5.030964,-1.08569 -1.648075,-0.0846 -3.283769,-0.0444 -4.907055,0.14815 -0.869893,0.1037 -1.707562,0.40422 -2.560102,0.62009 -0.245346,0.0614 -0.485747,0.13333 -0.726139,0.20529 -0.391573,0.11428 -0.780673,0.23491 -1.172245,0.34496 -1.256503,0.355547 -2.513005,0.708977 -3.769508,1.064527 -0.842632,0.23703 -1.702599,0.4402 -2.522923,0.72379 -1.975216,0.67935 -3.405197,-0.39153 -3.9529036,-1.724827 -0.099139,-0.24338 -0.1189646,-0.54813 -0.044615,-0.79575 0.2676632,-0.905789 0.8079346,-1.640169 1.9281276,-1.947039 0.996285,-0.27301 1.990088,-0.54814 2.978927,-0.83384 1.306072,-0.3746 2.602226,-0.77882 3.915734,-1.13648 1.355641,-0.36825 2.718709,-0.71533 4.089213,-1.03278 0.721195,-0.1672 1.464688,-0.27301 2.205699,-0.37248 0.525399,-0.0698 1.060716,-0.1037 1.591079,-0.1164 0.793053,-0.019 1.586116,-0.002 2.379178,-0.006 1.075589,-0.002 2.128869,0.11852 3.159842,0.37671 0.05702,0.0148 0.114001,0.0381 0.171006,0.0423 1.447335,0.072 2.738535,0.62432 4.089212,0.9841 0.599749,0.15873 1.147456,0.45502 1.729861,0.66665 0.998756,0.3619 2.007431,0.70263 3.011152,1.05606 0.510527,0.17989 1.018582,0.37036 1.526638,0.55237 1.184635,0.42327 2.371742,0.84231 3.556377,1.269809 0.636928,0.23068 1.263938,0.48041 1.90582,0.70475 0.95167,0.33015 1.883513,0.73437 2.872362,0.943887 1.006193,0.21375 1.997514,0.52485 3.065666,0.53544 0.884765,0.008 1.774475,0.1947 2.654277,0.15449 1.117712,-0.0508 2.235434,-0.21798 3.338284,-0.39364 1.90582,-0.30687 3.625772,-1.034897 5.320935,-1.809477 1.343241,-0.613739 2.711273,-1.185159 4.064432,-1.779849 1.477069,-0.64972 2.949183,-1.30579 4.426262,-1.95551 1.598505,-0.70263 3.201974,-1.3968 4.798007,-2.10154 2.334573,-1.03278 4.666663,-2.07403 7.001226,-3.10681 1.615859,-0.71321 3.239154,-1.4116 4.852541,-2.13116 1.700117,-0.75766 3.382889,-1.54282 5.085488,-2.29413 2.178438,-0.96294 4.371747,-1.90048 6.552661,-2.85707 2.65923,-1.164 5.33332,-2.30259 7.96033,-3.51526 1.58116,-0.73014 2.61462,-1.85181 2.98389,-3.41579 0.48079,-2.03594 -0.98637,-4.31313 -3.20446,-5.07713 -1.36803,-0.47195 -2.71375,-0.47407 -4.10408,-0.091 -0.9938,0.27513 -2.01239,0.48042 -3.01858,0.7238 -0.64685,0.15661 -1.28625,0.33226 -1.93061,0.49099 -1.097888,0.27301 -2.200737,0.53544 -3.301105,0.80845 -1.610905,0.39787 -3.221811,0.80209 -4.830234,1.20208 -1.268892,0.31534 -2.530358,0.66665 -3.811641,0.93332 -1.152419,0.23914 -2.275095,0.55025 -3.41016,0.83384 -0.436178,0.10793 -0.9021,0.14814 -1.313498,0.30052 -0.92689,0.34285 -1.776948,0.17142 -2.520441,-0.29841 -1.05329,-0.66453 -1.556382,-1.58726 -1.127639,-2.65602 0.359356,-0.8931 1.100377,-1.44335 2.200745,-1.66768 0.9021,-0.18413 1.784384,-0.43385 2.676575,-0.65184 1.157374,-0.28147 2.317219,-0.5566 3.472111,-0.84231 1.496904,-0.36824 2.993798,-0.74707 4.490702,-1.1132 0.85254,-0.2074 1.712516,-0.39576 2.567529,-0.60104 0.835196,-0.20106 1.662946,-0.41904 2.495661,-0.62221 1.368031,-0.33438 2.736055,-0.66242 4.104085,-0.99257 0.0942,-0.0233 0.20074,-0.0254 0.28748,-0.0593 1.07312,-0.42327 2.24783,-0.52908 3.38538,-0.71532 1.15736,-0.19048 2.35439,-0.29418 3.51424,0.0889 0.14622,0.0487 0.30731,0.0635 0.46344,0.0847 1.90087,0.25608 3.48699,1.03489 4.87733,2.1354 1.1425,0.9058 2.13134,1.91529 2.72861,3.15759 0.38909,0.80845 0.73358,1.61901 0.83272,2.51846 0.11152,1.01797 0.0941,2.02323 -0.0422,3.03062 -0.0595,0.44655 -0.18835,0.90156 -0.38661,1.31637 -0.95167,1.99572 -2.31722,3.69727 -4.52788,4.86972 -1.60347,0.85078 -3.28624,1.55341 -4.95414,2.2899 -1.52912,0.67511 -3.04089,1.37351 -4.57001,2.04651 -1.59851,0.70474 -3.21437,1.38409 -4.812877,2.08672 -2.195782,0.96294 -4.386609,1.93646 -6.577437,2.90999 -1.489468,0.66241 -2.971501,1.33965 -4.460959,1.99995 -1.509294,0.66877 -3.028496,1.3206 -4.53779,1.98725 -1.229241,0.54391 -2.448574,1.10262 -3.677814,1.64653 -1.861215,0.821139 -3.729856,1.627469 -5.588589,2.450729 -2.091699,0.924847 -4.163562,1.877197 -6.265169,2.785117 -1.603469,0.69205 -3.199502,1.42007 -4.924408,1.87509 -2.270131,0.59046 -4.577442,1.04548 -7.001226,0.88887 z m 3.89838,-79.773766 c -4.959096,4.13112 -7.491937,9.24634 -7.516716,15.16154 -0.04954,11.98067 11.147443,21.18257 24.36675,21.42383 14.500598,0.26666 25.472086,-9.80506 25.586096,-21.06828 0.12143,-12.03993 -11.323408,-21.62488 -26.468371,-21.59314 -5.254021,0.0995 -11.144961,2.05709 -15.967759,6.07605 z m 1.137548,6.31096 c 1.700116,-2.25392 3.940514,-4.09726 6.684002,-5.44326 2.956629,-1.4497 6.175948,-2.10365 9.568764,-2.15656 1.467151,-0.0233 2.936793,0.1164 4.351912,0.39152 1.843861,0.35978 3.670378,0.84654 5.291192,1.72271 1.588597,0.85924 3.157369,1.75658 4.458477,2.93538 1.144983,1.03913 2.074354,2.22217 2.931849,3.43696 0.788099,1.11743 1.234194,2.36185 1.71747,3.59568 0.572487,1.46663 0.666662,2.99041 0.666662,4.4909 0.0047,4.70888 -2.042129,8.70879 -6.039639,11.96374 -3.990083,3.25071 -8.773229,4.76602 -14.255252,4.55015 -10.106553,-0.39575 -18.495636,-7.48765 -18.451021,-16.63664 -0.0047,-3.2105 1.055762,-6.17551 3.075584,-8.85058 z m -11.890937,36.24041 c 1.876077,0.2201 3.769508,0.35131 5.613369,0.7513 1.070634,0.23069 2.178438,0.36402 3.224282,0.65819 1.707562,0.47829 3.380417,1.04548 5.06319,1.58515 0.443623,0.14179 0.862457,0.3365 1.306072,0.48041 0.698887,0.22856 1.4176,0.42115 2.111524,0.65818 1.063198,0.36402 2.123914,0.74073 3.172241,1.1386 1.75464,0.66242 2.60718,1.88567 2.733571,3.46235 0.09914,1.25077 -0.515482,2.29836 -1.581162,3.15548 -1.050798,0.84443 -2.309783,1.18728 -3.707548,1.00315 -1.206943,-0.15872 -2.39405,-0.43173 -3.581167,-0.68146 -1.687726,-0.35343 -3.365545,-0.74072 -5.05079,-1.09839 -1.033464,-0.2201 -2.076826,-0.40422 -3.110281,-0.62855 -1.625777,-0.35344 -3.244108,-0.73649 -4.869885,-1.08781 -1.263938,-0.27301 -2.532831,-0.52274 -3.801733,-0.77035 -0.503091,-0.0974 -1.013628,-0.11428 -1.519202,0.036 -1.172235,0.34919 -1.846343,1.04336 -1.883513,2.10153 -0.01733,0.51004 0.02226,1.0349 0.41388,1.49626 0.493184,0.582 1.122667,0.92273 1.947945,1.03278 0.329622,0.0445 0.6518,0.1291 0.976459,0.20317 0.934325,0.21376 1.863687,0.44232 2.802966,0.64126 1.070634,0.22645 2.153658,0.41904 3.226764,0.64125 0.899628,0.18836 1.79182,0.40634 2.691447,0.59893 1.187108,0.25185 2.38166,0.48253 3.566286,0.74072 1.013629,0.2201 2.014867,0.4783 3.028496,0.69628 1.09046,0.23492 2.205699,0.39788 3.281288,0.67089 1.390329,0.35343 2.79553,0.26031 4.175951,0.10793 1.12763,-0.12486 2.203218,-0.52485 3.216847,-0.99468 0.294925,-0.13757 0.592322,-0.27936 0.857494,-0.45079 1.452298,-0.93966 2.681539,-2.04228 3.489464,-3.46023 0.374228,-0.65395 0.795544,-1.32061 0.847586,-2.03593 0.05702,-0.78305 0.183396,-1.57034 0.09416,-2.37032 -0.08431,-0.75977 -0.180915,-1.49626 -0.493184,-2.22428 -0.946715,-2.21371 -2.597272,-3.90044 -5.060717,-4.9565 -1.142501,-0.49099 -2.364306,-0.84442 -3.551413,-1.25711 -1.828999,-0.63491 -3.655507,-1.28039 -5.494414,-1.89414 -1.122676,-0.37459 -2.255269,-0.73437 -3.407678,-1.03278 -1.301118,-0.3365 -2.629488,-0.60104 -3.945478,-0.8931 -0.133827,-0.0296 -0.275089,-0.036 -0.411398,-0.055 -0.505574,-0.0741 -1.008675,-0.16296 -1.519202,-0.2201 -0.84015,-0.0952 -1.682773,-0.17566 -2.525395,-0.25185 -0.334577,-0.0296 -0.681544,0.006 -1.006203,-0.0571 -2.13134,-0.42327 -4.294906,-0.29841 -6.446082,-0.2455 -1.080543,0.0275 -2.158612,0.19047 -3.239155,0.28783 -0.686488,0.0614 -1.382893,0.0719 -2.059473,0.17777 -1.087978,0.16931 -2.161094,0.40211 -3.239154,0.60528 -0.230484,0.0444 -0.465922,0.0698 -0.698887,0.11216 -0.366783,0.0656 -0.733576,0.12487 -1.095414,0.20529 -0.401481,0.0889 -0.793053,0.20529 -1.194543,0.30052 -0.741012,0.17566 -1.489468,0.33227 -2.225526,0.51851 -1.437417,0.36401 -2.862444,0.75977 -4.304824,1.1132 -1.345724,0.33015 -2.701356,0.62221 -4.054515,0.93331 -0.874848,0.20105 -1.752168,0.39999 -2.622052,0.61374 -1.499376,0.37036 -2.991326,0.75766 -4.490703,1.1259 -0.872366,0.21375 -1.75464,0.39788 -2.627006,0.61163 -1.157373,0.28359 -2.3097922,0.57988 -3.4597296,0.8804 -0.5030917,0.13121 -0.9293617,0.37248 -1.2614566,0.72168 -0.9268894,0.9841 -0.8451042,2.6666 0.6096663,3.47293 0.6468362,0.35978 1.3506777,0.60951 2.1809099,0.37883 0.768283,-0.21376 1.558864,-0.35978 2.339527,-0.54179 0.894673,-0.2074 1.786865,-0.41269 2.676575,-0.63279 1.422555,-0.35131 2.837664,-0.71956 4.262701,-1.06664 0.986367,-0.24126 1.98017,-0.44655 2.966537,-0.68781 1.63073,-0.39788 3.256498,-0.81692 4.887229,-1.21902 0.775709,-0.19048 1.561335,-0.35555 2.337044,-0.54391 0.570015,-0.13968 1.12763,-0.30687 1.697645,-0.44866 0.718713,-0.17989 1.44238,-0.35132 2.166047,-0.51851 0.971496,-0.22645 1.935555,-0.48041 2.916968,-0.66242 1.271374,-0.23491 2.542748,-0.46983 3.83643,-0.62644 1.903339,-0.23068 3.799251,-0.44655 5.72737,-0.39999 1.038418,0.0254 2.079309,-0.0254 3.092937,0.0952 z M 46.961832,7.9226342 c -0.70136,0.0677 -1.387848,0.26243 -2.071863,0.4275 -0.627011,0.15026 -1.263939,0.29629 -1.858733,0.51639 -1.050808,0.38518 -2.10657,0.78093 -3.1078,1.2528798 -3.154896,1.4878 -5.781902,3.47505 -7.727375,6.09086 -1.065679,1.43066 -2.017349,2.90575 -2.567537,4.54593 -0.319696,0.95659 -0.676571,1.90895 -0.894665,2.88458 -0.171006,0.75554 -0.17596,1.54282 -0.213139,2.31741 -0.06441,1.35235 0.04462,2.70046 0.228011,4.04223 0.06441,0.4656 0.21313,0.92696 0.364311,1.37986 0.2627,0.7767 0.530353,1.55129 0.850058,2.31317 0.22553,0.53756 0.522927,1.05606 0.810407,1.57245 0.607184,1.08781 1.343242,2.11424 2.228007,3.04755 1.120194,1.18093 2.297393,2.32587 3.729856,3.25283 0.770755,0.49946 1.51672,1.03913 2.346962,1.45605 1.018583,0.51216 2.126387,0.89099 3.172231,1.36717 1.345724,0.61162 2.835192,0.82749 4.275091,1.17881 0.488229,0.11851 1.0285,0.15661 1.511766,-0.0593 0.733585,-0.32592 1.335815,-0.77247 1.722424,-1.41796 0.265182,-0.44232 0.356885,-0.90368 0.171007,-1.36293 -0.146217,-0.36189 -0.371747,-0.71109 -0.627011,-1.02643 -0.498137,-0.61797 -1.301118,-0.82749 -2.101607,-0.92696 -0.899627,-0.11005 -1.70508,-0.42962 -2.547702,-0.66454 -0.42627,-0.11851 -0.847586,-0.26877 -1.246594,-0.44866 -0.594795,-0.26878 -1.167282,-0.57142 -1.742251,-0.86771 -1.338287,-0.68781 -2.446091,-1.60419 -3.501853,-2.57136 -0.842623,-0.77247 -1.496904,-1.66769 -2.096653,-2.57772 -0.57745,-0.87829 -0.988849,-1.8243 -1.32837,-2.80205 -0.453532,-1.30791 -0.644364,-2.63486 -0.721195,-3.98509 -0.04462,-0.78305 0.06943,-1.5534 0.25031,-2.31529 0.213139,-0.89098 0.386618,-1.80313 0.760846,-2.64756 0.634447,-1.43912 1.472115,-2.80628 2.631961,-4.00625 1.125157,-1.16611 2.371742,-2.22429 3.868646,-3.04543 1.539028,-0.84443 3.177195,-1.50684 4.949188,-1.90895 1.400247,-0.31745 2.825274,-0.52062 4.272609,-0.50793 1.003711,0.008 2.014867,0.091 3.006188,0.23069 1.286246,0.182 2.537795,0.51004 3.737292,0.95236 1.405201,0.5185 2.745971,1.15552 3.895908,2.01265 1.011147,0.75342 1.893431,1.6317 2.850054,2.43592 0.490711,0.41269 0.993803,0.81691 1.727388,0.92484 1.469633,0.21587 3.199502,-0.98622 3.254016,-2.35126 0.0099,-0.27301 -0.07436,-0.57354 -0.21313,-0.82326 -0.193305,-0.34709 -0.436178,-0.6857 -0.728621,-0.97776 -1.851298,-1.84969 -3.89839,-3.51103 -6.423785,-4.68137 -0.90211,-0.4169198 -1.836426,-0.7872798 -2.780668,-1.1301298 -0.706314,-0.25608 -1.442372,-0.46137 -2.178429,-0.64549 -0.738539,-0.18412 -1.486986,-0.37883 -2.245351,-0.4529 -1.273856,-0.12486 -2.560102,-0.16084 -3.871128,-0.23491 -1.258975,0.0741 -2.545221,0.11216 -3.819077,0.23703 z M 80.634646,51.324774 c 1.308554,-0.36613 2.530359,-0.85289 3.576203,-1.6444 1.154892,-0.87194 1.868651,-1.95974 2.245351,-3.21263 0.232966,-0.7767 0.171007,-1.57456 -0.01733,-2.35973 -0.297397,-1.22748 -0.946715,-2.27931 -2.096653,-3.09199 -0.765801,-0.54178 -1.588597,-0.9714 -2.525404,-1.28674 -1.013629,-0.34073 -2.02973,-0.63067 -3.092928,-0.84442 -1.246594,-0.25185 -2.473353,-0.58412 -3.69764,-0.91427 -0.349439,-0.0952 -0.669144,-0.29205 -0.976459,-0.47406 -0.408916,-0.24338 -0.508055,-0.57565 -0.342003,-0.98199 0.277572,-0.67511 0.934325,-0.95236 1.672855,-1.06664 0.869894,-0.13333 1.75465,-0.15449 2.646841,-0.12275 1.226759,0.0423 2.448574,0.11005 3.630727,0.41269 0.964059,0.24761 1.821553,0.0529 2.545221,-0.48464 1.338287,-0.99469 1.449816,-2.28566 0.289961,-3.43061 -0.503092,-0.49523 -1.192061,-0.71321 -1.920683,-0.84231 -0.579932,-0.10158 -1.172245,-0.14814 -1.747213,-0.26243 -0.706324,-0.13968 -0.783145,-0.25819 -0.815361,-0.86347 -0.03221,-0.58834 -0.22553,-1.17881 -0.708805,-1.57456 -1.392811,-1.14072 -2.758361,-1.14283 -4.116474,-0.0148 -0.53779,0.44867 -0.862449,1.00315 -0.768273,1.68885 0.02728,0.19471 -0.0099,0.41057 -0.08431,0.5947 -0.04954,0.12063 -0.21314,0.2857 -0.337059,0.29205 -0.624528,0.0339 -1.110276,0.34708 -1.657983,0.53332 -1.95539,0.66242 -4.237911,2.72798 -4.213131,5.19988 0.0076,0.76824 -0.0198,1.52589 0.351921,2.28354 0.679052,1.38833 1.876077,2.34704 3.325893,3.07083 1.016111,0.50581 2.14374,0.85712 3.32094,1.05606 0.733575,0.12486 1.464678,0.27089 2.178428,0.46136 0.978931,0.26243 1.947954,0.56084 2.907059,0.87194 0.721195,0.23492 0.983895,0.97141 0.545235,1.50896 -0.163571,0.20105 -0.394054,0.38518 -0.63941,0.51004 -0.65179,0.33227 -1.348196,0.57142 -2.136304,0.51216 -0.136309,-0.0106 -0.27509,0.0317 -0.411399,0.0296 -0.887237,-0.0233 -1.791819,0.0402 -2.654267,-0.10159 -1.1772,-0.1947 -2.327137,-0.52274 -3.474592,-0.83596 -1.033455,-0.28147 -1.910785,-0.0466 -2.693929,0.51639 -0.847577,0.6074 -1.130112,1.64441 -0.72614,2.52904 0.366783,0.80422 1.006193,1.3587 2.032211,1.53436 0.151181,0.0254 0.292444,0.0995 0.441142,0.14814 1.053281,0.35132 2.121433,0.64549 3.25898,0.71745 0.483266,0.0317 0.617093,0.14179 0.669144,0.55871 0.01487,0.1164 0.01734,0.23704 0.0028,0.35555 -0.03969,0.37248 0.118964,0.68782 0.319705,1.0095 0.304833,0.48888 0.785626,0.81056 1.335806,1.04759 0.661717,0.2836 1.40521,0.35767 2.071872,0.0889 1.174718,-0.47406 1.876077,-1.26981 1.866169,-2.4338 0,-0.15026 0,-0.30264 0,-0.50158 0.25031,-0.0762 0.433706,-0.13333 0.619575,-0.18624 z"
   id="path905"
   style="stroke-width:0.229019" />
</svg>
