<svg id="Layer_1" data-name="Layer 1" xmlns="http://www.w3.org/2000/svg" xmlns:xlink="http://www.w3.org/1999/xlink" viewBox="0 0 86.81 113.39"><defs><style>.cls-1{fill:none;}.cls-2{clip-path:url(#clip-path);}</style><clipPath id="clip-path" transform="translate(-27.46 -14.17)"><rect class="cls-1" x="27.46" y="14.17" width="86.81" height="113.39"/></clipPath></defs><title>matematica</title><g class="cls-2"><path d="M112.06,73a2.21,2.21,0,1,1,2.17-1.78A2.22,2.22,0,0,1,112.06,73Z" transform="translate(-27.46 -14.17)"/></g><path d="M92.72,101.65h-9.1a2.21,2.21,0,1,1,0-4.42h9.1a2.21,2.21,0,1,1,0,4.42Z" transform="translate(-27.46 -14.17)"/><path d="M92.72,108.43h-9.1a2.21,2.21,0,1,1,0-4.42h9.1a2.21,2.21,0,1,1,0,4.42Z" transform="translate(-27.46 -14.17)"/><path d="M92.72,72.75h-9.1a2.21,2.21,0,0,1,0-4.42h9.1a2.21,2.21,0,0,1,0,4.42Z" transform="translate(-27.46 -14.17)"/><path d="M58.11,68.32H55.78V66a2.21,2.21,0,0,0-4.42,0v2.33H49a2.21,2.21,0,0,0,0,4.42h2.33v2.33a2.21,2.21,0,0,0,4.42,0V72.74h2.33a2.21,2.21,0,0,0,0-4.42Z" transform="translate(-27.46 -14.17)"/><path d="M58.34,98.3a2.2,2.2,0,0,0-3.13,0L53.56,100,51.91,98.3a2.21,2.21,0,0,0-3.13,3.13l1.65,1.65-1.65,1.65a2.22,2.22,0,0,0,3.14,3.13l1.65-1.65,1.65,1.65a2.22,2.22,0,1,0,3.14-3.13l-1.65-1.65,1.65-1.65a2.22,2.22,0,0,0,0-3.13Z" transform="translate(-27.46 -14.17)"/><path d="M101.29,117.31H75.06a2.21,2.21,0,0,1-2.21-2.21v-24a2.21,2.21,0,0,1,2.21-2.21h26.23a2.21,2.21,0,0,1,2.21,2.21v24a2.22,2.22,0,0,1-2.21,2.22Zm-24-4.43h21.8V93.29H77.27Z" transform="translate(-27.46 -14.17)"/><path d="M66.67,117.31H40.45a2.21,2.21,0,0,1-2.21-2.21v-24a2.21,2.21,0,0,1,2.21-2.21H66.68a2.21,2.21,0,0,1,2.21,2.21v24a2.22,2.22,0,0,1-2.22,2.22Zm-24-4.43h21.8V93.29H42.66Z" transform="translate(-27.46 -14.17)"/><path d="M101.29,84.76H75.06a2.21,2.21,0,0,1-2.21-2.21v-24a2.21,2.21,0,0,1,2.21-2.21h26.23a2.21,2.21,0,0,1,2.21,2.21v24a2.22,2.22,0,0,1-2.21,2.22Zm-24-4.43h21.8V60.74H77.27Z" transform="translate(-27.46 -14.17)"/><path d="M66.67,84.76H40.45a2.21,2.21,0,0,1-2.21-2.21v-24a2.21,2.21,0,0,1,2.21-2.21H66.68a2.21,2.21,0,0,1,2.21,2.21v24a2.22,2.22,0,0,1-2.22,2.22Zm-24-4.43h21.8V60.74H42.66Z" transform="translate(-27.46 -14.17)"/><path d="M101.29,48.31H40.45a2.21,2.21,0,0,1-2.21-2.21V26.64a2.21,2.21,0,0,1,2.21-2.21h60.84a2.21,2.21,0,0,1,2.21,2.21V46.09a2.22,2.22,0,0,1-2.21,2.22ZM42.66,43.88H99.07v-15H42.66Z" transform="translate(-27.46 -14.17)"/><path d="M107.83,127.56H33.9a6.45,6.45,0,0,1-6.44-6.44V20.61a6.45,6.45,0,0,1,6.44-6.44h73.93a6.45,6.45,0,0,1,6.44,6.44V60.85a2.21,2.21,0,1,1-4.42,0V20.61a2,2,0,0,0-2-2H33.9a2,2,0,0,0-2,2V121.12a2,2,0,0,0,2,2h73.93a2,2,0,0,0,2-2V80.88a2.21,2.21,0,0,1,4.42,0v40.24a6.43,6.43,0,0,1-6.43,6.44Z" transform="translate(-27.46 -14.17)"/></svg>