<?xml version="1.0" encoding="UTF-8" standalone="no"?>
<svg
   id="Layer_1"
   data-name="Layer 1"
   viewBox="0 0 125 113"
   version="1.1"
   sodipodi:docname="educacao-fisica.svg"
   width="125"
   height="113"
   inkscape:version="1.2 (1:1.2.1+202207142221+cd75a1ee6d)"
   xmlns:inkscape="http://www.inkscape.org/namespaces/inkscape"
   xmlns:sodipodi="http://sodipodi.sourceforge.net/DTD/sodipodi-0.dtd"
   xmlns="http://www.w3.org/2000/svg"
   xmlns:svg="http://www.w3.org/2000/svg"
   xmlns:rdf="http://www.w3.org/1999/02/22-rdf-syntax-ns#"
   xmlns:cc="http://creativecommons.org/ns#"
   xmlns:dc="http://purl.org/dc/elements/1.1/">
  <sodipodi:namedview
     id="namedview359"
     pagecolor="#ffffff"
     bordercolor="#000000"
     borderopacity="0.25"
     inkscape:showpageshadow="2"
     inkscape:pageopacity="0.0"
     inkscape:pagecheckerboard="0"
     inkscape:deskcolor="#d1d1d1"
     showgrid="false"
     inkscape:zoom="12.600174"
     inkscape:cx="66.030836"
     inkscape:cy="63.253097"
     inkscape:window-width="1366"
     inkscape:window-height="671"
     inkscape:window-x="0"
     inkscape:window-y="27"
     inkscape:window-maximized="1"
     inkscape:current-layer="Layer_1" />
  <defs
     id="defs348">
    <style
       id="style346">.cls-1{fill:#e9e9e9;}</style>
  </defs>
  <title
     id="title350">efisica</title>
  <path
     d="m 118.29048,43.292544 v -7.828288 c -0.005,-2.119697 -1.69661,-3.836883 -3.78519,-3.841581 -2.75947,2e-6 -4.99646,-2.270312 -4.99646,-5.070887 V 12.764782 c 0,-2.149938 -1.71729,-3.8928068 -3.83567,-3.8928035 h -4.62635 c -2.118379,7e-7 -3.835664,1.7428685 -3.835663,3.8928035 v 8.075856 c 0.02054,4.978327 -3.870249,9.067155 -8.773241,9.219794 -4.986595,0.09073 -9.076857,-3.987366 -9.076056,-9.049057 v -8.238057 c 10e-7,-2.149936 -1.717285,-3.8928032 -3.835664,-3.8928033 h -4.626349 c -2.115094,0.00471 -3.827259,1.7461973 -3.827253,3.8928033 V 17.7503 c -7.6e-4,2.197585 3.246096,2.197585 3.246856,0 v -4.976982 c 0,-0.32532 0.259852,-0.589043 0.580397,-0.589043 h 4.584291 c 0.320545,0 0.580397,0.263723 0.580397,0.589043 v 8.246594 c 0.0037,6.907863 5.584747,12.472084 12.390205,12.352817 6.690429,-0.176162 12.01924,-5.739733 12.00328,-12.532091 v -8.075856 c 0,-0.325317 0.25985,-0.589039 0.58039,-0.589043 h 4.62635 c 0.32054,4e-6 0.58039,0.263726 0.58039,0.589043 v 13.787006 c -0.005,4.627147 3.6925,8.379374 8.25173,8.374647 0.29267,-2e-6 0.52993,0.24079 0.52993,0.537821 v 6.829477 L 88.278087,55.320961 61.529376,42.285197 v -6.829478 c 2.01e-4,-0.144655 0.05781,-0.283129 0.15982,-0.384158 0.09034,-0.08935 0.210378,-0.141125 0.336461,-0.145126 4.55538,-0.0047 8.247089,-3.751408 8.251725,-8.374647 v -2.211043 c -7.59e-4,-2.196043 -3.247615,-2.196043 -3.246856,0 v 2.211043 c -0.02735,2.788997 -2.248397,5.043134 -4.996458,5.070887 -2.088586,0.0047 -3.780569,1.721882 -3.785195,3.841581 v 35.351082 l -8.369486,5.122107 C 48.713834,75.246564 47.393272,74.870358 46.043723,74.844729 H 36.311567 V 46.323124 h 9.732156 c 4.321066,9.84e-4 7.824489,-3.553835 7.824489,-7.939267 0,-4.385432 -3.503423,-7.940251 -7.824489,-7.939267 h -1.682309 v -1.801274 c -0.0046,-3.576561 -2.860297,-6.474764 -6.384362,-6.479467 h -1.665485 v -3.201317 c 0,-1.885908 -1.506391,-3.414739 -3.364618,-3.414739 h -4.836638 c -1.858227,0 -3.364618,1.528831 -3.364618,3.414739 v 3.235464 h -1.615016 c -3.524065,0.0047 -6.379728,2.902906 -6.384362,6.479467 v 1.801275 h -1.682309 c -0.710532,0.0018 -1.417677,0.09944 -2.102886,0.290253 -2.262744,0.461858 -1.344782,3.927544 0.841154,3.175706 0.3999,-0.112871 0.813009,-0.170304 1.228085,-0.170736 h 31.013364 c 6.0933,-0.0034 6.0933,9.267615 0,9.271014 H 15.038771 c -2.520623,-0.0047 -4.562838,-2.077336 -4.567468,-4.635507 0.0012,-0.263227 0.02367,-0.52591 0.06729,-0.78539 0.555421,-2.271286 -2.9190274,-2.91326 -3.1879753,-0.589043 -0.074492,0.43985 -0.1110809,0.885452 -0.1093501,1.331749 0.00464,4.382786 3.5042804,7.934562 7.8227364,7.939267 h 9.690098 v 28.530141 h -9.715333 c -4.321066,-9.84e-4 -7.8244887,3.553835 -7.8244887,7.939267 0,4.385432 3.5034227,7.940251 7.8244887,7.939267 h 1.682309 v 1.801276 c 0.0046,3.576559 2.860299,6.47476 6.384362,6.479463 h 1.615016 v 3.235465 c -10e-7,1.88591 1.50639,3.41474 3.364618,3.41474 h 4.836638 c 1.858228,0 3.364619,-1.52883 3.364618,-3.41474 v -3.235465 h 0.06729 c 0.340355,0.449819 0.711373,0.87486 1.110324,1.271995 2.110174,2.10155 4.950396,3.27603 7.906851,3.26961 h 58.712585 c 3.43115,-0.005 6.2115,-2.82647 6.21613,-6.308733 v -9.783223 h 0.84116 c 3.95145,-0.0047 7.15358,-3.254539 7.15822,-7.264856 V 43.292544 Z M 28.00096,18.962532 c 0,-0.06129 0.04896,-0.11098 0.109351,-0.110979 h 4.836638 c 0.06039,0 0.10935,0.04969 0.10935,0.110979 v 3.235464 h -5.046926 z m -8.033024,11.490596 v -1.801275 c 0.0046,-1.751948 1.402861,-3.171016 3.129094,-3.175707 h 14.804318 c 1.726233,0.0047 3.124473,1.423759 3.129095,3.175707 v 1.801275 z m 55.516192,36.631608 c 0.72919,0.0041 1.379435,0.466695 1.63184,1.16101 4.248009,11.92547 20.92286,11.759948 24.940222,-0.247568 0.17523,-0.51984 0.64531,-0.878497 1.18604,-0.904906 h 1.00938 c 1.5079,0.0047 2.72914,1.244117 2.73376,2.774475 V 90.672042 H 84.484481 L 79.14315,82.912049 c -1.239324,-1.803991 -3.905784,0.08265 -2.66646,1.886643 l 4.054365,5.87335 h -3.91978 l -10.043384,-14.623618 2.750575,-1.707369 3.440322,5.002592 c 0.305013,0.443718 0.804348,0.708261 1.337435,0.708559 0.331753,0.0019 0.655611,-0.102656 0.92527,-0.29879 0.73724,-0.520386 0.918153,-1.549358 0.403754,-2.296412 l -3.465556,-5.036739 c 0.932099,-1.066698 1.449415,-2.441465 1.455197,-3.867192 v -1.459801 h 2.06924 z m -6.628297,23.587306 -7.763855,-11.302785 2.67487,-1.622001 8.882592,12.924786 z m -7.873206,0 -5.442268,-7.913656 2.750574,-1.70737 6.594651,9.621026 z M 45.909138,82.20349 c 0.08443,0.154919 0.180019,0.303295 0.285993,0.443917 1.049163,1.387436 2.675984,2.198757 4.399238,2.193969 0.724771,0.002 1.442623,-0.143084 2.111297,-0.426842 l 4.273065,6.257508 H 37.438713 c 0.407681,-2.346582 1.793562,-4.400357 3.802019,-5.634318 z M 70.168032,67.443283 v 1.143938 c -0.008,0.87102 -0.451576,1.678221 -1.177616,2.142748 -1.847687,1.124094 -3.69546,2.248049 -5.543202,3.372053 l -0.08411,0.05122 -5.417035,3.295224 c -2.177526,1.042889 -7.007953,5.822074 -9.134936,3.158632 -0.01515,-0.03242 -0.01515,-0.07003 0,-0.102442 0.0064,-0.03361 0.02426,-0.06384 0.05047,-0.08537 7.37044,-4.403811 15.051125,-9.229554 21.306429,-12.976003 z M 28.00096,46.323124 h 5.046927 V 74.853265 H 28.00096 Z m -8.033024,46.209952 v -1.801275 h 9.252698 c 2.164571,0 2.164571,-3.295224 0,-3.295224 H 15.038771 c -2.522543,0 -4.567468,-2.075387 -4.567468,-4.635507 0.0046,-2.558172 2.046845,-4.630809 4.567468,-4.635508 h 31.173183 l -6.64512,4.037928 c -3.406569,2.084135 -5.492654,5.823156 -5.50115,9.860057 -0.0015,1.071334 0.145755,2.137538 0.4374,3.167173 v 0 l 0.126174,0.418306 H 23.122265 c -1.71157,0.0051 -3.113149,-1.379379 -3.154329,-3.11595 z m 13.063128,9.714934 c 10e-7,0.0613 -0.04896,0.11098 -0.10935,0.11098 h -4.811403 c -0.06039,0 -0.109352,-0.0497 -0.109351,-0.11098 v -3.235471 h 5.046927 z m 73.962716,-5.002599 c -0.005,1.657655 -1.32755,3.000279 -2.96087,3.004969 H 45.202568 c -3.651419,-0.1047 -6.780975,-2.679219 -7.637682,-6.28311 h 69.462534 v 3.278141 z m 4.12166,-13.078446 h -0.84116 V 69.85921 c 0,-3.356916 -2.68138,-6.078234 -5.98902,-6.078234 h -1.04303 c -1.96047,-0.0023 -3.703736,1.265342 -4.331951,3.150096 -3.024248,9.056245 -15.600485,9.181882 -18.799801,0.18781 -0.721079,-1.970732 -2.55543,-3.294213 -4.62635,-3.337906 -3.625375,0.0939 -5.046926,-0.358548 -7.032051,0.853684 l -6.880643,4.183055 V 45.947503 l 26.075787,12.685755 c 0.448211,0.210521 0.964929,0.210521 1.41314,0 L 115.13615,45.947503 v 34.258366 c -0.0229,2.184599 -1.76717,3.947245 -3.91978,3.961096 z"
     id="path354"
     style="stroke-width:0.847396"
     sodipodi:nodetypes="cccssssscccsscsccsssscccsccsccsccccccccccccccccccscccccsssscccccccccccccccccccscccccsssscccccccccccccssccccccccccccccccccccccccccccccccccccccccccccccccccccccccccccccccccccssscccccscccccsccccccccccccccssccccccccccccc" />
  <path
     d="m 86.587367,37.965552 h -1.093501 a 1.6234282,1.6476115 0 0 0 0,3.295223 h 0.344873 v 5.71115 h -0.201877 a 1.6234282,1.6476115 0 1 0 0,3.295223 h 3.65061 a 1.6234282,1.6476115 0 1 0 0,-3.295223 h -0.201876 v -6.47093 a 2.5234633,2.561054 0 0 0 -2.523464,-2.561053 z"
     id="path356"
     style="stroke-width:0.847396" />
  <metadata
     id="metadata361">
    <rdf:RDF>
      <cc:Work
         rdf:about="">
        <dc:title>efisica</dc:title>
      </cc:Work>
    </rdf:RDF>
  </metadata>
</svg>
