<?xml version="1.0" encoding="UTF-8" standalone="no"?>
<svg
   id="Layer_1"
   data-name="Layer 1"
   viewBox="0 0 125 113"
   version="1.1"
   sodipodi:docname="matematica.svg"
   width="125"
   height="113"
   inkscape:version="1.2 (1:1.2.1+202207142221+cd75a1ee6d)"
   xmlns:inkscape="http://www.inkscape.org/namespaces/inkscape"
   xmlns:sodipodi="http://sodipodi.sourceforge.net/DTD/sodipodi-0.dtd"
   xmlns="http://www.w3.org/2000/svg"
   xmlns:svg="http://www.w3.org/2000/svg"
   xmlns:rdf="http://www.w3.org/1999/02/22-rdf-syntax-ns#"
   xmlns:cc="http://creativecommons.org/ns#"
   xmlns:dc="http://purl.org/dc/elements/1.1/">
  <sodipodi:namedview
     id="namedview859"
     pagecolor="#ffffff"
     bordercolor="#000000"
     borderopacity="0.25"
     inkscape:showpageshadow="2"
     inkscape:pageopacity="0.0"
     inkscape:pagecheckerboard="0"
     inkscape:deskcolor="#d1d1d1"
     showgrid="false"
     inkscape:zoom="2.2268278"
     inkscape:cx="43.559723"
     inkscape:cy="56.582732"
     inkscape:window-width="1366"
     inkscape:window-height="671"
     inkscape:window-x="0"
     inkscape:window-y="27"
     inkscape:window-maximized="1"
     inkscape:current-layer="Layer_1" />
  <defs
     id="defs828">
    <style
       id="style823">.cls-1{fill:none;}.cls-2{clip-path:url(#clip-path);}</style>
    <clipPath
       id="clip-path"
       transform="translate(-27.46 -14.17)">
      <rect
         class="cls-1"
         x="27.459999"
         y="14.17"
         width="86.809998"
         height="113.39"
         id="rect825" />
    </clipPath>
  </defs>
  <title
     id="title830">matematica</title>
  <g
     class="cls-2"
     clip-path="url(#clip-path)"
     id="g834"
     transform="matrix(1.1772627,0,0,0.82355171,11.556737,10.725353)">
    <path
       d="m 112.06,73 a 2.21,2.21 0 1 1 2.17,-1.78 2.22,2.22 0 0 1 -2.17,1.78 z"
       transform="translate(-27.46,-14.17)"
       id="path832" />
  </g>
  <path
     d="M 88.384903,82.769658 H 77.671811 a 2.6017518,1.82005 0 1 1 0,-3.6401 h 10.713092 a 2.6017518,1.82005 0 1 1 0,3.6401 z"
     id="path836"
     style="stroke-width:0.984655" />
  <path
     d="M 88.384903,88.353338 H 77.671811 a 2.6017506,1.8200493 0 1 1 0,-3.640098 h 10.713092 a 2.6017506,1.8200493 0 1 1 0,3.640098 z"
     id="path838"
     style="stroke-width:0.984655" />
  <path
     d="M 88.384903,58.969013 H 77.671811 a 2.6017509,1.8200495 0 0 1 0,-3.640099 h 10.713092 a 2.6017509,1.8200495 0 0 1 0,3.640099 z"
     id="path840"
     style="stroke-width:0.984655" />
  <path
     d="m 47.639839,55.320679 h -2.743021 v -1.91064 a 2.6017515,1.8200499 0 0 0 -5.203503,0 v 1.918875 h -2.778339 a 2.6017509,1.8200495 0 0 0 0,3.640099 h 2.743022 v 1.918875 a 2.601751,1.8200495 0 0 0 5.203501,0 v -1.927111 h 2.743023 a 2.6017506,1.8200493 0 0 0 0,-3.640098 z"
     id="path842"
     style="stroke-width:0.984655" />
  <path
     d="m 47.91061,80.010759 a 2.589978,1.8118138 0 0 0 -3.684833,0 l -1.942483,1.400038 -1.942483,-1.400038 a 2.6055704,1.8227215 0 0 0 -3.684833,2.577717 l 1.942484,1.358861 -1.942484,1.358859 a 2.6135233,1.8282849 0 0 0 3.696604,2.577717 l 1.942485,-1.35886 1.942482,1.35886 a 2.6135233,1.8282849 0 1 0 3.696606,-2.577717 l -1.942483,-1.358859 1.942483,-1.358861 a 2.6135233,1.8282849 0 0 0 0,-2.577717 z"
     id="path844"
     style="stroke-width:0.984655" />
  <path
     d="M 98.474043,95.666478 H 67.594441 a 2.6017506,1.8200493 0 0 1 -2.60175,-1.820049 V 74.081187 a 2.6017506,1.8200493 0 0 1 2.60175,-1.820049 h 30.879602 a 2.6017506,1.8200493 0 0 1 2.601757,1.820049 V 93.846429 A 2.6135233,1.8282849 0 0 1 98.474043,95.67471 Z M 70.219738,92.018139 H 95.884066 V 75.884765 H 70.196194 Z"
     id="path846"
     style="stroke-width:0.984655" />
  <path
     d="M 57.717208,95.666478 H 26.84938 A 2.6017506,1.8200493 0 0 1 24.24763,93.846429 V 74.081187 a 2.6017506,1.8200493 0 0 1 2.60175,-1.820049 h 30.879601 a 2.6017506,1.8200493 0 0 1 2.60175,1.820049 V 93.846429 A 2.6135233,1.8282849 0 0 1 57.717208,95.67471 Z M 29.462903,92.018139 H 55.12723 V 75.884765 h -25.6761 z"
     id="path848"
     style="stroke-width:0.984655" />
  <path
     d="M 98.474043,68.859869 H 67.594441 A 2.6017506,1.8200493 0 0 1 64.992691,67.03982 V 47.274578 a 2.6017506,1.8200493 0 0 1 2.60175,-1.820049 h 30.879602 a 2.6017506,1.8200493 0 0 1 2.601757,1.820049 V 67.03982 a 2.6135233,1.8282849 0 0 1 -2.601757,1.828284 z M 70.219738,65.211535 H 95.884066 V 49.078157 H 70.196194 Z"
     id="path850"
     style="stroke-width:0.984655" />
  <path
     d="M 57.717208,68.859869 H 26.84938 A 2.6017506,1.8200493 0 0 1 24.24763,67.03982 V 47.274578 a 2.6017506,1.8200493 0 0 1 2.60175,-1.820049 h 30.879601 a 2.6017506,1.8200493 0 0 1 2.60175,1.820049 V 67.03982 a 2.6135233,1.8282849 0 0 1 -2.613523,1.828284 z M 29.462903,65.211535 H 55.12723 V 49.078157 h -25.6761 z"
     id="path852"
     style="stroke-width:0.984655" />
  <path
     d="M 98.474043,38.841409 H 26.84938 A 2.6017506,1.8200493 0 0 1 24.24763,37.02136 V 20.995043 a 2.6017506,1.8200493 0 0 1 2.60175,-1.820049 h 71.624663 a 2.6017506,1.8200493 0 0 1 2.601757,1.820049 v 16.018081 a 2.6135233,1.8282849 0 0 1 -2.601757,1.828285 z M 29.45113,35.193075 H 95.860519 V 22.839799 H 29.45113 Z"
     id="path854"
     style="stroke-width:0.984655" />
  <path
     d="M 106.17334,104.10788 H 19.138309 A 7.5933444,5.3119086 0 0 1 11.556737,98.804211 V 16.029026 a 7.5933444,5.3119086 0 0 1 7.581572,-5.303673 h 87.035031 a 7.5933444,5.3119086 0 0 1 7.58157,5.303673 v 33.139721 a 2.6017506,1.8200493 0 1 1 -5.2035,0 V 16.029026 a 2.3545253,1.6471034 0 0 0 -2.35452,-1.647103 H 19.138309 a 2.3545253,1.6471034 0 0 0 -2.354525,1.647103 v 82.775185 a 2.3545253,1.6471034 0 0 0 2.354525,1.647099 h 87.035031 a 2.3545253,1.6471034 0 0 0 2.35453,-1.647099 V 65.664488 a 2.6017506,1.8200493 0 0 1 5.20349,0 v 33.139723 a 7.5697993,5.2954375 0 0 1 -7.5698,5.303669 z"
     id="path856"
     style="stroke-width:0.984655" />
  <metadata
     id="metadata861">
    <rdf:RDF>
      <cc:Work
         rdf:about="">
        <dc:title>matematica</dc:title>
      </cc:Work>
    </rdf:RDF>
  </metadata>
</svg>
