<?xml version="1.0" encoding="UTF-8" standalone="no"?>
<!-- Generator: Adobe Illustrator 23.0.0, SVG Export Plug-In . SVG Version: 6.00 Build 0)  -->

<svg
   version="1.1"
   id="Camada_1"
   x="0px"
   y="0px"
   viewBox="0 0 124.99999 113"
   xml:space="preserve"
   sodipodi:docname="multiculturalismo-trabalho-e-qualidade-de-vida.svg"
   width="125"
   height="113"
   inkscape:version="1.2 (1:1.2.1+202207142221+cd75a1ee6d)"
   xmlns:inkscape="http://www.inkscape.org/namespaces/inkscape"
   xmlns:sodipodi="http://sodipodi.sourceforge.net/DTD/sodipodi-0.dtd"
   xmlns="http://www.w3.org/2000/svg"
   xmlns:svg="http://www.w3.org/2000/svg"><defs
   id="defs921" /><sodipodi:namedview
   id="namedview919"
   pagecolor="#ffffff"
   bordercolor="#000000"
   borderopacity="0.25"
   inkscape:showpageshadow="2"
   inkscape:pageopacity="0.0"
   inkscape:pagecheckerboard="0"
   inkscape:deskcolor="#d1d1d1"
   showgrid="false"
   inkscape:zoom="1.6966061"
   inkscape:cx="-25.344717"
   inkscape:cy="28.881189"
   inkscape:window-width="1366"
   inkscape:window-height="671"
   inkscape:window-x="0"
   inkscape:window-y="27"
   inkscape:window-maximized="1"
   inkscape:current-layer="Camada_1" />
<path
   d="m 71.579901,77.592705 c -0.213161,-0.247521 -0.382879,-0.447451 -0.579492,-0.675928 0.122141,-0.09902 0.225588,-0.188503 0.335289,-0.274182 0.651923,-0.512188 1.305927,-1.024375 1.957851,-1.538461 0.04973,-0.03996 0.09107,-0.08953 0.14281,-0.127564 0.221454,-0.163752 0.341489,-0.152315 0.461536,0.0743 0.376666,0.712117 0.970652,1.258572 1.581187,1.79551 0.676765,0.594058 1.492207,0.953908 2.363518,1.209058 0.54637,0.159932 1.119676,0.247521 1.680539,0.367468 0.883726,0.186604 1.771598,0.356063 2.649111,0.561689 0.846482,0.196121 1.701233,0.382714 2.520808,0.654997 1.194173,0.394129 2.363519,0.854905 3.539063,1.298546 1.616375,0.609293 3.081672,1.458489 4.474526,2.418116 1.581199,1.089112 2.874713,2.423835 3.851578,4.002282 0.47602,0.769225 0.749211,1.616523 0.974799,2.477134 0.277325,1.06817 0.3063,2.15918 0.430482,3.244472 0.275258,2.414307 0.167638,4.832435 0.175917,7.250548 0.0026,0.81683 -0.115868,1.63366 -0.175917,2.4524 -0.01867,0.25704 -0.01653,0.51789 -0.0456,0.77493 -0.219388,1.99924 -1.514968,3.6348 -3.574252,4.23837 -0.488433,0.14281 -0.980999,0.22468 -1.504607,0.22468 -20.017433,-0.007 -40.034852,-0.002 -60.050205,-0.0134 -1.893712,-0.002 -3.35693,-0.81493 -4.360704,-2.28674 -0.533969,-0.78445 -0.780252,-1.6527 -0.856831,-2.58568 -0.14901,-1.80311 -0.302152,-3.608124 -0.242149,-5.415049 0.0456,-1.348059 0.0352,-2.701826 0.242149,-4.046076 0.136596,-0.885374 0.190413,-1.780264 0.316661,-2.667548 0.144864,-1.011038 0.413921,-1.995416 0.852685,-2.939819 0.521541,-1.12148 1.295579,-2.081107 2.166891,-2.977907 1.361811,-1.39946 3.011308,-2.486662 4.797402,-3.349183 2.119287,-1.022465 4.311021,-1.915456 6.655911,-2.439069 1.024468,-0.22849 2.042722,-0.483628 3.065124,-0.714016 0.449098,-0.100903 0.904421,-0.177077 1.357666,-0.249431 1.957863,-0.312258 3.508019,-1.199531 4.606988,-2.734184 0.04348,-0.06094 0.103465,-0.114238 0.163503,-0.178975 0.954104,0.632134 1.891633,1.254752 2.887126,1.913546 -0.635375,0.654997 -1.258336,1.294748 -1.906127,1.961149 0.329076,0.264667 0.64159,0.506481 0.943757,0.761619 1.098966,0.92345 2.040643,1.957341 2.527009,3.27493 0.35597,0.965346 -0.0067,1.6527 -0.894088,2.124902 -0.972717,0.517895 -1.964063,-0.09329 -2.353157,-0.816828 -0.109743,-0.201829 -0.130407,-0.45126 -0.264909,-0.634044 -0.34149,-0.462675 -0.662285,-0.963446 -1.105181,-1.334723 -0.631243,-0.529321 -1.359744,-0.963447 -2.057206,-1.422312 -0.107608,-0.07043 -0.285618,-0.106644 -0.411853,-0.08191 -0.625029,0.125665 -1.243857,0.276081 -1.864738,0.41888 -0.02895,0.0077 -0.05374,0.03433 -0.111741,0.07231 0.28974,0.30655 0.571212,0.615 0.865099,0.913933 0.69954,0.714016 1.14865,1.565122 1.48806,2.454294 0.248349,0.653087 0.07867,1.279514 -0.672619,1.805025 -0.670565,0.470292 -1.328703,0.462686 -2.0034,0 -0.339423,-0.232297 -0.608481,-0.527422 -0.722301,-0.902507 -0.202828,-0.67213 -0.614682,-1.216675 -1.179693,-1.654599 -0.670551,-0.517905 -1.374225,-0.997724 -2.061352,-1.496575 -0.200746,-0.146608 -0.391159,-0.169461 -0.639509,-0.0743 -1.336982,0.519806 -2.688434,1.009141 -4.023349,1.536563 -0.960305,0.378894 -1.808854,0.944403 -2.661538,1.492756 -0.985147,0.634044 -1.815068,1.408988 -2.539437,2.286744 -0.798867,0.969155 -1.274886,2.052548 -1.4032,3.263505 -0.105612,0.995814 -0.217309,1.991618 -0.3001,2.991242 -0.06627,0.801593 -0.08694,1.606995 -0.130408,2.412398 -0.01668,0.287518 -0.05801,0.575025 -0.06214,0.862532 -0.0248,1.247145 0.01867,2.490467 0.157291,3.731897 0.0704,0.63404 0.09107,1.2719 0.140742,1.90784 0.02692,0.33512 0.09107,0.65881 0.306302,0.9463 0.351836,0.47031 0.869244,0.62644 1.448735,0.67213 0.13241,0.0104 0.264912,0.002 0.397374,0.002 19.686277,0 39.372568,0 59.056777,-0.002 0.213174,0 0.43255,0.003 0.641591,-0.0343 0.956156,-0.17516 1.336982,-0.75209 1.388719,-1.54417 0.06627,-1.03199 0.09735,-2.06397 0.138663,-3.09785 0.0248,-0.637854 0.07654,-1.275707 0.06,-1.913559 -0.03934,-1.45849 -0.103465,-2.915069 -0.177986,-4.37166 -0.04348,-0.86442 -0.09107,-1.728862 -0.188345,-2.587575 -0.140729,-1.250954 -0.608455,-2.391466 -1.502541,-3.364418 -0.30838,-0.337021 -0.59812,-0.693073 -0.943757,-0.997714 -1.372158,-1.210968 -2.936796,-2.170595 -4.677352,-2.871285 -1.163131,-0.468382 -2.342811,-0.904417 -3.53285,-1.317589 -0.583639,-0.201829 -1.206587,-0.30845 -1.806774,-0.474101 -0.238015,-0.06668 -0.422201,-0.0055 -0.593986,0.123755 -0.25663,0.192312 -0.511195,0.386523 -0.753344,0.59216 -1.614307,1.370899 -2.9844,2.934112 -4.08338,4.678209 -0.745063,1.184307 -1.355611,2.439059 -1.779879,3.754749 -0.266978,0.828255 -0.486366,1.669834 -0.658138,2.51903 -0.107609,0.53313 -0.0932,1.089101 -0.12414,1.633657 -0.01867,0.333201 -0.01653,0.67022 -0.0372,1.003421 -0.06414,1.001522 -1.394934,1.742198 -2.388361,1.330925 -0.718155,-0.297035 -1.088619,-0.801593 -1.088619,-1.538461 -0.0026,-0.86824 0.0248,-1.730761 0.19868,-2.587575 0.173851,-0.849197 0.285607,-1.70792 0.488432,-2.5495 0.281474,-1.176689 0.774053,-2.290553 1.336983,-3.373945 0.413922,-0.793976 0.813361,-1.605097 1.318356,-2.349571 0.960304,-1.420414 2.005467,-2.789404 3.344503,-3.943252 0.0456,-0.03808 0.0704,-0.09902 0.13661,-0.196121 -0.33321,-0.131372 -0.645736,-0.24561 -0.952038,-0.376994 -0.44911,-0.190403 -0.90442,-0.371288 -1.332836,-0.597868 -0.326995,-0.173267 -0.620895,-0.03808 -0.906501,0.0266 -1.788158,0.401758 -3.474898,1.060552 -5.140943,1.76504 -1.930969,0.816829 -3.714982,1.854529 -5.337571,3.120705 -1.496339,1.167174 -2.816761,2.484763 -3.892967,3.992755 -1.007906,1.414695 -1.848177,2.920788 -2.413188,4.533501 -0.424268,1.214766 -0.658136,2.473337 -0.865097,3.735706 -0.144876,0.879667 -0.151091,1.755524 -0.151091,2.637085 0,0.71401 -0.376665,1.24334 -1.045149,1.53274 -0.596054,0.25895 -1.235576,0.20945 -1.779879,-0.17897 -0.509128,-0.36558 -0.77612,-0.84159 -0.755412,-1.4604 0.05374,-1.626038 0.235937,-3.231134 0.662272,-4.820996 0.347703,-1.300456 0.697473,-2.595194 1.262471,-3.829013 0.993426,-2.172494 2.291088,-4.179348 3.94057,-5.984373 0.860965,-0.944403 1.825416,-1.7936 2.841604,-2.602811 1.19624,-0.95201 2.512514,-1.732661 3.837084,-2.507604 0.906487,-0.531231 1.877151,-0.953919 2.868497,-1.329016 1.09898,-0.415081 2.204149,-0.818738 3.305196,-1.23 0.08481,-0.02859 0.161424,-0.08379 0.31458,-0.167561 z M 106.5628,23.145032 c -0.16971,-1.468007 -0.53603,-2.89603 -1.0431,-4.297397 -0.50499,-1.395656 -1.35974,-2.602812 -2.33868,-3.73571 -0.50912,-0.590249 -1.10517,-1.136708 -1.74675,-1.607002 C 100.50708,12.823278 99.552972,12.14735 98.522303,11.618029 96.893502,10.782157 95.1902,10.064336 93.368932,9.6435476 92.379653,9.415062 91.373811,9.232273 90.367971,9.0704331 89.65603,8.9561909 88.931661,8.8724171 88.209346,8.8381443 c -0.939608,-0.045704 -1.887485,-0.087589 -2.822961,-0.022819 -1.115528,0.076163 -2.22899,0.2227681 -3.327957,0.418882 -1.001706,0.178979 -1.997186,0.4150819 -2.963704,0.7140164 -0.920983,0.2837003 -1.802654,0.6721183 -2.696728,1.0262673 -2.100673,0.835873 -3.8909,2.058261 -5.341704,3.686207 -0.776105,0.870145 -1.454951,1.806929 -1.96821,2.83891 -0.399441,0.805409 -0.660218,1.645085 -0.902367,2.499993 -0.231789,0.814923 -0.370453,1.633661 -0.428402,2.463821 -0.118013,1.664121 0.09721,3.305397 0.507046,4.925728 0.370465,1.469909 0.889952,2.886508 1.608107,4.249793 1.171412,2.222003 2.613936,4.261221 4.53041,5.999606 0.326995,0.297031 0.54017,0.609288 0.643656,1.037696 0.459458,1.888802 1.34733,3.61385 2.500115,5.224662 1.173478,1.637465 2.663605,2.974091 4.497287,3.981321 1.459098,0.801604 3.025789,1.273795 4.735304,1.296647 0.610547,0.0077 1.229361,0.02473 1.831629,-0.05144 1.436322,-0.182784 2.798133,-0.597855 4.023349,-1.330914 0.664351,-0.396039 1.363878,-0.767327 1.943383,-1.256655 1.121729,-0.944397 2.14413,-1.980193 2.893327,-3.221623 0.546383,-0.90632 1.119676,-1.801213 1.428043,-2.800827 0.279405,-0.90061 0.469804,-1.825967 0.7161,-2.736096 0.0352,-0.133279 0.128276,-0.279893 0.244217,-0.367475 1.293514,-0.984388 2.425584,-2.109666 3.356934,-3.389173 0.59603,-0.818738 1.13415,-1.679358 1.60189,-2.56473 0.38702,-0.733052 0.65813,-1.519419 0.93339,-2.296266 0.54433,-1.538456 0.85269,-3.114993 0.81544,-4.739129 0.004,-0.428407 0.0435,-0.858723 -0.004,-1.279511 z M 96.266406,35.170895 c -0.03934,0.575017 -0.05374,1.151941 -0.105612,1.726957 -0.101468,1.140511 -0.351823,2.254369 -0.871297,3.297782 -0.515341,1.03579 -1.08242,2.050636 -1.904061,2.922689 -1.185893,1.260465 -2.613935,2.189631 -4.364839,2.644699 -1.916475,0.498856 -3.708782,0.186592 -5.39552,-0.773043 -1.663979,-0.946301 -2.911968,-2.233425 -3.777067,-3.830906 -0.440829,-0.813022 -0.84855,-1.650796 -1.179692,-2.505704 -0.29182,-0.752094 -0.486366,-1.540362 -0.523621,-2.351482 -0.0248,-0.544553 -0.09935,-1.087202 -0.161425,-1.629853 -0.05174,-0.468386 0.124143,-0.900604 0.25663,-1.336625 0.473952,-1.555594 1.237644,-3.004565 1.918542,-4.487803 0.24423,-0.531223 0.641589,-0.860626 1.13417,-1.148131 0.991346,-0.580726 2.0034,-1.136708 3.118915,-1.483244 0.697473,-0.217057 1.438389,-0.321779 2.164838,-0.456965 0.320782,-0.05903 0.654004,-0.07426 0.983066,-0.09521 2.365585,-0.158031 4.497301,0.407465 6.403429,1.717434 0.75541,0.519806 1.5129,1.033889 2.098593,1.723147 0.126276,0.146614 0.242149,0.338924 0.260777,0.519804 0.07654,0.771131 0.11587,1.544174 0.171785,2.381941 -0.07654,1.014853 -0.155223,2.088725 -0.227669,3.164504 z M 74.655374,32.806084 c -0.358051,-0.272274 -0.54017,-0.635944 -0.732649,-0.980573 -0.668486,-1.188115 -1.343184,-2.378132 -1.796441,-3.653833 -0.345623,-0.96725 -0.585693,-1.961153 -0.691247,-2.976005 -0.07867,-0.755897 -0.130407,-1.51561 -0.130407,-2.273409 0,-0.881568 0.161437,-1.753616 0.380811,-2.610432 0.287686,-1.127185 0.885806,-2.11728 1.606027,-3.057875 1.175546,-1.534645 2.723636,-2.638982 4.588374,-3.362518 1.154851,-0.447449 2.328329,-0.8511 3.508008,-1.243332 0.416002,-0.13899 0.865111,-0.196113 1.301795,-0.270371 1.86059,-0.308454 3.739823,-0.411269 5.623175,-0.291321 1.127943,0.07236 2.253817,0.199929 3.45835,0.512187 -8.491674,4.81149 -14.104502,11.566993 -17.11581,20.207482 z m 17.035085,-16.27375 c 0.538117,-0.325594 1.020335,-0.637852 1.525329,-0.917744 0.821628,-0.45316 1.659832,-0.879666 2.485621,-1.329016 0.304233,-0.16565 0.581558,-0.150418 0.887858,-0.0037 1.841976,0.881564 3.309327,2.138224 4.517993,3.682397 0.83199,1.062445 1.28525,2.254368 1.56257,3.509127 0.26905,1.222389 0.41599,2.460009 0.31665,3.710958 -0.12001,1.536553 -0.40979,3.042638 -1.0762,4.463047 -0.2794,0.595964 -0.64779,1.159558 -0.99756,1.72696 -0.22351,0.363666 -0.48636,0.706393 -0.73265,1.056734 0.0311,-6.591755 -2.773295,-11.884962 -8.489611,-15.898657 z m 2.301434,7.012548 c -1.558424,-0.603582 -3.098234,-1.001521 -4.700127,-1.134805 -1.614308,-0.133283 -3.214122,-0.0076 -4.811882,0.335109 1.285233,-1.473723 2.640843,-2.850334 4.236536,-4.0632 1.914396,0.942496 4.300674,3.124513 5.275473,4.862896 z m -36.994568,0.15613 C 56.902112,22.657598 56.81934,21.614195 56.70964,20.572683 56.537869,18.929506 56.107386,17.345355 55.407846,15.824034 54.898719,14.715883 54.331641,13.653438 53.466542,12.716654 52.497958,11.669436 51.345174,10.883074 49.991644,10.353749 48.49737,9.7692126 46.914105,9.4550467 45.31221,9.2341808 44.676849,9.1465916 44.039391,9.0723353 43.40195,9.0133148 42.451992,8.9276246 41.499969,8.8362367 40.545866,8.796252 c -0.641591,-0.026628 -1.287314,0.00949 -1.928889,0.05712 -1.067926,0.079971 -2.133784,0.1827846 -3.197574,0.2970268 -0.654005,0.070444 -1.308009,0.1580356 -1.951665,0.2856028 -0.724368,0.1428041 -1.465297,0.272279 -2.14205,0.5331297 -0.84855,0.3274947 -1.661924,0.7463767 -2.44631,1.1919237 -1.519102,0.862527 -2.707064,2.037311 -3.592866,3.461531 -0.871314,1.403267 -1.291449,2.953151 -1.661913,4.51255 -0.140737,0.590249 -0.20903,1.195733 -0.298021,1.795502 -0.06829,0.464583 -0.151087,0.931074 -0.171783,1.399466 -0.03519,0.820634 -0.02482,1.643177 -0.04136,2.465719 -0.01033,0.506474 0.04966,0.99962 0.275259,1.468006 0.04555,0.0933 0.09727,0.203732 0.08486,0.298934 -0.04349,0.375093 -0.09312,0.753995 -0.17592,1.123377 -0.266981,1.190023 -0.24835,2.397178 -0.122102,3.587195 0.103477,0.974867 0.339418,1.938306 0.596056,2.897937 0.504986,1.877378 1.407346,3.571962 2.572544,5.150408 1.25419,1.698393 2.831243,3.105472 4.69598,4.261221 2.233123,1.382326 4.700115,2.128703 7.330611,2.463812 1.361823,0.173267 2.733982,0.137093 4.087514,-0.118046 0.403573,-0.07617 0.800946,-0.173269 1.206586,-0.241814 0.941691,-0.161842 1.862671,-0.405559 2.729837,-0.773038 1.701247,-0.721631 3.267938,-1.631755 4.667005,-2.798927 1.324568,-1.106238 2.438031,-2.359095 3.338317,-3.762365 0.533955,-0.833964 0.937541,-1.742186 1.363891,-2.631367 0.670552,-1.405178 0.993413,-2.897938 1.115514,-4.415454 0.124142,-1.547976 0.0828,-3.097854 -0.217307,-4.634408 -0.0248,-0.127567 -0.0352,-0.289412 0.02692,-0.394134 0.219388,-0.363671 0.238003,-0.752093 0.233869,-1.150037 -0.004,-0.472202 -0.0026,-0.944399 -0.0026,-1.4166 0.02692,-0.0056 0.05174,-0.0076 0.07654,-0.0095 z m -26.662997,4.244081 c 0.738864,0.06093 1.48186,0.08949 2.222776,0.127573 1.152783,0.05902 2.305567,0.112335 3.460419,0.167552 0.165571,0.0076 0.331141,0.01714 0.494645,0.01714 2.417322,0.0021 4.834643,0.01902 7.249899,-0.0076 1.086553,-0.01142 2.173105,-0.110433 3.259658,-0.167552 0.329061,-0.01714 0.660216,-0.02095 0.991346,-0.03809 0.494646,-0.02663 0.987212,-0.0495 1.479792,-0.08949 1.082405,-0.08759 2.166892,-0.182789 3.249312,-0.279893 0.126275,-0.01142 0.252496,-0.0495 0.415987,-0.08378 0.0476,0.158035 0.11587,0.29703 0.130408,0.437928 0.06,0.588345 0.151077,1.178593 0.14901,1.768841 -0.004,1.873569 -0.444976,3.661454 -1.227295,5.39793 -0.809228,1.795502 -2.022014,3.313013 -3.555611,4.607757 -0.674698,0.571207 -1.473579,1.024367 -2.255898,1.477528 -1.185893,0.685448 -2.481472,1.123377 -3.868125,1.340439 -1.357677,0.213248 -2.713289,0.306548 -4.085446,0.129475 -0.916835,-0.118085 -1.819202,-0.281833 -2.698795,-0.557915 -0.867165,-0.272279 -1.655697,-0.681645 -2.442163,-1.102434 -1.378358,-0.736861 -2.527009,-1.72696 -3.493514,-2.865565 -1.016187,-1.197636 -1.883366,-2.490471 -2.369732,-3.973715 -0.523609,-1.59939 -0.819567,-3.223525 -0.749201,-4.895264 0.0207,-0.485532 0.08278,-0.967249 0.140737,-1.450873 0.0124,-0.0971 0.08693,-0.1885 0.134526,-0.281799 1.140357,0.110438 2.251751,0.228485 3.367279,0.321784 z m 20.706613,-3.362519 c -1.117608,0.05903 -2.228989,0.207543 -3.342451,0.319882 -0.09734,0.0095 -0.196613,0.02856 -0.293886,0.03044 -2.313848,0.0419 -4.625616,0.0971 -6.939464,0.118051 -1.670179,0.01521 -3.344503,0.0419 -5.010562,-0.04378 -1.380426,-0.07044 -2.769159,-0.01902 -4.147531,-0.224675 -1.053431,-0.158037 -2.131716,-0.180883 -3.195494,-0.279892 -0.424268,-0.03996 -0.844416,-0.123764 -1.266614,-0.190404 -0.153152,-0.02474 -0.21731,-0.10662 -0.204894,-0.258948 0.08693,-1.012944 0.117965,-2.031601 0.260773,-3.036932 0.175919,-1.249042 0.444977,-2.48476 0.92513,-3.672874 0.02895,-0.07045 0.0704,-0.135186 0.11174,-0.215154 4.017149,0.693061 8.052912,1.035788 12.134225,1.060541 4.0813,0.02476 8.127411,-0.224676 12.150773,-0.925356 0.858898,2.30197 1.256258,4.615371 1.221082,7.004931 -0.836137,0.154227 -1.608108,0.272279 -2.402841,0.314164 z M 31.26359,13.590603 c 1.041031,-0.599769 2.183455,-0.912032 3.392122,-1.05864 0.800933,-0.0971 1.597745,-0.213253 2.396626,-0.312264 0.324929,-0.03996 0.656071,-0.06663 0.983066,-0.07617 1.121741,-0.02856 2.243483,-0.07807 3.363144,-0.05523 1.069992,0.02095 2.133784,0.140896 3.193441,0.285603 1.291446,0.177072 2.54357,0.485532 3.783266,0.854914 0.63331,0.190403 1.169346,0.52551 1.684686,0.927259 -3.241043,0.660701 -6.525543,0.801598 -9.805895,0.795888 -3.292781,-0.0057 -6.585548,-0.190404 -9.932131,-0.853007 0.360117,-0.194212 0.656071,-0.34463 0.941675,-0.508377 z m 25.984152,27.774105 c -2.061338,0.685449 -3.969532,1.641274 -5.645938,2.972187 -1.341115,1.062456 -2.471125,2.286746 -3.383839,3.669077 -0.93133,1.408976 -1.579119,2.934102 -1.984773,4.544916 -0.281472,1.113863 -0.45531,2.237231 -0.430482,3.381563 0.0079,0.348436 0.02895,0.696871 0.06627,1.043407 0.07868,0.710207 0.138664,1.422313 0.269059,2.124902 0.151077,0.805401 0.331128,1.606996 0.567078,2.395263 0.312501,1.052936 0.625015,2.113487 1.053431,3.130234 0.687112,1.631757 1.552223,3.19116 2.597386,4.657256 0.418068,0.584541 0.879592,1.140524 1.314208,1.713628 0.976865,1.285221 2.168972,2.372422 3.5908,3.236854 0.453244,0.276081 0.94789,0.493144 1.425975,0.736868 2.291075,1.165263 4.749798,1.502273 7.328543,1.268076 2.051005,-0.186593 3.847432,-0.963436 5.494861,-2.04493 1.626723,-1.06626 2.9844,-2.40669 4.178574,-3.868988 0.960305,-1.176689 1.833682,-2.4086 2.595307,-3.716662 1.065858,-1.835495 1.854391,-3.756659 2.533223,-5.729235 0.333208,-0.971052 0.565011,-1.96116 0.722301,-2.970288 0.246297,-1.595581 0.209041,-3.187352 -0.109743,-4.76389 -0.304234,-1.500374 -0.879593,-2.932202 -1.632936,-4.287879 -1.130024,-2.033503 -2.727769,-3.726186 -4.681501,-5.129461 -1.701219,-1.222387 -3.623909,-2.05445 -5.67698,-2.629467 -1.475644,-0.413175 -2.996813,-0.599768 -4.557318,-0.523608 -1.933021,-0.102814 -3.820535,0.1885 -5.633524,0.790177 z M 73.7675,58.445774 C 73.177661,56.9454 72.049719,55.995278 70.404356,55.45835 c -1.949584,-0.634043 -4.61527,0.451248 -5.563147,2.115375 -0.227667,0.399847 -0.233868,0.367479 -0.718167,0.300832 -0.983067,-0.137091 -1.972358,-0.152326 -2.953358,0.03235 -0.07867,0.01524 -0.15729,0.02859 -0.260778,0.04571 -1.136222,-1.884986 -2.845723,-2.958863 -5.196826,-2.608518 -2.295207,0.342728 -3.735677,1.70601 -4.182707,3.867089 -0.548463,-0.104766 -1.03275,-0.188502 -1.512901,-0.289417 -0.320794,-0.06668 -0.413921,-0.215153 -0.447044,-0.618809 -0.02692,-0.333212 -0.0704,-0.664513 -0.09521,-0.997714 -0.03933,-0.544556 -0.09935,-1.09101 -0.09721,-1.637465 0.004,-1.144321 0.20696,-2.261993 0.581559,-3.354902 0.34977,-1.018656 0.757491,-2.010662 1.409414,-2.903653 1.094833,-1.494656 2.458724,-2.749419 4.108208,-3.714761 1.161065,-0.679737 2.44423,-1.132898 3.770865,-1.483244 1.18176,-0.312257 2.392481,-0.43602 3.61563,-0.443634 0.575357,-0.0037 1.152782,0.05712 1.726075,0.114243 1.939236,0.190402 3.723249,0.824444 5.366545,1.75361 1.254191,0.710202 2.380066,1.587956 3.267939,2.690393 0.186266,0.232297 0.378731,0.460776 0.567065,0.691163 0.771984,0.931067 1.268685,1.985911 1.659843,3.092157 0.461525,1.309961 0.759558,2.646594 0.697462,4.025111 -0.03307,0.754002 -0.182119,1.506093 -0.28974,2.256274 -0.03107,0.220872 -0.14281,0.415082 -0.403588,0.472202 -0.478085,0.104766 -0.958223,0.19612 -1.490126,0.304651 -0.07454,-0.285608 -0.113875,-0.510277 -0.196613,-0.721632 z m -21.548948,4.28216 c 0.128276,0.02661 0.24215,0.144709 0.34977,0.234196 0.39116,0.325594 0.74713,0.694972 1.169333,0.980581 1.626734,1.104335 4.271712,1.005331 5.809454,-0.350345 0.680899,-0.599766 1.260392,-1.235719 1.552211,-2.075389 0.04348,-0.123766 0.196613,-0.258958 0.333209,-0.306562 0.904434,-0.316066 1.800573,-0.306539 2.680166,0.100903 0.209027,0.09715 0.324929,0.230387 0.409787,0.426497 0.943756,2.206773 3.493527,3.476759 6.030897,2.762754 0.914767,-0.257049 1.639136,-0.78256 2.243469,-1.443254 0.260764,-0.283699 0.542238,-0.472202 0.943744,-0.521704 0.235936,-0.02859 0.467738,-0.08754 0.771971,-0.148517 -0.101469,0.277991 -0.155224,0.495053 -0.254563,0.693062 -0.753343,1.504194 -1.541876,2.989333 -2.59324,4.348807 -1.03895,1.34425 -2.212428,2.579969 -3.534917,3.688114 -1.119675,0.938684 -2.454577,1.5118 -3.934357,1.824058 -1.359744,0.285608 -2.682245,0.123765 -4.008867,-0.173269 -0.974799,-0.218962 -1.868872,-0.603574 -2.725703,-1.060541 -1.237629,-0.658794 -2.175171,-1.614612 -3.050616,-2.637077 -1.370107,-1.6013 -2.386294,-3.387282 -3.274152,-5.2399 -0.202828,-0.422699 -0.339423,-0.873947 -0.531904,-1.376618 0.614682,0.100903 1.119675,0.171369 1.614308,0.274182 z m 16.9254,-1.241426 c -0.740917,0.03621 -1.508754,-0.698781 -1.483913,-1.429919 0.0248,-0.712116 0.65607,-1.201451 1.33905,-1.210968 1.109314,-0.01524 1.56257,0.677827 1.533594,1.300445 0.02694,0.767326 -0.707819,1.306174 -1.388731,1.340442 z M 56.399206,58.839902 c 1.030668,-0.0022 1.473565,0.712106 1.479778,1.281412 0.0079,0.710207 -0.69954,1.397562 -1.430108,1.363283 -0.720235,-0.03433 -1.496354,-0.647368 -1.448738,-1.407077 0.0067,-0.714004 0.606388,-1.235708 1.399068,-1.237618 z M 27.000159,44.41306 c -0.103465,-0.0914 -0.204889,-0.182789 -0.310445,-0.27037 -0.206959,-0.173269 -0.434614,-0.329398 -0.620884,-0.5198 -0.583637,-0.599774 -1.161062,-1.207155 -1.721927,-1.822162 -0.149017,-0.163748 -0.269052,-0.22848 -0.502921,-0.14851 -0.339419,0.116144 -0.693324,0.196113 -1.043092,0.285602 -1.730204,0.441734 -3.348654,1.096724 -4.876039,1.978287 -1.539804,0.889187 -2.911962,1.944018 -4.128907,3.175931 -1.676395,1.696484 -2.918172,3.640499 -3.808108,5.776827 -0.3290747,0.793976 -0.5670791,1.612714 -0.7367852,2.452384 -0.2090317,1.031992 -0.4077189,2.060164 -0.4097907,3.111189 -0.00614,6.410881 -0.00228,12.82365 -0.00228,19.234531 0,1.121469 0.4387646,2.079197 1.3100709,2.854141 0.887874,0.790167 1.922686,1.241426 3.205855,1.210957 1.715718,-0.04184 3.433507,-0.01 5.149233,-0.01 3.543198,0 7.084327,0 10.627535,0 0.165559,0 0.33941,-0.01711 0.492567,0.02473 0.264912,0.07231 0.451177,-0.02473 0.627095,-0.175179 1.14865,-0.980569 2.502182,-1.688877 3.835018,-2.421924 0.279404,-0.154225 0.596053,-0.249432 0.892005,-0.380804 0.06414,-0.02859 0.111741,-0.08953 0.246284,-0.205637 -0.250417,-0.05144 -0.413922,-0.104767 -0.579493,-0.114239 -0.144876,-0.01 -0.291806,0.04184 -0.438749,0.04184 -2.665684,0.0033 -5.329289,0.0022 -7.994979,0 -0.138664,0 -0.279396,-0.02473 -0.418062,-0.03621 0,-1.940207 0.0023,-3.825205 -0.0023,-5.71209 0,-0.226579 -0.02482,-0.455068 -0.06623,-0.677839 -0.130381,-0.69687 -0.658139,-1.081482 -1.330766,-1.283321 -0.587775,-0.177078 -1.098976,0.07043 -1.543943,0.420789 -0.266981,0.211356 -0.509129,0.455068 -0.525681,0.797796 -0.03724,0.773033 -0.06209,1.547977 -0.0683,2.32292 -0.004,0.470292 0.05173,0.940583 0.05796,1.408976 0.0083,0.832064 -0.0023,1.666037 -0.0023,2.498099 0,0.146608 -0.06208,0.234186 -0.219377,0.251319 -0.09727,0.01 -0.198687,0.0077 -0.298026,0.0077 -2.798136,0 -5.594205,0.0022 -8.392336,0 -0.622956,0 -0.954101,-0.255139 -1.059649,-0.811121 -0.03101,-0.163741 -0.02896,-0.333201 -0.02482,-0.498852 0.01658,-0.677837 0.05171,-1.355676 0.06004,-2.031604 0.004,-0.317977 -0.06209,-0.635943 -0.05795,-0.952009 0.01033,-0.832064 0.05171,-1.664126 0.05589,-2.49619 0.0023,-0.53123 -0.05795,-1.062451 -0.05589,-1.591771 0.0023,-0.710207 0.04349,-1.420414 0.05795,-2.130609 0.0083,-0.36558 0,-0.73115 -0.0061,-1.096729 -0.01448,-0.797785 -0.04349,-1.597479 -0.04759,-2.395264 -0.0023,-0.409375 0.05172,-0.818738 0.05172,-1.226192 0,-0.571216 -0.03931,-1.140524 -0.03931,-1.711729 0,-0.542646 0.02278,-1.085303 0.04555,-1.626039 0.03724,-0.894901 0.07037,-1.791701 0.12625,-2.684692 0.06209,-1.007231 0.308376,-1.98781 0.685049,-2.926494 0.796806,-1.984002 1.914399,-3.790927 3.508016,-5.35033 1.477712,-1.445153 3.205848,-2.539977 5.155436,-3.33205 1.48599,-0.603579 3.081673,-0.872047 4.700119,-1.009141 0.138664,-0.01142 0.273193,-0.04571 0.409788,-0.07044 0.01204,-0.0495 0.02281,-0.0933 0.0332,-0.135184 z m 71.762214,3.219714 c 0.428415,0.01899 0.85683,0.02859 1.283167,0.07043 1.06586,0.104767 2.12345,0.257049 3.13964,0.584553 1.64535,0.53122 3.20377,1.207148 4.56558,2.239129 1.24799,0.946302 2.33868,2.012561 3.19757,3.273032 1.52325,2.233432 2.26211,4.664873 2.20829,7.30958 -0.0352,1.734569 -0.007,3.47105 -0.007,5.20752 0,3.760466 0.002,7.522833 -0.002,11.28329 0,0.656885 -0.25043,0.891081 -0.94788,0.891081 -2.54979,0.0022 -5.09749,0.0022 -7.64728,0 -0.1428,0 -0.28767,-0.01899 -0.47808,-0.03047 0,-0.19802 0,-0.361761 0,-0.525513 0,-1.812643 -0.007,-3.625275 0.004,-5.436009 0.002,-0.382702 -0.11581,-0.717812 -0.34564,-1.026273 -0.39529,-0.529321 -1.20039,-0.866331 -1.75918,-0.704488 -0.82991,0.239903 -1.46735,0.851095 -1.45287,1.740278 0.0311,1.95925 0.0107,3.920399 0.0107,5.931062 -0.1842,0.01711 -0.37253,0.05144 -0.562944,0.05144 -2.665672,0.0033 -5.32929,0.0033 -7.994962,0 -0.329074,0 -0.658136,-0.0266 -0.985145,-0.04758 -0.175919,-0.01138 -0.318716,0.01711 -0.422202,0.213254 0.322862,0.146607 0.643656,0.262756 0.931329,0.424599 1.295594,0.733058 2.622216,1.422312 3.770866,2.353379 0.304233,0.247532 0.610533,0.392229 1.024455,0.291316 0.124142,-0.03047 0.262845,-0.0055 0.395306,-0.0055 5.294097,0 10.586137,0 15.880237,-0.0022 0.2318,0 0.47187,0.01 0.69127,-0.04184 1.96199,-0.464585 3.41901,-1.896413 3.42522,-3.908974 0.0187,-5.679722 0.0146,-11.359453 -0.002,-17.041085 -0.002,-0.710196 -0.11167,-1.420403 -0.19453,-2.128699 -0.11582,-0.997714 -0.37875,-1.968767 -0.70575,-2.926494 -0.40771,-1.199543 -1.06378,-2.286744 -1.73847,-3.368239 -0.79061,-1.264268 -1.82543,-2.351469 -2.94302,-3.364418 -0.59606,-0.542646 -1.27076,-1.020566 -1.95788,-1.466107 -0.71401,-0.462674 -1.45908,-0.8987 -2.23932,-1.258561 -1.86887,-0.862526 -3.83502,-1.471821 -5.92328,-1.706012 -0.4905,-0.05523 -0.49257,-0.07235 -0.73265,0.3313 -0.536024,0.898703 -1.214869,1.698399 -1.986841,2.433355 -0.06826,0.06668 -0.103465,0.163742 -0.217307,0.354143 0.326996,0.0033 0.523609,-0.0033 0.718154,0.0055 z M 61.900266,98.123873 c 0.02692,0.331302 0.109744,0.658795 0.186267,0.984378 0.0352,0.144709 0.09734,0.293226 0.184198,0.416992 0.43255,0.618807 1.349398,0.927257 2.034443,0.696867 0.844404,-0.283694 1.320422,-1.018652 1.185894,-1.833582 -0.151077,-0.92155 -0.171786,-1.841191 0.01867,-2.760832 0.08893,-0.430318 0.138663,-0.873959 0.295952,-1.283323 0.544304,-1.414694 1.33697,-2.705624 2.415256,-3.840428 0.264911,-0.277991 0.4905,-0.575014 0.517408,-0.961537 0.0496,-0.700679 -0.389093,-1.332823 -1.150718,-1.654598 -0.645723,-0.272283 -1.268683,-0.14281 -1.846109,0.371276 -0.745064,0.660704 -1.276952,1.462299 -1.827469,2.256274 -1.372172,1.976385 -2.015828,4.137474 -2.022029,6.466091 0.0026,0.384612 -0.0228,0.765427 0.0079,1.142422 z M 40.063645,64.529151 c -0.854763,-0.04184 -1.821281,0.910125 -1.765397,1.643173 0.06414,0.854915 0.850617,1.650801 1.763318,1.650801 0.794733,0 1.875086,-0.883475 1.728142,-1.629859 0.0026,-0.883464 -0.807147,-1.618422 -1.726063,-1.664115 z m -0.0476,9.49159 c 0.879593,-0.03433 1.792294,-0.778742 1.800575,-1.534641 0.01067,-0.955829 -0.815428,-1.76504 -1.80472,-1.753614 -0.774039,0.01 -1.786081,0.786358 -1.697088,1.601288 -0.120009,0.793975 0.877513,1.719347 1.701233,1.686967 z m 0.05587,-18.64617 c 0.945824,-0.03047 1.707434,-0.702589 1.734342,-1.54036 0.03107,-1.060552 -0.991346,-1.694585 -1.806787,-1.671744 -0.94581,0.02859 -1.686738,0.714016 -1.686738,1.618422 -0.04134,0.833973 0.77197,1.62605 1.759183,1.593682 z m 47.110897,-1.631758 c -0.97065,-0.05144 -1.76333,0.841579 -1.76953,1.557493 -0.0079,0.824445 0.794733,1.671743 1.786092,1.660317 0.983066,-0.01136 1.808841,-0.889182 1.680526,-1.626038 -0.0026,-0.938685 -0.68918,-1.536552 -1.697088,-1.591772 z m -1.765383,7.758929 c 0,0.974862 0.792666,1.599389 1.734341,1.629848 1.001695,0.03235 1.726064,-0.666412 1.726064,-1.612714 0.0026,-0.948212 -0.668486,-1.578447 -1.67846,-1.580346 -1.005841,-0.118047 -1.781945,0.807313 -1.781945,1.563212 z m -45.343447,0.08191 c 0.896154,-0.0055 1.750903,-0.797785 1.748836,-1.606996 -0.0026,-0.733059 -0.676765,-1.620342 -1.875084,-1.650801 -0.817496,-0.01899 -1.637069,0.809211 -1.635002,1.646993 0.004,0.89489 0.792666,1.616522 1.76125,1.610804 z"
   id="path916"
   style="stroke-width:0.198511" />
</svg>
