<?xml version="1.0" encoding="UTF-8" standalone="no"?>
<!-- Generator: Adobe Illustrator 12.0.0, SVG Export Plug-In . SVG Version: 6.00 Build 51448)  -->

<svg
   version="1.1"
   id="Camada_1"
   width="125"
   height="113"
   viewBox="0 0 125 113"
   overflow="visible"
   enable-background="new 0 0 595.281 841.891"
   xml:space="preserve"
   sodipodi:docname="projeto-de-vida-e-cidadania.svg"
   inkscape:version="1.2 (1:1.2.1+202207142221+cd75a1ee6d)"
   xmlns:inkscape="http://www.inkscape.org/namespaces/inkscape"
   xmlns:sodipodi="http://sodipodi.sourceforge.net/DTD/sodipodi-0.dtd"
   xmlns="http://www.w3.org/2000/svg"
   xmlns:svg="http://www.w3.org/2000/svg"><defs
   id="defs217" /><sodipodi:namedview
   id="namedview215"
   pagecolor="#ffffff"
   bordercolor="#000000"
   borderopacity="0.25"
   inkscape:showpageshadow="2"
   inkscape:pageopacity="0.0"
   inkscape:pagecheckerboard="0"
   inkscape:deskcolor="#d1d1d1"
   showgrid="false"
   inkscape:zoom="3.3932082"
   inkscape:cx="50.10008"
   inkscape:cy="65.719516"
   inkscape:window-width="1366"
   inkscape:window-height="671"
   inkscape:window-x="0"
   inkscape:window-y="27"
   inkscape:window-maximized="1"
   inkscape:current-layer="Camada_1" />
<path
   id="path212"
   style="stroke-width:0.223249"
   d="m 44.68292,7.4849683 c -2.137198,0.1885845 -3.920419,1.1861477 -4.955018,2.7183687 -0.328955,0.487784 -0.731339,1.156883 -0.859504,1.654439 -0.186978,0.725237 -0.07977,1.806626 -0.106944,2.664918 -0.02576,0.812524 -0.146165,1.849889 0.106944,2.558017 0.236945,0.662825 1.11328,1.316919 1.885361,1.33373 1.147922,0.02554 1.887681,-1.031618 2.154701,-1.865697 0.369128,-1.152603 -0.135543,-3.258585 0.320828,-4.105551 0.739555,-1.372061 3.204712,-0.486776 5.168905,-0.74577 v 52.191156 c -0.222345,0.05908 -0.371978,-0.194034 -0.538676,-0.320704 -1.338406,-1.017999 -2.958694,-2.043876 -4.899565,-2.504566 0.09835,-10.698226 0.05544,-22.212121 0.05544,-33.320383 0,-1.553762 0.253182,-3.447811 -0.106944,-4.637516 -0.256921,-0.847854 -1.0244,-1.761401 -2.103208,-1.758796 -2.559032,0.0072 -2.09925,2.980293 -2.09925,5.703993 V 60.58225 c -1.676568,0.0066 -3.793925,0.03895 -5.545184,-0.05345 0.09648,-2.457161 -1.174561,-4.084691 -2.693376,-4.904773 -1.327192,-0.716597 -2.897925,-0.585416 -4.955018,-0.585416 h -5.652127 c -1.848193,0 -3.888938,-0.237455 -5.493695,0 -1.902055,0.281644 -3.905514,1.94798 -4.309401,3.998649 -0.2987176,1.517338 -0.106944,3.435633 -0.106944,5.276384 V 91.02391 c 0,1.924273 -0.1638041,3.660011 0.37628,4.955678 0.641277,1.538216 1.850765,2.901548 3.608332,3.199428 1.148367,0.19441 2.468901,0.0534 3.770725,0.0534 2.555217,2.2e-4 4.944823,0 7.59294,0 1.306997,1.3e-4 2.854611,0.14557 3.92916,-0.0534 2.32815,-0.43182 4.235793,-2.732898 3.933121,-5.810894 4.6666,-0.521548 7.572604,1.603592 10.393259,3.252879 2.877867,1.682815 5.788659,3.282685 8.507899,5.062589 -10.045862,-2.3e-4 -22.084227,6.6e-4 -32.795806,0 -1.430191,0 -3.438701,-0.16708 -4.360892,0.3207 -0.500358,0.26455 -1.146997,1.00031 -1.1328,1.8657 0.02065,1.18548 1.084946,1.84761 2.047756,2.07949 h 1.885363 c 2.258834,-0.0612 4.807896,-0.13859 6.947323,0 h 0.645617 c 0.982767,-0.074 2.095382,-0.14437 3.014205,0 h 0.431733 c 4.041483,-0.12444 8.726585,-0.0653 12.924241,0 h 1.398178 c 1.076558,-0.079 2.266814,-0.13681 3.287503,0 h 0.483223 c 2.657529,-0.20391 5.774866,-0.10856 8.456407,0 h 0.752561 c 1.346944,-0.13237 2.819915,-0.0927 4.198496,0 h 0.70107 c 1.069178,-0.0945 2.201961,-0.0911 3.287502,0 h 0.69711 c 1.020687,-0.0915 2.138063,-0.13215 3.125107,0 h 2.424038 c 2.691193,-0.13526 5.516176,-0.0933 8.23856,0 h 0.37628 c 5.622475,-0.17391 11.803473,-0.0995 17.609923,0 h 0.431735 c 3.256846,-0.13327 6.690476,-0.0883 10.068466,0 h 1.07736 c 0.98883,-0.24698 1.54734,-0.91848 1.93685,-1.75878 0.35767,1.03243 1.14956,1.63421 2.42404,1.75878 h 2.74882 c 1.00207,-0.35205 1.91646,-0.87787 1.9923,-2.02604 0.074,-1.11684 -0.69082,-1.88972 -1.72296,-2.13295 -1.07634,-0.25367 -2.82636,-0.25212 -3.82619,0 -0.93813,0.23635 -1.29863,0.92541 -1.6675,1.59845 -0.265,-1.02 -1.0734,-1.61231 -2.09925,-1.70535 -2.47713,-0.2239 -5.24464,0 -8.02468,0 -7.88599,6.7e-4 -16.700298,-2.3e-4 -24.232455,0 10.735365,-4.036681 21.908969,-8.440832 32.795805,-12.367569 1.23766,-0.446249 2.46284,-0.871018 3.55287,-1.494085 2.05957,-1.176816 3.85021,-3.227858 3.60834,-6.289409 -0.23895,-3.027343 -1.79415,-4.854709 -4.09156,-5.917798 -1.25089,-0.578445 -2.71035,-0.84901 -4.20246,-0.478515 -1.21747,0.302093 -2.46672,0.962659 -3.82221,1.119928 2.2e-4,-7.548931 -4.5e-4,-16.178574 0,-23.884995 0,-1.16149 0.13477,-2.380994 -0.0554,-3.357237 -0.219,-1.121731 -1.18126,-2.107749 -2.63791,-1.758794 -1.951645,0.467582 -1.616258,3.070809 -1.616035,5.490188 4.06e-4,8.265293 0.04546,16.847657 -0.05149,24.895475 -4.086826,1.071754 -7.854355,2.462048 -11.957792,3.51759 -0.107926,-2.806778 -1.582732,-4.542794 -3.22809,-5.650542 3.144441,-0.398268 7.989055,1.147256 8.614841,-1.598442 0.26769,-1.173936 -0.474706,-2.187232 -1.509083,-2.451114 -0.952933,-0.24298 -2.332629,-0.106906 -3.659822,-0.106906 h -22.88581 c -1.318899,0 -2.771798,-0.18378 -3.770725,0.05345 -0.736412,0.175252 -1.17946,0.828897 -1.509083,1.224285 -1.561219,-1.235018 -3.374627,-2.718351 -5.061962,-4.049556 -0.461096,-0.363394 -1.538538,-0.927601 -1.667516,-1.387182 -0.09876,-0.352513 0.05149,-1.059048 0.05149,-1.651893 0,-17.842441 -0.04291,-36.434639 0.05546,-53.843051 h 38.558838 c 1.789646,0 3.825549,-0.104746 5.168904,0.374157 1.067594,0.380505 2.08222,1.321328 2.530985,2.344212 0.43544,0.992455 0.320819,2.296676 0.320819,3.731394 2.23e-4,6.807027 -2.23e-4,13.416129 0,20.204506 0,2.556436 -0.309919,4.87709 1.564541,5.439285 1.07544,0.322746 2.09162,-0.165034 2.47553,-0.959575 0.5026,-1.041325 0.26911,-3.365845 0.26933,-5.225478 2.3e-4,-5.705731 -2.2e-4,-11.399308 0,-16.633467 0,-1.984689 0.0987,-3.880302 -0.0554,-5.436737 -0.15931,-1.609305 -0.69825,-2.940809 -1.50512,-4.052101 C 100.57176,9.390305 98.424351,7.8561381 94.926295,7.4849637 H 44.68688 Z m 31.021347,9.2775797 c -0.03346,3.91e-4 -0.06357,0.05367 -0.05546,0.05345 -4.737294,0.111054 -7.805851,1.478038 -10.71805,3.517591 -2.908834,2.038222 -5.041945,4.760954 -6.353196,7.836944 -0.717795,1.683705 -1.226693,3.708081 -1.560576,5.49019 -0.421611,2.250577 0.04685,4.358711 0.538676,6.345407 1.791005,7.233729 7.125441,12.36892 14.484814,13.966002 2.125536,0.461131 4.117826,0.780205 6.301706,0.374157 1.948274,-0.362065 3.871586,-0.743665 5.600638,-1.547535 3.018566,-1.402946 5.762408,-3.588786 7.755338,-6.449765 0.996675,-1.430937 1.686038,-2.951416 2.368585,-4.744418 0.313013,-0.820968 0.650237,-1.753449 0.808012,-2.718368 0.30176,-1.845417 0.295947,-3.603725 0.106944,-5.385833 -0.235386,-2.223251 -0.808892,-4.006157 -1.560573,-5.650544 -1.947134,-4.260139 -5.245606,-7.694071 -9.696148,-9.488833 -2.329284,-0.939377 -4.792135,-1.649267 -8.020713,-1.598443 z m -1.778419,5.276385 c 0.125128,0.515554 0.01976,1.261293 0.05546,1.865698 -0.427007,-0.0575 -0.883685,-0.08588 -1.295198,-0.157809 0.382574,-0.598631 0.762953,-1.20233 1.239746,-1.707889 z m 4.360891,0.106906 c 0.476121,0.452687 0.81709,1.043153 1.132801,1.654438 -0.431934,-0.0012 -0.733053,0.124557 -1.184292,0.104356 0.05982,-0.545984 0.0596,-1.146402 0.05149,-1.758796 z m -13.625311,4.105553 c 0.752328,0.232345 1.510874,0.458642 2.261643,0.692318 -0.284705,0.910484 -0.335385,1.780998 -0.483223,2.718369 -0.183996,1.168827 -0.732142,2.371377 -0.538675,3.838295 -1.539906,0.03192 -2.919839,-0.09319 -4.467835,-0.05345 0.41869,-3.015132 1.675388,-5.4805 3.22809,-7.195533 z m 22.727335,0 c 0.456594,0.208574 0.900266,0.92587 1.239745,1.438088 0.984347,1.486245 1.870497,3.954913 2.150739,5.813439 h -4.467834 c -0.326926,-2.235473 -0.514642,-4.612066 -1.132802,-6.559209 0.740223,-0.177039 1.451701,-0.354636 1.996267,-0.585419 0.03715,-0.01576 0.115525,-0.15173 0.213885,-0.106905 z m -16.318686,1.544989 c 0.910752,0.164372 1.856179,0.298944 2.911222,0.320707 v 5.383286 c -1.264611,-0.01024 -2.46284,-0.08655 -3.770726,-0.05345 0.08055,-2.088424 0.35935,-3.97772 0.859504,-5.650543 z m 9.854585,0 c 0.759061,1.487575 0.836369,3.650307 1.07735,5.650543 -1.148815,0.124192 -2.52797,0.01788 -3.766764,0.05345 0.0047,-1.807662 -0.02882,-3.650478 0.05149,-5.383286 0.921521,-0.06508 1.899931,-0.0737 2.637924,-0.320707 z m -10.662599,9.862997 c 1.265504,-0.0089 2.521263,-0.0045 3.719236,0.05345 v 5.385833 c -0.988404,0.08752 -2.016958,0.134782 -2.962714,0.264709 -0.306951,-1.810764 -0.926667,-3.59846 -0.756522,-5.703992 z m 9.803097,0 c 0.624866,-0.0035 1.258561,0.0013 1.885361,0 -0.07359,2.112856 -0.40977,3.968084 -0.863464,5.703992 -0.888324,-0.150869 -1.865435,-0.213042 -2.851809,-0.267255 v -5.383286 c 0.589445,-0.03832 1.205043,-0.04997 1.829912,-0.05345 z m 6.246253,0 c 1.521288,-0.03115 2.941293,0.03859 4.416343,0.05345 -0.478597,3.026678 -1.58073,5.436556 -3.283543,7.251529 -0.756382,-0.21079 -1.431114,-0.506058 -2.21015,-0.694864 0.510677,-2.053547 0.827628,-4.298458 1.07735,-6.610116 z m -24.878075,0.05345 h 4.467835 c -0.02805,2.533343 0.677143,4.341183 0.970406,6.556665 -0.715541,0.215679 -1.434424,0.428988 -2.099248,0.694864 -1.754644,-1.781222 -2.913793,-4.154219 -3.338993,-7.251529 z m 12.547961,9.649192 c 0.03487,0.585522 -0.04735,1.054675 -0.05546,1.598442 -0.24524,0.08174 -0.443635,-0.359216 -0.645617,-0.638867 -0.207318,-0.286546 -0.452373,-0.604116 -0.594128,-0.852673 0.344428,-0.120806 0.825341,-0.109502 1.295197,-0.106905 z m 4.253949,0 c 0.436861,-0.02398 0.802165,0.02309 1.184292,0.05345 -0.299773,0.627497 -0.679879,1.173744 -1.184292,1.598441 z M 15.586544,59.156888 c 0.89292,-0.03111 2.027079,0.09418 2.764669,0.09418 h 7.054268 c 0.87352,0 2.949464,-0.221258 3.338993,0.160353 0.361179,0.353619 0.162395,2.33873 0.162395,3.250335 v 23.88245 c -0.937663,-1.860519 -2.49745,-3.288668 -4.792624,-3.303785 -3.184371,-0.02133 -6.018905,2.883439 -5.00651,6.663567 0.577987,2.158181 2.884577,3.865642 5.38279,3.677943 2.150664,-0.161698 3.603838,-1.534301 4.360891,-3.252879 0.09978,0.867609 0.05546,1.492382 0.05546,2.400208 0,0.718134 0.142668,1.865872 -0.213886,2.186404 -0.463102,0.416484 -2.453422,0.157807 -3.449896,0.157807 -2.753107,0 -4.608978,2.22e-4 -7.430548,0 -1.002742,0 -3.048783,0.215971 -3.445937,-0.264709 -0.404638,-0.489335 -0.162395,-3.438775 -0.162395,-4.372809 v -29.21229 c 0,-0.983568 -0.114464,-1.794232 0.594128,-1.972599 0.220113,-0.05532 0.490568,-0.08381 0.788209,-0.09418 z m 49.605636,4.184456 c -1.303355,-0.01786 -2.585914,-0.0051 -3.707352,0.119629 -0.03549,0.0039 -0.07145,-0.0013 -0.106944,0 -2.14752,0.08666 -2.717845,3.04648 -0.914956,3.945198 0.739087,0.36828 2.403675,0.243791 3.663784,0.213804 1.439601,-0.03428 2.818741,0.05345 3.984609,0.05345 6.861493,0 13.284284,-0.123822 20.029999,-0.05345 1.43354,0.01472 2.832885,0.128815 3.608331,-0.320706 1.615305,-0.936484 1.117724,-3.157863 -0.483223,-3.731394 -1.00499,-0.359836 -2.304134,-0.160353 -3.556839,-0.160353 h -18.68331 c -1.204226,0 -2.530741,-0.04832 -3.834099,-0.06619 z m -26.018798,1.389727 c 0.64381,0.006 1.276481,0.03889 1.901206,0.117081 2.814148,0.352732 4.499908,2.157044 6.464101,3.677942 2.653048,2.053771 5.215501,4.094307 7.86228,6.182509 1.873097,1.477801 3.714638,3.516182 6.46014,3.998648 1.43512,0.252063 3.252257,0.160354 5.01047,0.160354 h 10.286319 c 1.550672,0 3.848329,-0.240075 4.844114,0.267254 0.802825,0.408719 1.124418,1.209208 1.025859,2.079503 -0.08234,0.725014 -0.701847,1.499648 -1.402139,1.705342 -0.642618,0.187907 -1.681846,0.05345 -2.637923,0.05345 H 65.687287 c -2.914005,0 -6.677988,-0.671375 -6.677988,2.132951 0,2.695943 3.58795,2.132953 6.571044,2.132953 3.815329,2.22e-4 7.067163,0 10.662599,0 1.870866,0 3.984571,0.228871 5.707579,-0.05345 0.538279,-0.08818 1.078295,-0.370363 1.667517,-0.534512 6.284823,-1.750792 12.266769,-3.774629 18.580322,-5.543639 1.01151,-0.283431 2.24682,-0.633186 3.39048,-1.013027 1.05436,-0.350517 2.47854,-0.977167 3.39445,-0.959574 1.80156,0.0342 3.10716,1.815514 2.47553,3.624492 -0.50013,1.430495 -2.60297,1.984287 -4.25395,2.614013 -13.321766,5.079783 -26.590133,10.09507 -39.95701,15.032479 -1.689101,0.62374 -3.340333,1.54223 -5.493693,1.38719 -2.014465,-0.14505 -3.375898,-1.23077 -4.792625,-2.079504 -4.374472,-2.620856 -8.482238,-5.196347 -12.92424,-7.676598 -2.141922,-1.196142 -4.409242,-2.57742 -7.592943,-2.720914 -1.01868,-0.04577 -2.091207,-0.207719 -3.283542,-0.157807 v -24.20315 c -0.0048,-0.07555 -0.011,-0.151232 0.05149,-0.160353 2.019916,0.131264 4.029644,-0.08147 5.961073,-0.06363 z M 24.157814,87.480867 c 0.775274,0.07819 1.241444,0.981682 0.6575,1.623895 -0.776807,0.854747 -2.250663,-0.272111 -1.509083,-1.387182 0.299941,-0.197249 0.593159,-0.262774 0.851583,-0.236713 z M 10.671133,101.61995 c -1.4707256,-0.084 -3.0216417,0.52122 -3.2518551,1.82498 v 0.69232 c 0.3745022,1.26412 1.4160104,1.86956 3.1251091,1.81223 h 0.970406 c 1.004972,-0.32273 1.872689,-0.89454 1.936853,-2.02604 0.08183,-1.44725 -1.309788,-2.21952 -2.780513,-2.30349 z" />
</svg>
