<svg id="Layer_1" data-name="Layer 1" xmlns="http://www.w3.org/2000/svg" viewBox="0 0 126.56 113.4"><defs><style>.cls-1{fill:#231f20;}</style></defs><title>animacao</title><path class="cls-1" d="M32.26,121.15l-9.71-2.64,20-11.41a1.37,1.37,0,0,1,1.36,0l25,14.3a4,4,0,0,0,3.92,0l25-14.3a1.37,1.37,0,0,1,1.36,0l20,11.41-9.71,2.64a1.36,1.36,0,0,0-.32,2.5l6.52,3.73a1.35,1.35,0,0,0,1,.13L133.14,123a1.37,1.37,0,0,0,1-1.68l-4.47-16.42a1.41,1.41,0,0,0-.64-.83l-6.52-3.73a1.37,1.37,0,0,0-2,1.55l2.65,9.71-19.94-11.39a1.36,1.36,0,0,1-.69-1.19V70.54a4,4,0,0,0-2-3.43l-25-14.28a1.36,1.36,0,0,1-.69-1.19V28.93l7.12,7.12a1.37,1.37,0,0,0,2.33-1V27.57a1.37,1.37,0,0,0-.4-1l-12-12a1.37,1.37,0,0,0-1.93,0l-12,12a1.35,1.35,0,0,0-.4,1v7.51a1.37,1.37,0,0,0,2.33,1l7.12-7.12V51.64a1.37,1.37,0,0,1-.69,1.19l-25,14.28a4,4,0,0,0-2,3.43V99.07a1.37,1.37,0,0,1-.69,1.19L18.62,111.64l2.65-9.71a1.37,1.37,0,0,0-2-1.55l-6.52,3.73a1.37,1.37,0,0,0-.64.83L7.64,121.36a1.37,1.37,0,0,0,1,1.68L25,127.52a1.35,1.35,0,0,0,1-.13l6.52-3.72A1.38,1.38,0,0,0,32.26,121.15ZM46.46,75,67.27,86.91a1.67,1.67,0,0,1,.84,1.45V112a1.67,1.67,0,0,1-2.5,1.45L44.8,101.59a1.67,1.67,0,0,1-.84-1.45V76.47A1.67,1.67,0,0,1,46.46,75Zm46.13-4L71.7,82.93a1.66,1.66,0,0,1-1.67,0L49.15,71a1.68,1.68,0,0,1,0-2.92L70,56.15a1.66,1.66,0,0,1,1.67,0L92.58,68.08A1.68,1.68,0,0,1,92.59,71ZM73.25,112.57V88.16a1.7,1.7,0,0,1,.87-1.49L95.57,74.41a1.72,1.72,0,0,1,2.58,1.49v24.41a1.7,1.7,0,0,1-.87,1.49L75.83,114.06A1.72,1.72,0,0,1,73.25,112.57Z" transform="translate(-7.59 -14.17)"/></svg>