<svg id="Layer_1" data-name="Layer 1" xmlns="http://www.w3.org/2000/svg" xmlns:xlink="http://www.w3.org/1999/xlink" viewBox="0 0 111.12 113.38"><defs><style>.cls-1{fill:none;}.cls-2{clip-path:url(#clip-path);}</style><clipPath id="clip-path" transform="translate(-15.38 -14.17)"><rect class="cls-1" x="15.17" y="14.17" width="111.39" height="113.39"/></clipPath></defs><title>artes</title><path d="M88,108.14A1.68,1.68,0,0,0,90.1,107a11.16,11.16,0,1,0-10.76,8.21,11.21,11.21,0,0,0,2.85-.37,11.05,11.05,0,0,0,4.44-2.34,1.68,1.68,0,0,0-2.2-2.54,7.59,7.59,0,0,1-3.1,1.63,7.78,7.78,0,1,1,5.53-5.48A1.68,1.68,0,0,0,88,108.14Z" transform="translate(-15.38 -14.17)"/><path d="M47.11,107.08a11.13,11.13,0,0,0,5.59,1.52,10.83,10.83,0,0,0,2.87-.38,11.16,11.16,0,1,0-8.46-1.14ZM46,93.51a7.78,7.78,0,0,1,4.74-3.62,7.77,7.77,0,0,1,5.91.8A7.79,7.79,0,1,1,46,93.51Z" transform="translate(-15.38 -14.17)"/><path d="M46.62,79.93A11.13,11.13,0,1,0,37,85.49a10.83,10.83,0,0,0,2.87-.38,11.14,11.14,0,0,0,6.79-5.18Zm-2.91-1.7A7.79,7.79,0,1,1,35,66.78a7.55,7.55,0,0,1,2-.26,7.8,7.8,0,0,1,6.74,11.71Z" transform="translate(-15.38 -14.17)"/><g class="cls-2"><path d="M50.49,38a11.16,11.16,0,1,0-5.62,20.81,10.83,10.83,0,0,0,2.87-.38A11.16,11.16,0,0,0,50.49,38Zm1.13,13.56a7.79,7.79,0,1,1-8.73-11.45,7.77,7.77,0,0,1,5.91.8,7.78,7.78,0,0,1,2.82,10.65Z" transform="translate(-15.38 -14.17)"/></g><g class="cls-2"><path d="M126.44,48.12c1.22-15-15.9-32.7-16.63-33.44a1.69,1.69,0,0,0-2.89,1.17c0,4.94-3.7,9.48-10.93,16.66a19.74,19.74,0,0,0-5.63,17.24A14.25,14.25,0,0,0,97.43,60l0,.6L97,60.7a33.33,33.33,0,0,1-14.36.56C76.24,60,71.73,56.61,70.56,52.19c-1.59-6,3-13,11.47-17.56a9.22,9.22,0,0,0,4.85-7.4,9.65,9.65,0,0,0-8.35-10.36A61,61,0,0,0,55.46,18a52.33,52.33,0,0,0-14.82,6.5,1.68,1.68,0,1,0,1.81,2.83A49.09,49.09,0,0,1,56.32,21.2a57.55,57.55,0,0,1,21.76-1A6.28,6.28,0,0,1,83.51,27a5.87,5.87,0,0,1-3.08,4.7,28.8,28.8,0,0,0-10.81,9.48c-2.54,3.94-3.34,8.06-2.32,11.91C68.83,58.83,74.17,63,82,64.56a33,33,0,0,0,6.35.6A38.7,38.7,0,0,0,97.69,64l.8,11.56-.22,0a9.44,9.44,0,0,0,1.51,18.52l1.31,18.78a51.81,51.81,0,0,1-80.8-29.3A52.28,52.28,0,0,1,38.37,30.17a1.68,1.68,0,1,0-2.08-2.64,55.41,55.41,0,0,0,6.26,91.05,54.87,54.87,0,0,0,27.94,7.68,55.51,55.51,0,0,0,14.3-1.88,54.58,54.58,0,0,0,16.59-7.55l.42,6c.18,2.67,3,4.7,6.64,4.71h0a8.28,8.28,0,0,0,4.3-1.14,4.61,4.61,0,0,0,2.35-3.51l1.7-21.85a55.29,55.29,0,0,0,9-29.6c0-.24,0-.49,0-.74a14.81,14.81,0,0,0-5.68-10.89,16.18,16.18,0,0,0,6.35-11.7Zm-32.76,1A16.32,16.32,0,0,1,98.36,34.9c6.23-6.18,10-10.65,11.38-15.27,4.57,5.33,14.18,17.87,13.34,28.22a12.82,12.82,0,0,1-5.21,9.44l-18.45-.08a10.71,10.71,0,0,1-5.74-8.06Zm7.17,11.44,15.76.07-1.33,17.07L102,77.67Zm-6,25.69A6.07,6.07,0,0,1,98.76,79l.81,11.71a6,6,0,0,1-4.73-4.41Zm16.94,36.36a1.41,1.41,0,0,1-.77.91,4.86,4.86,0,0,1-2.52.64h0c-1.95,0-3.26-.94-3.3-1.58L102.27,81l12.75,0ZM122.42,70.9c0,.18,0,.35,0,.51a51.61,51.61,0,0,1-5,21.62l2.26-28.94a11.55,11.55,0,0,1,2.7,6.81Z" transform="translate(-15.38 -14.17)"/></g></svg>