<?xml version="1.0" encoding="utf-8"?>
<!-- Generator: Adobe Illustrator 23.0.0, SVG Export Plug-In . SVG Version: 6.00 Build 0)  -->
<svg version="1.1" id="Layer_1" xmlns="http://www.w3.org/2000/svg" xmlns:xlink="http://www.w3.org/1999/xlink" x="0px" y="0px"
	 viewBox="0 0 308.43 303.32" style="enable-background:new 0 0 308.43 303.32;" xml:space="preserve">
<style type="text/css">
	.st0{fill:#C83128;}
	.st1{opacity:0.3;fill:url(#SVGID_1_);}
	.st2{opacity:0.3;fill:url(#SVGID_2_);}
	.st3{opacity:0.3;fill:url(#SVGID_3_);}
	.st4{opacity:0.3;fill:url(#SVGID_4_);}
	.st5{fill:#ECBD2D;}
	.st6{fill:#1A75BB;}
	.st7{fill:#37A649;}
	.st8{clip-path:url(#SVGID_6_);fill:#FFFFFF;}
	.st9{fill:#FFFFFF;}
	.st10{clip-path:url(#SVGID_8_);fill:#37A649;}
	.st11{opacity:0.6;}
	.st12{fill-rule:evenodd;clip-rule:evenodd;fill:#4776B9;}
	.st13{opacity:0.6;fill:#4776B9;}
	.st14{opacity:0.6;fill:#231F20;}
	.st15{opacity:0.6;fill:none;}
	.st16{fill:#4776B9;}
	.st17{fill:#1F4581;}
	.st18{fill-rule:evenodd;clip-rule:evenodd;fill:#A34424;}
	.st19{fill-rule:evenodd;clip-rule:evenodd;fill:#37A649;}
	.st20{fill-rule:evenodd;clip-rule:evenodd;fill:#C83128;}
	.st21{fill-rule:evenodd;clip-rule:evenodd;fill:#ECBD2D;}
	.st22{fill-rule:evenodd;clip-rule:evenodd;fill:#1A75BB;}
	.st23{clip-path:url(#SVGID_10_);}
	.st24{fill:#231F20;}
</style>
<g>
	<path d="M61.95,117.62c0-5.32,2.17-10.17,5.69-13.67c3.5-3.52,8.35-5.69,13.67-5.69c5.34,0,10.17,2.17,13.69,5.69
		c3.5,3.5,5.69,8.35,5.69,13.67c0,5.16,0.27,10,0.73,14.58h9.89c3.01,0,5.73-1.22,7.71-3.2c1.98-1.98,3.22-4.72,3.22-7.72v-15.75
		c0-2.31,1.87-4.2,4.2-4.2h15.75c3,0,5.74-1.22,7.72-3.22c1.98-1.98,3.21-4.7,3.21-7.7c0-3.01-1.23-5.73-3.21-7.71
		c-1.98-1.98-4.72-3.22-7.72-3.22h-15.75c-2.33,0-4.2-1.87-4.2-4.18V59.53c0-3-1.24-5.72-3.22-7.7c-1.98-1.98-4.7-3.21-7.71-3.21
		H95.56c-2.31,0-4.18-1.89-4.18-4.2V28.67c0-3.01-1.24-5.74-3.22-7.72c-1.98-1.98-4.72-3.22-7.72-3.22c-2.99,0-5.72,1.24-7.72,3.22
		c-1.98,1.98-3.2,4.7-3.2,7.72v15.75c0,2.31-1.88,4.2-4.2,4.2H49.57c-3,0-5.74,1.23-7.72,3.21c-1.98,1.98-3.22,4.71-3.22,7.7v61.74
		c0,3,1.23,5.74,3.22,7.72c1.98,1.98,4.72,3.2,7.72,3.2h12.38V117.62z M246.48,163.19c0,2.31-1.87,4.18-4.18,4.18
		c-2.31,0-4.2-1.87-4.2-4.18v-45.57c0-3.01-1.23-5.77-3.23-7.75c-1.98-2-4.74-3.23-7.75-3.23c-3.01,0-5.77,1.24-7.75,3.23
		c-2,1.98-3.23,4.74-3.23,7.75c0,13.17-1.78,24.7-4.06,37.6c-1.65,9.35-3.19,18.11-3.19,27.32c0,11.36,3.2,31.97,13.94,39.2
		c1.17,0.77,1.85,2.07,1.85,3.47l0.01,11.09h42.59c2.31-9.1,5.56-16.48,8.87-24.02c6.26-14.23,12.75-29.01,12.75-57.25
		c0-16.4-2.26-31.66-6.18-44.51c-2.44-8.03-5.51-15.1-9.05-20.88v31.64c0,5.31-2.17,10.14-5.67,13.64c-3.5,3.5-8.32,5.67-13.64,5.67
		h-7.91V163.19z M246.48,117.62v14.58h7.91c3.01,0,5.74-1.22,7.72-3.2c1.98-1.98,3.22-4.72,3.22-7.72V59.53c0-3-1.24-5.72-3.22-7.7
		c-1.98-1.98-4.71-3.21-7.72-3.21h-15.75c-2.31,0-4.2-1.89-4.2-4.2V28.67c0-3.01-1.22-5.74-3.2-7.72c-1.98-1.98-4.72-3.22-7.72-3.22
		c-3,0-5.73,1.24-7.72,3.22c-1.98,1.98-3.22,4.7-3.22,7.72v15.75c0,2.31-1.87,4.2-4.18,4.2h-15.75c-3.01,0-5.73,1.23-7.72,3.21
		c-1.98,1.98-3.22,4.71-3.22,7.7V71.1h11.57c5.32,0,10.14,2.17,13.64,5.67c3.5,3.5,5.67,8.32,5.67,13.64
		c0,5.31-2.17,10.14-5.67,13.64c-3.5,3.48-8.32,5.66-13.64,5.66h-11.57v11.57c0,3,1.24,5.74,3.22,7.72c1.98,1.98,4.71,3.2,7.72,3.2
		h14.37c0.45-4.58,0.73-9.41,0.73-14.58c0-5.32,2.17-10.17,5.69-13.67c3.5-3.52,8.35-5.69,13.67-5.69c5.34,0,10.17,2.17,13.69,5.69
		C244.31,107.45,246.48,112.29,246.48,117.62L246.48,117.62z M61.95,140.59H49.57c-5.33,0-10.14-2.17-13.64-5.67
		c-3.5-3.5-5.67-8.34-5.67-13.64V97.72c-2.28,4.96-4.26,10.55-5.88,16.65c-3.14,11.9-4.88,25.71-4.88,40.66
		c0,28.24,6.5,43.02,12.75,57.25c3.31,7.54,6.56,14.93,8.87,24.02h42.59V225.2c0-1.35,0.66-2.66,1.87-3.47
		c10.76-7.23,13.96-27.84,13.96-39.2c0-9.21-1.55-17.97-3.2-27.32c-2.27-12.9-4.04-24.43-4.04-37.6c0-3.01-1.24-5.77-3.23-7.75
		c-2-2-4.74-3.23-7.76-3.23c-3.01,0-5.75,1.24-7.75,3.23c-2,1.98-3.23,4.74-3.23,7.75v45.57c0,2.31-1.87,4.18-4.18,4.18
		c-2.33,0-4.2-1.87-4.2-4.18V140.59z M236.06,285.57c2.31,0,4.2,1.89,4.2,4.2c0,2.31-1.89,4.2-4.2,4.2h-30.22
		c-2.31,0-4.2-1.89-4.2-4.2v-34.62c0-5.18,2.12-9.9,5.55-13.32c2.47-2.47,5.61-4.26,9.13-5.06v-9.49
		c-11.93-9.87-15.81-30.39-15.81-44.75c0-9.9,1.6-19.03,3.31-28.74c0.76-4.25,1.52-8.62,2.19-13.2h-13.36
		c-5.32,0-10.14-2.17-13.64-5.67c-3.5-3.5-5.67-8.34-5.67-13.64v-15.75c0-2.31,1.87-4.2,4.2-4.2h15.75c2.99,0,5.73-1.22,7.71-3.22
		c1.98-1.98,3.22-4.7,3.22-7.7c0-3.01-1.23-5.73-3.22-7.71c-1.98-1.98-4.72-3.22-7.71-3.22h-15.75c-2.33,0-4.2-1.87-4.2-4.18V59.53
		c0-5.31,2.17-10.14,5.67-13.63c3.5-3.5,8.32-5.67,13.64-5.67h11.55V28.67c0-5.32,2.17-10.14,5.67-13.64
		c3.5-3.5,8.33-5.67,13.64-5.67c5.31,0,10.14,2.17,13.64,5.67c3.5,3.5,5.67,8.32,5.67,13.64v11.57h11.55
		c5.32,0,10.14,2.17,13.64,5.67c3.5,3.48,5.67,8.32,5.67,13.62v16.23c7.02,7.56,12.91,18.77,17.05,32.34
		c4.15,13.67,6.56,29.77,6.56,46.93c0,29.96-6.86,45.59-13.47,60.62c-3,6.81-5.94,13.48-8.07,21.36c3.12,0.9,5.93,2.58,8.16,4.82
		c3.42,3.42,5.55,8.14,5.55,13.32v34.62c0,2.31-1.88,4.2-4.2,4.2h-30.22c-2.31,0-4.2-1.89-4.2-4.2c0-2.31,1.89-4.2,4.2-4.2h26.03
		v-30.42c0-2.87-1.19-5.5-3.09-7.4c-1.9-1.89-4.51-3.07-7.39-3.07h-50.1c-2.88,0-5.5,1.17-7.4,3.07c-1.9,1.9-3.07,4.53-3.07,7.4
		v30.42H236.06z M72.36,293.97c-2.31,0-4.18-1.89-4.18-4.2c0-2.31,1.87-4.2,4.18-4.2h26.03v-30.42c0-2.87-1.19-5.5-3.09-7.4
		c-1.9-1.9-4.52-3.07-7.39-3.07h-50.1c-2.79,0-5.44,1.11-7.4,3.07c-1.9,1.9-3.07,4.53-3.07,7.4v30.42h26.03
		c2.31,0,4.18,1.89,4.18,4.2c0,2.31-1.87,4.2-4.18,4.2H23.15c-2.31,0-4.18-1.89-4.18-4.2v-34.62c0-5.18,2.12-9.9,5.53-13.32
		c2.25-2.24,5.04-3.91,8.16-4.82c-2.13-7.88-5.05-14.54-8.05-21.36c-6.62-15.04-13.48-30.66-13.48-60.62
		c0-15.64,1.84-30.17,5.18-42.8c3.28-12.42,8.05-23.04,13.96-31.02V59.53c0-5.31,2.17-10.14,5.67-13.63
		c3.5-3.5,8.32-5.67,13.64-5.67h11.57V28.67c0-5.32,2.17-10.14,5.66-13.64c3.5-3.5,8.34-5.67,13.64-5.67
		c5.32,0,10.14,2.17,13.64,5.67c3.5,3.5,5.67,8.32,5.67,13.64v11.57h11.55c5.32,0,10.15,2.17,13.64,5.67
		c3.5,3.48,5.67,8.32,5.67,13.62V71.1h11.57c5.31,0,10.14,2.17,13.64,5.67c3.5,3.5,5.67,8.32,5.67,13.64
		c0,5.31-2.17,10.14-5.67,13.64c-3.5,3.48-8.34,5.66-13.64,5.66h-11.57v11.57c0,5.31-2.17,10.14-5.67,13.64
		c-3.49,3.5-8.32,5.67-13.64,5.67h-8.87c0.65,4.58,1.42,8.95,2.17,13.2c1.71,9.71,3.33,18.84,3.33,28.74
		c0,14.35-3.9,34.87-15.83,44.74v9.49c3.52,0.79,6.67,2.58,9.14,5.06c3.41,3.42,5.53,8.14,5.53,13.32v34.62
		c0,2.31-1.87,4.2-4.18,4.2H72.36z M72.36,293.97"/>
</g>
</svg>
