<?xml version="1.0" encoding="utf-8"?>
<!-- Generator: Adobe Illustrator 23.0.0, SVG Export Plug-In . SVG Version: 6.00 Build 0)  -->
<svg version="1.1" id="Layer_1" xmlns="http://www.w3.org/2000/svg" xmlns:xlink="http://www.w3.org/1999/xlink" x="0px" y="0px"
	 viewBox="0 0 141.73 141.73" style="enable-background:new 0 0 141.73 141.73;" xml:space="preserve">
<style type="text/css">
	.st0{fill:#FDD4BF;}
	.st1{clip-path:url(#SVGID_2_);}
	.st2{fill:#010101;}
	.st3{clip-path:url(#SVGID_4_);}
	.st4{fill:#FFFFFF;}
	.st5{clip-path:url(#SVGID_6_);}
	.st6{fill:#010101;stroke:#000000;stroke-width:2;stroke-miterlimit:10;}
	.st7{stroke:#000000;stroke-width:0.75;stroke-miterlimit:10;}
	.st8{clip-path:url(#SVGID_8_);stroke:#000000;stroke-width:0.75;stroke-miterlimit:10;}
	.st9{clip-path:url(#SVGID_8_);stroke:#000000;stroke-miterlimit:10;}
	.st10{clip-path:url(#SVGID_10_);}
	.st11{fill:#73B9E6;}
	.st12{clip-path:url(#SVGID_12_);}
	.st13{fill:#201113;}
	.st14{fill:none;}
	.st15{clip-path:url(#SVGID_14_);fill-rule:evenodd;clip-rule:evenodd;}
	.st16{fill-rule:evenodd;clip-rule:evenodd;}
	.st17{clip-path:url(#SVGID_16_);stroke:#000000;stroke-miterlimit:10;}
	.st18{stroke:#000000;stroke-miterlimit:10;}
	.st19{clip-path:url(#SVGID_18_);}
	.st20{fill:#FEE55B;stroke:#000000;stroke-miterlimit:10;}
	.st21{clip-path:url(#SVGID_20_);fill:#231F20;stroke:#000000;stroke-miterlimit:10;}
	.st22{fill:#231F20;stroke:#000000;stroke-miterlimit:10;}
	.st23{fill:#231F20;}
	.st24{fill:#E9E9E9;}
	.st25{clip-path:url(#SVGID_22_);}
	.st26{fill:#E6E7E8;}
	.st27{fill:#949A9B;}
	.st28{clip-path:url(#SVGID_24_);}
	.st29{clip-path:url(#SVGID_26_);}
	.st30{clip-path:url(#SVGID_28_);stroke:#000000;stroke-miterlimit:10;}
	.st31{fill-rule:evenodd;clip-rule:evenodd;fill:#A44424;}
	.st32{fill-rule:evenodd;clip-rule:evenodd;fill:#38A749;}
	.st33{fill-rule:evenodd;clip-rule:evenodd;fill:#CA3229;}
	.st34{fill-rule:evenodd;clip-rule:evenodd;fill:#EDBE2E;}
	.st35{fill-rule:evenodd;clip-rule:evenodd;fill:#1C76BC;}
	.st36{fill:#204583;}
</style>
<g>
	<g>
		<defs>
			<rect id="SVGID_15_" x="10.39" y="9.92" width="120.94" height="121.28"/>
		</defs>
		<clipPath id="SVGID_2_">
			<use xlink:href="#SVGID_15_"  style="overflow:visible;"/>
		</clipPath>
		<path style="clip-path:url(#SVGID_2_);stroke:#000000;stroke-miterlimit:10;" d="M126.92,28.26
			c-0.07-0.06-13.46-12.83-13.46-12.83c-0.51-0.49-1.04-1-2.03-1h-53.9c-1.57,0-2.86,1.28-2.86,2.85v8.77l-19,3.26
			c-1.52,0.27-2.55,1.72-2.28,3.25l0.96,5.62c-6.18,2.08-12.51,4.22-18.64,6.42c-1.45,0.53-2.2,2.14-1.69,3.59l12.17,33.84
			c0.24,0.68,0.89,1.11,1.57,1.11c0.19,0,0.38-0.03,0.56-0.1c0.87-0.31,1.32-1.27,1.01-2.14L17.36,47.56
			c5.77-2.06,11.74-4.08,17.57-6.05l5.74,33.45l6.6,38.52c0.24,1.36,1.43,2.33,2.78,2.33c0.15,0,0.31-0.01,0.46-0.04l17.88-3.07
			l13.97-2.4l-21.01,7.55l-16.57,5.96L31.92,88.02c-0.31-0.87-1.27-1.32-2.14-1.01c-0.87,0.31-1.32,1.27-1.01,2.14l13.05,36.3
			c0.42,1.14,1.5,1.85,2.64,1.85c0.32,0,0.64-0.05,0.95-0.17L62.48,121l38.76-13.93l7.4-1.27H125c1.57,0,2.86-1.28,2.86-2.86V30.14
			C127.86,29.14,127.31,28.63,126.92,28.26L126.92,28.26z M122.49,28.66h-8.36l-0.21,0c-0.4,0-1.34,0.01-1.57-0.23
			c-0.06-0.05-0.12-0.24-0.12-0.57l-0.02-9L122.49,28.66z M124.52,102.46h-66.5V69.92c0-0.92-0.75-1.67-1.67-1.67
			c-0.92,0-1.67,0.75-1.67,1.67v33.02c0,1.58,1.28,2.86,2.86,2.86h31.35l-21.05,3.61l-17.36,2.98l-6.51-37.99l-7.18-41.88l17.9-3.07
			v32.73c0,0.92,0.75,1.67,1.67,1.67c0.92,0,1.67-0.75,1.67-1.67v-44.4h50.86l0.02,10.09c0,1.22,0.37,2.21,1.11,2.94
			c1.13,1.12,2.72,1.2,3.71,1.2c0.08,0,0.17,0,0.24,0l10.56,0V102.46z M124.52,102.46"/>
	</g>
	<path class="st18" d="M115.47,42.03H67.73c-0.92,0-1.67-0.75-1.67-1.67c0-0.92,0.75-1.67,1.67-1.67h47.74
		c0.92,0,1.67,0.75,1.67,1.67C117.14,41.28,116.39,42.03,115.47,42.03L115.47,42.03z M115.47,42.03"/>
	<path class="st18" d="M115.47,53.89H67.73c-0.92,0-1.67-0.75-1.67-1.67c0-0.92,0.75-1.67,1.67-1.67h47.74
		c0.92,0,1.67,0.75,1.67,1.67C117.14,53.14,116.39,53.89,115.47,53.89L115.47,53.89z M115.47,53.89"/>
	<path class="st18" d="M115.47,65.75H67.73c-0.92,0-1.67-0.75-1.67-1.67c0-0.92,0.75-1.67,1.67-1.67h47.74
		c0.92,0,1.67,0.75,1.67,1.67C117.14,65,116.39,65.75,115.47,65.75L115.47,65.75z M115.47,65.75"/>
	<path class="st18" d="M115.47,77.61H67.73c-0.92,0-1.67-0.75-1.67-1.67c0-0.92,0.75-1.67,1.67-1.67h47.74
		c0.92,0,1.67,0.75,1.67,1.67C117.14,76.86,116.39,77.61,115.47,77.61L115.47,77.61z M115.47,77.61"/>
	<path class="st18" d="M115.47,89.47H67.73c-0.92,0-1.67-0.75-1.67-1.67c0-0.92,0.75-1.67,1.67-1.67h47.74
		c0.92,0,1.67,0.75,1.67,1.67C117.14,88.72,116.39,89.47,115.47,89.47L115.47,89.47z M115.47,89.47"/>
</g>
</svg>
