<svg id="Layer_1" data-name="Layer 1" xmlns="http://www.w3.org/2000/svg" viewBox="0 0 124.82 113.39"><defs><style>.cls-1{fill:#010101;}</style></defs><title>cidadania</title><path class="cls-1" d="M132.56,95.21l-6-5.9a2.44,2.44,0,0,0-3.44,3.46l6,5.9a2.46,2.46,0,0,0,1.72.71,2.44,2.44,0,0,0,1.72-4.17Z" transform="translate(-8.46 -14.17)"/><path class="cls-1" d="M117.09,83.27h0a2.44,2.44,0,1,0,3.45,0A2.44,2.44,0,0,0,117.09,83.27Z" transform="translate(-8.46 -14.17)"/><path class="cls-1" d="M86.53,110a2.46,2.46,0,0,0-1.92-.71l-.77.06a17.88,17.88,0,0,1-10.18-2.21l1.57-1.57A37.91,37.91,0,0,0,99.76,94.52l23.66-23.66A9.18,9.18,0,0,0,119,55.41a9.2,9.2,0,0,0-6.77-12.93,9.18,9.18,0,0,0-7.16-11.93,9.28,9.28,0,0,0,.46-2.88,9.2,9.2,0,0,0-13.58-8.08l-.24-.25a16.26,16.26,0,0,0-11.87-5.17H60.68a2.44,2.44,0,0,0-2.44,2.44v3.2a11.19,11.19,0,0,0,.63,3.7A9.19,9.19,0,0,0,46.62,34.88a9.17,9.17,0,0,0-7.63,9,9.28,9.28,0,0,0,.46,2.88,9.2,9.2,0,0,0-6.77,12.93,9.09,9.09,0,0,0-4.43,2.46,9.21,9.21,0,0,0,0,13l4.86,4.86L9.17,104a2.44,2.44,0,0,0,0,3.45,2.41,2.41,0,0,0,1.72.71,2.44,2.44,0,0,0,1.72-.71L36.8,83.26A9.18,9.18,0,0,0,50.52,74.9h.37a9.18,9.18,0,0,0,9.19-9.19c0-.12,0-.25,0-.37h.37a9.18,9.18,0,0,0,9.19-9.19c0-.12,0-.25,0-.37H70a9.19,9.19,0,0,0,7.11-15L93.29,24.61a4.31,4.31,0,0,1,6.1,6.1L97,33.1l-8.66,8.66a2.44,2.44,0,0,0,0,3.45,2.41,2.41,0,0,0,1.72.71,2.44,2.44,0,0,0,1.72-.71l8.66-8.66a4.31,4.31,0,1,1,6.1,6.1L104.15,45l-6.27,6.27a2.44,2.44,0,0,0,0,3.45,2.41,2.41,0,0,0,1.72.71,2.44,2.44,0,0,0,1.72-.71l6.27-6.27a4.31,4.31,0,0,1,6.1,6.1l-3.28,3.28-3,3a2.44,2.44,0,0,0,0,3.45,2.41,2.41,0,0,0,1.72.71,2.44,2.44,0,0,0,1.72-.71l3-3a4.31,4.31,0,1,1,6.1,6.1L96.31,91.07a33,33,0,0,1-22.23,9.68,2.43,2.43,0,0,0-1.64.72L50.58,123.4A2.44,2.44,0,1,0,54,126.84l16.07-16.13a22.67,22.67,0,0,0,13.77,3.54l12.58,12.58a2.41,2.41,0,0,0,1.72.71,2.44,2.44,0,0,0,1.72-4.16Zm-23.42-91H79.82a11.35,11.35,0,0,1,8.3,3.62l.1.11L73.67,37.33,67,30.63a11.33,11.33,0,0,0,2.34.25h0l6.69,0A2.44,2.44,0,0,0,76,26h0l-6.69,0h0a6.18,6.18,0,0,1-6.19-6.19v-.76ZM44.39,78.32a4.32,4.32,0,0,1-6.1,0L31.7,71.73a4.31,4.31,0,0,1,6.1-6.1l6.59,6.59A4.32,4.32,0,0,1,44.39,78.32ZM55.2,65.73a4.31,4.31,0,0,1-7.36,3l-6.59-6.59L38,58.91a4.31,4.31,0,0,1,6.1-6.1l9.86,9.86h0A4.31,4.31,0,0,1,55.2,65.73Zm9.54-9.55a4.31,4.31,0,0,1-7.36,3L45.13,47a4.31,4.31,0,0,1,6.1-6.1l5.58,5.58,6.67,6.67h0A4.31,4.31,0,0,1,64.74,56.18ZM73,49.68a4.32,4.32,0,0,1-6.1,0L54.68,37.43h0L52.3,35.05A4.31,4.31,0,0,1,58.4,29L73,43.59a4.3,4.3,0,0,1,0,6.09Z" transform="translate(-8.46 -14.17)"/></svg>