<svg id="Layer_1" data-name="Layer 1" xmlns="http://www.w3.org/2000/svg" viewBox="0 0 115.35 115.38"><defs><style>.cls-1{fill:#010101;stroke:#000;stroke-miterlimit:10;stroke-width:2px;}</style></defs><title>filosofia</title><path class="cls-1" d="M65.21,59.53a7.56,7.56,0,1,0-7.56,7.56A7.56,7.56,0,0,0,65.21,59.53Zm-7.56,3.78a3.78,3.78,0,1,1,3.78-3.78A3.78,3.78,0,0,1,57.65,63.31Z" transform="translate(-13.18 -13.18)"/><path class="cls-1" d="M25.52,82.21H35a1.89,1.89,0,0,0,1.89-1.89h0A1.89,1.89,0,0,0,35,78.43H28.2c3-8.29,12.34-34.42,14.52-38.85A38.68,38.68,0,0,1,80.38,18.06c1.16.08,2.31.22,3.45.41A1.89,1.89,0,0,0,86,17h0a1.89,1.89,0,0,0-1.54-2.26c-1.25-.21-2.52-.36-3.79-.45A42.46,42.46,0,0,0,39.33,37.92c-2.69,5.45-15.07,40.3-15.6,41.78a1.88,1.88,0,0,0,1.17,2.4A2.31,2.31,0,0,0,25.52,82.21Z" transform="translate(-13.18 -13.18)"/><path class="cls-1" d="M57.65,108.92v9.45a1.89,1.89,0,0,0,1.89,1.89h47.24a1.89,1.89,0,0,0,1.89-1.89v-3a121.69,121.69,0,0,1,8.56-43.27c.29-.77.56-1.54.81-2.33a1.89,1.89,0,0,0-1.32-2.39h0a1.88,1.88,0,0,0-2.28,1.25c-.23.71-.47,1.42-.74,2.12a125.36,125.36,0,0,0-8.81,44.62v1.15H61.43v-7.56H69a9.5,9.5,0,0,0,9.09-6.85l5.47-19.16a1.88,1.88,0,0,0-1.3-2.33h0a1.89,1.89,0,0,0-2.34,1.3L74.41,101A5.69,5.69,0,0,1,69,105.15H52A1.89,1.89,0,0,0,50.09,107h0A1.89,1.89,0,0,0,52,108.93h5.67Z" transform="translate(-13.18 -13.18)"/><path class="cls-1" d="M16.07,127.56H39.7a6.61,6.61,0,0,0,4.62-11.34,6.6,6.6,0,0,0,.11-9.34,1.14,1.14,0,0,0-.11-.11,6.61,6.61,0,0,0,1.35-7.56h1.58a6.61,6.61,0,0,0,0-13.22H23.63a9.46,9.46,0,0,0-9.45,9.45v30.24A1.89,1.89,0,0,0,16.07,127.56ZM18,95.43a5.67,5.67,0,0,1,5.67-5.67H47.25a2.83,2.83,0,0,1,0,5.66H29.3a1.89,1.89,0,1,0,0,3.78H39.7a2.83,2.83,0,1,1,0,5.66H29.3a1.89,1.89,0,1,0,0,3.78H39.7a2.83,2.83,0,1,1,0,5.66H29.3a1.89,1.89,0,1,0,0,3.78H39.7a2.83,2.83,0,1,1,0,5.66H18Z" transform="translate(-13.18 -13.18)"/><path class="cls-1" d="M76.31,28.35a12.13,12.13,0,0,0,1.46,14.17,12.13,12.13,0,0,0-1.46,14.17,12.41,12.41,0,0,0,13.14,5.82,12.31,12.31,0,0,0,23.31,0,12.39,12.39,0,0,0,13.14-5.82,12.13,12.13,0,0,0-1.46-14.17,12.13,12.13,0,0,0,1.46-14.17,12.41,12.41,0,0,0-13.14-5.82,12.31,12.31,0,0,0-23.31,0A12.39,12.39,0,0,0,76.31,28.35Zm13.81-1.7a1.88,1.88,0,0,0,2.45-1.06,2.09,2.09,0,0,0,.11-.43,8.52,8.52,0,0,1,16.84,0,1.89,1.89,0,0,0,2.14,1.6,2.09,2.09,0,0,0,.43-.11,8.6,8.6,0,0,1,10.55,3.59A8.35,8.35,0,0,1,120.52,41a1.88,1.88,0,0,0-.34,2.65,1.82,1.82,0,0,0,.34.34,8.36,8.36,0,0,1,2.12,10.8,8.59,8.59,0,0,1-10.55,3.59,1.88,1.88,0,0,0-2.45,1.06,2.09,2.09,0,0,0-.11.43,8.52,8.52,0,0,1-16.84,0,1.89,1.89,0,0,0-1.87-1.62,2.07,2.07,0,0,0-.7.13,8.61,8.61,0,0,1-10.56-3.59A8.35,8.35,0,0,1,81.68,44,1.88,1.88,0,0,0,82,41.39a1.82,1.82,0,0,0-.34-.34,8.36,8.36,0,0,1-2.12-10.81A8.62,8.62,0,0,1,90.12,26.65Z" transform="translate(-13.18 -13.18)"/><rect x="94.61" y="26.45" width="5.78" height="5.78"/><rect x="85.05" y="26.45" width="5.78" height="5.78"/><rect x="75.49" y="26.45" width="5.78" height="5.78"/></svg>