<svg id="Layer_1" data-name="Layer 1" xmlns="http://www.w3.org/2000/svg" viewBox="0 0 128.81 114.36"><title>fisica</title><path d="M70.87,59.71A11.15,11.15,0,1,0,82,70.86,11.16,11.16,0,0,0,70.87,59.71Zm0,17.05a5.89,5.89,0,1,1,5.89-5.89A5.89,5.89,0,0,1,70.87,76.76Z" transform="translate(-6.46 -13.7)"/><path d="M135.27,70.87c0-3.94-2.22-7.61-6.61-10.92a8.32,8.32,0,0,0,.22-1.86,9,9,0,0,0-16.07-5.58c-2.36-.73-4.62-1.35-6.89-1.88a97,97,0,0,0,2.41-9.56c2.58-13.3.71-22.53-5.26-26C95.71,10.85,84,16.46,70.86,30.5,57.73,16.45,46,10.84,38.66,15.09c-2.28,1.32-5.17,4.26-6.09,10.79A9,9,0,0,0,34,43.62c.56,2.47,1.17,4.79,1.86,7.08C17.15,55.05,6.46,62.38,6.46,70.87S17.16,86.69,35.85,91c-.5,1.63-1,3.27-1.37,4.9a9,9,0,0,0-2.16,17.72c.51,8,3.72,11.48,6.33,13a10.82,10.82,0,0,0,5.49,1.41c7.09,0,16.57-6,26.71-16.83C81,122.08,90.46,128.06,97.56,128.06h0a10.89,10.89,0,0,0,5.49-1.41c6-3.45,7.84-12.68,5.26-26A92.61,92.61,0,0,0,105.87,91C124.58,86.69,135.27,79.35,135.27,70.87ZM38.41,105a3.76,3.76,0,1,1-3.76-3.76A3.77,3.77,0,0,1,38.41,105Zm39.2-10.29c-2.21,3-4.47,5.91-6.74,8.6-2.28-2.7-4.55-5.58-6.74-8.6,2.33.09,4.59.14,6.74.14S75.32,94.75,77.61,94.66ZM46.85,64.89c-1.57-3.5-3-6.92-4.15-10.2,3.51-.64,7.18-1.16,10.93-1.56-1.23,1.94-2.4,3.88-3.49,5.77S48,62.65,46.85,64.89ZM42.72,87.05c1.22-3.4,2.61-6.83,4.13-10.21,1.19,2.25,2.24,4.18,3.29,6s2.29,3.87,3.49,5.77C49.88,88.2,46.22,87.68,42.72,87.05ZM92.05,70.87c-1.62,3.24-3.3,6.38-5,9.34s-3.6,6-5.59,9c-3.59.24-7.15.36-10.58.36s-7-.12-10.57-.36c-2-3-3.87-6-5.6-9s-3.4-6.1-5-9.34c1.59-3.18,3.27-6.32,5-9.33s3.6-6,5.6-9c3.58-.24,7.14-.36,10.58-.36s7,.11,10.55.33c2,3,3.89,6,5.62,9S90.43,67.63,92.05,70.87Zm2.83,6c1.6,3.56,3,7,4.16,10.2-3.51.64-7.18,1.16-10.93,1.56,1.2-1.9,2.37-3.84,3.48-5.77S93.68,79.12,94.88,76.84ZM88.05,53.06c3.85.39,7.55.9,11,1.53-1.17,3.25-2.58,6.71-4.19,10.3-1.2-2.27-2.25-4.19-3.29-6h0C90.49,57,89.3,55,88.05,53.06Zm15.12-13a92.12,92.12,0,0,1-2.42,9.49,152.8,152.8,0,0,0-16.39-2.11,155.5,155.5,0,0,0-10-13c11.23-12.22,20.94-17.76,26-14.82C104.27,21.85,105.26,29.29,103.17,40.07Zm-32.3,6.86c-2.16,0-4.42,0-6.74.14,2.21-3,4.47-5.92,6.74-8.6,2.28,2.7,4.55,5.59,6.75,8.6C75.08,47,72.91,46.93,70.87,46.93Zm-13.51.54A153,153,0,0,0,41,49.62c-.73-2.36-1.36-4.71-1.91-7.16a9,9,0,0,0-1.28-16.22c.52-3.35,1.69-5.57,3.48-6.6,5.08-2.94,14.8,2.6,26,14.82A159.69,159.69,0,0,0,57.36,47.47ZM37.51,55.75a152,152,0,0,0,6.33,15.13A152.5,152.5,0,0,0,37.52,86c-16.17-3.62-25.8-9.26-25.8-15.13S21.35,59.36,37.51,55.75ZM43.67,105a8.92,8.92,0,0,0-4.14-7.54c.44-1.75.93-3.53,1.48-5.29a155.64,155.64,0,0,0,16.34,2.14,152.82,152.82,0,0,0,10,13c-11.23,12.21-20.94,17.75-26,14.81-2.66-1.54-3.5-5.47-3.71-8.65A8.94,8.94,0,0,0,43.67,105ZM84.38,94.26a153.18,153.18,0,0,0,16.35-2.15,89.67,89.67,0,0,1,2.44,9.55c2.09,10.77,1.09,18.22-2.73,20.42-5.08,2.94-14.79-2.6-26-14.82A152.43,152.43,0,0,0,84.38,94.26ZM104.23,86A150.09,150.09,0,0,0,97.9,70.87a150.12,150.12,0,0,0,6.36-15.23c2.16.49,4.33,1.08,6.62,1.78a4.91,4.91,0,0,0,0,.67,9,9,0,0,0,9,9,8.88,8.88,0,0,0,6.22-2.52c1.87,1.52,3.93,3.77,3.93,6.28C130,76.73,120.39,82.37,104.23,86ZM34.65,38.41a3.76,3.76,0,1,1,3.76-3.76A3.77,3.77,0,0,1,34.65,38.41ZM116.1,58.08a3.76,3.76,0,1,1,3.76,3.76A3.77,3.77,0,0,1,116.1,58.08Z" transform="translate(-6.46 -13.7)"/></svg>