<?xml version="1.0" encoding="UTF-8" standalone="no"?>
<svg
   id="Layer_1"
   data-name="Layer 1"
   viewBox="0 0 126.48 113.38"
   version="1.1"
   sodipodi:docname="genero-e-sexualidade.svg"
   inkscape:version="1.2 (1:1.2.1+202207142221+cd75a1ee6d)"
   xmlns:inkscape="http://www.inkscape.org/namespaces/inkscape"
   xmlns:sodipodi="http://sodipodi.sourceforge.net/DTD/sodipodi-0.dtd"
   xmlns="http://www.w3.org/2000/svg"
   xmlns:svg="http://www.w3.org/2000/svg">
  <sodipodi:namedview
     id="namedview1246"
     pagecolor="#ffffff"
     bordercolor="#000000"
     borderopacity="0.25"
     inkscape:showpageshadow="2"
     inkscape:pageopacity="0.0"
     inkscape:pagecheckerboard="0"
     inkscape:deskcolor="#d1d1d1"
     showgrid="false"
     inkscape:zoom="4.4540484"
     inkscape:cx="63.425444"
     inkscape:cy="56.577741"
     inkscape:window-width="1366"
     inkscape:window-height="671"
     inkscape:window-x="0"
     inkscape:window-y="27"
     inkscape:window-maximized="1"
     inkscape:current-layer="Layer_1" />
  <defs
     id="defs1231">
    <style
       id="style1229">.cls-1{fill:#fff;}.cls-2{fill:#010101;}</style>
  </defs>
  <title
     id="title1233">genero</title>
  <circle
     class="cls-1"
     cx="72.89"
     cy="52.83"
     r="24.7"
     id="circle1235"
     style="fill:none" />
  <path
     class="cls-2"
     d="M80.51,89.26A2.48,2.48,0,1,0,83,91.74v0A2.46,2.46,0,0,0,80.51,89.26Z"
     transform="translate(-7.62 -14.17)"
     id="path1237" />
  <path
     class="cls-2"
     d="M131.64,14.17H102.49A2.48,2.48,0,0,0,100,16.64v9.79a2.48,2.48,0,0,0,2.47,2.47h5.05l-6.61,6.61a37.22,37.22,0,0,0-20.43-6,38.4,38.4,0,0,0-5,.34,37.54,37.54,0,1,0-38.7,58.75v14.78H29.36a2.48,2.48,0,0,0-2.47,2.47v10.87a2.48,2.48,0,0,0,2.47,2.47h7.41v5.93a2.48,2.48,0,0,0,2.47,2.47H51.1a2.48,2.48,0,0,0,2.47-2.47v-5.93H61a2.48,2.48,0,0,0,2.47-2.47V105.81A2.48,2.48,0,0,0,61,103.34H53.57V93.19a37.55,37.55,0,0,0,59.06-45.61l6.74-6.74v5a2.48,2.48,0,0,0,2.47,2.47h9.79a2.48,2.48,0,0,0,2.47-2.47V16.64A2.45,2.45,0,0,0,131.64,14.17ZM58.51,108.29v5.93H51.1a2.48,2.48,0,0,0-2.47,2.47v5.93H41.71v-5.93a2.48,2.48,0,0,0-2.47-2.47H31.83v-5.93h7.41a2.48,2.48,0,0,0,2.47-2.47V86.54a2.49,2.49,0,0,0-2.06-2.44,32.61,32.61,0,1,1,11,0,2.47,2.47,0,0,0-2.06,2.44v19.28a2.48,2.48,0,0,0,2.47,2.47Zm70.66-65h-4.85V34.86a2.47,2.47,0,0,0-4.22-1.74L107.73,45.49a2.47,2.47,0,0,0-.29,3.14A32.61,32.61,0,0,1,55.58,88.05,36.89,36.89,0,0,0,61.06,86,27,27,0,0,0,72.7,93.05a2.53,2.53,0,0,0,.71.1,2.47,2.47,0,0,0,.71-4.84,22.18,22.18,0,0,1-8.54-4.83A37.54,37.54,0,0,0,82.73,52a38.05,38.05,0,0,0-.68-7.13,22.24,22.24,0,0,1,4.86,43.48,2.47,2.47,0,0,0,.71,4.84,2.53,2.53,0,0,0,.71-.1,27.43,27.43,0,0,0,13.88-9.66A27.18,27.18,0,0,0,80.72,39.85a38,38,0,0,0-2.31-5.36c.7,0,1.4-.07,2.11-.07a32.42,32.42,0,0,1,19.26,6.29,2.47,2.47,0,0,0,3.21-.25l12.28-12.28A2.47,2.47,0,0,0,113.53,24H105V19.11h24.21V43.32Z"
     transform="translate(-7.62 -14.17)"
     id="path1239" />
  <path
     class="cls-2"
     d="M27.67,37a2.46,2.46,0,0,0,1.76-.74l0,0a2.47,2.47,0,0,0-3.53-3.45l0,0A2.47,2.47,0,0,0,27.67,37Z"
     transform="translate(-7.62 -14.17)"
     id="path1241" />
  <path
     class="cls-2"
     d="M72.35,52a27.2,27.2,0,0,0-38.76-24.6,2.47,2.47,0,0,0,2.11,4.47,22.24,22.24,0,0,1,24.4,3.66A37.58,37.58,0,0,0,43.64,74.14,22.24,22.24,0,0,1,24.83,43a2.47,2.47,0,0,0-4.52-2A26.87,26.87,0,0,0,18,52a27.18,27.18,0,1,0,54.35,0Zm-8.94-12.7A22.57,22.57,0,0,1,66,44.07,27.21,27.21,0,0,0,53.88,72.43a21.48,21.48,0,0,1-5.24,1.5A32.6,32.6,0,0,1,63.41,39.26Zm-5,30.53A23.27,23.27,0,0,1,58.28,67a22.32,22.32,0,0,1,9-17.83A23.18,23.18,0,0,1,67.41,52,22.23,22.23,0,0,1,58.45,69.79Z"
     transform="translate(-7.62 -14.17)"
     id="path1243" />
</svg>
