<?xml version="1.0" encoding="utf-8"?>
<!-- Generator: Adobe Illustrator 23.0.0, SVG Export Plug-In . SVG Version: 6.00 Build 0)  -->
<svg version="1.1" id="Layer_1" xmlns="http://www.w3.org/2000/svg" xmlns:xlink="http://www.w3.org/1999/xlink" x="0px" y="0px"
	 viewBox="0 0 330.89 303.32" style="enable-background:new 0 0 330.89 303.32;" xml:space="preserve">
<style type="text/css">
	.st0{fill:#C83128;}
	.st1{opacity:0.3;fill:url(#SVGID_1_);}
	.st2{opacity:0.3;fill:url(#SVGID_2_);}
	.st3{opacity:0.3;fill:url(#SVGID_3_);}
	.st4{opacity:0.3;fill:url(#SVGID_4_);}
	.st5{fill:#ECBD2D;}
	.st6{fill:#1A75BB;}
	.st7{fill:#37A649;}
	.st8{clip-path:url(#SVGID_6_);fill:#FFFFFF;}
	.st9{fill:#FFFFFF;}
	.st10{clip-path:url(#SVGID_8_);fill:#37A649;}
	.st11{opacity:0.6;}
	.st12{fill-rule:evenodd;clip-rule:evenodd;fill:#4776B9;}
	.st13{opacity:0.6;fill:#4776B9;}
	.st14{opacity:0.6;fill:#231F20;}
	.st15{opacity:0.6;fill:none;}
	.st16{fill:#4776B9;}
	.st17{fill:#1F4581;}
	.st18{fill-rule:evenodd;clip-rule:evenodd;fill:#A34424;}
	.st19{fill-rule:evenodd;clip-rule:evenodd;fill:#37A649;}
	.st20{fill-rule:evenodd;clip-rule:evenodd;fill:#C83128;}
	.st21{fill-rule:evenodd;clip-rule:evenodd;fill:#ECBD2D;}
	.st22{fill-rule:evenodd;clip-rule:evenodd;fill:#1A75BB;}
	.st23{clip-path:url(#SVGID_10_);}
	.st24{fill:#231F20;}
</style>
<g>
	<path d="M302.52,9.35H93.24C86.2,9.36,80.51,15.06,80.5,22.09v57.72l-9.57-14.35c-4.38-6.61-13.19-8.59-19.98-4.5L31.26,72.8
		c-6.45,3.78-11.18,9.92-13.2,17.12c-7.18,26.15-1.85,71.21,64.28,137.36c52.59,52.54,91.81,66.69,118.84,66.69
		c6.26,0.03,12.49-0.78,18.53-2.42c7.2-2.02,13.33-6.74,17.12-13.18l11.82-19.71c4.08-6.78,2.1-15.57-4.5-19.95l-47.15-31.43
		c-6.47-4.28-15.14-2.87-19.92,3.23l-13.73,17.65c-1.43,1.89-4.04,2.44-6.11,1.29l-2.61-1.44c-8.6-4.69-19.29-10.52-40.9-32.13
		c-2.34-2.34-4.46-4.53-6.44-6.62h195.22c7.01,0.01,12.71-5.66,12.74-12.68V22.09C315.24,15.06,309.55,9.36,302.52,9.35z
		 M149.87,236.78l2.54,1.39c6.38,3.57,14.41,1.91,18.86-3.89l13.73-17.65c1.56-1.99,4.38-2.45,6.49-1.05l47.15,31.43
		c2.14,1.43,2.79,4.28,1.46,6.49l-11.82,19.71c-2.47,4.23-6.48,7.35-11.19,8.69c-23.61,6.49-64.93,1-127.65-61.72
		S21.24,116.15,27.71,92.56c1.34-4.71,4.45-8.72,8.69-11.19l19.71-11.83c2.21-1.32,5.06-0.68,6.49,1.46l31.44,47.15
		c1.39,2.11,0.94,4.93-1.05,6.49l-17.65,13.73c-5.8,4.45-7.45,12.47-3.89,18.85l1.4,2.54c4.99,9.16,11.2,20.56,33.83,43.18
		S140.71,231.79,149.87,236.78z M305.26,176.59c-0.02,1.5-1.24,2.71-2.75,2.7H98.29c-6.49-7.42-12.08-15.57-16.67-24.29l-1.44-2.62
		c-1.15-2.07-0.6-4.67,1.29-6.1l17.65-13.73c6.11-4.78,7.51-13.45,3.23-19.92L90.49,94.8V22.09c-0.01-0.73,0.28-1.43,0.8-1.95
		c0.52-0.52,1.22-0.8,1.95-0.8h209.28c0.73-0.01,1.43,0.28,1.95,0.8c0.52,0.52,0.8,1.22,0.8,1.95V176.59z"/>
	<path d="M292.31,33.44c-1.67-2.19-4.8-2.62-6.99-0.96l-83.48,63.31c-2.36,1.72-5.56,1.72-7.92,0l-83.45-63.31
		c-2.2-1.67-5.33-1.24-7,0.96c-1.67,2.2-1.24,5.33,0.96,7l83.46,63.3c5.94,4.39,14.04,4.39,19.98,0l83.48-63.3
		c1.06-0.8,1.75-1.99,1.93-3.3C293.46,35.82,293.11,34.49,292.31,33.44z"/>
	<path d="M155.25,104.16l-51.17,54.79c-1.88,2.02-1.77,5.18,0.25,7.06c2.02,1.88,5.18,1.77,7.06-0.25l51.17-54.82
		c1.69-2.04,1.49-5.04-0.45-6.85C160.17,102.3,157.16,102.33,155.25,104.16z"/>
	<path d="M240.83,104.16c-1.88-2.02-5.04-2.13-7.06-0.25c-2.02,1.88-2.13,5.04-0.25,7.06l51.15,54.79c1.88,2.02,5.04,2.13,7.06,0.25
		c2.02-1.88,2.13-5.04,0.25-7.06L240.83,104.16z"/>
</g>
</svg>
