<svg xmlns="http://www.w3.org/2000/svg" viewBox="0 0 113.46 113.41" xmlns:v="https://vecta.io/nano"><path d="M0 9.45h3.78v60.47H0z" fill="#fff"/><path d="M1.18 56.55a1.35 1.35 0 0 0 .34.11h.38a2 2 0 0 0 1.34-.55 1.94 1.94 0 0 0 .4-.62 1.92 1.92 0 0 0-.4-2.06 1.94 1.94 0 0 0-.62-.4 1.79 1.79 0 0 0-.72-.15 1.9 1.9 0 0 0-1.34 3.23l.28.23a2.39 2.39 0 0 0 .34.21zM103.94 0H9.45A9.46 9.46 0 0 0 0 9.45v37.8a1.89 1.89 0 1 0 3.78 0V9.45a5.67 5.67 0 0 1 5.67-5.62h63.38L44.08 75.6H9.45a5.67 5.67 0 0 1-5.62-5.67v-7.56a1.89 1.89 0 1 0-3.78 0v7.56a9.46 9.46 0 0 0 9.45 9.45h60.2a16.81 16.81 0 0 1 12 4.92l25.66 27.9a3.45 3.45 0 0 0 2.6 1.18 3.55 3.55 0 0 0 1.25-.23 3.47 3.47 0 0 0 2.25-3.27V9.45A9.45 9.45 0 0 0 104 0zm5.67 109.15L84.35 81.68a20.67 20.67 0 0 0-14.7-6.09h-21.5L76.83 3.83h27.1a5.67 5.67 0 0 1 5.67 5.67v99.65zM45.25 59.83L31 18.83a2.81 2.81 0 0 0-5.29 0l-14.26 41a1.88 1.88 0 0 0 .38 1.91 1.91 1.91 0 0 0 1.81.63 1.88 1.88 0 0 0 1.43-1.28l4.16-12h18.3l4.16 12a1.89 1.89 0 1 0 3.56-1.26zM20.5 45.36l7.86-22.6 7.86 22.6zm83.44 7.56c-5.73 0-10.38-5.4-12.56-11.34h3.8a4.31 4.31 0 0 0 3.43-1.75l2.7-3.58a3.78 3.78 0 0 0-3-6.05h-7.56v-3.74h3.78a1.89 1.89 0 1 0 0-3.78h-3.78V18.9a1.89 1.89 0 1 0-3.78 0h0v3.78h-3.8a1.89 1.89 0 1 0 0 3.78h3.78v3.78H79.4a3.78 3.78 0 0 0-3 6.05l2.67 3.54a4.28 4.28 0 0 0 3.43 1.71h3.8c-2.18 6-6.83 11.34-12.56 11.34a1.89 1.89 0 0 0 0 3.78c5.62 0 10.16-3.5 13.23-8.1v11.92a1.89 1.89 0 1 0 3.78 0V48.6c3.07 4.6 7.6 8.1 13.23 8.1a1.9 1.9 0 0 0 1.87-1.86 1.93 1.93 0 0 0-1.89-1.91zm-17-15.1h-4.48a.48.48 0 0 1-.4-.2l-2.68-3.58h7.56v3.78zM90.7 34h7.56l-2.7 3.6a.48.48 0 0 1-.4.2H90.7zm-26.44 75.6h-36.1v-.12l-2.37-5.74a7.17 7.17 0 0 0-1.6-2.39L9.6 86.78a5.68 5.68 0 0 0-7.27-.73 5.54 5.54 0 0 0-1.28 7.74 4.82 4.82 0 0 0 .58.69l14.7 14.73a7.17 7.17 0 0 0 2.39 1.6l5.74 2.38a2.86 2.86 0 0 0 1.08.22 3.93 3.93 0 0 0 .48-.06 1.74 1.74 0 0 0 .45.06h37.78a1.9 1.9 0 0 0 0-3.79zM3.83 90.4a1.77 1.77 0 0 1 .75-1.29 1.52 1.52 0 0 1 .92-.28 2.11 2.11 0 0 1 1.5.62l2.4 2.4-2.57 2.5-2.54-2.5a1.83 1.83 0 0 1-.46-1.43zm16.38 16.9a3.39 3.39 0 0 1-1.16-.78L9.55 97 12 94.52l9.5 9.5a3.65 3.65 0 0 1 .78 1.16l1.45 3.64zm30.8-1.47H32.13a1.89 1.89 0 1 1 0-3.78H51a1.89 1.89 0 1 1 0 3.78zm-5.64-7.56h-18.9a1.89 1.89 0 1 1 0-3.78h18.9a1.89 1.89 0 1 1 0 3.78z"/></svg>