<svg id="Layer_1" data-name="Layer 1" xmlns="http://www.w3.org/2000/svg" viewBox="0 0 107.95 113.37"><defs><style>.cls-1{fill:#201113;}</style></defs><title>Lportuguesa</title><path class="cls-1" d="M53,72.66a4,4,0,0,0,5.15,2.24L96,59.89a4,4,0,0,0,2.24-5.15l-15-38.1a4.16,4.16,0,0,0-5.15-2.24L40,29.41a4,4,0,0,0-2.24,5.15ZM79.63,18.88l14.57,37-37,14.57-14.56-37Z" transform="translate(-16.89 -14.18)"/><path class="cls-1" d="M61.7,78.71H20.92a4,4,0,0,0-4,4v40.78a4,4,0,0,0,4,4H61.7a4,4,0,0,0,4-4V82.74A4,4,0,0,0,61.7,78.71Zm-.45,44.37H21.37V83.19H61.26v39.89Z" transform="translate(-16.89 -14.18)"/><path class="cls-1" d="M122,78.48,82.54,68a4.09,4.09,0,0,0-4.93,2.91L67.08,110.3A4,4,0,0,0,70,115.23h0l39.44,10.53a4,4,0,0,0,4.93-2.91h0l10.31-39.44A4,4,0,0,0,122,78.48Zm-11.87,42.58L71.57,111,81.88,72.44l38.54,10.31Z" transform="translate(-16.89 -14.18)"/><path class="cls-1" d="M61.48,56.07c0,.45,0,.67.22.9a2.63,2.63,0,0,0,1.12,1.12,2.49,2.49,0,0,0,1.79,0A2.63,2.63,0,0,0,65.73,57,11.11,11.11,0,0,0,66,54.28V51.14l9-3.36,2,2.24.9.9c.22.22.67.45.9.67s.45.22.9.22a1.39,1.39,0,0,0,.9-.22,2.63,2.63,0,0,0,1.12-1.12,2,2,0,0,0,0-1.57,7.12,7.12,0,0,0-1.57-2L68.88,35l-1.34-1.34a2.24,2.24,0,0,0-1.12-.9,3.13,3.13,0,0,0-1.34-.45,5.39,5.39,0,0,0-3.14,1.12l-.67,1.34a5,5,0,0,0-.22,1.79V54.71C61.25,55.18,61.25,55.63,61.48,56.07ZM72,44.87l-6.5,2.46-.22-10.08Z" transform="translate(-16.89 -14.18)"/><path class="cls-1" d="M35,113.67h7.17c1.12,0,2-.22,3.14-.22a5,5,0,0,0,2.46-.67,6.56,6.56,0,0,0,2.69-2.24A6.79,6.79,0,0,0,51.62,107a5.54,5.54,0,0,0-4.71-5.6A5.53,5.53,0,0,0,50.5,96.2a6.36,6.36,0,0,0-.22-2,6.54,6.54,0,0,0-.9-1.79L48,91.05a6.74,6.74,0,0,0-2.24-.9,13,13,0,0,0-2.91-.22H35.05a3.76,3.76,0,0,0-2.24.67,3.76,3.76,0,0,0-.67,2.24v17.48a3.76,3.76,0,0,0,.67,2.24C33.47,113.67,34.14,113.89,35,113.67ZM36.83,94h3.81a10.45,10.45,0,0,1,3.81.67,2.45,2.45,0,0,1,1.34,2.24,4.06,4.06,0,0,1-.45,1.57,2.36,2.36,0,0,1-1.57,1.34,11.47,11.47,0,0,1-2.69.45H36.82V94Zm0,9.41h4.93a7.3,7.3,0,0,1,3.81.9,2.39,2.39,0,0,1,1.12,2.46q0,3.36-4.71,3.36H36.83Z" transform="translate(-16.89 -14.18)"/><path class="cls-1" d="M86.58,102.24a6.37,6.37,0,0,0,1.79,2.46,10.09,10.09,0,0,0,2.46,1.79A12.79,12.79,0,0,0,94,107.61a13.72,13.72,0,0,0,4.26.45,8.83,8.83,0,0,0,3.36-1.34,6.3,6.3,0,0,0,2.24-2,6.83,6.83,0,0,0,1.12-2.24,2,2,0,0,0-.22-1.57,1.48,1.48,0,0,0-1.12-.9,2,2,0,0,0-1.57.22c-.45.45-.9.67-1.12,1.34a5.64,5.64,0,0,1-6.5,2.24,6.87,6.87,0,0,1-2.91-1.34,5.66,5.66,0,0,1-1.34-3.14,9.92,9.92,0,0,1,.45-4.48A10.37,10.37,0,0,1,94,89a5.29,5.29,0,0,1,5.15-.9,5.36,5.36,0,0,1,2.69,1.57,7.86,7.86,0,0,1,1.34,3.14,5.69,5.69,0,0,0,.67,1.79,1.22,1.22,0,0,0,1.12.67,2,2,0,0,0,1.57-.22,1.48,1.48,0,0,0,.9-1.12,4.51,4.51,0,0,0-.45-3.36,7.3,7.3,0,0,0-2.46-4A12,12,0,0,0,100,84.3a15.18,15.18,0,0,0-4.48-.45,12.2,12.2,0,0,0-4,1.34,11.32,11.32,0,0,0-3.36,3.14,14.81,14.81,0,0,0-2,4.71,17.61,17.61,0,0,0-.45,3.36,15.09,15.09,0,0,0,.22,3.14A11.12,11.12,0,0,0,86.58,102.24Z" transform="translate(-16.89 -14.18)"/></svg>