<svg id="Layer_1" data-name="Layer 1" xmlns="http://www.w3.org/2000/svg" viewBox="0 0 102.92 107.3"><title>literatura</title><g id="Page-1"><path id="Shape" d="M104.8,11.7a1.73,1.73,0,0,0-1.7-.1A28,28,0,0,1,88.4,15a12.24,12.24,0,0,0-12-11.7H14.6a12.28,12.28,0,0,0-12,12.5V98.1a12.28,12.28,0,0,0,12,12.5H76.4A12.28,12.28,0,0,0,88.3,99,12.52,12.52,0,0,0,78.1,85.7V45.1c3.6-3.2,8.1-4.7,12.9-6.3l1.2-.4c11.9-4,13.3-24.1,13.3-25A1.81,1.81,0,0,0,104.8,11.7ZM76.4,6.9a8.75,8.75,0,0,1,8.5,8L81,14.6a63.92,63.92,0,0,0-14.5.1h-.1a27.41,27.41,0,0,0-15.9,8.7c-.4.4-.8.9-1.2,1.3H23A12.8,12.8,0,0,0,23,6.9ZM6,98.2V15.9A8.73,8.73,0,0,1,14.6,7a8.73,8.73,0,0,1,8.6,8.9,8.73,8.73,0,0,1-8.6,8.9,1.8,1.8,0,0,0,0,3.6H46.5c-8.9,12.5-5.8,23.9-4,28.4a67.11,67.11,0,0,0-6.9,18.1H18a1.8,1.8,0,0,0,0,3.6H37.1a1.69,1.69,0,0,0,1-.3l7.8-6a1.91,1.91,0,0,0,.7-1.4,59.89,59.89,0,0,1,.9-8.4A15.71,15.71,0,0,0,54.6,64a17.22,17.22,0,0,0,3.9-.4,21.19,21.19,0,0,0,12.7-8.4.1.1,0,0,1,.1-.1A39.92,39.92,0,0,0,74,50.7a6.38,6.38,0,0,1,.8-1.4V85.8H14.6a1.8,1.8,0,0,0,0,3.6,8.91,8.91,0,0,1,0,17.8A8.82,8.82,0,0,1,6,98.2ZM44.2,61.1a85.83,85.83,0,0,0-1,8.7l-3.4,2.6A64.54,64.54,0,0,1,44.2,61.1ZM85,98.2a8.73,8.73,0,0,1-8.6,8.9H23a12.9,12.9,0,0,0,3.6-8.9A12.72,12.72,0,0,0,23,89.3H76.4A8.86,8.86,0,0,1,85,98.2Zm6.2-63.3-1.2.4a46.87,46.87,0,0,0-10.1,4.2A6,6,0,0,1,76,37.9a1.77,1.77,0,0,0-1.7-.5,1.61,1.61,0,0,0-1.2,1.3,1.73,1.73,0,0,0,.4,1.7,7.61,7.61,0,0,0,2.6,1.8A21.64,21.64,0,0,0,70.9,49a19.23,19.23,0,0,1-1.8,3.1,21.49,21.49,0,0,1-9-2,1.71,1.71,0,0,0-2.3.8,1.79,1.79,0,0,0,.8,2.4,20.67,20.67,0,0,0,7.7,2.2,17.9,17.9,0,0,1-8.4,4.6,12.68,12.68,0,0,1-9.5-1.4,54.37,54.37,0,0,1,2.5-8.1c13.3-17,22.9-21,39.4-23.4a1.93,1.93,0,0,0,1.4-1.1,2.25,2.25,0,0,0-.2-1.8,1.64,1.64,0,0,0-1.6-.7c-17.4,2.6-28,6.9-41.9,24.9v.1c-1.1,1.4-2.1,2.9-3.1,4.4a25.78,25.78,0,0,1,3.7-21.4,20.24,20.24,0,0,0,.4,2.6,1.71,1.71,0,1,0,3.3-.9,14.89,14.89,0,0,1-.2-6.3c.3-.3.6-.7.9-1a24.52,24.52,0,0,1,10.6-6.8,17.74,17.74,0,0,0-.9,5.6,1.7,1.7,0,1,0,3.4,0,13.79,13.79,0,0,1,1.7-6.6,49.49,49.49,0,0,1,8.6-.3,13.25,13.25,0,0,0-1.6,2.5,1.79,1.79,0,0,0,.8,2.4,1.88,1.88,0,0,0,.8.2,1.54,1.54,0,0,0,1.5-1,11.81,11.81,0,0,1,3.2-3.8c6.8.5,13.8.9,20.7-2-.9,5.5-3.4,16.3-10.6,18.7Z" transform="translate(-2.6 -3.3)"/><path d="M18,69.6H31.7a1.77,1.77,0,0,0,1.7-1.8A1.71,1.71,0,0,0,31.7,66H18a1.77,1.77,0,0,0-1.7,1.8A1.71,1.71,0,0,0,18,69.6Z" transform="translate(-2.6 -3.3)"/><path d="M18,60.6H35.2a1.8,1.8,0,0,0,0-3.6H18a1.77,1.77,0,0,0-1.7,1.8A1.71,1.71,0,0,0,18,60.6Z" transform="translate(-2.6 -3.3)"/><path d="M18,51.7H35.2a1.8,1.8,0,0,0,0-3.6H18a1.77,1.77,0,0,0-1.7,1.8A1.71,1.71,0,0,0,18,51.7Z" transform="translate(-2.6 -3.3)"/><path d="M18,42.7H35.2a1.8,1.8,0,0,0,0-3.6H18a1.77,1.77,0,0,0-1.7,1.8A1.71,1.71,0,0,0,18,42.7Z" transform="translate(-2.6 -3.3)"/></g></svg>