<?xml version="1.0" encoding="utf-8"?>
<!-- Generator: Adobe Illustrator 23.0.0, SVG Export Plug-In . SVG Version: 6.00 Build 0)  -->
<svg version="1.1" id="Layer_1" xmlns="http://www.w3.org/2000/svg" xmlns:xlink="http://www.w3.org/1999/xlink" x="0px" y="0px"
	 viewBox="0 0 176.29 141.73" style="enable-background:new 0 0 176.29 141.73;" xml:space="preserve">
<style type="text/css">
	.st0{fill:#FDD4BF;}
	.st1{clip-path:url(#SVGID_2_);}
	.st2{fill:#010101;}
	.st3{clip-path:url(#SVGID_4_);}
	.st4{fill:#FFFFFF;}
	.st5{clip-path:url(#SVGID_6_);}
	.st6{fill:#010101;stroke:#000000;stroke-width:2;stroke-miterlimit:10;}
	.st7{stroke:#000000;stroke-width:0.75;stroke-miterlimit:10;}
	.st8{clip-path:url(#SVGID_8_);stroke:#000000;stroke-width:0.75;stroke-miterlimit:10;}
	.st9{clip-path:url(#SVGID_8_);stroke:#000000;stroke-miterlimit:10;}
	.st10{clip-path:url(#SVGID_10_);}
	.st11{fill:#73B9E6;}
	.st12{clip-path:url(#SVGID_12_);}
	.st13{fill:#201113;}
	.st14{fill:none;}
	.st15{clip-path:url(#SVGID_14_);fill-rule:evenodd;clip-rule:evenodd;}
	.st16{fill-rule:evenodd;clip-rule:evenodd;}
	.st17{clip-path:url(#SVGID_16_);stroke:#000000;stroke-miterlimit:10;}
	.st18{stroke:#000000;stroke-miterlimit:10;}
	.st19{clip-path:url(#SVGID_18_);}
	.st20{fill:#FEE55B;stroke:#000000;stroke-miterlimit:10;}
	.st21{clip-path:url(#SVGID_20_);fill:#231F20;stroke:#000000;stroke-miterlimit:10;}
	.st22{fill:#231F20;stroke:#000000;stroke-miterlimit:10;}
	.st23{fill:#231F20;}
	.st24{fill:#E9E9E9;}
	.st25{clip-path:url(#SVGID_22_);}
	.st26{fill:#E6E7E8;}
	.st27{fill:#949A9B;}
	.st28{clip-path:url(#SVGID_24_);}
	.st29{clip-path:url(#SVGID_26_);}
	.st30{clip-path:url(#SVGID_28_);stroke:#000000;stroke-miterlimit:10;}
	.st31{fill-rule:evenodd;clip-rule:evenodd;fill:#A44424;}
	.st32{fill-rule:evenodd;clip-rule:evenodd;fill:#38A749;}
	.st33{fill-rule:evenodd;clip-rule:evenodd;fill:#CA3229;}
	.st34{fill-rule:evenodd;clip-rule:evenodd;fill:#EDBE2E;}
	.st35{fill-rule:evenodd;clip-rule:evenodd;fill:#1C76BC;}
	.st36{fill:#204583;}
</style>
<g>
	<path d="M158.3,23.85h-2.57v-7.41c0-1.25-1.01-2.26-2.26-2.26H97.82c-3.98,0-7.5,1.96-9.68,4.95c-2.17-3-5.7-4.95-9.68-4.95H22.83
		c-1.25,0-2.26,1.01-2.26,2.26v7.41h-2.57c-3.92,0-7.1,3.19-7.1,7.1v79.83c0,3.92,3.19,7.1,7.1,7.1H74
		c1.06,5.51,5.91,9.68,11.73,9.68h4.84c5.81,0,10.66-4.17,11.72-9.68h56.01c3.92,0,7.1-3.19,7.1-7.1V30.95
		C165.4,27.04,162.21,23.85,158.3,23.85z M25.09,18.7h53.38c4.09,0,7.41,3.33,7.41,7.41v72.57c0,1.25,1.01,2.26,2.26,2.26
		c1.25,0,2.26-1.01,2.26-2.26V26.11c0-4.09,3.33-7.41,7.41-7.41h53.38v84.98H97.82c-3.98,0-7.5,1.95-9.68,4.95
		c-2.17-3-5.7-4.95-9.68-4.95H25.09V18.7z M160.87,110.78c0,1.42-1.16,2.57-2.57,2.57h-58.06c-1.25,0-2.26,1.01-2.26,2.26
		c0,4.09-3.33,7.41-7.41,7.41h-4.84c-4.09,0-7.41-3.33-7.41-7.41c0-1.25-1.01-2.26-2.26-2.26H17.99c-1.42,0-2.57-1.16-2.57-2.57
		V30.95c0-1.42,1.16-2.57,2.57-2.57h2.57v77.57c0,1.25,1.01,2.26,2.26,2.26h55.64c4.09,0,7.41,3.33,7.41,7.41
		c0,1.25,1.01,2.26,2.26,2.26c1.25,0,2.26-1.01,2.26-2.26c0-4.09,3.33-7.41,7.41-7.41h55.64c1.25,0,2.26-1.01,2.26-2.26V28.38h2.57
		c1.42,0,2.58,1.16,2.58,2.57V110.78z"/>
	<path d="M76.05,28.69H34.92c-1.25,0-2.26,1.01-2.26,2.26c0,1.25,1.01,2.26,2.26,2.26h41.12c1.25,0,2.26-1.01,2.26-2.26
		C78.31,29.7,77.3,28.69,76.05,28.69z"/>
	<path d="M76.05,40.78H34.92c-1.25,0-2.26,1.01-2.26,2.26c0,1.25,1.01,2.26,2.26,2.26h41.12c1.25,0,2.26-1.01,2.26-2.26
		C78.31,41.8,77.3,40.78,76.05,40.78z"/>
	<path d="M76.05,52.88H34.92c-1.25,0-2.26,1.01-2.26,2.26c0,1.25,1.01,2.26,2.26,2.26h41.12c1.25,0,2.26-1.01,2.26-2.26
		C78.31,53.89,77.3,52.88,76.05,52.88z"/>
	<path d="M76.05,64.97h-7.26c-1.25,0-2.26,1.01-2.26,2.26c0,1.25,1.01,2.26,2.26,2.26h7.26c1.25,0,2.26-1.01,2.26-2.26
		C78.31,65.99,77.3,64.97,76.05,64.97z"/>
	<path d="M76.05,77.07h-7.26c-1.25,0-2.26,1.01-2.26,2.26c0,1.25,1.01,2.26,2.26,2.26h7.26c1.25,0,2.26-1.01,2.26-2.26
		C78.31,78.08,77.3,77.07,76.05,77.07z"/>
	<path d="M76.05,89.16h-7.26c-1.25,0-2.26,1.01-2.26,2.26c0,1.25,1.01,2.26,2.26,2.26h7.26c1.25,0,2.26-1.01,2.26-2.26
		C78.31,90.18,77.3,89.16,76.05,89.16z"/>
	<path d="M56.7,64.97H34.92c-1.25,0-2.26,1.01-2.26,2.26v24.19c0,1.25,1.01,2.26,2.26,2.26H56.7c1.25,0,2.26-1.01,2.26-2.26V67.24
		C58.96,65.99,57.95,64.97,56.7,64.97z M54.43,89.16H37.19V69.5h17.25V89.16z"/>
	<path d="M100.24,93.69h41.12c1.25,0,2.26-1.01,2.26-2.26c0-1.25-1.01-2.26-2.26-2.26h-41.12c-1.25,0-2.26,1.01-2.26,2.26
		C97.98,92.68,98.99,93.69,100.24,93.69z"/>
	<path d="M100.24,81.6h41.12c1.25,0,2.26-1.01,2.26-2.26c0-1.25-1.01-2.26-2.26-2.26h-41.12c-1.25,0-2.26,1.01-2.26,2.26
		C97.98,80.58,98.99,81.6,100.24,81.6z"/>
	<path d="M100.24,69.5h41.12c1.25,0,2.26-1.01,2.26-2.26c0-1.25-1.01-2.26-2.26-2.26h-41.12c-1.25,0-2.26,1.01-2.26,2.26
		C97.98,68.49,98.99,69.5,100.24,69.5z"/>
	<path d="M100.24,57.41h7.26c1.25,0,2.26-1.01,2.26-2.26c0-1.25-1.01-2.26-2.26-2.26h-7.26c-1.25,0-2.26,1.01-2.26,2.26
		C97.98,56.39,98.99,57.41,100.24,57.41z"/>
	<path d="M100.24,45.31h7.26c1.25,0,2.26-1.01,2.26-2.26c0-1.25-1.01-2.26-2.26-2.26h-7.26c-1.25,0-2.26,1.01-2.26,2.26
		C97.98,44.3,98.99,45.31,100.24,45.31z"/>
	<path d="M100.24,33.21h7.26c1.25,0,2.26-1.01,2.26-2.26c0-1.25-1.01-2.26-2.26-2.26h-7.26c-1.25,0-2.26,1.01-2.26,2.26
		C97.98,32.2,98.99,33.21,100.24,33.21z"/>
	<path d="M119.59,57.41h21.77c1.25,0,2.26-1.01,2.26-2.26V30.95c0-1.25-1.01-2.26-2.26-2.26h-21.77c-1.25,0-2.26,1.01-2.26,2.26
		v4.84c0,1.25,1.01,2.26,2.26,2.26c1.25,0,2.26-1.01,2.26-2.26v-2.57h17.25v19.66h-17.25v-7.41c0-1.25-1.01-2.26-2.26-2.26
		c-1.25,0-2.26,1.01-2.26,2.26v9.68C117.33,56.39,118.34,57.41,119.59,57.41z"/>
</g>
</svg>
