<svg id="Layer_1" data-name="Layer 1" xmlns="http://www.w3.org/2000/svg" viewBox="0 0 555.51 85.71"><defs><style>.cls-1,.cls-2{fill:none;}.cls-2{fill-rule:evenodd;}</style></defs><title>logo</title><path class="cls-1" d="M121,43.32c.52,0,1.09.08,1.7.09h.53a31.86,31.86,0,0,1,6.64,1.38,12.11,12.11,0,0,1,2.85,1.9c1.36,1.46,2,2.7,2,3.72a3.13,3.13,0,0,1,.27,1.05,18.91,18.91,0,0,1-1.22,4.64A6.35,6.35,0,0,1,130,59.25a43.5,43.5,0,0,1-5.9,1l-.3.23.07.39a4.54,4.54,0,0,1-.09.81c0,1.72.07,2.72.07,3s0,.31,0,.34c.08,1.32.12,2.3.11,2.94v.35l-.42.85c-.07,0-.11,0-.11,0a5.84,5.84,0,0,0-1.91.14l-.16-.07c-.83.07-1.65.15-2.48.25-.31-.13-.46-.29-.46-.48l.09-.51-.07-.28.07-.51a9.48,9.48,0,0,0-.14-1.45c0-2.56,0-4.19-.11-4.87a5.24,5.24,0,0,0,.09-.89q-.09-11-.27-11a6.47,6.47,0,0,1,0-.8c0-.27,0-.61,0-1,0-.12,0-.25.07-.41-.09-1.18-.14-2.08-.12-2.71l0-.11q.27-.87.48-.87C119.32,43.41,120.2,43.35,121,43.32Zm2.13,3,0,.82.27,8.29,0,2,0,0c2.36-.59,3.73-1.1,4.11-1.54a5.17,5.17,0,0,0,2.37-4.27l0-.41q0-2-3.15-4.32c0-.19-1-.39-2.92-.6l-.39,0Z" transform="translate(-12.24 -13.31)"/><path class="cls-1" d="M139.92,42.86a1.11,1.11,0,0,1,.28,1l-.09.69c-.05,4.42,0,7.57.18,9.47,0,.11,0,1,.05,2.64a30.46,30.46,0,0,0,0,3.7l-.11.3a5.51,5.51,0,0,1,0,1.61c0,.35,0,.54.07.55l0,.09c0,.21-.06,1-.07,2.41l-.11.74c0,.61,0,1.72-.09,3.31l0,0c-.32.6-.56.89-.71.87a24.71,24.71,0,0,1-3.52-.18c-.09,0-.13-.16-.11-.34a2.92,2.92,0,0,1,.11-.32c-.05-.47-.06-1.55,0-3.22,0-.54,0-1.55.11-3L136,48c0-.15-.08-1.49-.3-4a2.41,2.41,0,0,1,0-.66l.05-.41c0-.32.24-.45.59-.41.09,0,.5,0,1.22.07l.41.16a1.09,1.09,0,0,1,.44,0l.48.07A4,4,0,0,0,139.92,42.86Z" transform="translate(-12.24 -13.31)"/><path class="cls-1" d="M158.8,51.13a1,1,0,0,1,1,1.22q0,.61.51,7.14a40.3,40.3,0,0,0,1.75,4.8A14.37,14.37,0,0,0,163.2,66a5.17,5.17,0,0,1,1.2,2.64v0c0,.11-.16.23-.44.35l-.28-.07-.39,0c-.2.07-.3.12-.3.14l-.27-.25a2.87,2.87,0,0,1-.87.14l-.9-.07c-.37,0-.75-.49-1.15-1.36l-1.47-2.71h-.07c-.68.86-1.45,1.73-2.28,2.6a5.63,5.63,0,0,1-2.92,1.4,10.63,10.63,0,0,1-3.91.3q-4.5-.84-5.58-1.75a3.62,3.62,0,0,1-2-1.9,5.51,5.51,0,0,1-.55-2.39l0-.51a7.71,7.71,0,0,1,1.31-3.77,14.11,14.11,0,0,1,2.27-3.06q2.35-2.36,3.43-2.62a3.8,3.8,0,0,1,2.48-.87l.34.09a12.67,12.67,0,0,1,3.24.11l1.9.62a2.41,2.41,0,0,0,.89.37h.12a16.06,16.06,0,0,0-.07-1.84C157,51.33,157.61,51.16,158.8,51.13Zm-13.34,9.71-.07.9A5.2,5.2,0,0,0,146.47,65a4.55,4.55,0,0,0,2.73,1.5l1,.09a2.59,2.59,0,0,0,1.61-.73,6.28,6.28,0,0,0,3.44-3.42,4,4,0,0,0,.51-1.84l0-.46a4.88,4.88,0,0,0-1.4-3,6,6,0,0,0-2.27-.94,6.48,6.48,0,0,0-4.43.92A12.53,12.53,0,0,0,145.46,60.84Zm17.45,8.06v0l.21,0,0,0c0-.08,0-.12-.11-.12S162.91,68.82,162.91,68.9Z" transform="translate(-12.24 -13.31)"/><path class="cls-1" d="M172,41.78l1,.18c.25,0,.32.37.23,1,0,3.24-.09,5.86-.18,7.88l.11.07q.59.1,4.62.09c.57.19.84.34.81.44a10,10,0,0,1-.19,3.1.81.81,0,0,1,.07.59v0l-.39.57-.32-.11c-3.31-.27-5-.27-5,0a36,36,0,0,0,.11,8.62c.57,2.73,1.14,4.14,1.73,4.25s1.1-.59,1.95-2c.14-.78.35-1.14.64-1.1a8,8,0,0,1,1.17,0c1.88.34,2.79.66,2.75,1-.35,1-.61,1.51-.76,1.49a6.42,6.42,0,0,1-2.05,2.21,3.72,3.72,0,0,1-1.56.64c0,.14-.8.12-2.34-.07a.51.51,0,0,1-.14-.09,6,6,0,0,1-.78-.09l-.42-.07c-2.37-.44-3.78-2.47-4.21-6.09a32.58,32.58,0,0,1-.28-7.26c.15-1.17.17-1.76,0-1.79a34,34,0,0,0-3.54,0,5.4,5.4,0,0,0-1.63,0q-.31,0-.21-1.65a14,14,0,0,1-.11-2c.12-.64.34-1,.66-1.15l.19.11,4.39.16c.45,0,.68,0,.69-.11s.1-3,.23-8.57c-.08,0-.12-.11-.11-.3s.5-.32,1.36-.16S171.74,41.74,172,41.78Z" transform="translate(-12.24 -13.31)"/><path class="cls-1" d="M199.23,51.13a1,1,0,0,1,1,1.22q0,.61.51,7.14a40.3,40.3,0,0,0,1.75,4.8A14.37,14.37,0,0,0,203.63,66a5.17,5.17,0,0,1,1.2,2.64v0c0,.11-.16.23-.44.35l-.28-.07-.39,0c-.2.07-.3.12-.3.14l-.27-.25a2.87,2.87,0,0,1-.87.14l-.9-.07c-.37,0-.75-.49-1.15-1.36l-1.47-2.71h-.07c-.68.86-1.45,1.73-2.28,2.6a5.63,5.63,0,0,1-2.92,1.4,10.63,10.63,0,0,1-3.91.3q-4.5-.84-5.58-1.75a3.62,3.62,0,0,1-2-1.9,5.51,5.51,0,0,1-.55-2.39l.05-.51a7.71,7.71,0,0,1,1.31-3.77,14.11,14.11,0,0,1,2.27-3.06q2.35-2.36,3.43-2.62a3.8,3.8,0,0,1,2.48-.87l.34.09a12.67,12.67,0,0,1,3.24.11l1.9.62a2.41,2.41,0,0,0,.89.37h.12a16.06,16.06,0,0,0-.07-1.84C197.43,51.33,198,51.16,199.23,51.13Zm-13.34,9.71-.07.9A5.2,5.2,0,0,0,186.9,65a4.55,4.55,0,0,0,2.73,1.5l1,.09a2.59,2.59,0,0,0,1.61-.73,6.28,6.28,0,0,0,3.44-3.42,4,4,0,0,0,.51-1.84l0-.46a4.88,4.88,0,0,0-1.4-3,6,6,0,0,0-2.27-.94,6.48,6.48,0,0,0-4.43.92A12.53,12.53,0,0,0,185.89,60.84Zm17.45,8.06v0l.21,0,0,0c0-.08,0-.12-.11-.12S203.34,68.82,203.34,68.9Z" transform="translate(-12.24 -13.31)"/><path class="cls-1" d="M215.36,42.69q7,.31,7,1.31a2,2,0,0,1,1.26,1.86,4.54,4.54,0,0,1,.3,1.36c0,.4-.58.66-1.73.78,0,.08-.14.12-.43.12h-.18a8,8,0,0,1-.89-2.21,6.07,6.07,0,0,0-1.26-1.26,5,5,0,0,0-2-.35,4.63,4.63,0,0,0-2.39,1.79,10.35,10.35,0,0,0-.9,5q.47,5.19.9,5.19a15.92,15.92,0,0,0,2.44-.18l.35,0a32,32,0,0,1,3.22-.23c.19,0,.39.83.6,2.5,0,.28-.28.43-.83.43a4.16,4.16,0,0,0-1.13.12,2.43,2.43,0,0,0-.55-.07l-1.84.12-2-.05a.43.43,0,0,0-.11.23q.78,5,1.13,8.59a5.21,5.21,0,0,1,.23.9v.35c0,.4-.7.6-2.09.6-.14,0-1,.12-2.57.35-.39,0-.58-.22-.58-.66v-.53s0-.07-.07-.07a3.13,3.13,0,0,0,.18-1.19v-.73a20.6,20.6,0,0,0-.28-3.45.49.49,0,0,1,0-.18c-.2-2.7-.42-4.06-.65-4.06h-1l-3.7.23c-.34,0-.54-.4-.6-1.19l-.18-.83v0a.6.6,0,0,1,.53-.35h.25l3.58-.3a1.62,1.62,0,0,0,.53.07c.28-.06.42-.14.42-.25a52.66,52.66,0,0,1-.48-5.37.49.49,0,0,0,0-.18.49.49,0,0,0,0-.25,6.61,6.61,0,0,0,0-.76c.21-2.41.55-4,1-4.66a3.58,3.58,0,0,1,1.91-2.14A11.17,11.17,0,0,1,215.36,42.69Z" transform="translate(-12.24 -13.31)"/><path class="cls-1" d="M231.62,51h0a13.44,13.44,0,0,1,5.51,1.4,7.81,7.81,0,0,1,2.51,2.35,5.29,5.29,0,0,0,.89,1.28,10.27,10.27,0,0,0,.71,1.65,11.73,11.73,0,0,1,.87,3.58v.18a9.77,9.77,0,0,1-1.63,3.86,4.41,4.41,0,0,1-1.42,1.29c-1.63,1.68-4,2.51-7.08,2.51h-.41c-1.85,0-3.11-.35-3.75-1.06A20,20,0,0,1,225,64.74,6.59,6.59,0,0,1,223.78,61q-.1,0-.12-.69a.67.67,0,0,1,.12-.35,13.56,13.56,0,0,1,1.28-5,6.55,6.55,0,0,1,3.4-3A6.32,6.32,0,0,1,231.62,51Zm-3.23,8.25c0,.58.05,1,.05,1.17h.07a.38.38,0,0,0-.07.18c0,1,.67,2.33,2,3.88a3.49,3.49,0,0,0,2.21.69q3.9,0,5.15-3a5.19,5.19,0,0,0,.25-1.24,7,7,0,0,0-1.77-4.21,7.18,7.18,0,0,0-3.15-2.39,1,1,0,0,0-.48-.12h-.11q-2.06,0-3.4,2.87A4.41,4.41,0,0,0,228.39,59.28Z" transform="translate(-12.24 -13.31)"/><path class="cls-1" d="M246,51.12l.16,0c.5,0,.72.48.67,1.36a10.24,10.24,0,0,0,0,1.28H247a9,9,0,0,1,1.68-.66,6,6,0,0,1,2-.21,18.77,18.77,0,0,1,5,1.7,4.1,4.1,0,0,1,1.81,3.17c.15,0,.31.75.46,2.21l-.07.27v.21q0,.28,0,.9l-.11.05a7.69,7.69,0,0,0-1,0c-1.63-.08-2.44-.25-2.43-.5L254,58.23a5.63,5.63,0,0,0-1-2.76,1.87,1.87,0,0,0-1-.37l-.37,0c-.77,0-1.74.55-2.9,1.75a10.21,10.21,0,0,0-1.49,3.81c0,.71-.1,2.66-.2,5.84a9.84,9.84,0,0,1,.28,1.56,2.28,2.28,0,0,0-.12.53l0,.37a.35.35,0,0,1-.39.25l-1.49-.09a12.8,12.8,0,0,0-2,.11c-.24,0-.35-.78-.35-2.3a82.61,82.61,0,0,1-.32-9.16l-.16-4.21,0-.64a2.71,2.71,0,0,0-.12-.76.59.59,0,0,0,.07-.14c-.06-.33-.09-.51-.09-.55a.59.59,0,0,0,.07-.2l.64,0A26.77,26.77,0,0,1,246,51.12Z" transform="translate(-12.24 -13.31)"/><path class="cls-1" d="M262.73,51c.44,0,.61.83.53,2.41a.5.5,0,0,0-.09.25l.12.07.39,0a5.94,5.94,0,0,1,2.27-.39,3.78,3.78,0,0,1,.71.09l.39,0q4.92.55,5.51,1.63a7.55,7.55,0,0,1,1.36,2,7.64,7.64,0,0,0,1.42-1.33c1.35-.68,2.3-1.13,2.85-1.33a9.9,9.9,0,0,1,1.67-.18,8.83,8.83,0,0,1,2.28.64l.14-.05a5.56,5.56,0,0,1,2.89,1.36,24.67,24.67,0,0,1,1.28,2.64l.78,3.26a.4.4,0,0,0-.07.2l.78,4.85c.13,0,.21.51.25,1.49l-.05.78c0,.27-1.43.37-4.25.28a.69.69,0,0,1-.39.11c-.15,0-.33-1.19-.53-3.56a37.65,37.65,0,0,0-1-7c-.48-.8-1-1.22-1.59-1.24l-.51,0c-.61,0-1.41.84-2.39,2.59a24.29,24.29,0,0,0-1.26,6.87l.16.46c0,.94-.33,1.4-.83,1.36-1.32,0-2.57.06-3.74.12-.31,0-.52-1.26-.64-3.75q-1.59-10-3.6-10.09h0a3.14,3.14,0,0,0-2.07,1.5,10.4,10.4,0,0,0-1.15,3.54,1.39,1.39,0,0,0,0,.44c0,.14-.05.55-.12,1.22a31.69,31.69,0,0,0,.11,6.62l0,.12a1.16,1.16,0,0,1-1,.41l-.83-.11-.85,0-.12-.07a5.25,5.25,0,0,1-1,.14l-.12-.07a1.27,1.27,0,0,1-.27.05,1.11,1.11,0,0,1-.51-.23l-.37,0q-.91-14.38-.87-15.41L258,51.21c0-.26,1.3-.34,3.88-.25a.32.32,0,0,0,.18.07A2.75,2.75,0,0,1,262.73,51Z" transform="translate(-12.24 -13.31)"/><path class="cls-1" d="M306.05,51.13a1,1,0,0,1,1,1.22q0,.61.51,7.14a40.3,40.3,0,0,0,1.75,4.8A14.37,14.37,0,0,0,310.45,66a5.17,5.17,0,0,1,1.2,2.64v0c0,.11-.16.23-.44.35l-.28-.07-.39,0c-.2.07-.3.12-.3.14l-.27-.25a2.87,2.87,0,0,1-.87.14l-.9-.07c-.37,0-.75-.49-1.15-1.36l-1.47-2.71h-.07c-.68.86-1.45,1.73-2.28,2.6a5.63,5.63,0,0,1-2.92,1.4,10.63,10.63,0,0,1-3.91.3q-4.5-.84-5.58-1.75a3.62,3.62,0,0,1-2-1.9,5.51,5.51,0,0,1-.55-2.39l.05-.51a7.71,7.71,0,0,1,1.31-3.77,14.11,14.11,0,0,1,2.27-3.06q2.36-2.36,3.43-2.62a3.8,3.8,0,0,1,2.48-.87l.34.09a12.67,12.67,0,0,1,3.24.11l1.9.62a2.41,2.41,0,0,0,.89.37h.12a16.06,16.06,0,0,0-.07-1.84C304.25,51.33,304.86,51.16,306.05,51.13Zm-13.34,9.71-.07.9A5.2,5.2,0,0,0,293.72,65a4.55,4.55,0,0,0,2.73,1.5l1,.09a2.59,2.59,0,0,0,1.61-.73,6.28,6.28,0,0,0,3.44-3.42,4,4,0,0,0,.51-1.84l0-.46a4.88,4.88,0,0,0-1.4-3,6,6,0,0,0-2.27-.94,6.48,6.48,0,0,0-4.43.92A12.53,12.53,0,0,0,292.71,60.84Zm17.45,8.06v0l.21,0,0,0c0-.08,0-.12-.11-.12S310.16,68.82,310.16,68.9Z" transform="translate(-12.24 -13.31)"/><path class="cls-1" d="M336.73,43.92a1.45,1.45,0,0,1,.76.34,22.9,22.9,0,0,0,1.15,2.28A19.65,19.65,0,0,0,340,49.11q1.61,2.66,5,9.6c1.28,2.94,2.05,4.62,2.34,5A10.51,10.51,0,0,1,348.81,67l1,1.72-.2.32-.18,0-.67.14a0,0,0,0,1-.05-.05,25.51,25.51,0,0,0-4.51.48h-.05c-.07,0-.17-.27-.28-.81s-.68-2-1.47-4.55a9.16,9.16,0,0,0-1.27-2.67c-.56-.06-.89-.09-1-.09-.83,0-2.52,0-5.08.14l-3.52-.05q-1,2.09-2,4.91c-.12,0-.35.7-.71,2.09-.07,0-.18.28-.34.81l-.23.09q-1.29-.09-1.95-.09l-2.2,0-1,0-.14,0c-.38-.17-.57-.28-.57-.34V68.9a48.41,48.41,0,0,0,2.43-5.28c.19-.33.65-1.35,1.38-3a11.28,11.28,0,0,0,.9-1.77l4.52-8.5,2.28-3.81c.65-1,1.06-1.73,1.24-2.09a1.6,1.6,0,0,1,.9-.48Zm-3,13,.11.05h.71l4.18-.11.11-.14a30.7,30.7,0,0,0-2.43-4.46c-.13,0-.37.35-.73,1C335.06,54.24,334.41,55.44,333.69,56.9Z" transform="translate(-12.24 -13.31)"/><path class="cls-1" d="M362.37,52a10.32,10.32,0,0,1,4.78,2.14c1.54,2.05,2.33,3.61,2.39,4.66a46.83,46.83,0,0,1,.81,7.56c.15,1,.4,2.19.74,3.56v0c0,.18-.31.27-.85.28-.13,0-.19.08-.19.11l-.12-.07c-1.81,0-2.93,0-3.38,0s-.82-.86-.76-2.41a55.89,55.89,0,0,1-.32-5.72q-.37-4.11-1.65-5.63a6.83,6.83,0,0,0-2.2-1.2l-.94-.09q-1.06-.11-3,1.35a8.75,8.75,0,0,0-2.2,4.6,6.4,6.4,0,0,0-.32,1.2,50.89,50.89,0,0,0,.2,6.38l0,.12c0,.28-.58.39-1.67.32L351,69a.07.07,0,0,0-.07,0,.32.32,0,0,0-.18-.07h-.62c-.12,0-.16-.81-.12-2.41q-.14-2.68-.3-4.2l.07-.11q-.21-2.66-.18-3a.43.43,0,0,0,.09-.23q-.18-2.48-.3-7.14c.12-.52.37-.75.76-.71,1.45.11,2.6.2,3.44.28l.5.05c.2,0,.32.77.37,2.25l.18.14c1.63-1.23,2.95-1.79,3.95-1.68A13.15,13.15,0,0,1,362.37,52Z" transform="translate(-12.24 -13.31)"/><path class="cls-1" d="M374.19,49.94c1.07.26,1.59.61,1.54,1.06q.51,16.83.64,17.6c-.2.85-.53,1.25-1,1.2a5.57,5.57,0,0,0-1.08.28l-.46-.12-.78-.07a6.44,6.44,0,0,0-.73,0l-.05,0c-.84-.38-1.22-.9-1.15-1.56q.28-2.69-.34-16.77a3.76,3.76,0,0,0-.09-1v-.07c0-.39.38-.61,1-.67a.65.65,0,0,0,.2.09,3.65,3.65,0,0,1,.53-.09A2.86,2.86,0,0,1,373,50Z" transform="translate(-12.24 -13.31)"/><path class="cls-1" d="M384.53,50.34a14.5,14.5,0,0,1,4.64,1.08c1.14.79,1.72,1.45,1.72,2l.92,2.92c0,.46-.15.69-.44.69a9.55,9.55,0,0,1-2.59.32c-.58-1.87-1.24-3-2-3.38a4.07,4.07,0,0,0-2.16-.81c-1.59,0-2.8,1-3.61,2.85a1.61,1.61,0,0,0,0,.44v.32c.32,1.65,1.42,2.48,3.29,2.48q4.94,0,7.26,1.56a4.91,4.91,0,0,1,2,4v.44a3.38,3.38,0,0,1-1.67,2.8c-1.39,1.13-2.35,1.71-2.87,1.72a14.71,14.71,0,0,1-3.38.76h-1.08a6.11,6.11,0,0,1-3.19-.71q-3.62-1.69-4.2-3.33a14,14,0,0,1-1-3.45c.08-.47.21-.71.37-.71a26.55,26.55,0,0,0,2.69.18.32.32,0,0,1,.18-.07c.5.09.74.31.74.66a6.65,6.65,0,0,0,1.08,3,4.8,4.8,0,0,0,3.61,1.84A5.86,5.86,0,0,0,388,66.3a2.9,2.9,0,0,0,.85-1.74v-.74q0-2.57-6.57-3a5.29,5.29,0,0,1-4.09-2,4.53,4.53,0,0,1-1-2.76,4.88,4.88,0,0,1,.92-2.3,5.46,5.46,0,0,1,2.69-2.32A9.84,9.84,0,0,1,384.53,50.34Z" transform="translate(-12.24 -13.31)"/><path class="cls-1" d="M396.52,43a3.1,3.1,0,0,1,2.81,2.39l.05.8a2.11,2.11,0,0,1-1.7,1.79,3.25,3.25,0,0,1-1.67.28,2.46,2.46,0,0,1-2.51-2.3q.21-2,1-2.25A2.82,2.82,0,0,1,396.52,43Zm.76,7c1.07.26,1.59.61,1.54,1.06q.51,16.83.64,17.6c-.2.85-.53,1.25-1,1.2a5.57,5.57,0,0,0-1.08.28L397,70l-.78-.07a6.44,6.44,0,0,0-.73,0l-.05,0c-.84-.38-1.22-.9-1.15-1.56q.28-2.69-.34-16.77a3.76,3.76,0,0,0-.09-1v-.07c.05-.39.38-.61,1-.67a.65.65,0,0,0,.2.09,3.65,3.65,0,0,1,.53-.09A2.86,2.86,0,0,1,396,50Z" transform="translate(-12.24 -13.31)"/><path class="cls-1" d="M407.71,51.5h.05a13.44,13.44,0,0,1,5.51,1.4,7.81,7.81,0,0,1,2.51,2.35,5.29,5.29,0,0,0,.89,1.28,10.27,10.27,0,0,0,.71,1.65,11.73,11.73,0,0,1,.87,3.58v.18a9.77,9.77,0,0,1-1.63,3.86,4.41,4.41,0,0,1-1.42,1.29c-1.63,1.68-4,2.51-7.08,2.51h-.41c-1.85,0-3.11-.35-3.75-1.06A20,20,0,0,1,401,65.21a6.59,6.59,0,0,1-1.17-3.75q-.11,0-.12-.69a.67.67,0,0,1,.12-.35,13.56,13.56,0,0,1,1.28-5,6.55,6.55,0,0,1,3.4-3A6.42,6.42,0,0,1,407.71,51.5Zm-3.22,8.26c0,.58.05,1,.05,1.17h.07a.38.38,0,0,0-.07.18c0,1,.67,2.33,2,3.88a3.49,3.49,0,0,0,2.21.69q3.9,0,5.15-3a5.19,5.19,0,0,0,.25-1.24,7,7,0,0,0-1.77-4.21,7.18,7.18,0,0,0-3.15-2.39,1,1,0,0,0-.48-.12h-.11q-2.06,0-3.4,2.87A4.22,4.22,0,0,0,404.49,59.76Z" transform="translate(-12.24 -13.31)"/><path class="cls-1" d="M451,44.63a1,1,0,0,1,.71.5.5.5,0,0,1-.09.23c-.14,2.1-.13,3.16,0,3.17l0,.37a2.39,2.39,0,0,0,0,.81.88.88,0,0,1-.81.85l-.32,0a.35.35,0,0,1-.23-.07l-7.14-.07-.07.12,0,.18q0,5,.21,9.63,0,.57,0,.69l-.09.25a3.78,3.78,0,0,0,.05.8l-.07.25c0,4.52,0,7.13.11,7.83-.09.25-.18.37-.27.35l-.25,0a25.77,25.77,0,0,1-4.06.14c-.61-.06-.9-.33-.85-.81q.08-2.28.07-9.32l.16-9c0-.67-.09-1-.16-1a85.16,85.16,0,0,0-9.21.18h-.05c-.35-.18-.51-.56-.46-1.15l-.2-4.18,0-.32c.21-.31.67-.43,1.38-.37q7.37.08,13.25-.07a47,47,0,0,0,6.75,0A4,4,0,0,1,451,44.63Z" transform="translate(-12.24 -13.31)"/><path class="cls-1" d="M461.83,51.2a22.8,22.8,0,0,1,4.46.55,12.34,12.34,0,0,1,4,2.32,6,6,0,0,1,1.52,2,7.16,7.16,0,0,1,1.22,4c0,.48-.18.73-.42.73l-1-.07a2.38,2.38,0,0,1-.55.12H470c-3.46.33-5.25.5-5.38.5a2,2,0,0,1-.5.18.35.35,0,0,0-.18-.05,49.54,49.54,0,0,0-6.78.73v.12a11.59,11.59,0,0,0,1.65,2.81A6.6,6.6,0,0,0,464,67.58q2.1-.22,5.06-2.75a5.76,5.76,0,0,1,1.59-1.72h.12c1.75.53,2.62,1.08,2.62,1.65V65a16.58,16.58,0,0,1-3.29,2.44,7.27,7.27,0,0,1-1.77.87c0,.09-.45.24-1.35.42a9.17,9.17,0,0,1-3.12.73s0,.07-.07.07l-.12-.07a10.61,10.61,0,0,1-1.58.12H462c-.41,0-.9,0-1.47,0a.44.44,0,0,1-.19,0,14.11,14.11,0,0,1-6-2.87A6.83,6.83,0,0,1,452,61.59a13.25,13.25,0,0,1,1.84-5.88,12.17,12.17,0,0,1,4-3.12,5.72,5.72,0,0,1,2.5-1.15A4.55,4.55,0,0,1,461.83,51.2Zm-4.94,7.88.25.12c.84-.12,1.95-.24,3.35-.37a.43.43,0,0,1,.2.07c4.64-.11,7-.31,7-.62v-.05A13.86,13.86,0,0,0,465.83,55a3.7,3.7,0,0,0-3.19-1.47h-.12a7.27,7.27,0,0,0-3.47,2A5.79,5.79,0,0,0,456.91,59v0Z" transform="translate(-12.24 -13.31)"/><path class="cls-1" d="M476.53,43a3.1,3.1,0,0,1,2.81,2.39l.05.8a2.11,2.11,0,0,1-1.7,1.79,3.25,3.25,0,0,1-1.67.28,2.46,2.46,0,0,1-2.51-2.3q.21-2,1-2.25A2.82,2.82,0,0,1,476.53,43Zm.76,7c1.07.26,1.59.61,1.54,1.06q.51,16.83.64,17.6c-.2.85-.53,1.25-1,1.2a5.57,5.57,0,0,0-1.08.28L477,70l-.78-.07a6.44,6.44,0,0,0-.73,0l-.05,0c-.84-.38-1.22-.9-1.15-1.56q.28-2.69-.34-16.77a3.76,3.76,0,0,0-.09-1v-.07c.05-.39.38-.61,1-.67a.65.65,0,0,0,.2.09,3.65,3.65,0,0,1,.53-.09,2.86,2.86,0,0,1,.51.12Z" transform="translate(-12.24 -13.31)"/><path class="cls-1" d="M500.86,51.08h.07l0,.2a11.93,11.93,0,0,1-2.25,2.55A18.29,18.29,0,0,1,494.94,58q-1.89,1.88-1.95,2.46a53.73,53.73,0,0,0,4.57,5.77q3.21,2.64,3.24,2.73c-.17.51-.33.76-.5.74l-5.06.64s-.09,0-.25,0a14.83,14.83,0,0,1-2.32-3l-2.78-3.72a.6.6,0,0,0-.18-.07,27.73,27.73,0,0,0-2.85,3.28c-.44.6-.92,1.32-1.45,2.16a2.42,2.42,0,0,1-1.84.6l-3.65.11c-.2,0-.29-.12-.28-.21V69.5a9,9,0,0,1,1.91-2.82,10.19,10.19,0,0,1,1.24-1.75,17.3,17.3,0,0,1,2.67-3.24c1.05-1.09,1.59-1.78,1.61-2.07l0-.11q-2.67-3.43-4.76-6.34c-.35-.11-1-.78-1.93-2a.55.55,0,0,0-.28-.14v-.07c0-.18.92-.28,2.69-.32s3,.45,3.61,1.47q2.73,3.75,3.54,4.62c.06,0,.84-.77,2.36-2.3a29.07,29.07,0,0,0,3-3.22.65.65,0,0,1,.37-.27l4.59.35A1.34,1.34,0,0,1,500.86,51.08Z" transform="translate(-12.24 -13.31)"/><path class="cls-1" d="M510.58,51.2a22.8,22.8,0,0,1,4.46.55,12.34,12.34,0,0,1,4,2.32,6,6,0,0,1,1.52,2,7.16,7.16,0,0,1,1.22,4c0,.48-.18.73-.42.73l-1-.07a2.38,2.38,0,0,1-.55.12h-1.05c-3.46.33-5.25.5-5.38.5a2,2,0,0,1-.5.18.35.35,0,0,0-.18-.05,49.54,49.54,0,0,0-6.78.73v.12a11.59,11.59,0,0,0,1.65,2.81,6.6,6.6,0,0,0,5.21,2.44q2.1-.22,5.06-2.75a5.76,5.76,0,0,1,1.59-1.72h.12c1.75.53,2.62,1.08,2.62,1.65V65a16.58,16.58,0,0,1-3.29,2.44,7.27,7.27,0,0,1-1.77.87c0,.09-.45.24-1.35.42a9.17,9.17,0,0,1-3.12.73s0,.07-.07.07l-.12-.07a10.61,10.61,0,0,1-1.58.12h-.12c-.41,0-.9,0-1.47,0a.44.44,0,0,1-.19,0,14.11,14.11,0,0,1-6-2.87,6.83,6.83,0,0,1-2.27-5.13,13.25,13.25,0,0,1,1.84-5.88,12.17,12.17,0,0,1,4-3.12,5.72,5.72,0,0,1,2.5-1.15A4.55,4.55,0,0,1,510.58,51.2Zm-4.94,7.88.25.12c.84-.12,1.95-.24,3.35-.37a.43.43,0,0,1,.2.07c4.64-.11,7-.31,7-.62v-.05A13.86,13.86,0,0,0,514.58,55a3.7,3.7,0,0,0-3.19-1.47h-.12a7.27,7.27,0,0,0-3.47,2A5.79,5.79,0,0,0,505.66,59v0Z" transform="translate(-12.24 -13.31)"/><path class="cls-1" d="M525.28,43a3.1,3.1,0,0,1,2.81,2.39l0,.8a2.11,2.11,0,0,1-1.7,1.79,3.25,3.25,0,0,1-1.67.28,2.46,2.46,0,0,1-2.51-2.3q.21-2,1-2.25A2.84,2.84,0,0,1,525.28,43Zm.76,7c1.07.26,1.59.61,1.54,1.06q.51,16.83.64,17.6c-.2.85-.53,1.25-1,1.2a5.57,5.57,0,0,0-1.08.28l-.46-.12-.78-.07a6.44,6.44,0,0,0-.73,0h-.05c-.84-.38-1.22-.9-1.15-1.56q.29-2.68-.34-16.77a3.76,3.76,0,0,0-.09-1v-.07c0-.39.38-.61,1-.67a.65.65,0,0,0,.2.09,3.65,3.65,0,0,1,.53-.09,2.86,2.86,0,0,1,.51.12Z" transform="translate(-12.24 -13.31)"/><path class="cls-1" d="M532.11,51.59l.16,0c.5,0,.72.48.67,1.36a10.24,10.24,0,0,0,0,1.28h.11a9,9,0,0,1,1.68-.66,6,6,0,0,1,2-.21,18.77,18.77,0,0,1,5,1.7,4.1,4.1,0,0,1,1.81,3.17c.15,0,.31.75.46,2.21l-.07.27v.21q0,.29,0,.9l-.11,0a7.69,7.69,0,0,0-1,0c-1.63-.08-2.44-.25-2.43-.5l-.39-2.69a5.63,5.63,0,0,0-1-2.76,1.87,1.87,0,0,0-1-.37l-.37,0c-.77,0-1.74.55-2.9,1.75a10.21,10.21,0,0,0-1.49,3.81c0,.71-.1,2.66-.2,5.84a9.84,9.84,0,0,1,.28,1.56,2.28,2.28,0,0,0-.12.53l0,.37a.35.35,0,0,1-.39.25l-1.49-.09a12.8,12.8,0,0,0-2,.11c-.24,0-.35-.78-.35-2.3a82.61,82.61,0,0,1-.32-9.16L528.58,54l0-.64a2.71,2.71,0,0,0-.12-.76.59.59,0,0,0,.07-.14c-.06-.33-.09-.51-.09-.55a.59.59,0,0,0,.07-.2l.64,0C530.64,51.62,531.62,51.57,532.11,51.59Z" transform="translate(-12.24 -13.31)"/><path class="cls-1" d="M562.15,51.61a1,1,0,0,1,1,1.22q0,.62.51,7.14a40.3,40.3,0,0,0,1.75,4.8,14.37,14.37,0,0,0,1.17,1.75,5.17,5.17,0,0,1,1.2,2.64v0c0,.11-.16.23-.44.35l-.28-.07-.39,0c-.2.07-.3.12-.3.14l-.27-.25a2.87,2.87,0,0,1-.87.14l-.9-.07c-.37,0-.75-.49-1.15-1.36l-1.47-2.71h-.07c-.68.86-1.45,1.73-2.28,2.6a5.63,5.63,0,0,1-2.92,1.4,10.63,10.63,0,0,1-3.91.3q-4.5-.84-5.58-1.75a3.62,3.62,0,0,1-2-1.9,5.51,5.51,0,0,1-.55-2.39l0-.51a7.71,7.71,0,0,1,1.31-3.77A14.11,14.11,0,0,1,548,56.26q2.36-2.35,3.43-2.62a3.8,3.8,0,0,1,2.48-.87l.34.09a12.67,12.67,0,0,1,3.24.11l1.9.62a2.41,2.41,0,0,0,.89.37h.12a16.06,16.06,0,0,0-.07-1.84C560.35,51.8,561,51.63,562.15,51.61Zm-13.34,9.7-.07.9a5.2,5.2,0,0,0,1.08,3.24,4.55,4.55,0,0,0,2.73,1.5l1,.09a2.59,2.59,0,0,0,1.61-.73,6.28,6.28,0,0,0,3.44-3.42,4,4,0,0,0,.51-1.84l0-.46a4.88,4.88,0,0,0-1.4-3,6,6,0,0,0-2.27-.94,6.48,6.48,0,0,0-4.43.92A12.65,12.65,0,0,0,548.81,61.31Zm17.45,8.06v0l.21,0,0,0c0-.08,0-.12-.11-.12S566.26,69.3,566.26,69.37Z" transform="translate(-12.24 -13.31)"/><path class="cls-1" d="M376.59,41.73v0q.28-.14.36-.06l.35.33c.09,0,.13.06.14.05s0,0,.07.1c.36.35,1,.92,1.28,1.19l.14.26a1.71,1.71,0,0,1-.2.41,2,2,0,0,0-.29.22c-.75.92-1.25,1.57-1.52,2-.78.9-1.22,1.44-1.33,1.61l-.09,0a9.46,9.46,0,0,1-.74.9c0,.05-.21,0-.48-.13l-.05-.07c-.06-.05-.49-.48-.82-.74l-.05-.05a1.93,1.93,0,0,1-.18-.22l-.18-.15c-.37-.38-.53-.58-.49-.62a20.93,20.93,0,0,1,1.61-1.92l.09,0a5.68,5.68,0,0,0,.37-.46l.09,0A17.55,17.55,0,0,1,376,42.59,3.23,3.23,0,0,1,376.59,41.73Z" transform="translate(-12.24 -13.31)"/><path class="cls-1" d="M27.65,99,12.24,23.73,94.51,13.31,92.45,97.48ZM16.23,26.59l14.13,69,58.83-1.4,1.89-77.11Z" transform="translate(-12.24 -13.31)"/><path class="cls-2" d="M46.41,77.56l2.15.26c.31,0,.44.17.45.51,0,1.46.23,1.58,1.54,2.19a3.11,3.11,0,0,0,2.85,0,.55.55,0,0,1,.48.07,13.56,13.56,0,0,1,3.49,3.83A3.81,3.81,0,0,1,56.5,89a4.74,4.74,0,0,1-5.08,1.32,22,22,0,0,1-8.66-3.93,16.82,16.82,0,0,1-2.15-2.07,3.42,3.42,0,0,1,.46-5.25c1.43-1.17,3.15-1.47,5.34-1.5" transform="translate(-12.24 -13.31)"/><path class="cls-2" d="M77.74,79a21.51,21.51,0,0,0-17.3-6.65,8.13,8.13,0,0,0-5.19,2.13,16.41,16.41,0,0,1,3-.77,17.49,17.49,0,0,1,12.55,2.12c3.49,2.17,5.59,5.23,5.5,9.49A17.21,17.21,0,0,1,76,87.69l-.32,0a1.69,1.69,0,0,1-.09-.49c.43-5.42-2.23-9.19-7-11.07-13.29-5.27-15.58,1.64-16,3,.67-.53,1.22-1,1.79-1.41a4.17,4.17,0,0,1,5.06-.37,9.48,9.48,0,0,1,1.28.85c1,.88,2,1.77,2.92,2.73a43.29,43.29,0,0,1,5,6.48,4.77,4.77,0,0,0,3.37,2.22,8,8,0,0,0,2.54,0,5.32,5.32,0,0,0,4.51-3.31A6.58,6.58,0,0,0,77.74,79Z" transform="translate(-12.24 -13.31)"/><path class="cls-2" d="M48.85,66.14c-5.37-5.88-12.47-7.61-20.31-5.44a1.76,1.76,0,0,1-.66-.11v-.17c5.4-2.41,10.71-1.82,15.9.59a16.91,16.91,0,0,1,8.54,8.13,10.91,10.91,0,0,1,1,3.57,8.55,8.55,0,0,0-.4-3.46,16.07,16.07,0,0,0-4.47-6.91A29.8,29.8,0,0,0,35.57,55a8.34,8.34,0,0,0-5.49.08,6.89,6.89,0,0,0-4.52,4.68,7.17,7.17,0,0,0,1.11,5.75A6.52,6.52,0,0,0,32.83,69a67.61,67.61,0,0,1,9.54.31,18.4,18.4,0,0,1,5.24,1.14c3.53,1.49,3.16,3.24,3.11,4.66,0,1,0,2,0,3h.2c.06-.14.12-.28.17-.42C51.32,76.79,56,73.92,48.85,66.14Z" transform="translate(-12.24 -13.31)"/><path class="cls-2" d="M58.1,53.75a27.18,27.18,0,0,0-1-7.11,10.41,10.41,0,0,0-5.37-6.77,14,14,0,0,0-6.4-1.41,9.22,9.22,0,0,0-5.08,1.36,2.6,2.6,0,0,0-1.16,2.4c0,2.5,1.24,4.56,2.57,6.55.23.34.5.65.73,1a21.42,21.42,0,0,1,2.85,6.11,5.44,5.44,0,0,0,2.57,3.57.27.27,0,0,1,.08.07c3,2.47,5.63,5.21,6.69,9A31.79,31.79,0,0,0,45,40.66c-.24-.24-.56-.42-.21-.8h.17A49.16,49.16,0,0,1,50,45.11a31.58,31.58,0,0,1,6,23.16c.56-1.28,1.12-2.56,1.65-3.85a6,6,0,0,0,.45-2.13C58.18,59.44,58.18,56.6,58.1,53.75Z" transform="translate(-12.24 -13.31)"/><path class="cls-2" d="M85.56,63.07a9,9,0,0,0-5.76-6.82,10.4,10.4,0,0,0-7-.26C68.11,57.26,64.32,60.05,61,63.5c-2.35,2.41-3.67,5.41-5,8.5l.72-.26c3.42-5.65,7.66-10.45,14.19-12.67a15,15,0,0,1,11.17.38c.42.18.81.44,1.21.66a2.58,2.58,0,0,0-.08.26,1.45,1.45,0,0,1-.51,0c-5.77-2-11.11-.86-16.07,2.35a34.72,34.72,0,0,0-8.92,8.68,13.22,13.22,0,0,1,4.65-.64,1.16,1.16,0,0,0,.45-.12A44.28,44.28,0,0,1,74.26,66.3a29.69,29.69,0,0,1,9.93-1,2.92,2.92,0,0,0,.59,0,.84.84,0,0,0,.85-.85A7,7,0,0,0,85.56,63.07Z" transform="translate(-12.24 -13.31)"/></svg>