<?xml version="1.0" encoding="utf-8"?>
<!-- Generator: Adobe Illustrator 23.0.0, SVG Export Plug-In . SVG Version: 6.00 Build 0)  -->
<svg version="1.1" id="Layer_1" xmlns="http://www.w3.org/2000/svg" xmlns:xlink="http://www.w3.org/1999/xlink" x="0px" y="0px"
	 viewBox="0 0 173.87 320.17" style="enable-background:new 0 0 173.87 320.17;" xml:space="preserve">
<style type="text/css">
	.st0{fill:#C83128;}
	.st1{opacity:0.3;fill:url(#SVGID_1_);}
	.st2{opacity:0.3;fill:url(#SVGID_2_);}
	.st3{opacity:0.3;fill:url(#SVGID_3_);}
	.st4{opacity:0.3;fill:url(#SVGID_4_);}
	.st5{fill:#ECBD2D;}
	.st6{fill:#1A75BB;}
	.st7{fill:#37A649;}
	.st8{clip-path:url(#SVGID_6_);fill:#FFFFFF;}
	.st9{fill:#FFFFFF;}
	.st10{clip-path:url(#SVGID_8_);fill:#37A649;}
	.st11{opacity:0.6;}
	.st12{fill-rule:evenodd;clip-rule:evenodd;fill:#4776B9;}
	.st13{opacity:0.6;fill:#4776B9;}
	.st14{opacity:0.6;fill:#231F20;}
	.st15{opacity:0.6;fill:none;}
	.st16{fill:#4776B9;}
	.st17{fill:#1F4581;}
	.st18{fill-rule:evenodd;clip-rule:evenodd;fill:#A34424;}
	.st19{fill-rule:evenodd;clip-rule:evenodd;fill:#37A649;}
	.st20{fill-rule:evenodd;clip-rule:evenodd;fill:#C83128;}
	.st21{fill-rule:evenodd;clip-rule:evenodd;fill:#ECBD2D;}
	.st22{fill-rule:evenodd;clip-rule:evenodd;fill:#1A75BB;}
	.st23{clip-path:url(#SVGID_10_);}
	.st24{fill:#231F20;}
</style>
<linearGradient id="SVGID_1_" gradientUnits="userSpaceOnUse" x1="89.3725" y1="316.3387" x2="89.3725" y2="207.7583">
	<stop  offset="0" style="stop-color:#FFFFFF"/>
	<stop  offset="0.2003" style="stop-color:#FFFEFD"/>
	<stop  offset="0.2723" style="stop-color:#FDF9F6"/>
	<stop  offset="0.3" style="stop-color:#FCF5F1"/>
	<stop  offset="0.4076" style="stop-color:#F9F3F0"/>
	<stop  offset="0.5024" style="stop-color:#EEEDEE"/>
	<stop  offset="0.5923" style="stop-color:#DCE3E9"/>
	<stop  offset="0.6794" style="stop-color:#C2D4E3"/>
	<stop  offset="0.7643" style="stop-color:#A1C2DB"/>
	<stop  offset="0.8477" style="stop-color:#79ABD2"/>
	<stop  offset="0.9281" style="stop-color:#4A90C7"/>
	<stop  offset="1" style="stop-color:#1A75BB"/>
</linearGradient>
<path class="st1" d="M158.99,208.3l4.85,108.04L14.9,313.12l15.11-105.36L158.99,208.3z"/>
<path class="st6" d="M29.95,207.76L3.79,25.3L168.06,4.2l-9.12,203.02L29.95,207.76z M11.56,32.39l11.17,78.93l134.31-9.75
	l3.97-88.37L11.56,32.39z"/>
<path class="st6" d="M104.09,73.43c-2.95,0-5.61,1.27-7.47,3.28l-18.42-10.5c0.29-0.94,0.44-1.93,0.44-2.96
	c0-1.03-0.16-2.02-0.44-2.96l18.41-10.5c1.86,2.01,4.51,3.29,7.47,3.29c5.61,0,10.18-4.56,10.18-10.18
	c0-5.61-4.56-10.18-10.18-10.18c-5.61,0-10.18,4.56-10.18,10.18c0,0.83,0.11,1.63,0.3,2.41L75.55,55.95
	c-1.83-1.77-4.32-2.87-7.07-2.87c-5.61,0-10.18,4.56-10.18,10.18c0,5.61,4.56,10.18,10.18,10.18c2.75,0,5.24-1.1,7.07-2.87
	L94.22,81.2c-0.19,0.77-0.3,1.58-0.3,2.41c0,5.61,4.56,10.18,10.18,10.18c5.61,0,10.18-4.56,10.18-10.18
	C114.27,77.99,109.7,73.43,104.09,73.43z"/>
</svg>
