<?xml version="1.0" encoding="utf-8"?>
<!-- Generator: Adobe Illustrator 23.0.0, SVG Export Plug-In . SVG Version: 6.00 Build 0)  -->
<svg version="1.1" id="Layer_1" xmlns="http://www.w3.org/2000/svg" xmlns:xlink="http://www.w3.org/1999/xlink" x="0px" y="0px"
	 viewBox="0 0 299.81 303.32" style="enable-background:new 0 0 299.81 303.32;" xml:space="preserve">
<style type="text/css">
	.st0{fill:#C83128;}
	.st1{opacity:0.3;fill:url(#SVGID_1_);}
	.st2{opacity:0.3;fill:url(#SVGID_2_);}
	.st3{opacity:0.3;fill:url(#SVGID_3_);}
	.st4{opacity:0.3;fill:url(#SVGID_4_);}
	.st5{fill:#ECBD2D;}
	.st6{fill:#1A75BB;}
	.st7{fill:#37A649;}
	.st8{clip-path:url(#SVGID_6_);fill:#FFFFFF;}
	.st9{fill:#FFFFFF;}
	.st10{clip-path:url(#SVGID_8_);fill:#37A649;}
	.st11{opacity:0.6;}
	.st12{fill-rule:evenodd;clip-rule:evenodd;fill:#4776B9;}
	.st13{opacity:0.6;fill:#4776B9;}
	.st14{opacity:0.6;fill:#231F20;}
	.st15{opacity:0.6;fill:none;}
	.st16{fill:#4776B9;}
	.st17{fill:#1F4581;}
	.st18{fill-rule:evenodd;clip-rule:evenodd;fill:#A34424;}
	.st19{fill-rule:evenodd;clip-rule:evenodd;fill:#37A649;}
	.st20{fill-rule:evenodd;clip-rule:evenodd;fill:#C83128;}
	.st21{fill-rule:evenodd;clip-rule:evenodd;fill:#ECBD2D;}
	.st22{fill-rule:evenodd;clip-rule:evenodd;fill:#1A75BB;}
	.st23{clip-path:url(#SVGID_10_);}
	.st24{fill:#231F20;}
</style>
<g>
	<g>
		<g>
			<path d="M199.93,186.68c-3.07,0-5.56,2.49-5.56,5.56v38.36c0,15.33-12.47,27.79-27.79,27.79h-60.02c-3.07,0-5.56,2.49-5.56,5.55
				L100.99,275l-13.27-13.27c-0.86-1.97-2.82-3.34-5.1-3.34H46.51c-15.33,0-27.79-12.47-27.79-27.79v-85.61
				c0-15.33,12.47-27.79,27.79-27.79h56.14c3.07,0,5.56-2.49,5.56-5.56c0-3.07-2.49-5.56-5.56-5.56H46.51
				c-21.46,0-38.91,17.46-38.91,38.91v85.61c0,21.46,17.46,38.91,38.91,38.91h33.27l22.83,22.83c1.06,1.06,2.48,1.63,3.93,1.63
				c0.72,0,1.44-0.14,2.12-0.42c2.08-0.86,3.43-2.89,3.43-5.13l0.01-18.9h54.46c21.46,0,38.91-17.46,38.91-38.91v-38.36
				C205.49,189.17,203,186.68,199.93,186.68z"/>
		</g>
	</g>
	<g>
		<g>
			<path d="M211.41,9.35h-14.07c-44.55,0-80.8,36.24-80.8,80.8s36.24,80.8,80.8,80.8h14.07c6.95,0,13.84-0.88,20.51-2.63
				l20.78,20.77c1.06,1.06,2.48,1.63,3.93,1.63c0.72,0,1.44-0.14,2.13-0.42c2.08-0.86,3.43-2.89,3.43-5.14v-32.16
				c8.8-7.13,16.11-16.13,21.24-26.18c5.83-11.42,8.78-23.76,8.78-36.66C292.21,45.6,255.96,9.35,211.41,9.35z M253.29,145.84
				c-1.39,1.05-2.21,2.69-2.21,4.44v21.46l-13.6-13.6c-1.06-1.06-2.48-1.63-3.93-1.63c-0.54,0-1.1,0.08-1.63,0.25
				c-6.62,2.03-13.51,3.06-20.49,3.06h-14.07c-38.42,0-69.68-31.26-69.68-69.68s31.26-69.68,69.68-69.68h14.07
				c38.42,0,69.68,31.26,69.68,69.68C281.09,112.23,270.96,132.53,253.29,145.84z"/>
		</g>
	</g>
	<g>
		<g>
			<path d="M229.41,70.18c-0.8-11.64-10.18-21.02-21.82-21.82c-6.6-0.45-12.89,1.77-17.71,6.27c-4.75,4.44-7.48,10.71-7.48,17.21
				c0,3.07,2.49,5.56,5.56,5.56s5.56-2.49,5.56-5.56c0-3.48,1.4-6.7,3.95-9.08c2.54-2.37,5.87-3.55,9.36-3.31
				c6.13,0.42,11.07,5.36,11.49,11.49c0.43,6.19-3.63,11.66-9.66,13.01c-4.88,1.09-8.29,5.33-8.29,10.31v13.36
				c0,3.07,2.49,5.56,5.56,5.56c3.07,0,5.56-2.49,5.56-5.56V94.71C222.7,92,230.21,81.75,229.41,70.18z"/>
		</g>
	</g>
	<g>
		<g>
			<path d="M209.87,125.68c-1.03-1.03-2.47-1.63-3.93-1.63s-2.9,0.59-3.93,1.63c-1.03,1.03-1.63,2.47-1.63,3.93
				c0,1.47,0.6,2.9,1.63,3.94c1.03,1.03,2.47,1.62,3.93,1.62s2.9-0.59,3.93-1.62c1.03-1.04,1.63-2.47,1.63-3.94
				C211.49,128.15,210.9,126.71,209.87,125.68z"/>
		</g>
	</g>
	<g>
		<g>
			<path d="M160.46,181.68H43.17c-3.07,0-5.56,2.49-5.56,5.56s2.49,5.56,5.56,5.56h117.29c3.07,0,5.56-2.49,5.56-5.56
				S163.53,181.68,160.46,181.68z"/>
		</g>
	</g>
	<g>
		<g>
			<path d="M164.39,214.44c-1.03-1.03-2.47-1.63-3.93-1.63c-1.46,0-2.9,0.59-3.93,1.63c-1.03,1.03-1.63,2.47-1.63,3.93
				s0.59,2.9,1.63,3.93c1.03,1.03,2.47,1.63,3.93,1.63c1.46,0,2.9-0.59,3.93-1.63c1.03-1.03,1.63-2.46,1.63-3.93
				C166.02,216.9,165.43,215.47,164.39,214.44z"/>
		</g>
	</g>
	<g>
		<g>
			<path d="M138.6,212.81H43.17c-3.07,0-5.56,2.49-5.56,5.56s2.49,5.56,5.56,5.56h95.43c3.07,0,5.56-2.49,5.56-5.56
				S141.67,212.81,138.6,212.81z"/>
		</g>
	</g>
	<g>
		<g>
			<path d="M124.33,150.55H43.17c-3.07,0-5.56,2.49-5.56,5.56s2.49,5.56,5.56,5.56h81.16c3.07,0,5.56-2.49,5.56-5.56
				S127.4,150.55,124.33,150.55z"/>
		</g>
	</g>
</g>
</svg>
