<?xml version="1.0" encoding="utf-8"?>
<!-- Generator: Adobe Illustrator 23.0.0, SVG Export Plug-In . SVG Version: 6.00 Build 0)  -->
<svg version="1.1" id="Layer_1" xmlns="http://www.w3.org/2000/svg" xmlns:xlink="http://www.w3.org/1999/xlink" x="0px" y="0px"
	 viewBox="0 0 179.23 320.17" style="enable-background:new 0 0 179.23 320.17;" xml:space="preserve">
<style type="text/css">
	.st0{fill:#C83128;}
	.st1{opacity:0.3;fill:url(#SVGID_1_);}
	.st2{opacity:0.3;fill:url(#SVGID_2_);}
	.st3{opacity:0.3;fill:url(#SVGID_3_);}
	.st4{opacity:0.3;fill:url(#SVGID_4_);}
	.st5{fill:#ECBD2D;}
	.st6{fill:#1A75BB;}
	.st7{fill:#37A649;}
	.st8{clip-path:url(#SVGID_6_);fill:#FFFFFF;}
	.st9{fill:#FFFFFF;}
	.st10{clip-path:url(#SVGID_8_);fill:#37A649;}
	.st11{opacity:0.6;}
	.st12{fill-rule:evenodd;clip-rule:evenodd;fill:#4776B9;}
	.st13{opacity:0.6;fill:#4776B9;}
	.st14{opacity:0.6;fill:#231F20;}
	.st15{opacity:0.6;fill:none;}
	.st16{fill:#4776B9;}
	.st17{fill:#1F4581;}
	.st18{fill-rule:evenodd;clip-rule:evenodd;fill:#A34424;}
	.st19{fill-rule:evenodd;clip-rule:evenodd;fill:#37A649;}
	.st20{fill-rule:evenodd;clip-rule:evenodd;fill:#C83128;}
	.st21{fill-rule:evenodd;clip-rule:evenodd;fill:#ECBD2D;}
	.st22{fill-rule:evenodd;clip-rule:evenodd;fill:#1A75BB;}
	.st23{clip-path:url(#SVGID_10_);}
	.st24{fill:#231F20;}
</style>
<path class="st0" d="M30.12,207.76L3.96,25.3L168.22,4.2l-9.12,203.02L30.12,207.76z M11.72,32.39l11.17,78.93l134.31-9.75
	l3.97-88.37L11.72,32.39z"/>
<linearGradient id="SVGID_1_" gradientUnits="userSpaceOnUse" x1="89.4819" y1="316.3387" x2="89.4819" y2="207.7583">
	<stop  offset="0" style="stop-color:#FFFFFF"/>
	<stop  offset="0.2003" style="stop-color:#FFFEFD"/>
	<stop  offset="0.2723" style="stop-color:#FDF9F6"/>
	<stop  offset="0.3" style="stop-color:#FCF5F1"/>
	<stop  offset="0.4134" style="stop-color:#FBF2EE"/>
	<stop  offset="0.5133" style="stop-color:#F8E7E3"/>
	<stop  offset="0.6081" style="stop-color:#F4D5D1"/>
	<stop  offset="0.6998" style="stop-color:#EDBDB7"/>
	<stop  offset="0.7893" style="stop-color:#E59D96"/>
	<stop  offset="0.877" style="stop-color:#DA766E"/>
	<stop  offset="0.9619" style="stop-color:#CE4840"/>
	<stop  offset="1" style="stop-color:#C83128"/>
</linearGradient>
<path class="st1" d="M159.1,208.3l4.85,108.04l-148.94-3.22l15.11-105.36L159.1,208.3z"/>
<g>
	<path class="st0" d="M110.63,59.43c-5.42,0.01-9.78-4.31-9.74-9.69c0.03-5.17,4.54-9.62,9.76-9.61c5.12,0.01,9.52,4.45,9.55,9.61
		C120.22,55.08,115.93,59.42,110.63,59.43z"/>
	<path class="st0" d="M61.4,59.41c-5.32-0.01-9.62-4.35-9.58-9.68c0.04-5.24,4.34-9.48,9.61-9.49c5.31,0,9.65,4.37,9.58,9.68
		C70.95,55.19,66.66,59.42,61.4,59.41z"/>
	<path class="st0" d="M86.76,35.38c0,0.53,0.01,1.07,0,1.6c-0.01,0.48-0.2,0.84-0.74,0.86c-0.53,0.01-0.79-0.32-0.8-0.8
		c-0.03-1.12-0.02-2.25-0.01-3.37c0.01-0.48,0.25-0.85,0.75-0.87c0.61-0.01,0.8,0.43,0.81,0.97C86.78,34.31,86.77,34.84,86.76,35.38
		C86.77,35.38,86.77,35.38,86.76,35.38z"/>
	<path class="st0" d="M81.15,39.72c-0.12,0.69-0.62,1.03-1.22,0.63c-1.01-0.68-1.96-1.48-2.81-2.34c-0.49-0.49-0.36-1.12,0.44-1.3
		C78.08,36.58,81.1,39.12,81.15,39.72z"/>
	<path class="st0" d="M91.73,40.47c-0.36,0.05-0.63-0.1-0.8-0.4c-0.17-0.31-0.12-0.65,0.14-0.87c0.92-0.8,1.85-1.59,2.79-2.37
		c0.27-0.22,0.59-0.19,0.89-0.01c0.33,0.19,0.37,0.5,0.32,0.83C95.01,38.05,92.18,40.43,91.73,40.47z"/>
	<path class="st0" d="M41.24,90.08V79.34c0-0.05,0-0.09,0.01-0.14c1.45-9.54,9.14-15.98,18.56-16.63
		c6.37-0.44,11.43-0.55,15.49-5.27s5.38-9.45,6.59-12.86c1.21-3.41,3.3-4.18,5.71-3.3c2.42,0.88,2.31,2.75,2.2,4.18
		c-0.11,1.43-2.97,10.55-6.04,14.61c-2.9,3.83-6.68,6.69-9.59,8.11c-0.32,0.16-0.52,0.48-0.52,0.84v21.66
		c0,0.52-0.42,0.93-0.93,0.93H52.06c-0.52,0-0.93-0.42-0.93-0.93V78.78c0-0.52-0.42-0.93-0.93-0.93s-0.93,0.42-0.93,0.93v11.83
		c0,0.07-0.01,0.14-0.02,0.21c-0.13,0.56-0.84,2.9-3.93,3.29c-3.25,0.41-3.96-3.31-4.05-3.88C41.24,90.18,41.24,90.13,41.24,90.08z"
		/>
	<path class="st0" d="M130.94,90.08V79.34c0-0.05,0-0.09-0.01-0.14c-1.45-9.54-9.12-15.98-18.56-16.63
		c-6.37-0.44-11.43-0.55-15.49-5.27c-4.07-4.72-5.38-9.45-6.59-12.86c-1.21-3.41-3.3-4.18-5.71-3.3c-2.42,0.88-2.31,2.75-2.2,4.18
		c0.11,1.43,2.97,10.55,6.04,14.61c2.9,3.83,6.68,6.69,9.59,8.11c0.32,0.16,0.52,0.48,0.52,0.84v21.66c0,0.52,0.42,0.93,0.93,0.93
		h20.66c0.52,0,0.93-0.42,0.93-0.93V78.78c0-0.52,0.42-0.93,0.93-0.93c0.52,0,0.93,0.42,0.93,0.93v11.83c0,0.07,0.01,0.14,0.02,0.21
		c0.13,0.56,0.84,2.9,3.93,3.29c3.25,0.41,3.96-3.31,4.05-3.88C130.94,90.18,130.94,90.13,130.94,90.08z"/>
</g>
</svg>
