<?xml version="1.0" encoding="utf-8"?>
<!-- Generator: Adobe Illustrator 23.0.0, SVG Export Plug-In . SVG Version: 6.00 Build 0)  -->
<svg version="1.1" id="Layer_1" xmlns="http://www.w3.org/2000/svg" xmlns:xlink="http://www.w3.org/1999/xlink" x="0px" y="0px"
	 viewBox="0 0 141.73 141.73" style="enable-background:new 0 0 141.73 141.73;" xml:space="preserve">
<style type="text/css">
	.st0{fill:#FDD4BF;}
	.st1{clip-path:url(#SVGID_2_);}
	.st2{fill:#010101;}
	.st3{clip-path:url(#SVGID_4_);}
	.st4{stroke:#000000;stroke-width:0.75;stroke-miterlimit:10;}
	.st5{clip-path:url(#SVGID_6_);stroke:#000000;stroke-width:0.75;stroke-miterlimit:10;}
	.st6{clip-path:url(#SVGID_6_);stroke:#000000;stroke-miterlimit:10;}
	.st7{clip-path:url(#SVGID_8_);}
	.st8{fill:#73B9E6;}
	.st9{clip-path:url(#SVGID_10_);}
	.st10{fill:#201113;}
	.st11{fill:#FFFFFF;}
	.st12{fill:none;}
	.st13{clip-path:url(#SVGID_12_);fill-rule:evenodd;clip-rule:evenodd;}
	.st14{fill-rule:evenodd;clip-rule:evenodd;}
	.st15{clip-path:url(#SVGID_14_);stroke:#000000;stroke-miterlimit:10;}
	.st16{stroke:#000000;stroke-miterlimit:10;}
	.st17{clip-path:url(#SVGID_16_);}
	.st18{fill:#231F20;}
	.st19{fill:#E9E9E9;}
	.st20{clip-path:url(#SVGID_18_);}
	.st21{fill:#E6E7E8;}
	.st22{fill:#949A9B;}
	.st23{clip-path:url(#SVGID_20_);}
	.st24{clip-path:url(#SVGID_22_);}
	.st25{clip-path:url(#SVGID_24_);stroke:#000000;stroke-miterlimit:10;}
	.st26{fill-rule:evenodd;clip-rule:evenodd;fill:#FFFFFF;}
	.st27{fill:#FEE55B;}
	.st28{clip-path:url(#SVGID_28_);fill:#231F20;}
</style>
<g>
	<path class="st26" d="M51.12,99.28c0.99,0.12,2.83,0.35,4.68,0.57c0.67,0.08,0.96,0.38,0.98,1.12c0.08,3.17,0.51,3.43,3.35,4.76
		c2.19,1.03,4.13,0.97,6.21-0.01c0.27-0.13,0.81-0.04,1.04,0.16c2.85,2.49,5.84,4.89,7.61,8.34c1.81,3.52,0.85,7.09-1.9,9.95
		c-3.18,3.31-6.66,3.99-11.06,2.87c-6.83-1.75-13.32-4.09-18.85-8.56c-1.68-1.36-3.26-2.88-4.68-4.5
		c-3.29-3.76-2.87-8.24,0.99-11.42C42.61,100,46.34,99.34,51.12,99.28"/>
	<path class="st26" d="M119.31,102.47C108.98,92.12,96.39,87,81.66,88c-4.57,0.31-8.35,1.87-11.31,4.65
		c2.13-0.78,4.32-1.3,6.55-1.68c9.63-1.62,18.89-0.61,27.32,4.62c7.61,4.72,12.16,11.37,11.96,20.65c-0.04,1.7-0.5,3.4-0.77,5.1
		c-0.23-0.01-0.46-0.02-0.69-0.04c-0.07-0.36-0.23-0.72-0.21-1.07c0.94-11.8-4.86-20.01-15.15-24.09
		c-28.93-11.47-33.9,3.57-34.77,6.5c1.46-1.16,2.66-2.13,3.89-3.06c3.49-2.66,7.16-3.12,11.01-0.81c0.96,0.58,1.96,1.13,2.8,1.86
		c2.17,1.92,4.36,3.84,6.36,5.94c4.13,4.32,7.73,9.08,10.96,14.1c1.75,2.71,4.23,4.32,7.33,4.83c1.81,0.29,3.73,0.37,5.53,0.07
		c4.43-0.73,8.19-2.81,9.82-7.2C124.44,112.58,123.68,106.86,119.31,102.47z"/>
	<path class="st26" d="M56.42,74.42c-11.69-12.8-27.15-16.56-44.21-11.85c-0.43,0.12-0.96-0.14-1.44-0.23c0-0.12,0-0.24,0-0.36
		c11.75-5.24,23.3-3.97,34.61,1.28c8.13,3.78,14.66,9.43,18.59,17.68c1.19,2.5,1.99,5.09,2.27,7.76c0.29-2.51-0.12-5.06-0.87-7.52
		c-1.81-5.93-5.33-10.82-9.73-15.03c-8.03-7.67-17.36-13.11-28.13-16.02c-4.02-1.08-7.97-1.43-11.95,0.18
		c-4.8,1.94-8.48,4.99-9.85,10.18C4.52,64.99,5.76,69.14,8.12,73c3.06,4.98,7.32,7.78,13.41,7.55c6.93-0.26,13.85-0.05,20.76,0.67
		c3.89,0.41,7.76,0.95,11.4,2.48c7.69,3.24,6.88,7.04,6.76,10.14c-0.08,2.14-0.01,4.29-0.01,6.43c0.15,0.01,0.29,0.02,0.44,0.03
		c0.12-0.3,0.26-0.6,0.36-0.91C61.81,97.59,71.9,91.36,56.42,74.42z"/>
	<path class="st26" d="M76.55,47.46c-0.15-5.22-0.65-10.44-2.17-15.48c-1.95-6.45-5.48-11.68-11.69-14.73
		c-4.39-2.15-9.07-3.11-13.93-3.08c-3.92,0.03-7.69,0.77-11.06,2.96c-1.9,1.23-2.5,2.97-2.54,5.21c-0.09,5.43,2.69,9.94,5.58,14.26
		c0.49,0.73,1.09,1.41,1.59,2.14c2.79,4.1,4.83,8.59,6.2,13.31c0.97,3.35,2.49,6.07,5.6,7.76c0.07,0.04,0.13,0.09,0.18,0.15
		c6.57,5.37,12.26,11.33,14.57,19.5C71.79,56.1,65,35.83,47.98,18.95c-0.52-0.52-1.22-0.92-0.45-1.74c0.12,0,0.24,0,0.36,0
		c3.71,3.79,7.96,7.18,11.04,11.43c10.93,15.1,15.48,31.95,13.15,50.41c1.23-2.78,2.45-5.57,3.59-8.39
		c0.59-1.44,0.96-3.08,0.98-4.63C76.73,59.84,76.73,53.65,76.55,47.46z"/>
	<path class="st26" d="M136.32,67.73c-1.37-7.31-5.97-12-12.54-14.84c-4.91-2.11-10.07-1.93-15.16-0.56
		c-10.3,2.77-18.54,8.83-25.88,16.34c-5.12,5.25-8,11.78-10.84,18.49c0.58-0.21,1.09-0.4,1.58-0.57
		c7.43-12.3,16.66-22.74,30.89-27.58c8.1-2.75,16.32-2.69,24.31,0.83c0.91,0.4,1.75,0.95,2.63,1.44c-0.06,0.19-0.12,0.38-0.18,0.57
		c-0.37,0-0.78,0.1-1.1-0.01c-12.56-4.43-24.19-1.86-34.98,5.11c-7.71,4.99-13.97,11.56-19.41,18.89c3.37-1.13,4.64-1.18,10.13-1.38
		c0.33-0.01,0.69-0.11,0.98-0.27c7.87-4.36,16.25-7.4,24.99-9.41c7.1-1.63,14.25-2.99,21.61-2.17c0.42,0.05,0.85,0.03,1.28-0.03
		c1.09-0.13,1.83-0.69,1.86-1.85C136.49,69.73,136.5,68.71,136.32,67.73z"/>
</g>
</svg>
