<svg id="Layer_1" data-name="Layer 1" xmlns="http://www.w3.org/2000/svg" viewBox="0 0 380.64 24.78"><defs><style>.cls-1{fill:#fff;}</style></defs><title>plataforma-at-v2</title><path class="cls-1" d="M19,11.11c.44,0,.92.07,1.44.08h.45a26.71,26.71,0,0,1,5.62,1.17A10.21,10.21,0,0,1,28.91,14c1.15,1.24,1.71,2.29,1.69,3.15a2.8,2.8,0,0,1,.22.88,15.92,15.92,0,0,1-1,3.93,5.39,5.39,0,0,1-3.25,2.67,36.12,36.12,0,0,1-5,.88l-.25.2.06.33a4.37,4.37,0,0,1-.08.69c0,1.46.06,2.3.06,2.53a2.63,2.63,0,0,0,0,.29q.11,1.68.09,2.49v.3L21,33c-.06,0-.09,0-.09,0a4.91,4.91,0,0,0-1.62.12L19.19,33q-1.05.09-2.1.21c-.26-.11-.39-.25-.39-.41l.07-.43-.06-.24.06-.43a7.66,7.66,0,0,0-.12-1.23c0-2.17,0-3.54-.09-4.12a4.44,4.44,0,0,0,.07-.75c-.05-6.22-.13-9.34-.22-9.35a4.55,4.55,0,0,1,0-.67q0-.35,0-.87a2.73,2.73,0,0,1,.06-.34c-.08-1-.12-1.76-.11-2.29l0-.09c.15-.49.29-.73.41-.73C17.53,11.18,18.28,11.13,19,11.11Zm1.8,2.56,0,.69.23,7,0,1.71,0,0c2-.5,3.16-.93,3.48-1.3a4.39,4.39,0,0,0,2-3.61v-.34q0-1.71-2.67-3.66c0-.16-.82-.33-2.47-.51H21Z" transform="translate(-16.33 -9.59)"/><path class="cls-1" d="M35,10.72a1,1,0,0,1,.24.84l-.07.58q-.06,5.61.15,8c0,.09,0,.83,0,2.23a25.16,25.16,0,0,0,0,3.13l-.09.25a4.71,4.71,0,0,1,0,1.36c0,.3,0,.46.06.46l0,.07q0,.27-.06,2l-.09.63c0,.52,0,1.45-.07,2.8l0,0c-.27.51-.47.75-.6.73a20.77,20.77,0,0,1-3-.15c-.08,0-.11-.13-.09-.28a1.8,1.8,0,0,1,.09-.27q-.06-.6,0-2.73c0-.46,0-1.31.09-2.56l.12-12.84c0-.13-.06-1.26-.25-3.39a1.67,1.67,0,0,1,0-.55l0-.34c0-.27.21-.38.5-.34l1,.06a1.84,1.84,0,0,0,.34.13,1,1,0,0,1,.38,0l.4.06A3.72,3.72,0,0,0,35,10.72Z" transform="translate(-16.33 -9.59)"/><path class="cls-1" d="M50.94,17.72c.61.05.88.39.82,1,0,.35.12,2.36.43,6a34.61,34.61,0,0,0,1.48,4.06,13.2,13.2,0,0,0,1,1.48,4.42,4.42,0,0,1,1,2.23v0c0,.09-.13.19-.37.3l-.24-.06-.33,0c-.17.06-.25.1-.25.12l-.22-.21a2.52,2.52,0,0,1-.73.12l-.76-.06c-.31,0-.63-.42-1-1.15l-1.24-2.29h-.06c-.58.73-1.22,1.46-1.93,2.2a4.7,4.7,0,0,1-2.47,1.18A9,9,0,0,1,42.8,33q-3.81-.7-4.72-1.48a3.09,3.09,0,0,1-1.69-1.6,4.62,4.62,0,0,1-.46-2l0-.43a6.46,6.46,0,0,1,1.11-3.19A12.09,12.09,0,0,1,39,21.66a8.39,8.39,0,0,1,2.91-2.22,3.2,3.2,0,0,1,2.1-.73l.29.08a10.9,10.9,0,0,1,2.74.09l1.6.52a2.22,2.22,0,0,0,.75.31h.1a12.81,12.81,0,0,0-.06-1.56C49.41,17.88,49.93,17.74,50.94,17.72ZM39.65,25.93l-.06.76a4.44,4.44,0,0,0,.91,2.74,3.86,3.86,0,0,0,2.31,1.27l.82.07A2.19,2.19,0,0,0,45,30.16a5.3,5.3,0,0,0,2.91-2.89,3.23,3.23,0,0,0,.43-1.56l0-.39a4.15,4.15,0,0,0-1.18-2.52A5.09,5.09,0,0,0,45.26,22a5.51,5.51,0,0,0-3.75.78A11,11,0,0,0,39.65,25.93Zm14.76,6.82v0h.18l0,0c0-.07,0-.11-.09-.11S54.41,32.69,54.41,32.75Z" transform="translate(-16.33 -9.59)"/><path class="cls-1" d="M62.11,9.81l.82.15c.21,0,.27.32.19.82q0,4.11-.15,6.67l.09.06c.33.06,1.63.08,3.91.08.48.16.71.28.69.37a8.61,8.61,0,0,1-.16,2.62.68.68,0,0,1,.06.5v0l-.33.48L67,21.51c-2.8-.23-4.22-.23-4.25,0a30.92,30.92,0,0,0,.09,7.3q.72,3.47,1.47,3.6.57.11,1.65-1.71.18-1,.54-.93a6.28,6.28,0,0,1,1,0c1.59.29,2.36.56,2.32.81-.3.86-.51,1.28-.64,1.26a5.38,5.38,0,0,1-1.74,1.87,3,3,0,0,1-1.32.54q0,.18-2-.06a.49.49,0,0,1-.12-.08,4.57,4.57,0,0,1-.66-.08L63,34q-3-.55-3.57-5.16a27.71,27.71,0,0,1-.24-6.14c.13-1,.14-1.49,0-1.51s-1.23,0-3,0a4.69,4.69,0,0,0-1.38,0c-.18,0-.24-.49-.18-1.39a11.22,11.22,0,0,1-.09-1.74c.1-.54.28-.86.55-1l.16.09,3.72.13c.38,0,.57,0,.58-.09s.08-2.53.19-7.25c-.07,0-.1-.09-.09-.25s.42-.27,1.15-.13S61.88,9.77,62.11,9.81Z" transform="translate(-16.33 -9.59)"/><path class="cls-1" d="M85.14,17.72c.61.05.88.39.82,1,0,.35.12,2.36.43,6a34.61,34.61,0,0,0,1.48,4.06,13.2,13.2,0,0,0,1,1.48,4.42,4.42,0,0,1,1,2.23v0c0,.09-.13.19-.37.3l-.24-.06-.33,0c-.17.06-.25.1-.25.12l-.22-.21a2.52,2.52,0,0,1-.73.12L87,32.78c-.31,0-.63-.42-1-1.15l-1.24-2.29H84.7c-.58.73-1.22,1.46-1.93,2.2a4.7,4.7,0,0,1-2.47,1.18A9,9,0,0,1,77,33q-3.81-.7-4.72-1.48a3.09,3.09,0,0,1-1.69-1.6,4.62,4.62,0,0,1-.46-2l0-.43a6.46,6.46,0,0,1,1.11-3.19,12.09,12.09,0,0,1,1.92-2.59,8.39,8.39,0,0,1,2.91-2.22,3.2,3.2,0,0,1,2.1-.73l.29.08a10.9,10.9,0,0,1,2.74.09l1.6.52a2.22,2.22,0,0,0,.75.31h.1a12.81,12.81,0,0,0-.06-1.56C83.62,17.88,84.14,17.74,85.14,17.72ZM73.86,25.93l-.06.76a4.44,4.44,0,0,0,.91,2.74A3.86,3.86,0,0,0,77,30.7l.82.07a2.19,2.19,0,0,0,1.36-.61,5.3,5.3,0,0,0,2.91-2.89,3.23,3.23,0,0,0,.43-1.56l0-.39a4.15,4.15,0,0,0-1.18-2.52A5.09,5.09,0,0,0,79.47,22a5.51,5.51,0,0,0-3.75.78A11,11,0,0,0,73.86,25.93Zm14.76,6.82v0h.18l0,0c0-.07,0-.11-.09-.11S88.62,32.69,88.62,32.75Z" transform="translate(-16.33 -9.59)"/><path class="cls-1" d="M98.8,10.57c3.94.18,5.9.55,5.9,1.11a1.67,1.67,0,0,1,1.06,1.57A3.58,3.58,0,0,1,106,14.4q0,.51-1.47.66c0,.07-.12.1-.36.1H104a6.59,6.59,0,0,1-.75-1.87,5.34,5.34,0,0,0-1.06-1.06,4.21,4.21,0,0,0-1.66-.3,3.87,3.87,0,0,0-2,1.51,8.73,8.73,0,0,0-.76,4.24c.26,2.93.51,4.39.76,4.39a14,14,0,0,0,2.07-.15l.3,0a26.18,26.18,0,0,1,2.73-.19c.16,0,.33.7.51,2.11,0,.24-.23.36-.7.36a3.57,3.57,0,0,0-1,.1,2.15,2.15,0,0,0-.46-.06l-1.56.1c-.29,0-.86,0-1.72,0a.35.35,0,0,0-.09.19q.66,4.21,1,7.27a4.71,4.71,0,0,1,.2.76v.3q0,.51-1.77.51c-.12,0-.84.1-2.17.3-.33,0-.49-.18-.49-.55v-.45a.05.05,0,0,0-.06-.06,2.66,2.66,0,0,0,.15-1V31a17.52,17.52,0,0,0-.24-2.92.56.56,0,0,1,0-.15c-.17-2.29-.35-3.43-.55-3.43h-.85l-3.13.2c-.29,0-.46-.33-.51-1l-.15-.7v-.06a.52.52,0,0,1,.45-.3h.21l3-.25a1.44,1.44,0,0,0,.45.06q.36-.07.36-.21a44.16,44.16,0,0,1-.4-4.54.34.34,0,0,0,0-.15.46.46,0,0,0,0-.21,4.68,4.68,0,0,0,0-.64A10,10,0,0,1,95,12.76,3,3,0,0,1,96.62,11,7.91,7.91,0,0,1,98.8,10.57Z" transform="translate(-16.33 -9.59)"/><path class="cls-1" d="M112.55,17.63h0a11.31,11.31,0,0,1,4.66,1.18,6.68,6.68,0,0,1,2.13,2,4.67,4.67,0,0,0,.75,1.08,9,9,0,0,0,.6,1.39,9.92,9.92,0,0,1,.73,3v.15a8.34,8.34,0,0,1-1.38,3.27,3.76,3.76,0,0,1-1.2,1.09,8,8,0,0,1-6,2.13h-.34q-2.35,0-3.18-.9a16.87,16.87,0,0,1-2.47-2.82,5.58,5.58,0,0,1-1-3.18c-.06,0-.09-.2-.1-.58a.66.66,0,0,1,.1-.3A11.44,11.44,0,0,1,107,21a5.54,5.54,0,0,1,2.88-2.58A5.57,5.57,0,0,1,112.55,17.63Zm-2.73,7c0,.49,0,.82,0,1h.06a.37.37,0,0,0-.06.15A5.59,5.59,0,0,0,111.55,29a2.94,2.94,0,0,0,1.87.58q3.3,0,4.36-2.52A4.41,4.41,0,0,0,118,26a5.91,5.91,0,0,0-1.5-3.57,6.07,6.07,0,0,0-2.67-2,.77.77,0,0,0-.4-.11h-.09q-1.74,0-2.88,2.43A3.89,3.89,0,0,0,109.82,24.61Z" transform="translate(-16.33 -9.59)"/><path class="cls-1" d="M124.72,17.7l.13,0c.42,0,.61.4.57,1.15a10,10,0,0,0,0,1.08h.09A7.41,7.41,0,0,1,127,19.4a5.2,5.2,0,0,1,1.72-.18,15.92,15.92,0,0,1,4.2,1.44,3.44,3.44,0,0,1,1.53,2.68c.13,0,.26.63.39,1.87l-.06.22v.18c0,.16,0,.41,0,.76l-.09,0a5.47,5.47,0,0,0-.81,0c-1.38-.07-2.06-.21-2-.42l-.33-2.28a4.85,4.85,0,0,0-.87-2.34,1.64,1.64,0,0,0-.84-.31l-.31,0c-.65,0-1.47.46-2.46,1.48a8.48,8.48,0,0,0-1.26,3.22c0,.6-.08,2.25-.17,5A8.78,8.78,0,0,1,125.8,32a1.76,1.76,0,0,0-.1.45l0,.32a.29.29,0,0,1-.33.21l-1.26-.07a11,11,0,0,0-1.71.09q-.3,0-.3-1.95a70.2,70.2,0,0,1-.27-7.75l-.13-3.57,0-.54a2.05,2.05,0,0,0-.1-.64.66.66,0,0,0,.06-.12c0-.28-.07-.43-.07-.46a.49.49,0,0,0,.06-.17h.54C123.48,17.73,124.3,17.68,124.72,17.7Z" transform="translate(-16.33 -9.59)"/><path class="cls-1" d="M138.88,17.58q.56,0,.45,2a.48.48,0,0,0-.07.21l.1.06.33,0a4.92,4.92,0,0,1,1.92-.33,3.31,3.31,0,0,1,.6.08l.33,0q4.17.47,4.66,1.38a6.35,6.35,0,0,1,1.15,1.69,6.78,6.78,0,0,0,1.2-1.12A25.06,25.06,0,0,1,152,20.46a8.91,8.91,0,0,1,1.41-.15,7.66,7.66,0,0,1,1.93.54l.12,0A4.66,4.66,0,0,1,157.86,22a19.87,19.87,0,0,1,1.08,2.23L159.6,27a.38.38,0,0,0-.06.17l.66,4.11q.17,0,.21,1.26l0,.66q0,.35-3.6.24a.55.55,0,0,1-.33.09c-.13,0-.28-1-.45-3a32.27,32.27,0,0,0-.88-5.92q-.62-1-1.35-1.05l-.43,0c-.52,0-1.19.71-2,2.19a20.59,20.59,0,0,0-1.06,5.81l.13.39c0,.8-.28,1.18-.7,1.15-1.12,0-2.17.05-3.16.1q-.39,0-.54-3.18-1.35-8.44-3-8.54h0a2.63,2.63,0,0,0-1.75,1.27,8.6,8.6,0,0,0-1,3,1.23,1.23,0,0,0,0,.37c0,.12,0,.46-.1,1a27.34,27.34,0,0,0,.09,5.6l0,.11a1,1,0,0,1-.82.34l-.7-.09h-.72l-.11-.06a5.07,5.07,0,0,1-.81.12l-.11-.06-.22,0a1,1,0,0,1-.43-.19l-.31,0q-.78-12.17-.73-13l-.33-2.08c0-.22,1.1-.29,3.28-.21a.29.29,0,0,0,.15.06A1.66,1.66,0,0,1,138.88,17.58Z" transform="translate(-16.33 -9.59)"/><path class="cls-1" d="M175.53,17.72c.61.05.88.39.82,1,0,.35.12,2.36.43,6a34.61,34.61,0,0,0,1.48,4.06,13.2,13.2,0,0,0,1,1.48,4.42,4.42,0,0,1,1,2.23v0c0,.09-.13.19-.37.3l-.24-.06-.33,0c-.17.06-.25.1-.25.12l-.22-.21a2.52,2.52,0,0,1-.73.12l-.76-.06c-.31,0-.63-.42-1-1.15l-1.24-2.29h-.06c-.58.73-1.22,1.46-1.93,2.2a4.7,4.7,0,0,1-2.47,1.18,9,9,0,0,1-3.31.25q-3.81-.7-4.72-1.48a3.09,3.09,0,0,1-1.69-1.6,4.62,4.62,0,0,1-.46-2l0-.43a6.46,6.46,0,0,1,1.11-3.19,12.09,12.09,0,0,1,1.92-2.59,8.39,8.39,0,0,1,2.91-2.22,3.2,3.2,0,0,1,2.1-.73l.29.08a10.9,10.9,0,0,1,2.74.09l1.6.52a2.22,2.22,0,0,0,.75.31h.1a12.81,12.81,0,0,0-.06-1.56C174,17.88,174.52,17.74,175.53,17.72Zm-11.28,8.21-.06.76a4.44,4.44,0,0,0,.91,2.74,3.86,3.86,0,0,0,2.31,1.27l.82.07a2.19,2.19,0,0,0,1.36-.61,5.3,5.3,0,0,0,2.91-2.89,3.23,3.23,0,0,0,.43-1.56l0-.39a4.15,4.15,0,0,0-1.18-2.52,5.09,5.09,0,0,0-1.92-.79,5.51,5.51,0,0,0-3.75.78A10.73,10.73,0,0,0,164.25,25.93ZM179,32.75v0h.18l0,0c0-.07,0-.11-.09-.11S179,32.69,179,32.75Z" transform="translate(-16.33 -9.59)"/><path class="cls-1" d="M201.49,11.62a1.23,1.23,0,0,1,.64.29,19.11,19.11,0,0,0,1,1.93A16.83,16.83,0,0,0,204.22,16q1.36,2.25,4.26,8.12,1.62,3.74,2,4.27a9,9,0,0,1,1.24,2.77l.81,1.45-.17.27-.15,0-.57.12a0,0,0,0,1,0,0,21.66,21.66,0,0,0-3.82.4h0q-.09,0-.24-.69c-.16-.38-.57-1.66-1.24-3.85a7.54,7.54,0,0,0-1.08-2.26l-.85-.08c-.7,0-2.13,0-4.3.12l-3,0c-.54,1.18-1.09,2.56-1.65,4.15q-.15,0-.6,1.77c-.06,0-.15.24-.28.69l-.2.07c-.73,0-1.28-.07-1.65-.07l-1.86,0-.81,0-.12,0c-.32-.14-.48-.23-.48-.28v-.15a40.92,40.92,0,0,0,2-4.46q.24-.42,1.17-2.58a9,9,0,0,0,.76-1.5L197.17,17l1.93-3.22q.83-1.32,1.05-1.77a1.4,1.4,0,0,1,.76-.41Zm-2.57,11,.09,0h.6l3.54-.09.09-.12a26,26,0,0,0-2.05-3.78c-.11,0-.31.29-.61.88A32.15,32.15,0,0,0,198.92,22.6Z" transform="translate(-16.33 -9.59)"/><path class="cls-1" d="M223.19,18.47a8.74,8.74,0,0,1,4.05,1.81c1.3,1.74,2,3,2,3.94a40.59,40.59,0,0,1,.69,6.4c.13.85.34,1.85.63,3v0q0,.22-.72.24c-.11,0-.16.07-.16.09l-.11-.06c-1.53,0-2.48,0-2.86,0s-.69-.73-.64-2a47.56,47.56,0,0,1-.27-4.84q-.31-3.48-1.39-4.76a6.06,6.06,0,0,0-1.86-1l-.79-.08a4.3,4.3,0,0,0-2.56,1.14,7.38,7.38,0,0,0-1.86,3.9,4.89,4.89,0,0,0-.27,1,41.14,41.14,0,0,0,.17,5.39v.1q0,.36-1.41.27l-2.2-.22a.05.05,0,0,0-.06,0,.29.29,0,0,0-.15-.06h-.52c-.1,0-.13-.69-.11-2-.08-1.52-.16-2.7-.25-3.55l.06-.09q-.18-2.25-.15-2.52a.4.4,0,0,0,.07-.2q-.15-2.1-.25-6c.1-.44.32-.64.64-.6q1.85.13,2.91.24l.42,0c.17,0,.27.65.31,1.9l.15.12c1.38-1,2.49-1.51,3.34-1.42A11.36,11.36,0,0,1,223.19,18.47Z" transform="translate(-16.33 -9.59)"/><path class="cls-1" d="M233.19,16.71c.91.22,1.34.52,1.3.9q.44,14.24.54,14.89c-.17.72-.44,1.06-.82,1a4.42,4.42,0,0,0-.91.24l-.39-.11-.66-.06a3.64,3.64,0,0,0-.61,0h0c-.71-.32-1-.76-1-1.32q.24-2.28-.28-14.19a2.67,2.67,0,0,0-.08-.84v-.06q.06-.5.84-.57l.17.08a3.57,3.57,0,0,1,.45-.08,2.63,2.63,0,0,1,.43.1Z" transform="translate(-16.33 -9.59)"/><path class="cls-1" d="M241.94,17a12.23,12.23,0,0,1,3.93.91c1,.67,1.45,1.23,1.45,1.68l.78,2.47c0,.39-.13.58-.37.58a8,8,0,0,1-2.19.27c-.49-1.58-1-2.53-1.68-2.86A3.43,3.43,0,0,0,242,19.4c-1.35,0-2.37.8-3.06,2.41a1.5,1.5,0,0,0,0,.37v.27a2.48,2.48,0,0,0,2.79,2.1c2.79,0,4.83.44,6.14,1.32a4.15,4.15,0,0,1,1.65,3.37v.38A2.86,2.86,0,0,1,248.1,32a5.67,5.67,0,0,1-2.43,1.45,12.64,12.64,0,0,1-2.86.64h-.91a5.15,5.15,0,0,1-2.7-.6q-3.06-1.44-3.55-2.82a11.93,11.93,0,0,1-.87-2.92c.07-.4.17-.6.31-.6a21.91,21.91,0,0,0,2.28.15.29.29,0,0,1,.15-.06c.42.08.63.26.63.55a5.58,5.58,0,0,0,.91,2.55,4.07,4.07,0,0,0,3.06,1.56,4.94,4.94,0,0,0,2.74-1.36,2.48,2.48,0,0,0,.72-1.47v-.63q0-2.17-5.56-2.56a4.46,4.46,0,0,1-3.46-1.68,3.86,3.86,0,0,1-.82-2.34,4.14,4.14,0,0,1,.78-2,4.61,4.61,0,0,1,2.28-2A8.62,8.62,0,0,1,241.94,17Z" transform="translate(-16.33 -9.59)"/><path class="cls-1" d="M252.08,10.81a2.63,2.63,0,0,1,2.38,2l0,.67A1.79,1.79,0,0,1,253.07,15a2.77,2.77,0,0,1-1.41.24,2.08,2.08,0,0,1-2.13-1.95c.12-1.13.39-1.76.81-1.9A2.44,2.44,0,0,1,252.08,10.81Zm.65,5.9c.91.22,1.34.52,1.3.9q.43,14.24.54,14.89c-.17.72-.44,1.06-.82,1a4.42,4.42,0,0,0-.91.24l-.39-.11-.66-.06a3.64,3.64,0,0,0-.61,0h0c-.71-.32-1-.76-1-1.32q.24-2.28-.28-14.19a2.67,2.67,0,0,0-.08-.84v-.06q.06-.5.84-.57l.17.08a3.57,3.57,0,0,1,.45-.08,2.63,2.63,0,0,1,.43.1Z" transform="translate(-16.33 -9.59)"/><path class="cls-1" d="M261.55,18h0a11.31,11.31,0,0,1,4.66,1.18,6.68,6.68,0,0,1,2.13,2,4.67,4.67,0,0,0,.75,1.08,9,9,0,0,0,.6,1.39,9.92,9.92,0,0,1,.73,3v.15a8.34,8.34,0,0,1-1.38,3.27,3.76,3.76,0,0,1-1.2,1.09,8,8,0,0,1-6,2.13h-.34q-2.35,0-3.18-.9a16.87,16.87,0,0,1-2.47-2.82,5.58,5.58,0,0,1-1-3.18c-.06,0-.09-.2-.1-.58a.66.66,0,0,1,.1-.3A11.44,11.44,0,0,1,256,21.35a5.54,5.54,0,0,1,2.88-2.58A5.57,5.57,0,0,1,261.55,18Zm-2.73,7c0,.49,0,.82,0,1h.06a.37.37,0,0,0-.06.15,5.59,5.59,0,0,0,1.69,3.28,2.94,2.94,0,0,0,1.87.58q3.3,0,4.36-2.52a4.41,4.41,0,0,0,.21-1,5.91,5.91,0,0,0-1.5-3.57,6.07,6.07,0,0,0-2.67-2,.77.77,0,0,0-.4-.11h-.09q-1.74,0-2.88,2.43A4,4,0,0,0,258.82,25Z" transform="translate(-16.33 -9.59)"/><path class="cls-1" d="M298.22,12.22a.81.81,0,0,1,.6.42.46.46,0,0,1-.08.19c-.12,1.78-.11,2.67,0,2.68l0,.31a2.3,2.3,0,0,0,0,.69.74.74,0,0,1-.69.72l-.27,0a.32.32,0,0,1-.2-.06l-6-.06-.06.11v.15c0,2.8.06,5.51.18,8.15a5,5,0,0,1,0,.58l-.08.21a3.62,3.62,0,0,0,0,.67l-.06.21c0,3.83,0,6,.09,6.62-.08.21-.16.31-.22.3l-.21,0a22.19,22.19,0,0,1-3.43.12q-.78-.08-.72-.69.06-1.93.06-7.88l.13-7.6c0-.57-.07-.85-.13-.85a71.24,71.24,0,0,0-7.79.15h0c-.3-.15-.43-.47-.39-1l-.17-3.54,0-.27c.18-.26.57-.36,1.17-.31,4.16,0,7.89,0,11.21-.06a39.79,39.79,0,0,0,5.71,0A3.74,3.74,0,0,1,298.22,12.22Z" transform="translate(-16.33 -9.59)"/><path class="cls-1" d="M307.34,17.78a19.4,19.4,0,0,1,3.78.46,10.31,10.31,0,0,1,3.37,2,5.2,5.2,0,0,1,1.29,1.71,6,6,0,0,1,1,3.37c0,.41-.15.61-.36.61l-.82-.06a1.9,1.9,0,0,1-.46.1h-.88l-4.55.42a1.37,1.37,0,0,1-.42.15.34.34,0,0,0-.15,0,44.07,44.07,0,0,0-5.74.61v.11a9.84,9.84,0,0,0,1.39,2.38,5.6,5.6,0,0,0,4.41,2.07,8.7,8.7,0,0,0,4.29-2.32,4.68,4.68,0,0,1,1.35-1.45H315c1.48.45,2.22.91,2.22,1.39v.21a14.25,14.25,0,0,1-2.79,2.07,6.16,6.16,0,0,1-1.5.73q0,.12-1.14.36a7.89,7.89,0,0,1-2.64.62.05.05,0,0,1-.06.06l-.1-.06a8.6,8.6,0,0,1-1.33.1h-.1c-.35,0-.76,0-1.24,0a.45.45,0,0,1-.16,0A12,12,0,0,1,301,30.91a5.77,5.77,0,0,1-1.92-4.34,11.17,11.17,0,0,1,1.56-5A10.14,10.14,0,0,1,304,19a4.8,4.8,0,0,1,2.11-1A3.47,3.47,0,0,1,307.34,17.78Zm-4.18,6.67.21.1c.71-.1,1.65-.2,2.83-.31a.43.43,0,0,1,.17.06q5.89-.14,5.89-.52v0A11.33,11.33,0,0,0,310.72,21a3.13,3.13,0,0,0-2.7-1.24h-.11A6.17,6.17,0,0,0,305,21.42a4.94,4.94,0,0,0-1.81,3Z" transform="translate(-16.33 -9.59)"/><path class="cls-1" d="M319.78,10.81a2.63,2.63,0,0,1,2.38,2l0,.67A1.79,1.79,0,0,1,320.77,15a2.77,2.77,0,0,1-1.41.24,2.08,2.08,0,0,1-2.13-1.95c.12-1.13.39-1.76.81-1.9A2.44,2.44,0,0,1,319.78,10.81Zm.64,5.9c.91.22,1.34.52,1.3.9q.43,14.24.54,14.89c-.17.72-.44,1.06-.82,1a4.42,4.42,0,0,0-.91.24l-.39-.11-.66-.06a3.64,3.64,0,0,0-.61,0h0c-.71-.32-1-.76-1-1.32q.24-2.28-.28-14.19a2.67,2.67,0,0,0-.08-.84v-.06q.06-.5.84-.57l.17.08a3.57,3.57,0,0,1,.45-.08,2.63,2.63,0,0,1,.43.1Z" transform="translate(-16.33 -9.59)"/><path class="cls-1" d="M340.37,17.67h.06v.17a10.23,10.23,0,0,1-1.9,2.16,15.55,15.55,0,0,1-3.15,3.52c-1.07,1.06-1.62,1.75-1.65,2.08a44.48,44.48,0,0,0,3.87,4.88c1.81,1.49,2.72,2.26,2.74,2.31q-.21.65-.42.63l-4.29.54s-.08,0-.21,0a12.68,12.68,0,0,1-2-2.5l-2.35-3.15-.15-.06a24.82,24.82,0,0,0-2.41,2.77q-.56.76-1.23,1.83a2.06,2.06,0,0,1-1.56.51l-3.09.09q-.26-.06-.24-.18v0A7.72,7.72,0,0,1,324,30.88a9.21,9.21,0,0,1,1-1.48,14.58,14.58,0,0,1,2.26-2.74c.89-.92,1.34-1.5,1.36-1.75l0-.09q-2.26-2.91-4-5.36c-.3-.09-.84-.66-1.63-1.71a.44.44,0,0,0-.24-.12v-.06q0-.22,2.28-.27c1.5,0,2.52.38,3.06,1.24q2.31,3.18,3,3.91c.05,0,.71-.65,2-1.95a24.62,24.62,0,0,0,2.52-2.73.51.51,0,0,1,.31-.22l3.88.3A1,1,0,0,1,340.37,17.67Z" transform="translate(-16.33 -9.59)"/><path class="cls-1" d="M348.59,17.78a19.4,19.4,0,0,1,3.78.46,10.31,10.31,0,0,1,3.37,2A5.2,5.2,0,0,1,357,21.91a6,6,0,0,1,1,3.37c0,.41-.15.61-.36.61l-.82-.06a1.9,1.9,0,0,1-.46.1h-.88l-4.55.42a1.37,1.37,0,0,1-.42.15.34.34,0,0,0-.15,0,44.07,44.07,0,0,0-5.74.61v.11a9.84,9.84,0,0,0,1.39,2.38,5.6,5.6,0,0,0,4.41,2.07,8.7,8.7,0,0,0,4.29-2.32,4.68,4.68,0,0,1,1.35-1.45h.11c1.48.45,2.22.91,2.22,1.39v.21a14.25,14.25,0,0,1-2.79,2.07,6.16,6.16,0,0,1-1.5.73q0,.12-1.14.36a7.89,7.89,0,0,1-2.64.62.05.05,0,0,1-.06.06l-.1-.06a8.6,8.6,0,0,1-1.33.1h-.1c-.35,0-.76,0-1.24,0a.45.45,0,0,1-.16,0,12,12,0,0,1-5.11-2.43,5.77,5.77,0,0,1-1.92-4.34,11.17,11.17,0,0,1,1.56-5A10.14,10.14,0,0,1,345.28,19a4.8,4.8,0,0,1,2.11-1A3.47,3.47,0,0,1,348.59,17.78Zm-4.18,6.67.21.1c.71-.1,1.65-.2,2.83-.31a.43.43,0,0,1,.17.06q5.89-.14,5.89-.52v0A11.33,11.33,0,0,0,352,21a3.13,3.13,0,0,0-2.7-1.24h-.11a6.17,6.17,0,0,0-2.94,1.66,4.94,4.94,0,0,0-1.81,3Z" transform="translate(-16.33 -9.59)"/><path class="cls-1" d="M361,10.81a2.63,2.63,0,0,1,2.38,2l0,.67A1.79,1.79,0,0,1,362,15a2.77,2.77,0,0,1-1.41.24,2.08,2.08,0,0,1-2.13-1.95c.12-1.13.39-1.76.81-1.9A2.44,2.44,0,0,1,361,10.81Zm.65,5.9c.91.22,1.34.52,1.3.9q.43,14.24.54,14.89c-.17.72-.44,1.06-.82,1a4.42,4.42,0,0,0-.91.24l-.39-.11-.66-.06a3.64,3.64,0,0,0-.61,0h0c-.71-.32-1-.76-1-1.32q.24-2.28-.28-14.19a2.67,2.67,0,0,0-.08-.84v-.06q.06-.5.84-.57l.17.08a3.57,3.57,0,0,1,.45-.08,2.63,2.63,0,0,1,.43.1Z" transform="translate(-16.33 -9.59)"/><path class="cls-1" d="M366.81,18.11l.13,0c.42,0,.61.4.57,1.15a10,10,0,0,0,0,1.08h.09a7.41,7.41,0,0,1,1.42-.55,5.2,5.2,0,0,1,1.72-.18,15.92,15.92,0,0,1,4.2,1.44,3.44,3.44,0,0,1,1.53,2.68c.13,0,.26.63.39,1.87l-.06.22V26c0,.16,0,.41,0,.76l-.09,0a5.47,5.47,0,0,0-.81,0c-1.38-.07-2.06-.21-2.05-.42l-.33-2.28a4.85,4.85,0,0,0-.87-2.34,1.64,1.64,0,0,0-.84-.31l-.31,0c-.65,0-1.47.46-2.46,1.48a8.48,8.48,0,0,0-1.26,3.22c0,.6-.08,2.25-.17,5a8.78,8.78,0,0,1,.24,1.32,1.76,1.76,0,0,0-.1.45l0,.32a.29.29,0,0,1-.33.21l-1.26-.07a11,11,0,0,0-1.71.09q-.3,0-.3-2a70.2,70.2,0,0,1-.27-7.75l-.13-3.57,0-.54a2.05,2.05,0,0,0-.1-.64.66.66,0,0,0,.06-.12c-.05-.28-.07-.43-.07-.46a.49.49,0,0,0,.06-.17h.54A23.88,23.88,0,0,1,366.81,18.11Z" transform="translate(-16.33 -9.59)"/><path class="cls-1" d="M392.23,18.12c.61.05.88.39.82,1,0,.35.12,2.36.43,6A34.61,34.61,0,0,0,395,29.25a13.2,13.2,0,0,0,1,1.48A4.42,4.42,0,0,1,397,33v0c0,.09-.13.19-.37.3l-.24-.06-.33,0c-.17.06-.25.1-.25.12l-.22-.21a2.52,2.52,0,0,1-.73.12l-.76-.06c-.31,0-.63-.42-1-1.15l-1.24-2.29h-.06c-.58.73-1.22,1.46-1.93,2.2a4.7,4.7,0,0,1-2.47,1.18,9,9,0,0,1-3.31.25q-3.81-.7-4.72-1.48a3.09,3.09,0,0,1-1.69-1.6,4.62,4.62,0,0,1-.46-2l0-.43a6.46,6.46,0,0,1,1.11-3.19,12.09,12.09,0,0,1,1.92-2.59,8.39,8.39,0,0,1,2.91-2.22,3.2,3.2,0,0,1,2.1-.73l.29.08a10.9,10.9,0,0,1,2.74.09l1.6.52a2.22,2.22,0,0,0,.75.31h.1a12.81,12.81,0,0,0-.06-1.56C390.7,18.29,391.22,18.14,392.23,18.12Zm-11.29,8.21-.06.76a4.44,4.44,0,0,0,.91,2.74,3.86,3.86,0,0,0,2.31,1.27l.82.07a2.19,2.19,0,0,0,1.36-.61,5.3,5.3,0,0,0,2.91-2.89,3.23,3.23,0,0,0,.43-1.56l0-.39a4.15,4.15,0,0,0-1.18-2.52,5.09,5.09,0,0,0-1.92-.79,5.51,5.51,0,0,0-3.75.78A11,11,0,0,0,380.94,26.33Zm14.76,6.82v0h.18l0,0c0-.07,0-.11-.09-.11S395.7,33.09,395.7,33.15Z" transform="translate(-16.33 -9.59)"/><path class="cls-1" d="M235.22,9.76h0c.16-.08.26-.09.3-.05l.29.28c.07,0,.11,0,.12,0l.06.09c.31.29.81.78,1.08,1l.12.22a1.24,1.24,0,0,1-.17.35l-.25.18c-.63.78-1.06,1.33-1.28,1.66-.66.76-1,1.21-1.13,1.36l-.07,0a6.46,6.46,0,0,1-.63.76s-.18,0-.4-.11l0-.06s-.42-.41-.69-.63l0,0a.68.68,0,0,1-.15-.19l-.15-.13c-.31-.32-.45-.49-.42-.52a17.15,17.15,0,0,1,1.37-1.63l.08,0a4.23,4.23,0,0,0,.31-.39l.08,0a15.93,15.93,0,0,1,1.12-1.43A2.32,2.32,0,0,1,235.22,9.76Z" transform="translate(-16.33 -9.59)"/></svg>