<?xml version="1.0" encoding="utf-8"?>
<!-- Generator: Adobe Illustrator 23.0.0, SVG Export Plug-In . SVG Version: 6.00 Build 0)  -->
<svg version="1.1" id="Layer_1" xmlns="http://www.w3.org/2000/svg" xmlns:xlink="http://www.w3.org/1999/xlink" x="0px" y="0px"
	 viewBox="0 0 299.81 303.32" style="enable-background:new 0 0 299.81 303.32;" xml:space="preserve">
<style type="text/css">
	.st0{fill:#C83128;}
	.st1{opacity:0.3;fill:url(#SVGID_1_);}
	.st2{opacity:0.3;fill:url(#SVGID_2_);}
	.st3{opacity:0.3;fill:url(#SVGID_3_);}
	.st4{opacity:0.3;fill:url(#SVGID_4_);}
	.st5{fill:#ECBD2D;}
	.st6{fill:#1A75BB;}
	.st7{fill:#37A649;}
	.st8{clip-path:url(#SVGID_6_);fill:#FFFFFF;}
	.st9{fill:#FFFFFF;}
	.st10{clip-path:url(#SVGID_8_);fill:#37A649;}
	.st11{opacity:0.6;}
	.st12{fill-rule:evenodd;clip-rule:evenodd;fill:#4776B9;}
	.st13{opacity:0.6;fill:#4776B9;}
	.st14{opacity:0.6;fill:#231F20;}
	.st15{opacity:0.6;fill:none;}
	.st16{fill:#4776B9;}
	.st17{fill:#1F4581;}
	.st18{fill-rule:evenodd;clip-rule:evenodd;fill:#A34424;}
	.st19{fill-rule:evenodd;clip-rule:evenodd;fill:#37A649;}
	.st20{fill-rule:evenodd;clip-rule:evenodd;fill:#C83128;}
	.st21{fill-rule:evenodd;clip-rule:evenodd;fill:#ECBD2D;}
	.st22{fill-rule:evenodd;clip-rule:evenodd;fill:#1A75BB;}
	.st23{clip-path:url(#SVGID_10_);}
	.st24{fill:#231F20;}
</style>
<g>
	<path d="M83.21,271.73c-2.46,0-4.45-1.98-4.45-4.44c0-17.16,13.97-31.13,31.13-31.13c2.46,0,4.45,1.99,4.45,4.45
		c0,2.46-1.99,4.45-4.45,4.45c-12.26,0-22.23,9.97-22.23,22.23C87.66,269.74,85.67,271.73,83.21,271.73L83.21,271.73z M83.21,271.73
		"/>
	<path d="M127.68,245.05l-17.79,0c-2.46,0-4.45-1.99-4.45-4.45c0-2.46,1.99-4.45,4.45-4.45l17.79,0c2.46,0,4.45,1.99,4.45,4.45
		C132.13,243.07,130.13,245.05,127.68,245.05L127.68,245.05z M127.68,245.05"/>
	<path d="M83.21,285.07c-2.46,0-4.45-1.99-4.45-4.45v-12.07c0-2.46,1.99-4.45,4.45-4.45c2.46,0,4.45,1.99,4.45,4.45v12.07
		C87.66,283.09,85.67,285.07,83.21,285.07L83.21,285.07z M83.21,285.07"/>
	<path d="M216.61,271.73c-2.46,0-4.45-1.98-4.45-4.44c0-12.26-9.98-22.23-22.23-22.23c-2.46,0-4.45-1.99-4.45-4.45
		c0-2.46,1.99-4.45,4.45-4.45c17.16,0,31.13,13.96,31.13,31.13C221.06,269.74,219.07,271.73,216.61,271.73L216.61,271.73z
		 M216.61,271.73"/>
	<path d="M172.14,245.05c-2.45,0-4.45-1.99-4.45-4.45c0-2.45,1.99-4.45,4.45-4.45l17.79,0c2.46,0,4.45,1.99,4.45,4.45
		c0,2.46-1.99,4.45-4.45,4.45L172.14,245.05z M172.14,245.05"/>
	<path d="M216.61,285.07c-2.46,0-4.45-1.99-4.45-4.45v-12.07c0-2.46,1.99-4.45,4.45-4.45c2.46,0,4.45,1.99,4.45,4.45v12.07
		C221.06,283.09,219.07,285.07,216.61,285.07L216.61,285.07z M216.61,285.07"/>
	<path d="M207.72,293.97H92.1c-2.46,0-4.45-1.99-4.45-4.45c0-2.46,1.99-4.45,4.45-4.45h115.62c2.46,0,4.45,1.99,4.45,4.45
		C212.17,291.98,210.18,293.97,207.72,293.97L207.72,293.97z M207.72,293.97"/>
	<path d="M127.68,245.05c-2.46,0-4.45-1.99-4.45-4.45v-14.23c0-2.46,1.99-4.45,4.45-4.45c2.46,0,4.45,1.99,4.45,4.45v14.23
		C132.13,243.07,130.14,245.05,127.68,245.05L127.68,245.05z M127.68,245.05"/>
	<path d="M172.14,245.05c-2.46,0-4.45-1.99-4.45-4.45v-14.23c0-2.46,1.99-4.45,4.45-4.45c2.46,0,4.45,1.99,4.45,4.45v14.23
		C176.59,243.06,174.61,245.05,172.14,245.05L172.14,245.05z M172.14,245.05"/>
	<path d="M149.91,236.16c-29.43,0-53.36-23.94-53.36-53.36c0-2.46,1.99-4.45,4.45-4.45c2.46,0,4.45,1.99,4.45,4.45
		c0,24.52,19.95,44.47,44.47,44.47c24.52,0,44.47-19.95,44.47-44.47c0-2.46,1.99-4.45,4.45-4.45c2.46,0,4.44,1.99,4.44,4.45
		C203.27,212.22,179.34,236.16,149.91,236.16L149.91,236.16z M149.91,236.16"/>
	<path d="M101,187.25c-2.46,0-4.45-1.99-4.45-4.45v-40.03c0-2.46,1.99-4.45,4.45-4.45c2.46,0,4.45,1.99,4.45,4.45v40.03
		C105.44,185.26,103.46,187.25,101,187.25L101,187.25z M101,187.25"/>
	<path d="M198.83,187.25c-2.46,0-4.45-1.99-4.45-4.45v-40.03c0-2.46,1.99-4.45,4.45-4.45c2.46,0,4.44,1.99,4.44,4.45v40.03
		C203.27,185.26,201.29,187.25,198.83,187.25L198.83,187.25z M198.83,187.25"/>
	<path d="M198.83,147.22c-2.46,0-4.45-1.99-4.45-4.45c0-9.81-7.98-17.79-17.79-17.79c-2.46,0-4.45-1.99-4.45-4.45
		c0-2.46,1.99-4.45,4.45-4.45c14.72,0,26.68,11.97,26.68,26.68C203.27,145.23,201.29,147.22,198.83,147.22L198.83,147.22z
		 M198.83,147.22"/>
	<path d="M176.59,124.99c-2.46,0-4.45-1.99-4.45-4.45v-17.79c0-2.46,1.99-4.45,4.45-4.45c2.46,0,4.45,1.99,4.45,4.45v17.79
		C181.04,123,179.05,124.99,176.59,124.99L176.59,124.99z M176.59,124.99"/>
	<path d="M176.59,107.2h-35.57c-2.46,0-4.45-1.99-4.45-4.45c0-2.46,1.99-4.45,4.45-4.45h35.57c2.46,0,4.45,1.99,4.45,4.45
		C181.04,105.21,179.05,107.2,176.59,107.2L176.59,107.2z M176.59,107.2"/>
	<path d="M101,147.22c-2.46,0-4.45-1.99-4.45-4.45c0-24.52,19.95-44.46,44.47-44.46c2.46,0,4.45,1.99,4.45,4.45
		c0,2.46-1.99,4.45-4.45,4.45c-19.61,0-35.57,15.96-35.57,35.57C105.44,145.23,103.46,147.22,101,147.22L101,147.22z M101,147.22"/>
	<path d="M198.83,169.45c-1.14,0-2.28-0.44-3.14-1.3l-13.34-13.34c-1.74-1.74-1.74-4.55,0-6.29c1.74-1.74,4.55-1.74,6.29,0
		l13.34,13.34c1.74,1.74,1.74,4.55,0,6.29C201.1,169.02,199.97,169.45,198.83,169.45L198.83,169.45z M198.83,169.45"/>
	<path d="M149.91,165.01c-19.94,0-36.97-9.04-37.68-9.42c-2.16-1.16-2.97-3.85-1.81-6.02c1.16-2.16,3.85-2.99,6.02-1.81
		c0.15,0.08,15.83,8.36,33.47,8.36c17.73,0,33.31-8.28,33.47-8.36c2.16-1.16,4.86-0.35,6.02,1.81c1.16,2.16,0.35,4.86-1.81,6.02
		C186.88,155.97,169.85,165.01,149.91,165.01L149.91,165.01z M149.91,165.01"/>
	<path d="M101,169.45c-1.14,0-2.28-0.44-3.14-1.3c-1.74-1.74-1.74-4.55,0-6.29l13.34-13.34c1.74-1.74,4.55-1.74,6.29,0
		c1.74,1.74,1.74,4.55,0,6.29l-13.34,13.34C103.27,169.02,102.13,169.45,101,169.45L101,169.45z M101,169.45"/>
	<path d="M136.57,253.94c-1.14,0-2.28-0.44-3.14-1.3l-8.89-8.89c-1.74-1.74-1.74-4.55,0-6.29c1.74-1.74,4.55-1.74,6.29,0l8.89,8.89
		c1.74,1.74,1.74,4.55,0,6.29C138.85,253.51,137.71,253.94,136.57,253.94L136.57,253.94z M136.57,253.94"/>
	<path d="M136.57,253.94c-1.86,0-3.6-1.18-4.21-3.04c-0.78-2.33,0.48-4.85,2.81-5.62l13.34-4.45c2.34-0.78,4.85,0.48,5.63,2.81
		c0.78,2.33-0.48,4.85-2.81,5.63l-13.34,4.45C137.51,253.87,137.03,253.94,136.57,253.94L136.57,253.94z M136.57,253.94"/>
	<path d="M163.25,253.94c-1.14,0-2.28-0.44-3.14-1.3c-1.74-1.74-1.74-4.55,0-6.29l8.89-8.89c1.74-1.74,4.55-1.74,6.29,0
		c1.74,1.74,1.74,4.55,0,6.29l-8.89,8.89C165.53,253.51,164.39,253.94,163.25,253.94L163.25,253.94z M163.25,253.94"/>
	<path d="M163.25,253.94c-0.46,0-0.94-0.08-1.41-0.23l-13.34-4.45c-2.33-0.78-3.59-3.29-2.81-5.63c0.78-2.33,3.27-3.59,5.62-2.81
		l13.34,4.45c2.33,0.77,3.59,3.29,2.81,5.62C166.85,252.77,165.12,253.94,163.25,253.94L163.25,253.94z M163.25,253.94"/>
	<path d="M207.72,293.97c-2.46,0-4.45-1.99-4.45-4.45c0-2.46,1.99-4.45,4.45-4.45c2.46,0,4.45-1.99,4.45-4.45
		c0-2.46,1.99-4.45,4.45-4.45c2.46,0,4.45,1.99,4.45,4.45C221.06,287.98,215.07,293.97,207.72,293.97L207.72,293.97z M207.72,293.97
		"/>
	<path d="M92.1,293.97c-7.35,0-13.34-5.98-13.34-13.34c0-2.46,1.99-4.45,4.45-4.45c2.46,0,4.45,1.99,4.45,4.45
		c0,2.46,1.99,4.45,4.45,4.45c2.46,0,4.45,1.99,4.45,4.45C96.55,291.98,94.56,293.97,92.1,293.97L92.1,293.97z M92.1,293.97"/>
	<path d="M150.05,271.73c-2.46,0-4.47-1.98-4.47-4.44c0-2.46,1.97-4.45,4.42-4.45h0.05c2.45,0,4.45,1.99,4.45,4.45
		C154.49,269.75,152.5,271.73,150.05,271.73L150.05,271.73z M150.05,271.73"/>
	<path d="M43.19,182.79c-17.16,0-31.13-13.97-31.13-31.13c0-17.16,13.96-31.13,31.13-31.13c8.32,0,16.13,3.24,22.01,9.12
		c5.88,5.88,9.12,13.7,9.12,22.01C74.32,168.82,60.35,182.79,43.19,182.79L43.19,182.79z M43.2,129.43
		c-12.26,0-22.24,9.98-22.24,22.24c0,12.26,9.97,22.23,22.23,22.23c12.26,0,22.23-9.97,22.23-22.24
		C65.42,139.4,55.45,129.43,43.2,129.43L43.2,129.43z M43.2,129.43"/>
	<path d="M83.21,156.12H69.87c-2.46,0-4.45-1.99-4.45-4.45c0-2.46,1.99-4.45,4.45-4.45h13.34c2.46,0,4.45,1.99,4.45,4.45
		C87.66,154.13,85.67,156.12,83.21,156.12L83.21,156.12z M83.21,156.12"/>
	<g>
		<defs>
			<rect id="SVGID_9_" x="12.04" y="9.35" width="275.72" height="284.61"/>
		</defs>
		<clipPath id="SVGID_1_">
			<use xlink:href="#SVGID_9_"  style="overflow:visible;"/>
		</clipPath>
		<path style="clip-path:url(#SVGID_1_);" d="M256.64,182.8c-17.16,0-31.13-13.97-31.13-31.14c0-17.16,13.96-31.12,31.12-31.12
			c17.16,0,31.13,13.97,31.13,31.13C287.76,168.82,273.79,182.79,256.64,182.8L256.64,182.8z M256.63,129.43
			c-12.26,0-22.23,9.97-22.23,22.23c0,12.26,9.97,22.24,22.23,22.24c12.26,0,22.22-9.98,22.23-22.24
			C278.87,139.4,268.89,129.43,256.63,129.43L256.63,129.43z M256.63,129.43"/>
	</g>
	<path d="M229.95,156.12l-13.34,0c-2.46,0-4.45-1.99-4.45-4.45c0-2.46,1.99-4.45,4.45-4.45l13.34,0c2.46,0,4.45,1.99,4.45,4.45
		C234.4,154.13,232.41,156.12,229.95,156.12L229.95,156.12z M229.95,156.12"/>
	<path d="M228.53,104.19C228.53,104.19,228.53,104.19,228.53,104.19c-17.17,0-31.13-13.97-31.13-31.14
		c0-17.16,13.96-31.13,31.12-31.13c17.16,0,31.12,13.97,31.12,31.13S245.69,104.18,228.53,104.19L228.53,104.19z M228.53,50.82
		c-12.26,0-22.23,9.97-22.23,22.23c0,12.26,9.97,22.24,22.23,22.24c12.25-0.01,22.23-9.98,22.23-22.24
		C250.76,60.79,240.79,50.82,228.53,50.82L228.53,50.82z M228.53,50.82"/>
	<path d="M200.22,105.8c-1.14,0-2.28-0.44-3.14-1.3c-1.74-1.74-1.74-4.55,0-6.29l9.44-9.43c1.74-1.74,4.55-1.74,6.29,0
		c1.74,1.74,1.74,4.56,0,6.29l-9.44,9.43C202.5,105.37,201.36,105.8,200.22,105.8L200.22,105.8z M200.22,105.8"/>
	<path d="M149.92,71.62C149.91,71.62,149.91,71.62,149.92,71.62c-17.16,0-31.13-13.97-31.13-31.14c0-17.16,13.97-31.13,31.13-31.13
		s31.13,13.97,31.13,31.13C181.04,57.64,167.08,71.61,149.92,71.62L149.92,71.62z M149.91,18.25c-12.26,0-22.23,9.97-22.23,22.23
		c0,12.26,9.97,22.24,22.23,22.24c12.26-0.01,22.23-9.98,22.23-22.24C172.14,28.22,162.17,18.25,149.91,18.25L149.91,18.25z
		 M149.91,18.25"/>
	<path d="M149.92,84.96c-2.46,0-4.45-1.99-4.45-4.45V67.17c0-2.46,1.99-4.45,4.45-4.45c2.46,0,4.45,1.99,4.45,4.45v13.34
		C154.37,82.97,152.38,84.96,149.92,84.96L149.92,84.96z M149.92,84.96"/>
	<path d="M71.31,104.18c-8.32,0-16.14-3.24-22.02-9.12c-5.87-5.88-9.12-13.7-9.11-22.01c0-17.16,13.96-31.13,31.12-31.13
		s31.12,13.97,31.12,31.13C102.43,90.2,88.48,104.16,71.31,104.18L71.31,104.18z M71.31,50.81c-12.26,0-22.23,9.98-22.23,22.23
		c0,5.94,2.31,11.53,6.51,15.73c4.19,4.2,9.78,6.52,15.71,6.52c12.26-0.01,22.24-9.99,22.24-22.25
		C93.54,60.78,83.57,50.81,71.31,50.81L71.31,50.81z M71.31,50.81"/>
	<path d="M99.61,105.79c-1.14,0-2.27-0.44-3.14-1.3l-9.43-9.43c-1.74-1.74-1.74-4.55,0-6.29c1.74-1.74,4.55-1.74,6.29,0l9.43,9.43
		c1.74,1.74,1.74,4.55,0,6.29C101.88,105.36,100.74,105.79,99.61,105.79L99.61,105.79z M99.61,105.79"/>
	<path d="M256.19,135.32c-5.06,0-9.18,4.12-9.18,9.18c0,1.09,0.89,1.98,1.98,1.98s1.98-0.89,1.98-1.98c0-2.88,2.34-5.22,5.22-5.22
		c2.88,0,5.22,2.34,5.22,5.22s-2.34,5.22-5.22,5.22h-1.26c-1.09,0-1.98,0.89-1.98,1.98v6.77c0,1.09,0.89,1.98,1.98,1.98
		c1.09,0,1.98-0.89,1.98-1.98v-4.82c4.73-0.37,8.46-4.33,8.46-9.15C265.37,139.44,261.25,135.32,256.19,135.32z"/>
	<path d="M254.93,163.48c-1.09,0-1.98,0.89-1.98,1.98v0.58c0,1.09,0.89,1.98,1.98,1.98s1.98-0.89,1.98-1.98v-0.58
		C256.91,164.36,256.02,163.48,254.93,163.48z"/>
	<path d="M229.95,56.7c-5.06,0-9.18,4.12-9.18,9.18c0,1.09,0.89,1.98,1.98,1.98c1.09,0,1.98-0.89,1.98-1.98
		c0-2.88,2.34-5.22,5.22-5.22c2.88,0,5.22,2.34,5.22,5.22s-2.34,5.22-5.22,5.22h-1.26c-1.09,0-1.98,0.89-1.98,1.98v6.77
		c0,1.09,0.89,1.98,1.98,1.98s1.98-0.89,1.98-1.98v-4.82c4.73-0.37,8.46-4.33,8.46-9.15C239.14,60.82,235.02,56.7,229.95,56.7z"/>
	<path d="M228.7,84.85c-1.09,0-1.98,0.89-1.98,1.98v0.58c0,1.09,0.89,1.98,1.98,1.98c1.09,0,1.98-0.89,1.98-1.98v-0.58
		C230.68,85.74,229.79,84.85,228.7,84.85z"/>
	<path d="M150.05,24.14c-5.06,0-9.18,4.12-9.18,9.18c0,1.09,0.89,1.98,1.98,1.98c1.09,0,1.98-0.89,1.98-1.98
		c0-2.88,2.34-5.22,5.22-5.22c2.88,0,5.22,2.34,5.22,5.22c0,2.88-2.34,5.22-5.22,5.22h-1.26c-1.09,0-1.98,0.89-1.98,1.98v6.77
		c0,1.09,0.89,1.98,1.98,1.98c1.09,0,1.98-0.89,1.98-1.98v-4.82c4.73-0.37,8.46-4.33,8.46-9.15
		C159.23,28.26,155.11,24.14,150.05,24.14z"/>
	<path d="M148.79,52.29c-1.09,0-1.98,0.89-1.98,1.98v0.58c0,1.09,0.89,1.98,1.98,1.98s1.98-0.89,1.98-1.98v-0.58
		C150.77,53.18,149.88,52.29,148.79,52.29z"/>
	<path d="M71.31,57.49c-5.06,0-9.18,4.12-9.18,9.18c0,1.09,0.89,1.98,1.98,1.98c1.09,0,1.98-0.89,1.98-1.98
		c0-2.88,2.34-5.22,5.22-5.22c2.88,0,5.22,2.34,5.22,5.22c0,2.88-2.34,5.22-5.22,5.22h-1.26c-1.09,0-1.98,0.89-1.98,1.98v6.77
		c0,1.09,0.89,1.98,1.98,1.98c1.09,0,1.98-0.89,1.98-1.98v-4.82c4.73-0.37,8.46-4.33,8.46-9.15C80.49,61.61,76.37,57.49,71.31,57.49
		z"/>
	<path d="M70.05,85.65c-1.09,0-1.98,0.89-1.98,1.98v0.58c0,1.09,0.89,1.98,1.98,1.98c1.09,0,1.98-0.89,1.98-1.98v-0.58
		C72.03,86.53,71.14,85.65,70.05,85.65z"/>
	<path d="M43.2,135.31c-5.06,0-9.18,4.12-9.18,9.18c0,1.09,0.89,1.98,1.98,1.98c1.09,0,1.98-0.89,1.98-1.98
		c0-2.88,2.34-5.22,5.22-5.22c2.88,0,5.22,2.34,5.22,5.22s-2.34,5.22-5.22,5.22h-1.26c-1.09,0-1.98,0.89-1.98,1.98v6.77
		c0,1.09,0.89,1.98,1.98,1.98s1.98-0.89,1.98-1.98v-4.82c4.73-0.37,8.46-4.33,8.46-9.15C52.38,139.43,48.26,135.31,43.2,135.31z"/>
	<path d="M41.94,163.47c-1.09,0-1.98,0.89-1.98,1.98v0.58c0,1.09,0.89,1.98,1.98,1.98s1.98-0.89,1.98-1.98v-0.58
		C43.92,164.35,43.03,163.47,41.94,163.47z"/>
</g>
</svg>
