<?xml version="1.0" encoding="UTF-8" standalone="no"?>
<!-- Generator: Adobe Illustrator 23.0.0, SVG Export Plug-In . SVG Version: 6.00 Build 0)  -->

<svg
   version="1.1"
   id="Camada_1"
   x="0px"
   y="0px"
   viewBox="0 0 124.99999 113"
   xml:space="preserve"
   sodipodi:docname="producao-e-interpretacao-de-texto.svg"
   width="125"
   height="113"
   inkscape:version="1.2 (1:1.2.1+202207142221+cd75a1ee6d)"
   xmlns:inkscape="http://www.inkscape.org/namespaces/inkscape"
   xmlns:sodipodi="http://sodipodi.sourceforge.net/DTD/sodipodi-0.dtd"
   xmlns="http://www.w3.org/2000/svg"
   xmlns:svg="http://www.w3.org/2000/svg"><defs
   id="defs936" /><sodipodi:namedview
   id="namedview934"
   pagecolor="#ffffff"
   bordercolor="#000000"
   borderopacity="0.25"
   inkscape:showpageshadow="2"
   inkscape:pageopacity="0.0"
   inkscape:pagecheckerboard="0"
   inkscape:deskcolor="#d1d1d1"
   showgrid="false"
   inkscape:zoom="1.1996816"
   inkscape:cx="112.52985"
   inkscape:cy="48.346159"
   inkscape:window-width="1366"
   inkscape:window-height="671"
   inkscape:window-x="0"
   inkscape:window-y="27"
   inkscape:window-maximized="1"
   inkscape:current-layer="Camada_1" />
<path
   d="m 34.99345,74.551228 c 0.188342,-0.04532 0.31873,-0.104203 0.446703,-0.101939 0.905462,0.01132 1.810932,0.04303 2.716402,0.0544 0.268018,0.002 0.538452,-0.0204 0.80164,-0.06342 0.289747,-0.0476 0.451523,0.03622 0.4805,0.312619 0.02655,0.251451 0.07244,0.50064 0.07244,0.75209 0.0048,7.593402 0.0097,15.184542 -0.0097,22.777944 -0.0028,0.643356 0.253532,1.103222 0.705062,1.531364 0.43462,0.412294 0.919954,0.713584 1.559819,0.715854 0.917537,0.004 1.835074,0.002 2.750201,0.002 1.057589,0 2.112762,0 3.170345,-0.002 1.750571,0 3.498724,-0.007 5.249295,0.002 0.917543,0.004 1.83508,0.0498 2.752625,0.0476 1.497038,-0.004 2.996495,-0.0363 4.493534,-0.0498 0.999629,-0.009 1.996857,-0.009 2.996493,0.002 0.91512,0.0113 1.830248,0.0657 2.745374,0.0634 1.289391,-0.004 2.576359,-0.0521 3.863325,-0.0634 0.516721,-0.004 1.033442,0.0589 1.547745,0.0566 0.915127,-0.004 1.830253,-0.0566 2.745379,-0.0521 1.400462,0.004 2.803326,0.0453 4.203787,0.0566 0.422554,0.002 0.845101,-0.0657 1.265238,-0.0611 1.243512,0.0113 2.484601,0.0657 3.728107,0.0634 1.579139,-0.002 3.158278,-0.0567 4.739826,-0.0611 1.016533,-0.002 2.030662,0.0634 3.047202,0.0611 1.248334,-0.002 2.496675,-0.0498 3.74501,-0.0657 0.883734,-0.0113 1.765055,-0.009 2.648795,0 0.480502,0.004 0.961002,0.0589 1.439092,0.0544 2.151401,-0.0113 4.300361,-0.0363 6.451761,-0.0544 0.15453,-0.002 0.31631,-0.0204 0.46119,0.0136 0.763,0.17217 1.45599,-0.0204 2.10309,-0.37378 0.77025,-0.421364 1.20246,-1.033002 1.17831,-1.905151 -0.0289,-1.030729 -0.0386,-2.063719 -0.0386,-3.096711 -0.002,-0.743034 0.0339,-1.4838 0.0339,-2.226827 -0.002,-1.141727 -0.0339,-2.28119 -0.0339,-3.422923 0.002,-1.646902 0.0242,-3.293799 0.0314,-4.940695 0.007,-1.665022 0.01,-3.332311 0.004,-4.997332 -0.007,-2.136204 -0.0314,-4.272416 -0.0339,-6.408628 -0.002,-1.610652 0.0217,-3.221306 0.029,-4.831961 0.004,-1.048852 0.004,-2.099967 0.004,-3.148814 0,-1.773763 0,-3.549782 0,-5.323538 0,-1.429426 0.004,-2.86112 -0.002,-4.290547 -0.008,-1.375059 -0.0314,-2.750117 -0.0339,-4.125176 -0.002,-0.81552 0.0314,-1.628778 0.0339,-2.444291 0.004,-1.810006 0.002,-3.622274 0.002,-5.43228 0,-1.610654 0.004,-3.22357 -0.002,-4.834223 -0.008,-1.610655 -0.0339,-3.221307 -0.0339,-4.83196 0,-1.232343 0.0121,-2.462417 0.0411,-3.694759 0.012,-0.462185 -0.11593,-0.804253 -0.49503,-1.144052 -1.32556,-1.187037 -2.60529,-2.417112 -3.89709,-3.63813 -1.03102,-0.974092 -2.04515,-1.966308 -3.08099,-2.938138 -0.92479,-0.867625 -1.871311,-1.714856 -2.800921,-2.58022 -0.51672,-0.482515 -1.0093,-0.992217 -1.523602,-1.476994 -0.545697,-0.511971 -1.108296,-1.00581 -1.656403,-1.517774 -1.093813,-1.019404 -2.190028,-2.038801 -3.269342,-3.071799 -0.386329,-0.369248 -0.777497,-0.647885 -1.369065,-0.462127 -0.103822,0.03172 -0.229392,0.0046 -0.345289,0.0068 -2.257628,0.01132 -4.515264,0.02942 -6.772899,0.03401 -0.965833,0.002 -1.929249,-0.03401 -2.895082,-0.03171 -2.431478,0.0046 -4.862962,0.02942 -7.29444,0.03171 -1.697447,0.002 -3.394901,-0.0272 -5.092347,-0.03171 -2.161051,-0.0068 -4.319683,-0.0068 -6.480735,0 -2.122417,0.0068 -4.244829,0.03171 -6.367246,0.03171 -1.716766,0 -3.433532,-0.0272 -5.150301,-0.03171 -1.851982,-0.0068 -3.706376,-0.002 -5.558361,-0.002 -1.04068,0 -2.083785,-0.01588 -3.124466,0.0046 -0.760597,0.01589 -1.402871,0.28317 -1.897862,0.863094 -0.367013,0.43041 -0.526377,0.876683 -0.526377,1.438483 0.0169,7.557158 0.01215,15.114318 0.0072,22.669216 0,0.269568 -0.05074,0.536882 -0.07486,0.806457 -0.01935,0.222001 -0.144873,0.314874 -0.379086,0.312611 -1.113125,-0.0046 -2.228658,0.002 -3.341784,-0.0046 -0.152112,0 -0.30182,-0.04303 -0.45394,-0.0657 -0.263188,-0.04303 -0.335626,-0.194814 -0.311478,-0.43268 0.029,-0.269575 0.04108,-0.53915 0.04108,-0.810988 0.0028,-7.430299 -0.0072,-14.860599 0.0097,-22.288629 0.0028,-1.275385 0.236625,-2.519054 0.982729,-3.631331 0.82096,-1.221018 1.972717,-2.059194 3.380416,-2.6096695 0.912708,-0.3556547 1.876133,-0.380574 2.839547,-0.3828419 13.077365,-0.00457 26.152314,-0.00197 39.22968,-0.00197 3.670155,0 7.340318,0.00197 11.010482,-0.00197 0.287335,0 0.577083,-0.022627 0.859591,-0.061134 0.277675,-0.038508 0.50223,0.054399 0.685743,0.2197391 0.528788,0.4734528 1.047926,0.9582353 1.567057,1.4407503 0.354946,0.330743 0.702645,0.670537 1.057591,1.003543 1.390799,1.307104 2.779179,2.616463 4.17482,3.916767 1.29662,1.209687 2.61015,2.403524 3.90678,3.613212 1.05034,0.983155 2.07654,1.986696 3.12446,2.96985 1.25075,1.173444 2.51841,2.3333 3.77398,3.499945 0.53363,0.496108 1.07449,0.987685 1.59122,1.49965 0.32113,0.317148 0.58674,0.647885 0.44669,1.157588 -0.0724,0.265044 0.0508,0.570862 0.0508,0.856293 0.002,22.796069 0.004,45.594401 -0.002,68.390471 0,1.4702 -0.34287,2.879244 -1.25558,4.107054 -0.78474,1.05565 -1.78438,1.88023 -3.08341,2.36954 -0.72679,0.27184 -1.44876,0.4644 -2.24073,0.42135 -0.59157,-0.0317 -1.18556,-0.007 -1.77955,-0.007 -1.01895,0 -2.03548,-0.007 -3.05444,0.002 -0.51913,0.004 -1.03826,0.0657 -1.5574,0.0634 -0.842691,-0.002 -1.682971,-0.0544 -2.525651,-0.0521 -0.900646,0 -1.798864,0.0498 -2.699505,0.0521 -0.557772,0.002 -1.115536,-0.0566 -1.673307,-0.0566 -0.538444,0 -1.076902,0.0498 -1.612935,0.0566 -0.922373,0.0113 -1.842328,0.002 -2.764693,0.002 -0.941686,0 -1.880959,0.004 -2.822645,-0.004 -0.325969,-0.002 -0.651937,-0.0657 -0.975489,-0.0612 -0.635036,0.007 -1.270072,0.0544 -1.905108,0.0657 -0.787149,0.0113 -1.571894,0.0113 -2.359042,0 -0.577083,-0.009 -1.154166,-0.0612 -1.731258,-0.0634 -0.499811,-0.002 -0.99963,0.0634 -1.499449,0.0611 -0.673668,-0.002 -1.347337,-0.0657 -2.021004,-0.0611 -1.014122,0.004 -2.030662,0.0567 -3.044784,0.0611 -0.577085,0.004 -1.154168,-0.0589 -1.731258,-0.0634 -1.115535,-0.0113 -2.228659,-0.0113 -3.344195,0 -0.51913,0.004 -1.038263,0.0612 -1.557401,0.0657 -1.166242,0.0113 -2.334901,0.002 -3.503552,0.002 -0.767842,0 -1.533259,0.009 -2.301095,-0.002 -0.635037,-0.009 -1.270072,-0.068 -1.905108,-0.0634 -0.975483,0.004 -1.953391,0.0567 -2.928879,0.0611 -0.596403,0.002 -1.192806,-0.0589 -1.789204,-0.0634 -1.224193,-0.0113 -2.450797,-0.009 -3.677408,0 -0.441867,0.004 -0.883734,0.0612 -1.323188,0.0657 -1.14934,0.009 -2.296268,0.0113 -3.445608,0 -0.770253,-0.009 -1.538088,-0.0521 -2.308336,-0.0657 -0.593989,-0.0114 -1.187975,0.018 -1.779549,-0.004 -2.670527,-0.10874 -4.544241,-1.36147 -5.797411,-3.53845 -0.562592,-0.97863 -0.683324,-2.03881 -0.688152,-3.096725 -0.02655,-7.684013 -0.01453,-15.368031 -0.01453,-23.049783 0.02174,-0.117797 0.02174,-0.242388 0.02174,-0.414554 z M 11.422324,30.617324 c -0.405645,0.240126 -0.796811,0.514227 -1.142093,0.824576 -0.758179,0.681866 -1.342509,1.472469 -1.716766,2.412587 -0.241458,0.607105 -0.304239,1.227804 -0.371848,1.853041 -0.103822,0.99901 -0.02655,1.986696 0.347699,2.933607 0.523967,1.320691 1.422191,2.389931 2.542554,3.311918 0.260771,0.215208 0.497401,0.455334 0.746105,0.681874 0.185924,0.169895 0.212483,0.337529 0.113487,0.579917 -0.280091,0.688667 -0.181095,1.354673 0.282509,1.952722 0.181088,0.233333 0.398399,0.441741 0.618127,0.645619 6.280325,5.896668 12.56306,11.788807 18.845798,17.683208 8.098498,7.597933 16.199415,15.195866 24.295502,22.798332 0.415307,0.389642 0.859591,0.72264 1.400453,0.940112 1.185562,0.47572 2.368705,0.955973 3.551849,1.436225 0.424964,0.172165 0.84269,0.353393 1.267654,0.525558 1.149339,0.459866 2.303506,0.9084 3.448024,1.37732 0.777491,0.317151 1.535671,0.672805 2.313163,0.985424 0.917537,0.369248 1.849566,0.711316 2.771938,1.06924 0.924783,0.357924 1.854402,0.709048 2.767104,1.089626 0.601231,0.249184 1.171076,0.17896 1.728841,-0.07022 0.661595,-0.2945 1.139681,-0.777015 1.262825,-1.458882 0.101416,-0.555 0.0028,-1.107745 -0.260771,-1.640102 -0.420144,-0.849501 -0.80164,-1.71712 -1.190388,-2.580215 -0.434622,-0.962772 -0.857176,-1.932333 -1.296632,-2.892838 -0.540869,-1.177975 -1.098632,-2.34915 -1.6395,-3.527125 -0.350112,-0.763421 -0.67367,-1.5359 -1.023779,-2.29932 -0.403235,-0.878951 -0.837862,-1.744301 -1.224195,-2.630052 -0.383921,-0.878949 -0.888567,-1.649165 -1.62018,-2.333293 C 54.022756,60.970546 39.825026,47.639046 25.620052,34.312084 25.335133,34.044771 25.05746,33.74122 24.714589,33.555461 c -0.615724,-0.333005 -1.277317,-0.622968 -2.016178,-0.296762 -0.316312,0.140453 -0.54569,0.04303 -0.772663,-0.174427 -0.511891,-0.493847 -1.018957,-0.992223 -1.559818,-1.458875 -0.86925,-0.749828 -1.803688,-1.359204 -2.996495,-1.646897 -0.724375,-0.174434 -1.424601,-0.267313 -2.378361,-0.276376 -1.13002,-0.03401 -2.412165,0.228802 -3.56875,0.9152 z m 51.556112,44.867223 c -0.410481,0.371517 -0.787157,0.697721 -1.149341,1.037521 -1.354582,1.264062 -2.70433,2.532647 -4.051665,3.803501 -0.161776,0.15404 -0.304239,0.326207 -0.453942,0.489309 -0.246286,0.267313 -0.451528,0.285432 -0.734031,0.05662 -0.08693,-0.07023 -0.164193,-0.15178 -0.246294,-0.228798 C 43.483115,68.577529 30.623067,56.512351 17.763013,44.447174 c -0.01447,-0.01359 -0.02655,-0.02491 -0.04108,-0.03851 -0.509477,-0.44401 -0.552944,-0.588988 0.05071,-1.032999 0.724375,-0.53235 1.347331,-1.189299 2.006512,-1.796411 0.67367,-0.620699 1.352167,-1.239136 2.008932,-1.875698 0.480499,-0.46439 0.9272,-0.958229 1.453578,-1.506442 13.243979,12.429891 26.478292,24.848453 39.736746,37.28741 z m 3.143777,3.726478 c 0.734033,1.63104 1.439093,3.271143 2.190028,4.893121 0.473259,1.026198 1.009293,2.025208 1.5067,3.042349 0.04829,0.101939 0.08208,0.271837 0.02418,0.339799 -0.06037,0.07248 -0.236623,0.08155 -0.359766,0.08155 -0.08693,0 -0.176259,-0.06342 -0.263188,-0.101938 -0.924783,-0.398705 -1.844745,-0.806458 -2.774356,-1.193831 -1.122774,-0.466659 -2.252801,-0.919731 -3.382827,-1.375059 -0.511885,-0.206146 -1.031024,-0.400966 -1.545328,-0.602581 -0.142462,-0.0544 -0.289746,-0.09967 -0.427381,-0.16311 -0.601232,-0.283162 -0.603643,-0.453065 -0.09658,-0.858556 0.482916,-0.385105 0.929619,-0.808726 1.381142,-1.227812 0.7944,-0.736234 1.586377,-1.477 2.368704,-2.22456 0.241457,-0.231063 0.45153,-0.493845 0.680914,-0.738502 0.09658,-0.104204 0.207653,-0.197078 0.367012,-0.346593 0.132795,0.192553 0.260771,0.321674 0.330796,0.475722 z M 16.669208,34.284896 c 0.695399,0.539152 1.34492,1.130401 1.99203,1.721657 0.284918,0.260513 0.243868,0.398698 -0.01214,0.629762 -0.804057,0.72491 -1.600861,1.456607 -2.395263,2.192841 -0.243869,0.22654 -0.466014,0.475721 -0.709883,0.704523 -0.239048,0.222001 -0.437038,0.251451 -0.64711,0.03851 -0.664005,-0.672805 -1.354576,-1.329754 -1.948569,-2.054657 -0.772662,-0.946918 -0.386332,-2.122625 0.311485,-2.879245 0.507065,-0.550477 1.204875,-0.740767 1.948569,-0.808727 0.531205,0.04079 1.059993,0.142723 1.460816,0.455333 z m 40.78708,16.190352 c -1.139677,0 -2.279358,-0.002 -3.419042,0.002 -0.562599,0.002 -0.574672,0.01359 -0.574672,0.559538 -0.0028,1.014867 -0.0028,2.029738 0,3.044604 0,0.108745 -0.0048,0.219739 0.0169,0.32395 0.04346,0.219733 0.166605,0.351123 0.432211,0.346592 0.4805,-0.0091 0.963417,0.002 1.443921,0.002 12.514767,0 25.029533,0.002 37.541882,-0.002 1.2749,0 2.547382,-0.0204 3.822281,-0.03622 0.548108,-0.0068 0.620545,-0.07477 0.62538,-0.611644 0.0072,-0.958235 0.0028,-1.918741 0.0028,-2.876976 0,-0.749821 0,-0.752091 -0.784737,-0.752091 -7.048154,0 -14.098734,0 -21.146888,0 -5.988161,0 -11.973903,0 -17.959647,0 z m 38.886807,-4.45818 c 0.154537,0 0.309068,0.0068 0.463605,-0.002 0.408062,-0.0204 0.531205,-0.113262 0.536032,-0.482514 0.01215,-1.066972 0.01215,-2.13395 0,-3.203184 -0.0048,-0.382842 -0.224555,-0.539151 -0.637452,-0.511964 -0.422547,0.0272 -0.842684,0.06342 -1.265237,0.06342 -13.516815,0.002 -27.033636,0.002 -40.550449,0 -0.32597,0 -0.651939,-0.03172 -0.975491,-0.05662 -0.311484,-0.02263 -0.412896,0.04981 -0.449112,0.353392 -0.012,0.106467 -0.0048,0.217471 -0.0048,0.326205 0,0.924256 0,1.848519 0,2.772774 0,0.126859 -0.0097,0.255982 0.0097,0.380572 0.03137,0.224271 0.159359,0.360194 0.422548,0.357925 0.381503,-0.002 0.765424,0.002 1.146928,0.002 6.758407,0 13.516822,0 20.275222,0 7.009528,0 14.019049,0 21.028579,0 z M 62.761118,60.044021 c 0,0.903869 0.03864,1.807737 0.0027,2.709344 -0.02173,0.52782 0.02656,0.638824 0.603642,0.661479 0.135224,0.0046 0.270442,0 0.405652,0 3.204149,0 6.408297,0 9.612446,0 7.70251,0 15.407431,0 23.109941,0 0.173848,0 0.350116,0.01132 0.521549,-0.0091 0.236629,-0.02942 0.376674,-0.142722 0.359773,-0.400966 -0.01935,-0.287701 0.0048,-0.577664 0,-0.865364 -0.0097,-0.833639 -0.0097,-1.665014 -0.0362,-2.496397 -0.01215,-0.371518 -0.15453,-0.471184 -0.552942,-0.46439 -0.347693,0.0068 -0.692981,0.03172 -1.040681,0.03172 -3.742599,0.002 -7.48761,0.002 -11.23021,0.002 -4.034764,0 -8.067111,0.002 -12.101876,-0.002 -1.291802,-0.002 -2.586008,-0.02942 -3.87781,-0.03172 -1.755405,-0.0046 -3.510805,0.002 -5.266197,0.0068 -0.130392,0 -0.263195,0.03401 -0.463603,0.06342 -0.01934,0.269575 -0.0459,0.532351 -0.0459,0.795132 z m 25.461749,-41.98572 c -0.01215,2.315176 -0.02174,4.628078 -0.03137,6.943253 0,0.108732 0.01215,0.217477 0.01215,0.326206 0.0048,1.354671 0.0048,2.709342 0.0097,4.066276 0.0027,1.048854 0.0048,2.097707 0.01934,3.146554 0.0048,0.328473 0.101417,0.41229 0.456352,0.425884 0.519139,0.0204 1.040688,0.03401 1.562236,0.03171 1.484964,-0.002 2.967518,-0.02263 4.452484,-0.0204 2.506331,0.002 5.01508,0.02269 7.521411,0.02491 0.45878,0 0.91996,-0.07024 1.37631,-0.05891 0.58916,0.01359 0.69298,-0.04303 0.69541,-0.577664 0.007,-0.97636 0.004,-1.950451 0,-2.926813 -0.002,-0.634293 -0.0942,-0.699985 -0.79441,-0.613905 -0.0773,0.0091 -0.15452,0.01359 -0.23179,0.01359 -3.303141,0 -6.603879,0.002 -9.907023,-0.002 -0.502236,0 -0.635036,-0.142716 -0.620545,-0.632024 0.01936,-0.577663 0.07244,-1.155326 0.07485,-1.73072 0.0097,-2.319708 0.0072,-4.63714 0,-6.956848 0,-0.342061 -0.07485,-0.684129 -0.06274,-1.023928 0.01936,-0.555006 0.0048,-0.595781 -0.557763,-0.59805 -1.159003,-0.0046 -2.317999,-0.002 -3.477001,0 -0.149702,0 -0.296993,0.0272 -0.446695,0.04303 -0.0362,0.08835 -0.05074,0.104204 -0.05074,0.120061 z M 73.088282,67.981754 c -0.212482,0 -0.424964,-0.0068 -0.637453,-0.0091 -0.231796,-0.002 -0.359774,0.09514 -0.362185,0.323951 0,1.103214 0.0028,2.208696 -0.01215,3.311917 -0.0048,0.294487 0.149702,0.43494 0.427382,0.484778 0.130393,0.02269 0.268016,0.01812 0.403234,0.01812 7.625246,0 15.252901,0 22.878146,0 0.323551,0 0.64952,-0.0476 0.970661,-0.02942 0.427382,0.02269 0.579494,-0.06113 0.584329,-0.457604 0.012,-1.06697 0.012,-2.133942 0,-3.200913 -0.0048,-0.398705 -0.210072,-0.539151 -0.632624,-0.507433 -0.381498,0.02942 -0.765419,0.06343 -1.14934,0.06343 -3.706377,0.0046 -7.412756,0.002 -11.121552,0.002 -3.781232,0 -7.564882,0 -11.348524,0 z m 8.192664,21.955631 c -0.0027,1.139465 -0.0072,2.28119 0,3.420653 0.0028,0.419091 0.118318,0.514232 0.54328,0.518764 0.345288,0.002 0.692989,0.01812 1.038271,0.01812 5.172035,0.002 10.341647,0.002 15.513682,0 0.27042,0 0.54087,-0.01132 0.80887,-0.03851 0.40083,-0.04303 0.49983,-0.131392 0.51914,-0.514227 0.0386,-0.792871 0.0724,-1.588005 0.0724,-2.380869 0,-0.423617 -0.0773,-0.849501 -0.12072,-1.304835 -6.128209,0 -12.215365,0 -18.324252,0 -0.02418,0.110997 -0.05074,0.19482 -0.05074,0.280901 z"
   id="path931"
   style="stroke-width:0.233877" />
</svg>
