<svg id="Layer_1" data-name="Layer 1" xmlns="http://www.w3.org/2000/svg" viewBox="0 0 113.39 113.4"><title>quimica</title><path d="M87.33,92.52V80h1.83A1.83,1.83,0,0,0,91,78.18h0a1.83,1.83,0,0,0-1.83-1.83H70.87A1.83,1.83,0,0,0,69,78.18h0A1.83,1.83,0,0,0,70.87,80H72.7V92.52a17.8,17.8,0,0,0-3.45,2L58.06,74.06V65.38h1.83a1.83,1.83,0,0,0,1.83-1.83h0a1.83,1.83,0,0,0-1.83-1.83H58.06V56.23a1.83,1.83,0,0,0-1.83-1.83H54.4V48.91a1.83,1.83,0,0,0-1.83-1.83h-11a1.83,1.83,0,0,0-1.83,1.83V54.4H38a1.83,1.83,0,0,0-1.83,1.83v5.49H34.29a1.83,1.83,0,0,0-1.83,1.83h0a1.83,1.83,0,0,0,1.83,1.83h1.83v8.68L15.29,112.25a9.17,9.17,0,0,0-1.12,4.38v1.79a9.14,9.14,0,0,0,9.14,9.14H70.86a9.06,9.06,0,0,0,3.74-.82A18.28,18.28,0,0,0,87.33,92.52ZM83.67,80v3.66H76.35V80ZM75.13,95.49a1.83,1.83,0,0,0,1.22-1.72V87.33h7.32v6.44a1.82,1.82,0,0,0,1.22,1.72,14.63,14.63,0,0,1,9.25,10.14,5.46,5.46,0,0,0-3.69,1.59l-1.51,1.51a1.84,1.84,0,0,1-1.29.54H87a1.84,1.84,0,0,1-1.29-.54l-1.51-1.51a5.44,5.44,0,0,0-3.88-1.61H79.7a5.44,5.44,0,0,0-3.88,1.61l-1.51,1.51a1.84,1.84,0,0,1-1.29.54h-.63a1.84,1.84,0,0,1-1.29-.54l-1.51-1.51a5.44,5.44,0,0,0-3.69-1.59,14.6,14.6,0,0,1,9.23-10.14ZM43.43,50.75h7.32v3.66H43.43Zm-3.65,7.31H54.41v3.66H39.78ZM39.55,75.4a1.8,1.8,0,0,0,.22-.88V65.38H54.4v9.14a1.91,1.91,0,0,0,.22.88l6.52,11.95a5.42,5.42,0,0,0-3.62,1.58L56,90.44a1.84,1.84,0,0,1-1.29.54h-.63a1.84,1.84,0,0,1-1.29-.54l-1.51-1.51a5.44,5.44,0,0,0-3.88-1.61h-.63a5.44,5.44,0,0,0-3.88,1.61l-1.51,1.51A1.84,1.84,0,0,1,40.1,91h-.63a1.84,1.84,0,0,1-1.29-.54l-1.51-1.51a5.42,5.42,0,0,0-3.62-1.58ZM23.32,123.9a5.5,5.5,0,0,1-5.49-5.49v-1.79A5.5,5.5,0,0,1,18.5,114L31.05,91h1.72a1.84,1.84,0,0,1,1.29.54L35.57,93a5.44,5.44,0,0,0,3.88,1.61h.63A5.44,5.44,0,0,0,44,93l1.51-1.51A1.84,1.84,0,0,1,46.76,91h.63a1.84,1.84,0,0,1,1.29.54L50.19,93a5.44,5.44,0,0,0,3.88,1.61h.63A5.44,5.44,0,0,0,58.58,93l1.51-1.51A1.84,1.84,0,0,1,61.38,91H63.1l3.31,6.07a18.2,18.2,0,0,0,2.64,26.85Zm56.69,0a14.64,14.64,0,0,1-14.63-14.63h.31a1.84,1.84,0,0,1,1.29.54l1.51,1.51a5.44,5.44,0,0,0,3.88,1.61H73a5.44,5.44,0,0,0,3.88-1.61l1.51-1.51a1.84,1.84,0,0,1,1.29-.54h.63a1.84,1.84,0,0,1,1.29.54l1.51,1.51A5.44,5.44,0,0,0,87,112.93h.63a5.44,5.44,0,0,0,3.88-1.61L93,109.81a1.84,1.84,0,0,1,1.29-.54h.31A14.6,14.6,0,0,1,80,123.9Z" transform="translate(-14.17 -14.17)"/><path d="M27,109.27a5.49,5.49,0,1,0,5.49,5.49A5.5,5.5,0,0,0,27,109.27Zm0,7.32a1.83,1.83,0,1,1,1.83-1.83A1.83,1.83,0,0,1,27,116.59Z" transform="translate(-14.17 -14.17)"/><path d="M41.61,105.61a5.49,5.49,0,1,0,5.49,5.49,5.5,5.5,0,0,0-5.49-5.49Zm0,7.32a1.83,1.83,0,1,1,1.83-1.83,1.83,1.83,0,0,1-1.83,1.83Z" transform="translate(-14.17 -14.17)"/><path d="M54.41,98.3a5.49,5.49,0,1,0,5.49,5.49,5.5,5.5,0,0,0-5.49-5.49Zm0,7.31a1.83,1.83,0,1,1,1.83-1.83,1.83,1.83,0,0,1-1.83,1.83Z" transform="translate(-14.17 -14.17)"/><rect x="42.07" y="102.42" width="3.66" height="3.66"/><rect x="38.41" y="98.76" width="3.66" height="3.66"/><rect x="34.75" y="102.42" width="3.66" height="3.66"/><rect x="20.12" y="85.96" width="3.66" height="3.66"/><path d="M125.73,39.78h-25.6a1.83,1.83,0,0,0-1.83,1.83v7.32a1.83,1.83,0,0,0,1.83,1.83H102V116.6a11,11,0,1,0,21.94,0V50.75h1.83a1.83,1.83,0,0,0,1.83-1.83V41.6a1.83,1.83,0,0,0-1.83-1.82Zm-12.8,84.12a7.33,7.33,0,0,1-7.32-7.32V76.35h14.63v40.23a7.32,7.32,0,0,1-7.31,7.32Zm7.31-51.21H105.61V50.75h14.63Zm3.66-25.6H102V43.43h22Z" transform="translate(-14.17 -14.17)"/><rect x="95.1" y="100.59" width="3.66" height="3.66"/><rect x="98.76" y="93.27" width="3.66" height="3.66"/><rect x="95.1" y="85.96" width="3.66" height="3.66"/><rect x="98.76" y="78.64" width="3.66" height="3.66"/><rect x="95.1" y="71.33" width="3.66" height="3.66"/><path d="M43.43,34.29a1.83,1.83,0,0,1,1.83-1.83h5.49V41.6a1.83,1.83,0,0,0,1.83,1.83h0a1.83,1.83,0,0,0,1.83-1.83V32.46H72.7v38.4a1.83,1.83,0,0,0,1.83,1.83h0a1.83,1.83,0,0,0,1.83-1.83V32.46h5.49a1.83,1.83,0,0,1,1.83,1.83V70.87a1.83,1.83,0,0,0,1.83,1.83h0a1.83,1.83,0,0,0,1.83-1.83V34.29a5.49,5.49,0,0,0-5.49-5.49H76.36V27a1.83,1.83,0,0,1,1.83-1.83h22A1.83,1.83,0,0,1,102,27v7.32a1.83,1.83,0,0,0,1.83,1.83h0a1.83,1.83,0,0,0,1.83-1.83V27a5.49,5.49,0,0,0-5.49-5.49h-22A5.49,5.49,0,0,0,72.69,27V28.8H54.41V19.66a1.83,1.83,0,0,1,1.83-1.83h62.18a1.83,1.83,0,0,1,1.83,1.83V34.29a1.83,1.83,0,0,0,1.83,1.83h0a1.83,1.83,0,0,0,1.83-1.83V19.66a5.49,5.49,0,0,0-5.49-5.49H56.24a5.49,5.49,0,0,0-5.49,5.49V28.8H45.26a5.49,5.49,0,0,0-5.49,5.49v7.32a1.83,1.83,0,0,0,1.83,1.83h0a1.83,1.83,0,0,0,1.83-1.83Z" transform="translate(-14.17 -14.17)"/><path d="M25.15,41.61a5.49,5.49,0,1,0,5.49-5.49,5.5,5.5,0,0,0-5.49,5.49Zm7.31,0a1.83,1.83,0,1,1-1.83-1.83,1.83,1.83,0,0,1,1.83,1.83Z" transform="translate(-14.17 -14.17)"/><path d="M23.32,32.46a9.14,9.14,0,1,0-9.14-9.14,9.15,9.15,0,0,0,9.14,9.14Zm0-14.63a5.49,5.49,0,1,1-5.49,5.49,5.5,5.5,0,0,1,5.49-5.49Z" transform="translate(-14.17 -14.17)"/><path d="M21.49,65.38a7.32,7.32,0,1,0-7.32-7.32,7.33,7.33,0,0,0,7.32,7.32Zm0-11a3.66,3.66,0,1,1-3.66,3.66,3.66,3.66,0,0,1,3.66-3.66Z" transform="translate(-14.17 -14.17)"/></svg>