<?xml version="1.0" encoding="utf-8"?>
<!-- Generator: Adobe Illustrator 23.0.0, SVG Export Plug-In . SVG Version: 6.00 Build 0)  -->
<svg version="1.1" id="Layer_1" xmlns="http://www.w3.org/2000/svg" xmlns:xlink="http://www.w3.org/1999/xlink" x="0px" y="0px"
	 viewBox="0 0 141.73 141.73" style="enable-background:new 0 0 141.73 141.73;" xml:space="preserve">
<style type="text/css">
	.st0{fill:#FDD4BF;}
	.st1{clip-path:url(#SVGID_2_);}
	.st2{fill:#010101;}
	.st3{clip-path:url(#SVGID_4_);}
	.st4{fill:#FFFFFF;}
	.st5{clip-path:url(#SVGID_6_);}
	.st6{fill:#010101;stroke:#000000;stroke-width:2;stroke-miterlimit:10;}
	.st7{stroke:#000000;stroke-width:0.75;stroke-miterlimit:10;}
	.st8{clip-path:url(#SVGID_8_);stroke:#000000;stroke-width:0.75;stroke-miterlimit:10;}
	.st9{clip-path:url(#SVGID_8_);stroke:#000000;stroke-miterlimit:10;}
	.st10{clip-path:url(#SVGID_10_);}
	.st11{fill:#73B9E6;}
	.st12{clip-path:url(#SVGID_12_);}
	.st13{fill:#201113;}
	.st14{fill:none;}
	.st15{clip-path:url(#SVGID_14_);fill-rule:evenodd;clip-rule:evenodd;}
	.st16{fill-rule:evenodd;clip-rule:evenodd;}
	.st17{clip-path:url(#SVGID_16_);stroke:#000000;stroke-miterlimit:10;}
	.st18{stroke:#000000;stroke-miterlimit:10;}
	.st19{clip-path:url(#SVGID_18_);}
	.st20{fill:#FEE55B;stroke:#000000;stroke-miterlimit:10;}
	.st21{clip-path:url(#SVGID_20_);fill:#231F20;stroke:#000000;stroke-miterlimit:10;}
	.st22{fill:#231F20;stroke:#000000;stroke-miterlimit:10;}
	.st23{fill:#231F20;}
	.st24{fill:#E9E9E9;}
	.st25{clip-path:url(#SVGID_22_);}
	.st26{fill:#E6E7E8;}
	.st27{fill:#949A9B;}
	.st28{clip-path:url(#SVGID_24_);}
	.st29{clip-path:url(#SVGID_26_);}
	.st30{clip-path:url(#SVGID_28_);stroke:#000000;stroke-miterlimit:10;}
	.st31{fill-rule:evenodd;clip-rule:evenodd;fill:#A44424;}
	.st32{fill-rule:evenodd;clip-rule:evenodd;fill:#38A749;}
	.st33{fill-rule:evenodd;clip-rule:evenodd;fill:#CA3229;}
	.st34{fill-rule:evenodd;clip-rule:evenodd;fill:#EDBE2E;}
	.st35{fill-rule:evenodd;clip-rule:evenodd;fill:#1C76BC;}
	.st36{fill:#204583;}
</style>
<g>
	<g>
		<defs>
			<rect id="SVGID_21_" x="10.39" y="14.17" width="120.94" height="113.39"/>
		</defs>
		<clipPath id="SVGID_2_">
			<use xlink:href="#SVGID_21_"  style="overflow:visible;"/>
		</clipPath>
		<path class="st1" d="M17.54,76.79c3.94,0,7.15-3.24,7.15-7.23c0-3.12-1.96-5.78-4.7-6.79V43.42l20.1,6.44v21.37
			c0.02,0.75,0.35,1.45,0.96,1.9c0.44,0.32,10.99,7.93,29.77,7.93c18.77,0,29.32-7.61,29.76-7.93c0.59-0.44,0.96-1.16,0.96-1.9
			V49.85l23.27-7.45c0.94-0.3,1.59-1.15,1.64-2.13c0.05-0.98-0.51-1.89-1.41-2.28L71.76,14.66c-0.6-0.26-1.29-0.26-1.89,0
			L16.59,37.99c-0.9,0.39-1.46,1.3-1.41,2.28c0.01,0.17,0.08,22.44,0.08,22.44c-2.82,0.96-4.86,3.67-4.86,6.85
			C10.39,73.55,13.6,76.79,17.54,76.79L17.54,76.79z M51.46,44.11c13.94-5.12,32.48-4.61,45.36,3.12v19.88
			c-8.3-4.19-17.81-5.85-27.05-5.71c-8.55,0.13-17.28,1.83-24.95,5.71V47.23C46.9,45.97,49.17,44.95,51.46,44.11L51.46,44.11z
			 M70.82,76.33c-11.33,0-19.43-3.04-23.64-5.12c14.23-7.05,33.04-7,47.26,0.01C90.22,73.3,82.13,76.33,70.82,76.33L70.82,76.33z
			 M70.81,19.4l46.6,20.41l-16.09,5.15c-0.19-0.41-0.5-0.74-0.86-1c-8.29-5.85-19.77-7.85-29.65-7.85c-9.96,0-21.25,1.99-29.59,7.81
			c-0.39,0.27-0.72,0.6-0.92,1.04l-16.09-5.15L70.81,19.4z M17.54,67.06c1.34,0,2.42,1.12,2.42,2.5c0,1.38-1.09,2.5-2.42,2.5
			c-1.33,0-2.42-1.12-2.42-2.5C15.12,68.18,16.21,67.06,17.54,67.06L17.54,67.06z M17.54,67.06"/>
		<path class="st1" d="M126.66,112.17l-3.19-0.86c0.25-2.56,1.04-4.74,2.36-6.5c1.15-1.53,2.32-2.21,2.45-2.28
			c0.89-0.42,1.4-1.35,1.31-2.34c-0.09-0.99-0.82-1.81-1.78-2.06l-12.16-3.18c-1.26-0.33-2.55,0.42-2.88,1.69
			c-0.33,1.26,0.43,2.55,1.69,2.88l7.9,2.07c-1.49,1.86-2.97,4.6-3.49,8.48l-30.13-8.13c-5.26-1.42-10.8,2.7-10.8,8.19
			c0,0.71-0.3,1.39-0.85,1.92c-0.55,0.53-1.29,0.84-2.04,0.84h-1.82v-9.91c0-4.7,2.99-8.89,7.45-10.41c2.06-0.7,4.26-0.78,6.36-0.23
			l7.29,1.91c1.26,0.33,2.55-0.43,2.88-1.69c0.33-1.26-0.42-2.55-1.69-2.88l-7.28-1.91c-3.01-0.79-6.15-0.68-9.09,0.33
			c-3.53,1.2-6.41,3.58-8.28,6.6c-1.87-3.02-4.75-5.39-8.28-6.59c-2.94-1.01-6.09-1.12-9.09-0.33L13.89,98.15
			c-0.96,0.25-1.69,1.07-1.78,2.06c-0.09,0.99,0.42,1.91,1.31,2.33c0.13,0.07,1.3,0.75,2.45,2.29c1.31,1.76,2.1,3.94,2.36,6.49
			l-3.15,0.85c-1.6,0.41-2.95,1.42-3.8,2.84c-0.85,1.43-1.09,3.1-0.69,4.71l0.47,1.87c0.41,1.61,1.42,2.97,2.85,3.82
			c1.43,0.85,3.1,1.09,4.71,0.69c0.01,0,0.03-0.01,0.04-0.01l32.36-8.76c1.19,2.56,3.02,4.82,5.29,6.52
			c2.98,2.24,6.53,3.42,10.26,3.42h8.6c3.73,0,7.28-1.18,10.26-3.42c2.27-1.7,4.1-3.97,5.29-6.52l32.36,8.76
			c0.01,0,0.02,0.01,0.04,0.01c1.61,0.41,3.29,0.17,4.71-0.69c1.43-0.85,2.44-2.21,2.85-3.82l0.47-1.87
			c0.41-1.61,0.16-3.29-0.69-4.71C129.61,113.59,128.26,112.59,126.66,112.17L126.66,112.17z M19.34,101.61l35.36-9.26
			c2.1-0.55,4.3-0.47,6.36,0.23c4.45,1.52,7.44,5.71,7.44,10.41v9.91h-1.81c-1.53,0-2.89-1.29-2.89-2.77c0-5.5-5.58-9.57-10.8-8.19
			l-30.16,8.14C22.31,106.21,20.83,103.46,19.34,101.61L19.34,101.61z M126.57,118.57l-0.47,1.87c-0.31,0.86-0.91,1.22-1.81,1.09
			l-34.38-9.31c-1.23-0.33-2.5,0.37-2.87,1.58c-1.59,5.15-6.47,8.75-11.86,8.75h-8.6c-5.39,0-10.27-3.6-11.86-8.75
			c-0.31-1.01-1.24-1.66-2.26-1.66c-0.2,0-0.41,0.03-0.62,0.08l-34.38,9.31c-0.9,0.13-1.5-0.23-1.81-1.09l-0.47-1.87
			c-0.19-0.76,0.38-1.63,1.12-1.83l38.12-10.26c2.37-0.59,4.65,1.32,4.67,3.73c0.04,3.95,3.47,7.42,7.61,7.42h8.36
			c1.99,0,3.88-0.77,5.32-2.17c1.47-1.43,2.29-3.32,2.28-5.32c0-2.36,2.35-4.23,4.67-3.65l9.06,2.44l29.06,7.82
			C126.19,116.94,126.76,117.81,126.57,118.57L126.57,118.57z M126.57,118.57"/>
	</g>
	<path d="M107.24,93.37c-0.72-1.07-2.2-1.36-3.28-0.65c-1.07,0.71-1.36,2.21-0.65,3.27c0.71,1.07,2.21,1.37,3.28,0.65
		C107.66,95.93,107.95,94.44,107.24,93.37L107.24,93.37z M107.24,93.37"/>
</g>
</svg>
