<svg id="Layer_1" data-name="Layer 1" xmlns="http://www.w3.org/2000/svg" xmlns:xlink="http://www.w3.org/1999/xlink" viewBox="0 0 125.44 113.04"><defs><style>.cls-1{fill:none;}.cls-2{clip-path:url(#clip-path);}</style><clipPath id="clip-path" transform="translate(-8.14 -14.41)"><rect class="cls-1" x="8.16" y="14.17" width="125.41" height="113.39"/></clipPath></defs><title>sociologia</title><g class="cls-2"><path d="M122.35,102.57l-5.06-1.76a12.24,12.24,0,0,0,4.66-9.6V87.5a12.46,12.46,0,0,0-.24-2.44,1.86,1.86,0,1,0-3.64.74,8.83,8.83,0,0,1,.17,1.7v3.71a8.53,8.53,0,0,1-17.06,0V87.5a8.53,8.53,0,0,1,12.88-7.34A1.85,1.85,0,0,0,116,77a12.09,12.09,0,0,0-4.39-1.56V53.12a16.72,16.72,0,0,0-16.7-16.7H87.68l5.65-3.26A1.85,1.85,0,0,0,94,30.63l-5-8.57a1.81,1.81,0,0,0-1.13-.86,1.84,1.84,0,0,0-1.41.19l-5.86,3.39a17.23,17.23,0,0,0-3-1.74V16.27a1.86,1.86,0,0,0-1.86-1.86H65.91a1.86,1.86,0,0,0-1.86,1.86V23a16.05,16.05,0,0,0-3,1.74l-5.86-3.39a1.86,1.86,0,0,0-2.54.67L47.7,30.63a1.85,1.85,0,0,0,.68,2.53L54,36.42H46.85a16.72,16.72,0,0,0-16.7,16.7V75.4A12.28,12.28,0,0,0,25.76,77a1.85,1.85,0,0,0,1.89,3.19,8.53,8.53,0,0,1,12.88,7.34V91.2a8.53,8.53,0,0,1-17.06,0V87.5a8.75,8.75,0,0,1,.17-1.7A1.86,1.86,0,1,0,20,85.06a12.46,12.46,0,0,0-.24,2.44v3.71a12.2,12.2,0,0,0,4.66,9.6l-5.06,1.76A16.71,16.71,0,0,0,8.14,118.34v7.25A1.86,1.86,0,0,0,10,127.45H61.1a1.86,1.86,0,0,0,0-3.71H50.71v-5.4a13,13,0,0,1,8.73-12.27l2.17-.75,7.66,13.28a1.84,1.84,0,0,0,1.61.93,1.87,1.87,0,0,0,1.61-.93l7.66-13.28,2.17.75a13,13,0,0,1,8.73,12.27v5.4H69.77a1.86,1.86,0,0,0,0,3.71h62a1.86,1.86,0,0,0,1.86-1.86v-7.25a16.73,16.73,0,0,0-11.23-15.77Zm-8.76.89,1.8.63-5.7,9.88L104,104.09l1.8-.63ZM55,25.52l5.34,3.09a1.86,1.86,0,0,0,2.13-.2A12.93,12.93,0,0,1,66.53,26a1.86,1.86,0,0,0,1.24-1.75V18.11H74v6.17A1.86,1.86,0,0,0,75.19,26a12.85,12.85,0,0,1,4.11,2.38,1.86,1.86,0,0,0,2.13.2l5.34-3.09,3.09,5.36L84.52,34a1.86,1.86,0,0,0-.9,1.94,12.88,12.88,0,0,1,0,4.74,1.86,1.86,0,0,0,.9,1.94l5.34,3.08L86.77,51l-5.34-3.09a1.86,1.86,0,0,0-2.13.2,12.93,12.93,0,0,1-4.11,2.38A1.86,1.86,0,0,0,74,52.26v6.17H67.77V52.26a1.86,1.86,0,0,0-1.24-1.75,13,13,0,0,1-4.11-2.38,1.86,1.86,0,0,0-2.13-.2L55,51l-3.09-5.36,5.34-3.08a1.86,1.86,0,0,0,.9-1.94,12.88,12.88,0,0,1,0-4.74A1.86,1.86,0,0,0,57.2,34l-5.34-3.08ZM70.87,99.75a8.54,8.54,0,0,1-8.53-8.53V87.5a8.53,8.53,0,0,1,17.06,0v3.71a8.55,8.55,0,0,1-8.53,8.54Zm-34.95,3.71,1.8.63L32,114l-5.69-9.88,1.8-.63ZM11.87,123.74v-5.4a13,13,0,0,1,8.73-12.27l2.17-.75,7.66,13.28a1.84,1.84,0,0,0,1.61.93,1.87,1.87,0,0,0,1.61-.93l7.66-13.28,2.17.75a12.87,12.87,0,0,1,5.74,4A16.69,16.69,0,0,0,47,118.33v5.4H11.87Zm46.35-21.17A16.65,16.65,0,0,0,51.46,107a16.61,16.61,0,0,0-6.77-4.43l-5.06-1.76a12.24,12.24,0,0,0,4.66-9.6V87.5A12.25,12.25,0,0,0,33.9,75.4V53.12a13,13,0,0,1,13-13h7.18l-5.65,3.26a1.85,1.85,0,0,0-.68,2.53l4.95,8.57a1.81,1.81,0,0,0,1.13.86,1.83,1.83,0,0,0,1.41-.19l5.86-3.38a17.23,17.23,0,0,0,3,1.74v6.77A1.86,1.86,0,0,0,66,62.15H69V75.4A12.27,12.27,0,0,0,58.65,87.5v3.71a12.2,12.2,0,0,0,4.66,9.6ZM70.87,114l-5.69-9.88,1.8-.63h7.78l1.8.63Zm12.65-11.39-5.06-1.76a12.24,12.24,0,0,0,4.66-9.6V87.5A12.25,12.25,0,0,0,72.73,75.4V62.15h3.09a1.86,1.86,0,0,0,1.86-1.86V53.52a16.05,16.05,0,0,0,3-1.74l5.86,3.38a1.86,1.86,0,0,0,2.54-.67l5-8.57a1.85,1.85,0,0,0-.68-2.53L87.7,40.13h7.18a13,13,0,0,1,13,13V75.4A12.27,12.27,0,0,0,97.48,87.5v3.71a12.2,12.2,0,0,0,4.66,9.6l-5.06,1.76A16.59,16.59,0,0,0,90.31,107a17,17,0,0,0-6.79-4.42Zm46.34,21.17H94.74v-5.4a16.53,16.53,0,0,0-2.21-8.28,12.79,12.79,0,0,1,5.74-4l2.17-.75,7.66,13.28a1.86,1.86,0,0,0,3.22,0L119,105.33l2.17.75a13,13,0,0,1,8.73,12.27v5.39Z" transform="translate(-8.14 -14.41)"/></g><path d="M70.87,45.08a6.8,6.8,0,1,0-6.8-6.8,6.81,6.81,0,0,0,6.8,6.8Zm0-9.9a3.09,3.09,0,1,1-3.09,3.09,3.09,3.09,0,0,1,3.09-3.09Z" transform="translate(-8.14 -14.41)"/></svg>