<?xml version="1.0" encoding="UTF-8" standalone="no"?>
<svg
   id="Layer_1"
   data-name="Layer 1"
   viewBox="0 0 125 113"
   version="1.1"
   sodipodi:docname="sociologia.svg"
   inkscape:version="1.2 (1:1.2.1+202207142221+cd75a1ee6d)"
   width="125"
   height="113"
   xmlns:inkscape="http://www.inkscape.org/namespaces/inkscape"
   xmlns:sodipodi="http://sodipodi.sourceforge.net/DTD/sodipodi-0.dtd"
   xmlns="http://www.w3.org/2000/svg"
   xmlns:svg="http://www.w3.org/2000/svg"
   xmlns:rdf="http://www.w3.org/1999/02/22-rdf-syntax-ns#"
   xmlns:cc="http://creativecommons.org/ns#"
   xmlns:dc="http://purl.org/dc/elements/1.1/">
  <sodipodi:namedview
     id="namedview18"
     pagecolor="#ffffff"
     bordercolor="#000000"
     borderopacity="0.25"
     inkscape:showpageshadow="2"
     inkscape:pageopacity="0.0"
     inkscape:pagecheckerboard="0"
     inkscape:deskcolor="#d1d1d1"
     showgrid="false"
     inkscape:zoom="4.4674451"
     inkscape:cx="62.675644"
     inkscape:cy="38.500753"
     inkscape:window-width="1366"
     inkscape:window-height="671"
     inkscape:window-x="0"
     inkscape:window-y="27"
     inkscape:window-maximized="1"
     inkscape:current-layer="Layer_1" />
  <defs
     id="defs7">
    <style
       id="style2">.cls-1{fill:none;}.cls-2{clip-path:url(#clip-path);}</style>
    <clipPath
       id="clip-path"
       transform="translate(-8.14 -14.41)">
      <rect
         class="cls-1"
         x="8.1599998"
         y="14.17"
         width="125.41"
         height="113.39"
         id="rect4" />
    </clipPath>
  </defs>
  <title
     id="title9">sociologia</title>
  <g
     class="cls-2"
     clip-path="url(#clip-path)"
     id="g13"
     transform="translate(-4.432976,-7.168177)">
    <path
       d="m 122.35,102.57 -5.06,-1.76 a 12.24,12.24 0 0 0 4.66,-9.6 V 87.5 a 12.46,12.46 0 0 0 -0.24,-2.44 1.86,1.86 0 1 0 -3.64,0.74 8.83,8.83 0 0 1 0.17,1.7 v 3.71 a 8.53,8.53 0 0 1 -17.06,0 V 87.5 A 8.53,8.53 0 0 1 114.06,80.16 1.8539957,1.8539957 0 0 0 116,77 12.09,12.09 0 0 0 111.61,75.44 V 53.12 a 16.72,16.72 0 0 0 -16.7,-16.7 h -7.23 l 5.65,-3.26 A 1.85,1.85 0 0 0 94,30.63 l -5,-8.57 a 1.81,1.81 0 0 0 -1.13,-0.86 1.84,1.84 0 0 0 -1.41,0.19 l -5.86,3.39 a 17.23,17.23 0 0 0 -3,-1.74 v -6.77 a 1.86,1.86 0 0 0 -1.86,-1.86 h -9.83 a 1.86,1.86 0 0 0 -1.86,1.86 V 23 a 16.05,16.05 0 0 0 -3,1.74 l -5.86,-3.39 a 1.86,1.86 0 0 0 -2.54,0.67 l -4.95,8.61 a 1.85,1.85 0 0 0 0.68,2.53 L 54,36.42 h -7.15 a 16.72,16.72 0 0 0 -16.7,16.7 V 75.4 a 12.28,12.28 0 0 0 -4.39,1.6 1.8539283,1.8539283 0 0 0 1.89,3.19 8.53,8.53 0 0 1 12.88,7.34 v 3.67 a 8.53,8.53 0 0 1 -17.06,0 V 87.5 A 8.75,8.75 0 0 1 23.64,85.8 1.86,1.86 0 1 0 20,85.06 12.46,12.46 0 0 0 19.76,87.5 v 3.71 a 12.2,12.2 0 0 0 4.66,9.6 l -5.06,1.76 A 16.71,16.71 0 0 0 8.14,118.34 v 7.25 a 1.86,1.86 0 0 0 1.86,1.86 h 51.1 a 1.86,1.86 0 0 0 0,-3.71 H 50.71 v -5.4 a 13,13 0 0 1 8.73,-12.27 l 2.17,-0.75 7.66,13.28 a 1.84,1.84 0 0 0 1.61,0.93 1.87,1.87 0 0 0 1.61,-0.93 l 7.66,-13.28 2.17,0.75 a 13,13 0 0 1 8.73,12.27 v 5.4 H 69.77 a 1.86,1.86 0 0 0 0,3.71 h 62 a 1.86,1.86 0 0 0 1.86,-1.86 v -7.25 A 16.73,16.73 0 0 0 122.4,102.57 Z m -8.76,0.89 1.8,0.63 -5.7,9.88 -5.69,-9.88 1.8,-0.63 z M 55,25.52 l 5.34,3.09 a 1.86,1.86 0 0 0 2.13,-0.2 12.93,12.93 0 0 1 4.06,-2.41 1.86,1.86 0 0 0 1.24,-1.75 V 18.11 H 74 v 6.17 a 1.86,1.86 0 0 0 1.19,1.72 12.85,12.85 0 0 1 4.11,2.38 1.86,1.86 0 0 0 2.13,0.2 l 5.34,-3.09 3.09,5.36 -5.34,3.15 a 1.86,1.86 0 0 0 -0.9,1.94 12.88,12.88 0 0 1 0,4.74 1.86,1.86 0 0 0 0.9,1.94 l 5.34,3.08 -3.09,5.3 -5.34,-3.09 a 1.86,1.86 0 0 0 -2.13,0.2 12.93,12.93 0 0 1 -4.11,2.38 1.86,1.86 0 0 0 -1.19,1.77 v 6.17 h -6.23 v -6.17 a 1.86,1.86 0 0 0 -1.24,-1.75 13,13 0 0 1 -4.11,-2.38 1.86,1.86 0 0 0 -2.13,-0.2 L 55,51 51.91,45.64 57.25,42.56 a 1.86,1.86 0 0 0 0.9,-1.94 12.88,12.88 0 0 1 0,-4.74 A 1.86,1.86 0 0 0 57.2,34 L 51.86,30.92 Z M 70.87,99.75 A 8.54,8.54 0 0 1 62.34,91.22 V 87.5 a 8.53,8.53 0 0 1 17.06,0 v 3.71 a 8.55,8.55 0 0 1 -8.53,8.54 z m -34.95,3.71 1.8,0.63 -5.72,9.91 -5.69,-9.88 1.8,-0.63 z m -24.05,20.28 v -5.4 a 13,13 0 0 1 8.73,-12.27 l 2.17,-0.75 7.66,13.28 a 1.84,1.84 0 0 0 1.61,0.93 1.87,1.87 0 0 0 1.61,-0.93 l 7.66,-13.28 2.17,0.75 a 12.87,12.87 0 0 1 5.74,4 16.69,16.69 0 0 0 -2.22,8.26 v 5.4 H 11.87 Z m 46.35,-21.17 a 16.65,16.65 0 0 0 -6.76,4.43 16.61,16.61 0 0 0 -6.77,-4.43 l -5.06,-1.76 a 12.24,12.24 0 0 0 4.66,-9.6 V 87.5 A 12.25,12.25 0 0 0 33.9,75.4 V 53.12 a 13,13 0 0 1 13,-13 h 7.18 l -5.65,3.26 a 1.85,1.85 0 0 0 -0.68,2.53 l 4.95,8.57 a 1.81,1.81 0 0 0 1.13,0.86 1.83,1.83 0 0 0 1.41,-0.19 l 5.86,-3.38 a 17.23,17.23 0 0 0 3,1.74 v 6.77 a 1.86,1.86 0 0 0 1.9,1.87 h 3 V 75.4 A 12.27,12.27 0 0 0 58.65,87.5 v 3.71 a 12.2,12.2 0 0 0 4.66,9.6 z m 12.65,11.43 -5.69,-9.88 1.8,-0.63 h 7.78 l 1.8,0.63 z m 12.65,-11.39 -5.06,-1.76 a 12.24,12.24 0 0 0 4.66,-9.6 V 87.5 A 12.25,12.25 0 0 0 72.73,75.4 V 62.15 h 3.09 a 1.86,1.86 0 0 0 1.86,-1.86 v -6.77 a 16.05,16.05 0 0 0 3,-1.74 l 5.86,3.38 a 1.86,1.86 0 0 0 2.54,-0.67 l 5,-8.57 A 1.85,1.85 0 0 0 93.4,43.39 l -5.7,-3.26 h 7.18 a 13,13 0 0 1 13,13 V 75.4 a 12.27,12.27 0 0 0 -10.4,12.1 v 3.71 a 12.2,12.2 0 0 0 4.66,9.6 l -5.06,1.76 a 16.59,16.59 0 0 0 -6.77,4.43 17,17 0 0 0 -6.79,-4.42 z m 46.34,21.17 H 94.74 v -5.4 a 16.53,16.53 0 0 0 -2.21,-8.28 12.79,12.79 0 0 1 5.74,-4 l 2.17,-0.75 7.66,13.28 a 1.86,1.86 0 0 0 3.22,0 l 7.68,-13.3 2.17,0.75 a 13,13 0 0 1 8.73,12.27 v 5.39 z"
       transform="translate(-8.14,-14.41)"
       id="path11" />
  </g>
  <path
     d="m 58.722506,23.090249 a 6.8,6.8 0 1 0 -6.8,-6.8 6.81,6.81 0 0 0 6.8,6.8 z m 0,-9.9 a 3.09,3.09 0 1 1 -3.09,3.09 3.09,3.09 0 0 1 3.09,-3.09 z"
     id="path15" />
  <metadata
     id="metadata188">
    <rdf:RDF>
      <cc:Work
         rdf:about="">
        <dc:title>sociologia</dc:title>
      </cc:Work>
    </rdf:RDF>
  </metadata>
</svg>
