<?xml version="1.0" encoding="UTF-8" standalone="no"?>
<!-- Generator: Adobe Illustrator 23.0.0, SVG Export Plug-In . SVG Version: 6.00 Build 0)  -->

<svg
   version="1.1"
   id="Camada_1"
   x="0px"
   y="0px"
   viewBox="0 0 124.99999 113"
   xml:space="preserve"
   sodipodi:docname="tecnologias-sociais-e-ambientais.svg"
   width="125"
   height="113"
   inkscape:version="1.2 (1:1.2.1+202207142221+cd75a1ee6d)"
   xmlns:inkscape="http://www.inkscape.org/namespaces/inkscape"
   xmlns:sodipodi="http://sodipodi.sourceforge.net/DTD/sodipodi-0.dtd"
   xmlns="http://www.w3.org/2000/svg"
   xmlns:svg="http://www.w3.org/2000/svg"><defs
   id="defs229" /><sodipodi:namedview
   id="namedview227"
   pagecolor="#ffffff"
   bordercolor="#000000"
   borderopacity="0.25"
   inkscape:showpageshadow="2"
   inkscape:pageopacity="0.0"
   inkscape:pagecheckerboard="0"
   inkscape:deskcolor="#d1d1d1"
   showgrid="false"
   inkscape:zoom="1.1996816"
   inkscape:cx="298.4125"
   inkscape:cy="21.672416"
   inkscape:window-width="1366"
   inkscape:window-height="671"
   inkscape:window-x="0"
   inkscape:window-y="27"
   inkscape:window-maximized="1"
   inkscape:current-layer="Camada_1" />
<path
   d="m 62.566942,53.301109 c -1.570595,-0.07314 -3.141198,-0.144204 -4.711803,-0.217311 -0.938271,-0.04468 -1.881089,-0.05684 -2.814834,-0.144203 -1.436888,-0.136071 -2.869238,-0.322917 -4.301589,-0.491488 -0.339957,-0.04062 -0.679914,-0.09139 -1.017602,-0.144195 -0.62099,-0.09748 -1.241971,-0.199034 -1.862961,-0.298542 -0.90655,-0.148266 -1.813103,-0.294488 -2.717385,-0.444782 -1.280506,-0.213248 -2.556475,-0.434621 -3.83925,-0.639744 -1.065191,-0.172633 -2.13493,-0.316828 -3.200122,-0.491487 C 36.306423,50.132842 34.515987,49.816014 32.723282,49.517463 31.97764,49.39358 31.227471,49.290002 30.47957,49.17627 29.87444,49.08284 29.26932,48.99145 28.666468,48.889906 27.655663,48.721337 26.638061,48.575115 25.638589,48.363893 24.786423,48.185171 24.48953,47.693685 24.500862,46.834594 c 0.0068,-0.45696 0.573391,-1.037804 1.264637,-1.167784 0.899756,-0.168571 1.781372,-0.412283 2.672062,-0.617406 0.138244,-0.03252 0.283294,-0.03657 0.426083,-0.05684 0.249294,-0.03657 0.503134,-0.06089 0.747902,-0.115764 0.911088,-0.203096 1.817639,-0.422434 2.726448,-0.627557 0.752438,-0.170596 1.509413,-0.329015 2.264119,-0.495548 1.452748,-0.320891 2.905497,-0.641781 4.358234,-0.964698 0.981345,-0.21731 1.96042,-0.438684 2.941765,-0.655994 0.192638,-0.04266 0.392083,-0.05886 0.584723,-0.09748 0.564325,-0.113743 1.13092,-0.215284 1.683923,-0.357452 0.176778,-0.04468 0.362621,-0.170597 0.466867,-0.306667 0.25384,-0.331042 0.49407,-0.676307 0.686718,-1.039839 0.471404,-0.889555 0.904283,-1.79535 1.366623,-2.688967 0.804564,-1.555692 1.615926,-3.109366 2.434093,-4.661004 0.525799,-0.993126 1.003999,-2.014688 1.620462,-2.961108 0.732041,-1.121071 1.88109,-1.76894 3.338375,-1.933448 0.831758,-0.09343 1.658978,-0.01217 2.481683,0.09139 1.538863,0.190909 3.070941,0.446799 4.616611,0.568665 1.423278,0.111699 2.855629,0.0045 4.274387,-0.190909 1.391558,-0.190909 2.792179,-0.345266 4.185994,-0.530077 0.611925,-0.08125 1.214778,-0.127954 1.833499,-0.04265 1.826703,0.251837 3.066416,1.159668 3.750856,2.680833 0.600593,1.334327 1.167188,2.680842 1.756448,4.021259 0.199435,0.450872 0.430609,0.891582 0.625516,1.342452 0.485007,1.114983 0.954142,2.236061 1.436889,3.353079 0.17677,0.408219 0.355817,0.814403 0.552993,1.214498 0.145049,0.294488 0.376214,0.481335 0.754707,0.564603 1.158113,0.253872 2.291301,0.599128 3.458489,0.804251 0.711643,0.125918 1.396084,0.318864 2.094136,0.479308 1.364354,0.31073 2.72418,0.641772 4.086275,0.956572 0.840822,0.194963 1.686182,0.369631 2.527014,0.564594 1.328091,0.308702 2.640318,0.686457 3.982016,0.926107 1.171725,0.211222 2.29358,0.578817 3.460758,0.788012 0.643653,0.115763 1.155853,0.625521 1.228383,1.216524 0.0635,0.532112 -0.28783,1.133267 -0.85216,1.346516 -0.378482,0.144195 -0.788704,0.237623 -1.19438,0.310729 -1.382493,0.243721 -2.769512,0.471183 -4.154273,0.698645 -0.283301,0.04671 -0.57339,0.07111 -0.85896,0.1117 -0.498592,0.07314 -0.9972,0.148258 -1.493538,0.227463 -1.119588,0.178721 -2.236916,0.355416 -3.354235,0.542262 -1.083331,0.180749 -2.16666,0.373693 -3.247722,0.562567 -0.08841,0.01622 -0.176779,0.04062 -0.265163,0.05481 -1.137726,0.180749 -2.277711,0.353381 -3.413169,0.54429 -1.792704,0.300578 -3.583141,0.619441 -5.378113,0.920019 -0.389816,0.06504 -0.788695,0.07719 -1.183048,0.125919 -1.504875,0.18481 -3.005214,0.393995 -4.512358,0.552414 -0.985871,0.103573 -1.980817,0.146222 -2.973484,0.190909 -1.75191,0.07719 -3.503821,0.132008 -5.258,0.196998 -0.163177,0.0062 -0.326355,0 -0.489533,0 0.0049,0.0018 0.0049,0.0101 0.0049,0.02035 z M 34.040046,46.781791 c 0.0068,0.04266 0.01357,0.08733 0.02035,0.129981 0.113325,0.04062 0.22437,0.09749 0.344495,0.115763 0.870283,0.138097 1.742845,0.268078 2.615397,0.402121 1.246508,0.190909 2.493016,0.37573 3.734986,0.578817 1.226111,0.20107 2.447694,0.430559 3.671536,0.631629 1.631786,0.270113 3.263582,0.540227 4.902173,0.785966 1.51394,0.22747 3.032417,0.436657 4.555421,0.623504 0.695774,0.0853 1.407417,0.0772 2.107727,0.140132 1.511681,0.138106 3.023353,0.268087 4.546357,0.259962 1.432351,-0.008 2.864702,0.0045 4.297053,-0.0045 0.831758,-0.0045 1.670322,0.01216 2.497542,-0.05279 2.032945,-0.156382 4.065889,-0.322925 6.092028,-0.546325 1.541142,-0.16857 3.070942,-0.41431 4.600751,-0.649896 0.942809,-0.146232 1.874294,-0.351355 2.817103,-0.503674 0.940549,-0.152321 1.892423,-0.257936 2.832972,-0.412283 1.366621,-0.223399 2.726449,-0.481335 4.093081,-0.710832 1.135457,-0.190901 2.27771,-0.359471 3.415427,-0.546317 0.25384,-0.04265 0.543937,-0.04467 0.747909,-0.359479 -0.233443,-0.06706 -0.423814,-0.132008 -0.618721,-0.17466 -0.877085,-0.186782 -1.758712,-0.357378 -2.633533,-0.554386 -0.804555,-0.180748 -1.602323,-0.391969 -2.404621,-0.580843 -0.820434,-0.192944 -1.643128,-0.371666 -2.463553,-0.564602 -0.734309,-0.172632 -1.464081,-0.361505 -2.19839,-0.534138 -1.117319,-0.261989 -2.241444,-0.507737 -3.356503,-0.77785 -0.432879,-0.105605 -0.7819,-0.324944 -0.960947,-0.720985 -0.35128,-0.777841 -0.725235,-1.547566 -1.069729,-2.327453 -0.514467,-1.173882 -1.004,-2.35589 -1.518468,-3.529772 -0.743372,-1.701923 -1.482208,-3.405881 -2.255044,-5.097652 -0.36716,-0.806279 -1.087867,-1.293712 -2.193862,-1.127168 -1.371151,0.205123 -2.744578,0.406183 -4.124802,0.562565 -1.631795,0.18482 -3.270387,0.322917 -4.920312,0.201061 -0.881617,-0.06503 -1.76777,-0.107636 -2.647129,-0.199024 -1.149048,-0.117794 -2.289033,-0.288399 -3.438092,-0.40822 -0.886154,-0.09343 -1.547939,0.06706 -1.980817,0.93017 -0.50993,1.019526 -1.069728,2.020777 -1.602324,3.032188 -0.394352,0.747386 -0.777372,1.498835 -1.164918,2.248248 -0.700311,1.348542 -1.400621,2.697083 -2.098664,4.045625 -0.05894,0.113743 -0.106516,0.233561 -0.165446,0.359479 0.07475,0.05279 0.122384,0.113732 0.183575,0.129981 0.552993,0.150294 1.101459,0.333078 1.665784,0.430559 0.886154,0.15232 1.792706,0.213248 2.676591,0.369631 2.123597,0.377756 4.276656,0.408219 6.427455,0.45696 1.337161,0.03049 2.67659,-0.08125 4.01602,-0.07923 1.692977,0.0045 3.349708,-0.257926 5.013224,-0.463059 1.069728,-0.132008 2.130392,-0.341193 3.184261,-0.562567 0.68445,-0.144195 1.149059,0.101541 1.572863,0.526014 0.766039,0.763636 0.224379,1.722235 -0.444211,2.008598 -0.353548,0.150294 -0.745632,0.23965 -1.128652,0.324953 -0.437415,0.09748 -0.883886,0.164507 -1.328096,0.241677 -0.319559,0.05481 -0.63685,0.115763 -0.958678,0.156382 -0.571132,0.07314 -1.144522,0.134044 -1.715644,0.203097 -0.215315,0.02644 -0.426082,0.07923 -0.641387,0.09341 -1.964948,0.127954 -3.918571,0.357452 -5.89485,0.367604 -1.520737,0.008 -3.039214,0.0045 -4.553153,-0.119829 -1.475414,-0.119821 -2.957624,-0.196999 -4.408104,-0.497577 -0.08841,-0.01824 -0.179047,-0.0386 -0.267432,-0.0386 -1.266905,0.0045 -2.470349,-0.324953 -3.664739,-0.627558 -1.01987,-0.257925 -1.983075,-0.239649 -2.98028,-0.008 -1.377955,0.32089 -2.762716,0.62553 -4.147477,0.924073 -0.824962,0.176694 -1.665784,0.29855 -2.486209,0.491496 -1.203455,0.284327 -2.39103,0.625521 -3.628474,0.788001 -0.201713,0.02238 -0.383019,0.144195 -0.568862,0.219338 z m 78.731694,29.430332 c 0,5.40839 -0.002,10.816771 0.002,16.227197 0,0.485388 0.068,0.970786 0.0657,1.456184 -0.0114,1.346506 0.002,2.693018 -0.0793,4.035471 -0.0929,1.521164 -0.83629,2.766135 -2.22331,3.673975 -1.02441,0.67021 -2.17346,0.99921 -3.4449,0.99921 -6.21667,-10e-4 -12.433346,-10e-4 -18.650009,0 -1.217047,0 -2.393298,-0.1706 -3.408641,-0.8002 -1.484479,-0.91999 -2.443147,-2.150747 -2.536068,-3.820183 -0.04081,-0.727076 -0.07028,-1.456184 -0.07251,-2.185292 -0.0049,-11.840368 -0.0068,-23.680738 0.0019,-35.523143 0,-0.909858 0.145048,-1.813627 0.607389,-2.642245 0.58926,-1.052026 1.500348,-1.852216 2.687922,-2.309176 0.868026,-0.333077 1.804038,-0.507736 2.794446,-0.503674 6.180407,0.02847 12.360821,-0.01824 18.541241,0.03049 2.36836,0.01824 4.21772,0.964697 5.23759,2.963135 0.30596,0.601164 0.47595,1.253096 0.47595,1.929394 0,5.48963 0,10.979252 0,16.468882 z M 85.538943,75.87092 c 0,5.359649 0,10.721326 0,16.080975 0,0.578816 0.0317,0.605219 0.67085,0.609281 0.03626,0 0.07251,0 0.10879,0 7.522104,0 15.044207,0 22.568577,0 0.10878,0 0.21758,-0.0101 0.32636,0.0018 0.27876,0.02847 0.39889,-0.119821 0.44875,-0.32698 0.0295,-0.125918 0.0295,-0.257926 0.0249,-0.387907 -0.0204,-0.615379 -0.068,-1.228722 -0.0657,-1.844091 0.005,-0.936269 0.0612,-1.872529 0.0612,-2.808788 0,-0.855029 -0.0522,-1.708021 -0.0612,-2.56305 -0.005,-0.387907 0.0635,-0.775815 0.0612,-1.163721 -0.005,-0.664119 -0.0566,-1.326203 -0.0589,-1.990322 -0.002,-0.54429 0.0612,-1.090616 0.0589,-1.634905 -0.005,-0.842842 -0.0522,-1.683647 -0.0589,-2.526487 -0.005,-0.420408 0.0589,-0.838778 0.0612,-1.259186 0,-0.404156 -0.0657,-0.808314 -0.0612,-1.210436 0.0114,-1.242936 0.0634,-2.485871 0.0634,-3.728807 0,-1.458211 -0.0498,-2.918457 -0.0589,-4.376667 -0.005,-0.641779 0.0566,-1.28356 0.0544,-1.923305 -0.002,-0.771751 -0.043,-1.543513 -0.0589,-2.315265 -0.005,-0.192944 0.0317,-0.38588 0.0408,-0.578817 0.0114,-0.225434 0.0136,-0.452897 0.0159,-0.678332 0.002,-0.32089 -0.0181,-0.64178 -0.002,-0.960634 0.0272,-0.521951 0.0408,-1.041876 -0.25836,-1.511023 -0.48047,-0.755503 -1.20572,-1.117017 -2.18705,-1.112955 -3.9163,0.0101 -7.830337,0.0045 -11.746639,0.0045 -2.465818,0 -4.929371,-0.0018 -7.395184,0.0018 -0.512207,0 -1.006278,0.06089 -1.443684,0.339167 -0.74791,0.475236 -1.11506,1.104829 -1.110523,1.937509 0.01357,2.971269 0.0049,5.942528 0.0049,8.913789 -0.0019,2.335586 -0.0019,4.675226 -0.0019,7.012831 z m 11.878081,19.41983 c -1.341687,0 -2.681118,0.0018 -4.02281,0 -2.463554,-0.0062 -4.927109,-0.01622 -7.390661,-0.02644 -0.353549,-0.0018 -0.457804,0.07111 -0.462341,0.394004 -0.0087,0.73114 -0.0087,1.460248 0.0068,2.191387 0.0049,0.188872 0.05894,0.387902 0.14279,0.562562 0.460072,0.940329 1.257832,1.427751 2.420492,1.421656 1.251034,-0.0059 2.49981,-0.0023 3.750855,-0.0023 2.298093,0 4.593942,0 6.892049,0 2.862432,0 5.724872,0.01621 8.587302,-0.0082 1.24651,-0.01057 2.38196,-0.926106 2.34797,-2.164985 -0.0181,-0.64381 -0.005,-1.289651 -0.005,-1.933448 0,-0.322923 -0.16092,-0.475242 -0.53487,-0.47118 -0.32409,0.0018 -0.65045,0.03657 -0.97454,0.03657 -3.58314,0.0018 -7.17082,0 -10.758501,0 z M 50.292245,57.478742 c 0,-0.649896 0.0087,-1.299802 -0.0019,-1.949698 -0.01137,-0.682395 -0.795501,-1.368853 -1.550207,-1.374943 -0.795501,-0.008 -1.606862,0.696611 -1.595529,1.433836 0.02035,1.569923 -0.142781,3.149991 0.249303,4.703655 0.185844,0.739261 0.342226,1.486648 0.582455,2.211694 0.167714,0.507738 0.444211,0.989064 0.686718,1.474462 0.838555,1.685681 2.085063,3.105302 3.594475,4.342149 1.30543,1.070302 2.776307,1.91517 4.396771,2.556951 0.983611,0.389933 2.026137,0.615369 3.066405,0.788001 1.291839,0.213248 2.608603,0.339167 3.936699,0.233561 1.21025,-0.09546 2.397834,-0.312765 3.558216,-0.607254 1.3077,-0.333077 2.524746,-0.889554 3.662462,-1.5557 0.632323,-0.369631 1.205713,-0.822529 1.781382,-1.263239 1.543401,-1.179981 2.814834,-2.558987 3.691923,-4.210142 0.448748,-0.846894 0.906551,-1.687709 1.078793,-2.63412 0.131457,-0.733172 0.44648,-1.446032 0.505403,-2.18123 0.104255,-1.275427 0.09064,-2.561013 0.09064,-3.842539 0,-0.633655 -0.688987,-1.336353 -1.330365,-1.443995 -0.818165,-0.136071 -1.79951,0.60319 -1.81537,1.368853 -0.02491,1.281524 -0.02725,2.56304 -0.0793,3.842539 -0.0476,1.200283 -0.530337,2.305113 -1.056136,3.38963 -0.584724,1.202319 -1.452749,2.244185 -2.481683,3.166232 -0.897487,0.804251 -1.906024,1.494772 -3.050546,2.006572 -0.890681,0.398057 -1.817629,0.725046 -2.783114,0.930169 -1.892421,0.404157 -3.798445,0.434622 -5.693136,-0.0062 -0.627786,-0.146222 -1.269174,-0.284329 -1.858434,-0.517888 -1.930948,-0.765663 -3.599001,-1.858306 -4.929366,-3.342927 -0.985881,-1.098732 -1.690719,-2.333542 -2.143995,-3.680057 -0.15638,-0.465086 -0.328623,-0.93626 -0.387556,-1.413532 -0.09972,-0.802217 -0.115574,-1.614593 -0.165436,-2.422907 0.01137,-0.0018 0.02725,-0.0018 0.04081,-0.0018 z m 11.08938,42.42224 c -0.0019,0.418378 0.149587,0.747398 0.430611,1.066248 0.738845,0.83878 1.983085,0.59912 2.488487,-0.21123 0.28783,-0.46304 0.249304,-0.970781 0.24023,-1.470394 -0.01357,-0.708791 -0.06796,-1.415561 -0.06341,-2.124351 0.0068,-1.346516 0.05216,-2.693034 0.06341,-4.037512 0.0049,-0.469148 -0.06117,-0.938296 -0.06341,-1.407444 -0.0087,-1.624745 -0.0087,-3.249498 0,-4.874252 0.0019,-0.436648 0.06796,-0.873295 0.06341,-1.307917 -0.0068,-0.7941 -0.04528,-1.5882 -0.06573,-2.382291 -0.0087,-0.367604 0.0068,-0.737235 -0.0019,-1.10483 -0.0049,-0.207159 0.07929,-0.343229 0.310495,-0.396032 0.140511,-0.03252 0.278765,-0.06706 0.417008,-0.105617 0.8295,-0.225434 1.661257,-0.45696 2.411427,-0.846902 1.8471,-0.958599 3.283989,-2.284802 4.199604,-4.023287 0.296894,-0.564602 0.49407,-1.182008 0.661784,-1.791288 0.129179,-0.467111 0.122384,-0.962662 0.206241,-1.441961 0.06573,-0.387917 -0.0159,-0.74536 -0.215315,-1.080464 -0.496328,-0.834715 -1.924152,-0.982974 -2.527003,-0.123883 -0.219842,0.312765 -0.385289,0.627558 -0.346763,0.999214 0.08385,0.790039 -0.217573,1.521176 -0.539392,2.213732 -0.480478,1.035777 -1.319031,1.858305 -2.336633,2.514299 -1.375696,0.885484 -2.946291,1.12108 -4.593956,0.976876 -0.532596,-0.04671 -1.074256,-0.168561 -1.572864,-0.343229 -0.707106,-0.247765 -1.348494,-0.611307 -1.930948,-1.066241 -1.235185,-0.970786 -1.967225,-2.179195 -2.227852,-3.623192 -0.05662,-0.318855 -0.05216,-0.643807 -0.09288,-0.964697 -0.09746,-0.771752 -0.763769,-1.316051 -1.554733,-1.281524 -0.838563,0.03657 -1.49808,0.666154 -1.511681,1.431817 -0.01813,1.184035 0.294634,2.311204 0.802306,3.387605 0.591519,1.25715 1.461812,2.347766 2.647129,3.221071 1.16265,0.857054 2.474877,1.448058 3.920829,1.819716 0.797768,0.205123 0.790964,0.221372 0.788705,0.976883 -0.0019,2.859556 0,5.719121 0,8.578685 0,2.940796 0.0068,5.881591 -0.0068,8.822392 z M 14.633055,36.048286 c 0.02947,-0.550387 0.0635,-1.09874 0.08385,-1.649128 0.04537,-1.267301 0.310496,-2.508201 0.645915,-3.73286 0.274229,-1.005313 0.641388,-1.986259 1.051601,-2.957045 0.38075,-0.89768 0.824962,-1.760824 1.328096,-2.601629 0.90882,-1.52321 2.078265,-2.885966 3.315709,-4.202017 0.358085,-0.381818 0.770566,-0.725047 1.149059,-1.094678 0.691245,-0.672235 1.507134,-1.212463 2.311699,-1.764886 0.559799,-0.383845 1.105995,-0.790029 1.706589,-1.117008 0.942808,-0.511799 1.912819,-0.98501 2.894163,-1.433844 1.713375,-0.783941 3.517413,-1.348542 5.400771,-1.712083 1.133189,-0.219339 2.266377,-0.43056 3.426769,-0.46305 1.176252,-0.03252 2.354763,-0.05886 3.528745,-0.03454 0.398889,0.008 0.745643,-0.04265 1.094663,-0.194971 0.480468,-0.211222 0.999472,-0.930171 0.834026,-1.456184 -0.203972,-0.649905 -0.840822,-1.151543 -1.552464,-1.155606 -0.849897,-0.0045 -1.699784,0.0018 -2.549681,-0.0018 -0.958678,-0.0045 -1.908283,0.04671 -2.862433,0.180749 -1.538875,0.21731 -3.061878,0.475246 -4.550884,0.889554 -0.396621,0.109668 -0.777371,0.264024 -1.176252,0.367595 -1.500339,0.391969 -2.898701,0.997196 -4.265322,1.661307 -1.69072,0.822538 -3.268119,1.799413 -4.729931,2.916429 -1.557004,1.190133 -3.005215,2.479774 -4.229057,3.962359 -1.296376,1.567888 -2.445425,3.208882 -3.349707,4.985956 -0.788705,1.549602 -1.396094,3.15608 -1.851628,4.807235 -0.199445,0.720984 -0.333161,1.454147 -0.444212,2.193409 -0.185843,1.236846 -0.276505,2.477746 -0.342225,3.720681 -0.02491,0.467112 0.05894,0.936261 0.05894,1.405408 0,0.329014 0.126921,0.607254 0.326356,0.859091 0.432878,0.546316 1.196649,0.771752 1.747383,0.534129 0.713912,-0.306667 1.155854,-1.001251 1.08333,-1.705985 -0.04081,-0.400095 -0.0793,-0.802216 -0.117859,-1.202311 0.01137,0 0.02269,-0.0018 0.03403,-0.0045 z m 12.705317,64.084224 c -0.07251,0.56867 0.296893,0.9383 0.770566,1.19014 0.405676,0.21527 0.913347,0.28026 1.348494,0.0426 0.489533,-0.26605 0.868025,-0.6377 0.926948,-1.19216 0.08385,-0.804247 0.181307,-1.608495 0.253831,-2.414774 0.05894,-0.676306 0.06796,-1.356675 0.138252,-2.030937 0.14505,-1.383074 0.324088,-2.764115 0.48047,-4.14921 0.09973,-0.901741 0.181315,-1.803475 0.274238,-2.705217 0.08841,-0.836743 0.188101,-1.671459 0.269691,-2.508202 0.06117,-0.629592 0.05662,-1.265273 0.163187,-1.886741 0.165446,-0.960635 0.308227,-1.919242 0.319559,-2.896118 0.0049,-0.481335 0.08163,-0.966733 0.179037,-1.441969 0.08609,-0.412283 0.231176,-0.81644 0.376225,-1.216534 0.253831,-0.692548 0.562057,-1.362756 0.974538,-1.996412 0.460072,-0.702708 0.994945,-1.352604 1.627258,-1.933456 0.747911,-0.688485 1.550207,-1.309953 2.497553,-1.779102 1.189843,-0.591003 2.465813,-0.997187 3.730458,-1.427746 0.31956,-0.109668 0.625518,-0.251837 0.947346,-0.361505 0.929207,-0.312765 1.862962,-0.613343 2.792177,-0.922046 0.643647,-0.213248 1.289562,-0.420406 1.921884,-0.655994 0.559799,-0.209185 1.160382,-0.365569 1.523005,-0.867216 0.301431,-0.416335 0.403417,-0.846894 0.111051,-1.281516 -0.294624,-0.438682 -0.664042,-0.804251 -1.328096,-0.77785 -0.518994,0.02027 -0.974538,0.184812 -1.448211,0.357444 -1.421019,0.513826 -2.857906,0.991098 -4.292516,1.478523 -0.437416,0.148257 -0.883896,0.280265 -1.321302,0.428532 -0.85896,0.292452 -1.71791,0.586941 -2.572335,0.893607 -1.013074,0.365569 -1.944559,0.865181 -2.805778,1.462273 -0.657248,0.456961 -1.373429,0.873306 -1.917357,1.423694 -1.065202,1.076391 -2.012547,2.236061 -2.674321,3.578514 -0.580197,1.177945 -1.017612,2.378229 -1.244249,3.647566 -0.203972,1.135293 -0.353548,2.274649 -0.358086,3.426192 0,0.243713 -0.01137,0.487425 -0.04081,0.729101 -0.169973,1.397292 -0.362622,2.792548 -0.514466,4.191857 -0.09972,0.917982 -0.120115,1.840037 -0.210779,2.758021 -0.106516,1.078427 -0.253831,2.15482 -0.376213,3.233248 -0.0476,0.418371 -0.01813,0.848939 -0.117859,1.255128 -0.333151,1.372917 -0.23796,2.774255 -0.403406,4.059841 0,0.158404 0.0068,0.225434 0,0.288394 z M 41.879446,22.934518 c 0.50994,-0.15232 0.979075,-0.826591 0.892949,-1.285587 -0.145038,-0.773787 -0.686708,-1.251061 -1.507135,-1.314016 -0.553002,-0.04265 -1.121855,-0.05481 -1.672589,0.0018 -0.983603,0.09952 -1.969484,0.156382 -2.950818,0.324952 -1.167188,0.199034 -2.266378,0.550388 -3.356514,0.922046 -1.634055,0.558513 -3.093598,1.427747 -4.421695,2.433068 -1.341697,1.015465 -2.540615,2.167008 -3.469832,3.521647 -0.693505,1.009376 -1.30543,2.051242 -1.76777,3.164196 -0.466877,1.125142 -0.70031,2.305113 -0.967742,3.47697 -0.231176,1.009375 -0.126921,2.030937 -0.08841,3.044374 0.02035,0.570692 0.750178,1.141393 1.389297,1.190133 0.911079,0.06909 1.729246,-0.597101 1.745106,-1.42572 0.0068,-0.308702 -0.0049,-0.617405 0.0019,-0.926108 0.0159,-0.647869 -0.04982,-1.309952 0.07475,-1.943608 0.253831,-1.291675 0.66858,-2.554923 1.330365,-3.730832 1.065192,-1.892833 2.527005,-3.499309 4.448899,-4.758486 1.690718,-1.106865 3.562743,-1.852216 5.597946,-2.248256 1.198917,-0.231526 2.413695,-0.444774 3.74406,-0.261989 0.274227,-0.04873 0.63685,-0.08328 0.976807,-0.184812 z m 23.617926,41.920596 c 2.03974,-1.064213 3.177456,-2.630066 3.222788,-4.786922 0.0087,-0.394005 -0.142781,-0.702708 -0.439674,-0.954545 -0.349032,-0.296515 -0.795501,-0.523978 -1.266915,-0.426496 -0.616454,0.127954 -1.144512,0.426496 -1.269164,1.064213 -0.03848,0.190909 -0.06573,0.383845 -0.113313,0.572727 -0.07707,0.296516 -0.120124,0.611308 -0.262904,0.883457 -0.342226,0.653959 -0.886155,1.161695 -1.672581,1.364792 -0.568863,0.148258 -1.16266,0.182783 -1.76778,0.06089 -0.852155,-0.172632 -1.455017,-0.588977 -1.869757,-1.275436 -0.28557,-0.473201 -0.353558,-0.972813 -0.423814,-1.490701 -0.10879,-0.802224 -0.76377,-1.155606 -1.597797,-1.167793 -0.682181,-0.0101 -1.43462,0.611316 -1.407426,1.251061 0.02947,0.688484 0.117859,1.403371 0.371687,2.045151 0.324095,0.822528 0.897485,1.53945 1.65446,2.13249 1.151318,0.899698 2.468082,1.374943 4.469296,1.415559 0.562056,0.04671 1.502607,-0.23356 2.3729,-0.688485 z M 37.972208,29.882359 c -1.661247,0.501639 -2.953087,1.437898 -3.923098,2.711297 -0.908819,1.19216 -1.266905,2.554924 -1.278238,3.998921 -0.0049,0.582879 0.28783,1.003286 0.779641,1.309952 0.4782,0.296516 1.013064,0.326979 1.5298,0.04062 0.593787,-0.329007 0.815897,-0.840806 0.852155,-1.437898 0.02269,-0.355417 -0.0317,-0.72911 0.07028,-1.064214 0.485005,-1.592255 1.559262,-2.686932 3.419964,-3.040313 0.455534,-0.0853 0.929207,-0.103584 1.396084,-0.119829 0.396621,-0.01419 0.738836,-0.109668 1.037998,-0.349319 0.575659,-0.463058 0.684451,-1.031714 0.333161,-1.638967 -0.296894,-0.513826 -0.741104,-0.775815 -1.393826,-0.747386 -0.145048,0.0062 -0.290097,0 -0.557529,0 -0.700311,-0.04062 -1.484468,0.101541 -2.266378,0.337139 z m 59.542275,38.929024 c 0.0952,-0.06706 0.172242,-0.09343 0.197176,-0.142168 0.63685,-1.220596 1.754169,-1.951733 3.109471,-2.433068 0.63685,-0.225426 1.28503,-0.430559 1.93096,-0.641771 0.068,-0.02238 0.14051,-0.03049 0.21076,-0.04062 0.99721,-0.156383 1.99215,-0.318854 2.98936,-0.463049 0.86575,-0.125919 1.45954,0.129981 1.91055,0.814404 0.13825,0.209185 0.21531,0.426495 0.16544,0.69052 -0.17903,0.938295 -0.27876,1.892832 -0.50993,2.820976 -0.33995,1.368853 -0.86348,2.695056 -1.8811,3.787698 -0.40567,0.436649 -0.9632,0.80019 -1.52753,1.070304 -1.29863,0.623495 -2.70152,0.991099 -4.172398,1.137329 -0.625527,0.06291 -0.695783,0.150286 -0.661785,0.710824 0.0068,0.113732 0.0068,0.227463 0.0068,0.341203 0,3.476961 -0.0019,6.953931 0.0019,10.430899 0,0.609281 -0.213036,1.110919 -0.772835,1.476488 -0.568863,0.371666 -1.142253,0.353381 -1.688449,-0.04671 -0.473673,-0.347293 -0.716172,-0.757539 -0.711644,-1.342444 0.02724,-3.541961 0.01357,-7.08392 0.01357,-10.625871 0,-0.146231 0.0068,-0.292453 -0.0049,-0.438684 -0.01813,-0.255899 -0.149576,-0.428532 -0.455544,-0.463059 -0.124643,-0.01419 -0.249294,-0.03657 -0.373946,-0.05076 -1.484479,-0.158419 -2.905491,-0.519924 -4.226792,-1.145455 -1.015334,-0.479299 -1.77004,-1.188097 -2.29584,-2.128419 -0.73204,-1.307926 -1.069728,-2.705208 -1.35303,-4.122803 -0.08385,-0.414318 -0.181306,-0.826591 -0.22437,-1.242936 -0.111051,-1.074366 0.793233,-1.840028 1.987613,-1.677556 0.60512,0.08125 1.203445,0.215283 1.804038,0.322917 0.158651,0.02847 0.317291,0.07111 0.478199,0.08125 1.380235,0.09546 2.633533,0.56054 3.836978,1.123105 0.954141,0.444782 1.70432,1.094678 2.096404,2.024849 0.01813,0.04467 0.05438,0.08125 0.120115,0.172632 z m 2.370632,3.90143 c 0.849885,-0.264024 1.702055,-0.523986 2.549675,-0.790037 0.63685,-0.199034 1.03573,-0.61537 1.34169,-1.137321 0.43288,-0.741297 0.54393,-1.569914 0.82043,-2.353863 0.0907,-0.2559 -0.11785,-0.389935 -0.41928,-0.306666 -0.31049,0.0853 -0.60739,0.233551 -0.92241,0.27214 -0.60513,0.07516 -1.13773,0.308702 -1.67259,0.534138 -0.41475,0.172632 -0.74337,0.442746 -0.99041,0.800189 -0.56432,0.812377 -0.695772,1.760824 -1.053867,2.636156 -0.07028,0.168569 0.0952,0.286363 0.346762,0.345264 z M 90.8672,68.114764 c -0.219842,0.0062 -0.317291,0.142168 -0.242499,0.375729 0.167705,0.52804 0.369418,1.047965 0.518995,1.580067 0.305968,1.086553 1.044804,1.779101 2.245981,2.08374 0.589255,0.148267 1.173978,0.312765 1.763238,0.45697 0.126921,0.03049 0.344494,0.05481 0.392084,-0.0045 0.07931,-0.09749 0.09972,-0.270122 0.07028,-0.398068 -0.05438,-0.235587 -0.20851,-0.454934 -0.237971,-0.69052 -0.09288,-0.729101 -0.446469,-1.358694 -0.881616,-1.957823 -0.113325,-0.156382 -0.285561,-0.284328 -0.453275,-0.40213 -0.90202,-0.627557 -2.046532,-0.684423 -3.06867,-1.025616 -0.03403,-0.0101 -0.07028,-0.01216 -0.106528,-0.01824 z m 6.792331,27.722313 c -0.326364,0 -0.650451,-0.0047 -0.974548,0.0023 -0.14278,0.0012 -0.287829,0.02243 -0.430609,0.03864 -0.58926,0.07117 -1.180779,0.660064 -1.253304,1.188109 -0.08609,0.621472 0.532597,1.535388 1.563798,1.537419 0.738837,0.0012 1.477684,0.01421 2.214251,-0.0047 0.582464,-0.01421 1.300901,-0.509772 1.423291,-0.976877 0.2561,-0.970793 -0.557535,-1.701933 -1.29864,-1.746608 -0.414749,-0.02443 -0.827229,-0.04064 -1.24197,-0.05884 -0.0019,0.0059 -0.0019,0.01421 -0.0019,0.02032 z"
   id="path224"
   style="stroke-width:0.214543" />
</svg>
