<?xml version="1.0" encoding="utf-8"?>
<!-- Generator: Adobe Illustrator 23.0.0, SVG Export Plug-In . SVG Version: 6.00 Build 0)  -->
<svg version="1.1" id="Layer_1" xmlns="http://www.w3.org/2000/svg" xmlns:xlink="http://www.w3.org/1999/xlink" x="0px" y="0px"
	 viewBox="0 0 852.51 342" style="enable-background:new 0 0 852.51 342;" xml:space="preserve">
<style type="text/css">
	.st0{fill:#C83128;}
	.st1{opacity:0.3;fill:url(#SVGID_1_);}
	.st2{opacity:0.3;fill:url(#SVGID_2_);}
	.st3{opacity:0.3;fill:url(#SVGID_3_);}
	.st4{opacity:0.3;fill:url(#SVGID_4_);}
	.st5{fill:#ECBD2D;}
	.st6{fill:#1A75BB;}
	.st7{fill:#37A649;}
	.st8{clip-path:url(#SVGID_6_);fill:#FFFFFF;}
	.st9{fill:#FFFFFF;}
	.st10{clip-path:url(#SVGID_8_);fill:#37A649;}
	.st11{opacity:0.6;}
	.st12{fill-rule:evenodd;clip-rule:evenodd;fill:#4776B9;}
	.st13{opacity:0.6;fill:#4776B9;}
	.st14{opacity:0.6;fill:#231F20;}
	.st15{opacity:0.6;fill:none;}
	.st16{fill:#4776B9;}
	.st17{fill:#1F4581;}
	.st18{fill-rule:evenodd;clip-rule:evenodd;fill:#A34424;}
	.st19{fill-rule:evenodd;clip-rule:evenodd;fill:#37A649;}
	.st20{fill-rule:evenodd;clip-rule:evenodd;fill:#C83128;}
	.st21{fill-rule:evenodd;clip-rule:evenodd;fill:#ECBD2D;}
	.st22{fill-rule:evenodd;clip-rule:evenodd;fill:#1A75BB;}
	.st23{clip-path:url(#SVGID_10_);}
	.st24{fill:#231F20;}
</style>
<g class="st11">
	<path class="st12" d="M228.49,198.61c1.13,0.14,3.23,0.4,5.33,0.65c0.76,0.09,1.09,0.43,1.11,1.28c0.09,3.62,0.58,3.91,3.82,5.43
		c2.5,1.17,4.7,1.11,7.08-0.01c0.31-0.15,0.92-0.05,1.18,0.19c3.25,2.83,6.66,5.58,8.67,9.51c2.06,4.01,0.97,8.09-2.16,11.34
		c-3.63,3.77-7.59,4.55-12.6,3.27c-7.79-1.99-15.18-4.66-21.49-9.76c-1.91-1.55-3.71-3.28-5.33-5.13c-3.75-4.28-3.27-9.4,1.13-13.02
		C218.79,199.43,223.05,198.67,228.49,198.61"/>
	<path class="st12" d="M306.22,202.25c-11.77-11.8-26.12-17.64-42.92-16.5c-5.21,0.36-9.52,2.13-12.89,5.3
		c2.42-0.89,4.92-1.49,7.47-1.91c10.97-1.85,21.53-0.69,31.14,5.27c8.67,5.37,13.86,12.96,13.64,23.54
		c-0.04,1.94-0.57,3.87-0.88,5.81c-0.26-0.01-0.52-0.03-0.79-0.04c-0.08-0.41-0.27-0.82-0.23-1.22
		c1.07-13.45-5.54-22.81-17.27-27.46c-32.98-13.08-38.64,4.06-39.63,7.41c1.66-1.32,3.03-2.42,4.43-3.49
		c3.98-3.03,8.16-3.56,12.55-0.92c1.09,0.66,2.24,1.29,3.19,2.12c2.48,2.19,4.97,4.38,7.25,6.77c4.71,4.93,8.81,10.35,12.49,16.07
		c1.99,3.09,4.83,4.93,8.36,5.5c2.06,0.33,4.25,0.42,6.3,0.08c5.05-0.83,9.33-3.2,11.19-8.21
		C312.06,213.76,311.2,207.25,306.22,202.25z"/>
	<path class="st12" d="M234.53,170.27c-13.33-14.59-30.94-18.87-50.39-13.5c-0.49,0.13-1.09-0.16-1.65-0.26c0-0.14,0-0.28,0-0.42
		c13.39-5.97,26.56-4.53,39.45,1.46c9.27,4.3,16.71,10.75,21.19,20.16c1.36,2.85,2.27,5.8,2.59,8.85c0.32-2.86-0.13-5.76-0.99-8.57
		c-2.06-6.76-6.07-12.33-11.09-17.13c-9.15-8.74-19.79-14.94-32.06-18.26c-4.58-1.24-9.09-1.63-13.62,0.21
		c-5.47,2.21-9.66,5.69-11.22,11.6c-1.36,5.14,0.05,9.87,2.75,14.26c3.48,5.68,8.34,8.87,15.28,8.61c7.9-0.3,15.79-0.06,23.66,0.77
		c4.44,0.47,8.85,1.08,13,2.83c8.76,3.69,7.84,8.03,7.71,11.56c-0.09,2.44-0.02,4.89-0.02,7.33c0.17,0.01,0.33,0.03,0.5,0.04
		c0.14-0.35,0.3-0.69,0.42-1.04C240.68,196.68,252.17,189.58,234.53,170.27z"/>
	<path class="st12" d="M257.48,139.55c-0.18-5.96-0.74-11.89-2.48-17.64c-2.22-7.35-6.24-13.31-13.33-16.79
		c-5-2.45-10.33-3.55-15.88-3.51c-4.47,0.04-8.77,0.88-12.6,3.37c-2.16,1.4-2.85,3.38-2.89,5.94c-0.11,6.19,3.07,11.32,6.37,16.25
		c0.56,0.84,1.25,1.6,1.81,2.44c3.18,4.67,5.5,9.79,7.07,15.16c1.11,3.81,2.84,6.92,6.39,8.85c0.08,0.05,0.14,0.11,0.21,0.17
		c7.49,6.13,13.97,12.91,16.61,22.23c3.3-26.62-4.44-49.72-23.84-68.97c-0.6-0.59-1.39-1.04-0.52-1.98c0.14,0,0.28,0,0.42,0
		c4.23,4.31,9.08,8.18,12.58,13.02c12.46,17.21,17.65,36.42,14.99,57.46c1.4-3.17,2.79-6.35,4.09-9.56
		c0.67-1.65,1.09-3.51,1.11-5.28C257.68,153.66,257.69,146.6,257.48,139.55z"/>
	<path class="st12" d="M325.6,162.65c-1.56-8.34-6.8-13.68-14.3-16.91c-5.6-2.41-11.48-2.2-17.27-0.64
		c-11.74,3.15-21.14,10.06-29.5,18.62c-5.84,5.98-9.11,13.43-12.35,21.08c0.66-0.24,1.24-0.45,1.8-0.65
		c8.47-14.02,18.99-25.92,35.21-31.43c9.23-3.14,18.6-3.06,27.71,0.95c1.04,0.46,2,1.09,3,1.64c-0.07,0.21-0.14,0.43-0.21,0.64
		c-0.42,0-0.88,0.12-1.26-0.02c-14.31-5.04-27.57-2.13-39.87,5.82c-8.79,5.68-15.92,13.17-22.12,21.54
		c3.84-1.28,5.29-1.34,11.54-1.58c0.37-0.01,0.78-0.12,1.11-0.31c8.97-4.97,18.52-8.44,28.48-10.73c8.09-1.86,16.25-3.4,24.63-2.47
		c0.48,0.05,0.97,0.03,1.45-0.03c1.24-0.15,2.09-0.78,2.11-2.11C325.79,164.93,325.81,163.76,325.6,162.65z"/>
</g>
<path class="st13" d="M305.84,316.22l-0.58-1.38c18.96-8.02,36-19.5,50.62-34.13c14.63-14.63,26.11-31.66,34.13-50.62
	c8.3-19.63,12.51-40.49,12.51-61.99h1.5c0,21.7-4.25,42.75-12.63,62.57c-8.09,19.14-19.69,36.33-34.45,51.1
	C342.17,296.53,324.98,308.12,305.84,316.22z"/>
<path class="st13" d="M84.01,168.1h-1.5c0-21.7,4.25-42.75,12.63-62.57c8.1-19.14,19.69-36.33,34.45-51.1l1.06,1.06
	c-14.62,14.62-26.11,31.66-34.13,50.62C88.22,125.75,84.01,146.6,84.01,168.1z"/>
<path class="st13" d="M45.78,233.46l-1.43,0.47c-4.44-13.51-7.48-27.53-9.06-41.66c-2.99-26.82-0.79-53.66,6.55-79.76
	c6.16-21.89,15.75-42.48,28.51-61.2l1.24,0.85c-12.67,18.59-22.19,39.03-28.3,60.77c-7.29,25.91-9.48,52.55-6.51,79.18
	C38.35,206.13,41.38,220.04,45.78,233.46z"/>
<rect x="13.8" y="127.41" class="st15" width="43.45" height="43.81"/>
<g class="st11">
	<path class="st16" d="M449.58,134.4c-1.02,0-1.84,0.82-1.84,1.84c0,1.02,0.82,1.84,1.84,1.84s1.84-0.82,1.84-1.84
		C451.42,135.22,450.6,134.4,449.58,134.4z"/>
	<path class="st16" d="M443.07,134.4c-1.02,0-1.84,0.82-1.84,1.84c0,1.02,0.82,1.84,1.84,1.84c1.02,0,1.84-0.82,1.84-1.84
		C444.91,135.22,444.09,134.4,443.07,134.4z"/>
	<path class="st16" d="M449.58,119.29c-10.75,0-19.46,8.71-19.46,19.46c0,10.75,8.71,19.46,19.46,19.46
		c10.75,0,19.46-8.71,19.46-19.46C469.05,128.01,460.33,119.29,449.58,119.29z M459.26,142.47v8.27l-6.35-5.38
		c-1.06,0.21-2.17,0.33-3.32,0.33c-7.12,0-12.9-4.23-12.9-9.46c0-5.22,5.77-9.46,12.9-9.46s12.9,4.23,12.9,9.46
		C462.48,138.63,461.26,140.81,459.26,142.47z"/>
	<path class="st16" d="M456.09,134.4c-1.01,0-1.84,0.82-1.84,1.84c0,1.02,0.82,1.84,1.84,1.84c1.02,0,1.84-0.82,1.84-1.84
		C457.93,135.22,457.11,134.4,456.09,134.4z"/>
</g>
<g class="st11">
	<path class="st16" d="M143.92,33.93c-3.52,0-6.37,2.85-6.37,6.37c0,3.52,2.85,6.37,6.37,6.37c3.52,0,6.37-2.85,6.37-6.37
		C150.29,36.78,147.44,33.93,143.92,33.93z"/>
	<path class="st16" d="M143.92,22.61c-11.45,0-20.74,9.29-20.74,20.74s9.29,20.74,20.74,20.74s20.74-9.29,20.74-20.74
		S155.38,22.61,143.92,22.61z M143.92,56.9c0,0-10.5-10.8-10.5-16.6c0-5.8,4.7-10.5,10.5-10.5c5.8,0,10.5,4.7,10.5,10.5
		C154.42,46.1,143.92,56.9,143.92,56.9z"/>
</g>
<g class="st11">
	<path class="st16" d="M104.2,72.01H79.37c-0.41,0-0.75-0.34-0.75-0.75V55.19c0-0.41,0.34-0.75,0.75-0.75h24.83
		c0.41,0,0.75,0.34,0.75,0.75v16.07C104.95,71.67,104.62,72.01,104.2,72.01z M80.12,70.51h23.33V55.94H80.12V70.51z"/>
	<path class="st16" d="M91.78,66.9c-0.18,0-0.35-0.06-0.5-0.19L78.87,55.75c-0.23-0.21-0.32-0.54-0.21-0.83
		c0.11-0.29,0.39-0.48,0.7-0.48h24.83c0.31,0,0.59,0.19,0.7,0.48c0.11,0.29,0.03,0.62-0.21,0.83L92.28,66.72
		C92.14,66.84,91.96,66.9,91.78,66.9z M81.35,55.94l10.43,9.22l10.44-9.22H81.35z"/>
</g>
<g class="st11">
	<path class="st16" d="M403.26,169.09c-6.35,0-11.52-5.17-11.52-11.52s5.17-11.52,11.52-11.52s11.52,5.17,11.52,11.52
		S409.62,169.09,403.26,169.09z M403.26,147.55c-5.53,0-10.02,4.5-10.02,10.02s4.5,10.02,10.02,10.02s10.02-4.5,10.02-10.02
		S408.79,147.55,403.26,147.55z"/>
	<g>
		<path class="st16" d="M409.22,158.32h-11.91c-0.41,0-0.75-0.34-0.75-0.75s0.34-0.75,0.75-0.75h11.91c0.41,0,0.75,0.34,0.75,0.75
			S409.63,158.32,409.22,158.32z"/>
		<path class="st16" d="M403.26,164.28c-0.41,0-0.75-0.34-0.75-0.75v-11.91c0-0.41,0.34-0.75,0.75-0.75s0.75,0.34,0.75,0.75v11.91
			C404.01,163.94,403.68,164.28,403.26,164.28z"/>
	</g>
</g>
<g class="st11">
	<path class="st16" d="M227.27,41.9c-0.12,0-0.24-0.03-0.35-0.09l-4.95-2.6l-4.95,2.6c-0.25,0.13-0.56,0.11-0.79-0.06
		c-0.23-0.17-0.35-0.45-0.3-0.73l0.94-5.51l-4-3.9c-0.2-0.2-0.28-0.5-0.19-0.77c0.09-0.27,0.32-0.47,0.6-0.51l5.53-0.81l2.48-5.01
		c0.25-0.51,1.09-0.51,1.35,0l2.48,5.01l5.53,0.81c0.28,0.04,0.52,0.24,0.6,0.51c0.09,0.27,0.01,0.57-0.19,0.77l-4,3.9l0.94,5.51
		c0.05,0.28-0.07,0.57-0.3,0.73C227.58,41.85,227.43,41.9,227.27,41.9z M221.97,37.62c0.12,0,0.24,0.03,0.35,0.09l3.96,2.08
		l-0.75-4.4c-0.04-0.24,0.04-0.49,0.22-0.66l3.2-3.12l-4.42-0.64c-0.24-0.04-0.46-0.19-0.56-0.41l-1.98-4l-1.98,4
		c-0.11,0.22-0.32,0.38-0.56,0.41l-4.42,0.64l3.2,3.12c0.18,0.17,0.26,0.42,0.22,0.66l-0.75,4.4l3.95-2.08
		C221.73,37.65,221.85,37.62,221.97,37.62z"/>
	<path class="st16" d="M221.97,48.01c-7.77,0-14.08-6.32-14.08-14.08s6.32-14.08,14.08-14.08c7.77,0,14.09,6.32,14.09,14.08
		S229.74,48.01,221.97,48.01z M221.97,21.34c-6.94,0-12.58,5.65-12.58,12.58s5.65,12.58,12.58,12.58c6.94,0,12.59-5.65,12.59-12.58
		S228.91,21.34,221.97,21.34z"/>
</g>
<g class="st11">
	<polygon class="st16" points="384.39,90.91 384.39,92.98 396.73,97.49 396.73,95.42 	"/>
	<path class="st16" d="M387.85,81.37c-11.3,0-20.45,9.16-20.45,20.45s9.16,20.45,20.45,20.45c11.3,0,20.45-9.16,20.45-20.45
		S399.14,81.37,387.85,81.37z M398.23,110.09c0,0.11-0.03,0.21-0.07,0.31c0.05,0.22,0.07,0.46,0.07,0.69c0,1.91-1.55,3.46-3.46,3.46
		c-1.91,0-3.46-1.55-3.46-3.46s1.55-3.46,3.46-3.46c0.73,0,1.4,0.23,1.96,0.61v-6.49l-12.34-4.51v12.85c0,0.11-0.03,0.21-0.07,0.31
		c0.05,0.22,0.07,0.46,0.07,0.69c0,1.91-1.55,3.46-3.46,3.46c-1.91,0-3.46-1.55-3.46-3.46s1.55-3.46,3.46-3.46
		c0.73,0,1.4,0.23,1.96,0.61V89.84c0-0.25,0.12-0.47,0.32-0.61c0.2-0.14,0.46-0.17,0.69-0.09l13.84,5.06
		c0.3,0.11,0.49,0.39,0.49,0.7V110.09z"/>
</g>
<path class="st13" d="M379.69,83.07c-6.47-10.35-14.1-19.98-22.76-28.63c-14.76-14.76-31.95-26.35-51.1-34.45
	c-19.82-8.38-40.87-12.63-62.57-12.63c-21.7,0-42.75,4.25-62.57,12.63c-7.9,3.34-15.6,7.36-22.87,11.93l0.8,1.27
	c7.21-4.53,14.83-8.51,22.66-11.82c19.63-8.3,40.49-12.51,61.99-12.51c21.5,0,42.35,4.21,61.99,12.51
	c18.96,8.02,36,19.5,50.62,34.13c8.54,8.54,16.07,18.02,22.46,28.23C378.77,83.49,379.23,83.27,379.69,83.07z"/>
<g class="st11">
	<path class="st16" d="M315.92,80.81c-0.18,0-0.35-0.06-0.5-0.19l-18-15.83c-0.23-0.21-0.32-0.54-0.21-0.83
		c0.11-0.29,0.39-0.49,0.7-0.49h6.86V48.11c0-0.41,0.34-0.75,0.75-0.75h20.78c0.41,0,0.75,0.34,0.75,0.75v15.38h6.86
		c0.31,0,0.59,0.19,0.7,0.49c0.11,0.29,0.03,0.62-0.21,0.83l-18,15.83C316.27,80.75,316.09,80.81,315.92,80.81z M299.9,64.99
		l16.01,14.08l16.01-14.08h-5.62c-0.41,0-0.75-0.34-0.75-0.75V48.86h-19.28v15.38c0,0.41-0.34,0.75-0.75,0.75H299.9z"/>
	<path class="st16" d="M333.92,80.81h-36c-0.41,0-0.75-0.34-0.75-0.75s0.34-0.75,0.75-0.75h36c0.41,0,0.75,0.34,0.75,0.75
		S334.33,80.81,333.92,80.81z"/>
</g>
<g class="st11">
	<path class="st16" d="M115.87,154.14c-10.08,0-18.28-8.2-18.28-18.29s8.2-18.28,18.28-18.28s18.28,8.2,18.28,18.28
		S125.96,154.14,115.87,154.14z M115.87,119.07c-9.25,0-16.78,7.53-16.78,16.78s7.53,16.79,16.78,16.79s16.78-7.53,16.78-16.79
		S125.13,119.07,115.87,119.07z"/>
	<path class="st16" d="M115.87,154.14c-5.44,0-9.7-8.03-9.7-18.29s4.26-18.28,9.7-18.28c5.44,0,9.7,8.03,9.7,18.28
		S121.31,154.14,115.87,154.14z M115.87,119.07c-4.45,0-8.2,7.69-8.2,16.78c0,9.1,3.76,16.79,8.2,16.79c4.45,0,8.2-7.69,8.2-16.79
		C124.07,126.76,120.32,119.07,115.87,119.07z"/>
	<path class="st16" d="M115.87,154.14c-0.41,0-0.75-0.34-0.75-0.75v-35.07c0-0.41,0.34-0.75,0.75-0.75s0.75,0.34,0.75,0.75v35.07
		C116.62,153.81,116.29,154.14,115.87,154.14z"/>
	<path class="st16" d="M133.41,136.61H98.34c-0.41,0-0.75-0.34-0.75-0.75s0.34-0.75,0.75-0.75h35.07c0.41,0,0.75,0.34,0.75,0.75
		S133.82,136.61,133.41,136.61z"/>
	<path class="st16" d="M115.87,154.14c-4.44,0-8.74-1.63-12.09-4.59c-0.3-0.27-0.34-0.72-0.09-1.03c3.11-3.86,7.55-6.07,12.17-6.07
		c4.62,0,9.06,2.21,12.17,6.07c0.25,0.31,0.21,0.77-0.09,1.03C124.61,152.51,120.32,154.14,115.87,154.14z M105.34,148.9
		c2.99,2.42,6.7,3.74,10.53,3.74s7.55-1.32,10.53-3.74c-2.79-3.16-6.59-4.95-10.53-4.95S108.13,145.75,105.34,148.9z"/>
	<path class="st16" d="M115.87,129.27c-4.63,0-9.06-2.21-12.17-6.07c-0.25-0.31-0.21-0.77,0.09-1.03c3.35-2.96,7.64-4.59,12.09-4.59
		s8.74,1.63,12.09,4.59c0.3,0.27,0.34,0.72,0.09,1.03C124.93,127.05,120.5,129.27,115.87,129.27z M105.34,122.81
		c2.79,3.16,6.59,4.95,10.53,4.95s7.74-1.79,10.53-4.95c-2.99-2.42-6.7-3.74-10.53-3.74S108.33,120.4,105.34,122.81z"/>
</g>
<g class="st11">
	<path class="st16" d="M349.63,250.38h-5.2h-20.91h-5.2c-0.41,0-0.75,0.34-0.75,0.75v5.2v5.2v5.2v5.2c0,0.41,0.34,0.75,0.75,0.75
		h4.83c0.11,0.06,0.23,0.11,0.37,0.11h20.91c0.14,0,0.26-0.05,0.37-0.11h4.83c0.41,0,0.75-0.34,0.75-0.75v-5.2v-5.2v-5.2v-5.2
		C350.38,250.72,350.05,250.38,349.63,250.38z M348.88,260.78h-3.7v-3.7h3.7V260.78z M345.18,262.28h3.7v3.7h-3.7V262.28z
		 M348.88,255.58h-3.7v-3.7h3.7V255.58z M322.77,260.78h-3.7v-3.7h3.7V260.78z M319.07,262.28h3.7v3.7h-3.7V262.28z M319.07,251.88
		h3.7v3.7h-3.7V251.88z M319.07,267.48h3.7v3.7h-3.7V267.48z M324.27,266.73v-5.2v-5.2v-4.45h19.41v4.45v5.2v5.2v4.56h-19.41V266.73
		z M348.88,271.18h-3.7v-3.7h3.7V271.18z"/>
	<path class="st16" d="M329.66,267.97c-0.13,0-0.26-0.03-0.38-0.1c-0.23-0.13-0.38-0.38-0.38-0.65v-11.27
		c0-0.27,0.14-0.52,0.38-0.65c0.23-0.13,0.52-0.13,0.75,0l9.76,5.64c0.23,0.13,0.38,0.38,0.38,0.65s-0.14,0.52-0.38,0.65l-9.76,5.64
		C329.92,267.94,329.79,267.97,329.66,267.97z M330.41,257.25v8.67l7.51-4.34L330.41,257.25z"/>
</g>
<g class="st11">
	<path class="st16" d="M382.74,18.84l0-0.25c-0.2-0.01-0.4-0.04-0.6-0.04c-0.14,0-0.28,0.01-0.42,0.02v0.27H382.74z"/>
	<path class="st16" d="M382.14,19.82c-2.67,0-5.07,1.29-6.55,3.36c-0.02,0.03-0.04,0.07-0.06,0.1c-0.01,0.01-0.02,0.02-0.03,0.03
		c-0.38,0.56-0.7,1.18-0.94,1.85l2.42,1.99c0.75,0.62,1.69,0.98,2.66,1.05c-0.23-0.5-0.27-1.06-0.11-1.59
		c0.19-0.61,0.63-1.11,1.21-1.37l4.48-2.03c0.93-0.42,1.93-0.65,2.94-0.69C386.64,20.81,384.46,19.82,382.14,19.82z"/>
	<path class="st16" d="M384.69-3.74c-13.02,0-23.58,10.56-23.58,23.58c0,13.02,10.56,23.58,23.58,23.58
		c13.02,0,23.58-10.56,23.58-23.58C408.27,6.82,397.71-3.74,384.69-3.74z M382.02,6.98c2.99-2.69,6.27-1.64,6.41-1.6
		c0.16,0.05,0.29,0.19,0.33,0.35l0,0c0.18,0.62,0.92,3.85-1.91,6.68c-0.58,0.58-1.23,1.05-1.92,1.4c-0.07,0.04-0.15,0.05-0.22,0.05
		c-0.18,0-0.36-0.1-0.45-0.28c-0.12-0.25-0.02-0.55,0.22-0.67c0.59-0.3,1.15-0.71,1.66-1.21c2.16-2.16,1.91-4.57,1.72-5.44
		c-0.3-0.06-0.84-0.15-1.51-0.11c-1.36,0.08-2.6,0.61-3.66,1.56c-0.21,0.18-0.52,0.17-0.71-0.04C381.8,7.48,381.82,7.17,382.02,6.98
		z M377.27,5.82c0.09-0.26,0.37-0.4,0.63-0.32l0.06,0.02c0.26,0.09,0.4,0.37,0.31,0.63c-0.07,0.21-0.26,0.34-0.47,0.34
		c-0.05,0-0.11-0.01-0.16-0.03l-0.05-0.02C377.32,6.36,377.18,6.08,377.27,5.82z M389.18,33.99c-0.12,0.12-0.28,0.19-0.45,0.19
		c-0.17,0-0.33-0.07-0.45-0.19c-0.12-0.12-0.19-0.28-0.19-0.45c0-0.17,0.07-0.33,0.19-0.45c0.12-0.12,0.28-0.19,0.45-0.19
		c0.17,0,0.33,0.07,0.45,0.19c0.12,0.12,0.19,0.28,0.19,0.45C389.37,33.71,389.3,33.87,389.18,33.99z M399.91,33.54
		c0,0.35-0.28,0.63-0.63,0.63h-7.96c-0.35,0-0.63-0.28-0.63-0.63c0-0.35,0.28-0.63,0.63-0.63h3.03v-7.77L390.11,24
		c-1.45-0.39-3-0.26-4.37,0.36l-4.48,2.03c-0.25,0.11-0.44,0.32-0.52,0.59c-0.08,0.26-0.05,0.54,0.1,0.78
		c0.22,0.36,0.66,0.53,1.06,0.42l5.63-1.53c0.34-0.09,0.69,0.11,0.78,0.45c0.09,0.34-0.11,0.69-0.45,0.78l-5.63,1.53
		c-0.19,0.05-0.38,0.08-0.57,0.08c-0.02,0-1.71,0-1.71,0c-1.37,0-2.71-0.48-3.77-1.35l-5.98-4.91c-0.21-0.18-0.5-0.24-0.77-0.18
		c-0.33,0.08-0.58,0.32-0.67,0.66c-0.08,0.33,0.02,0.67,0.28,0.89l7.52,6.53c1.33,1.15,3.03,1.79,4.79,1.79h4.76
		c0.35,0,0.63,0.28,0.63,0.63c0,0.35-0.28,0.63-0.63,0.63h-4.76c-2.07,0-4.06-0.75-5.62-2.1l-7.52-6.53
		c-0.62-0.54-0.88-1.36-0.68-2.15c0.2-0.79,0.81-1.4,1.61-1.59c0.45-0.11,0.92-0.06,1.34,0.12c0.04-0.03,0.08-0.06,0.13-0.08
		l0.41-0.18c1.27-0.55,2.73-0.42,3.88,0.34c0.49-0.6,1.05-1.15,1.67-1.61c1.51-1.13,3.28-1.75,5.16-1.83v-4.11
		c-0.29,0.05-0.69,0.1-1.15,0.1c-0.15,0-0.32-0.01-0.48-0.02c-1.17-0.08-2.91-0.51-4.51-2.11c-2.83-2.82-2.09-6.06-1.91-6.68l0,0
		c0.04-0.16,0.16-0.3,0.33-0.35c0.03-0.01,0.76-0.25,1.84-0.23c0.28,0,0.5,0.23,0.49,0.51c0,0.27-0.23,0.49-0.5,0.49
		c0,0-0.01,0-0.01,0c-0.55-0.01-0.99,0.06-1.26,0.12c-0.19,0.88-0.45,3.28,1.72,5.44c1.1,1.09,2.38,1.71,3.83,1.82
		c0.38,0.03,0.72,0.02,1.01-0.01l-4.25-4.24c-0.2-0.19-0.2-0.51,0-0.71c0.19-0.2,0.51-0.2,0.71,0l4.26,4.25
		c0.03-0.29,0.04-0.63,0.01-1.01c-0.11-1.44-0.72-2.73-1.82-3.82c-0.29-0.29-0.59-0.54-0.9-0.76c-0.23-0.16-0.28-0.47-0.12-0.7
		c0.16-0.23,0.47-0.28,0.7-0.12c0.36,0.25,0.71,0.55,1.04,0.87c1.17,1.17,1.72,2.42,1.96,3.46l2.12-2.12c0.2-0.19,0.51-0.19,0.71,0
		c0.19,0.2,0.19,0.51,0,0.71l-2.66,2.66c0.01,0.15,0.01,0.3,0,0.44l-0.11,6.16c2.87,0.18,5.49,1.66,7.11,4.06
		c0.2,0.04,0.39,0.08,0.59,0.13l3.91,1.05V23.4c0-0.35,0.28-0.63,0.63-0.63h4.3c0.35,0,0.63,0.28,0.63,0.63V33.54z"/>
	<path class="st16" d="M371.66,22.78l1.87,1.54c0.18-0.44,0.4-0.86,0.64-1.27C373.42,22.56,372.49,22.46,371.66,22.78z"/>
	<path class="st16" d="M395.61,32.91h3.03v-8.87h-3.03V32.91z M396.68,25.54c0.12-0.12,0.28-0.19,0.45-0.19
		c0.17,0,0.33,0.07,0.45,0.19c0.12,0.12,0.19,0.28,0.19,0.45c0,0.17-0.07,0.33-0.19,0.45c-0.12,0.12-0.28,0.19-0.45,0.19
		c-0.17,0-0.33-0.07-0.45-0.19c-0.12-0.12-0.19-0.28-0.19-0.45C396.49,25.83,396.56,25.66,396.68,25.54z"/>
</g>
<g>
	<path class="st13" d="M435.61,86.85c-8.1-19.16-18.91-36.8-32.21-52.66c-0.31,0.4-0.63,0.8-0.97,1.18
		c13.12,15.69,23.79,33.14,31.8,52.07c4.43,10.48,8,21.38,10.64,32.46c0.48-0.12,0.97-0.22,1.47-0.31
		C443.67,108.41,440.08,97.42,435.61,86.85z"/>
</g>
<g class="st11">
	<path class="st16" d="M263.1,328.65h31.17v-15.34H263.1V328.65z M289.52,320.99l-2.47,0.9l1.8,1.8l-1.52,1.52l-1.8-1.8l-0.9,2.47
		l-2.57-7.47L289.52,320.99z"/>
	<path class="st16" d="M278.69,294.01c-15.47,0-28.01,12.54-28.01,28.01s12.54,28.01,28.01,28.01c15.47,0,28.01-12.54,28.01-28.01
		S294.16,294.01,278.69,294.01z M297.84,333.23h-38.3v-3h2.04v-19.09h34.22v19.09h2.04V333.23z"/>
</g>
<path class="st13" d="M126.37,259.17c-9.07,0-16.42,7.35-16.42,16.42s7.35,16.42,16.42,16.42c9.07,0,16.42-7.35,16.42-16.42
	S135.44,259.17,126.37,259.17z M121.56,283.6v-16.02l13.88,8.01L121.56,283.6z"/>
<path class="st13" d="M250.52,327.19c-2.4,0.11-4.85,0.16-7.26,0.16c-21.5,0-42.35-4.21-61.99-12.51
	c-15.97-6.75-30.56-15.97-43.5-27.45c-0.36,0.35-0.74,0.68-1.13,1c13.1,11.64,27.88,20.98,44.05,27.83
	c19.82,8.38,40.87,12.63,62.57,12.63c2.44,0,4.9-0.05,7.33-0.16L250.52,327.19z"/>
<g class="st11">
	<path class="st16" d="M72.95,22.57c-2.11,0-3.83-1.72-3.83-3.83s1.72-3.83,3.83-3.83c2.11,0,3.83,1.72,3.83,3.83
		S75.06,22.57,72.95,22.57z M72.95,15.75c-1.65,0-2.99,1.34-2.99,2.99s1.34,2.99,2.99,2.99s2.99-1.34,2.99-2.99
		S74.6,15.75,72.95,15.75z"/>
	<path class="st16" d="M87.28,14.91c-2.11,0-3.83-1.72-3.83-3.83s1.72-3.83,3.83-3.83c2.11,0,3.83,1.72,3.83,3.83
		S89.39,14.91,87.28,14.91z M87.28,8.1c-1.65,0-2.99,1.34-2.99,2.99s1.34,2.99,2.99,2.99c1.65,0,2.99-1.34,2.99-2.99
		S88.93,8.1,87.28,8.1z"/>
	<path class="st16" d="M87.28,29.84c-2.11,0-3.83-1.72-3.83-3.83s1.72-3.83,3.83-3.83c2.11,0,3.83,1.72,3.83,3.83
		S89.39,29.84,87.28,29.84z M87.28,23.03c-1.65,0-2.99,1.34-2.99,2.99c0,1.65,1.34,2.99,2.99,2.99c1.65,0,2.99-1.34,2.99-2.99
		C90.27,24.37,88.93,23.03,87.28,23.03z"/>
	<path class="st16" d="M83.87,25.97c-0.08,0-0.16-0.02-0.24-0.07l-7.86-5.32c-0.17-0.12-0.23-0.34-0.14-0.53
		c0.2-0.41,0.3-0.85,0.3-1.3s-0.1-0.89-0.3-1.3c-0.09-0.19-0.03-0.42,0.14-0.53l7.86-5.32c0.19-0.13,0.46-0.08,0.58,0.11
		c0.13,0.19,0.08,0.45-0.11,0.58l-7.57,5.12c0.16,0.43,0.24,0.87,0.24,1.33s-0.08,0.9-0.24,1.33l7.57,5.12
		c0.19,0.13,0.24,0.39,0.11,0.58C84.14,25.9,84.01,25.97,83.87,25.97z"/>
</g>
<g class="st11">
	<path class="st16" d="M55.31,231.83c-15.47,0-28.01,12.54-28.01,28.01c0,15.47,12.54,28.01,28.01,28.01
		c15.47,0,28.01-12.54,28.01-28.01C83.32,244.37,70.78,231.83,55.31,231.83z M73.62,272.2c-3.1,5.02-9.69,6.58-14.71,3.47
		c-0.89-0.59-1.92-0.94-2.98-1.05c-0.52-0.04-1.04-0.04-1.55,0.01c-1.05,0.1-2.05,0.46-2.93,1.04c-2.04,1.27-4.45,1.8-6.84,1.53
		c-5.86-0.67-10.07-5.97-9.4-11.83c0.51-4.6,4.83-8.91,9.44-9.4c0.39-0.04,0.79-0.07,1.18-0.07h7.35v-2.67h1.34v-1.34
		c0-0.74-0.6-1.34-1.34-1.34h-3.34c-1.53,0-2.77-1.29-2.67-2.85c0.09-1.42,1.34-2.49,2.76-2.49h10.6c0.78,0,1.41-0.67,1.33-1.47
		c-0.07-0.69-0.69-1.21-1.39-1.21h-3.28c-1.48,0-2.67-1.2-2.67-2.67v-2c0-0.37,0.3-0.67,0.67-0.67s0.67,0.3,0.67,0.67v2
		c0,0.74,0.6,1.34,1.34,1.34h3.34c1.53,0,2.77,1.29,2.67,2.85c-0.09,1.42-1.34,2.49-2.76,2.49h-10.6c-0.78,0-1.41,0.67-1.33,1.47
		c0.07,0.69,0.69,1.21,1.39,1.21h3.28c1.48,0,2.67,1.2,2.67,2.67v1.34h1.34v2.67h7.35c0.39,0,0.79,0.02,1.18,0.07
		c4.61,0.49,8.93,4.8,9.44,9.4C75.42,267.74,74.89,270.15,73.62,272.2z"/>
	<g>
		<path class="st16" d="M64.53,269.25c-0.74,0-1.34,0.6-1.34,1.34c0,0.74,0.6,1.34,1.34,1.34s1.34-0.6,1.34-1.34
			C65.86,269.85,65.27,269.25,64.53,269.25z"/>
		<path class="st16" d="M46.49,265.24v-2.67h-1.34v2.67c0,0.37-0.3,0.67-0.67,0.67h-2.67v1.34h2.67c0.37,0,0.67,0.3,0.67,0.67v2.67
			h1.34v-2.67c0-0.37,0.3-0.67,0.67-0.67h2.67v-1.34h-2.67C46.79,265.91,46.49,265.61,46.49,265.24z"/>
		<path class="st16" d="M64.53,263.91c0.74,0,1.34-0.6,1.34-1.34c0-0.74-0.6-1.34-1.34-1.34c-0.74,0-1.34,0.6-1.34,1.34
			C63.19,263.31,63.79,263.91,64.53,263.91z"/>
		<path class="st16" d="M59.85,265.24c-0.74,0-1.34,0.6-1.34,1.34s0.6,1.34,1.34,1.34s1.34-0.6,1.34-1.34S60.59,265.24,59.85,265.24
			z"/>
		<path class="st16" d="M69.2,265.24c-0.74,0-1.34,0.6-1.34,1.34s0.6,1.34,1.34,1.34s1.34-0.6,1.34-1.34S69.94,265.24,69.2,265.24z"
			/>
		<path class="st16" d="M73.82,265.5c-0.44-3.96-4.3-7.8-8.26-8.22c-0.34-0.04-0.69-0.06-1.04-0.06h-18.7
			c-0.35,0-0.69,0.02-1.04,0.06c-3.96,0.43-7.82,4.27-8.26,8.22c-0.24,2.09,0.23,4.2,1.34,5.99c2.72,4.39,8.48,5.75,12.87,3.03
			c1.06-0.69,2.27-1.11,3.53-1.23c0.3-0.02,0.6-0.04,0.9-0.04c0.29,0,0.57,0.01,0.85,0.03c1.28,0.12,2.51,0.54,3.59,1.24
			c3.85,2.38,8.86,1.66,11.88-1.72C73.29,270.82,74.14,268.16,73.82,265.5z M51.17,267.91c0,0.37-0.3,0.67-0.67,0.67h-2.67v2.67
			c0,0.37-0.3,0.67-0.67,0.67h-2.67c-0.37,0-0.67-0.3-0.67-0.67v-2.67h-2.67c-0.37,0-0.67-0.3-0.67-0.67v-2.67
			c0-0.37,0.3-0.67,0.67-0.67h2.67v-2.67c0-0.37,0.3-0.67,0.67-0.67h2.67c0.37,0,0.67,0.3,0.67,0.67v2.67h2.67
			c0.37,0,0.67,0.3,0.67,0.67V267.91z M64.53,259.9c1.48,0,2.67,1.2,2.67,2.67c0,1.48-1.2,2.67-2.67,2.67
			c-1.48,0-2.67-1.2-2.67-2.67C61.86,261.09,63.05,259.9,64.53,259.9z M59.85,269.25c-1.48,0-2.67-1.2-2.67-2.67s1.2-2.67,2.67-2.67
			c1.48,0,2.67,1.2,2.67,2.67S61.33,269.25,59.85,269.25z M64.53,273.26c-1.48,0-2.67-1.2-2.67-2.67c0-1.48,1.2-2.67,2.67-2.67
			c1.48,0,2.67,1.2,2.67,2.67C67.2,272.06,66,273.26,64.53,273.26z M69.2,269.25c-1.48,0-2.67-1.2-2.67-2.67s1.2-2.67,2.67-2.67
			c1.48,0,2.67,1.2,2.67,2.67S70.68,269.25,69.2,269.25z"/>
	</g>
</g>
<g>
	<path class="st13" d="M96.72,314.65c-9.71-9.71-18.35-20.24-25.88-31.5c-0.42,0.28-0.84,0.54-1.27,0.8
		c7.59,11.35,16.3,21.97,26.09,31.76c10.49,10.49,22.12,19.89,34.57,27.92l0.81-1.26C118.68,334.4,107.13,325.07,96.72,314.65z"/>
</g>
<g class="st11">
	<path class="st16" d="M202.09,279.43c0.33,0.73,1.14,1.14,1.88,0.82l13.8-5.47c0.73-0.33,1.14-1.14,0.82-1.88l-5.47-13.88
		c-0.33-0.73-1.14-1.06-1.88-0.82l-13.88,5.47c-0.73,0.33-1.14,1.14-0.82,1.88L202.09,279.43z M211.8,259.84l5.31,13.47l-13.47,5.31
		l-5.31-13.47L211.8,259.84z"/>
	<path class="st16" d="M205.27,281.64h-14.86c-0.82,0-1.47,0.65-1.47,1.47v14.86c0,0.82,0.65,1.47,1.47,1.47h14.86
		c0.82,0,1.47-0.65,1.47-1.47v-14.86C206.74,282.29,206.09,281.64,205.27,281.64z M205.11,297.8h-14.53v-14.53h14.53V297.8
		L205.11,297.8z"/>
	<path class="st16" d="M227.23,281.55l-14.37-3.84c-0.82-0.16-1.55,0.24-1.8,1.06l-3.84,14.37c-0.24,0.73,0.24,1.55,1.06,1.8l0,0
		l14.37,3.84c0.73,0.24,1.55-0.24,1.8-1.06l0,0l3.75-14.37C228.45,282.53,227.96,281.8,227.23,281.55z M222.9,297.06l-14.04-3.67
		l3.75-14.04l14.04,3.75L222.9,297.06z"/>
	<path class="st16" d="M205.19,273.39c0,0.16,0,0.24,0.08,0.33c0.08,0.16,0.24,0.33,0.41,0.41c0.16,0.08,0.41,0.08,0.65,0
		c0.16-0.08,0.33-0.24,0.41-0.41c0.08-0.33,0.08-0.65,0.08-0.98v-1.14l3.27-1.22l0.73,0.82l0.33,0.33c0.08,0.08,0.24,0.16,0.33,0.24
		c0.08,0.08,0.16,0.08,0.33,0.08c0.08,0,0.24,0,0.33-0.08c0.16-0.08,0.33-0.24,0.41-0.41c0.08-0.16,0.08-0.41,0-0.57
		c-0.16-0.24-0.33-0.57-0.57-0.73l-4.08-4.33l-0.49-0.49c-0.08-0.16-0.24-0.24-0.41-0.33c-0.16-0.08-0.33-0.16-0.49-0.16
		c-0.41,0-0.82,0.16-1.14,0.41c-0.08,0.16-0.16,0.33-0.24,0.49c-0.08,0.24-0.08,0.41-0.08,0.65s0,0.41,0,0.65v5.96
		C205.11,273.06,205.11,273.23,205.19,273.39z M209.03,269.31l-2.37,0.9l-0.08-3.67L209.03,269.31z"/>
	<path class="st16" d="M195.56,294.37h2.61c0.41,0,0.73-0.08,1.14-0.08c0.33,0,0.57-0.08,0.9-0.24c0.41-0.16,0.73-0.49,0.98-0.82
		c0.24-0.41,0.41-0.82,0.41-1.31c0-0.98-0.65-1.88-1.71-2.04c0.82-0.33,1.31-1.06,1.31-1.88c0-0.24,0-0.49-0.08-0.73
		c-0.08-0.24-0.16-0.41-0.33-0.65c-0.16-0.16-0.33-0.33-0.49-0.49c-0.24-0.16-0.49-0.24-0.82-0.33c-0.33-0.08-0.73-0.08-1.06-0.08
		h-2.86c-0.33,0-0.57,0.08-0.82,0.24c-0.16,0.24-0.24,0.49-0.24,0.82v6.37c0,0.33,0.08,0.57,0.24,0.82
		C194.99,294.37,195.23,294.45,195.56,294.37z M196.21,287.19h1.39c0.49,0,0.98,0.08,1.39,0.24c0.33,0.16,0.49,0.49,0.49,0.82
		c0,0.16-0.08,0.41-0.16,0.57c-0.08,0.24-0.33,0.41-0.57,0.49c-0.33,0.08-0.65,0.16-0.98,0.16h-1.55V287.19z M196.21,290.61h1.8
		c0.49,0,0.98,0.08,1.39,0.33c0.33,0.24,0.49,0.57,0.41,0.9c0,0.82-0.57,1.22-1.71,1.22h-1.88V290.61z"/>
	<path class="st16" d="M214.33,290.21c0.16,0.33,0.33,0.65,0.65,0.9c0.24,0.24,0.57,0.49,0.9,0.65c0.33,0.16,0.73,0.33,1.14,0.41
		c0.49,0.16,1.06,0.16,1.55,0.16c0.41-0.08,0.9-0.24,1.22-0.49c0.33-0.16,0.57-0.41,0.82-0.73c0.16-0.24,0.33-0.49,0.41-0.82
		c0.08-0.16,0-0.41-0.08-0.57c-0.08-0.16-0.24-0.33-0.41-0.33c-0.16-0.08-0.41,0-0.57,0.08c-0.16,0.16-0.33,0.24-0.41,0.49
		c-0.24,0.41-0.57,0.65-1.06,0.82c-0.41,0.16-0.9,0.16-1.31,0c-0.41-0.08-0.73-0.24-1.06-0.49c-0.24-0.33-0.49-0.73-0.49-1.14
		c-0.08-0.57,0-1.14,0.16-1.63c0.16-0.82,0.57-1.55,1.22-2.12c0.49-0.41,1.22-0.57,1.88-0.33c0.41,0.08,0.73,0.33,0.98,0.57
		c0.24,0.33,0.41,0.73,0.49,1.14c0.08,0.24,0.08,0.41,0.24,0.65c0.08,0.16,0.24,0.24,0.41,0.24c0.16,0.08,0.41,0,0.57-0.08
		c0.16-0.08,0.33-0.24,0.33-0.41c0.08-0.41,0.08-0.82-0.16-1.22c-0.16-0.65-0.49-1.14-0.9-1.47c-0.49-0.41-1.06-0.65-1.63-0.82
		c-0.57-0.16-1.06-0.16-1.63-0.16c-0.49,0.08-1.06,0.24-1.47,0.49c-0.49,0.33-0.9,0.65-1.22,1.14c-0.33,0.49-0.57,1.06-0.73,1.71
		c-0.08,0.41-0.16,0.82-0.16,1.22s0,0.73,0.08,1.14C214.09,289.55,214.25,289.88,214.33,290.21z"/>
</g>
<path class="st13" d="M82.87,169.09c-11.45,0-20.74,9.29-20.74,20.74s9.29,20.74,20.74,20.74s20.74-9.29,20.74-20.74
	S94.33,169.09,82.87,169.09z M82.87,177.29c3.45,0,6.08,2.66,6.08,6.2c0,3.63-2.72,6.59-6.08,6.59c-3.36,0-6.08-2.96-6.08-6.59
	C76.8,179.94,79.42,177.29,82.87,177.29z M93.65,202.38H72.09c-0.52,0-0.92-0.4-0.92-0.92c0-6.47,4.15-10.04,11.69-10.04
	c7.54,0,11.69,3.57,11.69,10.04C94.56,201.98,94.17,202.38,93.65,202.38z"/>
<path class="st13" d="M450.27,158.19c0.16,3.3,0.24,6.62,0.24,9.91c0,27.98-5.48,55.12-16.29,80.67
	c-6.39,15.11-14.6,29.47-24.41,42.68l1.21,0.89c9.88-13.31,18.15-27.78,24.58-43c10.89-25.74,16.41-53.07,16.41-81.25
	c0-3.33-0.09-6.67-0.25-10.01C451.28,158.15,450.77,158.17,450.27,158.19z"/>
<polygon class="st9" points="393.24,328.06 364.68,187.81 519.31,169.09 516.31,326.51 "/>
<g>
	<path class="st17" d="M391.43,333.21l-30.33-148.22l161.95-20.5l-4.07,165.69L391.43,333.21z M368.96,190.61l27.81,135.9
		l115.82-2.75l3.73-151.8L368.96,190.61z"/>
	<g>
		<path class="st17" d="M531.61,243.08c0.6,0.05,1.26,0.09,1.97,0.1h0.62c3.15,0.37,5.72,0.9,7.71,1.6c1.21,0.58,2.31,1.31,3.31,2.2
			c1.58,1.7,2.35,3.14,2.32,4.32c0.05,0,0.16,0.4,0.31,1.21c-0.01,0.92-0.49,2.71-1.42,5.38c-1.04,1.86-2.53,3.08-4.46,3.66
			c-1.67,0.45-3.95,0.86-6.84,1.21l-0.35,0.27l0.08,0.45c-0.01,0.36-0.05,0.67-0.1,0.95c0.05,2,0.08,3.16,0.08,3.47
			c-0.04,0.23-0.06,0.36-0.06,0.39c0.1,1.54,0.14,2.67,0.12,3.41v0.41l-0.49,0.99c-0.08,0-0.12-0.02-0.12-0.06
			c-1.47,0.01-2.21,0.07-2.22,0.16c-0.04-0.01-0.1-0.04-0.18-0.08c-0.96,0.08-1.92,0.18-2.88,0.29c-0.36-0.15-0.53-0.34-0.53-0.56
			l0.1-0.6l-0.08-0.33l0.08-0.6c0-0.47-0.05-1.03-0.16-1.69c0-2.97-0.04-4.86-0.12-5.65c0.07-0.4,0.1-0.74,0.1-1.03
			c-0.07-8.54-0.17-12.81-0.31-12.83c0-0.34,0.02-0.65,0.06-0.92c-0.03-0.31-0.04-0.71-0.04-1.19c0.01-0.14,0.04-0.29,0.08-0.47
			c-0.11-1.37-0.16-2.42-0.14-3.15l-0.06-0.12c0.21-0.67,0.39-1.01,0.56-1.01C529.61,243.18,530.63,243.11,531.61,243.08z
			 M534.07,246.6l-0.02,0.95l0.31,9.62l-0.04,2.34l0.06-0.02c2.74-0.68,4.33-1.28,4.77-1.79c1.79-1.29,2.71-2.94,2.76-4.95
			l0.02-0.47c0.03-1.56-1.19-3.23-3.66-5.01c0-0.22-1.13-0.45-3.39-0.7l-0.45-0.02L534.07,246.6z"/>
		<path class="st17" d="M553.51,242.55c0.29,0.3,0.4,0.69,0.33,1.15l-0.1,0.8c-0.05,5.12,0.01,8.79,0.2,11
			c-0.03,0.12-0.01,1.14,0.06,3.06c-0.08,1.43-0.08,2.86,0.02,4.3l-0.12,0.35c0.07,0.01,0.07,0.64,0,1.87
			c0.01,0.41,0.04,0.62,0.08,0.64l-0.06,0.1c-0.04,0.25-0.07,1.18-0.08,2.8l-0.12,0.86c0.01,0.71-0.02,1.99-0.1,3.84l-0.02,0.06
			c-0.37,0.7-0.64,1.03-0.82,1.01c-1.66,0.01-3.02-0.05-4.09-0.21c-0.11-0.05-0.15-0.18-0.12-0.39c0-0.03,0.04-0.15,0.12-0.37
			c-0.05-0.55-0.07-1.79-0.04-3.74c-0.03-0.63,0.01-1.8,0.12-3.51l0.16-17.61c0.03-0.18-0.09-1.73-0.35-4.64
			c-0.04-0.3-0.04-0.56,0-0.76l0.06-0.47c0.05-0.37,0.28-0.53,0.68-0.47c0.11,0.01,0.58,0.04,1.42,0.08
			c0.26,0.11,0.42,0.17,0.47,0.18c0.16-0.05,0.34-0.07,0.51-0.06l0.55,0.08C552.51,242.53,552.93,242.55,553.51,242.55z"/>
		<path class="st17" d="M575.42,252.15c0.84,0.07,1.21,0.54,1.13,1.42c-0.04,0.48,0.16,3.24,0.6,8.28c0.23,0.97,0.91,2.83,2.03,5.57
			c0.55,0.92,1,1.6,1.36,2.03c0.99,1.45,1.45,2.47,1.4,3.06v0.06c-0.01,0.12-0.18,0.26-0.51,0.41l-0.33-0.08l-0.45-0.04
			c-0.23,0.08-0.35,0.14-0.35,0.16l-0.31-0.29c-0.14,0.07-0.47,0.12-1.01,0.16l-1.05-0.08c-0.42-0.04-0.87-0.57-1.34-1.58
			l-1.71-3.15h-0.08c-0.79,1-1.68,2.01-2.65,3.02c-1.18,0.97-2.31,1.51-3.39,1.62c-1.32,0.38-2.83,0.5-4.54,0.35
			c-3.48-0.64-5.64-1.32-6.47-2.03c-1.26-0.63-2.03-1.36-2.32-2.2c-0.48-1.15-0.69-2.08-0.64-2.77l0.06-0.6
			c0.14-1.64,0.64-3.1,1.52-4.38c0.03-0.32,0.9-1.5,2.63-3.56c1.82-1.82,3.15-2.84,3.99-3.04c1.07-0.75,2.03-1.09,2.88-1.01
			c0.22,0.05,0.35,0.09,0.39,0.1c0.19-0.12,1.45-0.08,3.76,0.12l2.2,0.72c0.45,0.26,0.79,0.4,1.03,0.43h0.14
			c0.03-0.34,0-1.05-0.08-2.14C573.33,252.37,574.04,252.17,575.42,252.15z M559.95,263.41l-0.08,1.05c0.18,1.88,0.6,3.13,1.25,3.76
			c1.1,1.08,2.15,1.66,3.17,1.75l1.13,0.1c0.47,0.04,1.09-0.24,1.87-0.84c1.7-0.63,3.03-1.95,3.99-3.97
			c0.31-0.47,0.51-1.18,0.6-2.14l0.04-0.53c-0.26-1.58-0.8-2.73-1.62-3.45c-0.46-0.4-1.34-0.76-2.63-1.09
			c-2.14-0.19-3.85,0.16-5.14,1.07C561.11,260.92,560.25,262.35,559.95,263.41z M580.19,272.76v0.06l0.25,0.02l0.02-0.06
			c0-0.1-0.04-0.14-0.12-0.14C580.24,272.64,580.19,272.68,580.19,272.76z"/>
		<path class="st17" d="M590.76,241.3l1.13,0.2c0.29,0.05,0.38,0.43,0.27,1.13c-0.04,3.75-0.11,6.8-0.2,9.15l0.12,0.08
			c0.45,0.08,2.24,0.12,5.36,0.1c0.66,0.22,0.97,0.39,0.94,0.51c0.14,0.73,0.06,1.92-0.23,3.6c0.11,0.18,0.14,0.4,0.08,0.68v0.06
			l-0.45,0.66c-0.03,0-0.15-0.04-0.37-0.12c-3.84-0.32-5.78-0.32-5.84,0c-0.34,3.97-0.3,7.31,0.12,10.01
			c0.66,3.17,1.33,4.81,2.01,4.93c0.52,0.1,1.28-0.69,2.26-2.34c0.16-0.9,0.41-1.33,0.74-1.27c0.74,0,1.19,0.02,1.36,0.06
			c2.18,0.4,3.24,0.77,3.19,1.11c-0.41,1.18-0.71,1.75-0.88,1.73c-0.73,1.19-1.52,2.05-2.38,2.57c-0.74,0.46-1.34,0.71-1.81,0.74
			c-0.03,0.16-0.93,0.14-2.71-0.08c-0.04-0.01-0.1-0.05-0.16-0.1c-0.37-0.03-0.67-0.06-0.9-0.1l-0.49-0.08
			c-2.75-0.51-4.38-2.86-4.89-7.07c-0.4-2.25-0.51-5.06-0.33-8.43c0.18-1.36,0.19-2.05,0.04-2.07c-0.31-0.05-1.69-0.04-4.11,0.04
			c-0.51-0.08-1.14-0.06-1.89,0.06c-0.25-0.04-0.33-0.68-0.25-1.91c-0.07-0.26-0.11-1.05-0.12-2.38c0.14-0.74,0.39-1.19,0.76-1.34
			l0.23,0.12l5.1,0.18c0.52,0.04,0.79,0,0.8-0.12c0.03-0.15,0.12-3.47,0.27-9.95c-0.1-0.01-0.14-0.13-0.12-0.35
			c0.05-0.31,0.58-0.38,1.58-0.18C589.84,241.18,590.44,241.24,590.76,241.3z"/>
		<path class="st17" d="M622.34,252.15c0.84,0.07,1.21,0.54,1.13,1.42c-0.04,0.48,0.16,3.24,0.6,8.28c0.23,0.97,0.91,2.83,2.03,5.57
			c0.55,0.92,1,1.6,1.36,2.03c0.99,1.45,1.45,2.47,1.4,3.06v0.06c-0.01,0.12-0.18,0.26-0.51,0.41l-0.33-0.08l-0.45-0.04
			c-0.23,0.08-0.35,0.14-0.35,0.16l-0.31-0.29c-0.14,0.07-0.47,0.12-1.01,0.16l-1.05-0.08c-0.42-0.04-0.87-0.57-1.34-1.58
			l-1.71-3.15h-0.08c-0.79,1-1.68,2.01-2.65,3.02c-1.18,0.97-2.31,1.51-3.39,1.62c-1.32,0.38-2.83,0.5-4.54,0.35
			c-3.48-0.64-5.64-1.32-6.47-2.03c-1.26-0.63-2.03-1.36-2.32-2.2c-0.48-1.15-0.69-2.08-0.64-2.77l0.06-0.6
			c0.14-1.64,0.64-3.1,1.52-4.38c0.03-0.32,0.9-1.5,2.63-3.56c1.82-1.82,3.15-2.84,3.99-3.04c1.07-0.75,2.03-1.09,2.88-1.01
			c0.22,0.05,0.35,0.09,0.39,0.1c0.19-0.12,1.45-0.08,3.76,0.12l2.2,0.72c0.45,0.26,0.79,0.4,1.03,0.43h0.14
			c0.03-0.34,0-1.05-0.08-2.14C620.25,252.37,620.96,252.17,622.34,252.15z M606.87,263.41l-0.08,1.05c0.18,1.88,0.6,3.13,1.25,3.76
			c1.1,1.08,2.15,1.66,3.17,1.75l1.13,0.1c0.47,0.04,1.09-0.24,1.87-0.84c1.7-0.63,3.03-1.95,3.99-3.97
			c0.31-0.47,0.51-1.18,0.6-2.14l0.04-0.53c-0.26-1.58-0.8-2.73-1.62-3.45c-0.46-0.4-1.34-0.76-2.63-1.09
			c-2.14-0.19-3.85,0.16-5.14,1.07C608.03,260.92,607.17,262.35,606.87,263.41z M627.11,272.76v0.06l0.25,0.02l0.02-0.06
			c0-0.1-0.04-0.14-0.12-0.14C627.16,272.64,627.11,272.68,627.11,272.76z"/>
		<path class="st17" d="M641.07,242.34c5.4,0.25,8.1,0.75,8.1,1.52c0.97,0.48,1.46,1.2,1.46,2.16c0.07,0.01,0.19,0.54,0.35,1.58
			c0,0.46-0.67,0.77-2.01,0.9c0,0.1-0.16,0.14-0.49,0.14h-0.2c-0.14-0.04-0.48-0.9-1.03-2.57c-0.86-0.97-1.35-1.46-1.46-1.46
			c-0.64-0.27-1.4-0.41-2.28-0.41c-1.25,0.45-2.17,1.14-2.77,2.08c-0.7,1.18-1.05,3.12-1.05,5.82c0.36,4.01,0.71,6.02,1.05,6.02
			c1.47-0.04,2.41-0.11,2.84-0.21l0.41,0.06c1.1-0.14,2.34-0.23,3.74-0.27c0.22,0,0.45,0.97,0.7,2.9c0,0.33-0.32,0.49-0.97,0.49
			c-0.84,0.04-1.27,0.09-1.32,0.14c-0.25-0.05-0.46-0.08-0.64-0.08c-1.37,0.1-2.08,0.14-2.14,0.14c-0.4,0-1.19-0.02-2.36-0.06
			c-0.08,0.11-0.12,0.2-0.12,0.27c0.6,3.85,1.04,7.17,1.32,9.97c0.03,0,0.12,0.35,0.27,1.05v0.41c0,0.46-0.81,0.7-2.43,0.7
			c-0.16,0-1.16,0.14-2.98,0.41c-0.45,0-0.68-0.25-0.68-0.76v-0.62c0-0.05-0.03-0.08-0.08-0.08c0.14-0.33,0.21-0.79,0.21-1.38v-0.84
			c0-1.37-0.11-2.71-0.33-4.01c0-0.05,0.02-0.12,0.06-0.21c-0.23-3.14-0.49-4.71-0.76-4.71h-1.17l-4.3,0.27
			c-0.4,0-0.63-0.46-0.7-1.38l-0.21-0.97v-0.08c0.16-0.27,0.37-0.41,0.62-0.41h0.29l4.15-0.35c0.16,0.05,0.37,0.08,0.62,0.08
			c0.33-0.07,0.49-0.16,0.49-0.29c-0.37-3.01-0.55-5.09-0.55-6.23c0-0.05-0.02-0.12-0.06-0.21c0.04-0.08,0.06-0.18,0.06-0.29
			c0-0.29-0.02-0.58-0.06-0.88c0.25-2.8,0.64-4.6,1.17-5.41c0.55-1.3,1.29-2.13,2.22-2.49
			C639.27,242.51,640.29,242.34,641.07,242.34z"/>
		<path class="st17" d="M659.94,252.02H660c1.9,0,4.03,0.54,6.39,1.62c0.9,0.45,1.88,1.36,2.92,2.73c0,0.12,0.34,0.62,1.03,1.48
			c0.11,0.4,0.38,1.04,0.82,1.91c0.67,1.85,1.01,3.23,1.01,4.15v0.2c0,0.84-0.63,2.33-1.89,4.48c-0.58,0.74-1.12,1.24-1.64,1.5
			c-1.89,1.95-4.63,2.92-8.22,2.92h-0.47c-2.15,0-3.6-0.41-4.36-1.23c-0.96-0.81-2.09-2.1-3.39-3.86c-0.9-1.34-1.36-2.8-1.36-4.36
			c-0.08,0-0.13-0.27-0.14-0.8c0-0.12,0.05-0.26,0.14-0.41c0.19-2.27,0.69-4.2,1.48-5.78c1.15-1.88,2.47-3.06,3.95-3.53
			C657.49,252.37,658.72,252.02,659.94,252.02z M656.19,261.6c0.04,0.67,0.06,1.12,0.06,1.36h0.08c-0.05,0.1-0.08,0.16-0.08,0.21
			c0,1.21,0.77,2.71,2.32,4.5c0.68,0.53,1.54,0.8,2.57,0.8c3.01,0,5.01-1.15,5.98-3.45c0.14-0.38,0.23-0.86,0.29-1.44
			c0-1.52-0.69-3.15-2.05-4.89c-1.19-1.44-2.41-2.36-3.66-2.77c-0.16-0.1-0.35-0.14-0.55-0.14h-0.12c-1.59,0-2.91,1.11-3.95,3.33
			C656.56,259.85,656.26,260.68,656.19,261.6z"/>
		<path class="st17" d="M676.62,252.13l0.18,0.02c0.58,0.03,0.84,0.55,0.78,1.58c0,0.78,0.02,1.27,0.06,1.48h0.12
			c1.14-0.51,1.79-0.76,1.95-0.76c0.7-0.2,1.49-0.29,2.36-0.25c0.97,0.05,2.89,0.71,5.75,1.97c1.45,1.22,2.15,2.45,2.1,3.68
			c0.18,0.01,0.36,0.87,0.53,2.57l-0.08,0.31v0.25c-0.01,0.22-0.01,0.57,0,1.05l-0.12,0.06c-0.36-0.03-0.73-0.03-1.11,0
			c-1.89-0.1-2.83-0.29-2.82-0.57l-0.45-3.12c-0.15-1.26-0.55-2.33-1.19-3.21c-0.41-0.27-0.79-0.42-1.15-0.43l-0.43-0.02
			c-0.89-0.04-2.01,0.64-3.37,2.03c-1.1,1.95-1.67,3.42-1.73,4.42c-0.04,0.82-0.12,3.08-0.23,6.78c0.14,0.49,0.25,1.1,0.33,1.81
			c-0.1,0.3-0.14,0.51-0.14,0.62l0.04,0.43c-0.07,0.2-0.22,0.3-0.45,0.29l-1.73-0.1c-0.63-0.03-1.41,0.01-2.34,0.12
			c-0.27-0.01-0.41-0.9-0.41-2.67c-0.23-1.52-0.36-5.06-0.37-10.63l-0.18-4.89l0.04-0.74c-0.05-0.58-0.1-0.87-0.14-0.88
			c0.04-0.07,0.07-0.12,0.08-0.16c-0.07-0.38-0.1-0.6-0.1-0.64c0.04-0.07,0.07-0.14,0.08-0.23l0.74,0.02
			C674.92,252.16,676.05,252.1,676.62,252.13z"/>
		<path class="st17" d="M696.05,251.96c0.51,0.03,0.71,0.96,0.62,2.79c-0.05,0.08-0.09,0.18-0.1,0.29l0.14,0.08l0.45,0.02
			c0.86-0.33,1.74-0.48,2.63-0.45c0.2,0,0.48,0.03,0.82,0.1l0.45-0.04c3.81,0.42,5.94,1.06,6.39,1.89c0.6,0.62,1.13,1.39,1.58,2.32
			c0.1,0.01,0.64-0.5,1.64-1.54c1.56-0.79,2.66-1.31,3.31-1.54c0.67-0.12,1.32-0.19,1.93-0.2c0.99,0.15,1.87,0.4,2.65,0.74
			l0.16-0.06c1.62,0.37,2.73,0.9,3.35,1.58c0.56,1,1.05,2.02,1.48,3.06l0.9,3.78c-0.05,0.1-0.08,0.17-0.08,0.23l0.91,5.63
			c0.15,0.01,0.25,0.59,0.29,1.73l-0.06,0.9c-0.01,0.31-1.66,0.42-4.93,0.33c-0.16,0.1-0.32,0.14-0.45,0.12
			c-0.18,0-0.38-1.38-0.62-4.13c0.07-1.15-0.34-3.86-1.21-8.12c-0.56-0.93-1.18-1.41-1.85-1.44l-0.6-0.04
			c-0.71-0.03-1.64,0.97-2.78,3c-0.82,2.33-1.31,4.99-1.46,7.98l0.18,0.53c-0.05,1.1-0.38,1.62-0.97,1.58
			c-1.54,0.03-2.98,0.08-4.34,0.14c-0.36-0.01-0.6-1.47-0.74-4.36c-1.23-7.73-2.62-11.63-4.17-11.71h-0.06
			c-1.21,0.36-2.01,0.94-2.4,1.75c-0.41,0.49-0.86,1.86-1.34,4.11c-0.01,0.15,0,0.32,0.04,0.51c-0.01,0.16-0.06,0.64-0.14,1.42
			c-0.19,3.66-0.15,6.22,0.12,7.69l-0.02,0.14c-0.3,0.34-0.68,0.5-1.13,0.47c-0.04,0-0.36-0.04-0.97-0.12
			c-0.03,0-0.36,0.01-0.99,0.02l-0.14-0.08c-0.26,0.07-0.63,0.12-1.11,0.16l-0.14-0.08c-0.18,0.04-0.28,0.06-0.31,0.06
			c-0.16-0.01-0.36-0.1-0.6-0.27l-0.43,0.06c-0.71-11.13-1.05-17.09-1.01-17.88l-0.45-2.86c0.01-0.3,1.51-0.4,4.5-0.29
			c0.08,0.05,0.15,0.08,0.2,0.08C695.5,251.98,695.77,251.95,696.05,251.96z"/>
		<path class="st17" d="M746.32,252.15c0.84,0.07,1.21,0.54,1.13,1.42c-0.04,0.48,0.16,3.24,0.6,8.28c0.23,0.97,0.91,2.83,2.03,5.57
			c0.55,0.92,1,1.6,1.36,2.03c0.99,1.45,1.45,2.47,1.4,3.06v0.06c-0.01,0.12-0.18,0.26-0.51,0.41l-0.33-0.08l-0.45-0.04
			c-0.23,0.08-0.35,0.14-0.35,0.16l-0.31-0.29c-0.14,0.07-0.47,0.12-1.01,0.16l-1.05-0.08c-0.42-0.04-0.87-0.57-1.34-1.58
			l-1.71-3.15h-0.08c-0.79,1-1.68,2.01-2.65,3.02c-1.18,0.97-2.31,1.51-3.39,1.62c-1.32,0.38-2.83,0.5-4.54,0.35
			c-3.48-0.64-5.64-1.32-6.47-2.03c-1.26-0.63-2.03-1.36-2.32-2.2c-0.48-1.15-0.69-2.08-0.64-2.77l0.06-0.6
			c0.14-1.64,0.64-3.1,1.52-4.38c0.03-0.32,0.9-1.5,2.63-3.56c1.82-1.82,3.15-2.84,3.99-3.04c1.07-0.75,2.03-1.09,2.88-1.01
			c0.22,0.05,0.35,0.09,0.39,0.1c0.19-0.12,1.45-0.08,3.76,0.12l2.2,0.72c0.45,0.26,0.79,0.4,1.03,0.43h0.14
			c0.03-0.34,0-1.05-0.08-2.14C744.23,252.37,744.93,252.17,746.32,252.15z M730.84,263.41l-0.08,1.05c0.18,1.88,0.6,3.13,1.25,3.76
			c1.1,1.08,2.15,1.66,3.17,1.75l1.13,0.1c0.47,0.04,1.09-0.24,1.87-0.84c1.7-0.63,3.03-1.95,3.99-3.97
			c0.31-0.47,0.51-1.18,0.6-2.14l0.04-0.53c-0.26-1.58-0.8-2.73-1.62-3.45c-0.46-0.4-1.34-0.76-2.63-1.09
			c-2.14-0.19-3.85,0.16-5.14,1.07C732,260.92,731.14,262.35,730.84,263.41z M751.09,272.76v0.06l0.25,0.02l0.02-0.06
			c0-0.1-0.04-0.14-0.12-0.14C751.13,272.64,751.09,272.68,751.09,272.76z"/>
		<path class="st17" d="M542.25,293.74c0.22,0,0.51,0.13,0.88,0.39c0,0.1,0.44,0.98,1.34,2.65c0.56,1.26,1.07,2.25,1.54,2.98
			c1.25,2.05,3.19,5.77,5.84,11.14c1.48,3.41,2.38,5.36,2.71,5.86c0.37,0.31,0.94,1.58,1.71,3.8l1.11,1.99l-0.23,0.37l-0.21-0.04
			l-0.78,0.16c-0.04,0-0.06-0.02-0.06-0.06c-1.47,0-3.21,0.18-5.24,0.55h-0.06c-0.08,0-0.19-0.31-0.33-0.95
			c-0.22-0.52-0.79-2.28-1.71-5.28c-0.82-2.07-1.32-3.1-1.48-3.1c-0.64-0.07-1.04-0.1-1.17-0.1c-0.96,0-2.93,0.05-5.9,0.16
			c-0.56,0-1.92-0.02-4.09-0.06c-0.74,1.62-1.49,3.51-2.26,5.69c-0.14,0-0.41,0.81-0.82,2.43c-0.08,0.01-0.21,0.33-0.39,0.95
			l-0.27,0.1c-1-0.07-1.75-0.1-2.26-0.1c-1.48,0.03-2.33,0.04-2.55,0.04c-0.49-0.03-0.86-0.04-1.11-0.04
			c-0.07,0.03-0.12,0.04-0.16,0.04c-0.44-0.19-0.66-0.32-0.66-0.39v-0.21c0.84-1.49,1.77-3.53,2.82-6.12
			c0.22-0.38,0.75-1.56,1.6-3.53c0.18-0.21,0.53-0.89,1.05-2.06l5.24-9.87l2.65-4.42c0.75-1.21,1.23-2.01,1.44-2.42
			c0.37-0.34,0.72-0.53,1.05-0.56H542.25z M538.72,308.8l0.12,0.06h0.82c2.91-0.08,4.52-0.12,4.85-0.12l0.12-0.16
			c-0.53-1.32-1.47-3.04-2.82-5.18c-0.15,0-0.43,0.4-0.84,1.21C540.31,305.71,539.55,307.1,538.72,308.8z"/>
		<path class="st17" d="M572.01,303.13c2.17,0.4,4.02,1.23,5.55,2.49c1.78,2.38,2.71,4.19,2.78,5.41c0.51,2.53,0.82,5.46,0.95,8.77
			c0.18,1.17,0.46,2.54,0.86,4.13v0.06c-0.03,0.2-0.36,0.31-0.99,0.33c-0.15,0.05-0.23,0.1-0.23,0.12l-0.14-0.08
			c-2.1-0.03-3.4-0.02-3.92,0.02c-0.66-0.07-0.95-1-0.88-2.8c-0.23-2.15-0.36-4.36-0.37-6.64c-0.29-3.18-0.93-5.36-1.91-6.54
			c-1.28-0.88-2.12-1.34-2.55-1.4l-1.09-0.1c-0.82-0.08-1.99,0.44-3.51,1.56c-1.51,1.79-2.36,3.58-2.55,5.34
			c-0.04,0-0.16,0.47-0.37,1.4c-0.11,1.12-0.03,3.59,0.23,7.4l-0.02,0.14c-0.03,0.33-0.67,0.45-1.93,0.37l-3.02-0.31
			c-0.04,0-0.07,0.02-0.08,0.06c-0.08-0.05-0.15-0.08-0.2-0.08c-0.05-0.01-0.29-0.01-0.72,0c-0.14-0.01-0.18-0.95-0.14-2.8
			c-0.11-2.08-0.23-3.71-0.35-4.87l0.08-0.12c-0.16-2.05-0.23-3.21-0.2-3.45c0.05-0.07,0.09-0.16,0.1-0.27
			c-0.14-1.92-0.25-4.68-0.35-8.28c0.14-0.6,0.43-0.88,0.88-0.82c1.69,0.12,3.01,0.23,3.99,0.33l0.58,0.06
			c0.23,0.03,0.38,0.9,0.43,2.61l0.2,0.16c1.89-1.43,3.42-2.08,4.58-1.95C569.25,303.08,570.7,302.99,572.01,303.13z"/>
		<path class="st17" d="M585.72,300.72c1.25,0.3,1.84,0.71,1.79,1.23c0.4,13.02,0.64,19.83,0.74,20.43
			c-0.23,0.99-0.61,1.45-1.13,1.4c-0.1-0.01-0.51,0.1-1.25,0.33l-0.53-0.14l-0.9-0.08c-0.05-0.01-0.34,0.01-0.84,0.06l-0.06-0.02
			c-0.97-0.44-1.42-1.04-1.34-1.81c0.22-2.08,0.09-8.57-0.39-19.46c0.03-0.3-0.01-0.69-0.1-1.15v-0.08
			c0.05-0.45,0.44-0.71,1.15-0.78c0.1,0.05,0.17,0.09,0.23,0.1c0.33-0.07,0.53-0.1,0.62-0.1c0.12,0.01,0.32,0.06,0.6,0.14
			L585.72,300.72z"/>
		<path class="st17" d="M597.72,301.18c1.32,0,3.11,0.42,5.38,1.25c1.33,0.92,1.99,1.69,1.99,2.3l1.07,3.39
			c0,0.53-0.17,0.8-0.51,0.8c-0.86,0.25-1.86,0.37-3,0.37c-0.67-2.16-1.44-3.47-2.3-3.93c-0.95-0.63-1.78-0.95-2.51-0.95
			c-1.85,0-3.25,1.1-4.19,3.31c-0.04,0.16-0.06,0.33-0.06,0.51v0.37c0.37,1.92,1.64,2.88,3.82,2.88c3.82,0,6.63,0.6,8.43,1.81
			c1.51,1.22,2.26,2.76,2.26,4.62v0.51c0,1.26-0.64,2.34-1.93,3.25c-1.62,1.32-2.73,1.98-3.33,1.99c-1.18,0.42-2.49,0.72-3.93,0.88
			h-1.25c-1.58,0-2.81-0.27-3.7-0.82c-2.8-1.32-4.42-2.6-4.87-3.86c-0.51-1.08-0.91-2.42-1.19-4.01c0.1-0.55,0.24-0.82,0.43-0.82
			c0.48,0.08,1.52,0.15,3.12,0.2c0.08-0.05,0.15-0.08,0.21-0.08c0.57,0.11,0.86,0.36,0.86,0.76c0.27,1.64,0.69,2.81,1.25,3.49
			c1.27,1.43,2.67,2.14,4.19,2.14c1.88-0.45,3.13-1.08,3.76-1.87c0.66-0.78,0.99-1.45,0.99-2.01v-0.86c0-1.99-2.54-3.16-7.63-3.51
			c-1.82,0-3.4-0.77-4.75-2.3c-0.75-1.01-1.13-2.08-1.13-3.21c0.15-1.04,0.51-1.93,1.07-2.67c0.97-1.44,2.01-2.34,3.12-2.69
			C595.26,301.59,596.7,301.18,597.72,301.18z"/>
		<path class="st17" d="M611.64,292.63c1.66,0.18,2.75,1.1,3.27,2.77l0.06,0.93c-0.1,0.99-0.75,1.68-1.97,2.07
			c-0.67,0.29-1.32,0.4-1.93,0.33c-1.78-0.19-2.75-1.08-2.92-2.67c0.16-1.55,0.53-2.42,1.11-2.61
			C610.06,292.82,610.86,292.54,611.64,292.63z M612.52,300.72c1.25,0.3,1.84,0.71,1.79,1.23c0.4,13.02,0.64,19.83,0.74,20.43
			c-0.23,0.99-0.61,1.45-1.13,1.4c-0.1-0.01-0.51,0.1-1.25,0.33l-0.53-0.14l-0.9-0.08c-0.05-0.01-0.34,0.01-0.84,0.06l-0.06-0.02
			c-0.97-0.44-1.42-1.04-1.34-1.81c0.22-2.08,0.09-8.57-0.39-19.46c0.03-0.3-0.01-0.69-0.1-1.15v-0.08
			c0.05-0.45,0.44-0.71,1.15-0.78c0.1,0.05,0.17,0.09,0.23,0.1c0.33-0.07,0.53-0.1,0.62-0.1c0.12,0.01,0.32,0.06,0.6,0.14
			L612.52,300.72z"/>
		<path class="st17" d="M624.63,302.53h0.06c1.9,0,4.03,0.54,6.39,1.62c0.9,0.45,1.88,1.36,2.92,2.73c0,0.12,0.34,0.62,1.03,1.48
			c0.11,0.4,0.38,1.04,0.82,1.91c0.67,1.85,1.01,3.23,1.01,4.15v0.2c0,0.84-0.63,2.33-1.89,4.48c-0.58,0.74-1.12,1.24-1.64,1.5
			c-1.89,1.95-4.63,2.92-8.22,2.92h-0.47c-2.15,0-3.6-0.41-4.36-1.23c-0.96-0.81-2.09-2.1-3.39-3.86c-0.9-1.34-1.36-2.8-1.36-4.36
			c-0.08,0-0.13-0.27-0.14-0.8c0-0.12,0.05-0.26,0.14-0.41c0.19-2.27,0.69-4.2,1.48-5.78c1.15-1.88,2.47-3.06,3.95-3.53
			C622.18,302.88,623.41,302.53,624.63,302.53z M620.89,312.11c0.04,0.67,0.06,1.12,0.06,1.36h0.08c-0.05,0.1-0.08,0.16-0.08,0.21
			c0,1.21,0.77,2.71,2.32,4.5c0.68,0.53,1.54,0.8,2.57,0.8c3.01,0,5.01-1.15,5.98-3.45c0.14-0.38,0.23-0.86,0.29-1.44
			c0-1.52-0.69-3.15-2.05-4.89c-1.19-1.44-2.41-2.36-3.66-2.77c-0.16-0.1-0.35-0.14-0.55-0.14h-0.12c-1.59,0-2.91,1.11-3.95,3.33
			C621.25,310.36,620.95,311.19,620.89,312.11z"/>
		<path class="st17" d="M674.92,294.56c0.31,0.03,0.59,0.22,0.82,0.58c-0.01,0.1-0.05,0.18-0.1,0.27c-0.16,2.44-0.15,3.67,0.04,3.68
			l-0.04,0.43c-0.03,0.41-0.01,0.73,0.06,0.95c-0.04,0.55-0.36,0.88-0.95,0.99l-0.37,0.04c-0.11,0-0.2-0.03-0.27-0.08l-8.28-0.08
			l-0.08,0.14l-0.02,0.2c0,3.84,0.08,7.56,0.25,11.18c0.01,0.44,0.01,0.71,0,0.8l-0.1,0.29c0,0.51,0.02,0.82,0.06,0.93l-0.08,0.29
			c-0.03,5.25,0.01,8.28,0.12,9.08c-0.11,0.29-0.21,0.42-0.31,0.41l-0.29-0.02c-2.12,0.19-3.69,0.25-4.71,0.16
			c-0.71-0.07-1.04-0.38-0.99-0.95c0.05-1.77,0.08-5.37,0.08-10.81l0.18-10.42c-0.04-0.78-0.1-1.17-0.18-1.17
			c-4.82-0.1-8.39-0.03-10.69,0.21h-0.06c-0.41-0.21-0.59-0.65-0.53-1.34l-0.23-4.85l0.04-0.37c0.25-0.36,0.78-0.5,1.6-0.43
			c5.7,0.05,10.82,0.03,15.37-0.08c2.22,0.19,4.83,0.2,7.83,0.02C673.12,294.5,673.73,294.49,674.92,294.56z"/>
		<path class="st17" d="M687.44,302.18c2.16,0.1,3.89,0.31,5.18,0.64c1.78,0.64,3.32,1.54,4.62,2.69c0.6,0.47,1.19,1.25,1.77,2.34
			c0.94,1.44,1.42,2.98,1.42,4.62c-0.04,0.56-0.2,0.84-0.49,0.84l-1.13-0.08c-0.31,0.1-0.53,0.14-0.64,0.14h-1.21
			c-4.01,0.38-6.1,0.58-6.25,0.58c0,0.03-0.19,0.1-0.58,0.2c-0.08-0.04-0.15-0.06-0.2-0.06c-3.85,0.25-6.47,0.53-7.87,0.84v0.14
			c0.34,0.93,0.98,2.02,1.91,3.27c1.63,1.89,3.64,2.84,6.04,2.84c1.63-0.18,3.59-1.24,5.88-3.19c0.75-1.08,1.37-1.75,1.85-1.99h0.14
			c2.03,0.62,3.04,1.25,3.04,1.91v0.29c-0.63,0.7-1.9,1.64-3.82,2.84c-0.48,0.34-1.17,0.68-2.06,1.01c0,0.11-0.52,0.27-1.56,0.49
			c-0.66,0.37-1.86,0.65-3.62,0.84c0,0.05-0.03,0.08-0.08,0.08l-0.14-0.08c-0.62,0.1-1.23,0.14-1.83,0.14h-0.14
			c-0.48,0-1.05-0.02-1.71-0.06c-0.1,0.04-0.17,0.06-0.22,0.06c-2.12-0.33-4.46-1.44-7.01-3.33c-1.75-1.66-2.63-3.64-2.63-5.96
			c0.31-2.88,1.03-5.15,2.14-6.82c1.92-2.01,3.45-3.22,4.6-3.62c1.18-0.82,2.14-1.27,2.9-1.34
			C686.26,302.28,686.83,302.18,687.44,302.18z M681.7,311.33l0.29,0.14c0.97-0.14,2.27-0.28,3.88-0.43c0.05,0,0.13,0.03,0.23,0.08
			c5.38-0.12,8.08-0.36,8.08-0.72v-0.06c0-0.34-0.71-1.6-2.12-3.76c-0.84-1.14-2.07-1.71-3.7-1.71h-0.14
			c-1.27,0.23-2.62,0.99-4.03,2.28c-1.15,0.78-1.98,2.15-2.49,4.11V311.33z"/>
		<path class="st17" d="M704.49,292.63c1.66,0.18,2.75,1.1,3.27,2.77l0.06,0.93c-0.1,0.99-0.75,1.68-1.97,2.07
			c-0.67,0.29-1.32,0.4-1.93,0.33c-1.78-0.19-2.75-1.08-2.92-2.67c0.16-1.55,0.53-2.42,1.11-2.61
			C702.92,292.82,703.71,292.54,704.49,292.63z M705.38,300.72c1.25,0.3,1.84,0.71,1.79,1.23c0.4,13.02,0.64,19.83,0.74,20.43
			c-0.23,0.99-0.61,1.45-1.13,1.4c-0.1-0.01-0.51,0.1-1.25,0.33l-0.53-0.14l-0.9-0.08c-0.05-0.01-0.34,0.01-0.84,0.06l-0.06-0.02
			c-0.97-0.44-1.42-1.04-1.34-1.81c0.22-2.08,0.09-8.57-0.39-19.46c0.03-0.3-0.01-0.69-0.1-1.15v-0.08
			c0.05-0.45,0.44-0.71,1.15-0.78c0.1,0.05,0.17,0.09,0.23,0.1c0.33-0.07,0.53-0.1,0.62-0.1c0.12,0.01,0.32,0.06,0.6,0.14
			L705.38,300.72z"/>
		<path class="st17" d="M732.73,302.04h0.08l-0.02,0.23c-0.03,0.26-0.9,1.25-2.61,2.96c-0.77,1.34-2.21,2.95-4.32,4.83
			c-1.47,1.45-2.22,2.41-2.26,2.86c1.56,2.29,3.33,4.52,5.3,6.7c2.48,2.04,3.73,3.1,3.76,3.17c-0.19,0.59-0.38,0.88-0.58,0.86
			l-5.88,0.74c-0.01,0.04-0.11,0.05-0.29,0.04c-1.34-1.43-2.24-2.57-2.69-3.43l-3.23-4.32c-0.08-0.04-0.15-0.07-0.2-0.08
			c-2.19,2.37-3.3,3.64-3.31,3.8c-0.51,0.7-1.07,1.54-1.69,2.51c-0.63,0.53-1.34,0.77-2.14,0.7l-4.23,0.12
			c-0.23-0.05-0.34-0.14-0.33-0.25v-0.06c0.26-0.81,1-1.9,2.22-3.27c0.01-0.14,0.49-0.81,1.44-2.03c0.03-0.29,1.06-1.54,3.1-3.76
			c1.22-1.26,1.84-2.06,1.87-2.4l0.02-0.12c-2.07-2.66-3.91-5.11-5.53-7.36c-0.41-0.12-1.16-0.9-2.24-2.34
			c-0.14-0.11-0.25-0.16-0.33-0.16v-0.08c0.03-0.21,1.07-0.33,3.13-0.37c2.05-0.04,3.45,0.53,4.19,1.71
			c2.11,2.91,3.48,4.69,4.11,5.36c0.07,0,0.98-0.89,2.73-2.67c1.11-1.01,2.26-2.26,3.45-3.74c0.1-0.15,0.24-0.25,0.43-0.31
			c3.44,0.26,5.21,0.4,5.32,0.41C732.36,302.1,732.6,302.03,732.73,302.04z"/>
		<path class="st17" d="M744.02,302.18c2.16,0.1,3.89,0.31,5.18,0.64c1.78,0.64,3.32,1.54,4.62,2.69c0.6,0.47,1.19,1.25,1.77,2.34
			c0.94,1.44,1.42,2.98,1.42,4.62c-0.04,0.56-0.2,0.84-0.49,0.84l-1.13-0.08c-0.31,0.1-0.53,0.14-0.64,0.14h-1.21
			c-4.01,0.38-6.1,0.58-6.25,0.58c0,0.03-0.19,0.1-0.58,0.2c-0.08-0.04-0.15-0.06-0.2-0.06c-3.85,0.25-6.47,0.53-7.87,0.84v0.14
			c0.34,0.93,0.98,2.02,1.91,3.27c1.63,1.89,3.64,2.84,6.04,2.84c1.63-0.18,3.59-1.24,5.88-3.19c0.75-1.08,1.37-1.75,1.85-1.99h0.14
			c2.03,0.62,3.04,1.25,3.04,1.91v0.29c-0.63,0.7-1.9,1.64-3.82,2.84c-0.48,0.34-1.17,0.68-2.06,1.01c0,0.11-0.52,0.27-1.56,0.49
			c-0.66,0.37-1.86,0.65-3.62,0.84c0,0.05-0.03,0.08-0.08,0.08l-0.14-0.08c-0.62,0.1-1.23,0.14-1.83,0.14h-0.14
			c-0.48,0-1.05-0.02-1.71-0.06c-0.1,0.04-0.17,0.06-0.23,0.06c-2.12-0.33-4.46-1.44-7.01-3.33c-1.75-1.66-2.63-3.64-2.63-5.96
			c0.31-2.88,1.03-5.15,2.14-6.82c1.92-2.01,3.45-3.22,4.6-3.62c1.18-0.82,2.14-1.27,2.9-1.34
			C742.84,302.28,743.41,302.18,744.02,302.18z M738.28,311.33l0.29,0.14c0.97-0.14,2.27-0.28,3.88-0.43c0.05,0,0.13,0.03,0.23,0.08
			c5.38-0.12,8.08-0.36,8.08-0.72v-0.06c0-0.34-0.71-1.6-2.12-3.76c-0.84-1.14-2.07-1.71-3.7-1.71h-0.14
			c-1.27,0.23-2.62,0.99-4.03,2.28c-1.15,0.78-1.98,2.15-2.49,4.11V311.33z"/>
		<path class="st17" d="M761.07,292.63c1.66,0.18,2.75,1.1,3.27,2.77l0.06,0.93c-0.1,0.99-0.75,1.68-1.97,2.07
			c-0.67,0.29-1.32,0.4-1.93,0.33c-1.78-0.19-2.75-1.08-2.92-2.67c0.16-1.55,0.53-2.42,1.11-2.61
			C759.5,292.82,760.29,292.54,761.07,292.63z M761.96,300.72c1.25,0.3,1.84,0.71,1.79,1.23c0.4,13.02,0.64,19.83,0.74,20.43
			c-0.23,0.99-0.61,1.45-1.13,1.4c-0.1-0.01-0.51,0.1-1.25,0.33l-0.53-0.14l-0.9-0.08c-0.05-0.01-0.34,0.01-0.84,0.06l-0.06-0.02
			c-0.97-0.44-1.42-1.04-1.34-1.81c0.22-2.08,0.09-8.57-0.39-19.46c0.03-0.3-0.01-0.69-0.1-1.15v-0.08
			c0.05-0.45,0.44-0.71,1.15-0.78c0.1,0.05,0.17,0.09,0.23,0.1c0.33-0.07,0.53-0.1,0.62-0.1c0.12,0.01,0.32,0.06,0.6,0.14
			L761.96,300.72z"/>
		<path class="st17" d="M769.01,302.64l0.18,0.02c0.58,0.03,0.84,0.55,0.78,1.58c0,0.78,0.02,1.27,0.06,1.48h0.12
			c1.14-0.51,1.79-0.76,1.95-0.76c0.7-0.2,1.49-0.29,2.36-0.25c0.97,0.05,2.89,0.71,5.75,1.97c1.45,1.22,2.15,2.45,2.1,3.68
			c0.18,0.01,0.36,0.87,0.53,2.57l-0.08,0.31v0.25c-0.01,0.22-0.01,0.57,0,1.05l-0.12,0.06c-0.36-0.03-0.73-0.03-1.11,0
			c-1.89-0.1-2.83-0.29-2.82-0.57l-0.45-3.12c-0.15-1.26-0.55-2.33-1.19-3.21c-0.41-0.27-0.79-0.42-1.15-0.43l-0.43-0.02
			c-0.89-0.04-2.01,0.64-3.37,2.03c-1.1,1.95-1.67,3.42-1.73,4.42c-0.04,0.82-0.12,3.08-0.23,6.78c0.14,0.49,0.25,1.1,0.33,1.81
			c-0.1,0.3-0.14,0.51-0.14,0.62l0.04,0.43c-0.07,0.2-0.22,0.3-0.45,0.29l-1.73-0.1c-0.63-0.03-1.41,0.01-2.34,0.12
			c-0.27-0.01-0.41-0.9-0.41-2.67c-0.23-1.52-0.36-5.06-0.37-10.63l-0.18-4.89l0.04-0.74c-0.05-0.58-0.1-0.87-0.14-0.88
			c0.04-0.07,0.07-0.12,0.08-0.16c-0.07-0.38-0.1-0.6-0.1-0.64c0.04-0.07,0.07-0.14,0.08-0.23l0.74,0.02
			C767.3,302.67,768.43,302.61,769.01,302.64z"/>
		<path class="st17" d="M803.86,302.66c0.84,0.07,1.21,0.54,1.13,1.42c-0.04,0.48,0.16,3.24,0.6,8.28c0.23,0.97,0.91,2.83,2.03,5.57
			c0.55,0.92,1,1.6,1.36,2.03c0.99,1.45,1.45,2.47,1.4,3.06v0.06c-0.01,0.12-0.18,0.26-0.51,0.41l-0.33-0.08l-0.45-0.04
			c-0.23,0.08-0.35,0.14-0.35,0.16l-0.31-0.29c-0.14,0.07-0.47,0.12-1.01,0.16l-1.05-0.08c-0.42-0.04-0.87-0.57-1.34-1.58
			l-1.71-3.15h-0.08c-0.79,1-1.68,2.01-2.65,3.02c-1.18,0.97-2.31,1.51-3.39,1.62c-1.32,0.38-2.83,0.5-4.54,0.35
			c-3.48-0.64-5.64-1.32-6.47-2.03c-1.26-0.63-2.03-1.36-2.32-2.2c-0.48-1.15-0.69-2.08-0.64-2.77l0.06-0.6
			c0.14-1.64,0.64-3.1,1.52-4.38c0.03-0.32,0.9-1.5,2.63-3.56c1.82-1.82,3.15-2.84,3.99-3.04c1.07-0.75,2.03-1.09,2.88-1.01
			c0.22,0.05,0.35,0.09,0.39,0.1c0.19-0.12,1.45-0.08,3.76,0.12l2.2,0.72c0.45,0.26,0.79,0.4,1.03,0.43h0.14
			c0.03-0.34,0-1.05-0.08-2.14C801.77,302.88,802.48,302.68,803.86,302.66z M788.39,313.92l-0.08,1.05c0.18,1.88,0.6,3.13,1.25,3.76
			c1.1,1.08,2.15,1.66,3.17,1.75l1.13,0.1c0.47,0.04,1.09-0.24,1.87-0.84c1.7-0.63,3.03-1.95,3.99-3.97
			c0.31-0.47,0.51-1.18,0.6-2.14l0.04-0.53c-0.26-1.58-0.8-2.73-1.62-3.45c-0.46-0.4-1.34-0.76-2.63-1.09
			c-2.14-0.19-3.85,0.16-5.14,1.07C789.55,311.43,788.69,312.86,788.39,313.92z M808.63,323.27v0.06l0.25,0.02l0.02-0.06
			c0-0.1-0.04-0.14-0.12-0.14C808.68,323.15,808.63,323.19,808.63,323.27z"/>
	</g>
	<path class="st18" d="M428.37,290.96c0.9,0.11,2.56,0.32,4.23,0.52c0.61,0.07,0.87,0.34,0.88,1.01c0.07,2.87,0.46,3.1,3.03,4.31
		c1.98,0.93,3.73,0.88,5.62-0.01c0.24-0.12,0.73-0.04,0.94,0.15c2.58,2.25,5.28,4.43,6.88,7.55c1.63,3.18,0.77,6.42-1.72,9
		c-2.88,2.99-6.02,3.61-10,2.6c-6.18-1.58-12.04-3.7-17.05-7.74c-1.52-1.23-2.94-2.6-4.23-4.07c-2.98-3.4-2.59-7.46,0.9-10.33
		C420.67,291.61,424.05,291.01,428.37,290.96"/>
	<path class="st17" d="M588.51,291.19l0.02-0.02c0.22-0.11,0.36-0.13,0.41-0.07l0.4,0.38c0.1,0.05,0.15,0.07,0.16,0.06
		c0,0.01,0.03,0.05,0.08,0.12c0.42,0.4,1.11,1.07,1.49,1.38l0.16,0.3c-0.01,0.08-0.09,0.24-0.23,0.48c-0.17,0.11-0.28,0.2-0.34,0.25
		c-0.87,1.07-1.45,1.82-1.76,2.27c-0.9,1.04-1.42,1.67-1.54,1.87l-0.1,0.05c-0.46,0.59-0.74,0.94-0.86,1.04
		c-0.06,0.06-0.25,0.01-0.55-0.15c-0.02-0.04-0.04-0.07-0.06-0.09c-0.07-0.06-0.57-0.56-0.95-0.86l-0.05-0.05
		c-0.05-0.04-0.12-0.13-0.21-0.26l-0.21-0.18c-0.43-0.44-0.62-0.67-0.57-0.72c0.43-0.6,1.06-1.35,1.87-2.23l0.1-0.05
		c0.2-0.23,0.34-0.41,0.43-0.54l0.1-0.05c0.53-0.76,1.04-1.41,1.53-1.96C588.09,291.69,588.31,291.37,588.51,291.19z"/>
	<path class="st19" d="M490.04,293.85c-9.34-9.37-20.73-14-34.06-13.09c-4.13,0.28-7.56,1.69-10.23,4.2
		c1.92-0.71,3.91-1.18,5.92-1.52c8.71-1.47,17.08-0.55,24.71,4.18c6.88,4.26,11,10.29,10.82,18.68c-0.03,1.54-0.46,3.07-0.7,4.61
		c-0.21-0.01-0.42-0.02-0.62-0.03c-0.07-0.32-0.21-0.65-0.19-0.96c0.85-10.67-4.4-18.1-13.7-21.79
		c-26.17-10.38-30.66,3.23-31.45,5.88c1.32-1.04,2.41-1.92,3.52-2.77c3.16-2.41,6.47-2.83,9.96-0.73c0.87,0.52,1.78,1.02,2.53,1.68
		c1.96,1.74,3.95,3.48,5.76,5.37c3.74,3.91,6.99,8.21,9.91,12.75c1.58,2.45,3.83,3.91,6.63,4.37c1.63,0.27,3.38,0.33,5,0.06
		c4.01-0.66,7.4-2.54,8.88-6.52C494.68,302.98,494,297.81,490.04,293.85z"/>
	<path class="st20" d="M433.16,268.47c-10.57-11.58-24.55-14.97-39.99-10.71c-0.39,0.11-0.87-0.13-1.31-0.21c0-0.11,0-0.22,0-0.33
		c10.62-4.74,21.08-3.59,31.3,1.15c7.36,3.41,13.26,8.53,16.81,15.99c1.08,2.26,1.8,4.6,2.05,7.02c0.26-2.27-0.11-4.57-0.79-6.8
		c-1.63-5.37-4.82-9.79-8.8-13.6c-7.26-6.94-15.71-11.86-25.44-14.49c-3.63-0.98-7.21-1.29-10.8,0.16c-4.34,1.75-7.67,4.51-8.9,9.21
		c-1.08,4.08,0.04,7.83,2.18,11.32c2.76,4.5,6.62,7.04,12.12,6.83c6.27-0.24,12.53-0.05,18.77,0.61c3.52,0.37,7.02,0.86,10.31,2.24
		c6.95,2.93,6.22,6.37,6.11,9.17c-0.07,1.94-0.01,3.88-0.01,5.81c0.13,0.01,0.26,0.02,0.4,0.03c0.11-0.28,0.24-0.55,0.33-0.83
		C438.04,289.43,447.16,283.79,433.16,268.47z"/>
	<path class="st21" d="M451.37,244.09c-0.14-4.73-0.59-9.44-1.97-14c-1.76-5.83-4.95-10.56-10.57-13.32
		c-3.97-1.95-8.2-2.81-12.6-2.78c-3.55,0.03-6.96,0.7-10,2.68c-1.72,1.11-2.26,2.68-2.29,4.72c-0.08,4.91,2.43,8.99,5.05,12.9
		c0.44,0.66,0.99,1.27,1.44,1.94c2.53,3.7,4.37,7.76,5.61,12.03c0.88,3.03,2.25,5.49,5.07,7.02c0.06,0.04,0.11,0.09,0.17,0.13
		c5.95,4.86,11.09,10.25,13.18,17.64c2.62-21.12-3.52-39.45-18.92-54.73c-0.47-0.47-1.1-0.83-0.41-1.57c0.11,0,0.22,0,0.33,0
		c3.36,3.42,7.2,6.49,9.98,10.34c9.88,13.65,14,28.9,11.9,45.59c1.11-2.52,2.21-5.04,3.25-7.59c0.53-1.31,0.87-2.78,0.88-4.19
		C451.52,255.29,451.53,249.69,451.37,244.09z"/>
	<path class="st22" d="M505.42,262.43c-1.24-6.61-5.4-10.86-11.35-13.42c-4.44-1.91-9.11-1.74-13.71-0.51
		c-9.32,2.5-16.77,7.99-23.41,14.78c-4.63,4.75-7.23,10.66-9.8,16.73c0.52-0.19,0.99-0.36,1.43-0.52
		c6.72-11.13,15.07-20.57,27.94-24.94c7.33-2.49,14.76-2.43,21.99,0.75c0.82,0.36,1.59,0.86,2.38,1.3
		c-0.06,0.17-0.11,0.34-0.17,0.51c-0.33,0-0.7,0.09-1-0.01c-11.36-4-21.88-1.69-31.64,4.62c-6.98,4.51-12.63,10.45-17.56,17.09
		c3.05-1.02,4.19-1.07,9.16-1.25c0.3-0.01,0.62-0.1,0.88-0.25c7.12-3.94,14.7-6.7,22.6-8.51c6.42-1.47,12.89-2.7,19.55-1.96
		c0.38,0.04,0.77,0.02,1.15-0.02c0.98-0.12,1.66-0.62,1.68-1.67C505.58,264.23,505.59,263.31,505.42,262.43z"/>
</g>
</svg>
