<svg id="Layer_1" data-name="Layer 1" xmlns="http://www.w3.org/2000/svg" viewBox="0 0 154.19 113.38"><defs><style>.cls-1{fill:#fdd4bf;}</style></defs><title>trabalho e consumo</title><path class="cls-1" d="M65.68,43c0-.4,0-.78.06-1.17q0,.59-.06,1.17Z" transform="translate(-7.43 -14.17)"/><path d="M158.6,68.66H140.76a3,3,0,0,0-3,3v2.54H119a3,3,0,0,0-1.15.23l-24,9.94a11.2,11.2,0,0,0-6,14.71l.08.19a11.63,11.63,0,0,0,3,4.15,23.15,23.15,0,0,1-11.22.22l-23.58-5.4a10.93,10.93,0,0,0-5.13,21.24l28.14,7.15a29.5,29.5,0,0,0,7.21.91,29.16,29.16,0,0,0,10.63-2l35.79-14h5.07v1.58a3,3,0,0,0,3,3h17.84a3,3,0,0,0,3-3V71.67a3,3,0,0,0-3-3Zm-26.49,36.82a3,3,0,0,0-1.1.21L94.69,119.93a23,23,0,0,1-14.16.88l-28.14-7.15a4.91,4.91,0,0,1,1.2-9.66,4.67,4.67,0,0,1,1.11.13l23.58,5.4a29.06,29.06,0,0,0,17-1.21l6.84-2.63.42-.15L118,99.6l.32-.12a3,3,0,0,0-2.16-5.62l-.35.14-15.7,6A5.4,5.4,0,0,1,93.41,97l-.08-.19A5.18,5.18,0,0,1,96.12,90l23.47-9.71h18.16V105.5h-5.64Zm23.48,4.59H143.78V74.68h11.81Z" transform="translate(-7.43 -14.17)"/><path d="M36.76,67.4H31.29V39.26h.83a14.21,14.21,0,0,0,6.43-1.55l.27-.16,19.5-12.72a8.12,8.12,0,0,1,8.38.78l1.41,1.05c-.09.12-.17.24-.25.37-.37.54-.73,1.09-1.07,1.66a29.22,29.22,0,0,0-3.91,11.38,9.08,9.08,0,0,0,1,18.11H86.16a4.58,4.58,0,0,1,3.26,1.35,4.66,4.66,0,0,1,1.36,3.27A4.59,4.59,0,0,1,88,67a4,4,0,0,1-.53.2h0a4.55,4.55,0,0,1-1.28.18H60.84a3,3,0,0,0,0,6H86.17a10.3,10.3,0,0,0,2.29-.25,30.5,30.5,0,0,0,3.82.25A29.63,29.63,0,1,0,72.1,22.11l-1.79-1.33a14.16,14.16,0,0,0-14.86-1.25l-.27.16L35.68,32.41a8.1,8.1,0,0,1-3.55.82h-.84V32.14a3,3,0,0,0-3-3H10.44a3,3,0,0,0-3,3V73.56a3,3,0,0,0,3,3H28.28a3,3,0,0,0,3-3v-.14h5.47a3,3,0,1,0,0-6ZM60.82,49.09a3,3,0,0,1,.9-2.16,3.07,3.07,0,0,1,1-.68,29.24,29.24,0,0,0,1.09,5.9,3.06,3.06,0,0,1-3-3.06Zm55.06-5.29a23.64,23.64,0,0,1-20,23.33,10.8,10.8,0,0,0,.92-4.34,10.63,10.63,0,0,0-1.32-5.14,6.29,6.29,0,0,0,5.32-6.22V47a6.32,6.32,0,0,0-6.31-6.31H90.07a.29.29,0,0,1-.29-.29v-4.2a.29.29,0,0,1,.29-.29h4.42a.29.29,0,0,1,.29.29,3,3,0,1,0,6,0,6.31,6.31,0,0,0-5.51-6.25v-1a3,3,0,1,0-6,0v1a6.32,6.32,0,0,0-5.51,6.25v4.2a6.32,6.32,0,0,0,6.31,6.31h4.42a.29.29,0,0,1,.29.29v4.45a.28.28,0,0,1-.08.2.26.26,0,0,1-.2.08H90.08a.29.29,0,0,1-.29-.29V51a3,3,0,1,0-6,0v.41c0,.24,0,.49,0,.72H70.2a23.4,23.4,0,0,1-1.52-8.35A23.65,23.65,0,0,1,72.3,31.23a25,25,0,0,1,2.28-3.05,23.59,23.59,0,0,1,41.3,15.62ZM25.27,70.55H13.45V35.16H25.26V70.55Z" transform="translate(-7.43 -14.17)"/><path d="M51.21,68.74a3,3,0,1,0-.37,3.81,3.05,3.05,0,0,0,.37-3.81Z" transform="translate(-7.43 -14.17)"/></svg>