<?xml version="1.0" encoding="utf-8"?>
<!-- Generator: Adobe Illustrator 23.0.0, SVG Export Plug-In . SVG Version: 6.00 Build 0)  -->
<svg version="1.1" id="Layer_1" xmlns="http://www.w3.org/2000/svg" xmlns:xlink="http://www.w3.org/1999/xlink" x="0px" y="0px"
	 viewBox="0 0 577.87 112.34" style="enable-background:new 0 0 577.87 112.34;" xml:space="preserve">
<style type="text/css">
	.st0{fill:#FDD4BF;}
	.st1{clip-path:url(#SVGID_2_);}
	.st2{fill:#010101;}
	.st3{clip-path:url(#SVGID_4_);}
	.st4{stroke:#000000;stroke-width:0.75;stroke-miterlimit:10;}
	.st5{clip-path:url(#SVGID_6_);stroke:#000000;stroke-width:0.75;stroke-miterlimit:10;}
	.st6{clip-path:url(#SVGID_6_);stroke:#000000;stroke-miterlimit:10;}
	.st7{clip-path:url(#SVGID_8_);}
	.st8{fill:#73B9E6;}
	.st9{clip-path:url(#SVGID_10_);}
	.st10{fill:#201113;}
	.st11{fill:#FFFFFF;}
	.st12{fill:none;}
	.st13{clip-path:url(#SVGID_12_);fill-rule:evenodd;clip-rule:evenodd;}
	.st14{fill-rule:evenodd;clip-rule:evenodd;}
	.st15{clip-path:url(#SVGID_14_);stroke:#000000;stroke-miterlimit:10;}
	.st16{stroke:#000000;stroke-miterlimit:10;}
	.st17{clip-path:url(#SVGID_16_);}
	.st18{fill:#231F20;}
	.st19{fill:#E9E9E9;}
	.st20{clip-path:url(#SVGID_18_);}
	.st21{fill:#E6E7E8;}
	.st22{fill:#949A9B;}
	.st23{clip-path:url(#SVGID_20_);}
	.st24{clip-path:url(#SVGID_22_);}
	.st25{clip-path:url(#SVGID_24_);stroke:#000000;stroke-miterlimit:10;}
	.st26{fill-rule:evenodd;clip-rule:evenodd;fill:#A44424;}
	.st27{fill-rule:evenodd;clip-rule:evenodd;fill:#38A749;}
	.st28{fill-rule:evenodd;clip-rule:evenodd;fill:#CA3229;}
	.st29{fill-rule:evenodd;clip-rule:evenodd;fill:#EDBE2E;}
	.st30{fill-rule:evenodd;clip-rule:evenodd;fill:#1C76BC;}
	.st31{fill:#204583;}
	.st32{fill-rule:evenodd;clip-rule:evenodd;fill:#FFFFFF;}
	.st33{fill:#FEE55B;}
	.st34{clip-path:url(#SVGID_28_);fill:#231F20;}
</style>
<g>
	<path class="st11" d="M123.89,43.32c0.52,0.05,1.09,0.08,1.7,0.09h0.53c2.71,0.32,4.93,0.78,6.64,1.38c1.04,0.5,1.99,1.13,2.85,1.9
		c1.36,1.46,2.02,2.7,2,3.72c0.05,0,0.14,0.35,0.27,1.05c-0.01,0.79-0.42,2.34-1.22,4.64c-0.9,1.61-2.18,2.66-3.84,3.15
		c-1.44,0.39-3.41,0.74-5.9,1.04l-0.3,0.23l0.07,0.39c-0.01,0.31-0.04,0.58-0.09,0.81c0.05,1.72,0.07,2.72,0.07,2.99
		c-0.03,0.2-0.05,0.31-0.05,0.34c0.08,1.32,0.12,2.3,0.11,2.94v0.35l-0.42,0.85c-0.07,0-0.11-0.02-0.11-0.05
		c-1.26,0.01-1.9,0.06-1.91,0.14c-0.04-0.01-0.09-0.04-0.16-0.07c-0.83,0.07-1.65,0.15-2.48,0.25c-0.31-0.13-0.46-0.29-0.46-0.48
		l0.09-0.51l-0.07-0.28l0.07-0.51c0-0.4-0.05-0.89-0.14-1.45c0-2.56-0.04-4.19-0.11-4.87c0.06-0.34,0.09-0.64,0.09-0.89
		c-0.06-7.36-0.15-11.04-0.27-11.05c0-0.29,0.02-0.56,0.05-0.8c-0.02-0.27-0.04-0.61-0.04-1.03c0.01-0.12,0.04-0.25,0.07-0.41
		c-0.09-1.18-0.14-2.08-0.12-2.71l-0.05-0.11c0.18-0.58,0.34-0.87,0.48-0.87C122.17,43.41,123.05,43.35,123.89,43.32z M126.02,46.35
		L126,47.17l0.27,8.29l-0.03,2.02l0.05-0.02c2.36-0.59,3.73-1.1,4.11-1.54c1.55-1.11,2.34-2.53,2.37-4.27l0.02-0.41
		c0.02-1.35-1.03-2.79-3.15-4.32c0-0.19-0.97-0.39-2.92-0.6l-0.39-0.02L126.02,46.35z"/>
	<path class="st11" d="M142.77,42.86c0.25,0.26,0.34,0.59,0.28,0.99l-0.09,0.69c-0.05,4.42,0.01,7.57,0.18,9.47
		c-0.02,0.11-0.01,0.99,0.05,2.64c-0.07,1.23-0.06,2.46,0.02,3.7l-0.11,0.3c0.06,0.01,0.06,0.55,0,1.61
		c0.01,0.35,0.03,0.54,0.07,0.55l-0.05,0.09c-0.04,0.21-0.06,1.02-0.07,2.41l-0.11,0.74c0.01,0.61-0.02,1.72-0.09,3.31l-0.02,0.05
		c-0.32,0.6-0.56,0.89-0.71,0.87c-1.43,0.01-2.6-0.05-3.52-0.18c-0.09-0.05-0.13-0.16-0.11-0.34c0-0.02,0.04-0.13,0.11-0.32
		c-0.05-0.47-0.06-1.55-0.04-3.22c-0.02-0.54,0.01-1.55,0.11-3.03l0.14-15.18c0.02-0.15-0.08-1.49-0.3-4
		c-0.03-0.26-0.03-0.48,0-0.66l0.05-0.41c0.05-0.32,0.24-0.45,0.59-0.41c0.09,0.01,0.5,0.04,1.22,0.07
		c0.22,0.09,0.36,0.15,0.41,0.16c0.14-0.05,0.29-0.06,0.44-0.05l0.48,0.07C141.91,42.85,142.26,42.86,142.77,42.86z"/>
	<path class="st11" d="M161.65,51.13c0.72,0.06,1.05,0.47,0.97,1.22c-0.03,0.41,0.14,2.79,0.51,7.14c0.2,0.84,0.78,2.44,1.75,4.8
		c0.47,0.79,0.86,1.38,1.17,1.75c0.85,1.25,1.25,2.13,1.2,2.64v0.05c-0.01,0.11-0.16,0.23-0.44,0.35l-0.28-0.07l-0.39-0.04
		c-0.2,0.07-0.3,0.12-0.3,0.14l-0.27-0.25c-0.12,0.06-0.41,0.11-0.87,0.14l-0.9-0.07c-0.37-0.04-0.75-0.49-1.15-1.36l-1.47-2.71
		h-0.07c-0.68,0.86-1.45,1.73-2.28,2.6c-1.02,0.84-1.99,1.3-2.92,1.4c-1.13,0.33-2.44,0.43-3.91,0.3c-3-0.56-4.86-1.14-5.58-1.75
		c-1.09-0.54-1.75-1.17-2-1.9c-0.41-0.99-0.6-1.79-0.55-2.39l0.05-0.51c0.12-1.42,0.56-2.67,1.31-3.77
		c0.02-0.27,0.78-1.29,2.27-3.06c1.57-1.57,2.71-2.44,3.43-2.62c0.92-0.65,1.75-0.94,2.48-0.87c0.19,0.05,0.3,0.08,0.34,0.09
		c0.17-0.11,1.25-0.07,3.24,0.11l1.9,0.62c0.39,0.23,0.68,0.35,0.89,0.37h0.12c0.02-0.29,0-0.91-0.07-1.84
		C159.85,51.33,160.46,51.16,161.65,51.13z M148.31,60.84l-0.07,0.9c0.15,1.62,0.51,2.7,1.08,3.24c0.94,0.93,1.85,1.43,2.73,1.5
		l0.97,0.09c0.4,0.04,0.94-0.21,1.61-0.73c1.46-0.54,2.61-1.68,3.44-3.42c0.27-0.4,0.44-1.02,0.51-1.84l0.04-0.46
		c-0.23-1.36-0.69-2.35-1.4-2.97c-0.4-0.34-1.16-0.66-2.27-0.94c-1.84-0.17-3.32,0.14-4.43,0.92
		C149.31,58.69,148.57,59.93,148.31,60.84z M165.76,68.9v0.05l0.21,0.02l0.02-0.05c0-0.08-0.04-0.12-0.11-0.12
		C165.8,68.79,165.76,68.82,165.76,68.9z"/>
	<path class="st11" d="M174.86,41.78l0.97,0.18c0.25,0.05,0.32,0.37,0.23,0.97c-0.03,3.24-0.09,5.86-0.18,7.88l0.11,0.07
		c0.39,0.07,1.93,0.1,4.62,0.09c0.57,0.19,0.84,0.34,0.81,0.44c0.12,0.63,0.05,1.66-0.19,3.1c0.09,0.15,0.12,0.35,0.07,0.59v0.05
		l-0.39,0.57c-0.02,0-0.13-0.04-0.32-0.11c-3.31-0.27-4.98-0.27-5.03,0c-0.3,3.42-0.26,6.3,0.11,8.62c0.57,2.73,1.14,4.14,1.73,4.25
		c0.45,0.08,1.1-0.59,1.95-2.02c0.14-0.78,0.35-1.14,0.64-1.1c0.64,0,1.03,0.02,1.17,0.05c1.88,0.34,2.79,0.66,2.75,0.96
		c-0.35,1.02-0.61,1.51-0.76,1.49c-0.63,1.03-1.31,1.76-2.05,2.21c-0.64,0.4-1.16,0.61-1.56,0.64c-0.02,0.14-0.8,0.12-2.34-0.07
		c-0.03-0.01-0.08-0.04-0.14-0.09c-0.32-0.02-0.58-0.05-0.78-0.09l-0.42-0.07c-2.37-0.44-3.78-2.47-4.21-6.09
		c-0.34-1.94-0.44-4.36-0.28-7.26c0.15-1.17,0.17-1.76,0.03-1.79c-0.27-0.05-1.45-0.04-3.54,0.03c-0.44-0.07-0.98-0.05-1.63,0.05
		c-0.21-0.03-0.28-0.58-0.21-1.65c-0.06-0.22-0.09-0.91-0.11-2.05c0.12-0.64,0.34-1.02,0.66-1.15l0.19,0.11l4.39,0.16
		c0.45,0.04,0.68,0,0.69-0.11c0.02-0.13,0.1-2.99,0.23-8.57c-0.08-0.01-0.12-0.11-0.11-0.3c0.05-0.27,0.5-0.32,1.36-0.16
		C174.07,41.68,174.59,41.74,174.86,41.78z"/>
	<path class="st11" d="M202.08,51.13c0.72,0.06,1.05,0.47,0.97,1.22c-0.03,0.41,0.14,2.79,0.51,7.14c0.2,0.84,0.78,2.44,1.75,4.8
		c0.47,0.79,0.86,1.38,1.17,1.75c0.85,1.25,1.25,2.13,1.2,2.64v0.05c-0.01,0.11-0.16,0.23-0.44,0.35l-0.28-0.07l-0.39-0.04
		c-0.2,0.07-0.3,0.12-0.3,0.14l-0.27-0.25c-0.12,0.06-0.41,0.11-0.87,0.14l-0.9-0.07c-0.37-0.04-0.75-0.49-1.15-1.36l-1.47-2.71
		h-0.07c-0.68,0.86-1.45,1.73-2.28,2.6c-1.02,0.84-1.99,1.3-2.92,1.4c-1.13,0.33-2.44,0.43-3.91,0.3c-3-0.56-4.86-1.14-5.58-1.75
		c-1.09-0.54-1.75-1.17-2-1.9c-0.41-0.99-0.6-1.79-0.55-2.39l0.05-0.51c0.12-1.42,0.56-2.67,1.31-3.77
		c0.02-0.27,0.78-1.29,2.27-3.06c1.57-1.57,2.71-2.44,3.43-2.62c0.92-0.65,1.75-0.94,2.48-0.87c0.19,0.05,0.3,0.08,0.34,0.09
		c0.17-0.11,1.25-0.07,3.24,0.11l1.9,0.62c0.39,0.23,0.68,0.35,0.89,0.37h0.12c0.02-0.29,0-0.91-0.07-1.84
		C200.28,51.33,200.88,51.16,202.08,51.13z M188.74,60.84l-0.07,0.9c0.15,1.62,0.51,2.7,1.08,3.24c0.94,0.93,1.85,1.43,2.73,1.5
		l0.97,0.09c0.4,0.04,0.94-0.21,1.61-0.73c1.46-0.54,2.61-1.68,3.44-3.42c0.27-0.4,0.44-1.02,0.51-1.84l0.04-0.46
		c-0.23-1.36-0.69-2.35-1.4-2.97c-0.4-0.34-1.16-0.66-2.27-0.94c-1.84-0.17-3.32,0.14-4.43,0.92
		C189.74,58.69,189,59.93,188.74,60.84z M206.19,68.9v0.05l0.21,0.02l0.02-0.05c0-0.08-0.04-0.12-0.11-0.12
		C206.23,68.79,206.19,68.82,206.19,68.9z"/>
	<path class="st11" d="M218.21,42.69c4.65,0.21,6.98,0.65,6.98,1.31c0.84,0.41,1.26,1.03,1.26,1.86c0.06,0.01,0.16,0.47,0.3,1.36
		c0,0.4-0.58,0.66-1.73,0.78c0,0.08-0.14,0.12-0.43,0.12h-0.18c-0.12-0.04-0.41-0.77-0.89-2.21c-0.74-0.84-1.16-1.26-1.26-1.26
		c-0.56-0.24-1.21-0.35-1.97-0.35c-1.07,0.39-1.87,0.99-2.39,1.79c-0.6,1.01-0.9,2.69-0.9,5.01c0.31,3.46,0.61,5.19,0.9,5.19
		c1.26-0.04,2.08-0.09,2.44-0.18l0.35,0.05c0.94-0.12,2.02-0.2,3.22-0.23c0.19,0,0.39,0.83,0.6,2.5c0,0.28-0.28,0.43-0.83,0.43
		c-0.72,0.03-1.1,0.08-1.13,0.12c-0.21-0.05-0.4-0.07-0.55-0.07c-1.18,0.08-1.79,0.12-1.84,0.12c-0.34,0-1.02-0.02-2.04-0.05
		c-0.07,0.09-0.11,0.17-0.11,0.23c0.52,3.32,0.9,6.18,1.13,8.59c0.02,0,0.1,0.3,0.23,0.9v0.35c0,0.4-0.7,0.6-2.09,0.6
		c-0.14,0-1,0.12-2.57,0.35c-0.39,0-0.58-0.22-0.58-0.66v-0.53c0-0.05-0.02-0.07-0.07-0.07c0.12-0.28,0.18-0.68,0.18-1.19v-0.73
		c0-1.18-0.09-2.33-0.28-3.45c0-0.05,0.02-0.11,0.05-0.18c-0.2-2.7-0.42-4.06-0.65-4.06h-1.01l-3.7,0.23c-0.34,0-0.54-0.4-0.6-1.19
		l-0.18-0.83V57.3c0.14-0.24,0.32-0.35,0.53-0.35h0.25l3.58-0.3c0.14,0.05,0.32,0.07,0.53,0.07c0.28-0.06,0.42-0.14,0.42-0.25
		c-0.32-2.6-0.48-4.39-0.48-5.37c0-0.05-0.02-0.11-0.05-0.18c0.04-0.07,0.05-0.15,0.05-0.25c0-0.25-0.02-0.5-0.05-0.76
		c0.21-2.41,0.55-3.96,1.01-4.66c0.47-1.12,1.11-1.84,1.91-2.14C216.66,42.83,217.54,42.69,218.21,42.69z"/>
	<path class="st11" d="M234.47,51.03h0.05c1.64,0,3.48,0.47,5.51,1.4c0.78,0.39,1.62,1.17,2.51,2.35c0,0.11,0.29,0.53,0.89,1.28
		c0.09,0.34,0.33,0.89,0.71,1.65c0.58,1.59,0.87,2.79,0.87,3.58v0.18c0,0.72-0.54,2.01-1.63,3.86c-0.5,0.64-0.97,1.07-1.42,1.29
		c-1.63,1.68-3.99,2.51-7.08,2.51h-0.41c-1.85,0-3.11-0.35-3.75-1.06c-0.83-0.7-1.8-1.81-2.92-3.33c-0.78-1.16-1.17-2.41-1.17-3.75
		c-0.07,0-0.11-0.23-0.12-0.69c0-0.11,0.04-0.22,0.12-0.35c0.17-1.96,0.59-3.62,1.28-4.98c0.99-1.62,2.12-2.63,3.4-3.05
		C232.36,51.32,233.42,51.03,234.47,51.03z M231.24,59.28c0.04,0.58,0.05,0.97,0.05,1.17h0.07c-0.05,0.08-0.07,0.14-0.07,0.18
		c0,1.04,0.67,2.33,2,3.88c0.59,0.46,1.33,0.69,2.21,0.69c2.6,0,4.32-0.99,5.15-2.98c0.12-0.33,0.2-0.74,0.25-1.24
		c0-1.31-0.59-2.72-1.77-4.21c-1.03-1.24-2.08-2.04-3.15-2.39c-0.14-0.08-0.3-0.12-0.48-0.12h-0.11c-1.37,0-2.5,0.96-3.4,2.87
		C231.56,57.77,231.3,58.49,231.24,59.28z"/>
	<path class="st11" d="M248.85,51.12l0.16,0.02c0.5,0.02,0.72,0.48,0.67,1.36c0,0.67,0.02,1.1,0.05,1.28h0.11
		c0.98-0.44,1.54-0.66,1.68-0.66c0.6-0.18,1.28-0.25,2.04-0.21c0.84,0.05,2.49,0.61,4.96,1.7c1.25,1.05,1.85,2.11,1.81,3.17
		c0.15,0.01,0.31,0.75,0.46,2.21l-0.07,0.27v0.21c-0.01,0.19-0.01,0.49,0,0.9l-0.11,0.05c-0.31-0.02-0.63-0.02-0.96,0
		c-1.63-0.08-2.44-0.25-2.43-0.5l-0.39-2.69c-0.13-1.09-0.47-2.01-1.03-2.76c-0.35-0.24-0.68-0.36-0.99-0.37l-0.37-0.02
		c-0.77-0.03-1.74,0.55-2.9,1.75c-0.94,1.68-1.44,2.95-1.49,3.81c-0.04,0.71-0.1,2.66-0.2,5.84c0.12,0.42,0.21,0.94,0.28,1.56
		c-0.08,0.26-0.12,0.44-0.12,0.53l0.04,0.37c-0.06,0.18-0.19,0.26-0.39,0.25l-1.49-0.09c-0.54-0.02-1.22,0.01-2.02,0.11
		c-0.24-0.01-0.35-0.78-0.35-2.3c-0.2-1.31-0.31-4.36-0.32-9.16l-0.16-4.21l0.03-0.64c-0.05-0.5-0.09-0.75-0.12-0.76
		c0.04-0.06,0.06-0.11,0.07-0.14c-0.06-0.33-0.09-0.51-0.09-0.55c0.03-0.06,0.06-0.12,0.07-0.2l0.64,0.02
		C247.38,51.15,248.35,51.09,248.85,51.12z"/>
	<path class="st11" d="M265.58,50.97c0.44,0.02,0.61,0.83,0.53,2.41c-0.05,0.07-0.08,0.15-0.09,0.25l0.12,0.07l0.39,0.02
		c0.74-0.28,1.5-0.41,2.27-0.39c0.18,0,0.41,0.03,0.71,0.09l0.39-0.04c3.28,0.37,5.12,0.91,5.51,1.63c0.52,0.53,0.97,1.2,1.36,2
		c0.08,0.01,0.56-0.43,1.42-1.33c1.35-0.68,2.3-1.13,2.85-1.33c0.58-0.11,1.13-0.17,1.67-0.18c0.85,0.13,1.61,0.34,2.28,0.64
		l0.14-0.05c1.39,0.32,2.36,0.77,2.89,1.36c0.48,0.86,0.91,1.74,1.28,2.64l0.78,3.26c-0.05,0.08-0.07,0.15-0.07,0.2l0.78,4.85
		c0.13,0.01,0.21,0.51,0.25,1.49l-0.05,0.78c-0.01,0.27-1.43,0.37-4.25,0.28c-0.14,0.08-0.27,0.12-0.39,0.11
		c-0.15,0-0.33-1.19-0.53-3.56c0.06-0.99-0.29-3.32-1.04-7c-0.48-0.8-1.02-1.22-1.59-1.24l-0.51-0.04
		c-0.61-0.02-1.41,0.84-2.39,2.59c-0.71,2.01-1.13,4.3-1.26,6.87l0.16,0.46c-0.05,0.94-0.33,1.4-0.83,1.36
		c-1.32,0.02-2.57,0.06-3.74,0.12c-0.31-0.01-0.52-1.26-0.64-3.75c-1.06-6.66-2.26-10.02-3.6-10.09h-0.05
		c-1.04,0.31-1.73,0.81-2.07,1.5c-0.35,0.42-0.74,1.61-1.15,3.54c-0.01,0.13,0,0.28,0.04,0.44c-0.01,0.14-0.05,0.55-0.12,1.22
		c-0.17,3.15-0.13,5.36,0.11,6.62l-0.02,0.12c-0.26,0.29-0.58,0.43-0.97,0.41c-0.03,0-0.31-0.04-0.83-0.11
		c-0.02,0-0.31,0.01-0.85,0.02l-0.12-0.07c-0.22,0.06-0.54,0.11-0.96,0.14l-0.12-0.07c-0.15,0.04-0.24,0.05-0.27,0.05
		c-0.14-0.01-0.31-0.09-0.51-0.23l-0.37,0.05c-0.61-9.59-0.9-14.72-0.87-15.41l-0.39-2.46c0.01-0.26,1.3-0.34,3.88-0.25
		c0.07,0.05,0.13,0.07,0.18,0.07C265.11,50.99,265.35,50.96,265.58,50.97z"/>
	<path class="st11" d="M308.9,51.13c0.72,0.06,1.05,0.47,0.97,1.22c-0.03,0.41,0.14,2.79,0.51,7.14c0.2,0.84,0.78,2.44,1.75,4.8
		c0.47,0.79,0.86,1.38,1.17,1.75c0.85,1.25,1.25,2.13,1.2,2.64v0.05c-0.01,0.11-0.16,0.23-0.44,0.35l-0.28-0.07l-0.39-0.04
		c-0.2,0.07-0.3,0.12-0.3,0.14l-0.27-0.25c-0.12,0.06-0.41,0.11-0.87,0.14l-0.9-0.07c-0.37-0.04-0.75-0.49-1.15-1.36l-1.47-2.71
		h-0.07c-0.68,0.86-1.45,1.73-2.28,2.6c-1.02,0.84-1.99,1.3-2.92,1.4c-1.13,0.33-2.44,0.43-3.91,0.3c-3-0.56-4.86-1.14-5.58-1.75
		c-1.09-0.54-1.75-1.17-2-1.9c-0.41-0.99-0.6-1.79-0.55-2.39l0.05-0.51c0.12-1.42,0.56-2.67,1.31-3.77
		c0.02-0.27,0.78-1.29,2.27-3.06c1.57-1.57,2.71-2.44,3.43-2.62c0.92-0.65,1.75-0.94,2.48-0.87c0.19,0.05,0.3,0.08,0.34,0.09
		c0.17-0.11,1.25-0.07,3.24,0.11l1.9,0.62c0.39,0.23,0.68,0.35,0.89,0.37h0.12c0.02-0.29,0-0.91-0.07-1.84
		C307.1,51.33,307.71,51.16,308.9,51.13z M295.56,60.84l-0.07,0.9c0.15,1.62,0.51,2.7,1.08,3.24c0.94,0.93,1.85,1.43,2.73,1.5
		l0.97,0.09c0.4,0.04,0.94-0.21,1.61-0.73c1.46-0.54,2.61-1.68,3.44-3.42c0.27-0.4,0.44-1.02,0.51-1.84l0.04-0.46
		c-0.23-1.36-0.69-2.35-1.4-2.97c-0.4-0.34-1.16-0.66-2.27-0.94c-1.84-0.17-3.32,0.14-4.43,0.92
		C296.56,58.69,295.82,59.93,295.56,60.84z M313.01,68.9v0.05l0.21,0.02l0.02-0.05c0-0.08-0.04-0.12-0.11-0.12
		C313.05,68.79,313.01,68.82,313.01,68.9z"/>
	<path class="st11" d="M339.58,43.92c0.19,0,0.44,0.11,0.76,0.34c0,0.08,0.38,0.84,1.15,2.28c0.48,1.09,0.93,1.94,1.33,2.57
		c1.07,1.77,2.75,4.97,5.03,9.6c1.28,2.94,2.05,4.62,2.34,5.05c0.32,0.27,0.81,1.36,1.47,3.28l0.96,1.72l-0.2,0.32l-0.18-0.04
		l-0.67,0.14c-0.03,0-0.05-0.02-0.05-0.05c-1.26,0-2.77,0.16-4.51,0.48h-0.05c-0.07,0-0.17-0.27-0.28-0.81
		c-0.19-0.45-0.68-1.97-1.47-4.55c-0.71-1.78-1.13-2.67-1.27-2.67c-0.56-0.06-0.89-0.09-1.01-0.09c-0.83,0-2.52,0.05-5.08,0.14
		c-0.48,0-1.66-0.02-3.52-0.05c-0.64,1.39-1.29,3.03-1.95,4.91c-0.12,0-0.35,0.7-0.71,2.09c-0.07,0.01-0.18,0.28-0.34,0.81
		l-0.23,0.09c-0.86-0.06-1.51-0.09-1.95-0.09c-1.28,0.02-2.01,0.03-2.2,0.03c-0.42-0.02-0.74-0.03-0.96-0.03
		c-0.06,0.02-0.11,0.03-0.14,0.03c-0.38-0.17-0.57-0.28-0.57-0.34v-0.18c0.72-1.29,1.53-3.05,2.43-5.28
		c0.19-0.33,0.65-1.35,1.38-3.05c0.15-0.18,0.45-0.77,0.9-1.77l4.52-8.5l2.28-3.81c0.65-1.04,1.06-1.73,1.24-2.09
		c0.32-0.3,0.62-0.45,0.9-0.48H339.58z M336.54,56.9l0.11,0.05h0.71c2.5-0.07,3.9-0.11,4.18-0.11l0.11-0.14
		c-0.46-1.13-1.27-2.62-2.43-4.46c-0.13,0-0.37,0.35-0.73,1.04C337.91,54.24,337.26,55.44,336.54,56.9z"/>
	<path class="st11" d="M365.22,52.02c1.87,0.34,3.46,1.06,4.78,2.14c1.54,2.05,2.33,3.61,2.39,4.66c0.44,2.18,0.71,4.7,0.81,7.56
		c0.15,1,0.4,2.19,0.74,3.56v0.05c-0.02,0.18-0.31,0.27-0.85,0.28c-0.13,0.05-0.19,0.08-0.19,0.11l-0.12-0.07
		c-1.81-0.02-2.93-0.02-3.38,0.02c-0.57-0.06-0.82-0.86-0.76-2.41c-0.2-1.85-0.31-3.76-0.32-5.72c-0.25-2.74-0.8-4.62-1.65-5.63
		c-1.1-0.76-1.83-1.16-2.2-1.2l-0.94-0.09c-0.71-0.07-1.72,0.38-3.03,1.35c-1.3,1.55-2.03,3.08-2.2,4.6c-0.03,0-0.14,0.4-0.32,1.2
		c-0.09,0.97-0.03,3.09,0.2,6.38l-0.02,0.12c-0.02,0.28-0.58,0.39-1.67,0.32l-2.6-0.27c-0.04,0-0.06,0.02-0.07,0.05
		c-0.07-0.05-0.13-0.07-0.18-0.07c-0.05-0.01-0.25-0.01-0.62,0c-0.12-0.01-0.16-0.81-0.12-2.41c-0.09-1.79-0.19-3.19-0.3-4.2
		l0.07-0.11c-0.14-1.77-0.2-2.76-0.18-2.97c0.05-0.06,0.08-0.14,0.09-0.23c-0.12-1.65-0.22-4.03-0.3-7.14
		c0.12-0.52,0.37-0.75,0.76-0.71c1.45,0.11,2.6,0.2,3.44,0.28l0.5,0.05c0.2,0.02,0.32,0.77,0.37,2.25l0.18,0.14
		c1.63-1.23,2.95-1.79,3.95-1.68C362.84,51.98,364.09,51.9,365.22,52.02z"/>
	<path class="st11" d="M377.04,49.94c1.07,0.26,1.59,0.61,1.54,1.06c0.34,11.22,0.55,17.08,0.64,17.6c-0.2,0.85-0.53,1.25-0.97,1.2
		c-0.08-0.01-0.44,0.08-1.08,0.28l-0.46-0.12l-0.78-0.07c-0.05-0.01-0.29,0.01-0.73,0.05l-0.05-0.02c-0.84-0.38-1.22-0.9-1.15-1.56
		c0.19-1.79,0.08-7.38-0.34-16.77c0.02-0.26-0.01-0.59-0.09-0.99v-0.07c0.05-0.39,0.38-0.61,0.99-0.67c0.08,0.05,0.15,0.08,0.2,0.09
		c0.28-0.06,0.46-0.09,0.53-0.09c0.11,0.01,0.28,0.05,0.51,0.12L377.04,49.94z"/>
	<path class="st11" d="M387.38,50.34c1.13,0,2.68,0.36,4.64,1.08c1.14,0.79,1.72,1.45,1.72,1.98l0.92,2.92
		c0,0.46-0.15,0.69-0.44,0.69c-0.74,0.21-1.61,0.32-2.59,0.32c-0.58-1.87-1.24-2.99-1.98-3.38c-0.81-0.54-1.54-0.81-2.16-0.81
		c-1.59,0-2.8,0.95-3.61,2.85c-0.04,0.14-0.05,0.29-0.05,0.44v0.32c0.32,1.65,1.42,2.48,3.29,2.48c3.29,0,5.71,0.52,7.26,1.56
		c1.3,1.05,1.95,2.38,1.95,3.98v0.44c0,1.09-0.56,2.02-1.67,2.8c-1.39,1.13-2.35,1.71-2.87,1.72c-1.02,0.37-2.14,0.62-3.38,0.76
		h-1.08c-1.36,0-2.42-0.24-3.19-0.71c-2.41-1.13-3.81-2.24-4.2-3.33c-0.44-0.93-0.78-2.08-1.03-3.45c0.08-0.47,0.21-0.71,0.37-0.71
		c0.41,0.07,1.31,0.13,2.69,0.18c0.07-0.05,0.13-0.07,0.18-0.07c0.5,0.09,0.74,0.31,0.74,0.66c0.24,1.42,0.6,2.42,1.08,3.01
		c1.1,1.23,2.3,1.84,3.61,1.84c1.62-0.39,2.7-0.93,3.24-1.61c0.57-0.67,0.85-1.25,0.85-1.74v-0.74c0-1.71-2.19-2.72-6.57-3.03
		c-1.57,0-2.93-0.66-4.09-1.98c-0.65-0.87-0.97-1.79-0.97-2.76c0.13-0.9,0.44-1.67,0.92-2.3c0.84-1.24,1.73-2.01,2.69-2.32
		C385.25,50.7,386.49,50.34,387.38,50.34z"/>
	<path class="st11" d="M399.37,42.97c1.43,0.15,2.37,0.95,2.81,2.39l0.05,0.8c-0.08,0.85-0.65,1.45-1.7,1.79
		c-0.58,0.25-1.13,0.34-1.67,0.28c-1.53-0.17-2.37-0.93-2.51-2.3c0.14-1.33,0.46-2.08,0.96-2.25
		C398.01,43.13,398.69,42.9,399.37,42.97z M400.13,49.94c1.07,0.26,1.59,0.61,1.54,1.06c0.34,11.22,0.55,17.08,0.64,17.6
		c-0.2,0.85-0.53,1.25-0.97,1.2c-0.08-0.01-0.44,0.08-1.08,0.28l-0.46-0.12l-0.78-0.07c-0.05-0.01-0.29,0.01-0.73,0.05l-0.05-0.02
		c-0.84-0.38-1.22-0.9-1.15-1.56c0.19-1.79,0.08-7.38-0.34-16.77c0.02-0.26-0.01-0.59-0.09-0.99v-0.07
		c0.05-0.39,0.38-0.61,0.99-0.67c0.08,0.05,0.15,0.08,0.2,0.09c0.28-0.06,0.46-0.09,0.53-0.09c0.11,0.01,0.28,0.05,0.51,0.12
		L400.13,49.94z"/>
	<path class="st11" d="M410.56,51.5h0.05c1.64,0,3.48,0.47,5.51,1.4c0.78,0.39,1.62,1.17,2.51,2.35c0,0.11,0.29,0.53,0.89,1.28
		c0.09,0.34,0.33,0.89,0.71,1.65c0.58,1.59,0.87,2.79,0.87,3.58v0.18c0,0.72-0.54,2.01-1.63,3.86c-0.5,0.64-0.97,1.07-1.42,1.29
		c-1.63,1.68-3.99,2.51-7.08,2.51h-0.41c-1.85,0-3.11-0.35-3.75-1.06c-0.83-0.7-1.8-1.81-2.92-3.33c-0.78-1.16-1.17-2.41-1.17-3.75
		c-0.07,0-0.11-0.23-0.12-0.69c0-0.11,0.04-0.22,0.12-0.35c0.17-1.96,0.59-3.62,1.28-4.98c0.99-1.62,2.12-2.63,3.4-3.05
		C408.45,51.8,409.51,51.5,410.56,51.5z M407.34,59.76c0.04,0.58,0.05,0.97,0.05,1.17h0.07c-0.05,0.08-0.07,0.14-0.07,0.18
		c0,1.04,0.67,2.33,2,3.88c0.59,0.46,1.33,0.69,2.21,0.69c2.6,0,4.32-0.99,5.15-2.98c0.12-0.33,0.2-0.74,0.25-1.24
		c0-1.31-0.59-2.72-1.77-4.21c-1.03-1.24-2.08-2.04-3.15-2.39c-0.14-0.08-0.3-0.12-0.48-0.12h-0.11c-1.37,0-2.5,0.96-3.4,2.87
		C407.65,58.25,407.39,58.97,407.34,59.76z"/>
	<path class="st11" d="M453.89,44.63c0.27,0.02,0.51,0.19,0.71,0.5c-0.01,0.08-0.04,0.16-0.09,0.23c-0.14,2.1-0.13,3.16,0.03,3.17
		l-0.03,0.37c-0.02,0.35-0.01,0.63,0.05,0.81c-0.04,0.47-0.31,0.76-0.81,0.85l-0.32,0.04c-0.09,0-0.17-0.02-0.23-0.07l-7.14-0.07
		l-0.07,0.12l-0.02,0.18c0,3.31,0.07,6.52,0.21,9.63c0.01,0.38,0.01,0.61,0,0.69l-0.09,0.25c0,0.44,0.02,0.7,0.05,0.8l-0.07,0.25
		c-0.02,4.52,0.01,7.13,0.11,7.83c-0.09,0.25-0.18,0.37-0.27,0.35l-0.25-0.02c-1.83,0.17-3.18,0.21-4.06,0.14
		c-0.61-0.06-0.9-0.33-0.85-0.81c0.05-1.52,0.07-4.63,0.07-9.32l0.16-8.98c-0.03-0.67-0.09-1.01-0.16-1.01
		c-4.15-0.08-7.22-0.02-9.21,0.18h-0.05c-0.35-0.18-0.51-0.56-0.46-1.15l-0.2-4.18l0.03-0.32c0.21-0.31,0.67-0.43,1.38-0.37
		c4.91,0.05,9.33,0.02,13.25-0.07c1.91,0.17,4.16,0.17,6.75,0.02C452.35,44.59,452.87,44.57,453.89,44.63z"/>
	<path class="st11" d="M464.68,51.2c1.87,0.08,3.35,0.27,4.46,0.55c1.53,0.56,2.86,1.33,3.98,2.32c0.52,0.4,1.03,1.07,1.52,2.02
		c0.81,1.24,1.22,2.57,1.22,3.98c-0.03,0.48-0.18,0.73-0.42,0.73l-0.97-0.07c-0.27,0.08-0.45,0.12-0.55,0.12h-1.05
		c-3.46,0.33-5.25,0.5-5.38,0.5c0,0.02-0.17,0.08-0.5,0.18c-0.07-0.04-0.13-0.05-0.18-0.05c-3.32,0.21-5.58,0.45-6.78,0.73v0.12
		c0.3,0.8,0.84,1.74,1.65,2.81c1.4,1.63,3.14,2.44,5.21,2.44c1.4-0.15,3.09-1.07,5.06-2.75c0.65-0.93,1.18-1.5,1.59-1.72h0.12
		c1.75,0.53,2.62,1.08,2.62,1.65v0.25c-0.54,0.6-1.64,1.42-3.29,2.44c-0.41,0.3-1,0.59-1.77,0.87c0,0.09-0.45,0.24-1.35,0.42
		c-0.57,0.32-1.61,0.56-3.12,0.73c0,0.05-0.02,0.07-0.07,0.07l-0.12-0.07c-0.53,0.08-1.06,0.12-1.58,0.12h-0.12
		c-0.41,0-0.9-0.02-1.47-0.05c-0.08,0.04-0.15,0.05-0.19,0.05c-1.83-0.28-3.84-1.24-6.04-2.87c-1.51-1.43-2.27-3.14-2.27-5.13
		c0.27-2.48,0.89-4.44,1.84-5.88c1.65-1.73,2.98-2.77,3.97-3.12c1.02-0.71,1.85-1.09,2.5-1.15C463.67,51.28,464.16,51.2,464.68,51.2
		z M459.74,59.08l0.25,0.12c0.84-0.12,1.95-0.24,3.35-0.37c0.05,0,0.11,0.02,0.2,0.07c4.64-0.11,6.96-0.31,6.96-0.62v-0.05
		c0-0.29-0.61-1.37-1.82-3.24c-0.72-0.98-1.78-1.47-3.19-1.47h-0.12c-1.1,0.2-2.26,0.86-3.47,1.97c-0.99,0.67-1.71,1.85-2.14,3.54
		V59.08z"/>
	<path class="st11" d="M479.38,42.97c1.43,0.15,2.37,0.95,2.81,2.39l0.05,0.8c-0.08,0.85-0.65,1.45-1.7,1.79
		c-0.58,0.25-1.13,0.34-1.67,0.28c-1.53-0.17-2.37-0.93-2.51-2.3c0.14-1.33,0.46-2.08,0.96-2.25
		C478.02,43.13,478.7,42.9,479.38,42.97z M480.14,49.94c1.07,0.26,1.59,0.61,1.54,1.06c0.34,11.22,0.55,17.08,0.64,17.6
		c-0.2,0.85-0.53,1.25-0.97,1.2c-0.08-0.01-0.44,0.08-1.08,0.28l-0.46-0.12l-0.78-0.07c-0.05-0.01-0.29,0.01-0.73,0.05l-0.05-0.02
		c-0.84-0.38-1.22-0.9-1.15-1.56c0.19-1.79,0.08-7.38-0.34-16.77c0.02-0.26-0.01-0.59-0.09-0.99v-0.07
		c0.05-0.39,0.38-0.61,0.99-0.67c0.08,0.05,0.15,0.08,0.2,0.09c0.28-0.06,0.46-0.09,0.53-0.09c0.11,0.01,0.28,0.05,0.51,0.12
		L480.14,49.94z"/>
	<path class="st11" d="M503.71,51.08h0.07l-0.02,0.2c-0.02,0.23-0.77,1.07-2.25,2.55c-0.66,1.16-1.9,2.54-3.72,4.16
		c-1.26,1.25-1.91,2.07-1.95,2.46c1.35,1.97,2.87,3.9,4.57,5.77c2.14,1.76,3.22,2.67,3.24,2.73c-0.17,0.51-0.33,0.76-0.5,0.74
		l-5.06,0.64c-0.01,0.04-0.09,0.05-0.25,0.04c-1.16-1.23-1.93-2.21-2.32-2.96l-2.78-3.72c-0.07-0.04-0.13-0.06-0.18-0.07
		c-1.89,2.04-2.84,3.13-2.85,3.28c-0.44,0.6-0.92,1.32-1.45,2.16c-0.54,0.46-1.16,0.66-1.84,0.6l-3.65,0.11
		c-0.2-0.05-0.29-0.12-0.28-0.21V69.5c0.22-0.7,0.86-1.64,1.91-2.82c0.01-0.12,0.42-0.7,1.24-1.75c0.02-0.25,0.92-1.33,2.67-3.24
		c1.05-1.09,1.59-1.78,1.61-2.07l0.02-0.11c-1.78-2.29-3.37-4.4-4.76-6.34c-0.35-0.11-1-0.78-1.93-2.02
		c-0.12-0.09-0.21-0.14-0.28-0.14v-0.07c0.02-0.18,0.92-0.28,2.69-0.32c1.77-0.03,2.97,0.45,3.61,1.47c1.82,2.5,3,4.04,3.54,4.62
		c0.06,0,0.84-0.77,2.36-2.3c0.96-0.87,1.95-1.95,2.98-3.22c0.08-0.13,0.21-0.22,0.37-0.27c2.96,0.23,4.49,0.34,4.59,0.35
		C503.39,51.13,503.59,51.07,503.71,51.08z"/>
	<path class="st11" d="M513.43,51.2c1.87,0.08,3.35,0.27,4.46,0.55c1.53,0.56,2.86,1.33,3.98,2.32c0.52,0.4,1.03,1.07,1.52,2.02
		c0.81,1.24,1.22,2.57,1.22,3.98c-0.03,0.48-0.18,0.73-0.42,0.73l-0.97-0.07c-0.27,0.08-0.45,0.12-0.55,0.12h-1.05
		c-3.46,0.33-5.25,0.5-5.38,0.5c0,0.02-0.17,0.08-0.5,0.18c-0.07-0.04-0.13-0.05-0.18-0.05c-3.32,0.21-5.58,0.45-6.78,0.73v0.12
		c0.3,0.8,0.84,1.74,1.65,2.81c1.4,1.63,3.14,2.44,5.21,2.44c1.4-0.15,3.09-1.07,5.06-2.75c0.65-0.93,1.18-1.5,1.59-1.72h0.12
		c1.75,0.53,2.62,1.08,2.62,1.65v0.25c-0.54,0.6-1.64,1.42-3.29,2.44c-0.41,0.3-1,0.59-1.77,0.87c0,0.09-0.45,0.24-1.35,0.42
		c-0.57,0.32-1.61,0.56-3.12,0.73c0,0.05-0.02,0.07-0.07,0.07l-0.12-0.07c-0.53,0.08-1.06,0.12-1.58,0.12h-0.12
		c-0.41,0-0.9-0.02-1.47-0.05c-0.08,0.04-0.15,0.05-0.19,0.05c-1.83-0.28-3.84-1.24-6.04-2.87c-1.51-1.43-2.27-3.14-2.27-5.13
		c0.27-2.48,0.89-4.44,1.84-5.88c1.65-1.73,2.98-2.77,3.97-3.12c1.02-0.71,1.85-1.09,2.5-1.15C512.42,51.28,512.91,51.2,513.43,51.2
		z M508.49,59.08l0.25,0.12c0.84-0.12,1.95-0.24,3.35-0.37c0.05,0,0.11,0.02,0.2,0.07c4.64-0.11,6.96-0.31,6.96-0.62v-0.05
		c0-0.29-0.61-1.37-1.82-3.24c-0.72-0.98-1.78-1.47-3.19-1.47h-0.12c-1.1,0.2-2.26,0.86-3.47,1.97c-0.99,0.67-1.71,1.85-2.14,3.54
		V59.08z"/>
	<path class="st11" d="M528.13,42.97c1.43,0.15,2.37,0.95,2.81,2.39l0.05,0.8c-0.08,0.85-0.65,1.45-1.7,1.79
		c-0.58,0.25-1.13,0.34-1.67,0.28c-1.53-0.17-2.37-0.93-2.51-2.3c0.14-1.33,0.46-2.08,0.96-2.25
		C526.77,43.13,527.46,42.9,528.13,42.97z M528.89,49.94c1.07,0.26,1.59,0.61,1.54,1.06c0.34,11.22,0.55,17.08,0.64,17.6
		c-0.2,0.85-0.53,1.25-0.97,1.2c-0.08-0.01-0.44,0.08-1.08,0.28l-0.46-0.12l-0.78-0.07c-0.05-0.01-0.29,0.01-0.73,0.05L527,69.94
		c-0.84-0.38-1.22-0.9-1.15-1.56c0.19-1.79,0.08-7.38-0.34-16.77c0.02-0.26-0.01-0.59-0.09-0.99v-0.07
		c0.05-0.39,0.38-0.61,0.99-0.67c0.08,0.05,0.15,0.08,0.2,0.09c0.28-0.06,0.46-0.09,0.53-0.09c0.11,0.01,0.28,0.05,0.51,0.12
		L528.89,49.94z"/>
	<path class="st11" d="M534.96,51.59l0.16,0.02c0.5,0.02,0.72,0.48,0.67,1.36c0,0.67,0.02,1.1,0.05,1.28h0.11
		c0.98-0.44,1.54-0.66,1.68-0.66c0.6-0.18,1.28-0.25,2.04-0.21c0.84,0.05,2.49,0.61,4.96,1.7c1.25,1.05,1.85,2.11,1.81,3.17
		c0.15,0.01,0.31,0.75,0.46,2.21l-0.07,0.27v0.21c-0.01,0.19-0.01,0.49,0,0.9l-0.11,0.05c-0.31-0.02-0.63-0.02-0.96,0
		c-1.63-0.08-2.44-0.25-2.43-0.5l-0.39-2.69c-0.13-1.09-0.47-2.01-1.03-2.76c-0.35-0.24-0.68-0.36-0.99-0.37l-0.37-0.02
		c-0.77-0.03-1.74,0.55-2.9,1.75c-0.94,1.68-1.44,2.95-1.49,3.81c-0.04,0.71-0.1,2.66-0.2,5.84c0.12,0.42,0.21,0.94,0.28,1.56
		c-0.08,0.26-0.12,0.44-0.12,0.53l0.04,0.37c-0.06,0.18-0.19,0.26-0.39,0.25l-1.49-0.09c-0.54-0.02-1.22,0.01-2.02,0.11
		c-0.24-0.01-0.35-0.78-0.35-2.3c-0.2-1.31-0.31-4.36-0.32-9.16l-0.16-4.21l0.03-0.64c-0.05-0.5-0.09-0.75-0.12-0.76
		c0.04-0.06,0.06-0.11,0.07-0.14c-0.06-0.33-0.09-0.51-0.09-0.55c0.03-0.06,0.06-0.12,0.07-0.2l0.64,0.02
		C533.49,51.62,534.47,51.57,534.96,51.59z"/>
	<path class="st11" d="M565,51.61c0.72,0.06,1.05,0.47,0.97,1.22c-0.03,0.41,0.14,2.79,0.51,7.14c0.2,0.84,0.78,2.44,1.75,4.8
		c0.47,0.79,0.86,1.38,1.17,1.75c0.85,1.25,1.25,2.13,1.2,2.64v0.05c-0.01,0.11-0.16,0.23-0.44,0.35l-0.28-0.07l-0.39-0.04
		c-0.2,0.07-0.3,0.12-0.3,0.14l-0.27-0.25c-0.12,0.06-0.41,0.11-0.87,0.14l-0.9-0.07c-0.37-0.04-0.75-0.49-1.15-1.36l-1.47-2.71
		h-0.07c-0.68,0.86-1.45,1.73-2.28,2.6c-1.02,0.84-1.99,1.3-2.92,1.4c-1.13,0.33-2.44,0.43-3.91,0.3c-3-0.56-4.86-1.14-5.58-1.75
		c-1.09-0.54-1.75-1.17-2-1.9c-0.41-0.99-0.6-1.79-0.55-2.39l0.05-0.51c0.12-1.42,0.56-2.67,1.31-3.77
		c0.02-0.27,0.78-1.29,2.27-3.06c1.57-1.57,2.71-2.44,3.43-2.62c0.92-0.65,1.75-0.94,2.48-0.87c0.19,0.05,0.3,0.08,0.34,0.09
		c0.17-0.11,1.25-0.07,3.24,0.11l1.9,0.62c0.39,0.23,0.68,0.35,0.89,0.37h0.12c0.02-0.29,0-0.91-0.07-1.84
		C563.2,51.8,563.81,51.63,565,51.61z M551.66,61.31l-0.07,0.9c0.15,1.62,0.51,2.7,1.08,3.24c0.94,0.93,1.85,1.43,2.73,1.5
		l0.97,0.09c0.4,0.04,0.94-0.21,1.61-0.73c1.46-0.54,2.61-1.68,3.44-3.42c0.27-0.4,0.44-1.02,0.51-1.84l0.04-0.46
		c-0.23-1.36-0.69-2.35-1.4-2.97c-0.4-0.34-1.16-0.66-2.27-0.94c-1.84-0.17-3.32,0.14-4.43,0.92
		C552.66,59.17,551.92,60.4,551.66,61.31z M569.11,69.37v0.05l0.21,0.02l0.02-0.05c0-0.08-0.04-0.12-0.11-0.12
		C569.15,69.27,569.11,69.3,569.11,69.37z"/>
	<path class="st11" d="M379.44,41.73l0.01-0.02c0.19-0.09,0.31-0.11,0.36-0.06l0.35,0.33c0.09,0.04,0.13,0.06,0.14,0.05
		c0,0.01,0.02,0.04,0.07,0.1c0.36,0.35,0.95,0.92,1.28,1.19l0.14,0.26c-0.01,0.07-0.08,0.2-0.2,0.41c-0.15,0.1-0.24,0.17-0.29,0.22
		c-0.75,0.92-1.25,1.57-1.52,1.96c-0.78,0.9-1.22,1.44-1.33,1.61l-0.09,0.04c-0.39,0.51-0.64,0.81-0.74,0.9
		c-0.05,0.05-0.21,0.01-0.48-0.13c-0.02-0.03-0.04-0.06-0.05-0.07c-0.06-0.05-0.49-0.48-0.82-0.74l-0.05-0.05
		c-0.04-0.04-0.1-0.11-0.18-0.22l-0.18-0.15c-0.37-0.38-0.53-0.58-0.49-0.62c0.37-0.52,0.91-1.16,1.61-1.92l0.09-0.04
		c0.17-0.19,0.29-0.35,0.37-0.46l0.09-0.04c0.45-0.65,0.9-1.22,1.32-1.69C379.08,42.16,379.27,41.88,379.44,41.73z"/>
</g>
<g>
	<path class="st11" d="M30.5,99.02L15.09,23.73l82.27-10.42L95.3,97.48L30.5,99.02z M19.08,26.59l14.13,69.03l58.83-1.4l1.89-77.11
		L19.08,26.59z"/>
	<path class="st32" d="M49.26,77.56c0.46,0.06,1.3,0.16,2.15,0.26c0.31,0.04,0.44,0.17,0.45,0.51c0.04,1.46,0.23,1.58,1.54,2.19
		c1.01,0.47,1.9,0.45,2.85,0c0.12-0.06,0.37-0.02,0.48,0.07c1.31,1.14,2.68,2.25,3.49,3.83c0.83,1.62,0.39,3.26-0.87,4.57
		c-1.46,1.52-3.06,1.84-5.08,1.32c-3.14-0.8-6.12-1.88-8.66-3.93c-0.77-0.62-1.5-1.32-2.15-2.07c-1.51-1.73-1.32-3.79,0.46-5.25
		C45.35,77.89,47.07,77.59,49.26,77.56"/>
	<path class="st32" d="M80.59,79.03c-4.75-4.76-10.53-7.11-17.3-6.65c-2.1,0.14-3.84,0.86-5.19,2.13c0.98-0.36,1.98-0.6,3.01-0.77
		c4.42-0.75,8.68-0.28,12.55,2.12c3.49,2.17,5.59,5.23,5.5,9.49c-0.02,0.78-0.23,1.56-0.36,2.34c-0.11-0.01-0.21-0.01-0.32-0.02
		c-0.03-0.16-0.11-0.33-0.09-0.49c0.43-5.42-2.23-9.19-6.96-11.07c-13.29-5.27-15.58,1.64-15.97,2.99c0.67-0.53,1.22-0.98,1.79-1.41
		c1.6-1.22,3.29-1.44,5.06-0.37c0.44,0.27,0.9,0.52,1.28,0.85c1,0.88,2,1.77,2.92,2.73c1.9,1.99,3.55,4.17,5.04,6.48
		c0.8,1.25,1.95,1.99,3.37,2.22c0.83,0.13,1.71,0.17,2.54,0.03c2.04-0.34,3.76-1.29,4.51-3.31C82.95,83.67,82.6,81.05,80.59,79.03z"
		/>
	<path class="st32" d="M51.7,66.14c-5.37-5.88-12.47-7.61-20.31-5.44c-0.2,0.05-0.44-0.07-0.66-0.11c0-0.06,0-0.11,0-0.17
		c5.4-2.41,10.71-1.82,15.9,0.59c3.74,1.73,6.73,4.33,8.54,8.13c0.55,1.15,0.91,2.34,1.04,3.57c0.13-1.15-0.05-2.32-0.4-3.46
		c-0.83-2.73-2.45-4.97-4.47-6.91c-3.69-3.52-7.98-6.02-12.92-7.36c-1.85-0.5-3.66-0.66-5.49,0.08c-2.21,0.89-3.89,2.29-4.52,4.68
		c-0.55,2.07,0.02,3.98,1.11,5.75c1.4,2.29,3.36,3.58,6.16,3.47c3.18-0.12,6.36-0.02,9.54,0.31c1.79,0.19,3.57,0.44,5.24,1.14
		c3.53,1.49,3.16,3.24,3.11,4.66c-0.04,0.98-0.01,1.97-0.01,2.95c0.07,0.01,0.13,0.01,0.2,0.01c0.06-0.14,0.12-0.28,0.17-0.42
		C54.17,76.79,58.81,73.92,51.7,66.14z"/>
	<path class="st32" d="M60.95,53.75c-0.07-2.4-0.3-4.79-1-7.11c-0.89-2.96-2.52-5.37-5.37-6.77c-2.01-0.99-4.16-1.43-6.4-1.41
		c-1.8,0.02-3.53,0.35-5.08,1.36c-0.87,0.57-1.15,1.36-1.16,2.4c-0.04,2.5,1.24,4.56,2.57,6.55c0.23,0.34,0.5,0.65,0.73,0.98
		c1.28,1.88,2.22,3.94,2.85,6.11c0.45,1.54,1.14,2.79,2.57,3.57c0.03,0.02,0.06,0.04,0.08,0.07c3.02,2.47,5.63,5.21,6.69,8.96
		c1.33-10.73-1.79-20.04-9.61-27.8c-0.24-0.24-0.56-0.42-0.21-0.8c0.06,0,0.11,0,0.17,0c1.71,1.74,3.66,3.3,5.07,5.25
		c5.02,6.94,7.11,14.68,6.04,23.16c0.56-1.28,1.12-2.56,1.65-3.85c0.27-0.66,0.44-1.41,0.45-2.13
		C61.03,59.44,61.03,56.6,60.95,53.75z"/>
	<path class="st32" d="M88.41,63.07c-0.63-3.36-2.74-5.51-5.76-6.82c-2.26-0.97-4.63-0.89-6.96-0.26
		c-4.73,1.27-8.52,4.06-11.89,7.51c-2.35,2.41-3.67,5.41-4.98,8.5c0.27-0.1,0.5-0.18,0.72-0.26c3.42-5.65,7.66-10.45,14.19-12.67
		c3.72-1.26,7.5-1.24,11.17,0.38c0.42,0.18,0.81,0.44,1.21,0.66c-0.03,0.09-0.06,0.17-0.08,0.26c-0.17,0-0.36,0.05-0.51-0.01
		c-5.77-2.03-11.11-0.86-16.07,2.35c-3.54,2.29-6.42,5.31-8.92,8.68c1.55-0.52,2.13-0.54,4.65-0.64c0.15-0.01,0.32-0.05,0.45-0.12
		c3.62-2,7.47-3.4,11.48-4.33c3.26-0.75,6.55-1.37,9.93-1c0.19,0.02,0.39,0.01,0.59-0.01c0.5-0.06,0.84-0.32,0.85-0.85
		C88.49,63.99,88.49,63.52,88.41,63.07z"/>
</g>
</svg>
