<?xml version="1.0" encoding="UTF-8" standalone="no"?>
<!-- Created with Inkscape (http://www.inkscape.org/) -->

<svg
   xmlns:dc="http://purl.org/dc/elements/1.1/"
   xmlns:cc="http://creativecommons.org/ns#"
   xmlns:rdf="http://www.w3.org/1999/02/22-rdf-syntax-ns#"
   xmlns:svg="http://www.w3.org/2000/svg"
   xmlns="http://www.w3.org/2000/svg"
   xmlns:sodipodi="http://sodipodi.sourceforge.net/DTD/sodipodi-0.dtd"
   xmlns:inkscape="http://www.inkscape.org/namespaces/inkscape"
   width="10mm"
   height="10mm"
   viewBox="0 0 35.433069 35.43307"
   id="svg7820"
   version="1.1"
   inkscape:version="0.91 r13725"
   sodipodi:docname="logo-aew.svg">
  <defs
     id="defs7822">
    <clipPath
       clipPathUnits="userSpaceOnUse"
       id="clipPath26-6">
      <path
         inkscape:connector-curvature="0"
         d="m 0,595.219 842,0 L 842,0 0,0 0,595.219 Z"
         id="path28-5" />
    </clipPath>
  </defs>
  <sodipodi:namedview
     id="base"
     pagecolor="#ffffff"
     bordercolor="#666666"
     borderopacity="1.0"
     inkscape:pageopacity="0.0"
     inkscape:pageshadow="2"
     inkscape:zoom="20.856222"
     inkscape:cx="17.716535"
     inkscape:cy="17.716535"
     inkscape:document-units="px"
     inkscape:current-layer="layer1"
     showgrid="false"
     inkscape:window-width="1549"
     inkscape:window-height="876"
     inkscape:window-x="51"
     inkscape:window-y="24"
     inkscape:window-maximized="1" />
  <metadata
     id="metadata7825">
    <rdf:RDF>
      <cc:Work
         rdf:about="">
        <dc:format>image/svg+xml</dc:format>
        <dc:type
           rdf:resource="http://purl.org/dc/dcmitype/StillImage" />
        <dc:title></dc:title>
      </cc:Work>
    </rdf:RDF>
  </metadata>
  <g
     inkscape:label="Camada 1"
     inkscape:groupmode="layer"
     id="layer1"
     transform="translate(0,-1016.9291)">
    <g
       id="g8435"
       transform="matrix(0.43948632,0,0,0.43948632,-163.37676,918.68202)">
      <path
         inkscape:connector-curvature="0"
         id="path14-1-6"
         d="m 388.98242,299.33951 -0.23482,-1.11993 -12.24697,-59.88011 -0.30708,-1.46313 1.4812,-0.18064 65.17267,-8.25496 1.60764,-0.1987 -0.0361,1.60764 -1.64377,66.90676 -0.0361,1.31863 -1.31862,0.018 -51.28194,1.22831 -1.15606,0.018 z m 2.23986,-2.81789 48.82532,-1.15606 1.55345,-63.98049 -62.08384,7.87563 11.70507,57.26092 z"
         style="color:#000000;font-style:normal;font-variant:normal;font-weight:normal;font-stretch:normal;font-size:medium;line-height:normal;font-family:Sans;-inkscape-font-specification:Sans;text-indent:0;text-align:start;text-decoration:none;text-decoration-line:none;letter-spacing:normal;word-spacing:normal;text-transform:none;direction:ltr;block-progression:tb;writing-mode:lr-tb;baseline-shift:baseline;text-anchor:start;display:inline;overflow:visible;visibility:visible;fill:#274285;fill-opacity:1;stroke:none;stroke-width:4.78800011;marker:none;enable-background:accumulate" />
      <path
         d="m 404.54519,281.54254 c 0.37803,0.0462 1.08033,0.13295 1.78322,0.21734 0.25491,0.0301 0.36473,0.14508 0.37225,0.42658 0.0289,1.20924 0.19421,1.30808 1.27628,1.81617 0.83525,0.39248 1.5734,0.36994 2.36761,-0.003 0.10289,-0.0491 0.30866,-0.015 0.39595,0.0619 1.08785,0.94796 2.2254,1.86529 2.89881,3.17973 0.68843,1.3416 0.32601,2.70402 -0.72312,3.79302 -1.21328,1.2601 -2.53696,1.52253 -4.2144,1.09421 -2.60286,-0.66531 -5.07566,-1.55779 -7.18605,-3.26297 -0.63929,-0.51849 -1.24102,-1.0971 -1.78263,-1.71501 -1.2549,-1.4312 -1.09363,-3.14158 0.3786,-4.35313 1.19016,-0.98149 2.61385,-1.23409 4.43348,-1.2549"
         style="fill:#a1371f;fill-opacity:1;fill-rule:evenodd;stroke:none"
         id="path32-7"
         inkscape:connector-curvature="0" />
      <path
         d="m 430.53727,282.75849 c -3.93753,-3.94678 -8.73575,-5.89821 -14.35244,-5.51729 -1.74276,0.11908 -3.18436,0.71214 -4.30978,1.77108 0.81039,-0.29826 1.6468,-0.49768 2.49709,-0.64045 3.66932,-0.61791 7.19818,-0.23121 10.41375,1.76241 2.89881,1.79709 4.63405,4.33463 4.56006,7.87043 -0.0132,0.6497 -0.19248,1.29536 -0.29479,1.94333 -0.0879,-0.005 -0.17572,-0.009 -0.26301,-0.0138 -0.0278,-0.13527 -0.089,-0.27399 -0.0786,-0.40637 0.35722,-4.49704 -1.85317,-7.62765 -5.77508,-9.18313 -11.0282,-4.3722 -12.92241,1.35953 -13.25188,2.47628 0.55664,-0.43988 1.01445,-0.80982 1.48207,-1.16588 1.33004,-1.01387 2.72771,-1.19132 4.19648,-0.30752 0.3659,0.22023 0.74855,0.43006 1.06588,0.70867 0.82774,0.73351 1.663,1.46472 2.42541,2.26297 1.57455,1.64739 2.94679,3.46008 4.17857,5.37451 0.66531,1.03352 1.61385,1.64797 2.79534,1.84045 0.68844,0.11152 1.42253,0.1393 2.10691,0.0272 1.68843,-0.27861 3.1202,-1.07167 3.74158,-2.74621 0.81791,-2.20634 0.5289,-4.38377 -1.13756,-6.05658"
         style="fill:#3cac3d;fill-opacity:1;fill-rule:evenodd;stroke:none"
         id="path48-3"
         inkscape:connector-curvature="0" />
      <path
         d="m 406.56632,272.06438 c -4.4566,-4.87855 -10.34727,-6.31032 -16.85125,-4.51497 -0.16301,0.0457 -0.36589,-0.0543 -0.5497,-0.0873 l 0,-0.13873 c 4.47625,-1.99708 8.88197,-1.51328 13.19233,0.4867 3.09997,1.43871 5.58665,3.59302 7.08431,6.74039 0.45434,0.95374 0.7578,1.9387 0.86473,2.95777 0.10871,-0.95606 -0.0445,-1.92716 -0.3312,-2.86645 -0.68844,-2.26182 -2.03062,-4.12481 -3.70921,-5.72999 -3.05951,-2.92308 -6.61842,-4.99763 -10.72242,-6.10803 -1.5312,-0.41271 -3.0387,-0.54334 -4.55313,0.0699 -1.83062,0.73872 -3.23061,1.90228 -3.75256,3.87972 -0.45433,1.71964 0.0179,3.30112 0.91964,4.76931 1.16473,1.89825 2.78899,2.96645 5.10978,2.87859 2.64042,-0.0995 5.2797,-0.0197 7.91146,0.25664 1.48438,0.15665 2.95835,0.36126 4.34678,0.94565 2.9306,1.23467 2.62251,2.68495 2.57685,3.86585 -0.0312,0.8156 -0.006,1.63351 -0.006,2.45027 0.0555,0.005 0.11094,0.008 0.16705,0.0122 0.0469,-0.11621 0.10063,-0.22948 0.13873,-0.34797 0.21792,-0.68728 4.06296,-3.06123 -1.8364,-9.51955"
         style="fill:#cc2726;fill-opacity:1;fill-rule:evenodd;stroke:none"
         id="path52-2"
         inkscape:connector-curvature="0" />
      <path
         d="m 414.2396,261.79028 c -0.0589,-1.99131 -0.24914,-3.97741 -0.8289,-5.89993 -0.74161,-2.45778 -2.08784,-4.45198 -4.4566,-5.61497 -1.67107,-0.8208 -3.45488,-1.18612 -5.30976,-1.17224 -1.49595,0.0128 -2.93234,0.29421 -4.21499,1.12774 -0.72311,0.46878 -0.95201,1.1312 -0.96646,1.98726 -0.0353,2.07049 1.02542,3.78666 2.12888,5.43462 0.18671,0.27918 0.41618,0.53583 0.60635,0.8156 1.06473,1.56125 1.83986,3.27221 2.36471,5.07103 0.37168,1.27514 0.9497,2.31327 2.1364,2.95835 0.0254,0.015 0.048,0.0358 0.0699,0.0549 2.50519,2.04853 4.67221,4.31903 5.5537,7.43286 1.1023,-8.90221 -1.48496,-16.62698 -7.97332,-23.06332 -0.19941,-0.19827 -0.46358,-0.34913 -0.17341,-0.66185 l 0.13931,0 c 1.41443,1.44276 3.0358,2.7364 4.20747,4.35545 4.16527,5.75427 5.90166,12.1779 5.01381,19.21423 0.46763,-1.06126 0.93236,-2.12309 1.36819,-3.19765 0.22428,-0.55028 0.36532,-1.17282 0.37226,-1.76472 0.0278,-2.35893 0.0312,-4.71903 -0.0376,-7.07738"
         style="fill:#e9ba1a;fill-opacity:1;fill-rule:evenodd;stroke:none"
         id="path56-5-3"
         inkscape:connector-curvature="0" />
      <path
         d="m 437.01864,269.51741 c -0.5208,-2.78724 -2.27454,-4.57509 -4.78087,-5.65426 -1.87281,-0.80635 -3.83984,-0.73525 -5.7774,-0.21271 -3.92654,1.0549 -7.06754,3.36527 -9.86346,6.22652 -1.95316,1.99997 -3.04794,4.49127 -4.13175,7.04846 0.22023,-0.0792 0.4156,-0.15028 0.60115,-0.21733 2.83292,-4.68955 6.3508,-8.66811 11.77385,-10.51086 3.08783,-1.0497 6.22132,-1.02485 9.2658,0.31733 0.34739,0.15261 0.66878,0.36359 1.0023,0.5474 -0.0231,0.0717 -0.0463,0.14392 -0.0693,0.2156 -0.14104,0 -0.29595,0.0388 -0.42081,-0.005 -4.78607,-1.68669 -9.2207,-0.7104 -13.33221,1.94621 -2.93985,1.90056 -5.32422,4.40574 -7.39819,7.20166 1.2838,-0.42948 1.76819,-0.44913 3.86065,-0.52716 0.12543,-0.005 0.26243,-0.0416 0.37283,-0.10286 3.00054,-1.66183 6.19358,-2.82193 9.52416,-3.5884 2.70518,-0.62138 5.4329,-1.13813 8.23807,-0.82657 0.16011,0.0173 0.32484,0.009 0.48612,-0.0106 0.41444,-0.0503 0.69884,-0.26241 0.70751,-0.70519 0.007,-0.38149 0.0117,-0.77108 -0.0583,-1.14218"
         style="fill:#3871c1;fill-opacity:1;fill-rule:evenodd;stroke:none"
         id="path60-7-7"
         inkscape:connector-curvature="0" />
    </g>
  </g>
</svg>
