<?xml version="1.0" encoding="utf-8"?>
<!-- Generator: Adobe Illustrator 23.0.0, SVG Export Plug-In . SVG Version: 6.00 Build 0)  -->
<svg version="1.1" id="logo" xmlns="http://www.w3.org/2000/svg" xmlns:xlink="http://www.w3.org/1999/xlink" x="0px" y="0px"
	 viewBox="0 0 1024 768" style="enable-background:new 0 0 1024 768;" xml:space="preserve">
<g>
	<title>logo</title>
	<path d="M515.3,338.8l-12-56.2l64-7.8l-1.6,62.9L515.3,338.8z M506.4,284.7l11,51.5l45.8-1l1.5-57.6L506.4,284.7z"/>
	<path d="M529.9,322.8l1.7,0.2c0.2,0,0.3,0.1,0.4,0.4c0,1.1,0.2,1.2,1.2,1.6c0.7,0.3,1.5,0.3,2.2,0c0.1,0,0.3,0,0.4,0.1
		c1.1,0.8,2,1.7,2.7,2.9c0.6,1.2,0.3,2.6-0.7,3.4c-1,1.1-2.5,1.5-4,1c-2.4-0.5-4.7-1.5-6.7-2.9c-0.6-0.5-1.2-1-1.7-1.5
		c-1-1-1.1-2.6,0-3.6c0.1-0.1,0.2-0.2,0.4-0.3C526.9,323,528.2,322.8,529.9,322.8 M554.3,323.9c-3.5-3.5-8.4-5.3-13.5-5
		c-1.5,0.1-2.9,0.6-4,1.6c0.8-0.3,1.5-0.5,2.3-0.6c3.3-0.7,6.8-0.1,9.8,1.6c2.7,1.6,4.3,3.9,4.3,7.1c0,0.6-0.1,1.2-0.2,1.8h-0.2
		c0-0.1-0.1-0.2-0.1-0.4c0.3-4-1.7-6.9-5.4-8.3c-10.3-3.9-12.1,1.2-12.4,2.2c0.5-0.4,0.9-0.7,1.4-1.1c1.1-0.9,2.7-1,3.9-0.3
		c0.3,0.2,0.7,0.4,1,0.6c0.8,0.7,1.6,1.3,2.3,2c1.5,1.5,2.8,3.1,3.9,4.8c0.6,0.9,1.5,1.5,2.6,1.7c0.7,0.1,1.3,0.1,2,0
		c1.6-0.1,2.9-1.1,3.5-2.5C556.2,327.5,555.8,325.3,554.3,323.9z M531.8,314.3c-4.2-4.4-9.7-5.7-15.8-4.1c-0.2,0-0.3,0-0.5-0.1V310
		c4.2-1.8,8.3-1.4,12.4,0.4c2.9,1.2,5.3,3.3,6.6,6.1c0.4,0.8,0.7,1.7,0.8,2.7c0.1-0.9,0-1.8-0.3-2.6c-0.7-2-1.9-3.8-3.5-5.2
		c-2.8-2.6-6.3-4.5-10-5.5c-1.4-0.4-2.9-0.4-4.3,0.1c-1.7,0.5-3,1.8-3.5,3.5c-0.4,1.5,0,3,0.9,4.3c0.9,1.7,2.8,2.7,4.8,2.6
		c2.5-0.1,5,0,7.4,0.2c1.4,0.1,2.8,0.4,4.1,0.9c2.7,1.1,2.5,2.4,2.4,3.5v2.2h0.2c0-0.1,0.1-0.2,0.1-0.3
		C533.7,322.2,537.4,320.1,531.8,314.3L531.8,314.3z M539,305c0-1.8-0.3-3.6-0.8-5.3c-0.6-2.2-2.1-4-4.2-5.1c-1.5-0.7-3.3-1.1-5-1.1
		c-1.4,0-2.8,0.3-4,1c-0.6,0.4-1,1.1-0.9,1.8c0,1.9,1,3.4,2,4.9c0.2,0.3,0.4,0.5,0.6,0.7c1,1.4,1.7,2.9,2.2,4.6c0.2,1.1,1,2.1,2,2.7
		c0,0,0,0,0.1,0.1c2.3,1.8,4.4,3.9,5.2,6.7c1.2-7.7-1.6-15.5-7.5-20.8c-0.2-0.2-0.4-0.3-0.2-0.6h0.1c1.4,1.2,2.7,2.5,3.9,3.9
		c3.9,5,5.5,11.2,4.7,17.3c0.4-1,0.9-1.9,1.3-2.9c0.2-0.5,0.3-1,0.4-1.6C539.1,309.2,539.1,307.1,539,305z M560.4,312
		c-0.4-2.3-2.2-4.3-4.5-5.1c-1.7-0.7-3.7-0.7-5.4-0.2c-3.6,0.9-6.6,3-9.2,5.6c-1.8,1.8-2.9,4-3.9,6.3l0.6-0.2c2.7-4.2,6-7.8,11-9.5
		c2.8-1,5.9-0.9,8.7,0.3c0.3,0.1,0.6,0.3,0.9,0.5c0,0.1,0,0.1-0.1,0.2c-0.1,0-0.3,0-0.4,0c-4.5-1.5-8.6-0.6-12.5,1.8
		c-2.7,1.7-5.1,3.9-6.9,6.5c1.2-0.4,2.4-0.5,3.6-0.5c0.1,0,0.2,0,0.4-0.1c2.8-1.5,5.8-2.6,8.9-3.2c2.5-0.7,5.1-0.9,7.7-0.7
		c0.2,0,0.3,0,0.5,0c0.4,0,0.7-0.3,0.7-0.6c0,0,0,0,0,0C560.4,312.6,560.4,312.3,560.4,312z"/>
</g>
</svg>
