<?xml version="1.0" standalone="no"?>
<!DOCTYPE svg PUBLIC "-//W3C//DTD SVG 20010904//EN"
 "http://www.w3.org/TR/2001/REC-SVG-20010904/DTD/svg10.dtd">
<svg version="1.0" xmlns="http://www.w3.org/2000/svg"
 width="250.000000pt" height="250.000000pt" viewBox="0 0 250.000000 250.000000"
 preserveAspectRatio="xMidYMid meet">

<g transform="translate(0.000000,250.000000) scale(0.100000,-0.100000)"
fill="#000000" stroke="none">
<path d="M576 2207 c-25 -14 -48 -39 -63 -66 l-23 -44 0 -748 c0 -504 3 -757
11 -776 5 -15 22 -41 37 -57 48 -51 73 -56 292 -56 l200 0 0 -115 0 -115 30 0
30 0 0 115 0 115 260 0 c246 0 260 1 270 19 5 11 10 65 10 121 0 114 12 150
60 175 16 8 34 15 40 15 7 0 10 -91 10 -280 l0 -280 25 0 25 0 0 113 0 113 43
11 c54 15 90 43 111 87 14 30 16 105 16 698 l0 663 -158 158 -157 157 -515 0
c-514 0 -515 0 -554 -23z m1024 -175 c0 -94 4 -142 12 -150 8 -8 56 -12 150
-12 l138 0 0 -646 0 -646 -29 -29 c-17 -17 -40 -29 -55 -29 l-26 0 -2 163 -3
162 -47 -1 c-59 0 -112 -39 -145 -104 -19 -36 -23 -61 -23 -132 l0 -88 -470 0
c-511 0 -513 0 -538 55 -9 19 -12 217 -12 781 l0 756 29 29 29 29 496 0 496 0
0 -138z m165 -2 l100 -100 -103 0 -102 0 0 100 c0 55 1 100 3 100 1 0 47 -45
102 -100z"/>
<path d="M672 2018 c-17 -17 -17 -489 0 -506 17 -17 489 -17 506 0 17 17 17
489 0 506 -17 17 -489 17 -506 0z m458 -253 l0 -205 -40 0 -40 0 0 54 c0 40
-6 62 -24 89 -22 31 -23 40 -13 66 35 93 -89 166 -155 91 -29 -32 -35 -68 -17
-102 9 -16 7 -24 -10 -42 -25 -26 -41 -76 -41 -123 0 -31 -2 -33 -35 -33 l-35
0 0 205 0 205 205 0 205 0 0 -205z m-182 63 c28 -28 1 -75 -38 -63 -14 4 -20
15 -20 35 0 37 33 53 58 28z m18 -136 c20 -13 34 -50 34 -91 l0 -41 -75 0 -75
0 0 50 c0 37 5 55 20 70 20 20 74 27 96 12z"/>
<path d="M1270 1900 l0 -30 75 0 75 0 0 30 0 30 -75 0 -75 0 0 -30z"/>
<path d="M1318 1793 c-43 -4 -48 -7 -48 -29 0 -24 1 -24 95 -24 l95 0 0 30 c0
29 -1 30 -47 28 -27 -1 -69 -3 -95 -5z"/>
<path d="M1530 1770 l0 -30 80 0 c77 0 80 1 80 24 0 20 -6 24 -46 30 -26 3
-62 6 -80 6 -31 0 -34 -3 -34 -30z"/>
<path d="M1270 1630 l0 -30 210 0 210 0 0 30 0 30 -210 0 -210 0 0 -30z"/>
<path d="M830 1360 l0 -30 130 0 130 0 0 30 0 30 -130 0 -130 0 0 -30z"/>
<path d="M1160 1360 l0 -30 100 0 100 0 0 30 0 30 -100 0 -100 0 0 -30z"/>
<path d="M1430 1360 l0 -30 165 0 165 0 0 30 0 30 -165 0 -165 0 0 -30z"/>
<path d="M690 1230 l0 -30 130 0 130 0 0 30 0 30 -130 0 -130 0 0 -30z"/>
<path d="M1030 1230 l0 -30 265 0 265 0 0 30 0 30 -265 0 -265 0 0 -30z"/>
<path d="M1640 1230 l0 -30 60 0 60 0 0 30 0 30 -60 0 -60 0 0 -30z"/>
<path d="M690 1095 c0 -24 2 -25 65 -25 63 0 65 1 65 25 0 24 -2 25 -65 25
-63 0 -65 -1 -65 -25z"/>
<path d="M900 1095 l0 -25 195 0 195 0 0 25 0 25 -195 0 -195 0 0 -25z"/>
<path d="M1370 1095 l0 -25 195 0 195 0 0 25 0 25 -195 0 -195 0 0 -25z"/>
<path d="M690 960 l0 -30 65 0 65 0 0 30 0 30 -65 0 -65 0 0 -30z"/>
<path d="M900 960 l0 -30 195 0 195 0 0 30 0 30 -195 0 -195 0 0 -30z"/>
<path d="M1370 960 l0 -30 195 0 195 0 0 30 0 30 -195 0 -195 0 0 -30z"/>
<path d="M690 825 l0 -25 150 0 150 0 0 25 0 25 -150 0 -150 0 0 -25z"/>
<path d="M1060 825 l0 -25 230 0 230 0 0 25 0 25 -230 0 -230 0 0 -25z"/>
<path d="M690 690 l0 -30 65 0 65 0 0 30 0 30 -65 0 -65 0 0 -30z"/>
<path d="M900 690 l0 -30 280 0 280 0 0 30 0 30 -280 0 -280 0 0 -30z"/>
</g>
</svg>
