<?xml version="1.0" standalone="no"?>
<!DOCTYPE svg PUBLIC "-//W3C//DTD SVG 20010904//EN"
 "http://www.w3.org/TR/2001/REC-SVG-20010904/DTD/svg10.dtd">
<svg version="1.0" xmlns="http://www.w3.org/2000/svg"
 width="250.000000pt" height="250.000000pt" viewBox="0 0 250.000000 250.000000"
 preserveAspectRatio="xMidYMid meet">

<g transform="translate(0.000000,250.000000) scale(0.100000,-0.100000)"
fill="#000000" stroke="none">
<path d="M1180 2039 c-88 -8 -669 -138 -698 -155 -23 -15 -29 -48 -13 -73 5
-7 74 -28 157 -47 81 -18 158 -35 171 -39 l23 -5 0 -200 c0 -196 0 -200 -21
-200 -30 0 -74 -28 -93 -60 -23 -39 -20 -91 7 -131 l23 -34 -23 -34 c-32 -47
-30 -101 3 -140 l26 -31 -26 -31 c-35 -41 -35 -93 0 -144 14 -21 21 -41 17
-44 -41 -28 -54 -100 -28 -151 34 -65 27 -65 583 -68 l502 -3 0 26 c0 18 -5
25 -19 25 -27 0 -61 46 -61 82 0 31 38 78 65 78 22 0 18 38 -5 45 -76 24 -80
140 -5 159 28 7 36 46 10 46 -27 0 -65 47 -65 78 0 36 34 82 61 82 14 0 19 7
19 25 0 18 -5 25 -19 25 -27 0 -61 46 -61 82 0 31 38 78 65 78 8 0 15 9 15 20
0 18 -7 20 -55 20 l-55 0 0 200 c0 199 0 200 23 205 150 34 200 45 212 45 12
0 15 -15 15 -69 0 -61 -3 -70 -20 -76 -43 -14 -60 -57 -60 -154 0 -84 1 -91
20 -91 16 0 20 7 20 30 0 23 4 30 20 30 16 0 20 -7 20 -30 0 -23 4 -30 20 -30
16 0 20 7 20 30 0 20 5 30 15 30 10 0 15 -10 15 -30 0 -25 4 -30 25 -30 24 0
25 2 25 68 0 90 -15 137 -50 164 -29 21 -30 25 -30 100 0 70 2 78 19 78 48 0
69 68 29 94 -27 17 -652 154 -723 158 -27 2 -79 1 -115 -3z m488 -111 c190
-42 332 -78 332 -84 0 -6 -140 -42 -327 -84 -434 -96 -412 -96 -845 0 -187 42
-328 78 -328 84 0 6 139 42 323 83 434 96 411 96 845 1z m-660 -250 c189 -43
296 -43 485 0 76 18 140 32 142 32 3 0 5 -63 5 -140 l0 -140 -25 0 c-20 0 -25
-5 -25 -25 0 -20 5 -25 25 -25 21 0 25 -5 25 -30 l0 -30 -390 0 -390 0 0 30 0
30 335 0 335 0 0 25 0 25 -335 0 -335 0 0 140 c0 77 2 140 5 140 3 0 67 -14
143 -32z m973 -98 c14 -8 19 -21 19 -55 l0 -45 -55 0 -55 0 0 37 c0 60 42 89
91 63z m-297 -317 c-11 -23 -11 -103 0 -125 8 -17 -17 -18 -450 -18 -456 0
-458 0 -481 22 -32 30 -31 81 2 113 l24 25 457 0 c431 0 456 -1 448 -17z
m-734 -273 l0 -80 -85 0 c-78 0 -88 2 -110 25 -32 31 -33 80 -3 112 19 21 30
23 110 23 l88 0 0 -80z m200 -51 c0 -101 -3 -129 -12 -123 -7 4 -25 16 -40 26
-28 19 -28 19 -55 0 -16 -10 -34 -22 -40 -26 -10 -6 -13 22 -13 123 l0 131 80
0 80 0 0 -131z m534 114 c-11 -23 -11 -103 0 -125 8 -17 -7 -18 -243 -18
l-251 0 0 80 0 80 251 0 c236 0 251 -1 243 -17z m-734 -238 c0 -49 2 -55 20
-55 11 0 38 12 60 26 l40 27 40 -27 c22 -14 49 -26 60 -26 18 0 20 6 20 55 l0
55 251 0 250 0 -8 -22 c-10 -28 -9 -95 2 -125 l7 -23 -446 0 c-471 0 -493 2
-510 45 -9 25 -7 64 5 86 15 29 44 38 132 38 l77 1 0 -55z m734 -172 c-11 -23
-11 -103 0 -125 8 -17 -17 -18 -450 -18 -456 0 -458 0 -481 22 -32 30 -31 81
2 113 l24 25 457 0 c431 0 456 -1 448 -17z"/>
</g>
</svg>
