<svg width="250.07" height="252.07" xmlns="http://www.w3.org/2000/svg">

 <g>
  <title>background</title>
  <rect fill="none" id="canvas_background" height="254.07" width="252.07" y="-1" x="-1"/>
 </g>
 <g>
  <title>Layer 1</title>
  <g stroke="null" id="svg_43">
   <g stroke="null" id="svg_1">
    <g stroke="null" id="svg_2">
     <path stroke="null" id="svg_3" d="m99.060363,166.186249l-13.475861,0l0,-10.192128c0,-1.407151 -1.508454,-2.548032 -3.368965,-2.548032l-13.475861,0c-1.860511,0 -3.368965,1.140881 -3.368965,2.548032l0,10.192128l-13.475861,0c-1.860511,0 -3.368965,1.140881 -3.368965,2.548032l0,10.192128c0,1.407151 1.508454,2.548032 3.368965,2.548032l13.475861,0l0,10.192128c0,1.407151 1.508454,2.548032 3.368965,2.548032l13.475861,0c1.860511,0 3.368965,-1.140881 3.368965,-2.548032l0,-10.192128l13.475861,0c1.860511,0 3.368965,-1.140881 3.368965,-2.548032l0,-10.192128c0,-1.407151 -1.508454,-2.548032 -3.368965,-2.548032zm-3.368965,10.192128l-13.475861,0c-1.860511,0 -3.368965,1.140881 -3.368965,2.548032l0,10.192128l-6.737931,0l0,-10.192128c0,-1.407151 -1.508454,-2.548032 -3.368965,-2.548032l-13.475861,0l0,-5.096064l13.475861,0c1.860511,0 3.368965,-1.140881 3.368965,-2.548032l0,-10.192128l6.737931,0l0,10.192128c0,1.407151 1.508454,2.548032 3.368965,2.548032l13.475861,0l0,5.096064z"/>
    </g>
   </g>
   <g stroke="null" id="svg_4">
    <g stroke="null" id="svg_5">
     <path stroke="null" id="svg_6" d="m221.233657,165.393854c-2.467716,-22.281333 -23.290482,-43.127039 -45.480626,-45.503585c-1.88457,-0.208958 -3.779194,-0.316873 -5.675426,-0.32334l-35.39098,0l0,-12.933585l-6.434724,0l0,-6.466792c0,-7.142976 -5.761893,-12.933585 -12.869447,-12.933585l-16.086809,0c-3.553978,0 -6.434724,-2.895102 -6.434724,-6.466792s2.880745,-6.466792 6.434724,-6.466792l51.477789,0c7.107554,0 12.869447,-5.790608 12.869447,-12.933585s-5.761893,-12.933585 -12.869447,-12.933585l-16.086809,0c-3.553978,0 -6.434724,-2.895102 -6.434724,-6.466792l0,-12.933585l-6.434724,0l0,12.933585c0,7.142976 5.761893,12.933585 12.869447,12.933585l16.086809,0c3.553978,0 6.434724,2.895102 6.434724,6.466792s-2.880745,6.466792 -6.434724,6.466792l-51.477789,0c-7.107554,0 -12.869447,5.790608 -12.869447,12.933585s5.761893,12.933585 12.869447,12.933585l16.086809,0c3.553978,0 6.434724,2.895102 6.434724,6.466792l0,6.466792l-6.434724,0l0,12.933585l-35.39098,0c-1.898243,0.004446 -3.79528,0.112361 -5.681861,0.32334c-22.199796,2.392713 -43.009692,23.238419 -45.470974,45.519752c-3.232242,28.386794 17.045181,54.032476 45.291606,57.280827c11.502068,1.322863 23.111918,-1.289721 32.954633,-7.414986c4.237668,-2.787996 9.081406,-4.508163 14.121001,-5.014998c2.489434,-0.197641 4.989726,-0.206533 7.480366,-0.025867c5.119225,0.497539 10.040984,2.23751 14.342999,5.069965c24.184506,15.020742 55.906487,7.494608 70.852741,-16.810831c6.081618,-9.889747 8.671594,-21.550182 7.351672,-33.100277zm-99.416479,-52.293717l6.434724,0l0,6.466792l-6.434724,0l0,-6.466792zm81.833597,88.381652c-14.546095,16.351285 -38.667863,19.860328 -57.230432,8.325995c-5.183572,-3.392237 -11.113572,-5.459994 -17.274015,-6.023817c-1.357727,-0.099023 -2.728323,-0.148736 -4.111788,-0.148736c-1.4639,0 -2.895626,0.061435 -4.337004,0.174603c-6.066738,0.584032 -11.903032,2.63158 -17.013409,5.968849c-21.154958,13.15386 -48.914758,6.582791 -62.00379,-14.677598c-5.328353,-8.654993 -7.599006,-18.862017 -6.445582,-28.973251c2.117024,-19.148172 20.694071,-37.746668 39.766592,-39.806341c1.656941,-0.186324 3.32273,-0.282114 4.990128,-0.287772l90.08613,0c1.666996,0.001213 3.332785,0.090535 4.990128,0.268372c19.069303,2.059673 37.643133,20.658168 39.766592,39.806341c1.516986,12.859621 -2.559009,25.75198 -11.18355,35.373355z"/>
    </g>
   </g>
   <g stroke="null" id="svg_13">
    <g stroke="null" id="svg_14">
     <path stroke="null" id="svg_15" d="m158.911445,173.830345c-6.242068,0 -11.302335,4.091151 -11.302335,9.13777c0,5.046619 5.060267,9.13777 11.302335,9.13777c6.242068,0 11.302335,-4.091151 11.302335,-9.13777c0,-5.046619 -5.060267,-9.13777 -11.302335,-9.13777zm0,13.706655c-3.12121,0 -5.651168,-2.045433 -5.651168,-4.568885s2.529957,-4.568885 5.651168,-4.568885s5.651168,2.045433 5.651168,4.568885s-2.53031,4.568885 -5.651168,4.568885z"/>
    </g>
   </g>
   <g stroke="null" id="svg_19"/>
   <g stroke="null" id="svg_20"/>
   <g stroke="null" id="svg_21"/>
   <g stroke="null" id="svg_22"/>
   <g stroke="null" id="svg_23"/>
   <g stroke="null" id="svg_24"/>
   <g stroke="null" id="svg_25"/>
   <g stroke="null" id="svg_26"/>
   <g stroke="null" id="svg_27"/>
   <g stroke="null" id="svg_28"/>
   <g stroke="null" id="svg_29"/>
   <g stroke="null" id="svg_30"/>
   <g stroke="null" id="svg_31"/>
   <g stroke="null" id="svg_32"/>
   <g stroke="null" id="svg_33"/>
   <g stroke="null" id="svg_36">
    <g stroke="null" id="svg_35">
     <path stroke="null" id="svg_34" d="m189.340809,156.960616c-6.242068,0 -11.302335,4.09115 -11.302335,9.13777c0,5.046619 5.060268,9.13777 11.302335,9.13777c6.242068,0 11.302335,-4.091151 11.302335,-9.13777c0,-5.04662 -5.060268,-9.13777 -11.302335,-9.13777zm0,13.706655c-3.12121,0 -5.651168,-2.045433 -5.651168,-4.568885s2.529957,-4.568885 5.651168,-4.568885s5.651168,2.045432 5.651168,4.568885s-2.53031,4.568885 -5.651168,4.568885z"/>
    </g>
   </g>
   <g stroke="null" id="svg_39">
    <g stroke="null" id="svg_38">
     <path stroke="null" id="svg_37" d="m164.997318,137.279265c-6.242068,0 -11.302335,4.09115 -11.302335,9.13777c0,5.046619 5.060268,9.13777 11.302335,9.13777c6.242068,0 11.302335,-4.091151 11.302335,-9.13777c0,-5.04662 -5.060268,-9.13777 -11.302335,-9.13777zm0,13.706655c-3.12121,0 -5.651168,-2.045433 -5.651168,-4.568885s2.529957,-4.568885 5.651168,-4.568885s5.651168,2.045432 5.651168,4.568885s-2.53031,4.568885 -5.651168,4.568885z"/>
    </g>
   </g>
   <g stroke="null" id="svg_42">
    <g stroke="null" id="svg_41">
     <path stroke="null" id="svg_40" d="m142.392648,152.743184c-6.242068,0 -11.302335,4.09115 -11.302335,9.13777c0,5.046619 5.060268,9.13777 11.302335,9.13777c6.242068,0 11.302335,-4.091151 11.302335,-9.13777c0,-5.04662 -5.060268,-9.13777 -11.302335,-9.13777zm0,13.706655c-3.12121,0 -5.651168,-2.045433 -5.651168,-4.568885s2.529957,-4.568885 5.651168,-4.568885s5.651168,2.045432 5.651168,4.568885s-2.53031,4.568885 -5.651168,4.568885z"/>
    </g>
   </g>
  </g>
 </g>
</svg>