<svg width="253" height="251" xmlns="http://www.w3.org/2000/svg">

 <g>
  <title>background</title>
  <rect fill="none" id="canvas_background" height="253" width="255" y="-1" x="-1"/>
 </g>
 <g>
  <title>Layer 1</title>
  <g stroke="null" id="svg_1">
   <g stroke="null" id="svg_2">
    <g stroke="null" id="svg_3">
     <path stroke="null" id="svg_4" d="m165.716546,98.000107l-6.033451,0c-1.665059,0 -3.016549,1.232021 -3.016549,2.749892s1.35149,2.749892 3.016549,2.749892l6.033451,0c1.665059,0 3.016549,-1.232021 3.016549,-2.749892s-1.351137,-2.749892 -3.016549,-2.749892z"/>
     <path stroke="null" id="svg_5" d="m165.716546,109l-6.033451,0c-1.665059,0 -3.016549,1.232021 -3.016549,2.749892c0,1.517871 1.35149,2.749892 3.016549,2.749892l6.033451,0c1.665059,0 3.016549,-1.232021 3.016549,-2.749892c0.000354,-1.517871 -1.351137,-2.749892 -3.016549,-2.749892z"/>
     <path stroke="null" id="svg_6" d="m165.716546,86.999893l-6.033451,0c-1.665059,0 -3.016549,1.232021 -3.016549,2.749892c0,1.517871 1.35149,2.749892 3.016549,2.749892l6.033451,0c1.665059,0 3.016549,-1.232021 3.016549,-2.749892c0.000354,-1.517871 -1.351137,-2.749892 -3.016549,-2.749892z"/>
     <path stroke="null" id="svg_7" d="m165.716546,174.999997l-6.033451,0c-1.665059,0 -3.016549,1.232021 -3.016549,2.749892s1.35149,2.749892 3.016549,2.749892l6.033451,0c1.665059,0 3.016549,-1.232021 3.016549,-2.749892s-1.351137,-2.749892 -3.016549,-2.749892z"/>
     <path stroke="null" id="svg_8" d="m99.349999,86.999893l-18.1,0c-1.665059,0 -3.016549,1.232021 -3.016549,2.749892l0,38.500106c0,1.517871 1.35149,2.749892 3.016549,2.749892l18.1,0c1.665059,0 3.016549,-1.232021 3.016549,-2.749892l0,-38.499784c0,-1.518193 -1.35149,-2.750215 -3.016549,-2.750215zm-3.016549,38.500106l-12.066549,0l0,-32.999999l12.066549,0l0,32.999999z"/>
     <path stroke="null" id="svg_9" d="m99.349999,174.999997l-18.1,0c-1.665059,0 -3.016549,1.232021 -3.016549,2.749892s1.35149,2.749892 3.016549,2.749892l18.1,0c1.665059,0 3.016549,-1.232021 3.016549,-2.749892s-1.35149,-2.749892 -3.016549,-2.749892z"/>
     <path stroke="null" id="svg_10" d="m99.349999,185.99989l-18.1,0c-1.665059,0 -3.016549,1.232021 -3.016549,2.749892c0,1.517871 1.35149,2.749892 3.016549,2.749892l18.1,0c1.665059,0 3.016549,-1.232021 3.016549,-2.749892c0,-1.517871 -1.35149,-2.749892 -3.016549,-2.749892z"/>
     <path stroke="null" id="svg_11" d="m165.716546,185.99989l-6.033451,0c-1.665059,0 -3.016549,1.232021 -3.016549,2.749892c0,1.517871 1.35149,2.749892 3.016549,2.749892l6.033451,0c1.665059,0 3.016549,-1.232021 3.016549,-2.749892c0.000354,-1.517871 -1.351137,-2.749892 -3.016549,-2.749892z"/>
     <path stroke="null" id="svg_12" d="m201.916545,185.99989l-12.066549,0c-1.665059,0 -3.016549,1.232021 -3.016549,2.749892c0,1.517871 1.35149,2.749892 3.016549,2.749892l12.066549,0c1.665059,0 3.016549,-1.232021 3.016549,-2.749892c0.000354,-1.517871 -1.351137,-2.749892 -3.016549,-2.749892z"/>
     <path stroke="null" id="svg_13" d="m138.566547,89.750108c0,-1.517871 -1.35149,-2.749892 -3.016549,-2.749892l-12.066549,0c-1.665059,0 -3.016549,1.232021 -3.016549,2.749892l0,38.500106c0,1.517871 1.35149,2.749892 3.016549,2.749892l12.066549,0c1.665059,0 3.016549,-1.232021 3.016549,-2.749892l0,-38.500106zm-6.033098,35.749891l-6.033451,0l0,-32.999999l6.033451,0l0,32.999999z"/>
     <path stroke="null" id="svg_14" d="m201.916545,174.999997l-12.066549,0c-1.665059,0 -3.016549,1.232021 -3.016549,2.749892s1.35149,2.749892 3.016549,2.749892l12.066549,0c1.665059,0 3.016549,-1.232021 3.016549,-2.749892s-1.351137,-2.749892 -3.016549,-2.749892z"/>
     <path stroke="null" id="svg_15" d="m135.549998,185.99989l-12.066549,0c-1.665059,0 -3.016549,1.232021 -3.016549,2.749892c0,1.517871 1.35149,2.749892 3.016549,2.749892l12.066549,0c1.665059,0 3.016549,-1.232021 3.016549,-2.749892c0,-1.517871 -1.35149,-2.749892 -3.016549,-2.749892z"/>
     <path stroke="null" id="svg_16" d="m189.849997,141.999998c1.665059,0 3.016549,-1.232021 3.016549,-2.749892l0,-27.499892c0,-1.517871 -1.35149,-2.749892 -3.016549,-2.749892s-3.016549,1.232021 -3.016549,2.749892l0,27.499892c0,1.517871 1.35149,2.749892 3.016549,2.749892z"/>
     <path stroke="null" id="svg_17" d="m204.933448,111.749892c0,-1.517871 -1.35149,-2.749892 -3.016549,-2.749892s-3.016549,1.232021 -3.016549,2.749892l0,27.499892c0,1.517871 1.35149,2.749892 3.016549,2.749892s3.016549,-1.232021 3.016549,-2.749892l0,-27.499892z"/>
     <path stroke="null" id="svg_18" d="m207.949996,65.000108l-18.1,0c-1.665059,0 -3.016549,1.232021 -3.016549,2.749892s1.35149,2.749892 3.016549,2.749892l18.1,0c1.66223,0 3.016549,1.2346 3.016549,2.749892l0,126.500211c0,1.515293 -1.354318,2.749892 -3.016549,2.749892l-27.149999,0l0,-115.499996l18.1,0c1.665059,0 3.016549,-1.232021 3.016549,-2.749892s-1.35149,-2.749892 -3.016549,-2.749892l-18.1,0l0,-24.749999c0,-4.625478 -3.97599,-8.25 -9.05,-8.25l-18.1,0c-4.989519,0 -9.05,3.701543 -9.05,8.25l0,145.750103l-30.166548,0l0,-143.00021l21.116548,0c1.665059,0 3.016549,-1.232021 3.016549,-2.749892c0,-1.517871 -1.35149,-2.749892 -3.016549,-2.749892l-21.116548,0l0,-2.750215c0,-4.625478 -3.97599,-8.25 -9.05,-8.25l-30.166548,0c-4.989519,0 -9.05,3.701543 -9.05,8.25l0,24.749999l-15.083451,0c-1.665059,0 -3.016549,1.232021 -3.016549,2.749892s1.35149,2.749892 3.016549,2.749892l15.083451,0l0,121.000103l-21.116902,0c-1.66223,0 -3.016549,-1.2346 -3.016549,-2.749892l0,-131.999996c0,-1.515293 1.354318,-2.749892 3.016549,-2.749892l12.066549,0c1.665059,0 3.016549,-1.232021 3.016549,-2.749892s-1.351137,-2.750215 -3.016549,-2.750215l-12.066549,0c-4.989519,0 -9.05,3.701543 -9.05,8.25l0,131.999996c0,4.548457 4.06048,8.25 9.05,8.25l162.899997,0c4.989519,0 9.05,-3.701543 9.05,-8.25l0,-126.499888c0,-4.548457 -4.06048,-8.25 -9.05,-8.25zm-99.549998,137.499781l-36.199999,0l0,-137.499781l27.149999,0c1.665059,0 3.016549,-1.232021 3.016549,-2.749892s-1.35149,-2.750215 -3.016549,-2.750215l-27.149999,0l0,-8.25c0,-1.542685 1.32427,-2.749892 3.016549,-2.749892l30.166548,0c1.7195,0 3.016549,1.182393 3.016549,2.749892l0,151.249887l0.000354,0zm66.366547,0l-24.133451,0l0,-131.999996l15.083451,0c1.665059,0 3.016549,-1.232021 3.016549,-2.749892s-1.35149,-2.749892 -3.016549,-2.749892l-15.083451,0l0,-8.25c0,-1.542685 1.32427,-2.749892 3.016549,-2.749892l18.100353,0c1.7195,0 3.016549,1.182393 3.016549,2.749892l0,145.74978z"/>
     <path stroke="null" id="svg_19" d="m57.116548,174.999997l-6.033098,0c-1.665059,0 -3.016549,1.232021 -3.016549,2.749892s1.35149,2.749892 3.016549,2.749892l6.033451,0c1.665059,0 3.016549,-1.232021 3.016549,-2.749892s-1.35149,-2.749892 -3.016902,-2.749892z"/>
     <path stroke="null" id="svg_20" d="m57.116548,185.99989l-6.033098,0c-1.665059,0 -3.016549,1.232021 -3.016549,2.749892c0,1.517871 1.35149,2.749892 3.016549,2.749892l6.033451,0c1.665059,0 3.016549,-1.232021 3.016549,-2.749892c0,-1.517871 -1.35149,-2.749892 -3.016902,-2.749892z"/>
     <path stroke="null" id="svg_21" d="m135.549998,174.999997l-12.066549,0c-1.665059,0 -3.016549,1.232021 -3.016549,2.749892s1.35149,2.749892 3.016549,2.749892l12.066549,0c1.665059,0 3.016549,-1.232021 3.016549,-2.749892s-1.35149,-2.749892 -3.016549,-2.749892z"/>
     <path stroke="null" id="svg_22" d="m57.116548,109l-6.033098,0c-1.665059,0 -3.016549,1.232021 -3.016549,2.749892c0,1.517871 1.35149,2.749892 3.016549,2.749892l6.033451,0c1.665059,0 3.016549,-1.232021 3.016549,-2.749892c0,-1.517871 -1.35149,-2.749892 -3.016902,-2.749892z"/>
     <path stroke="null" id="svg_23" d="m57.116548,119.999892l-6.033098,0c-1.665059,0 -3.016549,1.232021 -3.016549,2.749892s1.351137,2.750215 3.016549,2.750215l6.033451,0c1.665059,0 3.016549,-1.232021 3.016549,-2.749892s-1.35149,-2.750215 -3.016902,-2.750215z"/>
    </g>
   </g>
  </g>
  <g id="svg_24"/>
  <g id="svg_25"/>
  <g id="svg_26"/>
  <g id="svg_27"/>
  <g id="svg_28"/>
  <g id="svg_29"/>
  <g id="svg_30"/>
  <g id="svg_31"/>
  <g id="svg_32"/>
  <g id="svg_33"/>
  <g id="svg_34"/>
  <g id="svg_35"/>
  <g id="svg_36"/>
  <g id="svg_37"/>
  <g id="svg_38"/>
 </g>
</svg>