<?xml version="1.0" standalone="no"?>
<!DOCTYPE svg PUBLIC "-//W3C//DTD SVG 20010904//EN"
 "http://www.w3.org/TR/2001/REC-SVG-20010904/DTD/svg10.dtd">
<svg version="1.0" xmlns="http://www.w3.org/2000/svg"
 width="250.000000pt" height="250.000000pt" viewBox="0 0 250.000000 250.000000"
 preserveAspectRatio="xMidYMid meet">

<g transform="translate(0.000000,250.000000) scale(0.100000,-0.100000)"
fill="#000000" stroke="none">
<path d="M356 2018 c-14 -20 -16 -107 -16 -743 0 -636 2 -723 16 -743 l15 -22
380 0 379 0 0 25 c0 14 -4 25 -10 25 -6 0 -10 37 -10 90 0 53 4 90 10 90 6 0
10 11 10 25 0 14 -4 25 -10 25 -6 0 -10 38 -10 95 0 57 4 95 10 95 6 0 10 9
10 20 0 11 -4 20 -10 20 -6 0 -10 42 -10 105 0 63 4 105 10 105 6 0 10 9 10
20 0 11 -4 20 -10 20 -6 0 -10 43 -10 110 l0 110 210 0 210 0 0 -50 c0 -47 2
-50 25 -50 23 0 25 3 25 50 l0 50 215 0 215 0 0 -50 c0 -47 2 -50 25 -50 l25
0 0 308 c0 287 -1 310 -18 325 -17 16 -90 17 -845 17 l-826 0 -15 -22z m704
-123 l0 -105 -210 0 -210 0 0 105 0 105 210 0 210 0 0 -105z m470 0 l0 -105
-210 0 -210 0 0 105 0 105 210 0 210 0 0 -105z m480 0 l0 -105 -215 0 -215 0
0 105 0 105 215 0 215 0 0 -105z m-1410 -255 l0 -110 -105 0 -105 0 0 110 0
110 105 0 105 0 0 -110z m460 0 l0 -110 -210 0 -210 0 0 110 0 110 210 0 210
0 0 -110z m470 0 l0 -110 -210 0 -210 0 0 110 0 110 210 0 210 0 0 -110z m480
0 l0 -110 -215 0 -215 0 0 110 0 110 215 0 215 0 0 -110z m-1410 -260 l0 -110
-105 0 -105 0 0 110 0 110 105 0 105 0 0 -110z m460 0 l0 -110 -210 0 -210 0
0 110 0 110 210 0 210 0 0 -110z m-460 -255 l0 -105 -105 0 -105 0 0 105 0
105 105 0 105 0 0 -105z m460 0 l0 -105 -210 0 -210 0 0 105 0 105 210 0 210
0 0 -105z m-460 -240 l0 -95 -105 0 -105 0 0 95 0 95 105 0 105 0 0 -95z m460
0 l0 -95 -210 0 -210 0 0 95 0 95 210 0 210 0 0 -95z m-460 -235 l0 -90 -105
0 -105 0 0 90 0 90 105 0 105 0 0 -90z m460 0 l0 -90 -210 0 -210 0 0 90 0 90
210 0 210 0 0 -90z"/>
<path d="M1220 870 l0 -430 470 0 470 0 0 430 0 430 -470 0 -470 0 0 -430z
m910 0 l0 -400 -440 0 -440 0 0 400 0 400 440 0 440 0 0 -400z"/>
<path d="M1342 1094 c-24 -17 -30 -62 -10 -82 7 -7 23 -12 38 -12 20 0 34 -14
74 -76 42 -67 47 -79 37 -101 -16 -34 -14 -50 9 -73 42 -42 118 -7 107 49 -5
23 2 32 55 70 51 37 67 44 111 46 44 1 61 -4 112 -36 57 -37 59 -40 57 -76 -4
-47 23 -76 70 -76 38 0 68 32 68 73 0 49 -76 90 -107 59 -18 -18 -153 68 -153
97 0 22 -28 54 -48 54 -20 0 -52 -39 -52 -62 0 -16 -18 -36 -62 -66 -52 -37
-64 -42 -83 -34 -13 6 -31 9 -41 6 -15 -3 -30 14 -67 73 -42 67 -47 80 -38
100 13 28 1 57 -29 73 -24 13 -21 13 -48 -6z"/>
</g>
</svg>
