<?xml version="1.0" standalone="no"?>
<!DOCTYPE svg PUBLIC "-//W3C//DTD SVG 20010904//EN"
 "http://www.w3.org/TR/2001/REC-SVG-20010904/DTD/svg10.dtd">
<svg version="1.0" xmlns="http://www.w3.org/2000/svg"
 width="250.000000pt" height="250.000000pt" viewBox="0 0 250.000000 250.000000"
 preserveAspectRatio="xMidYMid meet">

<g transform="translate(0.000000,250.000000) scale(0.100000,-0.100000)"
fill="#000000" stroke="none">
<path d="M400 1990 l0 -110 30 0 30 0 0 -569 0 -569 -25 -6 c-16 -4 -25 -13
-25 -26 0 -20 8 -20 410 -20 l410 0 0 -35 c0 -28 -5 -37 -30 -50 -17 -9 -38
-31 -47 -49 -48 -101 88 -196 167 -117 16 16 32 41 36 56 9 37 -18 90 -56 110
-25 13 -30 22 -30 50 l0 35 407 2 c376 3 408 4 411 20 2 12 -5 19 -22 24 l-26
6 0 569 0 569 30 0 30 0 0 110 0 110 -850 0 -850 0 0 -110z m1650 0 l0 -60
-800 0 -800 0 0 60 0 60 800 0 800 0 0 -60z m-60 -680 l0 -570 -740 0 -740 0
0 570 0 570 740 0 740 0 0 -570z m-690 -760 c18 -34 8 -73 -22 -90 -25 -13
-31 -13 -55 0 -31 17 -41 56 -23 90 8 15 21 20 50 20 29 0 42 -5 50 -20z"/>
<path d="M847 1765 c-130 -48 -210 -165 -211 -305 0 -62 5 -84 28 -132 35 -69
84 -118 156 -154 113 -58 266 -30 358 65 87 89 115 221 71 336 -30 80 -104
154 -182 183 -67 25 -162 28 -220 7z m230 -61 c77 -37 129 -109 147 -201 l6
-33 -135 0 -135 0 0 135 0 135 33 -6 c17 -3 55 -17 84 -30z m-165 -121 l3
-148 98 -94 c53 -52 97 -98 97 -101 0 -15 -80 -43 -136 -47 -260 -22 -398 296
-205 470 44 40 93 66 123 67 15 0 17 -17 20 -147z m308 -180 c0 -23 -37 -97
-58 -116 -17 -15 -23 -12 -92 58 l-74 75 112 0 c98 0 112 -2 112 -17z"/>
<path d="M1495 1747 c-26 -20 -10 -37 36 -37 27 0 42 5 46 16 12 31 -47 46
-82 21z"/>
<path d="M1783 1753 c-7 -2 -13 -13 -13 -24 0 -17 8 -19 59 -19 43 0 60 4 65
15 10 27 -67 46 -111 28z"/>
<path d="M1655 1740 c-4 -7 -3 -16 3 -22 14 -14 45 -2 40 15 -6 16 -34 21 -43
7z"/>
<path d="M1485 1600 c-15 -24 12 -30 136 -30 122 0 129 1 129 20 0 19 -7 20
-129 20 -76 0 -132 -4 -136 -10z"/>
<path d="M1855 1600 c-8 -14 3 -30 21 -30 8 0 14 9 14 20 0 21 -24 28 -35 10z"/>
<path d="M1745 1208 c-3 -8 -4 -95 -3 -193 3 -152 5 -180 18 -180 13 0 15 28
15 189 0 143 -3 190 -12 193 -7 3 -15 -1 -18 -9z"/>
<path d="M1857 1093 c-12 -11 -8 -251 3 -258 6 -4 17 -1 25 5 12 10 15 38 15
120 0 60 -3 115 -6 124 -6 16 -26 21 -37 9z"/>
<path d="M1517 1064 c-11 -12 -8 -222 3 -229 6 -4 18 -1 26 6 22 18 16 222 -6
227 -9 1 -19 0 -23 -4z"/>
<path d="M663 1005 c-11 -31 13 -36 168 -33 146 3 154 4 154 23 0 19 -8 20
-158 23 -136 2 -158 0 -164 -13z"/>
<path d="M1632 1008 c-19 -19 -16 -152 3 -168 27 -22 36 2 33 90 -3 82 -12
102 -36 78z"/>
<path d="M1404 947 c-3 -8 -4 -36 -2 -63 2 -36 7 -49 18 -49 20 0 22 116 3
122 -7 3 -16 -2 -19 -10z"/>
<path d="M675 897 c-42 -31 -8 -37 221 -37 197 0 225 2 231 16 3 9 0 20 -8 25
-8 5 -107 9 -220 9 -156 0 -210 -3 -224 -13z"/>
</g>
</svg>
