<svg width="250.026" height="250.026" xmlns="http://www.w3.org/2000/svg">
 <g>
  <title>background</title>
  <rect x="-1" y="-1" width="252.026" height="252.026" id="canvas_background" fill="none"/>
 </g>

 <g>
  <title>Layer 1</title>
  <g stroke="null" id="svg_1">
   <path stroke="null" d="m133.931993,48.866201c-3.63995,-1.859913 -7.947473,-1.799263 -11.524022,0.148254c-0.171555,0.090974 -0.335651,0.198795 -0.484829,0.313355l-50.534143,38.623515l-39.659046,0c-2.06239,0 -3.729457,1.506125 -3.729457,3.369407l0,64.018735c0,0.896262 0.391593,1.752092 1.092731,2.382171s1.644691,0.987236 2.636726,0.987236l39.569539,-0.016848l50.508036,41.915425c0.186473,0.154993 0.387864,0.289769 0.600443,0.404329c1.834893,1.000713 3.867447,1.502755 5.900001,1.502755c1.928129,-0.00337 3.852529,-0.4515 5.624021,-1.354501c3.725728,-1.900345 5.952213,-5.370835 5.952213,-9.282716l0,-133.72503c0,-3.911881 -2.226486,-7.38237 -5.952213,-9.286086l0,-0.000001zm-1.506701,143.011116c0,1.452215 -0.809292,2.72922 -2.159356,3.419948c-0.578066,0.293139 -2.043742,0.859198 -3.729457,0.087605l-50.053043,-41.541421l0,-15.351019c0,-1.863282 -1.667067,-3.369407 -3.729457,-3.369407s-3.729457,1.506125 -3.729457,3.369407l0,13.464151l-33.565113,0.013477l0,-57.279922l33.565113,0l0,13.477629c0,1.863282 1.667067,3.369407 3.729457,3.369407s3.729457,-1.506125 3.729457,-3.369407l0,-15.28363l49.993371,-38.209076c1.71928,-0.815397 3.207333,-0.235859 3.789128,0.060649c1.350063,0.690728 2.159356,1.967734 2.159356,3.41658l0,133.72503l0.000001,0z" id="svg_2"/>
   <path stroke="null" d="m172.69224,61.174644c-1.950506,-0.596386 -4.068838,0.347049 -4.732681,2.10925c-0.660114,1.75883 0.384134,3.676023 2.33464,4.275778c26.482874,8.12364 44.276114,30.536937 44.276114,55.773797c0,25.213273 -17.759674,47.629939 -44.190336,55.777165c-1.946777,0.599754 -2.991025,2.513577 -2.323452,4.279146c0.529583,1.398304 1.976612,2.281088 3.528066,2.281088c0.399052,0 0.805563,-0.05728 1.204615,-0.181948c29.447793,-9.073813 49.236292,-34.051229 49.236292,-62.152084c0.003729,-28.13118 -19.822064,-53.108595 -49.333258,-62.162192z" id="svg_3"/>
   <path stroke="null" d="m188.464114,123.330098c0,-20.1221 -14.951393,-38.081039 -36.358477,-43.674255c-1.987801,-0.50878 -4.042731,0.512151 -4.617068,2.304675c-0.570607,1.785785 0.566877,3.655807 2.550949,4.171326c18.233315,4.760972 30.969411,20.058081 30.969411,37.198254s-12.736096,32.437282 -30.969411,37.198254c-1.980342,0.515519 -3.121556,2.38554 -2.550949,4.171326c0.473641,1.4758 1.961694,2.436081 3.584008,2.436081c0.34311,0 0.68995,-0.043803 1.03306,-0.131406c21.410813,-5.593217 36.358477,-23.552155 36.358477,-43.674255z" id="svg_4"/>
  </g>
  <g id="svg_5"/>
  <g id="svg_6"/>
  <g id="svg_7"/>
  <g id="svg_8"/>
  <g id="svg_9"/>
  <g id="svg_10"/>
  <g id="svg_11"/>
  <g id="svg_12"/>
  <g id="svg_13"/>
  <g id="svg_14"/>
  <g id="svg_15"/>
  <g id="svg_16"/>
  <g id="svg_17"/>
  <g id="svg_18"/>
  <g id="svg_19"/>
 </g>
</svg>