<svg width="250" height="250" xmlns="http://www.w3.org/2000/svg">

 <g>
  <title>background</title>
  <rect fill="none" id="canvas_background" height="252" width="252" y="-1" x="-1"/>
 </g>
 <g>
  <title>Layer 1</title>
  <g stroke="null" id="svg_1">
   <path stroke="null" id="svg_2" d="m150.859714,121.880873l-37.741384,-25.869567c-1.056759,-0.720652 -2.394862,-0.768696 -3.496225,-0.121957c-1.0945,0.650435 -1.777276,1.892174 -1.777276,3.241087l0,51.739134c0,1.348913 0.682776,2.590652 1.780707,3.241087c0.514655,0.303043 1.080776,0.454565 1.650328,0.454565c0.641604,0 1.283207,-0.19587 1.842466,-0.576522l37.741384,-25.869567c0.988138,-0.68 1.588569,-1.855218 1.588569,-3.119131s-0.600431,-2.439131 -1.588569,-3.119131zm-36.152815,22.258914l0,-38.279568l27.918331,19.139784l-27.918331,19.139784z"/>
   <path stroke="null" id="svg_3" d="m221.068981,39.999999l-34.310349,0l-123.517256,0l-34.310349,0c-1.893931,0 -3.431035,1.651957 -3.431035,3.695652l0,40.652177l0,40.652177l0,40.652177l0,40.652177c0,2.043696 1.537104,3.695652 3.431035,3.695652l34.310349,0l123.517256,0l34.310349,0c1.893931,0 3.431035,-1.651957 3.431035,-3.695652l0,-40.652177l0,-40.652177l0,-40.652177l0,-40.652177c0,-2.043696 -1.537104,-3.695652 -3.431035,-3.695652zm-161.25864,81.304353l-27.448279,0l0,-33.260872l27.448279,0l0,33.260872zm-27.448279,7.391305l27.448279,0l0,33.260872l-27.448279,0l0,-33.260872zm34.310349,36.956524l0,-40.652177l0,-40.652177l0,-36.956524l116.655186,0l0,36.956524l0,40.652177l0,40.652177l0,36.956524l-116.655186,0l0,-36.956524zm150.965535,-44.347829l-27.448279,0l0,-33.260872l27.448279,0l0,33.260872zm-27.448279,7.391305l27.448279,0l0,33.260872l-27.448279,0l0,-33.260872zm27.448279,-81.304353l0,33.260872l-27.448279,0l0,-33.260872l27.448279,0zm-185.275884,0l27.448279,0l0,33.260872l-27.448279,0l0,-33.260872zm0,155.217401l0,-33.260872l27.448279,0l0,33.260872l-27.448279,0zm185.275884,0l-27.448279,0l0,-33.260872l27.448279,0l0,33.260872z"/>
  </g>
  <g id="svg_4"/>
  <g id="svg_5"/>
  <g id="svg_6"/>
  <g id="svg_7"/>
  <g id="svg_8"/>
  <g id="svg_9"/>
  <g id="svg_10"/>
  <g id="svg_11"/>
  <g id="svg_12"/>
  <g id="svg_13"/>
  <g id="svg_14"/>
  <g id="svg_15"/>
  <g id="svg_16"/>
  <g id="svg_17"/>
  <g id="svg_18"/>
 </g>
</svg>