<?xml version="1.0" standalone="no"?>
<!DOCTYPE svg PUBLIC "-//W3C//DTD SVG 20010904//EN"
 "http://www.w3.org/TR/2001/REC-SVG-20010904/DTD/svg10.dtd">
<svg version="1.0" xmlns="http://www.w3.org/2000/svg"
 width="250.000000pt" height="250.000000pt" viewBox="0 0 250.000000 250.000000"
 preserveAspectRatio="xMidYMid meet">

<g transform="translate(0.000000,250.000000) scale(0.100000,-0.100000)"
fill="#000000" stroke="none">
<path d="M410 2091 c-14 -27 -14 -1655 0 -1682 10 -19 30 -19 840 -19 810 0
830 0 840 19 7 13 10 294 10 841 0 547 -3 828 -10 841 -10 19 -30 19 -840 19
-810 0 -830 0 -840 -19z m1640 -671 c0 -352 -3 -640 -6 -640 -3 0 -78 70 -167
155 -89 85 -165 155 -169 155 -3 0 -86 -75 -183 -167 -151 -142 -179 -165
-189 -151 -328 460 -444 617 -456 618 -9 0 -96 -114 -207 -272 -106 -150 -199
-282 -207 -293 -14 -18 -15 45 -16 608 l0 627 800 0 800 0 0 -640z m-950 -390
c116 -162 219 -303 229 -313 17 -17 25 -11 191 145 95 90 178 164 185 166 7 2
86 -68 176 -154 139 -134 164 -163 167 -191 l3 -33 -800 0 -801 0 0 39 c0 36
23 72 212 341 116 165 215 299 219 298 4 -2 103 -136 219 -298z m950 -505 l0
-85 -800 0 -800 0 0 85 0 85 800 0 800 0 0 -85z"/>
<path d="M1434 1911 c-33 -14 -65 -62 -62 -90 4 -31 31 -35 36 -6 14 71 112
79 130 12 12 -45 39 -47 50 -5 18 70 106 70 126 0 10 -37 39 -41 44 -5 4 29
36 56 67 56 31 0 63 -27 67 -56 2 -12 11 -23 21 -25 29 -6 22 52 -12 90 -25
28 -36 33 -74 33 -29 0 -52 -6 -65 -18 -19 -17 -21 -17 -53 2 -19 12 -45 21
-59 21 -14 0 -40 -9 -59 -21 -31 -18 -35 -19 -51 -4 -22 19 -78 28 -106 16z"/>
<path d="M653 1670 c-37 -22 -53 -48 -53 -85 0 -20 4 -26 18 -23 9 2 18 13 20
25 5 33 36 55 74 51 27 -2 36 -10 51 -40 23 -47 41 -48 53 -6 18 62 106 65
122 5 6 -22 14 -32 28 -32 28 0 21 51 -12 86 -37 39 -76 45 -123 20 -39 -20
-39 -20 -77 0 -48 24 -61 24 -101 -1z"/>
<path d="M1480 1580 c-180 -35 -246 -258 -113 -381 46 -44 93 -63 153 -63 161
0 268 167 203 315 -40 91 -147 148 -243 129z m120 -59 c105 -56 133 -192 57
-278 -112 -127 -317 -52 -317 117 0 72 42 138 105 166 43 19 115 17 155 -5z"/>
</g>
</svg>
