<?xml version="1.0" standalone="no"?>
<!DOCTYPE svg PUBLIC "-//W3C//DTD SVG 20010904//EN"
 "http://www.w3.org/TR/2001/REC-SVG-20010904/DTD/svg10.dtd">
<svg version="1.0" xmlns="http://www.w3.org/2000/svg"
 width="250.000000pt" height="250.000000pt" viewBox="0 0 250.000000 250.000000"
 preserveAspectRatio="xMidYMid meet">

<g transform="translate(0.000000,250.000000) scale(0.100000,-0.100000)"
fill="#000000" stroke="none">
<path d="M1339 2072 c-91 -47 -148 -155 -134 -251 12 -81 68 -161 139 -198 79
-41 201 -23 274 41 134 118 93 352 -74 422 -57 24 -144 18 -205 -14z m225 -59
c115 -81 107 -264 -16 -333 -51 -29 -135 -32 -183 -8 -118 62 -141 234 -43
325 64 60 169 67 242 16z"/>
<path d="M1215 1536 c-117 -54 -181 -183 -204 -413 -15 -149 -51 -224 -149
-319 -47 -44 -163 -111 -235 -134 -35 -11 -38 -15 -32 -39 13 -53 89 -223 101
-228 19 -7 119 24 188 59 137 69 249 165 368 317 l26 34 71 -42 c147 -87 280
-215 327 -314 10 -21 20 -37 23 -37 3 0 52 35 107 78 l102 78 -32 62 c-73 144
-201 279 -384 404 -57 38 -106 77 -109 85 -3 8 1 21 8 28 12 12 23 11 69 -1
69 -18 138 -18 218 1 73 17 108 34 174 82 l48 34 -51 100 -50 100 -33 -20
c-98 -61 -252 -92 -308 -63 -15 8 -37 39 -54 75 -46 97 -97 116 -189 73z m145
-105 c50 -92 73 -106 173 -106 69 1 95 6 160 33 43 18 80 32 83 32 2 0 15 -23
30 -52 31 -60 30 -61 -66 -106 -48 -22 -68 -26 -160 -26 -58 0 -126 4 -152 8
-42 8 -49 6 -72 -17 -19 -20 -26 -36 -26 -66 0 -45 -14 -32 167 -158 110 -78
229 -194 286 -281 65 -99 65 -95 -4 -148 -33 -25 -61 -45 -63 -43 -109 156
-245 273 -415 359 -41 20 -45 21 -54 5 -27 -49 -141 -177 -212 -238 -81 -70
-231 -153 -288 -159 -26 -3 -30 2 -58 65 -16 38 -29 74 -29 80 0 7 25 23 56
36 194 84 321 244 345 432 21 173 31 218 59 276 36 72 45 84 95 117 28 19 49
26 75 24 32 -3 38 -9 70 -67z"/>
</g>
</svg>
