<?xml version="1.0" standalone="no"?>
<!DOCTYPE svg PUBLIC "-//W3C//DTD SVG 20010904//EN"
 "http://www.w3.org/TR/2001/REC-SVG-20010904/DTD/svg10.dtd">
<svg version="1.0" xmlns="http://www.w3.org/2000/svg"
 width="250.000000pt" height="250.000000pt" viewBox="0 0 250.000000 250.000000"
 preserveAspectRatio="xMidYMid meet">

<g transform="translate(0.000000,250.000000) scale(0.100000,-0.100000)"
fill="#000000" stroke="none">
<path d="M394 2031 c-25 -11 -50 -34 -65 -57 l-24 -39 0 -596 0 -596 28 -36
c49 -64 61 -67 307 -67 l220 0 0 -70 0 -70 -60 0 c-57 0 -60 -1 -60 -25 l0
-25 520 0 520 0 0 25 c0 24 -2 25 -65 25 l-65 0 0 70 0 70 226 0 c213 0 229 1
261 21 18 12 43 39 54 60 19 38 19 57 17 633 -3 583 -3 595 -24 622 -11 15
-33 37 -48 48 -27 21 -37 21 -864 23 -800 3 -839 2 -878 -16z m1733 -64 l28
-27 3 -535 3 -535 -901 0 -900 0 0 533 c0 588 -2 567 63 586 19 6 366 9 854 8
l823 -2 27 -28z m33 -1172 c0 -34 -25 -82 -49 -95 -13 -7 -301 -10 -855 -10
l-834 0 -31 26 c-25 21 -31 33 -31 65 l0 39 900 0 900 0 0 -25z m-560 -225 l0
-70 -345 0 -345 0 0 70 0 70 345 0 345 0 0 -70z"/>
<path d="M430 1435 l0 -485 830 0 830 0 0 485 0 485 -830 0 -830 0 0 -485z
m1600 340 l0 -95 -775 0 -775 0 0 95 0 95 775 0 775 0 0 -95z m0 -465 l0 -310
-775 0 -775 0 0 310 0 310 775 0 775 0 0 -310z"/>
<path d="M550 1775 c0 -20 5 -25 25 -25 20 0 25 5 25 25 0 20 -5 25 -25 25
-20 0 -25 -5 -25 -25z"/>
<path d="M680 1775 c0 -20 5 -25 25 -25 20 0 25 5 25 25 0 20 -5 25 -25 25
-20 0 -25 -5 -25 -25z"/>
<path d="M800 1775 c0 -20 5 -25 25 -25 20 0 25 5 25 25 0 20 -5 25 -25 25
-20 0 -25 -5 -25 -25z"/>
<path d="M683 1378 c3 -29 11 -83 17 -120 12 -68 12 -68 45 -68 28 0 34 5 50
40 10 23 22 43 27 46 4 3 18 -15 30 -40 19 -40 26 -46 54 -46 32 0 32 1 44 68
6 37 14 91 17 120 6 50 5 52 -19 52 -24 0 -26 -4 -32 -61 -13 -110 -19 -113
-57 -36 l-34 67 -34 -67 c-38 -77 -44 -73 -57 36 -6 57 -8 61 -32 61 -24 0
-25 -2 -19 -52z"/>
<path d="M1110 1410 c0 -12 7 -66 17 -120 l16 -100 33 0 c30 0 36 5 58 47 l24
48 23 -48 c21 -42 27 -47 56 -47 18 0 33 1 33 3 0 1 9 54 20 117 11 63 20 116
20 118 0 1 -13 2 -29 2 -28 0 -28 -1 -35 -72 -4 -40 -11 -77 -16 -82 -5 -5
-22 18 -41 55 l-32 64 -31 -63 c-16 -34 -33 -62 -37 -62 -7 0 -29 110 -29 143
0 11 -8 17 -25 17 -19 0 -25 -5 -25 -20z"/>
<path d="M1541 1413 c0 -10 8 -63 17 -118 l17 -100 33 -3 c29 -3 34 1 54 42
12 25 25 46 28 46 3 0 16 -21 28 -46 20 -41 25 -45 54 -42 l33 3 17 100 c23
134 23 135 -6 135 -22 0 -25 -6 -35 -63 -6 -35 -11 -71 -11 -80 0 -32 -17 -16
-45 43 -16 33 -32 60 -35 60 -3 0 -19 -27 -35 -60 -16 -33 -32 -60 -36 -60 -3
0 -12 36 -19 80 -12 74 -14 80 -36 80 -16 0 -24 -6 -23 -17z"/>
<path d="M550 1095 l0 -25 705 0 705 0 0 25 0 25 -705 0 -705 0 0 -25z"/>
</g>
</svg>
