<?xml version="1.0" standalone="no"?>
<!DOCTYPE svg PUBLIC "-//W3C//DTD SVG 20010904//EN"
 "http://www.w3.org/TR/2001/REC-SVG-20010904/DTD/svg10.dtd">
<svg version="1.0" xmlns="http://www.w3.org/2000/svg"
 width="250.000000pt" height="250.000000pt" viewBox="0 0 250.000000 250.000000"
 preserveAspectRatio="xMidYMid meet">

<g transform="translate(0.000000,250.000000) scale(0.100000,-0.100000)"
fill="#000000" stroke="none">
<path d="M437 2063 c-4 -3 -7 -30 -7 -59 l0 -53 -57 -3 -58 -3 -3 -540 c-2
-510 -1 -542 16 -575 11 -19 31 -44 46 -55 26 -19 44 -20 342 -23 l314 -3 0
-119 0 -120 -74 0 c-77 0 -97 -10 -76 -35 18 -22 682 -22 700 0 21 25 1 35
-76 35 l-74 0 0 79 c0 84 -12 109 -37 76 -8 -12 -13 -46 -13 -87 l0 -68 -150
0 -150 0 0 120 0 120 484 0 483 0 34 23 c71 47 69 29 67 632 l-3 540 -57 3
-57 3 -3 57 -3 57 -358 3 c-349 2 -360 2 -396 -19 l-38 -21 -41 21 c-40 20
-55 21 -395 21 -194 0 -357 -3 -360 -7z m758 -74 l35 -31 35 31 36 31 344 0
345 0 0 -485 0 -485 -755 0 -755 0 0 485 0 485 340 0 339 0 36 -31z m-765
-514 l0 -425 -35 0 -35 0 0 425 0 425 35 0 35 0 0 -425z m1670 0 l0 -425 -35
0 -35 0 0 425 0 425 35 0 35 0 0 -425z m0 -550 c0 -67 -3 -79 -25 -100 l-24
-25 -818 0 c-627 1 -822 3 -834 13 -28 22 -39 55 -39 121 l0 66 870 0 870 0 0
-75z"/>
<path d="M593 1894 c-3 -9 0 -20 8 -25 8 -5 113 -9 235 -9 169 0 224 3 239 13
42 32 8 37 -236 37 -210 0 -240 -2 -246 -16z"/>
<path d="M1374 1898 c-4 -6 1 -17 11 -25 15 -10 70 -13 236 -13 120 0 224 3
233 6 9 3 16 15 16 25 0 18 -11 19 -244 19 -174 0 -247 -3 -252 -12z"/>
<path d="M1217 1883 c-4 -3 -7 -174 -7 -379 0 -380 3 -414 37 -369 10 15 13
91 13 371 0 194 -3 359 -6 368 -6 16 -26 21 -37 9z"/>
<path d="M593 1754 c-3 -9 0 -20 8 -25 8 -5 116 -9 240 -9 186 0 229 3 239 15
26 31 1 35 -241 35 -210 0 -240 -2 -246 -16z"/>
<path d="M1374 1758 c-4 -6 1 -17 11 -25 15 -10 70 -13 236 -13 120 0 224 3
233 6 9 3 16 15 16 25 0 18 -11 19 -244 19 -174 0 -247 -3 -252 -12z"/>
<path d="M593 1614 c-10 -27 17 -34 132 -34 115 0 142 7 132 34 -9 24 -255 24
-264 0z"/>
<path d="M1375 1620 c-4 -6 -1 -17 5 -25 10 -12 39 -15 130 -15 91 0 120 3
130 15 24 29 0 35 -130 35 -79 0 -131 -4 -135 -10z"/>
<path d="M593 1474 c-3 -9 0 -20 8 -25 8 -5 116 -9 240 -9 186 0 229 3 239 15
26 31 1 35 -241 35 -210 0 -240 -2 -246 -16z"/>
<path d="M1375 1480 c-4 -6 -1 -18 6 -26 10 -12 50 -14 248 -12 228 3 236 4
236 23 0 19 -8 20 -242 23 -162 1 -244 -1 -248 -8z"/>
<path d="M594 1335 c-13 -32 6 -35 240 -35 192 0 236 3 246 15 26 31 1 35
-241 35 -200 0 -241 -2 -245 -15z"/>
<path d="M1375 1340 c-4 -6 -1 -18 6 -26 10 -12 50 -14 248 -12 228 3 236 4
236 23 0 19 -8 20 -242 23 -162 1 -244 -1 -248 -8z"/>
<path d="M593 1195 c-11 -30 12 -36 138 -33 116 3 124 4 124 23 0 19 -8 20
-128 23 -109 2 -128 0 -134 -13z"/>
<path d="M1375 1200 c-4 -6 -1 -17 5 -25 10 -12 39 -15 129 -15 117 0 145 8
134 36 -4 11 -34 14 -133 14 -79 0 -131 -4 -135 -10z"/>
</g>
</svg>
