<?xml version="1.0" encoding="utf-8"?>
<!-- Generator: Adobe Illustrator 23.0.0, SVG Export Plug-In . SVG Version: 6.00 Build 0)  -->
<svg version="1.1" id="Layer_1" xmlns="http://www.w3.org/2000/svg" xmlns:xlink="http://www.w3.org/1999/xlink" x="0px" y="0px"
	 viewBox="0 0 141.73 141.73" style="enable-background:new 0 0 141.73 141.73;" xml:space="preserve">
<style type="text/css">
	.st0{fill:#FDD4BF;}
	.st1{clip-path:url(#SVGID_2_);}
	.st2{fill:#010101;}
	.st3{clip-path:url(#SVGID_4_);}
	.st4{fill:#FFFFFF;}
	.st5{clip-path:url(#SVGID_6_);}
	.st6{fill:#010101;stroke:#000000;stroke-width:2;stroke-miterlimit:10;}
	.st7{stroke:#000000;stroke-width:0.75;stroke-miterlimit:10;}
	.st8{clip-path:url(#SVGID_8_);stroke:#000000;stroke-width:0.75;stroke-miterlimit:10;}
	.st9{clip-path:url(#SVGID_8_);stroke:#000000;stroke-miterlimit:10;}
	.st10{clip-path:url(#SVGID_10_);}
	.st11{fill:#73B9E6;}
	.st12{clip-path:url(#SVGID_12_);}
	.st13{fill:#201113;}
	.st14{fill:none;}
	.st15{clip-path:url(#SVGID_14_);fill-rule:evenodd;clip-rule:evenodd;}
	.st16{fill-rule:evenodd;clip-rule:evenodd;}
	.st17{clip-path:url(#SVGID_16_);stroke:#000000;stroke-miterlimit:10;}
	.st18{stroke:#000000;stroke-miterlimit:10;}
	.st19{clip-path:url(#SVGID_18_);}
	.st20{fill:#FEE55B;stroke:#000000;stroke-miterlimit:10;}
	.st21{clip-path:url(#SVGID_20_);fill:#231F20;stroke:#000000;stroke-miterlimit:10;}
	.st22{fill:#231F20;stroke:#000000;stroke-miterlimit:10;}
	.st23{fill:#231F20;}
	.st24{fill:#E9E9E9;}
	.st25{clip-path:url(#SVGID_22_);}
	.st26{fill:#E6E7E8;}
	.st27{fill:#949A9B;}
	.st28{clip-path:url(#SVGID_24_);}
	.st29{clip-path:url(#SVGID_26_);}
	.st30{clip-path:url(#SVGID_28_);stroke:#000000;stroke-miterlimit:10;}
	.st31{fill-rule:evenodd;clip-rule:evenodd;fill:#A44424;}
	.st32{fill-rule:evenodd;clip-rule:evenodd;fill:#38A749;}
	.st33{fill-rule:evenodd;clip-rule:evenodd;fill:#CA3229;}
	.st34{fill-rule:evenodd;clip-rule:evenodd;fill:#EDBE2E;}
	.st35{fill-rule:evenodd;clip-rule:evenodd;fill:#1C76BC;}
	.st36{fill:#204583;}
</style>
<g>
	<path class="st7" d="M57.64,91.65h-7.56v-7.56c0-1.04-0.85-1.89-1.89-1.89h-7.56c-1.04,0-1.89,0.85-1.89,1.89v7.56h-7.56
		c-1.04,0-1.89,0.85-1.89,1.89v7.56c0,1.04,0.85,1.89,1.89,1.89h7.56v7.56c0,1.04,0.85,1.89,1.89,1.89h7.56
		c1.04,0,1.89-0.85,1.89-1.89v-7.56h7.56c1.04,0,1.89-0.85,1.89-1.89v-7.56C59.53,92.5,58.68,91.65,57.64,91.65L57.64,91.65z
		 M55.75,99.21h-7.56c-1.04,0-1.89,0.85-1.89,1.89v7.56h-3.78v-7.56c0-1.04-0.85-1.89-1.89-1.89h-7.56v-3.78h7.56
		c1.04,0,1.89-0.85,1.89-1.89v-7.56h3.78v7.56c0,1.04,0.85,1.89,1.89,1.89h7.56V99.21z M55.75,99.21"/>
	<path class="st7" d="M97.32,93.54c4.17,0,7.56-3.38,7.56-7.56c0-4.17-3.38-7.56-7.56-7.56c-4.17,0-7.56,3.38-7.56,7.56
		C89.76,90.15,93.14,93.54,97.32,93.54L97.32,93.54z M97.32,82.2c2.09,0,3.78,1.69,3.78,3.78c0,2.09-1.69,3.78-3.78,3.78
		s-3.78-1.69-3.78-3.78C93.54,83.89,95.23,82.2,97.32,82.2L97.32,82.2z M97.32,82.2"/>
	<path class="st7" d="M97.32,101.1c-4.17,0-7.56,3.38-7.56,7.56c0,4.17,3.38,7.56,7.56,7.56c4.17,0,7.56-3.38,7.56-7.56
		C104.88,104.48,101.49,101.1,97.32,101.1L97.32,101.1z M97.32,112.43c-2.09,0-3.78-1.69-3.78-3.78c0-2.09,1.69-3.78,3.78-3.78
		s3.78,1.69,3.78,3.78C101.1,110.74,99.41,112.43,97.32,112.43L97.32,112.43z M97.32,112.43"/>
	<path class="st7" d="M84.09,89.76c-4.17,0-7.56,3.38-7.56,7.56s3.38,7.56,7.56,7.56c4.17,0,7.56-3.38,7.56-7.56
		S88.27,89.76,84.09,89.76L84.09,89.76z M84.09,101.1c-2.09,0-3.78-1.69-3.78-3.78s1.69-3.78,3.78-3.78c2.09,0,3.78,1.69,3.78,3.78
		S86.18,101.1,84.09,101.1L84.09,101.1z M84.09,101.1"/>
	<g>
		<defs>
			<rect id="SVGID_7_" x="9.79" y="7.82" width="122.89" height="123.91"/>
		</defs>
		<clipPath id="SVGID_2_">
			<use xlink:href="#SVGID_7_"  style="overflow:visible;"/>
		</clipPath>
		<path style="clip-path:url(#SVGID_2_);stroke:#000000;stroke-width:0.75;stroke-miterlimit:10;" d="M110.54,89.76
			c-4.17,0-7.56,3.38-7.56,7.56s3.38,7.56,7.56,7.56c4.17,0,7.56-3.38,7.56-7.56S114.72,89.76,110.54,89.76L110.54,89.76z
			 M110.54,101.1c-2.09,0-3.78-1.69-3.78-3.78s1.69-3.78,3.78-3.78s3.78,1.69,3.78,3.78S112.63,101.1,110.54,101.1L110.54,101.1z
			 M110.54,101.1"/>
		<path style="clip-path:url(#SVGID_2_);stroke:#000000;stroke-miterlimit:10;" d="M100.65,67.28c-1.11-0.12-2.22-0.19-3.33-0.19
			H76.53v-7.56h-3.78v-3.78c0-4.17-3.38-7.56-7.56-7.56l-9.29,0c-1.97,0-3.74-1.44-3.92-3.41c-0.21-2.25,1.55-4.15,3.76-4.15
			l29.97,0c4.03,0,7.54-3.04,7.8-7.05c0.29-4.4-3.2-8.06-7.54-8.06h-9.45c-2.09,0-3.78-1.69-3.78-3.78v-5.67
			c0-1.04-0.85-1.89-1.89-1.89h0c-1.04,0-1.89,0.85-1.89,1.89v5.67c0,4.17,3.38,7.56,7.56,7.56l9.28,0c1.97,0,3.74,1.44,3.92,3.41
			c0.21,2.25-1.55,4.15-3.76,4.15H56.01c-4.03,0-7.54,3.04-7.8,7.05c-0.29,4.4,3.2,8.06,7.54,8.06h9.45c2.09,0,3.78,1.69,3.78,3.78
			v3.78H65.2v7.56H44.41c-1.11,0-2.23,0.07-3.34,0.19c-13.04,1.4-25.26,13.58-26.7,26.6c-1.9,16.59,10.01,31.58,26.6,33.47
			c6.75,0.77,13.57-0.75,19.35-4.33c2.49-1.63,5.33-2.63,8.29-2.93c1.46-0.12,2.93-0.12,4.39-0.02c3.01,0.29,5.9,1.31,8.42,2.96
			c14.2,8.78,32.83,4.38,41.61-9.82c3.57-5.78,5.09-12.59,4.32-19.34C125.91,80.85,113.68,68.66,100.65,67.28L100.65,67.28z
			 M68.98,63.31h3.78v3.78h-3.78V63.31z M117.04,114.95c-8.54,9.56-22.71,11.6-33.61,4.87c-3.04-1.98-6.53-3.19-10.15-3.52
			c-0.8-0.06-1.6-0.09-2.41-0.09c-0.86,0-1.7,0.04-2.55,0.1c-3.56,0.34-6.99,1.54-9.99,3.49c-12.42,7.69-28.73,3.85-36.41-8.58
			c-3.13-5.06-4.46-11.02-3.78-16.93c1.24-11.19,12.15-22.06,23.35-23.26c0.97-0.11,1.95-0.16,2.93-0.17h52.91
			c0.98,0,1.96,0.05,2.93,0.16c11.2,1.2,22.11,12.07,23.35,23.26C124.49,101.8,122.1,109.33,117.04,114.95L117.04,114.95z
			 M117.04,114.95"/>
	</g>
</g>
</svg>
