<svg id="Layer_1" data-name="Layer 1" xmlns="http://www.w3.org/2000/svg" xmlns:xlink="http://www.w3.org/1999/xlink" viewBox="0 0 113.38 113.37"><defs><style>.cls-1{fill:none;}.cls-2{fill:#73b9e6;}.cls-3{clip-path:url(#clip-path);}</style><clipPath id="clip-path" transform="translate(-14.17 -14.17)"><rect class="cls-1" x="14.17" y="14.17" width="113.39" height="113.39"/></clipPath></defs><title>planilha</title><path class="cls-2" d="M22.8,49.91a3.7,3.7,0,1,1-1.09-2.62,3.7,3.7,0,0,1,1.09,2.62Z" transform="translate(-14.17 -14.17)"/><path class="cls-2" d="M36.36,24a3.7,3.7,0,1,1-3.7-3.7,3.7,3.7,0,0,1,3.7,3.7Z" transform="translate(-14.17 -14.17)"/><path class="cls-2" d="M49.91,36.36a3.7,3.7,0,1,1-3.7-3.7,3.7,3.7,0,0,1,3.7,3.7Z" transform="translate(-14.17 -14.17)"/><path class="cls-2" d="M63.47,19.1a3.7,3.7,0,1,1-3.7-3.7,3.7,3.7,0,0,1,3.7,3.7Z" transform="translate(-14.17 -14.17)"/><g class="cls-3"><path d="M30.2,65.94a1.23,1.23,0,1,0,0-2.46H29a1.23,1.23,0,1,0,0,2.46Z" transform="translate(-14.17 -14.17)"/></g><g class="cls-3"><path d="M94.28,14.17a1.23,1.23,0,0,0-1.23,1.23v32a1.23,1.23,0,0,0,1.23,1.23h32a1.23,1.23,0,0,0,1.23-1.23A33.3,33.3,0,0,0,94.28,14.17Zm1.24,32.05V16.66a30.86,30.86,0,0,1,29.56,29.55H95.52Z" transform="translate(-14.17 -14.17)"/></g><g class="cls-3"><path d="M126.33,101.68h-9.86a1.23,1.23,0,0,0-1.23,1.23v22.18h-7.39V89.35h7.39V98a1.23,1.23,0,1,0,2.46,0V88.12a1.23,1.23,0,0,0-1.23-1.23h-9.86a1.23,1.23,0,0,0-1.23,1.23v6.16H96.75a1.23,1.23,0,0,0-1.23,1.23V106.6H86.89a1.23,1.23,0,0,0-1.23,1.23v4.93H78.27V110.3h3.09a1.23,1.23,0,1,0,0-2.46H78.27v-6.16h6.16v1.23a1.23,1.23,0,0,0,2.46,0v-1.23h2.46a1.23,1.23,0,1,0,0-2.46H86.89V93.06h2.46a1.23,1.23,0,1,0,0-2.46H86.89V84.44h6.16V90.6a1.23,1.23,0,0,0,2.46,0V87a33.11,33.11,0,0,0,24.65-32.11,1.23,1.23,0,0,0-1.23-1.23H88.12V22.8a1.23,1.23,0,0,0-1.23-1.23,33.3,33.3,0,0,0-33.24,32H45.88L42.46,43.36a1.22,1.22,0,0,0-1.15-.84h0a1.23,1.23,0,0,0-1.16.81l-4,10.86-3.65-7.3a1.24,1.24,0,0,0-1.19-.68,1.23,1.23,0,0,0-1.08.84L26.85,57.3H15.41a1.23,1.23,0,0,0,0,2.46H27.73a1.24,1.24,0,0,0,1.17-.84l2.75-8.27,3.6,7.2a1.23,1.23,0,0,0,1.17.68,1.25,1.25,0,0,0,1.09-.81l3.72-10.23,2.58,7.74a1.24,1.24,0,0,0,1.17.84h8.68a32.67,32.67,0,0,0,1.11,7.39H35.12a1.23,1.23,0,1,0,0,2.46H93.05v7.39H16.64V65.92H24a1.23,1.23,0,1,0,0-2.46H15.4a1.23,1.23,0,0,0-1.23,1.23v61.62a1.23,1.23,0,0,0,1.23,1.23H126.32a1.23,1.23,0,0,0,1.23-1.23V102.89a1.21,1.21,0,0,0-1.22-1.21Zm-69-38.21a30.46,30.46,0,0,1-1.23-8.63A30.85,30.85,0,0,1,85.66,24.05V54.84a1.23,1.23,0,0,0,1.23,1.23h30.79A30.66,30.66,0,0,1,95.52,84.42V64.7a1.23,1.23,0,0,0-1.23-1.23ZM86.89,75.8h6.16V82H86.89Zm-8.63,0h6.16V82H78.26Zm0,8.62h6.16v6.16H78.26Zm0,8.63h6.16v6.16H78.26ZM24,125.09H16.64v-6.16H24Zm0-8.62H16.64v-6.16H24Zm0-8.63H16.64v-6.16H24Zm0-8.63H16.64V93.05H24Zm0-8.62H16.64V84.43H24ZM24,82H16.64V75.8H24Zm8.63,43.13H26.5v-6.16h6.16Zm0-8.62H26.5v-6.16h6.16Zm0-8.63H26.5v-6.16h6.16Zm0-8.63H26.5V93.05h6.16Zm0-8.62H26.5V84.43h6.16Zm0-8.63H26.5V75.8h6.16Zm8.63,43.13H35.13v-6.16h6.16Zm0-8.62H35.13v-6.16h6.16Zm0-8.63H35.13v-6.16h6.16Zm0-8.63H35.13V93.05h6.16Zm0-8.62H35.13V84.43h6.16Zm0-8.63H35.13V75.8h6.16Zm8.62,43.13H43.75v-6.16h6.16Zm0-8.62H43.75v-6.16h6.16Zm0-8.63H43.75v-6.16h6.16Zm0-8.63H43.75V93.05h6.16Zm0-8.62H43.75V84.43h6.16Zm0-8.63H43.75V75.8h6.16Zm8.63,43.13H52.38v-6.16h6.16Zm0-8.62H52.38v-6.16h6.16Zm0-8.63H52.38v-6.16h6.16Zm0-8.63H52.38V93.05h6.16Zm0-8.62H52.38V84.43h6.16Zm0-8.63H52.38V75.8h6.16Zm8.63,43.13H61v-6.16h6.16Zm0-8.62H61v-6.16h6.16Zm0-8.63H61v-6.16h6.16Zm0-8.63H61V93.05h6.16Zm0-8.62H61V84.43h6.16Zm0-8.63H61V75.8h6.16Zm8.63,43.13H69.64v-6.16h6a1.16,1.16,0,0,0,.18,0v6.2Zm0-8.59a1,1,0,0,0-.18,0h-6V110.3h6.16v6.2Zm0-8.66H69.64v-6.16H75.8Zm0-8.63H69.64V93.05H75.8Zm0-8.62H69.64V84.43H75.8Zm0-8.63H69.64V75.8H75.8Zm9.86,43.13H78.27v-9.86h7.39Zm9.86,0H88.13v-16h7.39Zm9.85,0H98V96.75h7.39Zm19.72,0H117.7v-21h7.39Z" transform="translate(-14.17 -14.17)"/></g><g class="cls-3"><path d="M19.1,45A4.93,4.93,0,1,0,24,49.91a4.88,4.88,0,0,0-1.64-3.64l9.15-17.45a5.12,5.12,0,0,0,1.12.14,4.9,4.9,0,0,0,2.7-.81l6.51,5.93a4.85,4.85,0,0,0-.58,2.28,4.93,4.93,0,0,0,9.86,0,4.87,4.87,0,0,0-1-3l7.68-9.76a4.92,4.92,0,1,0-3-4.51,4.87,4.87,0,0,0,1,3l-7.68,9.76a5,5,0,0,0-2-.42,4.9,4.9,0,0,0-2.7.81L37,26.31A4.85,4.85,0,0,0,37.59,24a4.93,4.93,0,0,0-9.86,0,4.88,4.88,0,0,0,1.64,3.64L20.22,45.12A5.12,5.12,0,0,0,19.1,45Z" transform="translate(-14.17 -14.17)"/></g><path d="M110.67,29.32l-9.86,9.86a1.23,1.23,0,0,0,1.74,1.74l9.86-9.86a1.23,1.23,0,0,0-1.74-1.74Z" transform="translate(-14.17 -14.17)"/><path d="M104.14,31.43a1.23,1.23,0,1,1-1.23-1.23,1.23,1.23,0,0,1,1.23,1.23Z" transform="translate(-14.17 -14.17)"/><path d="M111.54,38.82a1.23,1.23,0,1,1-1.23-1.23,1.23,1.23,0,0,1,1.23,1.23Z" transform="translate(-14.17 -14.17)"/><path d="M72.1,41.29h2.46A2.46,2.46,0,0,1,77,43.75a1.23,1.23,0,1,0,2.46,0,4.93,4.93,0,0,0-4.93-4.93V37.59a1.23,1.23,0,1,0-2.46,0v1.23a4.93,4.93,0,0,0,0,9.86h2.46a2.46,2.46,0,1,1,0,4.92H72.1a2.46,2.46,0,0,1-2.46-2.46,1.23,1.23,0,0,0-2.46,0,4.93,4.93,0,0,0,4.93,4.93V57.3a1.23,1.23,0,1,0,2.46,0V56.07a4.93,4.93,0,1,0,0-9.86H72.1a2.46,2.46,0,1,1,0-4.92Z" transform="translate(-14.17 -14.17)"/><path d="M51.15,69.63a1.23,1.23,0,1,1-1.23-1.23,1.23,1.23,0,0,1,1.23,1.23Z" transform="translate(-14.17 -14.17)"/><path d="M56.08,69.63a1.23,1.23,0,1,1-1.23-1.23,1.23,1.23,0,0,1,1.23,1.23Z" transform="translate(-14.17 -14.17)"/><path d="M61,69.63a1.23,1.23,0,1,1-1.23-1.23A1.23,1.23,0,0,1,61,69.63Z" transform="translate(-14.17 -14.17)"/></svg>