<svg id="Layer_1" data-name="Layer 1" xmlns="http://www.w3.org/2000/svg" viewBox="0 0 123.23 113.39"><defs><style>.cls-1{fill:#010101;}</style></defs><title>site</title><path class="cls-1" d="M58.46,27.63h49.86a2.4,2.4,0,1,0,0-4.8H58.46a2.4,2.4,0,1,0,0,4.8Z" transform="translate(-9.25 -14.17)"/><path class="cls-1" d="M32.4,27.63a2.46,2.46,0,0,0,1.7-.7,2.42,2.42,0,0,0,.7-1.7,2.46,2.46,0,0,0-.7-1.7,2.42,2.42,0,0,0-1.7-.7,2.46,2.46,0,0,0-1.7.7,2.4,2.4,0,0,0-.7,1.7,2.39,2.39,0,0,0,2.4,2.4Z" transform="translate(-9.25 -14.17)"/><path class="cls-1" d="M23.57,27.63a2.46,2.46,0,0,0,1.7-.7,2.42,2.42,0,0,0,.7-1.7,2.46,2.46,0,0,0-.7-1.7,2.42,2.42,0,0,0-1.7-.7,2.46,2.46,0,0,0-1.7.7,2.42,2.42,0,0,0-.7,1.7,2.39,2.39,0,0,0,2.4,2.4Z" transform="translate(-9.25 -14.17)"/><path class="cls-1" d="M41.23,27.63a2.46,2.46,0,0,0,1.7-.7,2.4,2.4,0,0,0-1.7-4.1,2.46,2.46,0,0,0-1.7.7,2.42,2.42,0,0,0-.7,1.7,2.39,2.39,0,0,0,2.4,2.4Z" transform="translate(-9.25 -14.17)"/><path class="cls-1" d="M131.78,114.23,112.87,95.32l3-3h0l3-3,9.34,9.34a2.4,2.4,0,1,0,3.4-3.4l-11.05-11a2.4,2.4,0,0,0-3.4,0l-3,3-1.44-1.44A28.12,28.12,0,0,0,70.84,48.29H24.63a2.4,2.4,0,0,0-2.4,2.4V84.32a2.4,2.4,0,0,0,2.4,2.4H70.48a28.09,28.09,0,0,0,38.82,2.49l1.44,1.44-3,3a2.41,2.41,0,0,0,0,3.4l10.06,10.06v10.39a5.29,5.29,0,0,1-5.28,5.28H19.34a5.29,5.29,0,0,1-5.28-5.28V36.27H117.84V47.1a2.4,2.4,0,0,0,4.8,0V24.26a10.11,10.11,0,0,0-10.09-10.09H19.34A10.11,10.11,0,0,0,9.25,24.26v93.21a10.11,10.11,0,0,0,10.09,10.09h93.21a10.11,10.11,0,0,0,10.09-10.09v-5.59l5.74,5.74a2.41,2.41,0,0,0,3.4,0A2.41,2.41,0,0,0,131.78,114.23ZM27,81.92V53.09H67.16a28,28,0,0,0-4.1,14.61c0,.24,0,.49,0,.73l-3-5.85a2.4,2.4,0,1,0-4.27,2.21l5.64,10.9A2.4,2.4,0,0,0,63.55,77a2.44,2.44,0,0,0,1-.23,27.66,27.66,0,0,0,2.37,5.15H27ZM67.86,67.7c0-.18,0-.37,0-.55l4.42,8.54A2.4,2.4,0,0,0,74.42,77h0a2.39,2.39,0,0,0,2.13-1.36l5.23-10.9a2.41,2.41,0,1,0-4.34-2.08l-3.15,6.56L70.9,62.59a2.42,2.42,0,0,0-2.16-1.3,23.39,23.39,0,1,1-.88,6.41ZM19.34,19h93.21a5.29,5.29,0,0,1,5.28,5.28v7.21H14.05V24.26A5.3,5.3,0,0,1,19.34,19Z" transform="translate(-9.25 -14.17)"/><path class="cls-1" d="M53.17,61.52A2.41,2.41,0,0,0,50,62.65l-3.15,6.56-3.43-6.62a2.4,2.4,0,0,0-4.3.06l-3.15,6.56L32.5,62.59a2.4,2.4,0,0,0-4.27,2.21l5.64,10.9a2.4,2.4,0,0,0,4.3-.06l3.15-6.56,3.43,6.62A2.4,2.4,0,0,0,46.88,77h0a2.39,2.39,0,0,0,2.13-1.36l5.23-10.9A2.39,2.39,0,0,0,53.17,61.52Z" transform="translate(-9.25 -14.17)"/><path class="cls-1" d="M108.22,61.52A2.41,2.41,0,0,0,105,62.65l-3.15,6.56-3.43-6.62a2.42,2.42,0,0,0-2.17-1.3,2.39,2.39,0,0,0-2.13,1.36L91,69.21l-3.43-6.62a2.4,2.4,0,1,0-4.27,2.21l5.64,10.9A2.4,2.4,0,0,0,91.05,77h0a2.39,2.39,0,0,0,2.13-1.36l3.15-6.56L99.8,75.7a2.4,2.4,0,0,0,2.13,1.3h0a2.39,2.39,0,0,0,2.13-1.36l5.23-10.9A2.4,2.4,0,0,0,108.22,61.52Z" transform="translate(-9.25 -14.17)"/><path class="cls-1" d="M22.93,105.68a2.42,2.42,0,0,0-.7,1.7,2.46,2.46,0,0,0,.7,1.7,2.42,2.42,0,0,0,1.7.7,2.46,2.46,0,0,0,1.7-.7,2.42,2.42,0,0,0,.7-1.7,2.46,2.46,0,0,0-.7-1.7,2.41,2.41,0,0,0-3.4,0Z" transform="translate(-9.25 -14.17)"/><path class="cls-1" d="M30.47,107.38a2.4,2.4,0,0,0,2.4,2.4H79.65a2.4,2.4,0,1,0,0-4.8H32.87A2.41,2.41,0,0,0,30.47,107.38Z" transform="translate(-9.25 -14.17)"/><path class="cls-1" d="M70.75,98.25a2.4,2.4,0,1,0,0-4.8H56.58a2.4,2.4,0,1,0,0,4.8Z" transform="translate(-9.25 -14.17)"/><path class="cls-1" d="M45.79,93.45H24.63a2.4,2.4,0,1,0,0,4.8H45.79a2.4,2.4,0,0,0,0-4.8Z" transform="translate(-9.25 -14.17)"/></svg>