<?xml version="1.0" encoding="utf-8"?>
<!-- Generator: Adobe Illustrator 23.0.0, SVG Export Plug-In . SVG Version: 6.00 Build 0)  -->
<svg version="1.1" id="Layer_1" xmlns="http://www.w3.org/2000/svg" xmlns:xlink="http://www.w3.org/1999/xlink" x="0px" y="0px"
	 viewBox="0 0 141.73 141.73" style="enable-background:new 0 0 141.73 141.73;" xml:space="preserve">
<style type="text/css">
	.st0{fill:#FDD4BF;}
	.st1{clip-path:url(#SVGID_2_);}
	.st2{fill:#010101;}
	.st3{clip-path:url(#SVGID_4_);}
	.st4{fill:#FFFFFF;}
	.st5{clip-path:url(#SVGID_6_);}
	.st6{fill:#010101;stroke:#000000;stroke-width:2;stroke-miterlimit:10;}
	.st7{stroke:#000000;stroke-width:0.75;stroke-miterlimit:10;}
	.st8{clip-path:url(#SVGID_8_);stroke:#000000;stroke-width:0.75;stroke-miterlimit:10;}
	.st9{clip-path:url(#SVGID_8_);stroke:#000000;stroke-miterlimit:10;}
	.st10{clip-path:url(#SVGID_10_);}
	.st11{fill:#73B9E6;}
	.st12{clip-path:url(#SVGID_12_);}
	.st13{fill:#201113;}
	.st14{fill:none;}
	.st15{clip-path:url(#SVGID_14_);fill-rule:evenodd;clip-rule:evenodd;}
	.st16{fill-rule:evenodd;clip-rule:evenodd;}
	.st17{clip-path:url(#SVGID_16_);stroke:#000000;stroke-miterlimit:10;}
	.st18{stroke:#000000;stroke-miterlimit:10;}
	.st19{clip-path:url(#SVGID_18_);}
	.st20{fill:#FEE55B;stroke:#000000;stroke-miterlimit:10;}
	.st21{clip-path:url(#SVGID_20_);fill:#231F20;stroke:#000000;stroke-miterlimit:10;}
	.st22{fill:#231F20;stroke:#000000;stroke-miterlimit:10;}
	.st23{fill:#231F20;}
	.st24{fill:#E9E9E9;}
	.st25{clip-path:url(#SVGID_22_);}
	.st26{fill:#E6E7E8;}
	.st27{fill:#949A9B;}
	.st28{clip-path:url(#SVGID_24_);}
	.st29{clip-path:url(#SVGID_26_);}
	.st30{clip-path:url(#SVGID_28_);stroke:#000000;stroke-miterlimit:10;}
	.st31{fill-rule:evenodd;clip-rule:evenodd;fill:#A44424;}
	.st32{fill-rule:evenodd;clip-rule:evenodd;fill:#38A749;}
	.st33{fill-rule:evenodd;clip-rule:evenodd;fill:#CA3229;}
	.st34{fill-rule:evenodd;clip-rule:evenodd;fill:#EDBE2E;}
	.st35{fill-rule:evenodd;clip-rule:evenodd;fill:#1C76BC;}
	.st36{fill:#204583;}
</style>
<g>
	<rect x="39.78" y="94.64" width="3.66" height="3.66"/>
	<rect x="25.15" y="94.64" width="3.66" height="3.66"/>
	<rect x="32.46" y="94.64" width="3.66" height="3.66"/>
	<path d="M118.42,25.15h-5.49v-5.49c0-3.03-2.46-5.49-5.49-5.49H34.29c-3.03,0-5.49,2.46-5.49,5.49v5.49h-5.49
		c-5.04,0-9.14,4.1-9.14,9.14v62.18c0,5.04,4.1,9.14,9.14,9.14h32.85c-0.31,2.92-1.82,5.56-4.2,7.32h-4.88
		c-5.04,0-9.14,4.1-9.14,9.14c0,3.03,2.46,5.49,5.49,5.49H98.3c3.03,0,5.49-2.46,5.49-5.49c0-5.04-4.1-9.14-9.14-9.14h-4.88
		c-2.38-1.75-3.89-4.4-4.2-7.32h32.85c5.04,0,9.14-4.1,9.14-9.14V34.29C127.56,29.25,123.46,25.15,118.42,25.15L118.42,25.15z
		 M83.67,61.72h18.29v25.6H83.67V61.72z M85.14,58.06l6.42-10.28c0.54-0.87,1.95-0.87,2.5,0l6.43,10.28H85.14z M97.16,45.84
		c-0.94-1.51-2.57-2.41-4.35-2.41c-1.78,0-3.41,0.9-4.35,2.41l-8.45,13.52v27.96H61.07l-1.56-2.81c0.28-0.59,0.53-1.19,0.75-1.78
		l5.12-1.3V67.61l-5.12-1.3c-0.22-0.58-0.46-1.17-0.73-1.75l2.7-4.55l-9.77-9.77l-4.55,2.71c-0.58-0.27-1.17-0.51-1.75-0.73
		l-1.3-5.12H32.46v-7.32h76.81v47.55h-3.66V59.37L97.16,45.84z M28.8,87.33h-3.66V36.12h3.66V87.33z M32.46,81.79
		c1.53,1.16,3.42,1.88,5.49,1.88c5.04,0,9.14-4.1,9.14-9.14c0-5.04-4.1-9.14-9.14-9.14c-2.07,0-3.95,0.72-5.49,1.88v-4.27
		c1.71-0.81,3.58-1.26,5.49-1.26c7.06,0,12.8,5.74,12.8,12.8s-5.74,12.8-12.8,12.8h-5.49V81.79z M32.46,74.52
		c0-3.03,2.46-5.49,5.49-5.49c3.03,0,5.49,2.46,5.49,5.49c0,3.03-2.46,5.49-5.49,5.49C34.92,80.01,32.46,77.55,32.46,74.52
		L32.46,74.52z M54.41,74.52c0-9.07-7.38-16.46-16.46-16.46c-1.88,0-3.73,0.35-5.49,0.98v-8.29h9.55l1.09,4.31l0.97,0.31
		c1.02,0.33,2.06,0.76,3.08,1.29l0.9,0.46l3.83-2.28l5.75,5.75l-2.28,3.83l0.47,0.9c0.53,1.02,0.96,2.06,1.29,3.08l0.31,0.97
		l4.3,1.1v8.13l-4.31,1.1l-0.31,0.97c-0.33,1.02-0.76,2.06-1.29,3.08l-0.45,0.87l1.51,2.73h-8.61
		C52.01,84.31,54.41,79.69,54.41,74.52L54.41,74.52z M112.93,36.12h3.66v51.21h-3.66V36.12z M34.29,17.83h73.15
		c1.01,0,1.83,0.82,1.83,1.83v16.46H32.46V19.66C32.46,18.65,33.28,17.83,34.29,17.83L34.29,17.83z M100.13,122.07
		c0,1.01-0.82,1.83-1.83,1.83H43.43c-1.01,0-1.83-0.82-1.83-1.83c0-3.03,2.46-5.49,5.49-5.49h47.55
		C97.67,116.59,100.13,119.05,100.13,122.07L100.13,122.07z M84.64,112.93H57.1c1.57-2.11,2.52-4.64,2.73-7.32h22.08
		C82.12,108.29,83.07,110.82,84.64,112.93L84.64,112.93z M123.9,96.47c0,3.03-2.46,5.49-5.49,5.49h-95.1
		c-3.03,0-5.49-2.46-5.49-5.49V34.29c0-3.03,2.46-5.49,5.49-5.49h5.49v3.66h-3.66c-2.02,0-3.66,1.64-3.66,3.66v51.21
		c0,2.02,1.64,3.66,3.66,3.66h91.44c2.02,0,3.66-1.64,3.66-3.66V36.12c0-2.02-1.64-3.66-3.66-3.66h-3.66V28.8h5.49
		c3.03,0,5.49,2.46,5.49,5.49V96.47z M123.9,96.47"/>
	<path d="M47.09,21.49H36.12v10.97h10.97V21.49z M43.43,28.8h-3.66v-3.66h3.66V28.8z M43.43,28.8"/>
	<path d="M61.72,21.49H50.75v10.97h10.97V21.49z M58.06,28.8h-3.66v-3.66h3.66V28.8z M58.06,28.8"/>
	<path d="M76.35,21.49H65.38v10.97h10.97V21.49z M72.69,28.8h-3.66v-3.66h3.66V28.8z M72.69,28.8"/>
	<rect x="90.98" y="80.01" width="3.66" height="3.66"/>
	<rect x="90.98" y="65.38" width="3.66" height="3.66"/>
	<rect x="90.98" y="72.69" width="3.66" height="3.66"/>
</g>
</svg>
