<?xml version="1.0" encoding="utf-8"?>
<!-- Generator: Adobe Illustrator 23.0.0, SVG Export Plug-In . SVG Version: 6.00 Build 0)  -->
<svg version="1.1" id="Layer_1" xmlns="http://www.w3.org/2000/svg" xmlns:xlink="http://www.w3.org/1999/xlink" x="0px" y="0px"
	 viewBox="0 0 355.72 141.73" style="enable-background:new 0 0 355.72 141.73;" xml:space="preserve">
<style type="text/css">
	.st0{fill:#FDD4BF;}
	.st1{clip-path:url(#SVGID_2_);}
	.st2{fill:#010101;}
	.st3{clip-path:url(#SVGID_4_);}
	.st4{stroke:#000000;stroke-width:0.75;stroke-miterlimit:10;}
	.st5{clip-path:url(#SVGID_6_);stroke:#000000;stroke-width:0.75;stroke-miterlimit:10;}
	.st6{clip-path:url(#SVGID_6_);stroke:#000000;stroke-miterlimit:10;}
	.st7{clip-path:url(#SVGID_8_);}
	.st8{fill:#73B9E6;}
	.st9{clip-path:url(#SVGID_10_);}
	.st10{fill:#201113;}
	.st11{fill:#FFFFFF;}
	.st12{fill:none;}
	.st13{clip-path:url(#SVGID_12_);fill-rule:evenodd;clip-rule:evenodd;}
	.st14{fill-rule:evenodd;clip-rule:evenodd;}
	.st15{clip-path:url(#SVGID_14_);stroke:#000000;stroke-miterlimit:10;}
	.st16{stroke:#000000;stroke-miterlimit:10;}
	.st17{clip-path:url(#SVGID_16_);}
	.st18{fill:#231F20;}
	.st19{fill:#E9E9E9;}
	.st20{clip-path:url(#SVGID_18_);}
	.st21{fill:#E6E7E8;}
	.st22{fill:#949A9B;}
	.st23{clip-path:url(#SVGID_20_);}
	.st24{clip-path:url(#SVGID_22_);}
	.st25{clip-path:url(#SVGID_24_);stroke:#000000;stroke-miterlimit:10;}
	.st26{fill-rule:evenodd;clip-rule:evenodd;fill:#FFFFFF;}
	.st27{fill:#FEE55B;}
	.st28{clip-path:url(#SVGID_28_);fill:#231F20;}
</style>
<g>
	<path class="st11" d="M34.11,132.37L12,24.31L130.08,9.36l-2.96,120.8L34.11,132.37z M17.73,28.41L38,127.49l84.44-2.01
		l2.72-110.67L17.73,28.41z"/>
	<g>
		<path class="st11" d="M136.31,66.67c0.44,0.04,0.92,0.07,1.44,0.08h0.45c2.3,0.27,4.17,0.66,5.62,1.17
			c0.88,0.42,1.68,0.95,2.41,1.6c1.15,1.24,1.71,2.29,1.69,3.15c0.04,0,0.11,0.29,0.22,0.88c-0.01,0.67-0.35,1.98-1.03,3.93
			c-0.76,1.36-1.84,2.25-3.25,2.67c-1.22,0.33-2.88,0.63-4.99,0.88l-0.25,0.2l0.06,0.33c-0.01,0.26-0.04,0.49-0.08,0.69
			c0.04,1.46,0.06,2.3,0.06,2.53c-0.03,0.17-0.04,0.27-0.04,0.29c0.07,1.12,0.1,1.95,0.09,2.49v0.3l-0.36,0.72
			c-0.06,0-0.09-0.01-0.09-0.04c-1.07,0.01-1.61,0.05-1.62,0.12c-0.03-0.01-0.08-0.03-0.13-0.06c-0.7,0.06-1.4,0.13-2.1,0.21
			c-0.26-0.11-0.39-0.25-0.39-0.41l0.07-0.43l-0.06-0.24l0.06-0.43c0-0.34-0.04-0.75-0.12-1.23c0-2.17-0.03-3.54-0.09-4.12
			c0.05-0.29,0.07-0.54,0.07-0.75c-0.05-6.22-0.13-9.34-0.22-9.35c0-0.25,0.01-0.47,0.04-0.67c-0.02-0.23-0.03-0.52-0.03-0.87
			c0.01-0.1,0.03-0.21,0.06-0.34c-0.08-1-0.12-1.76-0.11-2.29l-0.04-0.09c0.15-0.49,0.29-0.73,0.41-0.73
			C134.85,66.74,135.6,66.69,136.31,66.67z M138.11,69.23l-0.02,0.69l0.22,7.01l-0.03,1.71l0.04-0.02c2-0.5,3.16-0.93,3.48-1.3
			c1.31-0.94,1.98-2.14,2.01-3.61l0.01-0.34c0.02-1.14-0.87-2.36-2.67-3.66c0-0.16-0.82-0.33-2.47-0.51l-0.33-0.01L138.11,69.23z"/>
		<path class="st11" d="M152.28,66.28c0.21,0.22,0.29,0.5,0.24,0.84l-0.07,0.58c-0.04,3.74,0.01,6.41,0.15,8.02
			c-0.02,0.09,0,0.83,0.04,2.23c-0.06,1.04-0.05,2.08,0.02,3.13l-0.09,0.25c0.05,0.01,0.05,0.46,0,1.36
			c0.01,0.3,0.03,0.46,0.06,0.46l-0.04,0.07c-0.03,0.18-0.05,0.86-0.06,2.04l-0.09,0.63c0.01,0.52-0.01,1.45-0.07,2.8l-0.02,0.04
			c-0.27,0.51-0.47,0.75-0.6,0.73c-1.21,0.01-2.2-0.04-2.98-0.15c-0.08-0.04-0.11-0.13-0.09-0.28c0-0.02,0.03-0.11,0.09-0.27
			c-0.04-0.4-0.05-1.31-0.03-2.73c-0.02-0.46,0.01-1.31,0.09-2.56l0.12-12.84c0.02-0.13-0.06-1.26-0.25-3.39
			c-0.03-0.22-0.03-0.41,0-0.55l0.04-0.34c0.04-0.27,0.21-0.38,0.5-0.34c0.08,0.01,0.42,0.03,1.03,0.06
			c0.19,0.08,0.3,0.13,0.34,0.13c0.12-0.04,0.25-0.05,0.38-0.04l0.4,0.06C151.55,66.26,151.85,66.28,152.28,66.28z"/>
		<path class="st11" d="M168.25,73.27c0.61,0.05,0.88,0.39,0.82,1.03c-0.03,0.35,0.12,2.36,0.43,6.04c0.17,0.71,0.66,2.06,1.48,4.06
			c0.4,0.67,0.73,1.16,0.99,1.48c0.72,1.06,1.06,1.8,1.02,2.23v0.04c-0.01,0.09-0.13,0.19-0.37,0.3l-0.24-0.06l-0.33-0.03
			c-0.17,0.06-0.25,0.1-0.25,0.12l-0.22-0.21c-0.1,0.05-0.34,0.09-0.73,0.12l-0.76-0.06c-0.31-0.03-0.63-0.42-0.97-1.15l-1.24-2.29
			h-0.06c-0.58,0.73-1.22,1.46-1.93,2.2c-0.86,0.71-1.68,1.1-2.47,1.18c-0.96,0.28-2.06,0.36-3.31,0.25
			c-2.54-0.47-4.11-0.96-4.72-1.48c-0.92-0.46-1.48-0.99-1.69-1.6c-0.35-0.84-0.5-1.51-0.46-2.02l0.04-0.43
			c0.1-1.2,0.47-2.26,1.11-3.19c0.02-0.23,0.66-1.09,1.92-2.59c1.33-1.33,2.3-2.07,2.91-2.22c0.78-0.55,1.48-0.79,2.1-0.73
			c0.16,0.04,0.25,0.07,0.29,0.08c0.14-0.09,1.05-0.06,2.74,0.09l1.6,0.52c0.33,0.19,0.58,0.29,0.75,0.31h0.1
			c0.02-0.25,0-0.77-0.06-1.56C166.73,73.44,167.24,73.29,168.25,73.27z M156.97,81.48l-0.06,0.76c0.13,1.37,0.43,2.28,0.91,2.74
			c0.8,0.79,1.57,1.21,2.31,1.27l0.82,0.07c0.34,0.03,0.79-0.17,1.36-0.61c1.24-0.46,2.21-1.42,2.91-2.89
			c0.23-0.34,0.38-0.86,0.43-1.56l0.03-0.39c-0.19-1.15-0.58-1.99-1.18-2.52c-0.34-0.29-0.98-0.55-1.92-0.79
			c-1.56-0.14-2.81,0.12-3.75,0.78C157.81,79.67,157.19,80.72,156.97,81.48z M171.73,88.3v0.04l0.18,0.01l0.02-0.04
			c0-0.07-0.03-0.11-0.09-0.11C171.76,88.21,171.73,88.24,171.73,88.3z"/>
		<path class="st11" d="M179.43,65.36l0.82,0.15c0.21,0.04,0.27,0.32,0.19,0.82c-0.03,2.74-0.08,4.96-0.15,6.67l0.09,0.06
			c0.33,0.06,1.63,0.08,3.91,0.08c0.48,0.16,0.71,0.28,0.69,0.37c0.1,0.53,0.04,1.4-0.16,2.62c0.08,0.13,0.1,0.29,0.06,0.5v0.04
			l-0.33,0.48c-0.02,0-0.11-0.03-0.27-0.09c-2.8-0.23-4.22-0.23-4.25,0c-0.25,2.9-0.22,5.33,0.09,7.3c0.48,2.31,0.97,3.51,1.47,3.6
			c0.38,0.07,0.93-0.5,1.65-1.71c0.12-0.66,0.3-0.97,0.54-0.93c0.54,0,0.87,0.01,0.99,0.04c1.59,0.29,2.36,0.56,2.32,0.81
			c-0.3,0.86-0.51,1.28-0.64,1.26c-0.53,0.87-1.11,1.49-1.74,1.87c-0.54,0.34-0.98,0.52-1.32,0.54c-0.02,0.12-0.68,0.1-1.98-0.06
			c-0.03-0.01-0.07-0.04-0.12-0.08c-0.27-0.02-0.49-0.04-0.66-0.08l-0.36-0.06c-2.01-0.37-3.2-2.09-3.57-5.16
			c-0.29-1.64-0.37-3.69-0.24-6.14c0.13-0.99,0.14-1.49,0.03-1.51c-0.23-0.04-1.23-0.03-3,0.03c-0.37-0.06-0.83-0.04-1.38,0.04
			c-0.18-0.03-0.24-0.49-0.18-1.39c-0.05-0.19-0.08-0.77-0.09-1.74c0.1-0.54,0.28-0.86,0.55-0.97l0.16,0.09l3.72,0.13
			c0.38,0.03,0.57,0,0.58-0.09c0.02-0.11,0.08-2.53,0.19-7.25c-0.07-0.01-0.1-0.09-0.09-0.25c0.04-0.23,0.42-0.27,1.15-0.13
			C178.77,65.28,179.2,65.32,179.43,65.36z"/>
		<path class="st11" d="M202.46,73.27c0.61,0.05,0.88,0.39,0.82,1.03c-0.03,0.35,0.12,2.36,0.43,6.04c0.17,0.71,0.66,2.06,1.48,4.06
			c0.4,0.67,0.73,1.16,0.99,1.48c0.72,1.06,1.06,1.8,1.02,2.23v0.04c-0.01,0.09-0.13,0.19-0.37,0.3l-0.24-0.06l-0.33-0.03
			c-0.17,0.06-0.25,0.1-0.25,0.12l-0.22-0.21c-0.1,0.05-0.34,0.09-0.73,0.12l-0.76-0.06c-0.31-0.03-0.63-0.42-0.97-1.15l-1.24-2.29
			h-0.06c-0.58,0.73-1.22,1.46-1.93,2.2c-0.86,0.71-1.68,1.1-2.47,1.18c-0.96,0.28-2.06,0.36-3.31,0.25
			c-2.54-0.47-4.11-0.96-4.72-1.48c-0.92-0.46-1.48-0.99-1.69-1.6c-0.35-0.84-0.5-1.51-0.46-2.02l0.04-0.43
			c0.1-1.2,0.47-2.26,1.11-3.19c0.02-0.23,0.66-1.09,1.92-2.59c1.33-1.33,2.3-2.07,2.91-2.22c0.78-0.55,1.48-0.79,2.1-0.73
			c0.16,0.04,0.25,0.07,0.29,0.08c0.14-0.09,1.05-0.06,2.74,0.09l1.6,0.52c0.33,0.19,0.58,0.29,0.75,0.31h0.1
			c0.02-0.25,0-0.77-0.06-1.56C200.94,73.44,201.45,73.29,202.46,73.27z M191.18,81.48l-0.06,0.76c0.13,1.37,0.43,2.28,0.91,2.74
			c0.8,0.79,1.57,1.21,2.31,1.27l0.82,0.07c0.34,0.03,0.79-0.17,1.36-0.61c1.24-0.46,2.21-1.42,2.91-2.89
			c0.23-0.34,0.38-0.86,0.43-1.56l0.03-0.39c-0.19-1.15-0.58-1.99-1.18-2.52c-0.34-0.29-0.98-0.55-1.92-0.79
			c-1.56-0.14-2.81,0.12-3.75,0.78C192.02,79.67,191.4,80.72,191.18,81.48z M205.94,88.3v0.04l0.18,0.01l0.02-0.04
			c0-0.07-0.03-0.11-0.09-0.11C205.97,88.21,205.94,88.24,205.94,88.3z"/>
		<path class="st11" d="M216.11,66.13c3.94,0.18,5.9,0.55,5.9,1.11c0.71,0.35,1.06,0.87,1.06,1.57c0.05,0.01,0.14,0.39,0.25,1.15
			c0,0.34-0.49,0.56-1.47,0.66c0,0.07-0.12,0.1-0.36,0.1h-0.15c-0.1-0.03-0.35-0.65-0.75-1.87c-0.63-0.71-0.98-1.06-1.06-1.06
			c-0.47-0.2-1.02-0.3-1.66-0.3c-0.91,0.33-1.58,0.83-2.02,1.51c-0.51,0.86-0.76,2.27-0.76,4.24c0.26,2.93,0.51,4.39,0.76,4.39
			c1.07-0.03,1.76-0.08,2.07-0.15l0.3,0.04c0.8-0.1,1.71-0.17,2.73-0.19c0.16,0,0.33,0.7,0.51,2.11c0,0.24-0.23,0.36-0.7,0.36
			c-0.61,0.03-0.93,0.06-0.96,0.1c-0.18-0.04-0.33-0.06-0.46-0.06c-1,0.07-1.52,0.1-1.56,0.1c-0.29,0-0.86-0.01-1.72-0.04
			c-0.06,0.08-0.09,0.14-0.09,0.19c0.44,2.81,0.76,5.23,0.96,7.27c0.02,0,0.08,0.25,0.2,0.76v0.3c0,0.34-0.59,0.51-1.77,0.51
			c-0.12,0-0.84,0.1-2.17,0.3c-0.33,0-0.49-0.18-0.49-0.55v-0.45c0-0.04-0.02-0.06-0.06-0.06c0.1-0.24,0.15-0.57,0.15-1v-0.61
			c0-1-0.08-1.97-0.24-2.92c0-0.04,0.02-0.09,0.04-0.15c-0.17-2.29-0.35-3.43-0.55-3.43h-0.85l-3.13,0.2c-0.29,0-0.46-0.33-0.51-1
			l-0.15-0.7v-0.06c0.12-0.2,0.27-0.3,0.45-0.3h0.21l3.03-0.25c0.12,0.04,0.27,0.06,0.45,0.06c0.24-0.05,0.36-0.12,0.36-0.21
			c-0.27-2.2-0.4-3.71-0.4-4.54c0-0.04-0.01-0.09-0.04-0.15c0.03-0.06,0.04-0.13,0.04-0.21c0-0.21-0.01-0.42-0.04-0.64
			c0.18-2.04,0.46-3.35,0.85-3.94c0.4-0.95,0.94-1.55,1.62-1.81C214.8,66.25,215.54,66.13,216.11,66.13z"/>
		<path class="st11" d="M229.87,73.18h0.04c1.39,0,2.94,0.39,4.66,1.18c0.66,0.33,1.37,0.99,2.13,1.99c0,0.09,0.25,0.45,0.75,1.08
			c0.08,0.29,0.28,0.75,0.6,1.39c0.49,1.35,0.73,2.36,0.73,3.03v0.15c0,0.61-0.46,1.7-1.38,3.27c-0.42,0.54-0.82,0.9-1.2,1.09
			c-1.38,1.42-3.38,2.13-5.99,2.13h-0.34c-1.57,0-2.63-0.3-3.18-0.9c-0.7-0.59-1.52-1.53-2.47-2.82c-0.66-0.98-0.99-2.04-0.99-3.18
			c-0.06,0-0.09-0.2-0.1-0.58c0-0.09,0.04-0.19,0.1-0.3c0.14-1.66,0.5-3.06,1.08-4.21c0.84-1.37,1.8-2.23,2.88-2.58
			C228.09,73.43,228.98,73.18,229.87,73.18z M227.14,80.17c0.03,0.49,0.04,0.82,0.04,0.99h0.06c-0.04,0.07-0.06,0.12-0.06,0.15
			c0,0.88,0.56,1.97,1.69,3.28c0.5,0.39,1.12,0.58,1.87,0.58c2.2,0,3.65-0.84,4.36-2.52c0.1-0.28,0.17-0.63,0.21-1.05
			c0-1.11-0.5-2.3-1.5-3.57c-0.87-1.05-1.76-1.72-2.67-2.02c-0.12-0.07-0.25-0.11-0.4-0.11h-0.09c-1.16,0-2.12,0.81-2.88,2.43
			C227.41,78.89,227.19,79.5,227.14,80.17z"/>
		<path class="st11" d="M242.04,73.26l0.13,0.02c0.42,0.02,0.61,0.4,0.57,1.15c0,0.57,0.02,0.93,0.04,1.08h0.09
			c0.83-0.37,1.3-0.55,1.42-0.55c0.51-0.15,1.08-0.21,1.72-0.18c0.71,0.04,2.11,0.52,4.2,1.44c1.06,0.89,1.57,1.78,1.53,2.68
			c0.13,0.01,0.26,0.63,0.39,1.87l-0.06,0.22v0.18c-0.01,0.16-0.01,0.41,0,0.76l-0.09,0.04c-0.26-0.02-0.53-0.02-0.81,0
			c-1.38-0.07-2.06-0.21-2.05-0.42l-0.33-2.28c-0.11-0.92-0.4-1.7-0.87-2.34c-0.3-0.2-0.58-0.3-0.84-0.31l-0.31-0.02
			c-0.65-0.03-1.47,0.46-2.46,1.48c-0.8,1.42-1.22,2.49-1.26,3.22c-0.03,0.6-0.08,2.25-0.17,4.95c0.1,0.36,0.18,0.8,0.24,1.32
			c-0.07,0.22-0.1,0.37-0.1,0.45l0.03,0.32c-0.05,0.15-0.16,0.22-0.33,0.21l-1.26-0.07c-0.46-0.02-1.03,0.01-1.71,0.09
			c-0.2-0.01-0.3-0.66-0.3-1.95c-0.17-1.11-0.26-3.69-0.27-7.75l-0.13-3.57l0.03-0.54c-0.04-0.42-0.07-0.63-0.1-0.64
			c0.03-0.05,0.05-0.09,0.06-0.12c-0.05-0.28-0.07-0.43-0.07-0.46c0.03-0.05,0.05-0.11,0.06-0.17l0.54,0.01
			C240.79,73.28,241.62,73.24,242.04,73.26z"/>
		<path class="st11" d="M256.2,73.14c0.37,0.02,0.52,0.7,0.45,2.04c-0.04,0.06-0.06,0.13-0.07,0.21l0.1,0.06l0.33,0.02
			c0.63-0.24,1.27-0.35,1.92-0.33c0.15,0,0.35,0.03,0.6,0.08l0.33-0.03c2.78,0.31,4.33,0.77,4.66,1.38
			c0.44,0.45,0.82,1.01,1.15,1.69c0.07,0.01,0.47-0.37,1.2-1.12c1.14-0.58,1.94-0.95,2.41-1.12c0.49-0.09,0.96-0.14,1.41-0.15
			c0.72,0.11,1.36,0.29,1.93,0.54l0.12-0.04c1.18,0.27,1.99,0.65,2.44,1.15c0.41,0.73,0.77,1.47,1.08,2.23l0.66,2.76
			c-0.04,0.07-0.06,0.13-0.06,0.17l0.66,4.11c0.11,0.01,0.18,0.43,0.21,1.26l-0.04,0.66c-0.01,0.23-1.21,0.31-3.6,0.24
			c-0.12,0.07-0.23,0.1-0.33,0.09c-0.13,0-0.28-1-0.45-3.01c0.05-0.84-0.25-2.81-0.88-5.92c-0.41-0.68-0.86-1.03-1.35-1.05
			L270.64,79c-0.52-0.02-1.19,0.71-2.02,2.19c-0.6,1.7-0.95,3.64-1.06,5.81l0.13,0.39c-0.04,0.8-0.28,1.18-0.7,1.15
			c-1.12,0.02-2.17,0.05-3.16,0.1c-0.26-0.01-0.44-1.07-0.54-3.18c-0.9-5.63-1.91-8.48-3.04-8.54h-0.04
			c-0.88,0.26-1.46,0.68-1.75,1.27c-0.3,0.36-0.63,1.36-0.97,3c-0.01,0.11,0,0.23,0.03,0.37c-0.01,0.12-0.04,0.46-0.1,1.03
			c-0.14,2.67-0.11,4.54,0.09,5.6l-0.02,0.11c-0.22,0.25-0.49,0.36-0.82,0.34c-0.03,0-0.26-0.03-0.7-0.09c-0.02,0-0.26,0-0.72,0.01
			l-0.11-0.06c-0.19,0.05-0.46,0.09-0.81,0.12l-0.11-0.06c-0.13,0.03-0.2,0.04-0.22,0.04c-0.12-0.01-0.26-0.08-0.43-0.19l-0.31,0.04
			c-0.52-8.11-0.76-12.46-0.73-13.04l-0.33-2.08c0.01-0.22,1.1-0.29,3.28-0.21c0.06,0.04,0.11,0.06,0.15,0.06
			C255.8,73.15,256,73.13,256.2,73.14z"/>
		<path class="st11" d="M292.85,73.27c0.61,0.05,0.88,0.39,0.82,1.03c-0.03,0.35,0.12,2.36,0.43,6.04c0.17,0.71,0.66,2.06,1.48,4.06
			c0.4,0.67,0.73,1.16,0.99,1.48c0.72,1.06,1.06,1.8,1.02,2.23v0.04c-0.01,0.09-0.13,0.19-0.37,0.3l-0.24-0.06l-0.33-0.03
			c-0.17,0.06-0.25,0.1-0.25,0.12l-0.22-0.21c-0.1,0.05-0.34,0.09-0.73,0.12l-0.76-0.06c-0.31-0.03-0.63-0.42-0.97-1.15l-1.24-2.29
			h-0.06c-0.58,0.73-1.22,1.46-1.93,2.2c-0.86,0.71-1.68,1.1-2.47,1.18c-0.96,0.28-2.06,0.36-3.31,0.25
			c-2.54-0.47-4.11-0.96-4.72-1.48c-0.92-0.46-1.48-0.99-1.69-1.6c-0.35-0.84-0.5-1.51-0.46-2.02l0.04-0.43
			c0.1-1.2,0.47-2.26,1.11-3.19c0.02-0.23,0.66-1.09,1.92-2.59c1.33-1.33,2.3-2.07,2.91-2.22c0.78-0.55,1.48-0.79,2.1-0.73
			c0.16,0.04,0.25,0.07,0.29,0.08c0.14-0.09,1.05-0.06,2.74,0.09l1.6,0.52c0.33,0.19,0.58,0.29,0.75,0.31h0.1
			c0.02-0.25,0-0.77-0.06-1.56C291.32,73.44,291.84,73.29,292.85,73.27z M281.56,81.48l-0.06,0.76c0.13,1.37,0.43,2.28,0.91,2.74
			c0.8,0.79,1.57,1.21,2.31,1.27l0.82,0.07c0.34,0.03,0.79-0.17,1.36-0.61c1.24-0.46,2.21-1.42,2.91-2.89
			c0.23-0.34,0.38-0.86,0.43-1.56l0.03-0.39c-0.19-1.15-0.58-1.99-1.18-2.52c-0.34-0.29-0.98-0.55-1.92-0.79
			c-1.56-0.14-2.81,0.12-3.75,0.78C282.41,79.67,281.78,80.72,281.56,81.48z M296.32,88.3v0.04l0.18,0.01l0.02-0.04
			c0-0.07-0.03-0.11-0.09-0.11C296.36,88.21,296.32,88.24,296.32,88.3z"/>
		<path class="st11" d="M144.07,103.6c0.16,0,0.38,0.1,0.64,0.29c0,0.07,0.32,0.71,0.97,1.93c0.41,0.92,0.78,1.64,1.12,2.17
			c0.91,1.5,2.33,4.21,4.26,8.12c1.08,2.49,1.74,3.91,1.98,4.27c0.27,0.23,0.68,1.15,1.24,2.77l0.81,1.45l-0.17,0.27l-0.15-0.03
			l-0.57,0.12c-0.03,0-0.04-0.02-0.04-0.04c-1.07,0-2.34,0.13-3.82,0.4h-0.05c-0.06,0-0.14-0.23-0.24-0.69
			c-0.16-0.38-0.57-1.66-1.24-3.85c-0.6-1.51-0.96-2.26-1.08-2.26c-0.47-0.05-0.75-0.08-0.85-0.08c-0.7,0-2.13,0.04-4.3,0.12
			c-0.41,0-1.4-0.01-2.98-0.04c-0.54,1.18-1.09,2.56-1.65,4.15c-0.1,0-0.3,0.59-0.6,1.77c-0.06,0.01-0.15,0.24-0.28,0.69l-0.2,0.07
			c-0.73-0.05-1.28-0.07-1.65-0.07c-1.08,0.02-1.7,0.03-1.86,0.03c-0.36-0.02-0.63-0.03-0.81-0.03c-0.05,0.02-0.09,0.03-0.12,0.03
			c-0.32-0.14-0.48-0.23-0.48-0.28v-0.15c0.61-1.09,1.29-2.58,2.05-4.46c0.16-0.28,0.55-1.14,1.17-2.58
			c0.13-0.15,0.38-0.65,0.76-1.5l3.82-7.19l1.93-3.22c0.55-0.88,0.9-1.47,1.05-1.77c0.27-0.25,0.52-0.38,0.76-0.41H144.07z
			 M141.49,114.58l0.09,0.04h0.6c2.12-0.06,3.3-0.09,3.54-0.09l0.09-0.12c-0.39-0.96-1.07-2.22-2.05-3.78
			c-0.11,0-0.31,0.29-0.61,0.88C142.65,112.32,142.1,113.34,141.49,114.58z"/>
		<path class="st11" d="M165.77,110.44c1.58,0.29,2.93,0.89,4.05,1.81c1.3,1.74,1.97,3.05,2.02,3.94c0.37,1.85,0.6,3.98,0.69,6.4
			c0.13,0.85,0.34,1.85,0.63,3.01v0.04c-0.02,0.15-0.26,0.23-0.72,0.24c-0.11,0.04-0.16,0.07-0.16,0.09l-0.11-0.06
			c-1.53-0.02-2.48-0.02-2.86,0.01c-0.48-0.05-0.69-0.73-0.64-2.04c-0.17-1.57-0.26-3.18-0.27-4.84c-0.21-2.32-0.67-3.91-1.39-4.76
			c-0.93-0.64-1.55-0.98-1.86-1.02l-0.79-0.08c-0.6-0.06-1.45,0.32-2.56,1.14c-1.1,1.31-1.72,2.61-1.86,3.9
			c-0.03,0-0.12,0.34-0.27,1.02c-0.08,0.82-0.03,2.62,0.17,5.39l-0.01,0.1c-0.02,0.24-0.49,0.33-1.41,0.27l-2.2-0.22
			c-0.03,0-0.05,0.01-0.06,0.04c-0.06-0.04-0.11-0.06-0.15-0.06c-0.04-0.01-0.21-0.01-0.52,0c-0.1-0.01-0.13-0.69-0.11-2.04
			c-0.08-1.52-0.16-2.7-0.25-3.55l0.06-0.09c-0.12-1.5-0.17-2.34-0.15-2.52c0.04-0.05,0.06-0.12,0.07-0.2
			c-0.1-1.4-0.18-3.41-0.25-6.04c0.1-0.44,0.32-0.64,0.64-0.6c1.23,0.09,2.2,0.17,2.91,0.24l0.42,0.04c0.17,0.02,0.27,0.65,0.31,1.9
			l0.15,0.12c1.38-1.04,2.49-1.51,3.34-1.42C163.75,110.41,164.81,110.34,165.77,110.44z"/>
		<path class="st11" d="M175.76,108.69c0.91,0.22,1.34,0.52,1.3,0.9c0.29,9.49,0.47,14.46,0.54,14.89
			c-0.17,0.72-0.44,1.06-0.82,1.02c-0.07-0.01-0.38,0.07-0.91,0.24l-0.39-0.11l-0.66-0.06c-0.04-0.01-0.25,0-0.61,0.04l-0.04-0.01
			c-0.71-0.32-1.03-0.76-0.97-1.32c0.16-1.52,0.07-6.25-0.28-14.19c0.02-0.22,0-0.5-0.08-0.84v-0.06c0.04-0.33,0.32-0.52,0.84-0.57
			c0.07,0.04,0.13,0.07,0.17,0.08c0.24-0.05,0.39-0.08,0.45-0.08c0.09,0.01,0.23,0.04,0.43,0.1L175.76,108.69z"/>
		<path class="st11" d="M184.51,109.02c0.96,0,2.27,0.3,3.93,0.91c0.97,0.67,1.45,1.23,1.45,1.68l0.78,2.47
			c0,0.39-0.13,0.58-0.37,0.58c-0.63,0.18-1.36,0.27-2.19,0.27c-0.49-1.58-1.05-2.53-1.68-2.86c-0.69-0.46-1.3-0.69-1.83-0.69
			c-1.35,0-2.37,0.8-3.06,2.41c-0.03,0.12-0.04,0.24-0.04,0.37v0.27c0.27,1.4,1.2,2.1,2.79,2.1c2.79,0,4.83,0.44,6.14,1.32
			c1.1,0.89,1.65,2.01,1.65,3.37v0.38c0,0.92-0.47,1.71-1.41,2.37c-1.18,0.96-1.99,1.44-2.43,1.45c-0.86,0.31-1.81,0.52-2.86,0.64
			h-0.91c-1.15,0-2.05-0.2-2.7-0.6c-2.04-0.96-3.22-1.9-3.55-2.82c-0.37-0.79-0.66-1.76-0.87-2.92c0.07-0.4,0.17-0.6,0.31-0.6
			c0.35,0.06,1.11,0.11,2.28,0.15c0.06-0.04,0.11-0.06,0.15-0.06c0.42,0.08,0.63,0.26,0.63,0.55c0.2,1.2,0.5,2.05,0.91,2.55
			c0.93,1.04,1.95,1.56,3.06,1.56c1.37-0.33,2.28-0.78,2.74-1.36c0.48-0.57,0.72-1.06,0.72-1.47v-0.63c0-1.45-1.85-2.3-5.56-2.56
			c-1.33,0-2.48-0.56-3.46-1.68c-0.55-0.74-0.82-1.52-0.82-2.34c0.11-0.76,0.37-1.41,0.78-1.95c0.71-1.05,1.47-1.7,2.28-1.96
			C182.71,109.32,183.76,109.02,184.51,109.02z"/>
		<path class="st11" d="M194.66,102.79c1.21,0.13,2,0.8,2.38,2.02l0.05,0.67c-0.07,0.72-0.55,1.22-1.44,1.51
			c-0.49,0.21-0.96,0.29-1.41,0.24c-1.3-0.14-2.01-0.79-2.13-1.95c0.12-1.13,0.39-1.76,0.81-1.9
			C193.51,102.93,194.09,102.73,194.66,102.79z M195.3,108.69c0.91,0.22,1.34,0.52,1.3,0.9c0.29,9.49,0.47,14.46,0.54,14.89
			c-0.17,0.72-0.44,1.06-0.82,1.02c-0.07-0.01-0.38,0.07-0.91,0.24l-0.39-0.11l-0.66-0.06c-0.04-0.01-0.25,0-0.61,0.04l-0.04-0.01
			c-0.71-0.32-1.03-0.76-0.97-1.32c0.16-1.52,0.07-6.25-0.28-14.19c0.02-0.22,0-0.5-0.08-0.84v-0.06c0.04-0.33,0.32-0.52,0.84-0.57
			c0.07,0.04,0.13,0.07,0.17,0.08c0.24-0.05,0.39-0.08,0.45-0.08c0.09,0.01,0.23,0.04,0.43,0.1L195.3,108.69z"/>
		<path class="st11" d="M204.13,110.01h0.04c1.39,0,2.94,0.39,4.66,1.18c0.66,0.33,1.37,0.99,2.13,1.99c0,0.09,0.25,0.45,0.75,1.08
			c0.08,0.29,0.28,0.75,0.6,1.39c0.49,1.35,0.73,2.36,0.73,3.03v0.15c0,0.61-0.46,1.7-1.38,3.27c-0.42,0.54-0.82,0.9-1.2,1.09
			c-1.38,1.42-3.38,2.13-5.99,2.13h-0.34c-1.57,0-2.63-0.3-3.18-0.9c-0.7-0.59-1.52-1.53-2.47-2.82c-0.66-0.98-0.99-2.04-0.99-3.18
			c-0.06,0-0.09-0.2-0.1-0.58c0-0.09,0.04-0.19,0.1-0.3c0.14-1.66,0.5-3.06,1.08-4.21c0.84-1.37,1.8-2.23,2.88-2.58
			C202.34,110.26,203.24,110.01,204.13,110.01z M201.4,116.99c0.03,0.49,0.04,0.82,0.04,0.99h0.06c-0.04,0.07-0.06,0.12-0.06,0.15
			c0,0.88,0.56,1.97,1.69,3.28c0.5,0.39,1.12,0.58,1.87,0.58c2.2,0,3.65-0.84,4.36-2.52c0.1-0.28,0.17-0.63,0.21-1.05
			c0-1.11-0.5-2.3-1.5-3.57c-0.87-1.05-1.76-1.72-2.67-2.02c-0.12-0.07-0.25-0.11-0.4-0.11h-0.09c-1.16,0-2.12,0.81-2.88,2.43
			C201.66,115.71,201.45,116.32,201.4,116.99z"/>
		<path class="st11" d="M240.79,104.19c0.23,0.02,0.43,0.16,0.6,0.42c-0.01,0.07-0.04,0.13-0.08,0.19
			c-0.12,1.78-0.11,2.67,0.03,2.68l-0.03,0.31c-0.02,0.3,0,0.53,0.04,0.69c-0.03,0.4-0.26,0.64-0.69,0.72l-0.27,0.03
			c-0.08,0-0.15-0.02-0.2-0.06l-6.04-0.06l-0.06,0.11l-0.01,0.15c0,2.8,0.06,5.51,0.18,8.15c0.01,0.32,0.01,0.51,0,0.58l-0.08,0.21
			c0,0.37,0.02,0.59,0.04,0.67l-0.06,0.21c-0.02,3.83,0.01,6.03,0.09,6.62c-0.08,0.21-0.16,0.31-0.22,0.3l-0.21-0.02
			c-1.55,0.14-2.69,0.18-3.43,0.12c-0.52-0.05-0.76-0.28-0.72-0.69c0.04-1.29,0.06-3.92,0.06-7.88l0.13-7.6
			c-0.03-0.57-0.07-0.85-0.13-0.85c-3.52-0.07-6.11-0.02-7.79,0.15h-0.04c-0.3-0.15-0.43-0.47-0.39-0.97l-0.17-3.54l0.03-0.27
			c0.18-0.26,0.57-0.36,1.17-0.31c4.16,0.04,7.89,0.02,11.21-0.06c1.62,0.14,3.52,0.15,5.71,0.02
			C239.48,104.15,239.92,104.14,240.79,104.19z"/>
		<path class="st11" d="M249.92,109.75c1.58,0.07,2.84,0.22,3.78,0.46c1.3,0.47,2.42,1.12,3.37,1.96c0.44,0.34,0.87,0.91,1.29,1.71
			c0.69,1.05,1.03,2.17,1.03,3.37c-0.03,0.41-0.15,0.61-0.36,0.61l-0.82-0.06c-0.23,0.07-0.38,0.1-0.46,0.1h-0.88
			c-2.93,0.28-4.45,0.42-4.55,0.42c0,0.02-0.14,0.07-0.42,0.15c-0.06-0.03-0.11-0.04-0.15-0.04c-2.81,0.18-4.72,0.38-5.74,0.61v0.11
			c0.25,0.68,0.71,1.47,1.39,2.38c1.19,1.38,2.66,2.07,4.41,2.07c1.19-0.13,2.62-0.9,4.29-2.32c0.55-0.79,1-1.27,1.35-1.45h0.11
			c1.48,0.45,2.22,0.91,2.22,1.39v0.21c-0.46,0.51-1.39,1.2-2.79,2.07c-0.35,0.25-0.85,0.5-1.5,0.73c0,0.08-0.38,0.2-1.14,0.36
			c-0.48,0.27-1.36,0.47-2.64,0.62c0,0.04-0.02,0.06-0.06,0.06l-0.1-0.06c-0.45,0.07-0.89,0.1-1.33,0.1h-0.1
			c-0.35,0-0.76-0.01-1.24-0.04c-0.07,0.03-0.13,0.04-0.16,0.04c-1.55-0.24-3.25-1.05-5.11-2.43c-1.28-1.21-1.92-2.66-1.92-4.34
			c0.23-2.1,0.75-3.76,1.56-4.98c1.4-1.47,2.52-2.35,3.36-2.64c0.86-0.6,1.56-0.92,2.11-0.97
			C249.06,109.82,249.48,109.75,249.92,109.75z M245.74,116.42l0.21,0.1c0.71-0.1,1.65-0.2,2.83-0.31c0.04,0,0.09,0.02,0.17,0.06
			c3.93-0.09,5.89-0.26,5.89-0.52v-0.04c0-0.25-0.51-1.16-1.54-2.74c-0.61-0.83-1.51-1.24-2.7-1.24h-0.11
			c-0.93,0.17-1.91,0.72-2.94,1.66c-0.84,0.57-1.44,1.57-1.81,3V116.42z"/>
		<path class="st11" d="M262.35,102.79c1.21,0.13,2,0.8,2.38,2.02l0.05,0.67c-0.07,0.72-0.55,1.22-1.44,1.51
			c-0.49,0.21-0.96,0.29-1.41,0.24c-1.3-0.14-2.01-0.79-2.13-1.95c0.12-1.13,0.39-1.76,0.81-1.9
			C261.21,102.93,261.79,102.73,262.35,102.79z M263,108.69c0.91,0.22,1.34,0.52,1.3,0.9c0.29,9.49,0.47,14.46,0.54,14.89
			c-0.17,0.72-0.44,1.06-0.82,1.02c-0.07-0.01-0.38,0.07-0.91,0.24l-0.39-0.11l-0.66-0.06c-0.04-0.01-0.25,0-0.61,0.04l-0.04-0.01
			c-0.71-0.32-1.03-0.76-0.97-1.32c0.16-1.52,0.07-6.25-0.28-14.19c0.02-0.22,0-0.5-0.08-0.84v-0.06c0.04-0.33,0.32-0.52,0.84-0.57
			c0.07,0.04,0.13,0.07,0.17,0.08c0.24-0.05,0.39-0.08,0.45-0.08c0.09,0.01,0.23,0.04,0.43,0.1L263,108.69z"/>
		<path class="st11" d="M282.94,109.65H283l-0.01,0.17c-0.02,0.19-0.65,0.91-1.9,2.16c-0.56,0.98-1.61,2.15-3.15,3.52
			c-1.07,1.06-1.62,1.75-1.65,2.08c1.14,1.67,2.43,3.3,3.87,4.88c1.81,1.49,2.72,2.26,2.74,2.31c-0.14,0.43-0.28,0.64-0.42,0.63
			l-4.29,0.54c-0.01,0.03-0.08,0.04-0.21,0.03c-0.98-1.04-1.63-1.87-1.96-2.5l-2.35-3.15c-0.06-0.03-0.11-0.05-0.15-0.06
			c-1.6,1.73-2.4,2.65-2.41,2.77c-0.37,0.51-0.78,1.12-1.23,1.83c-0.46,0.39-0.98,0.56-1.56,0.51l-3.09,0.09
			c-0.17-0.04-0.25-0.1-0.24-0.18v-0.04c0.19-0.59,0.73-1.38,1.62-2.38c0.01-0.1,0.36-0.59,1.05-1.48c0.02-0.21,0.77-1.12,2.26-2.74
			c0.89-0.92,1.34-1.5,1.36-1.75l0.02-0.09c-1.51-1.94-2.85-3.73-4.03-5.36c-0.3-0.09-0.84-0.66-1.63-1.71
			c-0.1-0.08-0.18-0.12-0.24-0.12v-0.06c0.02-0.15,0.78-0.24,2.28-0.27c1.5-0.03,2.52,0.38,3.06,1.24c1.54,2.12,2.54,3.42,3,3.91
			c0.05,0,0.71-0.65,1.99-1.95c0.81-0.74,1.65-1.65,2.52-2.73c0.07-0.11,0.17-0.18,0.31-0.22c2.51,0.19,3.8,0.29,3.88,0.3
			C282.67,109.69,282.84,109.64,282.94,109.65z"/>
		<path class="st11" d="M291.17,109.75c1.58,0.07,2.84,0.22,3.78,0.46c1.3,0.47,2.42,1.12,3.37,1.96c0.44,0.34,0.87,0.91,1.29,1.71
			c0.69,1.05,1.03,2.17,1.03,3.37c-0.03,0.41-0.15,0.61-0.36,0.61l-0.82-0.06c-0.23,0.07-0.38,0.1-0.46,0.1h-0.88
			c-2.93,0.28-4.45,0.42-4.55,0.42c0,0.02-0.14,0.07-0.42,0.15c-0.06-0.03-0.11-0.04-0.15-0.04c-2.81,0.18-4.72,0.38-5.74,0.61v0.11
			c0.25,0.68,0.71,1.47,1.39,2.38c1.19,1.38,2.66,2.07,4.41,2.07c1.19-0.13,2.62-0.9,4.29-2.32c0.55-0.79,1-1.27,1.35-1.45h0.11
			c1.48,0.45,2.22,0.91,2.22,1.39v0.21c-0.46,0.51-1.39,1.2-2.79,2.07c-0.35,0.25-0.85,0.5-1.5,0.73c0,0.08-0.38,0.2-1.14,0.36
			c-0.48,0.27-1.36,0.47-2.64,0.62c0,0.04-0.02,0.06-0.06,0.06l-0.1-0.06c-0.45,0.07-0.89,0.1-1.33,0.1h-0.1
			c-0.35,0-0.76-0.01-1.24-0.04c-0.07,0.03-0.13,0.04-0.16,0.04c-1.55-0.24-3.25-1.05-5.11-2.43c-1.28-1.21-1.92-2.66-1.92-4.34
			c0.23-2.1,0.75-3.76,1.56-4.98c1.4-1.47,2.52-2.35,3.36-2.64c0.86-0.6,1.56-0.92,2.11-0.97
			C290.31,109.82,290.73,109.75,291.17,109.75z M286.99,116.42l0.21,0.1c0.71-0.1,1.65-0.2,2.83-0.31c0.04,0,0.09,0.02,0.17,0.06
			c3.93-0.09,5.89-0.26,5.89-0.52v-0.04c0-0.25-0.51-1.16-1.54-2.74c-0.61-0.83-1.51-1.24-2.7-1.24h-0.11
			c-0.93,0.17-1.91,0.72-2.94,1.66c-0.84,0.57-1.44,1.57-1.81,3V116.42z"/>
		<path class="st11" d="M303.61,102.79c1.21,0.13,2,0.8,2.38,2.02l0.05,0.67c-0.07,0.72-0.55,1.22-1.44,1.51
			c-0.49,0.21-0.96,0.29-1.41,0.24c-1.3-0.14-2.01-0.79-2.13-1.95c0.12-1.13,0.39-1.76,0.81-1.9
			C302.46,102.93,303.04,102.73,303.61,102.79z M304.25,108.69c0.91,0.22,1.34,0.52,1.3,0.9c0.29,9.49,0.47,14.46,0.54,14.89
			c-0.17,0.72-0.44,1.06-0.82,1.02c-0.07-0.01-0.38,0.07-0.91,0.24l-0.39-0.11l-0.66-0.06c-0.04-0.01-0.25,0-0.61,0.04l-0.04-0.01
			c-0.71-0.32-1.03-0.76-0.97-1.32c0.16-1.52,0.07-6.25-0.28-14.19c0.02-0.22,0-0.5-0.08-0.84v-0.06c0.04-0.33,0.32-0.52,0.84-0.57
			c0.07,0.04,0.13,0.07,0.17,0.08c0.24-0.05,0.39-0.08,0.45-0.08c0.09,0.01,0.23,0.04,0.43,0.1L304.25,108.69z"/>
		<path class="st11" d="M309.39,110.08l0.13,0.02c0.42,0.02,0.61,0.4,0.57,1.15c0,0.57,0.02,0.93,0.04,1.08h0.09
			c0.83-0.37,1.3-0.55,1.42-0.55c0.51-0.15,1.08-0.21,1.72-0.18c0.71,0.04,2.11,0.52,4.2,1.44c1.06,0.89,1.57,1.78,1.53,2.68
			c0.13,0.01,0.26,0.63,0.39,1.87l-0.06,0.22V118c-0.01,0.16-0.01,0.41,0,0.76l-0.09,0.04c-0.26-0.02-0.53-0.02-0.81,0
			c-1.38-0.07-2.06-0.21-2.05-0.42l-0.33-2.28c-0.11-0.92-0.4-1.7-0.87-2.34c-0.3-0.2-0.58-0.3-0.84-0.31l-0.31-0.02
			c-0.65-0.03-1.47,0.46-2.46,1.48c-0.8,1.42-1.22,2.49-1.26,3.22c-0.03,0.6-0.08,2.25-0.17,4.95c0.1,0.36,0.18,0.8,0.24,1.32
			c-0.07,0.22-0.1,0.37-0.1,0.45l0.03,0.32c-0.05,0.15-0.16,0.22-0.33,0.21l-1.26-0.07c-0.46-0.02-1.03,0.01-1.71,0.09
			c-0.2-0.01-0.3-0.66-0.3-1.95c-0.17-1.11-0.26-3.69-0.27-7.75l-0.13-3.57l0.03-0.54c-0.04-0.42-0.07-0.63-0.1-0.64
			c0.03-0.05,0.05-0.09,0.06-0.12c-0.05-0.28-0.07-0.43-0.07-0.46c0.03-0.05,0.05-0.11,0.06-0.17l0.54,0.01
			C308.15,110.11,308.97,110.06,309.39,110.08z"/>
		<path class="st11" d="M334.8,110.1c0.61,0.05,0.88,0.39,0.82,1.03c-0.03,0.35,0.12,2.36,0.43,6.04c0.17,0.71,0.66,2.06,1.48,4.06
			c0.4,0.67,0.73,1.16,0.99,1.48c0.72,1.06,1.06,1.8,1.02,2.23v0.04c-0.01,0.09-0.13,0.19-0.37,0.3l-0.24-0.06l-0.33-0.03
			c-0.17,0.06-0.25,0.1-0.25,0.12l-0.22-0.21c-0.1,0.05-0.34,0.09-0.73,0.12l-0.76-0.06c-0.31-0.03-0.63-0.42-0.97-1.15l-1.24-2.29
			h-0.06c-0.58,0.73-1.22,1.46-1.93,2.2c-0.86,0.71-1.68,1.1-2.47,1.18c-0.96,0.28-2.06,0.36-3.31,0.25
			c-2.54-0.47-4.11-0.96-4.72-1.48c-0.92-0.46-1.48-0.99-1.69-1.6c-0.35-0.84-0.5-1.51-0.46-2.02l0.04-0.43
			c0.1-1.2,0.47-2.26,1.11-3.19c0.02-0.23,0.66-1.09,1.92-2.59c1.33-1.33,2.3-2.07,2.91-2.22c0.78-0.55,1.48-0.79,2.1-0.73
			c0.16,0.04,0.25,0.07,0.29,0.08c0.14-0.09,1.05-0.06,2.74,0.09l1.6,0.52c0.33,0.19,0.58,0.29,0.75,0.31h0.1
			c0.02-0.25,0-0.77-0.06-1.56C333.28,110.26,333.79,110.12,334.8,110.1z M323.52,118.31l-0.06,0.76c0.13,1.37,0.43,2.28,0.91,2.74
			c0.8,0.79,1.57,1.21,2.31,1.27l0.82,0.07c0.34,0.03,0.79-0.17,1.36-0.61c1.24-0.46,2.21-1.42,2.91-2.89
			c0.23-0.34,0.38-0.86,0.43-1.56l0.03-0.39c-0.19-1.15-0.58-1.99-1.18-2.52c-0.34-0.29-0.98-0.55-1.92-0.79
			c-1.56-0.14-2.81,0.12-3.75,0.78C324.36,116.5,323.74,117.54,323.52,118.31z M338.28,125.13v0.04l0.18,0.01l0.02-0.04
			c0-0.07-0.03-0.11-0.09-0.11C338.31,125.04,338.28,125.07,338.28,125.13z"/>
	</g>
	<path class="st26" d="M61.04,101.57c0.65,0.08,1.87,0.23,3.08,0.38c0.44,0.05,0.63,0.25,0.64,0.74c0.05,2.09,0.34,2.26,2.21,3.14
		c1.44,0.68,2.72,0.64,4.1,0c0.18-0.08,0.53-0.03,0.68,0.11c1.88,1.64,3.85,3.23,5.02,5.5c1.19,2.32,0.56,4.68-1.25,6.56
		c-2.1,2.18-4.39,2.63-7.29,1.89c-4.5-1.15-8.78-2.7-12.43-5.65c-1.11-0.9-2.15-1.9-3.08-2.97c-2.17-2.48-1.89-5.44,0.66-7.53
		C55.43,102.04,57.89,101.61,61.04,101.57"/>
	<path class="st11" d="M177.8,101.74l0.01-0.01c0.16-0.08,0.26-0.09,0.3-0.05l0.29,0.28c0.07,0.04,0.11,0.05,0.12,0.04
		c0,0.01,0.02,0.04,0.06,0.09c0.31,0.29,0.81,0.78,1.08,1.01l0.12,0.22c-0.01,0.06-0.06,0.17-0.17,0.35
		c-0.12,0.08-0.2,0.14-0.25,0.18c-0.63,0.78-1.06,1.33-1.28,1.66c-0.66,0.76-1.03,1.21-1.13,1.36l-0.07,0.03
		c-0.33,0.43-0.54,0.69-0.63,0.76c-0.04,0.04-0.18,0.01-0.4-0.11c-0.02-0.03-0.03-0.05-0.04-0.06c-0.05-0.04-0.42-0.41-0.69-0.63
		l-0.04-0.04c-0.04-0.03-0.09-0.09-0.15-0.19l-0.15-0.13c-0.31-0.32-0.45-0.49-0.42-0.52c0.31-0.44,0.77-0.98,1.37-1.63l0.08-0.04
		c0.14-0.16,0.25-0.3,0.31-0.39l0.08-0.03c0.38-0.55,0.76-1.03,1.12-1.43C177.49,102.1,177.65,101.87,177.8,101.74z"/>
	<path class="st26" d="M106,103.68c-6.81-6.83-15.11-10.2-24.83-9.54c-3.01,0.21-5.51,1.23-7.46,3.06c1.4-0.52,2.85-0.86,4.32-1.11
		c6.35-1.07,12.45-0.4,18.02,3.05c5.01,3.11,8.02,7.5,7.89,13.62c-0.02,1.12-0.33,2.24-0.51,3.36c-0.15-0.01-0.3-0.02-0.45-0.02
		c-0.05-0.23-0.15-0.47-0.14-0.7c0.62-7.78-3.21-13.2-9.99-15.89c-19.08-7.56-22.36,2.35-22.93,4.28c0.96-0.76,1.75-1.4,2.56-2.02
		c2.3-1.75,4.72-2.06,7.26-0.53c0.63,0.38,1.29,0.74,1.84,1.23c1.43,1.27,2.88,2.53,4.2,3.92c2.72,2.85,5.1,5.99,7.23,9.3
		c1.15,1.79,2.79,2.85,4.84,3.18c1.19,0.19,2.46,0.24,3.65,0.05c2.92-0.48,5.4-1.85,6.47-4.75
		C109.39,110.34,108.89,106.57,106,103.68z"/>
	<path class="st26" d="M64.53,85.17c-7.71-8.44-17.9-10.92-29.15-7.81c-0.28,0.08-0.63-0.09-0.95-0.15c0-0.08,0-0.16,0-0.24
		c7.74-3.46,15.37-2.62,22.82,0.84c5.36,2.49,9.67,6.22,12.26,11.66c0.79,1.65,1.31,3.35,1.5,5.12c0.19-1.65-0.08-3.33-0.57-4.96
		c-1.19-3.91-3.51-7.14-6.42-9.91c-5.29-5.06-11.45-8.65-18.55-10.57c-2.65-0.71-5.26-0.94-7.88,0.12
		c-3.17,1.28-5.59,3.29-6.49,6.71c-0.79,2.98,0.03,5.71,1.59,8.25c2.02,3.28,4.83,5.13,8.84,4.98c4.57-0.17,9.13-0.03,13.69,0.44
		c2.57,0.27,5.12,0.63,7.52,1.64c5.07,2.14,4.54,4.64,4.46,6.69c-0.05,1.41-0.01,2.83-0.01,4.24c0.1,0.01,0.19,0.01,0.29,0.02
		c0.08-0.2,0.17-0.4,0.24-0.6C68.09,100.45,74.74,96.35,64.53,85.17z"/>
	<path class="st26" d="M77.81,67.4c-0.1-3.45-0.43-6.88-1.43-10.21c-1.28-4.25-3.61-7.7-7.71-9.71c-2.89-1.42-5.98-2.05-9.19-2.03
		c-2.59,0.02-5.07,0.51-7.29,1.95c-1.25,0.81-1.65,1.96-1.67,3.44c-0.06,3.58,1.77,6.55,3.68,9.4c0.32,0.48,0.72,0.93,1.05,1.41
		c1.84,2.7,3.18,5.66,4.09,8.77c0.64,2.21,1.64,4,3.7,5.12c0.04,0.03,0.08,0.06,0.12,0.1c4.33,3.54,8.08,7.47,9.61,12.86
		c1.91-15.4-2.57-28.76-13.79-39.9c-0.34-0.34-0.8-0.6-0.3-1.15c0.08,0,0.16,0,0.24,0c2.45,2.5,5.25,4.73,7.28,7.54
		c7.21,9.96,10.21,21.07,8.67,33.24c0.81-1.84,1.61-3.67,2.37-5.53c0.39-0.95,0.63-2.03,0.64-3.05
		C77.92,75.56,77.93,71.48,77.81,67.4z"/>
	<path class="st26" d="M117.22,80.77c-0.9-4.82-3.93-7.92-8.27-9.78c-3.24-1.39-6.64-1.27-9.99-0.37
		c-6.79,1.83-12.23,5.82-17.06,10.77c-3.38,3.46-5.27,7.77-7.15,12.19c0.38-0.14,0.72-0.26,1.04-0.38c4.9-8.11,10.99-15,20.37-18.18
		c5.34-1.82,10.76-1.77,16.03,0.55c0.6,0.26,1.16,0.63,1.73,0.95c-0.04,0.12-0.08,0.25-0.12,0.37c-0.24,0-0.51,0.07-0.73-0.01
		c-8.28-2.92-15.95-1.23-23.06,3.37c-5.09,3.29-9.21,7.62-12.8,12.46c2.22-0.74,3.06-0.78,6.68-0.91c0.22-0.01,0.45-0.07,0.64-0.18
		c5.19-2.88,10.72-4.88,16.48-6.21c4.68-1.07,9.4-1.97,14.25-1.43c0.28,0.03,0.56,0.02,0.84-0.02c0.72-0.09,1.21-0.45,1.22-1.22
		C117.33,82.08,117.34,81.41,117.22,80.77z"/>
</g>
</svg>
