<?xml version="1.0" encoding="utf-8"?>
<!-- Generator: Adobe Illustrator 23.0.0, SVG Export Plug-In . SVG Version: 6.00 Build 0)  -->
<svg version="1.1" id="Layer_1" xmlns="http://www.w3.org/2000/svg" xmlns:xlink="http://www.w3.org/1999/xlink" x="0px" y="0px"
	 viewBox="0 0 141.73 141.73" style="enable-background:new 0 0 141.73 141.73;" xml:space="preserve">
<style type="text/css">
	.st0{fill:#FDD4BF;}
	.st1{clip-path:url(#SVGID_2_);}
	.st2{fill:#010101;}
	.st3{clip-path:url(#SVGID_4_);}
	.st4{stroke:#000000;stroke-width:0.75;stroke-miterlimit:10;}
	.st5{clip-path:url(#SVGID_6_);stroke:#000000;stroke-width:0.75;stroke-miterlimit:10;}
	.st6{clip-path:url(#SVGID_6_);stroke:#000000;stroke-miterlimit:10;}
	.st7{clip-path:url(#SVGID_8_);}
	.st8{fill:#73B9E6;}
	.st9{clip-path:url(#SVGID_10_);}
	.st10{fill:#201113;}
	.st11{fill:#FFFFFF;}
	.st12{fill:none;}
	.st13{clip-path:url(#SVGID_12_);fill-rule:evenodd;clip-rule:evenodd;}
	.st14{fill-rule:evenodd;clip-rule:evenodd;}
	.st15{clip-path:url(#SVGID_14_);stroke:#000000;stroke-miterlimit:10;}
	.st16{stroke:#000000;stroke-miterlimit:10;}
	.st17{clip-path:url(#SVGID_16_);}
	.st18{fill:#231F20;}
	.st19{fill:#E9E9E9;}
	.st20{clip-path:url(#SVGID_18_);}
	.st21{fill:#E6E7E8;}
	.st22{fill:#949A9B;}
	.st23{clip-path:url(#SVGID_20_);}
	.st24{clip-path:url(#SVGID_22_);}
	.st25{clip-path:url(#SVGID_24_);stroke:#000000;stroke-miterlimit:10;}
	.st26{fill-rule:evenodd;clip-rule:evenodd;fill:#FFFFFF;}
	.st27{fill:#FEE55B;}
	.st28{clip-path:url(#SVGID_28_);fill:#231F20;}
</style>
<g>
	<path class="st11" d="M36.83,127.56L16.45,27.95l108.84-13.78l-2.73,111.35L36.83,127.56z M21.73,31.73l18.69,91.33l77.83-1.85
		l2.5-102.01L21.73,31.73z"/>
	<path class="st26" d="M61.65,99.17c0.6,0.07,1.72,0.21,2.84,0.35c0.41,0.05,0.58,0.23,0.59,0.68c0.05,1.93,0.31,2.09,2.04,2.9
		c1.33,0.63,2.51,0.59,3.78,0c0.16-0.08,0.49-0.02,0.63,0.1c1.73,1.51,3.55,2.97,4.62,5.07c1.1,2.14,0.52,4.31-1.15,6.05
		c-1.94,2.01-4.05,2.43-6.72,1.75c-4.15-1.06-8.09-2.48-11.46-5.2c-1.02-0.83-1.98-1.75-2.84-2.73c-2-2.28-1.74-5.01,0.6-6.94
		C56.48,99.61,58.75,99.2,61.65,99.17"/>
	<path class="st26" d="M103.1,101.11c-6.28-6.29-13.93-9.41-22.89-8.8c-2.78,0.19-5.08,1.14-6.87,2.82
		c1.29-0.48,2.63-0.79,3.98-1.02c5.85-0.99,11.48-0.37,16.61,2.81c4.62,2.87,7.39,6.91,7.27,12.55c-0.02,1.04-0.31,2.07-0.47,3.1
		c-0.14-0.01-0.28-0.01-0.42-0.02c-0.04-0.22-0.14-0.44-0.13-0.65c0.57-7.17-2.96-12.16-9.21-14.64
		c-17.59-6.97-20.61,2.17-21.13,3.95c0.89-0.7,1.62-1.29,2.36-1.86c2.12-1.62,4.35-1.9,6.69-0.49c0.58,0.35,1.19,0.69,1.7,1.13
		c1.32,1.17,2.65,2.34,3.87,3.61c2.51,2.63,4.7,5.52,6.66,8.57c1.06,1.65,2.57,2.63,4.46,2.93c1.1,0.18,2.27,0.22,3.36,0.04
		c2.69-0.44,4.98-1.71,5.97-4.38C106.21,107.25,105.75,103.78,103.1,101.11z"/>
	<path class="st26" d="M64.87,84.05c-7.11-7.78-16.5-10.06-26.87-7.2c-0.26,0.07-0.58-0.09-0.88-0.14c0-0.07,0-0.15,0-0.22
		c7.14-3.18,14.16-2.41,21.04,0.78c4.94,2.29,8.91,5.73,11.3,10.75c0.72,1.52,1.21,3.09,1.38,4.72c0.17-1.52-0.07-3.07-0.53-4.57
		c-1.1-3.61-3.24-6.58-5.91-9.14c-4.88-4.66-10.55-7.97-17.1-9.74c-2.44-0.66-4.85-0.87-7.26,0.11c-2.92,1.18-5.15,3.03-5.98,6.19
		c-0.72,2.74,0.03,5.27,1.47,7.61c1.86,3.03,4.45,4.73,8.15,4.59c4.21-0.16,8.42-0.03,12.62,0.41c2.37,0.25,4.72,0.58,6.93,1.51
		c4.67,1.97,4.18,4.28,4.11,6.16c-0.05,1.3-0.01,2.61-0.01,3.91c0.09,0.01,0.18,0.01,0.27,0.02c0.07-0.19,0.16-0.37,0.22-0.56
		C68.15,98.14,74.28,94.35,64.87,84.05z"/>
	<path class="st26" d="M77.11,67.67c-0.09-3.18-0.4-6.34-1.32-9.41c-1.18-3.92-3.33-7.1-7.11-8.95c-2.67-1.31-5.51-1.89-8.47-1.87
		c-2.39,0.02-4.68,0.47-6.72,1.8c-1.15,0.75-1.52,1.8-1.54,3.17c-0.06,3.3,1.64,6.04,3.39,8.67c0.3,0.45,0.66,0.85,0.97,1.3
		c1.7,2.49,2.93,5.22,3.77,8.09c0.59,2.03,1.51,3.69,3.41,4.72c0.04,0.02,0.08,0.06,0.11,0.09c4,3.27,7.45,6.89,8.86,11.85
		c1.76-14.2-2.37-26.51-12.71-36.78c-0.32-0.32-0.74-0.56-0.28-1.06c0.07,0,0.15,0,0.22,0c2.26,2.3,4.84,4.36,6.71,6.95
		c6.64,9.18,9.41,19.42,8,30.64c0.75-1.69,1.49-3.39,2.18-5.1c0.36-0.88,0.58-1.87,0.59-2.81C77.21,75.2,77.22,71.43,77.11,67.67z"
		/>
	<path class="st26" d="M113.43,79.99c-0.83-4.44-3.63-7.3-7.62-9.02c-2.99-1.29-6.12-1.17-9.21-0.34
		c-6.26,1.68-11.27,5.37-15.73,9.93c-3.11,3.19-4.86,7.16-6.59,11.24c0.35-0.13,0.66-0.24,0.96-0.35
		c4.52-7.48,10.13-13.82,18.78-16.76c4.92-1.67,9.92-1.63,14.78,0.51c0.55,0.24,1.07,0.58,1.6,0.87c-0.04,0.11-0.07,0.23-0.11,0.34
		c-0.22,0-0.47,0.06-0.67-0.01c-7.63-2.69-14.7-1.13-21.26,3.1c-4.69,3.03-8.49,7.03-11.8,11.48c2.05-0.69,2.82-0.72,6.16-0.84
		c0.2-0.01,0.42-0.07,0.59-0.16c4.79-2.65,9.88-4.5,15.19-5.72c4.31-0.99,8.66-1.81,13.14-1.32c0.25,0.03,0.52,0.02,0.78-0.02
		c0.66-0.08,1.11-0.42,1.13-1.13C113.54,81.21,113.54,80.58,113.43,79.99z"/>
</g>
</svg>
