<?xml version="1.0"?>
<svg xmlns="http://www.w3.org/2000/svg" xmlns:xlink="http://www.w3.org/1999/xlink" width="150" height="70" viewBox="0 0 303.044 72.375">
<g fill-rule="evenodd">
<path d="m96.099 48.652c-2.6421-4.8169-7.1488-6.7341-12.38-6.7341-7.6142 0-13.675 5.3867-13.675 14.504 0 9.2718 5.6979 14.503 13.934 14.503 5.2833 0 9.7899-2.9007 12.276-7.3039l-5.8014-2.9524c-1.2957 3.1085-3.2636 4.0412-5.7496 4.0412-4.2998 0-6.2677-3.5739-6.2677-8.2874 0-4.7144 1.6577-8.2883 6.2677-8.2883 1.243 0 3.73 0.67322 5.1799 3.7817l6.217-3.2646z"/><path d="m110.91 48.134c4.6101 0 6.579 3.5739 6.579 7.9771 0 5.0247-1.9689 8.5986-6.579 8.5986s-6.578-3.5739-6.578-8.2874c0-4.7135 1.9679-8.2883 6.578-8.2883zm0-6.216c-8.5986 0-14.659 5.2316-14.659 14.504 0 9.2718 6.0599 14.503 14.659 14.503s14.66-5.2316 14.66-14.503c0-9.2718-6.0609-14.504-14.66-14.504z"/><path d="m127.22 70.2h8.0805v-17.145c0-2.486 1.0362-4.6101 4.2988-4.6101 3.1085 0 3.9368 1.8128 3.9368 4.5066v17.249h8.0805v-16.939c0-2.7973 1.3982-4.8169 4.092-4.8169 3.0558 0 4.1437 1.7611 4.1437 5.6462v16.108h8.0805v-21.03c0-6.3194-5.8014-7.2522-8.4952-7.2522-3.2119 0-6.216 0.98445-8.8572 3.6773-1.8138-2.4343-4.1437-3.6773-7.3039-3.6773-2.486 0-5.9048 0.72493-7.9771 3.1602v-2.4343h-8.0805v27.556h9.6e-4z"/><path d="m170.52 70.2h8.0805v-17.145c0-2.486 1.0362-4.6101 4.2988-4.6101 3.1085 0 3.9368 1.8128 3.9368 4.5066v17.249h8.0805v-16.939c0-2.7973 1.3982-4.8169 4.091-4.8169 3.0558 0 4.1446 1.7611 4.1446 5.6462v16.108h8.0805v-21.03c0-6.3194-5.8023-7.2522-8.4952-7.2522-3.2119 0-6.2151 0.98445-8.8572 3.6773-1.8128-2.4343-4.1437-3.6773-7.3039-3.6773-2.486 0-5.9048 0.72493-7.9771 3.1602v-2.4343h-8.0805v27.556h9.5e-4z"/><path d="m227.55 48.134c4.6091 0 6.578 3.5739 6.578 7.9771 0 5.0247-1.9689 8.5986-6.578 8.5986-4.6101 0-6.579-3.5739-6.579-8.2874 0-4.7135 1.9689-8.2883 6.579-8.2883zm0-6.216c-8.5986 0-14.66 5.2316-14.66 14.504 0 9.2718 6.0599 14.503 14.66 14.503 8.5986 0 14.66-5.2316 14.66-14.503 0-9.2718-6.0609-14.504-14.66-14.504z"/><path d="m244.38 70.2h8.0805v-17.145c0-2.486 1.0362-4.6101 4.2998-4.6101 3.1075 0 3.9359 1.8128 3.9359 4.5066v17.249h8.0805v-20.357c0-4.1437-1.8138-7.9254-8.3401-7.9254-2.486 0-5.9048 0.72493-7.9771 3.1602v-2.4343h-8.0805v27.556h9.6e-4z"/><path d="m295.76 45.908c-3.73-2.486-7.9244-3.9886-12.173-3.9886-5.5955 0-11.655 2.6938-11.655 9.6348 0 9.7899 16.316 6.3712 16.316 10.671 0 2.487-3.0549 2.7973-4.4032 2.7973-3.6773 0-6.2151-1.5016-8.702-3.8851l-5.0247 4.3505c4.0412 3.73 7.459 5.4394 13.468 5.4394 6.0073 0 12.431-2.5904 12.431-9.8416 0-10.308-16.316-6.4229-16.316-11.136 0-1.3981 1.4499-2.1231 3.4695-2.1231 2.5387 0 6.0092 1.0362 7.6142 2.9524l4.9749-4.8705z"/><path d="m96.099 16.95c-2.6421-4.8169-7.1488-6.7341-12.38-6.7341-7.6142 0-13.675 5.3867-13.675 14.503 0 9.2718 5.6979 14.504 13.934 14.504 5.2833 0 9.7899-2.9007 12.276-7.3039l-5.8014-2.9524c-1.2957 3.1085-3.2636 4.0403-5.7496 4.0403-4.2998 0-6.2677-3.5739-6.2677-8.2883 0-4.7135 1.6577-8.2874 6.2677-8.2874 1.243 0 3.73 0.67322 5.1799 3.7817l6.217-3.2636z"/><path d="m98.07 38.497h8.0805v-15.954c0-3.0558 1.9162-3.8851 6.7341-4.4549l0.88007-0.10342-0.0517-7.1478c-2.849 0.20781-5.8014 1.243-7.5625 2.9007v-2.7973h-8.0805v27.557z"/><path d="m141.21 26.377c-0.0517-8.4952-3.4705-16.161-13.52-16.161-8.3918 0-13.52 5.5945-13.52 15.333 0 7.7693 4.973 13.675 13.52 13.675 6.1643 0 10.567-2.4343 13.364-7.6142l-6.0609-3.1602c-2.3309 3.3153-3.73 4.8686-6.7341 4.8686-2.5894 0-5.9565-1.6577-6.0082-6.9409h18.959zm-19.062-4.972c0.36199-3.6266 3.1592-5.2833 5.4901-5.2833 2.3309 0 5.2316 1.243 5.4901 5.2833h-10.98z"/><path d="m159.74 26.998c0 4.1954-2.3826 6.3194-5.5428 6.3194-1.9689 0-3.7817-0.93274-3.7817-3.1075 0-2.2275 1.8645-3.0041 3.8851-3.5739l5.4394-1.5542v1.9162zm7.7693-8.8055c-0.0517-6.216-4.7652-7.9771-12.276-7.9771-3.73 0-11.085 0.72493-11.344 8.6503h7.7703c0.41466-2.7455 1.6567-3.6773 4.2471-3.6773 2.1758 0 3.8334 0.88007 3.8334 2.9524v2.2792l-2.9524 0.41466c-8.8055 1.243-14.141 3.5739-14.141 10.205 0 5.2833 3.9368 8.184 9.2201 8.184 2.9007 0 6.941-1.3981 8.2874-3.5739h0.10343c0.0517 0.93274 0.20781 1.9162 0.51808 2.849h7.459c-0.67322-1.7094-0.72493-3.8325-0.72493-5.7496v-14.556z"/><path d="m186.52 11.459h-4.8179v-7.9771h-8.0805v7.9771h-3.9359v4.972h3.9359v14.504c0 3.9886 0.98445 8.2874 7.8746 8.2874 1.7611 0 4.1437-0.20685 5.1798-0.31123v-6.3712c-0.41561 0.05171-1.5542 0.15514-2.4343 0.15514-1.4518 0-2.5387-0.56979-2.5387-2.7455v-13.518h4.8179v-4.973h-9.5e-4z"/><path d="m189.56 10.941v27.557h8.0805v-27.557h-8.0805zm8.0815-3.1075v-6.216h-8.0805v6.216h8.0805z"/><path transform="matrix(.95764 0 0 .95764 5.8108 1.617)" d="m211.67 38.512h8.492l9.845-28.776h-8.979l-4.977 20.338h-0.107l-4.978-20.338h-9.032z"/><path d="m252.17 26.377c-0.0517-8.4952-3.4705-16.161-13.519-16.161-8.3927 0-13.519 5.5945-13.519 15.333 0 7.7693 4.9711 13.675 13.519 13.675 6.1643 0 10.567-2.4343 13.364-7.6142l-6.0609-3.1602c-2.3309 3.3153-3.73 4.8686-6.7331 4.8686-2.5894 0-5.9575-1.6577-6.0082-6.9409h18.957zm-19.062-4.972c0.36295-3.6266 3.1592-5.2833 5.4901-5.2833 2.3309 0 5.2325 1.243 5.4911 5.2833h-10.981z"/><path d="m36.074 9.7521c-8.3142 0-15.631 3.0769-21.284 8.8131-5.8196 5.9038-8.9788 13.552-8.9788 21.534 0 8.0643 3.0759 15.547 8.8964 21.368 5.8196 5.8196 13.386 8.9788 21.367 8.9788s15.714-3.1592 21.7-9.0621c5.6539-5.5706 8.6465-12.97 8.6465-21.284 0-8.2309-2.9926-15.714-8.7298-21.451-5.8196-5.8196-13.303-8.8964-21.617-8.8964zm0.08331 5.4882c6.8174 0 12.887 2.577 17.626 7.3163 4.6551 4.656 7.1497 10.809 7.1497 17.543 0 6.8174-2.4113 12.804-7.0674 17.377-4.906 4.8217-11.224 7.3997-17.71 7.3997-6.5684 0-12.721-2.577-17.46-7.3163-4.7393-4.7403-7.3997-10.975-7.3997-17.461 0-6.5684 2.6603-12.804 7.3997-17.626 4.656-4.7384 10.643-7.233 17.461-7.233z"/><path d="m35.766 35.057c-1.7142-3.1257-4.6388-4.3697-8.0336-4.3697-4.9414 0-8.8744 3.4954-8.8744 9.4126 0 6.0168 3.6974 9.4126 9.043 9.4126 3.4293 0 6.353-1.8827 7.9666-4.7393l-3.7654-1.9162c-0.8408 2.0168-2.1173 2.622-3.731 2.622-2.7906 0-4.0671-2.3194-4.0671-5.3781 0-3.0587 1.0754-5.379 4.0671-5.379 0.80633 0 2.4199 0.43764 3.3613 2.4535l4.0336-2.1183z"/><path d="m53.273 35.057c-1.7151-3.1257-4.6388-4.3697-8.0336-4.3697-4.9414 0-8.8754 3.4954-8.8754 9.4126 0 6.0168 3.6984 9.4126 9.043 9.4126 3.4293 0 6.353-1.8827 7.9666-4.7393l-3.7654-1.9162c-0.83985 2.0168-2.1173 2.622-3.731 2.622-2.7896 0-4.068-2.3194-4.068-5.3781 0-3.0587 1.0764-5.379 4.068-5.379 0.80633 0 2.4199 0.43764 3.3623 2.4535l4.0336-2.1183z"/>
</g>
</svg>