<?xml version="1.0"?>
<svg xmlns="http://www.w3.org/2000/svg" xmlns:xlink="http://www.w3.org/1999/xlink" class="lds-flask" width="200px" height="200px" viewBox="0 0 100 100" preserveAspectRatio="xMidYMid" style="background: none;"><defs>
<clipPath id="lds-flask-cpid-11ad5259cee7d" clipPathUnits="userSpaceOnUse">
<rect x="0" y="50" width="100" height="50"/>
</clipPath>
<pattern id="lds-flask-patid-9e602542e5729" patternUnits="userSpaceOnUse" x="0" y="0" width="100" height="100">
<rect x="0" y="0" width="100" height="100" fill="#689cc5"/><circle cx="18" cy="0" r="2" fill="#93dbe9" transform="translate(0 1.65535)">
<animateTransform attributeName="transform" type="translate" values="0 135;0 -35" keyTimes="0;1" dur="3s" begin="-1.47s" repeatCount="indefinite"/>
</circle><circle cx="16" cy="0" r="2" fill="#93dbe9" transform="translate(0 116.522)">
<animateTransform attributeName="transform" type="translate" values="0 132;0 -32" keyTimes="0;1" dur="3s" begin="-2.4s" repeatCount="indefinite"/>
</circle><circle cx="9" cy="0" r="3" fill="#93dbe9" transform="translate(0 84.8717)">
<animateTransform attributeName="transform" type="translate" values="0 124;0 -24" keyTimes="0;1" dur="3s" begin="-2.91s" repeatCount="indefinite"/>
</circle><circle cx="31" cy="0" r="3" fill="#93dbe9" transform="translate(0 22.7967)">
<animateTransform attributeName="transform" type="translate" values="0 128;0 -28" keyTimes="0;1" dur="3s" begin="-1.14s" repeatCount="indefinite"/>
</circle><circle cx="11" cy="0" r="3" fill="#93dbe9" transform="translate(0 110.604)">
<animateTransform attributeName="transform" type="translate" values="0 118;0 -18" keyTimes="0;1" dur="3s" begin="-2.28s" repeatCount="indefinite"/>
</circle><circle cx="70" cy="0" r="2" fill="#93dbe9" transform="translate(0 104.839)">
<animateTransform attributeName="transform" type="translate" values="0 146;0 -46" keyTimes="0;1" dur="3s" begin="-2.76s" repeatCount="indefinite"/>
</circle><circle cx="26" cy="0" r="3" fill="#93dbe9" transform="translate(0 14.9669)">
<animateTransform attributeName="transform" type="translate" values="0 104;0 -4" keyTimes="0;1" dur="3s" begin="-1.59s" repeatCount="indefinite"/>
</circle><circle cx="16" cy="0" r="3" fill="#93dbe9" transform="translate(0 -38.1498)">
<animateTransform attributeName="transform" type="translate" values="0 147;0 -47" keyTimes="0;1" dur="3s" begin="-1.98s" repeatCount="indefinite"/>
</circle><circle cx="9" cy="0" r="3" fill="#93dbe9" transform="translate(0 19.0965)">
<animateTransform attributeName="transform" type="translate" values="0 144;0 -44" keyTimes="0;1" dur="3s" begin="-1.11s" repeatCount="indefinite"/>
</circle><circle cx="38" cy="0" r="3" fill="#93dbe9" transform="translate(0 8.83897)">
<animateTransform attributeName="transform" type="translate" values="0 146;0 -46" keyTimes="0;1" dur="3s" begin="-1.26s" repeatCount="indefinite"/>
</circle><circle cx="35" cy="0" r="3" fill="#93dbe9" transform="translate(0 60.0115)">
<animateTransform attributeName="transform" type="translate" values="0 140;0 -40" keyTimes="0;1" dur="3s" begin="-0.45s" repeatCount="indefinite"/>
</circle><circle cx="18" cy="0" r="2" fill="#93dbe9" transform="translate(0 128.968)">
<animateTransform attributeName="transform" type="translate" values="0 145;0 -45" keyTimes="0;1" dur="3s" begin="-2.37s" repeatCount="indefinite"/>
</circle><circle cx="27" cy="0" r="3" fill="#93dbe9" transform="translate(0 67.4664)">
<animateTransform attributeName="transform" type="translate" values="0 152;0 -52" keyTimes="0;1" dur="3s" begin="-0.36s" repeatCount="indefinite"/>
</circle><circle cx="84" cy="0" r="2" fill="#93dbe9" transform="translate(0 87.9491)">
<animateTransform attributeName="transform" type="translate" values="0 138;0 -38" keyTimes="0;1" dur="3s" begin="-2.97s" repeatCount="indefinite"/>
</circle><circle cx="4" cy="0" r="3" fill="#93dbe9" transform="translate(0 -9.73227)">
<animateTransform attributeName="transform" type="translate" values="0 145;0 -45" keyTimes="0;1" dur="3s" begin="-1.56s" repeatCount="indefinite"/>
</circle><circle cx="23" cy="0" r="2" fill="#93dbe9" transform="translate(0 -6.35572)">
<animateTransform attributeName="transform" type="translate" values="0 118;0 -18" keyTimes="0;1" dur="3s" begin="-1.86s" repeatCount="indefinite"/>
</circle><circle cx="32" cy="0" r="3" fill="#93dbe9" transform="translate(0 37.1643)">
<animateTransform attributeName="transform" type="translate" values="0 118;0 -18" keyTimes="0;1" dur="3s" begin="-0.9s" repeatCount="indefinite"/>
</circle><circle cx="35" cy="0" r="3" fill="#93dbe9" transform="translate(0 9.12393)">
<animateTransform attributeName="transform" type="translate" values="0 150;0 -50" keyTimes="0;1" dur="3s" begin="-1.23s" repeatCount="indefinite"/>
</circle><circle cx="4" cy="0" r="2" fill="#93dbe9" transform="translate(0 -45.9098)">
<animateTransform attributeName="transform" type="translate" values="0 147;0 -47" keyTimes="0;1" dur="3s" begin="-2.1s" repeatCount="indefinite"/>
</circle><circle cx="21" cy="0" r="2" fill="#93dbe9" transform="translate(0 107.941)">
<animateTransform attributeName="transform" type="translate" values="0 148;0 -48" keyTimes="0;1" dur="3s" begin="-2.73s" repeatCount="indefinite"/>
</circle><circle cx="14" cy="0" r="3" fill="#93dbe9" transform="translate(0 105.172)">
<animateTransform attributeName="transform" type="translate" values="0 108;0 -8" keyTimes="0;1" dur="3s" begin="-2.19s" repeatCount="indefinite"/>
</circle><circle cx="73" cy="0" r="2" fill="#93dbe9" transform="translate(0 79.7818)">
<animateTransform attributeName="transform" type="translate" values="0 116;0 -16" keyTimes="0;1" dur="3s" begin="-2.94s" repeatCount="indefinite"/>
</circle><circle cx="94" cy="0" r="3" fill="#93dbe9" transform="translate(0 26.3677)">
<animateTransform attributeName="transform" type="translate" values="0 145;0 -45" keyTimes="0;1" dur="3s" begin="-0.99s" repeatCount="indefinite"/>
</circle><circle cx="14" cy="0" r="2" fill="#93dbe9" transform="translate(0 -11.4658)">
<animateTransform attributeName="transform" type="translate" values="0 126;0 -26" keyTimes="0;1" dur="3s" begin="-1.83s" repeatCount="indefinite"/>
</circle><circle cx="99" cy="0" r="3" fill="#93dbe9" transform="translate(0 118.343)">
<animateTransform attributeName="transform" type="translate" values="0 125;0 -25" keyTimes="0;1" dur="3s" begin="-2.25s" repeatCount="indefinite"/>
</circle><circle cx="34" cy="0" r="2" fill="#93dbe9" transform="translate(0 -12.9858)">
<animateTransform attributeName="transform" type="translate" values="0 126;0 -26" keyTimes="0;1" dur="3s" begin="-1.86s" repeatCount="indefinite"/>
</circle><circle cx="81" cy="0" r="2" fill="#93dbe9" transform="translate(0 141.124)">
<animateTransform attributeName="transform" type="translate" values="0 150;0 -50" keyTimes="0;1" dur="3s" begin="-2.25s" repeatCount="indefinite"/>
</circle><circle cx="27" cy="0" r="3" fill="#93dbe9" transform="translate(0 121.368)">
<animateTransform attributeName="transform" type="translate" values="0 145;0 -45" keyTimes="0;1" dur="3s" begin="-2.49s" repeatCount="indefinite"/>
</circle><circle cx="61" cy="0" r="3" fill="#93dbe9" transform="translate(0 101.673)">
<animateTransform attributeName="transform" type="translate" values="0 117;0 -17" keyTimes="0;1" dur="3s" begin="-2.46s" repeatCount="indefinite"/>
</circle><circle cx="76" cy="0" r="3" fill="#93dbe9" transform="translate(0 76.7666)">
<animateTransform attributeName="transform" type="translate" values="0 136;0 -36" keyTimes="0;1" dur="3s" begin="-0.15s" repeatCount="indefinite"/>
</circle><circle cx="47" cy="0" r="2" fill="#93dbe9" transform="translate(0 48.0443)">
<animateTransform attributeName="transform" type="translate" values="0 118;0 -18" keyTimes="0;1" dur="3s" begin="-0.66s" repeatCount="indefinite"/>
</circle><circle cx="10" cy="0" r="3" fill="#93dbe9" transform="translate(0 144.168)">
<animateTransform attributeName="transform" type="translate" values="0 145;0 -45" keyTimes="0;1" dur="3s" begin="-2.13s" repeatCount="indefinite"/>
</circle><circle cx="34" cy="0" r="3" fill="#93dbe9" transform="translate(0 -27.0871)">
<animateTransform attributeName="transform" type="translate" values="0 133;0 -33" keyTimes="0;1" dur="3s" begin="-2.01s" repeatCount="indefinite"/>
</circle><circle cx="94" cy="0" r="2" fill="#93dbe9" transform="translate(0 45.0752)">
<animateTransform attributeName="transform" type="translate" values="0 151;0 -51" keyTimes="0;1" dur="3s" begin="-0.69s" repeatCount="indefinite"/>
</circle><circle cx="13" cy="0" r="3" fill="#93dbe9" transform="translate(0 -13.1009)">
<animateTransform attributeName="transform" type="translate" values="0 130;0 -30" keyTimes="0;1" dur="3s" begin="-1.8s" repeatCount="indefinite"/>
</circle><circle cx="26" cy="0" r="2" fill="#93dbe9" transform="translate(0 78.4504)">
<animateTransform attributeName="transform" type="translate" values="0 131;0 -31" keyTimes="0;1" dur="3s" begin="-0.09s" repeatCount="indefinite"/>
</circle><circle cx="66" cy="0" r="3" fill="#93dbe9" transform="translate(0 -5.39723)">
<animateTransform attributeName="transform" type="translate" values="0 141;0 -41" keyTimes="0;1" dur="3s" begin="-1.53s" repeatCount="indefinite"/>
</circle><circle cx="13" cy="0" r="3" fill="#93dbe9" transform="translate(0 115.673)">
<animateTransform attributeName="transform" type="translate" values="0 133;0 -33" keyTimes="0;1" dur="3s" begin="-2.43s" repeatCount="indefinite"/>
</circle><circle cx="77" cy="0" r="3" fill="#93dbe9" transform="translate(0 118.736)">
<animateTransform attributeName="transform" type="translate" values="0 144;0 -44" keyTimes="0;1" dur="3s" begin="-2.52s" repeatCount="indefinite"/>
</circle><circle cx="95" cy="0" r="3" fill="#93dbe9" transform="translate(0 111.167)">
<animateTransform attributeName="transform" type="translate" values="0 136;0 -36" keyTimes="0;1" dur="3s" begin="-2.55s" repeatCount="indefinite"/>
</circle><circle cx="76" cy="0" r="3" fill="#93dbe9" transform="translate(0 2.51666)">
<animateTransform attributeName="transform" type="translate" values="0 128;0 -28" keyTimes="0;1" dur="3s" begin="-1.53s" repeatCount="indefinite"/>
</circle><circle cx="73" cy="0" r="2" fill="#93dbe9" transform="translate(0 -4.16962)">
<animateTransform attributeName="transform" type="translate" values="0 131;0 -31" keyTimes="0;1" dur="3s" begin="-1.62s" repeatCount="indefinite"/>
</circle><circle cx="10" cy="0" r="3" fill="#93dbe9" transform="translate(0 116.118)">
<animateTransform attributeName="transform" type="translate" values="0 121;0 -21" keyTimes="0;1" dur="3s" begin="-2.22s" repeatCount="indefinite"/>
</circle><circle cx="79" cy="0" r="3" fill="#93dbe9" transform="translate(0 -15.8757)">
<animateTransform attributeName="transform" type="translate" values="0 118;0 -18" keyTimes="0;1" dur="3s" begin="-2.07s" repeatCount="indefinite"/>
</circle><circle cx="22" cy="0" r="3" fill="#93dbe9" transform="translate(0 58.2115)">
<animateTransform attributeName="transform" type="translate" values="0 140;0 -40" keyTimes="0;1" dur="3s" begin="-0.48s" repeatCount="indefinite"/>
</circle><circle cx="86" cy="0" r="2" fill="#93dbe9" transform="translate(0 59.0757)">
<animateTransform attributeName="transform" type="translate" values="0 103;0 -3" keyTimes="0;1" dur="3s" begin="-0.36s" repeatCount="indefinite"/>
</circle><circle cx="85" cy="0" r="2" fill="#93dbe9" transform="translate(0 59.5805)">
<animateTransform attributeName="transform" type="translate" values="0 123;0 -23" keyTimes="0;1" dur="3s" begin="-0.42s" repeatCount="indefinite"/>
</circle><circle cx="4" cy="0" r="2" fill="#93dbe9" transform="translate(0 71.1239)">
<animateTransform attributeName="transform" type="translate" values="0 150;0 -50" keyTimes="0;1" dur="3s" begin="-0.3s" repeatCount="indefinite"/>
</circle><circle cx="79" cy="0" r="3" fill="#93dbe9" transform="translate(0 50.7193)">
<animateTransform attributeName="transform" type="translate" values="0 114;0 -14" keyTimes="0;1" dur="3s" begin="-0.6s" repeatCount="indefinite"/>
</circle><circle cx="73" cy="0" r="2" fill="#93dbe9" transform="translate(0 72.3603)">
<animateTransform attributeName="transform" type="translate" values="0 139;0 -39" keyTimes="0;1" dur="3s" begin="-0.24s" repeatCount="indefinite"/>
</circle>      </pattern></defs>

      <path fill="url(#lds-flask-patid-9e602542e5729)" clip-path="url(#lds-flask-cpid-11ad5259cee7d)" d="M59,37.3V18.9c3-0.8,5.1-3.6,5.1-6.8C64.1,8.2,61,5,57.1,5H42.9c-3.9,0-7.1,3.2-7.1,7.1c0,3.2,2.2,6,5.1,6.8v18.4c-11.9,3.8-20.6,15-20.6,28.2C20.4,81.8,33.7,95,50,95s29.6-13.2,29.6-29.6C79.6,52.2,70.9,41.1,59,37.3z"/>

      <path fill="none" stroke="#5e6fa3" stroke-width="5" d="M59,37.3V18.9c3-0.8,5.1-3.6,5.1-6.8C64.1,8.2,61,5,57.1,5H42.9c-3.9,0-7.1,3.2-7.1,7.1c0,3.2,2.2,6,5.1,6.8v18.4c-11.9,3.8-20.6,15-20.6,28.2C20.4,81.8,33.7,95,50,95s29.6-13.2,29.6-29.6C79.6,52.2,70.9,41.1,59,37.3z"/>
</svg>
