<?xml version="1.0" standalone="no"?>
<!DOCTYPE svg PUBLIC "-//W3C//DTD SVG 20010904//EN"
 "http://www.w3.org/TR/2001/REC-SVG-20010904/DTD/svg10.dtd">
<svg version="1.0" xmlns="http://www.w3.org/2000/svg"
 width="700.000000pt" height="700.000000pt" viewBox="0 0 700.000000 700.000000"
 preserveAspectRatio="xMidYMid meet">
<metadata>
Created by potrace 1.11, written by Peter Selinger 2001-2013
</metadata>
<g transform="translate(0.000000,700.000000) scale(0.100000,-0.100000)"
fill="#000000" stroke="none">
<path d="M6216 6583 c-1 -1 -94 -13 -206 -27 -113 -15 -218 -28 -235 -31 -16
-2 -55 -7 -85 -10 -30 -3 -66 -7 -80 -10 -14 -2 -45 -7 -70 -10 -25 -3 -61 -7
-80 -10 -19 -2 -60 -7 -90 -10 -30 -4 -66 -8 -80 -10 -14 -2 -99 -13 -190 -25
-91 -11 -181 -22 -200 -25 -19 -2 -53 -7 -75 -9 -243 -31 -278 -35 -350 -46
-33 -5 -87 -11 -120 -15 -33 -3 -71 -8 -85 -10 -14 -3 -45 -7 -70 -9 -41 -4
-261 -32 -320 -41 -14 -2 -54 -7 -90 -11 -36 -4 -67 -8 -70 -9 -4 -1 -114 -15
-165 -21 -11 -1 -40 -4 -65 -7 -25 -4 -67 -9 -95 -12 -27 -3 -61 -7 -75 -10
-14 -3 -47 -7 -75 -10 -27 -3 -61 -7 -75 -10 -14 -2 -47 -6 -75 -9 -45 -6
-172 -22 -235 -31 -14 -1 -54 -6 -90 -10 -77 -9 -80 -10 -190 -24 -47 -7 -103
-14 -125 -17 -22 -2 -56 -6 -75 -9 -79 -10 -117 -15 -160 -20 -25 -3 -61 -7
-80 -10 -19 -3 -55 -8 -79 -10 -24 -2 -60 -7 -80 -10 -20 -2 -56 -7 -81 -10
-78 -9 -134 -16 -160 -20 -14 -3 -99 -13 -190 -25 -199 -24 -236 -29 -275 -34
-16 -3 -57 -8 -90 -12 -33 -3 -67 -8 -75 -9 -9 -2 -43 -6 -75 -10 -33 -4 -71
-8 -85 -10 -14 -2 -45 -6 -70 -10 -25 -3 -61 -8 -80 -10 -19 -3 -55 -7 -80
-10 -25 -3 -54 -7 -65 -9 -11 -2 -70 -10 -132 -17 -62 -7 -117 -15 -123 -19
-8 -5 3 -76 35 -231 40 -197 110 -537 121 -594 2 -11 6 -31 9 -45 4 -14 8 -36
11 -50 2 -14 18 -88 34 -165 16 -77 31 -151 33 -165 3 -14 13 -61 22 -105 9
-44 18 -89 21 -100 2 -11 8 -42 14 -70 6 -27 12 -61 15 -75 3 -14 18 -90 34
-170 17 -80 32 -156 35 -170 2 -14 32 -158 66 -320 33 -162 63 -306 65 -320 3
-14 7 -36 10 -50 3 -14 10 -47 15 -73 5 -26 28 -134 49 -240 22 -106 42 -203
45 -217 2 -14 12 -61 21 -105 9 -44 19 -91 21 -105 3 -14 7 -32 9 -40 2 -8 7
-28 10 -45 2 -16 23 -118 45 -225 22 -107 54 -260 70 -340 16 -80 56 -278 90
-440 33 -162 62 -304 64 -315 2 -11 14 -67 26 -125 12 -58 24 -114 26 -125 2
-11 6 -31 9 -45 6 -30 6 -28 42 -208 l28 -143 245 6 c259 6 439 10 845 20 271
6 493 11 820 20 116 3 305 7 420 10 116 3 300 7 410 10 110 2 304 7 430 10
127 3 311 8 410 10 99 3 304 8 455 11 151 3 325 8 385 9 61 2 142 4 180 4 l70
1 1 58 c1 52 9 392 19 797 4 165 12 459 20 810 3 110 7 283 10 385 2 102 7
291 10 420 3 129 8 316 10 415 3 99 7 284 10 410 3 127 7 304 10 395 3 91 7
269 10 395 12 505 15 636 30 1215 2 85 7 288 10 450 4 162 9 299 12 303 4 7
-94 7 -101 0z m-154 -281 c3 -9 3 -37 2 -62 -1 -25 -5 -175 -9 -335 -4 -159
-8 -348 -10 -420 -2 -71 -6 -247 -9 -390 -4 -143 -8 -339 -11 -435 -5 -179
-10 -403 -20 -825 -3 -132 -8 -312 -10 -400 -3 -88 -7 -272 -10 -410 -3 -137
-7 -322 -10 -410 -2 -88 -7 -272 -10 -410 -3 -137 -8 -320 -10 -405 -2 -85 -7
-281 -11 -435 -3 -154 -8 -323 -9 -375 -2 -52 -3 -125 -4 -161 l-1 -65 -67 -1
c-67 -1 -501 -10 -818 -18 -88 -2 -275 -6 -415 -10 -140 -3 -331 -8 -425 -10
-93 -2 -280 -7 -415 -10 -135 -3 -321 -7 -415 -10 -93 -2 -291 -7 -440 -10
-148 -4 -331 -8 -405 -10 -74 -2 -272 -7 -440 -10 -168 -4 -326 -8 -352 -9
l-46 -3 -21 101 c-12 56 -24 112 -26 126 -3 14 -28 138 -56 275 -28 138 -53
259 -55 270 -2 11 -16 76 -30 145 -14 69 -28 134 -30 145 -2 11 -11 54 -19 95
-8 41 -17 84 -19 95 -2 11 -21 101 -41 200 -21 99 -39 191 -42 205 -2 13 -11
56 -19 95 -13 59 -103 497 -200 975 -14 69 -28 139 -31 155 -2 17 -8 46 -13
65 -7 28 -44 208 -86 415 -2 11 -27 133 -55 270 -28 138 -52 257 -54 265 -10
49 -84 410 -126 615 -71 340 -93 455 -88 459 2 2 29 7 59 11 30 3 66 8 80 10
14 2 50 6 80 10 30 4 66 8 80 10 14 2 50 7 80 10 30 3 66 8 80 10 14 2 45 6
70 9 25 3 117 15 205 26 88 11 176 23 195 25 19 2 73 9 120 15 47 6 103 13
125 16 22 2 56 6 75 9 19 3 53 7 75 9 86 11 131 17 165 21 48 8 142 19 245 31
33 3 62 8 65 9 3 2 34 6 70 10 36 3 76 8 90 10 86 12 110 15 150 20 25 3 61 8
80 10 19 3 109 14 200 25 91 12 176 23 190 25 14 2 50 6 81 10 31 3 65 7 75 9
11 2 46 7 79 10 33 4 71 9 85 11 14 2 50 6 80 10 30 4 66 8 80 10 14 2 45 6
70 9 59 7 437 55 475 61 17 2 56 7 88 10 32 4 66 8 75 10 9 1 46 6 82 10 36 4
72 8 80 10 8 2 44 6 80 10 36 3 72 8 80 10 8 2 38 7 65 10 28 3 64 7 80 9 17
2 55 7 85 11 30 3 66 8 80 10 14 2 48 6 75 10 28 3 66 8 85 10 19 3 91 12 160
20 69 9 136 18 150 20 56 8 108 15 160 20 30 4 87 11 125 16 39 5 95 12 125
16 30 3 56 6 57 7 11 9 42 1 45 -12z"/>
<path d="M2659 4776 c-2 -2 -17 -6 -34 -9 -101 -16 -219 -70 -260 -119 -34
-41 -48 -101 -42 -184 10 -130 77 -278 210 -463 84 -117 158 -263 212 -421 66
-194 81 -217 200 -308 218 -168 381 -368 462 -566 26 -65 33 -75 34 -51 0 17
3 41 6 55 8 41 8 399 0 480 -18 182 -64 388 -122 548 -41 111 -146 325 -208
424 -92 148 -270 367 -369 457 -28 24 -38 61 -17 61 11 0 112 -94 247 -230
117 -118 232 -286 336 -490 129 -250 205 -507 236 -790 9 -86 6 -475 -4 -505
-17 -47 31 49 72 145 77 184 75 168 74 526 0 357 -8 529 -28 644 -2 14 -7 41
-10 60 -3 19 -7 43 -10 52 -3 9 -7 27 -9 39 -16 83 -83 239 -138 318 -74 109
-208 213 -339 263 -118 45 -200 60 -349 64 -80 2 -147 2 -150 0z"/>
<path d="M1735 3606 c-100 -29 -176 -69 -265 -143 -69 -56 -140 -218 -140
-319 0 -194 136 -425 300 -509 82 -42 121 -46 429 -50 275 -3 362 -7 466 -19
22 -3 67 -8 100 -12 246 -26 449 -117 508 -227 20 -39 22 -56 22 -214 0 -163
6 -209 22 -167 3 10 24 42 44 69 103 138 111 281 24 459 -45 90 -47 94 -125
195 -284 373 -672 576 -1095 575 -138 -1 -235 -12 -387 -45 -103 -23 -155 -20
-108 7 32 17 197 69 275 86 34 7 130 12 220 12 184 0 294 -19 475 -84 362
-129 632 -353 764 -634 40 -85 53 -120 75 -206 l9 -35 1 45 c0 25 -4 65 -10
90 -6 25 -12 52 -14 60 -33 153 -153 346 -314 505 -261 257 -562 435 -906 535
-131 39 -287 49 -370 26z"/>
<path d="M4865 3543 c-309 -49 -635 -233 -926 -523 -157 -157 -246 -293 -360
-552 -22 -50 -38 -92 -36 -94 15 -15 53 24 116 121 235 363 513 617 822 751
85 37 258 91 317 99 17 3 49 7 70 10 49 8 173 7 242 0 54 -6 186 -38 225 -54
65 -26 165 -77 165 -84 0 -17 -33 -19 -73 -4 -183 66 -433 80 -633 37 -77 -17
-248 -80 -328 -121 -270 -138 -542 -373 -759 -656 l-47 -61 53 14 c50 13 90
18 238 29 54 3 83 13 160 53 186 97 479 207 659 248 8 1 67 15 130 29 127 30
126 30 190 40 25 4 54 9 64 11 60 11 199 18 330 16 186 -3 188 -1 185 102 -7
204 -135 396 -340 509 -106 58 -186 79 -314 82 -66 2 -133 1 -150 -2z"/>
<path d="M3880 2338 c-108 -7 -192 -28 -266 -64 -53 -26 -136 -91 -99 -78 37
12 129 34 195 44 36 6 78 13 94 16 39 7 275 7 311 1 17 -3 50 -9 74 -12 135
-19 312 -91 445 -179 182 -121 294 -267 342 -448 28 -104 27 -290 -2 -377 -12
-37 -25 14 -26 100 -1 330 -154 567 -454 705 -273 127 -622 190 -819 149 -106
-23 -203 -75 -266 -143 -48 -52 -109 -153 -109 -181 0 -6 41 20 91 58 150 114
249 129 386 57 165 -87 430 -366 634 -667 127 -188 203 -230 399 -225 280 8
425 161 425 446 0 101 -2 108 -37 183 -30 62 -55 96 -120 160 -327 323 -758
487 -1198 455z"/>
<path d="M2740 1959 c-178 -19 -311 -97 -360 -211 -50 -115 -20 -201 115 -334
174 -172 372 -277 678 -358 115 -31 218 -30 290 2 60 27 146 114 177 177 26
54 34 139 18 188 -21 62 -100 167 -186 247 -78 73 -90 81 -117 76 -113 -22
-152 -19 -218 12 -75 35 -93 57 -101 126 -6 53 -16 65 -56 67 -14 0 -38 2 -55
4 -71 9 -124 11 -185 4z"/>
</g>
</svg>
