<?xml version="1.0" encoding="UTF-8" standalone="no"?>
<svg
   id="Layer_1"
   data-name="Layer 1"
   viewBox="0 0 125 113.38"
   version="1.1"
   sodipodi:docname="arte.svg"
   width="125"
   height="113.38"
   inkscape:version="1.2 (1:1.2.1+202207142221+cd75a1ee6d)"
   xmlns:inkscape="http://www.inkscape.org/namespaces/inkscape"
   xmlns:sodipodi="http://sodipodi.sourceforge.net/DTD/sodipodi-0.dtd"
   xmlns="http://www.w3.org/2000/svg"
   xmlns:svg="http://www.w3.org/2000/svg"
   xmlns:rdf="http://www.w3.org/1999/02/22-rdf-syntax-ns#"
   xmlns:cc="http://creativecommons.org/ns#"
   xmlns:dc="http://purl.org/dc/elements/1.1/">
  <sodipodi:namedview
     id="namedview664"
     pagecolor="#ffffff"
     bordercolor="#000000"
     borderopacity="0.25"
     inkscape:showpageshadow="2"
     inkscape:pageopacity="0.0"
     inkscape:pagecheckerboard="0"
     inkscape:deskcolor="#d1d1d1"
     showgrid="false"
     inkscape:zoom="4.4540484"
     inkscape:cx="55.455167"
     inkscape:cy="74.538929"
     inkscape:window-width="1366"
     inkscape:window-height="671"
     inkscape:window-x="0"
     inkscape:window-y="27"
     inkscape:window-maximized="1"
     inkscape:current-layer="Layer_1" />
  <defs
     id="defs645">
    <style
       id="style640">.cls-1{fill:none;}.cls-2{clip-path:url(#clip-path);}</style>
    <clipPath
       id="clip-path"
       transform="translate(-15.38 -14.17)">
      <rect
         class="cls-1"
         x="15.17"
         y="14.17"
         width="111.39"
         height="113.39"
         id="rect642" />
    </clipPath>
  </defs>
  <title
     id="title647">artes</title>
  <path
     d="m 74.274208,85.165107 a 1.8913965,1.5833256 0 0 0 2.364246,-1.074401 12.564277,10.517807 0 1 0 -12.113945,7.737564 12.620569,10.564929 0 0 0 3.20862,-0.34871 12.440435,10.414136 0 0 0 4.99869,-2.205346 1.8915649,1.5834666 0 0 0 -2.476829,-2.393839 8.5450589,7.1532392 0 0 1 -3.490076,1.536204 8.7589669,7.3323058 0 1 1 6.225847,-5.164658 1.8913965,1.5833256 0 0 0 1.283447,1.913186 z"
     id="path649"
     style="stroke-width:1.03006" />
  <path
     d="m 28.238969,84.166103 a 12.530501,10.489533 0 0 0 6.293396,1.432533 12.192753,10.206795 0 0 0 3.231137,-0.358133 12.564277,10.517807 0 1 0 -9.524533,-1.0744 z M 26.989297,71.376978 a 8.7589669,7.3323058 0 0 1 5.33644,-3.411689 8.7477086,7.3228812 0 0 1 6.653661,0.753964 8.7702252,7.3417304 0 1 1 -11.990101,2.657725 z"
     id="path651"
     style="stroke-width:1.03006" />
  <path
     d="m 27.687312,58.578429 a 12.530501,10.489533 0 1 0 -10.830496,5.240054 12.192753,10.206795 0 0 0 3.231135,-0.358132 12.541761,10.498958 0 0 0 7.644395,-4.881922 z m -3.27617,-1.602174 a 8.7702252,7.3417304 0 1 1 -9.805989,-10.791119 8.5000257,7.115541 0 0 1 2.251663,-0.245038 8.7814836,7.3511549 0 0 1 7.588102,11.036157 z"
     id="path653"
     style="stroke-width:1.03006" />
  <g
     class="cls-2"
     clip-path="url(#clip-path)"
     id="g657"
     transform="matrix(1.1258312,0,0,0.94245578,-7.4836551,-3.3974615)">
    <path
       d="M 50.49,38 A 11.16,11.16 0 1 0 44.87,58.81 10.83,10.83 0 0 0 47.74,58.43 11.16,11.16 0 0 0 50.49,38 Z m 1.13,13.56 a 7.79,7.79 0 1 1 -8.73,-11.45 7.77,7.77 0 0 1 5.91,0.8 7.78,7.78 0 0 1 2.82,10.65 z"
       transform="translate(-15.38,-14.17)"
       id="path655" />
  </g>
  <g
     class="cls-2"
     clip-path="url(#clip-path)"
     id="g661"
     transform="matrix(1.1258312,0,0,0.94245578,-7.4836551,-3.3974615)">
    <path
       d="m 126.44,48.12 c 1.22,-15 -15.9,-32.7 -16.63,-33.44 a 1.69,1.69 0 0 0 -2.89,1.17 c 0,4.94 -3.7,9.48 -10.93,16.66 A 19.74,19.74 0 0 0 90.36,49.75 14.25,14.25 0 0 0 97.43,60 v 0.6 L 97,60.7 A 33.33,33.33 0 0 1 82.64,61.26 C 76.24,60 71.73,56.61 70.56,52.19 c -1.59,-6 3,-13 11.47,-17.56 a 9.22,9.22 0 0 0 4.85,-7.4 9.65,9.65 0 0 0 -8.35,-10.36 61,61 0 0 0 -23.07,1.13 52.33,52.33 0 0 0 -14.82,6.5 1.68,1.68 0 1 0 1.81,2.83 49.09,49.09 0 0 1 13.87,-6.13 57.55,57.55 0 0 1 21.76,-1 6.28,6.28 0 0 1 5.43,6.8 5.87,5.87 0 0 1 -3.08,4.7 28.8,28.8 0 0 0 -10.81,9.48 c -2.54,3.94 -3.34,8.06 -2.32,11.91 1.53,5.74 6.87,9.91 14.7,11.47 a 33,33 0 0 0 6.35,0.6 38.7,38.7 0 0 0 9.34,-1.16 l 0.8,11.56 h -0.22 a 9.44,9.44 0 0 0 1.51,18.52 l 1.31,18.78 a 51.81,51.81 0 0 1 -80.8,-29.3 52.28,52.28 0 0 1 18.08,-53.39 1.6804761,1.6804761 0 1 0 -2.08,-2.64 55.41,55.41 0 0 0 6.26,91.05 54.87,54.87 0 0 0 27.94,7.68 55.51,55.51 0 0 0 14.3,-1.88 54.58,54.58 0 0 0 16.59,-7.55 l 0.42,6 c 0.18,2.67 3,4.7 6.64,4.71 v 0 a 8.28,8.28 0 0 0 4.3,-1.14 4.61,4.61 0 0 0 2.35,-3.51 l 1.7,-21.85 a 55.29,55.29 0 0 0 9,-29.6 c 0,-0.24 0,-0.49 0,-0.74 a 14.81,14.81 0 0 0 -5.68,-10.89 16.18,16.18 0 0 0 6.35,-11.7 z m -32.76,1 A 16.32,16.32 0 0 1 98.36,34.9 c 6.23,-6.18 10,-10.65 11.38,-15.27 4.57,5.33 14.18,17.87 13.34,28.22 a 12.82,12.82 0 0 1 -5.21,9.44 L 99.42,57.21 a 10.71,10.71 0 0 1 -5.74,-8.06 z m 7.17,11.44 15.76,0.07 L 115.28,77.7 102,77.67 Z m -6,25.69 A 6.07,6.07 0 0 1 98.76,79 l 0.81,11.71 A 6,6 0 0 1 94.84,86.3 Z m 16.94,36.36 a 1.41,1.41 0 0 1 -0.77,0.91 4.86,4.86 0 0 1 -2.52,0.64 v 0 c -1.95,0 -3.26,-0.94 -3.3,-1.58 L 102.27,81 h 12.75 z M 122.42,70.9 c 0,0.18 0,0.35 0,0.51 a 51.61,51.61 0 0 1 -5,21.62 l 2.26,-28.94 a 11.55,11.55 0 0 1 2.7,6.81 z"
       transform="translate(-15.38,-14.17)"
       id="path659" />
  </g>
  <metadata
     id="metadata666">
    <rdf:RDF>
      <cc:Work
         rdf:about="">
        <dc:title>artes</dc:title>
      </cc:Work>
    </rdf:RDF>
  </metadata>
</svg>
