<?xml version="1.0" encoding="UTF-8" standalone="no"?>
<svg
   id="Layer_1"
   data-name="Layer 1"
   viewBox="0 0 126.78 113.39"
   version="1.1"
   sodipodi:docname="educacao-especial.svg"
   inkscape:version="1.2 (1:1.2.1+202207142221+cd75a1ee6d)"
   xmlns:inkscape="http://www.inkscape.org/namespaces/inkscape"
   xmlns:sodipodi="http://sodipodi.sourceforge.net/DTD/sodipodi-0.dtd"
   xmlns="http://www.w3.org/2000/svg"
   xmlns:svg="http://www.w3.org/2000/svg">
  <sodipodi:namedview
     id="namedview19"
     pagecolor="#ffffff"
     bordercolor="#000000"
     borderopacity="0.25"
     inkscape:showpageshadow="2"
     inkscape:pageopacity="0.0"
     inkscape:pagecheckerboard="0"
     inkscape:deskcolor="#d1d1d1"
     showgrid="false"
     inkscape:zoom="4.4536555"
     inkscape:cx="63.431039"
     inkscape:cy="56.807267"
     inkscape:window-width="1366"
     inkscape:window-height="671"
     inkscape:window-x="0"
     inkscape:window-y="27"
     inkscape:window-maximized="1"
     inkscape:current-layer="Layer_1" />
  <defs
     id="defs4">
    <style
       id="style2">.cls-1{fill:#fff;}</style>
  </defs>
  <title
     id="title6">eespecial</title>
  <path
     class="cls-1"
     d="M63.58,98.28A26.81,26.81,0,1,1,36.77,71.47,26.81,26.81,0,0,1,63.58,98.28Z"
     transform="translate(-7.5 -14.17)"
     id="path8"
     style="fill:none" />
  <path
     d="M46.17,98.28a9.4,9.4,0,1,0-9.4,9.4,9.41,9.41,0,0,0,9.4-9.4Zm-13.84,0a4.45,4.45,0,1,1,4.45,4.45,4.45,4.45,0,0,1-4.45-4.45Z"
     transform="translate(-7.5 -14.17)"
     id="path10" />
  <path
     d="M118.39,122.6a2.46,2.46,0,0,0-1.75.73,2.5,2.5,0,0,0-.73,1.75,2.46,2.46,0,0,0,.73,1.75,2.5,2.5,0,0,0,1.75.73,2.46,2.46,0,0,0,1.75-.73,2.5,2.5,0,0,0,.73-1.75,2.49,2.49,0,0,0-2.48-2.48Z"
     transform="translate(-7.5 -14.17)"
     id="path12" />
  <path
     d="M131.76,65.17H123a10.12,10.12,0,0,0,1.45-5.23,10.28,10.28,0,0,0-1.2-4.8l-8.29-15.49v-23a2.48,2.48,0,0,0-5,0V58.73a2.48,2.48,0,0,0,5,0V50.14l3.92,7.33a5.32,5.32,0,0,1,.62,2.47,5.24,5.24,0,0,1-5.23,5.23H101.55a9.4,9.4,0,0,0-15.84-6.34,7.6,7.6,0,0,0-6.43-3.56H69.08a30.79,30.79,0,0,1-11.63-2.21A11.17,11.17,0,1,0,43,53.25a11.88,11.88,0,0,0-4.75,9.5V69c-.48,0-1,0-1.44,0a29.33,29.33,0,0,0-7.94,1.09V58a2.48,2.48,0,0,0-2.48-2.48h-12a6.8,6.8,0,1,0,0,13.6h9.59V72A29.3,29.3,0,0,0,9.76,109.57a2.48,2.48,0,1,0,4.57-1.91,24.07,24.07,0,0,1-1.88-9.39A24.32,24.32,0,1,1,26.88,120.5a2.48,2.48,0,1,0-2,4.52,29.29,29.29,0,0,0,35.31-9.15H70a8.24,8.24,0,0,0-.71,3.37,8.32,8.32,0,1,0,15.93-3.37h3v9.2a2.48,2.48,0,1,0,5,0V80H116v35.15a2.48,2.48,0,0,0,5,0V80H131.8a2.48,2.48,0,0,0,2.48-2.48v-9.9a2.54,2.54,0,0,0-2.52-2.47Zm-117.46-1a1.85,1.85,0,1,1,0-3.7h9.59v3.7Zm77.85-3a4.47,4.47,0,0,1,4.43,4H87.72a4.47,4.47,0,0,1,4.43-4ZM43.88,44.66a6.22,6.22,0,1,1,6.37,6.21h-.31a6.21,6.21,0,0,1-6.06-6.21Zm-.72,25V62.76a6.94,6.94,0,0,1,6.77-6.93h.31a6.83,6.83,0,0,1,3,.74,35.16,35.16,0,0,0,15.86,3.65H79.26a2.56,2.56,0,0,1,2.58,2.24,2.47,2.47,0,0,1-2.47,2.7H59.5A2.48,2.48,0,0,0,57,67.64v9.5A29.2,29.2,0,0,0,43.16,69.7Zm22.9,28.58c0-.31,0-.63,0-.94l6.17,13.59h-9a29,29,0,0,0,2.88-12.65Zm14.93,21a3.37,3.37,0,1,1-3.36-3.37A3.37,3.37,0,0,1,81,119.24Zm-3.34-8.31L69.29,92.52A2.47,2.47,0,0,0,67,91.07H65.16a29.09,29.09,0,0,0-3.4-8H64.4a8.75,8.75,0,0,1,8.21,5.62l6.79,17.44a2.48,2.48,0,0,0,2.31,1.58,4.25,4.25,0,0,1,4.13,3.27Zm10.54-5.53a9.18,9.18,0,0,0-4.73-2.52l-6.24-16a13.67,13.67,0,0,0-12.83-8.77H62v-8H74.82v7.43A2.48,2.48,0,0,0,77.3,80H88.19Zm41.1-30.33H79.78V70.12h49.51Z"
     transform="translate(-7.5 -14.17)"
     id="path14" />
  <path
     d="M20.08,117a2.48,2.48,0,1,1-2.48-2.48A2.48,2.48,0,0,1,20.08,117Z"
     transform="translate(-7.5 -14.17)"
     id="path16" />
</svg>
