<?xml version="1.0" encoding="UTF-8" standalone="no"?>
<svg
   id="Layer_1"
   data-name="Layer 1"
   viewBox="0 0 128.81 114.36"
   version="1.1"
   sodipodi:docname="fisica.svg"
   inkscape:version="1.2 (1:1.2.1+202207142221+cd75a1ee6d)"
   xmlns:inkscape="http://www.inkscape.org/namespaces/inkscape"
   xmlns:sodipodi="http://sodipodi.sourceforge.net/DTD/sodipodi-0.dtd"
   xmlns="http://www.w3.org/2000/svg"
   xmlns:svg="http://www.w3.org/2000/svg">
  <defs
     id="defs244" />
  <sodipodi:namedview
     id="namedview242"
     pagecolor="#ffffff"
     bordercolor="#000000"
     borderopacity="0.25"
     inkscape:showpageshadow="2"
     inkscape:pageopacity="0.0"
     inkscape:pagecheckerboard="0"
     inkscape:deskcolor="#d1d1d1"
     showgrid="false"
     inkscape:zoom="3.1224984"
     inkscape:cx="64.371529"
     inkscape:cy="57.005633"
     inkscape:window-width="1366"
     inkscape:window-height="671"
     inkscape:window-x="0"
     inkscape:window-y="27"
     inkscape:window-maximized="1"
     inkscape:current-layer="Layer_1" />
  <title
     id="title235">fisica</title>
  <path
     d="m 64.409221,47.840427 a 9.4121307,9.3226762 0 1 0 9.395248,9.322676 9.4205721,9.3310373 0 0 0 -9.395248,-9.322676 z m 0,14.255751 a 4.9719686,4.9247142 0 1 1 4.971968,-4.924714 4.9719686,4.9247142 0 0 1 -4.971968,4.924714 z"
     id="path237"
     style="stroke-width:0.840116" />
  <path
     d="m 118.77166,57.171464 c 0,-3.294291 -1.87398,-6.362831 -5.57975,-9.13037 a 7.0232222,6.9564723 0 0 0 0.18571,-1.555173 7.5972355,7.5250301 0 0 0 -13.565282,-4.665518 c -1.992164,-0.610364 -3.899914,-1.128755 -5.816106,-1.571896 a 81.881316,81.103102 0 0 0 2.034371,-7.993254 C 98.208477,21.134931 96.629941,13.417595 91.590441,10.516277 85.377591,6.9878744 75.492743,11.678476 64.400779,23.417523 53.317257,11.670115 43.415526,6.9795132 37.219559,10.533 c -1.924633,1.103671 -4.36419,3.561847 -5.140796,9.021675 a 7.5972355,7.5250301 0 0 0 1.207116,14.83267 c 0.472717,2.065203 0.987641,4.004988 1.570095,5.91969 -15.793808,3.637098 -24.817636,9.765817 -24.817636,16.864429 0,7.098612 9.032269,13.227331 24.809195,16.830984 -0.422069,1.362867 -0.844137,2.734094 -1.156468,4.096961 a 7.5972355,7.5250301 0 0 0 -1.823337,14.815948 c 0.43051,6.688916 3.140191,9.598593 5.343389,10.869493 a 9.1335654,9.0467584 0 0 0 4.634314,1.17892 c 5.984933,0 13.987355,-5.01669 22.546907,-14.07181 8.567993,9.096925 16.553532,14.09689 22.546907,14.09689 v 0 a 9.192655,9.1052864 0 0 0 4.634313,-1.17892 c 5.064824,-2.8846 6.618037,-10.601933 4.440163,-21.738977 A 78.175554,77.43256 0 0 0 93.954026,74.002448 C 109.74783,70.398795 118.77166,64.261715 118.77166,57.171464 Z M 37.008525,85.70805 a 3.1739562,3.1437904 0 1 1 -3.173957,-3.14379 3.1823976,3.1521515 0 0 1 3.173957,3.14379 z m 33.090181,-8.603617 c -1.865543,2.508343 -3.773294,4.941436 -5.689485,7.190584 -1.924633,-2.257509 -3.840825,-4.665519 -5.689486,-7.190584 1.96684,0.07525 3.874591,0.117056 5.689486,0.117056 1.814895,0 3.756411,-0.08361 5.689485,-0.158862 z M 44.133043,52.1715 c -1.325295,-2.926401 -2.532412,-5.785912 -3.50317,-8.528368 2.962922,-0.535113 6.060906,-0.969893 9.226421,-1.304338 -1.038289,1.622062 -2.02593,3.244124 -2.946039,4.82438 -0.92011,1.580256 -1.806454,3.135429 -2.777212,5.008326 z m -3.486287,18.528296 c 1.029848,-2.842789 2.203199,-5.710662 3.486287,-8.536729 1.004524,1.881258 1.890868,3.494959 2.777212,5.016687 0.886344,1.521728 1.933074,3.235763 2.946039,4.824381 -3.165515,-0.342807 -6.255057,-0.777587 -9.209538,-1.304339 z M 82.288048,57.171464 c -1.367502,2.709011 -2.785653,5.33441 -4.220686,7.809309 -1.435033,2.474899 -3.038894,5.016687 -4.718728,7.52503 -3.030452,0.200668 -6.035581,0.301001 -8.930972,0.301001 -2.895391,0 -5.908961,-0.100333 -8.922531,-0.301001 -1.688275,-2.508343 -3.266811,-5.016687 -4.727169,-7.52503 -1.460357,-2.508343 -2.870067,-5.100298 -4.220686,-7.809309 1.342178,-2.658844 2.760329,-5.284243 4.220686,-7.800948 1.460358,-2.516704 3.038894,-5.016687 4.727169,-7.52503 3.022011,-0.200667 6.02714,-0.301001 8.930972,-0.301001 2.903833,0 5.908961,0.09197 8.905649,0.275918 1.688274,2.508343 3.283694,5.016686 4.744051,7.52503 1.460358,2.508343 2.844743,5.11702 4.212245,7.826031 z m 2.388909,5.016687 c 1.350619,2.976567 2.532412,5.852801 3.511611,8.528367 -2.962922,0.535114 -6.060906,0.969893 -9.226421,1.304339 1.012965,-1.588618 2.000606,-3.21068 2.937598,-4.824381 0.936993,-1.6137 1.764247,-3.127068 2.777212,-5.033409 z M 78.911499,42.280266 c 3.249929,0.326084 6.373237,0.752503 9.28551,1.279255 -0.98764,2.717372 -2.177874,5.610328 -3.536935,8.611979 -1.012965,-1.89798 -1.899309,-3.50332 -2.777212,-5.016687 v 0 C 80.971194,45.574557 79.966671,43.902328 78.911499,42.280266 Z M 91.674855,31.410778 A 77.761926,77.022864 0 0 1 89.632043,39.345504 128.98418,127.75829 0 0 0 75.796633,37.581302 131.26335,130.0158 0 0 0 67.35526,26.711814 c 9.479661,-10.217318 17.676234,-14.849392 21.947569,-12.391216 3.300577,1.864535 4.136273,8.085227 2.372026,17.098541 z m -27.265634,5.735745 c -1.823337,0 -3.731087,0 -5.689486,0.117056 1.865544,-2.508344 3.773294,-4.949798 5.689486,-7.190584 1.924633,2.257509 3.840824,4.673879 5.697926,7.190584 -2.144108,-0.05017 -3.975886,-0.108695 -5.697926,-0.108695 z M 53.004926,37.598025 A 129.153,127.92551 0 0 0 39.19484,39.404032 c -0.61622,-1.97323 -1.148027,-3.938099 -1.612302,-5.98658 A 7.5972355,7.5250301 0 0 0 36.502042,19.855676 c 0.438952,-2.800984 1.426592,-4.657158 2.937598,-5.518356 4.288217,-2.458176 12.493232,2.173898 21.947569,12.391217 A 134.80028,133.51912 0 0 0 53.004926,37.606386 Z M 36.248801,44.529413 A 128.30887,127.0894 0 0 0 41.59219,57.179825 128.73094,127.50745 0 0 0 36.257242,69.821876 C 22.607543,66.795141 14.4785,62.079456 14.4785,57.171464 c 0,-4.907992 8.129043,-9.623677 21.770301,-12.642051 z m 5.199886,41.178637 a 7.5297046,7.458141 0 0 0 -3.494729,-6.304303 c 0.371421,-1.4632 0.785048,-2.951484 1.249323,-4.423045 a 131.38153,130.13285 0 0 0 13.793204,1.789285 129.00106,127.77501 0 0 0 8.441372,10.869488 C 51.958196,97.848432 43.761623,102.48051 39.490288,100.02233 37.244883,98.734714 36.535808,95.448784 36.358539,92.78994 a 7.5465873,7.4748632 0 0 0 5.090148,-7.08189 z m 34.364828,-8.979869 a 129.30495,128.07601 0 0 0 13.801645,-1.797646 75.69379,74.974383 0 0 1 2.059695,7.984893 c 1.764247,9.004953 0.92011,15.234006 -2.304495,17.073457 C 85.082143,102.44706 76.88557,97.814988 67.422791,87.597669 A 128.67185,127.44893 0 0 0 75.813515,76.728181 Z M 92.56964,69.821876 A 126.69656,125.49242 0 0 0 87.226251,57.171464 126.72189,125.5175 0 0 0 92.594965,44.437441 c 1.823336,0.409696 3.655114,0.903003 5.588188,1.488284 a 4.1447141,4.105322 0 0 0 0,0.560196 7.5972355,7.5250301 0 0 0 7.597237,7.52503 7.4959391,7.4246964 0 0 0 5.25053,-2.107008 c 1.57854,1.270894 3.31746,3.152151 3.31746,5.250799 -0.0253,4.916353 -8.13748,9.632038 -21.77874,12.667134 z M 33.834568,30.031189 a 3.1739562,3.1437904 0 1 1 3.173957,-3.143791 3.1823976,3.1521515 0 0 1 -3.173957,3.143791 z M 102.58955,46.47756 a 3.1739562,3.1437904 0 1 1 3.17396,3.143791 3.1823976,3.1521515 0 0 1 -3.17396,-3.143791 z"
     id="path239"
     style="stroke-width:0.840116" />
</svg>
