<?xml version="1.0" encoding="UTF-8" standalone="no"?>
<svg
   id="Layer_1"
   data-name="Layer 1"
   viewBox="0 0 125 113"
   version="1.1"
   sodipodi:docname="geografia.svg"
   inkscape:version="1.2 (1:1.2.1+202207142221+cd75a1ee6d)"
   width="125"
   height="113"
   xmlns:inkscape="http://www.inkscape.org/namespaces/inkscape"
   xmlns:sodipodi="http://sodipodi.sourceforge.net/DTD/sodipodi-0.dtd"
   xmlns="http://www.w3.org/2000/svg"
   xmlns:svg="http://www.w3.org/2000/svg"
   xmlns:rdf="http://www.w3.org/1999/02/22-rdf-syntax-ns#"
   xmlns:cc="http://creativecommons.org/ns#"
   xmlns:dc="http://purl.org/dc/elements/1.1/">
  <sodipodi:namedview
     id="namedview270"
     pagecolor="#ffffff"
     bordercolor="#000000"
     borderopacity="0.25"
     inkscape:showpageshadow="2"
     inkscape:pageopacity="0.0"
     inkscape:pagecheckerboard="0"
     inkscape:deskcolor="#d1d1d1"
     showgrid="false"
     inkscape:zoom="4.4151076"
     inkscape:cx="43.940039"
     inkscape:cy="67.269029"
     inkscape:window-width="1366"
     inkscape:window-height="671"
     inkscape:window-x="0"
     inkscape:window-y="27"
     inkscape:window-maximized="1"
     inkscape:current-layer="Layer_1" />
  <defs
     id="defs257">
    <style
       id="style252">.cls-1{fill:none;}.cls-2{fill:#fee55b;}.cls-2,.cls-4{stroke:#000;stroke-miterlimit:10;}.cls-3{clip-path:url(#clip-path);}.cls-4{fill:#231f20;}</style>
    <clipPath
       id="clip-path"
       transform="translate(-13.67 -13.66)">
      <rect
         class="cls-1"
         x="8.8800001"
         y="9.46"
         width="122.26"
         height="122.21"
         id="rect254" />
    </clipPath>
  </defs>
  <title
     id="title259">geografia</title>
  <g
     class="cls-3"
     clip-path="url(#clip-path)"
     id="g265"
     transform="matrix(1.0461702,0,0,0.92324963,-2.1530459,1.2610237)">
    <path
       class="cls-4"
       d="m 126.41,82.47 a 58.52,58.52 0 0 0 1.06,-14.71 56.35,56.35 0 0 0 -26.93,-45.18 0.09,0.09 0 0 1 -0.09,-0.09 56.7,56.7 0 1 0 25.86,60.05 z M 100.81,26.4 a 53.69,53.69 0 0 1 22.94,35.79 c 0.09,0.44 0.09,0.89 0.18,1.24 L 113.39,53 a 1.62,1.62 0 0 0 -1.06,-0.44 h -9.74 L 95.33,45.3 V 30.56 L 100,25.87 a 3.06,3.06 0 0 0 0.79,0.53 z M 43.05,25.07 a 49.62,49.62 0 0 1 9.74,-4.61 l -7.35,7.35 h -6.38 c 1.33,-1 2.66,-1.94 4,-2.74 z M 27.73,40.13 a 1.42,1.42 0 0 0 1.06,1.24 l 9.74,3.37 2.84,6 a 1.53,1.53 0 0 0 1.15,0.89 l 5.58,1.06 a 1.82,1.82 0 0 0 1.33,-0.35 l 2.84,-2.66 h 3.54 a 9.48,9.48 0 0 0 2.3,2.3 37.38,37.38 0 0 0 3,6.64 2,2 0 0 0 1.59,1.15 c 1.15,0 1.68,-1.24 2.13,-2.13 a 31,31 0 0 0 1.86,-3.9 l 2.3,2.3 a 1.62,1.62 0 0 0 1.06,0.44 h 3.19 l 4.53,4.52 0.27,0.27 13.38,8.33 v 2.13 l -4.34,4.34 a 1.62,1.62 0 0 0 -0.44,1.06 v 4.61 l -9.74,6.13 a 1.58,1.58 0 0 0 -0.71,1.33 v 2.92 l -6.55,6.55 -10.28,4.7 a 2,2 0 0 0 -0.8,0.89 l -2.84,8 H 55.1 l -1.24,-3.72 3,-26.13 a 1.5,1.5 0 0 0 -0.8,-1.51 l -6.28,-3.4 -5.31,-10 3.72,-10.19 a 1.51,1.51 0 0 0 -0.89,-2 c -0.09,0 -0.09,0 -0.18,-0.09 l -8,-1.77 -3.1,-6.82 a 1.57,1.57 0 0 0 -0.89,-0.8 l -7,-2.74 -2.13,-1.28 0.53,-0.8 c 0.35,-0.53 0.8,-1.06 1.15,-1.68 z m 37.64,9.39 c -0.71,0.44 -0.8,1 -1.06,1.77 A 31.34,31.34 0 0 1 62.71,55 18.81,18.81 0 0 1 61.2,51.37 3.07,3.07 0 0 0 60.31,49.69 13.7,13.7 0 0 1 59,48.64 6.63,6.63 0 0 1 58.11,47.4 a 5.21,5.21 0 1 1 7.28,2.12 z m 5.5,74.94 A 53.53,53.53 0 0 1 17.28,71 52.77,52.77 0 0 1 24.37,44.43 l 2.3,1.42 a 0.33,0.33 0 0 0 0.27,0.09 l 6.55,2.57 3.1,7 a 1.55,1.55 0 0 0 1.06,0.89 l 7.09,1.6 -3.37,9.12 a 1.48,1.48 0 0 0 0.09,1.24 l 5.85,11.07 a 1.37,1.37 0 0 0 0.62,0.62 l 5.76,3.1 -2.92,25.42 a 1.93,1.93 0 0 0 0.09,0.71 l 1.77,5.14 a 1.55,1.55 0 0 0 1.51,1.06 H 57 a 1.52,1.52 0 0 0 1.42,-1.06 l 3,-8.33 10,-4.7 c 0.18,-0.09 0.27,-0.18 0.44,-0.27 L 79,93.89 a 1.62,1.62 0 0 0 0.44,-1.06 V 90.09 L 89.21,84 a 1.58,1.58 0 0 0 0.71,-1.33 v -4.8 l 4.34,-4.34 A 1.62,1.62 0 0 0 94.7,72.47 V 68.84 A 1.58,1.58 0 0 0 94,67.51 L 80,58.83 75.12,54 a 1.62,1.62 0 0 0 -1.06,-0.44 h -3.19 l -2.3,-2.3 A 8.3479608,8.3479608 0 1 0 57.14,39.09 7.52,7.52 0 0 0 54.57,46.53 h -2.92 a 1.65,1.65 0 0 0 -1.06,0.44 l -2.75,2.48 -4,-0.71 -2.74,-5.85 a 1.58,1.58 0 0 0 -0.89,-0.8 L 30.73,38.81 30.37,36 a 42.89,42.89 0 0 1 4.43,-4.52 l 1.06,-0.53 h 10.19 a 1.48,1.48 0 0 0 1.06,-0.44 L 59,18.6 a 53.17,53.17 0 0 1 38.18,5.58 l -4.61,4.61 a 1.62,1.62 0 0 0 -0.44,1.06 V 45.8 a 1.48,1.48 0 0 0 0.44,1.06 l 8.15,8.14 a 1.62,1.62 0 0 0 1.06,0.44 h 9.74 l 11.34,11.34 v 15 a 2.07,2.07 0 0 0 0.18,0.71 53.44,53.44 0 0 1 -52.17,42 z"
       transform="translate(-13.67,-13.66)"
       id="path263" />
  </g>
  <path
     class="cls-4"
     d="m 47.061871,28.574234 h -1.68 a 1.6,1.6 0 0 0 0,3.19 h 1.68 a 1.6,1.6 0 1 0 0,-3.19 z"
     id="path267" />
  <metadata
     id="metadata616">
    <rdf:RDF>
      <cc:Work
         rdf:about="">
        <dc:title>geografia</dc:title>
      </cc:Work>
    </rdf:RDF>
  </metadata>
</svg>
