<?xml version="1.0" encoding="UTF-8" standalone="no"?>
<svg
   id="Layer_1"
   data-name="Layer 1"
   viewBox="0 0 125 113"
   version="1.1"
   sodipodi:docname="historia.svg"
   inkscape:version="1.2 (1:1.2.1+202207142221+cd75a1ee6d)"
   width="125"
   height="113"
   xmlns:inkscape="http://www.inkscape.org/namespaces/inkscape"
   xmlns:sodipodi="http://sodipodi.sourceforge.net/DTD/sodipodi-0.dtd"
   xmlns="http://www.w3.org/2000/svg"
   xmlns:svg="http://www.w3.org/2000/svg"
   xmlns:rdf="http://www.w3.org/1999/02/22-rdf-syntax-ns#"
   xmlns:cc="http://creativecommons.org/ns#"
   xmlns:dc="http://purl.org/dc/elements/1.1/">
  <defs
     id="defs304" />
  <sodipodi:namedview
     id="namedview302"
     pagecolor="#ffffff"
     bordercolor="#000000"
     borderopacity="0.25"
     inkscape:showpageshadow="2"
     inkscape:pageopacity="0.0"
     inkscape:pagecheckerboard="0"
     inkscape:deskcolor="#d1d1d1"
     showgrid="false"
     inkscape:zoom="4.4544411"
     inkscape:cx="56.797249"
     inkscape:cy="92.491963"
     inkscape:window-width="1366"
     inkscape:window-height="671"
     inkscape:window-x="0"
     inkscape:window-y="27"
     inkscape:window-maximized="1"
     inkscape:current-layer="Layer_1" />
  <title
     id="title283">historia</title>
  <path
     d="M 104.43536,80.933143 V 38.499027 a 2.1042467,1.9564639 0 0 0 -0.86255,-1.57751 l -5.184788,-3.525159 4.075788,-2.370671 a 2.094768,1.9476511 0 0 0 0.15166,-3.207897 l -3.791433,-2.643869 v -1.242619 h 3.497603 a 2.094768,1.9476511 0 0 0 2.09476,-1.947651 V 18.079536 A 12.407472,11.536087 0 0 0 92.027889,6.5610749 H 20.274977 a 10.852984,10.090771 0 0 0 -8.644472,4.2478181 17.127809,15.924912 0 0 0 -3.3269852,9.694192 c 0,6.521545 4.5876372,11.826911 10.2368752,11.826911 h 11.611271 v 30.933282 a 2.1042467,1.9564639 0 0 0 0.947859,1.639199 l 4.113708,2.476425 -4.331716,3.622102 a 2.094768,1.9476511 0 0 0 -0.729851,1.498194 v 16.911956 a 1.8957176,1.7625802 0 0 0 0,0.308452 1.9620678,1.8242704 0 0 0 0,0.308451 c 0,4.961663 1.374395,9.147791 3.990486,12.082483 a 12.871923,11.967919 0 0 0 10.085217,4.40645 h 57.743561 a 13.848217,12.875647 0 0 0 2.51182,-25.557407 z M 25.526114,28.434694 a 8.4359435,7.8434816 0 0 0 0.94786,-3.67498 c 0,-4.503392 -3.137414,-7.640785 -7.58287,-7.640785 a 2.0947684,1.9476515 0 0 0 0,3.895303 c 2.142159,0 3.42177,1.401252 3.42177,3.73667 a 3.7914353,3.5251603 0 0 1 -3.753522,3.683792 c -3.270113,0 -6.037861,-3.630915 -6.037861,-7.931609 0,-5.534503 3.488121,-10.029081 7.772442,-10.029081 a 8.7297797,8.1166814 0 0 1 6.890934,2.546926 c 1.981026,2.079846 2.985756,5.463999 2.985756,10.037895 v 5.375869 z M 37.37435,99.607679 c -1.981026,-2.229664 -3.023671,-5.552126 -3.023671,-9.606061 a 1.9525892,1.8154575 0 0 1 0,-0.616903 V 73.327609 l 5.687154,-4.750152 a 2.1042467,1.9564639 0 0 0 -0.227486,-3.12858 L 34.350679,62.188104 V 23.050011 c 0,-5.534501 -1.345958,-9.773505 -3.999965,-12.584821 h 61.70561 a 8.1989788,7.6231591 0 0 1 8.189496,7.614346 v 1.947652 h -3.497593 a 2.094768,1.9476511 0 0 0 -2.094768,1.94765 v 4.159689 a 2.1232038,1.9740898 0 0 0 0.834115,1.559883 l 2.189553,1.542259 -4.132663,2.405921 a 2.1042467,1.9564639 0 0 0 -0.123222,3.234335 l 6.834058,4.617959 v 41.22675 H 46.890852 a 1.5734456,1.4629416 0 0 0 -0.303314,0 c -0.199052,0 -0.40758,0 -0.60663,0 a 7.9714927,7.4116495 0 0 0 -7.962015,7.579094 c 0,4.503393 3.137413,7.640785 7.582871,7.640785 a 2.094768,1.9476511 0 1 0 0,-3.895302 c -2.14216,0 -3.421769,-1.40125 -3.421769,-3.73667 a 3.7914353,3.5251603 0 0 1 3.791434,-3.674979 c 3.270113,0 6.03786,3.630914 6.03786,7.93161 0,5.534501 -3.48812,10.029078 -7.772442,10.029078 a 8.6349938,8.0285525 0 0 1 -6.871976,-2.996384 z m 64.53971,2.987571 H 52.540089 l 0.322273,-0.37014 a 16.957194,15.766279 0 0 0 3.308027,-8.99797 h 32.729565 a 2.094768,1.9476511 0 0 0 0,-3.895302 H 55.791248 A 13.838739,12.866834 0 0 0 53.54482,84.652186 h 48.3408 a 9.6492033,8.9715333 0 1 1 0,17.943064 z"
     id="path285"
     style="stroke-width:0.913968" />
  <path
     d="m 48.047239,25.685069 a 2.1516395,2.0005285 0 0 0 1.48814,-0.572838 2.1137252,1.9652769 0 0 0 0.616107,-1.383626 2.1516395,2.0005285 0 0 0 -0.616107,-1.383625 2.1137252,1.9652769 0 0 0 -1.48814,-0.572838 2.1516395,2.0005285 0 0 0 -1.488137,0.572838 2.1137252,1.9652769 0 0 0 -0.616108,1.383625 2.1516395,2.0005285 0 0 0 0.616108,1.383626 2.1137252,1.9652769 0 0 0 1.488137,0.572838 z"
     id="path287"
     style="stroke-width:0.913968" />
  <path
     d="m 56.995028,25.685069 h 30.331481 a 2.094768,1.9476511 0 1 0 0,-3.895301 H 56.995028 a 2.094768,1.9476511 0 1 0 0,3.895301 z"
     id="path289"
     style="stroke-width:0.913968" />
  <path
     d="m 48.047239,36.613067 h 39.250835 a 2.0947684,1.9476515 0 1 0 0,-3.895303 H 48.047239 a 2.0947684,1.9476515 0 1 0 0,3.895303 z"
     id="path291"
     style="stroke-width:0.913968" />
  <path
     d="m 48.047239,47.541062 h 39.250835 a 2.094768,1.9476511 0 1 0 0,-3.895301 H 48.047239 a 2.094768,1.9476511 0 0 0 0,3.895301 z"
     id="path293"
     style="stroke-width:0.913968" />
  <path
     d="m 48.047239,58.469059 h 39.250835 a 2.094768,1.9476511 0 0 0 0,-3.895302 H 48.047239 a 2.094768,1.9476511 0 0 0 0,3.895302 z"
     id="path295"
     style="stroke-width:0.913968" />
  <path
     d="m 48.047239,69.397057 h 39.250835 a 2.0947684,1.9476515 0 1 0 0,-3.895303 H 48.047239 a 2.0947684,1.9476515 0 1 0 0,3.895303 z"
     id="path297"
     style="stroke-width:0.913968" />
  <path
     d="m 93.64,93.89 a 2.27,2.27 0 0 0 -1.57,0.65 2.23,2.23 0 0 0 -0.65,1.57 2.27,2.27 0 0 0 0.65,1.57 2.23,2.23 0 0 0 1.57,0.65 2.27,2.27 0 0 0 1.57,-0.65 2.23,2.23 0 0 0 0.65,-1.57 2.22,2.22 0 0 0 -2.22,-2.22 z"
     id="path299" />
  <metadata
     id="metadata318">
    <rdf:RDF>
      <cc:Work
         rdf:about="">
        <dc:title>historia</dc:title>
      </cc:Work>
    </rdf:RDF>
  </metadata>
</svg>
