<?xml version="1.0" encoding="utf-8"?>
<!-- Generator: Adobe Illustrator 23.0.0, SVG Export Plug-In . SVG Version: 6.00 Build 0)  -->
<svg version="1.1" id="Layer_1" xmlns="http://www.w3.org/2000/svg" xmlns:xlink="http://www.w3.org/1999/xlink" x="0px" y="0px"
	 viewBox="0 0 555.5 85.7" style="enable-background:new 0 0 555.5 85.7;" xml:space="preserve">
<style type="text/css">
	.st0{fill:#FFFFFF;stroke:#FFFFFF;stroke-width:0.1;stroke-miterlimit:10;}
</style>
<title>logo</title>
<g>
	<path class="st0" d="M111.9,29.2c0.5,0,1.1,0.1,1.7,0.1h0.5c2.3,0.2,4.4,0.8,6.5,1.7c1,0.6,2,1.3,2.8,2.2c1.4,1.8,2,3.2,2,4.4
		c0.2,0.4,0.2,0.8,0.3,1.2c-0.2,1.9-0.6,3.8-1.2,5.4c-0.8,1.8-2.1,3.1-3.7,3.7c-1.9,0.6-3.8,0.9-5.8,1.2l-0.3,0.2l0.1,0.5
		c0,0.4,0,0.6-0.1,0.9c0,2,0.1,3.2,0.1,3.5s0,0.4,0,0.4c0.1,1.5,0.1,2.7,0.1,3.4v0.7l-0.4,0.9c-0.1,0-0.1,0-0.1,0
		c-0.6-0.1-1.3,0-1.9,0.1l-0.2-0.1c-0.8,0.1-1.7,0.2-2.4,0.4c-0.3-0.1-0.5-0.4-0.5-0.6l0.1-0.6l-0.1-0.4l0.1-0.6
		c0-0.6-0.1-1.2-0.1-1.7c0-3.1,0-5-0.1-5.8c0.1-0.4,0.1-0.7,0.1-1.1c-0.1-8.6-0.1-13-0.3-13c0-0.4,0-0.6,0-0.9s0-0.7,0-1.2
		c0-0.1,0-0.4,0.1-0.5c-0.1-1.4-0.1-2.5-0.1-3.2v-0.1c0.2-0.7,0.3-1.1,0.5-1.1C110.2,29.3,111.1,29.2,111.9,29.2z M113.9,32.7v0.9
		l0.3,9.8v2.4l0,0c2.3-0.7,3.6-1.3,4-1.8c1.5-1.1,2.3-2.9,2.3-5.1v-0.5c0-1.5-1.1-3.3-3.1-5.1c0-0.2-1-0.5-2.8-0.7h-0.4H113.9z"/>
	<path class="st0" d="M130.4,28.6c0.3,0.4,0.4,0.7,0.3,1.2l-0.1,0.8c-0.1,5.2,0,9,0.2,11.2c0,0.1,0,1.2,0.1,3.1
		c-0.1,1.4-0.1,2.9,0,4.4l-0.1,0.4c0.1,0.6,0.1,1.3,0,1.9c0,0.4,0,0.6,0.1,0.6v0.1c0,0.2-0.1,1.2-0.1,2.8l-0.1,0.8
		c0,0.7,0,2-0.1,3.9l0,0c-0.3,0.7-0.6,1.1-0.7,1.1c-1.2,0-2.3,0-3.4-0.2c-0.1,0-0.1-0.2-0.1-0.4s0.1-0.2,0.1-0.4
		c-0.1-0.6-0.1-1.9,0-3.8c0-0.6,0-1.9,0.1-3.5l0.1-17.9c0-0.2-0.1-1.8-0.3-4.7c0-0.2,0-0.5,0-0.8l0.1-0.5c0-0.4,0.2-0.6,0.6-0.5
		c0.1,0,0.5,0,1.2,0.1l0.4,0.2c0.1,0,0.3,0,0.4,0l0.5,0.1C129.7,28.7,130,28.7,130.4,28.6z"/>
	<path class="st0" d="M148.9,38.4c0.6,0,1,0.5,1,1.2c0,0.1,0,0.2,0,0.2c0,0.5,0.2,3.3,0.5,8.4c0.5,1.9,1.1,3.8,1.8,5.7
		c0.3,0.7,0.7,1.4,1.1,2c0.6,0.8,1.1,2,1.2,3.1l0,0c0,0.1-0.2,0.2-0.4,0.4l-0.3-0.1h-0.5c-0.2,0.1-0.3,0.1-0.3,0.1l-0.3-0.4
		c-0.3,0.1-0.6,0.1-0.9,0.1l-0.9-0.1c-0.4,0-0.8-0.6-1.1-1.7l-1.5-3.2l0,0c-0.7,1.1-1.4,2-2.3,3.1c-0.8,0.8-1.8,1.4-2.8,1.7
		c-1.3,0.4-2.5,0.5-3.8,0.4c-2.9-0.7-4.8-1.3-5.5-2.1c-0.9-0.4-1.6-1.2-2-2.2c-0.4-0.8-0.5-1.9-0.6-2.8v-0.6
		c0.1-1.5,0.6-3.2,1.3-4.5c0.6-1.3,1.4-2.5,2.3-3.7c1.6-1.9,2.6-2.8,3.3-3.1c0.7-0.7,1.6-1.1,2.4-1.1l0.3,0.1
		c1.1-0.1,2.2-0.1,3.1,0.1l1.9,0.7c0.3,0.2,0.6,0.4,0.9,0.5h0.1c0-0.7,0-1.4-0.1-2.1C147.1,38.6,147.7,38.4,148.9,38.4z M135.8,49.8
		l-0.1,1.1c0,1.4,0.4,2.7,1.1,3.9c0.7,0.9,1.7,1.5,2.6,1.8l1,0.1c0.6,0,1.2-0.4,1.6-0.8c1.6-0.7,2.7-2.2,3.3-4
		c0.3-0.7,0.5-1.4,0.5-2.1v-0.6c-0.1-1.3-0.6-2.6-1.4-3.5c-0.7-0.6-1.5-0.9-2.3-1.1c-1.5-0.2-3,0.1-4.3,1.1
		C137,46.7,136.3,48.3,135.8,49.8z M152.9,59.4L152.9,59.4h0.2l0,0c0-0.1,0-0.1-0.1-0.1S152.9,59.2,152.9,59.4z"/>
	<path class="st0" d="M161.8,27.4l1,0.2c0.3,0,0.3,0.5,0.2,1.2c0,3.8-0.1,7-0.2,9.3l0.1,0.1c0.4,0.1,1.9,0.1,4.5,0.1
		c0.6,0.2,0.8,0.4,0.8,0.5c0.1,1.2,0,2.5-0.2,3.7c0.1,0.2,0.1,0.5,0.1,0.7l0,0l-0.4,0.7l-0.3-0.1c-3.2-0.4-4.9-0.4-4.9,0
		c-0.3,3.4-0.3,6.8,0.1,10.1c0.6,3.2,1.1,4.8,1.7,5.1c0.6,0.2,1.1-0.7,1.9-2.4c0.1-0.9,0.4-1.3,0.6-1.3c0.4,0,0.8,0,1.2,0
		c1.9,0.4,2.7,0.8,2.7,1.2c-0.4,1.2-0.6,1.8-0.8,1.8c-0.5,1.1-1.2,1.9-2.1,2.6c-0.5,0.4-1,0.6-1.6,0.7c0,0.1-0.8,0.1-2.3-0.1
		c-0.1,0-0.1-0.1-0.1-0.1c-0.3,0-0.5,0-0.8-0.1l-0.4-0.1c-2.3-0.5-3.7-2.9-4.1-7.2c-0.4-2.8-0.5-5.7-0.3-8.6c0.1-1.4,0.2-2.1,0-2.1
		c-1.2-0.1-2.3-0.1-3.4,0c-0.5-0.1-1.1-0.1-1.6,0c-0.2,0-0.3-0.7-0.2-2c-0.1-0.8-0.1-1.5-0.1-2.4c0.1-0.7,0.3-1.2,0.7-1.4l0.2,0.1
		l4.3,0.2c0.4,0,0.7,0,0.7-0.1c0-0.1,0.1-3.5,0.2-10.1c-0.1,0-0.1-0.1-0.1-0.4c0-0.2,0.5-0.4,1.4-0.2
		C161.2,27,161.5,27.3,161.8,27.4z"/>
	<path class="st0" d="M188.4,38.4c0.6,0,1,0.5,1,1.2c0,0.1,0,0.2,0,0.2c0,0.5,0.2,3.3,0.5,8.4c0.5,1.9,1.1,3.8,1.8,5.7
		c0.3,0.7,0.7,1.4,1.1,2c0.6,0.8,1.1,2,1.2,3.1l0,0c0,0.1-0.2,0.2-0.4,0.4l-0.3-0.1h-0.4c-0.2,0.1-0.3,0.1-0.3,0.1l-0.3-0.4
		c-0.3,0.1-0.6,0.1-0.9,0.1l-0.9-0.1c-0.4,0-0.8-0.6-1.1-1.7l-1.5-3.2h-0.1c-0.7,1.1-1.4,2-2.3,3.1c-0.8,0.8-1.8,1.4-2.8,1.7
		c-1.3,0.4-2.5,0.5-3.8,0.4c-2.9-0.7-4.8-1.3-5.5-2.1c-0.9-0.4-1.6-1.2-2-2.2c-0.4-0.8-0.5-1.9-0.6-2.8l0.1-0.6
		c0.1-1.5,0.6-3.2,1.3-4.5c0.6-1.3,1.4-2.5,2.3-3.7c1.6-1.9,2.6-2.8,3.3-3.1c0.7-0.7,1.6-1.1,2.4-1.1l0.3,0.1
		c1.1-0.1,2.2-0.1,3.1,0.1l1.9,0.7c0.3,0.2,0.6,0.4,0.9,0.5h0.1c0-0.7,0-1.4-0.1-2.1C186.6,38.6,187.2,38.4,188.4,38.4z M175.3,49.8
		l-0.1,1.1c0,1.4,0.4,2.7,1.1,3.9c0.7,0.9,1.7,1.5,2.6,1.8l1,0.1c0.6,0,1.2-0.4,1.6-0.8c1.6-0.7,2.7-2.2,3.3-4
		c0.3-0.7,0.5-1.4,0.5-2.1v-0.6c-0.1-1.3-0.6-2.6-1.4-3.5c-0.7-0.6-1.5-0.9-2.3-1.1c-1.5-0.2-3,0.1-4.3,1.1
		C176.6,46.7,175.9,48.3,175.3,49.8z M192.4,59.4L192.4,59.4h0.2l0,0c0-0.1,0-0.1-0.1-0.1S192.4,59.2,192.4,59.4z"/>
	<path class="st0" d="M204.1,28.4c4.6,0.2,6.8,0.7,6.8,1.5c0.8,0.4,1.3,1.2,1.3,2.2c0.2,0.5,0.3,1.1,0.3,1.7c0,0.5-0.6,0.8-1.7,0.9
		c0,0.1-0.1,0.1-0.4,0.1h-0.2c-0.4-0.8-0.7-1.7-0.9-2.6c-0.4-0.6-0.8-1.1-1.3-1.5c-0.6-0.4-1.3-0.5-2-0.4c-1,0.4-1.8,1.1-2.3,2.1
		c-0.7,1.9-1,3.9-0.9,5.9c0.3,4.1,0.6,6.1,0.9,6.1c0.8,0,1.6-0.1,2.3-0.2h0.4c1.1-0.1,2.1-0.2,3.1-0.2c0.2,0,0.4,0.9,0.6,2.9
		c0,0.4-0.3,0.5-0.8,0.5c-0.4,0-0.8,0-1.1,0.1c-0.2,0-0.4-0.1-0.6-0.1l-1.8,0.1h-2c-0.1,0.1-0.1,0.1-0.1,0.2
		c0.5,3.9,0.9,7.3,1.1,10.1c0.1,0.4,0.2,0.7,0.2,1.1v0.4c0,0.5-0.7,0.7-2.1,0.7c-0.1,0-1,0.1-2.5,0.4c-0.4,0-0.6-0.2-0.6-0.8v-0.6
		c0,0,0-0.1-0.1-0.1c0.1-0.5,0.2-0.9,0.2-1.4v-0.8c0-1.4-0.1-2.7-0.3-4.1c0-0.1,0-0.1,0-0.2c-0.2-3.2-0.4-4.8-0.6-4.8h-1l-3.6,0.2
		c-0.3,0-0.5-0.5-0.6-1.4l-0.2-0.9l0,0c0.1-0.2,0.3-0.4,0.5-0.4h0.3l3.5-0.4c0.2,0.1,0.4,0.1,0.5,0.1c0.3-0.1,0.4-0.1,0.4-0.4
		c-0.3-2.1-0.4-4.2-0.5-6.4c0-0.1,0-0.1,0-0.2s0-0.2,0-0.4c0-0.4,0-0.6,0-0.9c0.2-2.8,0.6-4.7,1-5.5c0.3-1.1,1-2,1.9-2.5
		C202.5,28.6,203.3,28.4,204.1,28.4z"/>
	<path class="st0" d="M220.1,38.2L220.1,38.2c1.9,0.1,3.7,0.6,5.4,1.7c1,0.7,1.9,1.7,2.4,2.7c0.2,0.6,0.5,1.1,0.9,1.5
		c0.2,0.7,0.4,1.3,0.7,2c0.5,1.3,0.8,2.7,0.9,4.2v0.2c-0.3,1.7-0.8,3.2-1.6,4.6c-0.4,0.6-0.9,1.2-1.4,1.5c-1.6,2-3.9,2.9-6.9,2.9
		h-0.4c-1.9,0-3-0.4-3.7-1.3c-1.1-1.2-2-2.5-2.7-3.9c-0.8-1.3-1.2-2.8-1.2-4.4c-0.1,0-0.1-0.2-0.1-0.8c0-0.1,0-0.2,0.1-0.4
		c0.1-2,0.5-4,1.3-5.9c0.7-1.7,1.9-2.8,3.3-3.5C217.9,38.7,219,38.2,220.1,38.2z M216.9,47.9c0,0.7,0.1,1.2,0.1,1.4h0.1
		c0,0.1-0.1,0.1-0.1,0.2c0,1.2,0.7,2.7,2,4.6c0.6,0.6,1.4,0.8,2.2,0.8c2.5,0,4.2-1.2,5-3.5c0.1-0.5,0.2-0.9,0.3-1.4
		c-0.1-1.9-0.7-3.5-1.8-5c-0.8-1.3-1.9-2.2-3-2.8c-0.1-0.1-0.3-0.1-0.5-0.1H221c-1.4,0-2.4,1.2-3.3,3.4
		C217.3,46.1,217,47.1,216.9,47.9L216.9,47.9z"/>
	<path class="st0" d="M234.2,38.4h0.2c0.5,0,0.7,0.6,0.7,1.7c0,0.5,0,1.1,0,1.5h0.2c0.5-0.4,1.1-0.6,1.7-0.8c0.7-0.2,1.3-0.4,2-0.2
		c1.7,0.4,3.3,1.1,4.9,2c1.1,0.8,1.7,2.2,1.8,3.8c0.1,0,0.3,0.9,0.5,2.6l-0.1,0.4v0.2c0,0.2,0,0.6,0,1.1h-0.1c-0.3,0-0.7,0-1,0
		c-1.6-0.1-2.3-0.4-2.3-0.6l-0.3-3.2c-0.1-1.2-0.4-2.2-1-3.3c-0.3-0.2-0.6-0.4-1-0.5h-0.4c-0.8,0-1.7,0.6-2.8,2.1
		c-0.7,1.4-1.3,2.9-1.5,4.5c0,0.8-0.1,3.2-0.2,6.8c0.1,0.6,0.2,1.2,0.3,1.9c-0.1,0.2-0.1,0.4-0.1,0.6v0.5c0,0.2-0.2,0.4-0.4,0.4
		l-1.5-0.1c-0.7,0-1.3,0-2,0.1c-0.2,0-0.4-0.9-0.4-2.7c-0.3-3.5-0.4-7.2-0.3-10.9l-0.2-5v-0.7c0-0.4,0-0.6-0.1-0.9l0.1-0.1
		c-0.1-0.4-0.1-0.6-0.1-0.6c0-0.1,0.1-0.1,0.1-0.2h0.6C232.2,38.5,233.2,38.4,234.2,38.4z"/>
	<path class="st0" d="M250.5,38.2c0.4,0,0.6,0.9,0.5,2.8c-0.1,0.1-0.1,0.2-0.1,0.4l0.1,0.1h0.4c0.7-0.4,1.5-0.5,2.3-0.5
		c0.2,0,0.5,0,0.7,0.1h0.4c3.2,0.5,5,1.1,5.4,1.9c0.6,0.7,1,1.5,1.4,2.4c0.5-0.5,1-0.9,1.4-1.5c1.4-0.8,2.3-1.3,2.8-1.5
		c0.6-0.1,1.1-0.2,1.7-0.2c0.8,0.1,1.6,0.4,2.3,0.7h0.1c1.1,0.2,2.1,0.7,2.8,1.7c0.5,1.1,0.9,2,1.3,3.1l0.8,3.9
		c0,0.1-0.1,0.1-0.1,0.2l0.8,5.7c0.1,0,0.2,0.6,0.3,1.8v0.9c0,0.4-1.4,0.5-4.2,0.4c-0.1,0.1-0.3,0.1-0.4,0.1s-0.3-1.4-0.5-4.2
		c-0.1-2.8-0.4-5.5-1-8.3c-0.5-0.9-1-1.4-1.6-1.4h-0.5c-0.6,0-1.4,0.9-2.3,3.1c-0.7,2.6-1.2,5.3-1.3,8.1l0.2,0.6
		c0,1.1-0.3,1.7-0.8,1.7c-1.3,0-2.5,0.1-3.6,0.1c-0.3,0-0.5-1.5-0.6-4.5c-1.1-7.9-2.3-11.8-3.5-11.9l0,0c-0.9,0.2-1.6,0.8-2.1,1.8
		c-0.6,1.3-1,2.7-1.1,4.1c0,0.1,0,0.4,0,0.5c0,0.1,0,0.6-0.1,1.4c-0.2,2.6-0.2,5.2,0.1,7.8v0.1c-0.2,0.4-0.6,0.5-1,0.5l-0.8-0.1
		h-0.9l-0.1-0.1c-0.3,0.1-0.7,0.1-1,0.1l-0.1-0.1c-0.1,0-0.2,0-0.3,0.1c-0.2,0-0.4-0.1-0.5-0.2h-0.7c-0.6-11.3-0.9-17.3-0.9-18.2
		l-0.4-2.9c0-0.4,1.3-0.4,3.8-0.4c0.1,0,0.1,0.1,0.2,0.1C250,38.2,250.3,38.2,250.5,38.2z"/>
	<path class="st0" d="M292.9,38.4c0.6,0,1,0.5,1,1.2c0,0.1,0,0.2,0,0.2c0,0.5,0.2,3.3,0.5,8.4c0.5,1.9,1.1,3.8,1.8,5.7
		c0.3,0.7,0.7,1.4,1.1,2c0.6,0.8,1.1,2,1.2,3.1l0,0c0,0.1-0.2,0.2-0.4,0.4l-0.3-0.1h-0.4c-0.2,0.1-0.3,0.1-0.3,0.1l-0.3-0.4
		c-0.3,0.1-0.6,0.1-0.9,0.1l-0.9-0.1c-0.4,0-0.8-0.6-1.1-1.7l-1.5-3.2h-0.1c-0.7,1.1-1.5,2-2.3,3.1c-0.8,0.8-1.8,1.4-2.8,1.7
		c-1.3,0.4-2.5,0.5-3.8,0.4c-2.9-0.7-4.8-1.3-5.5-2.1c-0.9-0.4-1.6-1.2-2-2.2c-0.4-0.8-0.5-1.9-0.5-2.8v-0.6
		c0.1-1.5,0.6-3.2,1.3-4.5c0.6-1.3,1.4-2.5,2.3-3.7c1.6-1.9,2.6-2.8,3.3-3.1c0.7-0.7,1.6-1.1,2.4-1.1l0.3,0.1
		c1.1-0.1,2.2-0.1,3.1,0.1L290,40c0.3,0.2,0.6,0.4,0.9,0.5h0.1c0-0.7,0-1.4-0.1-2.1C291.1,38.6,291.7,38.4,292.9,38.4z M279.9,49.8
		l-0.1,1.1c0,1.4,0.4,2.7,1.1,3.9c0.7,0.9,1.7,1.5,2.6,1.8l1,0.1c0.6,0,1.2-0.4,1.6-0.8c1.6-0.7,2.7-2.2,3.3-4
		c0.3-0.7,0.5-1.4,0.5-2.1v-0.6c-0.1-1.3-0.6-2.6-1.4-3.5c-0.7-0.6-1.5-0.9-2.3-1.1c-1.5-0.2-3,0.1-4.3,1.1
		C281,46.7,280.4,48.3,279.9,49.8z M296.9,59.4L296.9,59.4h0.2l0,0c0-0.1,0-0.1-0.1-0.1S296.9,59.2,296.9,59.4z"/>
	<path class="st0" d="M322.9,29.9c0.3,0,0.5,0.2,0.8,0.4c0.3,0.9,0.7,1.8,1.1,2.7c0.4,1.1,0.8,2,1.4,3.1c1.1,2.1,2.6,5.9,4.9,11.3
		c1.3,3.4,2,5.4,2.3,5.9c0.7,1.2,1.2,2.5,1.5,3.9l1,2l-0.2,0.4h-0.2l-0.7,0.1 M334.7,59.6c-1.5,0-2.9,0.2-4.4,0.6l0,0
		c-0.1,0-0.2-0.4-0.3-0.9s-0.7-2.4-1.5-5.4c-0.3-1.2-0.7-2.2-1.3-3.2c-0.6-0.1-0.9-0.1-1-0.1c-0.8,0-2.4,0-5,0.1h-3.4
		c-0.7,1.7-1.3,3.5-2,5.8c-0.1,0-0.4,0.8-0.7,2.5c-0.1,0-0.2,0.4-0.3,0.9l-0.2,0.1c-0.9-0.1-1.5-0.1-2-0.1h-2.2h-1h-0.1
		c-0.4-0.2-0.6-0.4-0.6-0.4v-0.2c0.9-2,1.7-4.1,2.3-6.3c0.2-0.4,0.6-1.5,1.4-3.5c0.4-0.7,0.7-1.4,0.9-2.1l4.4-10l2.3-4.5
		c0.6-1.2,1.1-2,1.2-2.5c0.2-0.4,0.6-0.5,0.9-0.6L334.7,59.6z M320,45.2L320,45.2h0.8l4.1-0.1L325,45c-0.7-1.9-1.5-3.5-2.3-5.3
		c-0.1,0-0.4,0.4-0.7,1.2C321.2,42,320.7,43.4,320,45.2L320,45.2z"/>
	<path class="st0" d="M348,39.4c1.8,0.4,3.3,1.2,4.7,2.5c1.5,2.4,2.3,4.2,2.3,5.5c0.5,2.9,0.7,5.9,0.8,9c0.1,1.2,0.4,2.6,0.7,4.2
		l0,0c0,0.2-0.3,0.4-0.9,0.4c-0.1,0-0.2,0.1-0.2,0.1l-0.1-0.1c-1.8,0-2.8,0-3.3,0s-0.8-1.1-0.8-2.8c-0.2-2.2-0.3-4.5-0.3-6.7
		c-0.2-3.2-0.8-5.4-1.6-6.6c-0.7-0.6-1.4-1.1-2.2-1.4l-0.9-0.1c-0.7-0.1-1.7,0.5-2.9,1.5c-1.2,1.5-1.9,3.4-2.2,5.4
		c-0.1,0.5-0.3,0.9-0.3,1.4c-0.1,2.5,0,5.1,0.2,7.6v0.1c0,0.4-0.6,0.5-1.7,0.4l-2.6-0.2c0,0,0,0-0.1,0s-0.1-0.1-0.2-0.1h-0.6
		c-0.1,0-0.2-0.9-0.1-2.8c-0.1-2.1-0.2-3.8-0.3-5l0.1-0.1c-0.1-2.1-0.2-3.3-0.2-3.5c0.1-0.1,0.1-0.1,0.1-0.2c-0.1-2-0.2-4.7-0.3-8.4
		c0.1-0.6,0.4-0.9,0.8-0.8c1.5,0.1,2.5,0.2,3.3,0.4h0.5c0.2,0,0.3,0.9,0.4,2.7l0.2,0.1c1.6-1.4,2.9-2.1,3.9-2
		C345.5,39.3,346.8,39.3,348,39.4z"/>
	<path class="st0" d="M359.6,36.9c1.1,0.4,1.6,0.7,1.5,1.3c0.3,13.2,0.6,20.2,0.6,20.8c-0.2,0.9-0.5,1.5-1,1.4
		c-0.4,0.1-0.7,0.2-1.1,0.4l-0.5-0.1l-0.8-0.1c-0.2,0-0.5,0-0.7,0l0,0c-0.8-0.5-1.2-1.1-1.1-1.9c0.2-2.1,0.1-8.7-0.3-19.8
		c0-0.4,0-0.8-0.1-1.2v-0.1c0-0.5,0.4-0.7,1-0.8c0.1,0,0.1,0.1,0.2,0.1c0.2,0,0.4-0.1,0.5-0.1c0.2,0,0.4,0.1,0.6,0.2L359.6,36.9z"/>
	<path class="st0" d="M369.7,37.4c1.6,0.1,3.1,0.6,4.5,1.3c1.1,0.9,1.7,1.8,1.7,2.4l0.9,3.4c0,0.6-0.1,0.8-0.4,0.8
		c-0.8,0.2-1.7,0.4-2.5,0.4c-0.6-2.2-1.2-3.5-2-4c-0.6-0.6-1.4-0.9-2.2-0.9c-1.6,0-2.7,1.2-3.5,3.3c0,0.1,0,0.4,0,0.5v0.4
		c0.3,2,1.4,2.9,3.2,2.9c3.2,0,5.6,0.6,7.1,1.9c1.3,1.1,2,2.8,2,4.7v0.5c0,1.4-0.7,2.6-1.7,3.3c-1.4,1.3-2.3,2-2.8,2
		c-1.1,0.5-2.2,0.7-3.3,0.9h-1.1c-1.1,0.1-2.2-0.2-3.1-0.8c-2.3-1.3-3.7-2.6-4.1-3.9c-0.5-1.3-0.8-2.7-1-4.1
		c0.1-0.6,0.2-0.8,0.4-0.8c0.9,0.1,1.8,0.2,2.6,0.2c0.1,0,0.1-0.1,0.2-0.1c0.5,0.1,0.7,0.4,0.7,0.8c0.1,1.3,0.5,2.5,1.1,3.5
		c0.9,1.3,2.2,2.1,3.5,2.1c1.2-0.2,2.3-0.9,3.1-1.9c0.5-0.6,0.8-1.3,0.9-2v-0.8c0-2-2.2-3.2-6.5-3.5c-1.6,0-3-0.9-4-2.4
		c-0.6-0.9-1-2.1-1-3.3c0.1-0.9,0.4-1.9,0.9-2.7c0.6-1.3,1.6-2.2,2.6-2.7C367.1,38,368.4,37.5,369.7,37.4z"/>
	<path class="st0" d="M381.4,28.8c1.4,0.1,2.4,1.3,2.7,2.8v0.9c-0.1,1.1-0.8,1.9-1.7,2.1c-0.5,0.2-1.1,0.4-1.7,0.4
		c-1.3,0-2.3-1.2-2.4-2.7c0.1-1.5,0.5-2.5,1-2.7C379.9,29,380.6,28.8,381.4,28.8z M382.1,37.1c1.1,0.4,1.6,0.7,1.5,1.3
		c0.3,13.2,0.6,20.2,0.6,20.8c-0.2,0.9-0.5,1.5-1,1.4c-0.4,0.1-0.7,0.2-1.1,0.4l-0.4-0.1l-0.8-0.1c-0.2,0-0.5,0-0.7,0l0,0
		c-0.8-0.5-1.2-1.1-1.1-1.9c0.2-2.1,0.1-8.7-0.3-19.8c0-0.4,0-0.8-0.1-1.2v-0.1c0-0.5,0.4-0.7,1-0.8c0.1,0,0.1,0.1,0.2,0.1
		c0.2,0,0.4-0.1,0.5-0.1s0.3,0.1,0.4,0.1h1.3V37.1z"/>
	<path class="st0" d="M392.4,38.8L392.4,38.8c2,0.1,3.7,0.6,5.5,1.7c1,0.7,1.9,1.7,2.4,2.7c0.2,0.6,0.5,1.1,0.9,1.5
		c0.2,0.7,0.4,1.3,0.7,2c0.5,1.3,0.8,2.7,0.9,4.2v0.2c-0.3,1.7-0.8,3.2-1.6,4.6c-0.4,0.6-0.9,1.2-1.4,1.5c-1.6,2-3.9,2.9-6.9,2.9
		h-0.4c-1.9,0-3-0.4-3.7-1.3c-1.1-1.2-2.1-2.5-2.9-3.9c-0.8-1.3-1.2-2.8-1.2-4.5c-0.1,0-0.1-0.2-0.1-0.8c0-0.1,0-0.2,0.1-0.4
		c0.1-2,0.5-4,1.3-5.9c0.7-1.7,1.9-2.8,3.3-3.5C390.1,39.2,391.2,38.8,392.4,38.8z M389.2,48.6c0,0.7,0,1.2,0,1.4h0.1
		c0,0.1-0.1,0.1-0.1,0.2c0,1.2,0.7,2.7,2,4.6c0.6,0.6,1.4,0.8,2.2,0.8c2.5,0,4.2-1.2,5-3.5c0.1-0.5,0.2-0.9,0.3-1.4
		c-0.1-1.9-0.7-3.5-1.8-5c-0.8-1.3-1.9-2.2-3-2.8c-0.1-0.1-0.3-0.1-0.5-0.1h-0.1c-1.4,0-2.4,1.2-3.3,3.4
		C389.5,46.7,389.2,47.7,389.2,48.6z"/>
	<path class="st0" d="M434.7,30.7c0.3,0,0.6,0.2,0.7,0.6c0,0.1,0,0.2-0.1,0.2c-0.1,2.5-0.1,3.8,0,3.8v0.5c0,0.4,0,0.6,0,0.9
		c0,0.5-0.4,0.9-0.8,0.9h-0.3c-0.1,0-0.2,0-0.2-0.1l-6.9-0.1l-0.1,0.1v0.2c0,3.9,0.1,7.7,0.2,11.3c0,0.5,0,0.7,0,0.8l-0.1,0.4
		c0,0.4,0,0.6,0,0.9l-0.1,0.4c0,5.3,0,8.4,0.1,9.2c-0.1,0.4-0.2,0.5-0.3,0.4h-0.3c-1.3,0.2-2.6,0.2-4,0.1c-0.6-0.1-0.9-0.4-0.9-0.9
		c0.1-1.8,0.1-5.4,0.1-11l0.2-10.6c0-0.8-0.1-1.2-0.2-1.2c-3-0.1-6,0-9,0.2l0,0c-0.4-0.2-0.5-0.7-0.5-1.4l-0.2-5V31
		c0.2-0.4,0.7-0.5,1.4-0.5c4.8,0.1,9.1,0,13-0.1c2.2,0.2,4.4,0.2,6.7,0C433.7,30.6,434.1,30.6,434.7,30.7z"/>
	<path class="st0" d="M445.3,38.5c1.5,0,2.9,0.2,4.4,0.6c1.5,0.6,2.7,1.5,3.9,2.7c0.6,0.7,1.2,1.4,1.5,2.4c0.8,1.4,1.2,3.1,1.2,4.7
		c0,0.6-0.2,0.8-0.4,0.8l-1-0.1c-0.2,0.1-0.4,0.1-0.5,0.1h-1.1c-3.4,0.4-5.2,0.6-5.3,0.6c-0.2,0.1-0.3,0.1-0.5,0.2
		c-0.1,0-0.1,0-0.2,0c-2.3,0.1-4.4,0.4-6.7,0.8v0.2c0.4,1.2,1,2.4,1.6,3.3c1.3,1.9,3.1,2.9,5.1,2.8c1.4-0.1,3-1.3,5-3.3
		c0.4-0.8,0.9-1.5,1.6-2h0.1c1.8,0.6,2.5,1.3,2.5,2v0.2c-1,1.1-2.1,2.1-3.2,2.8c-0.5,0.5-1.1,0.8-1.8,1.1c0,0.1-0.5,0.2-1.4,0.5
		c-1,0.5-2,0.8-3,0.8c0,0,0,0.1-0.1,0.1l-0.1-0.1c-0.5,0.1-1.1,0.1-1.6,0.1h-0.1c-0.4,0-0.9,0-1.5,0c-0.1,0-0.1,0-0.2,0
		c-2.2-0.6-4.2-1.7-5.9-3.4c-1.5-1.5-2.3-3.8-2.3-6c0.1-2.5,0.8-4.8,1.8-7c1.1-1.5,2.4-2.8,3.9-3.7c0.7-0.7,1.6-1.2,2.4-1.4
		C444.3,38.6,444.8,38.5,445.3,38.5z M440.4,47.8l0.3,0.1c0.8-0.1,2-0.2,3.3-0.5c0.1,0,0.1,0,0.2,0.1c4.5-0.1,6.8-0.4,6.8-0.7l0,0
		c-0.5-1.4-1.1-2.6-1.9-3.8c-0.7-1.2-1.9-1.8-3.1-1.8H446c-1.3,0.4-2.4,1.2-3.4,2.4C441.5,44.6,440.7,46,440.4,47.8L440.4,47.8
		L440.4,47.8z"/>
	<path class="st0" d="M459.7,28.8c1.4,0.1,2.4,1.3,2.7,2.8v0.9c-0.1,1.1-0.8,1.9-1.7,2.1c-0.5,0.2-1.1,0.4-1.7,0.4
		c-1.3,0-2.3-1.2-2.4-2.7c0.1-1.5,0.5-2.5,1-2.7C458.2,29,458.9,28.8,459.7,28.8z M460.5,37.1c1.1,0.4,1.6,0.7,1.5,1.3
		c0.3,13.2,0.6,20.2,0.6,20.8c-0.2,0.9-0.5,1.5-1,1.4c-0.4,0.1-0.7,0.2-1.1,0.4l-0.4-0.1l-0.8-0.1c-0.2,0-0.5,0-0.7,0l0,0
		c-0.8-0.5-1.2-1.1-1.1-1.9c0.2-2.1,0.1-8.7-0.3-19.8c0-0.4,0-0.8-0.1-1.2v-0.1c0-0.5,0.4-0.7,1-0.8c0.1,0,0.1,0.1,0.2,0.1
		c0.2,0,0.4-0.1,0.5-0.1c0.2,0,0.3,0.1,0.5,0.1L460.5,37.1z"/>
	<path class="st0" d="M483.5,38.4L483.5,38.4l0.1,0.2c-0.6,1.2-1.4,2.1-2.3,2.9c-1,1.9-2.3,3.5-3.6,5c-1.3,1.5-1.9,2.5-2,2.9
		c1.4,2.4,2.8,4.7,4.5,6.8c2.1,2.1,3.1,3.2,3.1,3.2c-0.2,0.6-0.3,0.9-0.5,0.8L478,61c0,0-0.1,0-0.3,0c-0.9-1.1-1.7-2.2-2.3-3.5
		l-2.7-4.4c-0.1,0-0.1-0.1-0.2-0.1c-1,1.2-2,2.5-2.8,3.9c-0.4,0.7-0.9,1.5-1.5,2.6c-0.5,0.5-1.2,0.8-1.8,0.7l-3.5,0.1
		c-0.2,0-0.3-0.1-0.3-0.2l0,0c0.5-1.3,1.1-2.4,1.9-3.3c0.4-0.7,0.8-1.4,1.2-2.1c0.8-1.4,1.7-2.7,2.6-3.8c1-1.3,1.6-2.1,1.6-2.5v-0.1
		c-1.8-2.7-3.3-5.2-4.7-7.4c-0.4-0.1-1-0.9-1.9-2.4c-0.1-0.1-0.2-0.1-0.3-0.1v-0.1c0-0.2,0.9-0.4,2.6-0.4s2.9,0.6,3.5,1.8
		c1.8,2.9,2.9,4.7,3.4,5.4c0.1,0,0.8-0.9,2.3-2.7c1.1-1.2,2.1-2.5,2.9-3.8c0.1-0.1,0.2-0.2,0.4-0.4l4.6,0.4
		C483.1,38.5,483.3,38.4,483.5,38.4z"/>
	<path class="st0" d="M492.9,38.5c1.5,0,2.9,0.2,4.4,0.6c1.5,0.6,2.7,1.5,3.9,2.7c0.6,0.7,1.2,1.4,1.5,2.4c0.8,1.4,1.2,3.1,1.2,4.7
		c0,0.6-0.2,0.8-0.4,0.8l-1-0.1c-0.2,0.1-0.4,0.1-0.5,0.1h-1c-3.4,0.4-5.2,0.6-5.3,0.6c-0.2,0.1-0.3,0.1-0.5,0.2c-0.1,0-0.1,0-0.2,0
		c-2.3,0.1-4.4,0.4-6.7,0.8v0.2c0.4,1.2,1,2.4,1.6,3.3c1.3,1.9,3.1,2.9,5.1,2.8c1.4-0.1,3-1.3,5-3.3c0.4-0.8,0.9-1.5,1.6-2h0.1
		c1.8,0.6,2.5,1.3,2.5,2v0.2c-1,1.1-2.1,2.1-3.2,2.8c-0.5,0.5-1.1,0.8-1.8,1.1c0,0.1-0.5,0.2-1.3,0.5c-1,0.5-2,0.8-3,0.8
		c0,0,0,0.1-0.1,0.1l-0.1-0.1c-0.5,0.1-1.1,0.1-1.6,0.1h-0.1c-0.4,0-0.9,0-1.5,0c-0.1,0-0.1,0-0.2,0c-2.2-0.6-4.2-1.7-5.9-3.4
		c-1.5-1.5-2.3-3.8-2.3-6c0.1-2.5,0.8-4.8,1.8-7c1.1-1.5,2.4-2.8,3.9-3.7c0.7-0.7,1.6-1.2,2.4-1.4C492.1,38.6,492.6,38.5,492.9,38.5
		z M488.1,47.8l0.3,0.1c0.8-0.1,2-0.2,3.3-0.5c0.1,0,0.1,0,0.2,0.1c4.5-0.1,6.8-0.4,6.8-0.7l0,0c-0.5-1.4-1.1-2.6-1.9-3.8
		c-0.7-1.2-1.9-1.8-3.1-1.8h-0.2c-1.3,0.4-2.4,1.2-3.4,2.4C489.1,44.6,488.4,46,488.1,47.8L488.1,47.8L488.1,47.8z"/>
	<path class="st0" d="M507.3,28.8c1.4,0.1,2.4,1.3,2.7,2.8v0.9c-0.1,1.1-0.8,1.9-1.7,2.1c-0.5,0.2-1.1,0.4-1.7,0.4
		c-1.3,0-2.3-1.2-2.4-2.7c0.1-1.5,0.5-2.5,1-2.7C505.9,29,506.6,28.7,507.3,28.8z M508.1,37.1c1.1,0.4,1.6,0.7,1.5,1.3
		c0.3,13.2,0.6,20.2,0.6,20.8c-0.2,0.9-0.5,1.5-1,1.4c-0.4,0.1-0.7,0.2-1.1,0.4l-0.5-0.1l-0.8-0.1c-0.2,0-0.5,0-0.7,0l0,0
		c-0.8-0.5-1.2-1.1-1.2-1.9c0.2-2.1,0.1-8.7-0.3-19.8c0-0.4,0-0.8-0.1-1.2v-0.1c0-0.5,0.4-0.7,1-0.8c0.1,0,0.1,0.1,0.2,0.1
		c0.2,0,0.4-0.1,0.5-0.1c0.2,0,0.3,0.1,0.5,0.1h1.4V37.1z"/>
	<path class="st0" d="M514.1,38.9h0.2c0.5,0,0.7,0.6,0.7,1.7c0,0.5,0,1.1,0,1.5h0.1c0.5-0.4,1.1-0.6,1.7-0.8c0.7-0.2,1.3-0.4,2-0.2
		c1.7,0.4,3.3,1.1,4.9,2c1.1,0.8,1.7,2.2,1.8,3.8c0.2,0,0.3,0.9,0.5,2.6l-0.1,0.4V50c0,0.2,0,0.6,0,1.1h-0.1c-0.3,0-0.7,0-1,0
		c-1.6-0.1-2.3-0.4-2.3-0.6l-0.4-3.2c-0.1-1.2-0.4-2.2-1-3.3c-0.3-0.2-0.6-0.4-1-0.5h-0.4c-0.8,0-1.7,0.6-2.8,2.1
		c-0.7,1.4-1.3,2.9-1.5,4.5c0,0.8-0.1,3.2-0.2,6.8c0.1,0.6,0.2,1.2,0.3,1.9c-0.1,0.2-0.1,0.4-0.1,0.6v0.5c0,0.2-0.2,0.4-0.4,0.4
		l-1.5-0.1c-0.7,0-1.3,0-2,0.1c-0.2,0-0.3-0.9-0.3-2.7c-0.3-3.5-0.4-7.2-0.3-10.9l-0.1-5V41c0-0.4,0-0.6-0.1-0.9l0.1-0.1
		c-0.1-0.4-0.1-0.6-0.1-0.6c0-0.1,0.1-0.1,0.1-0.2h0.6C512.6,38.9,513.6,38.9,514.1,38.9z"/>
	<path class="st0" d="M543.4,38.9c0.6,0,1,0.5,1,1.2c0,0.1,0,0.2,0,0.2c0,0.5,0.2,3.3,0.5,8.4c0.5,1.9,1.1,3.8,1.8,5.7
		c0.3,0.7,0.7,1.4,1.2,2.1c0.6,0.8,1.1,2,1.2,3.1l0,0c0,0.1-0.2,0.2-0.4,0.4l-0.3-0.1h-0.4c-0.2,0.1-0.3,0.1-0.3,0.1l-0.3-0.4
		c-0.3,0.1-0.6,0.1-0.9,0.1l-0.9-0.1c-0.4,0-0.8-0.6-1.2-1.7l-1.5-3.2h-0.1c-0.7,1.1-1.5,2-2.3,3.1c-0.8,0.8-1.8,1.4-2.8,1.7
		c-1.3,0.4-2.5,0.5-3.8,0.4c-2.9-0.7-4.8-1.3-5.5-2.1c-0.9-0.4-1.6-1.2-2-2.2c-0.4-0.8-0.5-1.9-0.5-2.8V52c0.1-1.5,0.5-3.2,1.3-4.5
		c0.6-1.3,1.4-2.5,2.3-3.7c1.6-1.9,2.6-2.8,3.3-3.1c0.7-0.7,1.6-1.1,2.4-1.1l0.3,0.1c1.1-0.1,2.2-0.1,3.1,0.1l1.9,0.7
		c0.3,0.2,0.6,0.4,0.9,0.5h0.1c0-0.7,0-1.4-0.1-2.1C541.7,39.2,542.3,38.9,543.4,38.9z M530.4,50.4l-0.1,1.1c0,1.4,0.4,2.7,1.1,3.8
		c0.7,0.9,1.7,1.5,2.6,1.8l1,0.1c0.6,0,1.2-0.4,1.6-0.8c1.6-0.7,2.7-2.2,3.3-4c0.3-0.7,0.5-1.4,0.5-2.1v-0.6
		c-0.1-1.3-0.6-2.6-1.4-3.5c-0.7-0.6-1.5-0.9-2.3-1.1c-1.5-0.2-3,0.1-4.3,1.1C531.6,47.3,530.9,48.7,530.4,50.4z M547.4,59.9
		L547.4,59.9h0.2l0,0c0-0.1,0-0.1-0.1-0.1C547.4,59.8,547.4,59.8,547.4,59.9z"/>
	<path class="st0" d="M361.9,27.3L361.9,27.3c0.2-0.1,0.3-0.1,0.4-0.1l0.4,0.4c0.1,0,0.1,0.1,0.1,0c0-0.1,0,0,0.1,0.1
		c0.4,0.4,1,1.1,1.3,1.4l0.1,0.4c0,0.1-0.1,0.4-0.2,0.5c-0.1,0.1-0.2,0.1-0.3,0.2c-0.8,1.1-1.3,1.9-1.5,2.4
		c-0.8,1.1-1.2,1.7-1.3,1.9H361c-0.2,0.4-0.5,0.7-0.7,1.1c0,0-0.2,0-0.5-0.1v-0.1c-0.1,0-0.5-0.6-0.8-0.8l0,0
		c-0.1-0.1-0.1-0.1-0.2-0.2l-0.2-0.2c-0.4-0.5-0.5-0.7-0.5-0.7c0.5-0.8,1-1.5,1.6-2.2h0.1c0.1-0.1,0.3-0.4,0.4-0.6h0.1
		c0.4-0.7,0.8-1.4,1.3-2.1C361.5,28,361.7,27.6,361.9,27.3z"/>
	<path class="st0" d="M30.4,81.2l-14-68.7l75.1-9.5l-1.9,76.8L30.4,81.2z M20,15.2l12.9,62.9l53.7-1.3l1.7-70.3L20,15.2z"/>
	<path class="st0" d="M46.6,63.6l2.2,0.3c0.3,0,0.4,0.2,0.5,0.5c0,1.5,0.2,1.6,1.5,2.2c0.9,0.5,2,0.5,2.8,0c0.2-0.1,0.3,0,0.5,0.1
		c1.4,1,2.6,2.3,3.5,3.8c0.8,1.5,0.4,3.4-0.9,4.6c-1.3,1.3-3.3,1.8-5.1,1.2c-3.1-0.7-6.1-2-8.7-3.9c-0.8-0.6-1.5-1.3-2.2-2.1
		c-1.3-1.3-1.4-3.5,0-4.8c0.2-0.2,0.3-0.3,0.5-0.4C42.7,63.9,44.4,63.6,46.6,63.6"/>
	<path class="st0" d="M77.9,65c-4.5-4.7-10.8-7.2-17.3-6.7c-1.9,0.1-3.8,0.8-5.2,2.1c1-0.4,2-0.6,3-0.8c4.3-0.9,8.8-0.1,12.6,2.1
		c3.5,2.2,5.6,5.2,5.5,9.5c0,0.8-0.1,1.6-0.3,2.4h-0.3c-0.1-0.2-0.1-0.3-0.1-0.5c0.4-5.4-2.2-9.2-7-11.1c-13.3-5.3-15.6,1.6-16,3
		c0.7-0.5,1.2-1,1.8-1.4c1.4-1.3,3.5-1.4,5.1-0.4c0.4,0.2,0.9,0.5,1.3,0.8c1,0.9,2,1.8,2.9,2.7c1.9,2,3.5,4.2,5,6.5
		c0.7,1.2,2,2,3.4,2.2c0.8,0.1,1.7,0.1,2.5,0c2-0.2,3.8-1.4,4.5-3.3C80.3,69.8,79.8,66.9,77.9,65z"/>
	<path class="st0" d="M49,52.1c-5.4-5.9-12.5-7.6-20.3-5.4c-0.2,0-0.4,0-0.7-0.1v-0.2c5.4-2.4,10.7-1.8,15.9,0.6
		c3.7,1.6,6.8,4.5,8.5,8.1c0.5,1.1,0.9,2.3,1,3.6c0.1-1.2,0-2.3-0.4-3.5c-0.9-2.7-2.4-5-4.5-6.9c-3.6-3.5-8-6-12.9-7.3
		c-1.8-0.6-3.7-0.6-5.5,0.1c-2.2,0.7-3.9,2.5-4.5,4.7c-0.5,2-0.1,4.1,1.1,5.8c1.2,2.3,3.6,3.6,6.2,3.5c3.2-0.1,6.4,0,9.5,0.3
		c1.8,0.1,3.6,0.5,5.2,1.1c3.5,1.5,3.2,3.2,3.1,4.7c0,1,0,2,0,3h0.2c0.1-0.1,0.1-0.3,0.2-0.4C51.5,62.8,56.2,59.9,49,52.1z"/>
	<path class="st0" d="M58.3,39.7c0-2.4-0.4-4.8-1-7.1c-0.7-2.9-2.7-5.4-5.4-6.8c-2-1-4.2-1.5-6.4-1.4c-1.8,0-3.6,0.4-5.1,1.4
		c-0.8,0.5-1.2,1.4-1.2,2.4c0,2.5,1.2,4.6,2.6,6.5c0.2,0.3,0.5,0.7,0.7,1c1.3,1.9,2.2,3.9,2.9,6.1c0.3,1.5,1.2,2.8,2.6,3.6
		c0,0,0.1,0,0.1,0.1c3,2.5,5.6,5.2,6.7,9c1.6-10.3-2-20.7-9.6-27.9c-0.2-0.2-0.6-0.4-0.2-0.8h0.2c1.8,1.6,3.5,3.4,5,5.3
		c5,6.6,7.1,15,6,23.2c0.6-1.3,1.1-2.6,1.7-3.8c0.3-0.7,0.4-1.4,0.4-2.1C58.3,45.4,58.3,42.6,58.3,39.7z"/>
	<path class="st0" d="M85.7,49.1c-0.6-3.1-2.8-5.7-5.8-6.8c-2.2-0.9-4.7-1-7-0.3c-4.7,1.3-8.5,4.1-11.8,7.5c-2.3,2.4-3.7,5.4-5,8.5
		l0.7-0.3C60.2,52,64.5,47.2,71,45c3.6-1.3,7.6-1.2,11.2,0.4c0.4,0.2,0.8,0.4,1.2,0.7c0,0.1-0.1,0.2-0.1,0.3c-0.2,0-0.3,0-0.5,0
		c-5.8-2-11.1-0.9-16.1,2.3c-3.5,2.3-6.5,5.3-8.9,8.7c1.5-0.5,3.1-0.7,4.7-0.6c0.2,0,0.3,0,0.4-0.1c3.6-2,7.5-3.4,11.5-4.3
		c3.2-0.9,6.6-1.2,9.9-1c0.2,0,0.4,0,0.6,0c0.5,0,0.8-0.4,0.8-0.8l0,0C85.8,50,85.8,49.5,85.7,49.1z"/>
</g>
</svg>
