<svg id="Layer_1" data-name="Layer 1" xmlns="http://www.w3.org/2000/svg" viewBox="0 0 327.54 123.01"><defs><style>.cls-1,.cls-2{fill:#fff;}.cls-2{fill-rule:evenodd;}</style></defs><title>peteca-plataforma-at</title><path class="cls-1" d="M34.11,132.37,12,24.31,130.08,9.36l-3,120.8Zm-16.38-104L38,127.49l84.44-2,2.72-110.67Z" transform="translate(-12 -9.36)"/><path class="cls-1" d="M136.31,66.67c.44,0,.92.07,1.44.08h.45a26.71,26.71,0,0,1,5.62,1.17,10.21,10.21,0,0,1,2.41,1.6c1.15,1.24,1.71,2.29,1.69,3.15a2.8,2.8,0,0,1,.22.88,15.92,15.92,0,0,1-1,3.93,5.39,5.39,0,0,1-3.25,2.67,36.12,36.12,0,0,1-5,.88l-.25.2.06.33a4.37,4.37,0,0,1-.08.69c0,1.46.06,2.3.06,2.53a2.63,2.63,0,0,0,0,.29q.1,1.68.09,2.49v.3l-.36.72c-.06,0-.09,0-.09,0a4.91,4.91,0,0,0-1.62.12l-.13-.06q-1,.09-2.1.21c-.26-.11-.39-.25-.39-.41l.07-.43-.06-.24.06-.43a7.66,7.66,0,0,0-.12-1.23c0-2.17,0-3.54-.09-4.12a4.44,4.44,0,0,0,.07-.75c0-6.22-.13-9.34-.22-9.35a4.55,4.55,0,0,1,0-.67q0-.34,0-.87a2.73,2.73,0,0,1,.06-.34c-.08-1-.12-1.76-.11-2.29l0-.09c.15-.49.29-.73.41-.73A18.29,18.29,0,0,1,136.31,66.67Zm1.8,2.56,0,.69.22,7,0,1.71,0,0c2-.5,3.16-.93,3.48-1.3a4.39,4.39,0,0,0,2-3.61v-.34q0-1.71-2.67-3.66c0-.16-.82-.33-2.47-.51h-.33Z" transform="translate(-12 -9.36)"/><path class="cls-1" d="M152.28,66.28a1,1,0,0,1,.24.84l-.07.58q-.06,5.61.15,8c0,.09,0,.83,0,2.23a25.16,25.16,0,0,0,0,3.13l-.09.25a4.71,4.71,0,0,1,0,1.36c0,.3,0,.46.06.46l0,.07q0,.27-.06,2l-.09.63c0,.52,0,1.45-.07,2.8l0,0c-.27.51-.47.75-.6.73a20.77,20.77,0,0,1-3-.15c-.08,0-.11-.13-.09-.28a1.8,1.8,0,0,1,.09-.27q-.06-.6,0-2.73c0-.46,0-1.31.09-2.56L149,70.63c0-.13-.06-1.26-.25-3.39a1.67,1.67,0,0,1,0-.55l0-.34c0-.27.21-.38.5-.34l1,.06a1.84,1.84,0,0,0,.34.13,1,1,0,0,1,.38,0l.4.06A4.35,4.35,0,0,0,152.28,66.28Z" transform="translate(-12 -9.36)"/><path class="cls-1" d="M168.25,73.27c.61,0,.88.39.82,1,0,.35.12,2.36.43,6A34.61,34.61,0,0,0,171,84.4a13.2,13.2,0,0,0,1,1.48,4.42,4.42,0,0,1,1,2.23v0c0,.09-.13.19-.37.3l-.24-.06-.33,0c-.17.06-.25.1-.25.12l-.22-.21a2.52,2.52,0,0,1-.73.12l-.76-.06c-.31,0-.63-.42-1-1.15l-1.24-2.29h-.06c-.58.73-1.22,1.46-1.93,2.2a4.7,4.7,0,0,1-2.47,1.18,9,9,0,0,1-3.31.25q-3.81-.7-4.72-1.48a3.09,3.09,0,0,1-1.69-1.6,4.62,4.62,0,0,1-.46-2l0-.43a6.46,6.46,0,0,1,1.11-3.19,12.09,12.09,0,0,1,1.92-2.59A8.39,8.39,0,0,1,159.22,75a3.2,3.2,0,0,1,2.1-.73l.29.08a10.9,10.9,0,0,1,2.74.09L166,75a2.22,2.22,0,0,0,.75.31h.1a12.81,12.81,0,0,0-.06-1.56C166.73,73.44,167.24,73.29,168.25,73.27ZM157,81.48l-.06.76a4.44,4.44,0,0,0,.91,2.74,3.86,3.86,0,0,0,2.31,1.27l.82.07a2.19,2.19,0,0,0,1.36-.61,5.3,5.3,0,0,0,2.91-2.89,3.23,3.23,0,0,0,.43-1.56l0-.39a4.15,4.15,0,0,0-1.18-2.52,5.09,5.09,0,0,0-1.92-.79,5.51,5.51,0,0,0-3.75.78A10.86,10.86,0,0,0,157,81.48Zm14.76,6.82v0h.18l0,0c0-.07,0-.11-.09-.11S171.73,88.24,171.73,88.3Z" transform="translate(-12 -9.36)"/><path class="cls-1" d="M179.43,65.36l.82.15c.21,0,.27.32.19.82q0,4.11-.15,6.67l.09.06c.33.06,1.63.08,3.91.08.48.16.71.28.69.37a8.61,8.61,0,0,1-.16,2.62.68.68,0,0,1,.06.5v0l-.33.48-.27-.09c-2.8-.23-4.22-.23-4.25,0a30.92,30.92,0,0,0,.09,7.3q.72,3.47,1.47,3.6.57.11,1.65-1.71.18-1,.54-.93a6.28,6.28,0,0,1,1,0c1.59.29,2.36.56,2.32.81-.3.86-.51,1.28-.64,1.26a5.38,5.38,0,0,1-1.74,1.87,3,3,0,0,1-1.32.54q0,.18-2-.06l-.12-.08a4.57,4.57,0,0,1-.66-.08l-.36-.06q-3-.56-3.57-5.16a27.71,27.71,0,0,1-.24-6.14c.13-1,.14-1.49,0-1.51s-1.23,0-3,0a4.69,4.69,0,0,0-1.38,0c-.18,0-.24-.49-.18-1.39a11.22,11.22,0,0,1-.09-1.74c.1-.54.28-.86.55-1l.16.09,3.72.13c.38,0,.57,0,.58-.09s.08-2.53.19-7.25c-.07,0-.1-.09-.09-.25s.42-.27,1.15-.13S179.2,65.32,179.43,65.36Z" transform="translate(-12 -9.36)"/><path class="cls-1" d="M202.46,73.27c.61,0,.88.39.82,1,0,.35.12,2.36.43,6a34.61,34.61,0,0,0,1.48,4.06,13.2,13.2,0,0,0,1,1.48,4.42,4.42,0,0,1,1,2.23v0c0,.09-.13.19-.37.3l-.24-.06-.33,0c-.17.06-.25.1-.25.12l-.22-.21a2.52,2.52,0,0,1-.73.12l-.76-.06c-.31,0-.63-.42-1-1.15l-1.24-2.29H202c-.58.73-1.22,1.46-1.93,2.2a4.7,4.7,0,0,1-2.47,1.18,9,9,0,0,1-3.31.25q-3.81-.7-4.72-1.48a3.09,3.09,0,0,1-1.69-1.6,4.62,4.62,0,0,1-.46-2l0-.43a6.46,6.46,0,0,1,1.11-3.19,12.09,12.09,0,0,1,1.92-2.59A8.39,8.39,0,0,1,193.43,75a3.2,3.2,0,0,1,2.1-.73l.29.08a10.9,10.9,0,0,1,2.74.09l1.6.52a2.22,2.22,0,0,0,.75.31h.1A12.81,12.81,0,0,0,201,73.7C200.94,73.44,201.45,73.29,202.46,73.27Zm-11.28,8.21-.06.76A4.44,4.44,0,0,0,192,85a3.86,3.86,0,0,0,2.31,1.27l.82.07a2.19,2.19,0,0,0,1.36-.61,5.3,5.3,0,0,0,2.91-2.89,3.23,3.23,0,0,0,.43-1.56l0-.39a4.15,4.15,0,0,0-1.18-2.52,5.09,5.09,0,0,0-1.92-.79,5.51,5.51,0,0,0-3.75.78A10.86,10.86,0,0,0,191.18,81.48Zm14.76,6.82v0h.18l0,0c0-.07,0-.11-.09-.11S205.94,88.24,205.94,88.3Z" transform="translate(-12 -9.36)"/><path class="cls-1" d="M216.11,66.13c3.94.18,5.9.55,5.9,1.11a1.67,1.67,0,0,1,1.06,1.57,3.58,3.58,0,0,1,.25,1.15q0,.51-1.47.66c0,.07-.12.1-.36.1h-.15a6.59,6.59,0,0,1-.75-1.87,5.34,5.34,0,0,0-1.06-1.06,4.21,4.21,0,0,0-1.66-.3,3.87,3.87,0,0,0-2,1.51,8.73,8.73,0,0,0-.76,4.24c.26,2.93.51,4.39.76,4.39a14,14,0,0,0,2.07-.15l.3,0a26.18,26.18,0,0,1,2.73-.19c.16,0,.33.7.51,2.11,0,.24-.23.36-.7.36a3.57,3.57,0,0,0-1,.1,2.15,2.15,0,0,0-.46-.06l-1.56.1c-.29,0-.86,0-1.72,0a.35.35,0,0,0-.09.19q.66,4.22,1,7.27a4.71,4.71,0,0,1,.2.76v.3q0,.51-1.77.51c-.12,0-.84.1-2.17.3-.33,0-.49-.18-.49-.55v-.45a.05.05,0,0,0-.06-.06,2.66,2.66,0,0,0,.15-1v-.61a17.52,17.52,0,0,0-.24-2.92.56.56,0,0,1,0-.15c-.17-2.29-.35-3.43-.55-3.43h-.85l-3.13.2c-.29,0-.46-.33-.51-1l-.15-.7V78.5a.52.52,0,0,1,.45-.3h.21l3-.25a1.44,1.44,0,0,0,.45.06q.36-.08.36-.21a44.16,44.16,0,0,1-.4-4.54.34.34,0,0,0,0-.15.46.46,0,0,0,0-.21,4.68,4.68,0,0,0,0-.64,10,10,0,0,1,.85-3.94,3,3,0,0,1,1.62-1.81A7.91,7.91,0,0,1,216.11,66.13Z" transform="translate(-12 -9.36)"/><path class="cls-1" d="M229.87,73.18h0a11.31,11.31,0,0,1,4.66,1.18,6.68,6.68,0,0,1,2.13,2,4.67,4.67,0,0,0,.75,1.08,9,9,0,0,0,.6,1.39,9.92,9.92,0,0,1,.73,3V82a8.34,8.34,0,0,1-1.38,3.27,3.76,3.76,0,0,1-1.2,1.09,8,8,0,0,1-6,2.13h-.34q-2.35,0-3.18-.9a16.87,16.87,0,0,1-2.47-2.82,5.58,5.58,0,0,1-1-3.18c-.06,0-.09-.2-.1-.58a.66.66,0,0,1,.1-.3,11.44,11.44,0,0,1,1.08-4.21,7.28,7.28,0,0,1,5.56-3.32Zm-2.73,7c0,.49,0,.82,0,1h.06a.37.37,0,0,0-.06.15,5.59,5.59,0,0,0,1.69,3.28,2.94,2.94,0,0,0,1.87.58q3.3,0,4.36-2.52a4.41,4.41,0,0,0,.21-1.05,5.91,5.91,0,0,0-1.5-3.57,6.07,6.07,0,0,0-2.67-2,.77.77,0,0,0-.4-.11h-.09q-1.74,0-2.88,2.43A3.89,3.89,0,0,0,227.14,80.17Z" transform="translate(-12 -9.36)"/><path class="cls-1" d="M242,73.26l.13,0c.42,0,.61.4.57,1.15a10,10,0,0,0,0,1.08h.09a7.41,7.41,0,0,1,1.42-.55,5.2,5.2,0,0,1,1.72-.18,15.92,15.92,0,0,1,4.2,1.44,3.44,3.44,0,0,1,1.53,2.68c.13,0,.26.63.39,1.87l-.06.22v.18c0,.16,0,.41,0,.76L252,82a5.47,5.47,0,0,0-.81,0c-1.38-.07-2.06-.21-2-.42l-.33-2.28a4.85,4.85,0,0,0-.87-2.34,1.64,1.64,0,0,0-.84-.31l-.31,0c-.65,0-1.47.46-2.46,1.48a8.48,8.48,0,0,0-1.26,3.22c0,.6-.08,2.25-.17,5a8.78,8.78,0,0,1,.24,1.32,1.76,1.76,0,0,0-.1.45l0,.32a.29.29,0,0,1-.33.21l-1.26-.07a11,11,0,0,0-1.71.09q-.3,0-.3-1.95a70.2,70.2,0,0,1-.27-7.75l-.13-3.57,0-.54a2.05,2.05,0,0,0-.1-.64A.66.66,0,0,0,239,74c0-.28-.07-.43-.07-.46a.49.49,0,0,0,.06-.17h.54A23.67,23.67,0,0,1,242,73.26Z" transform="translate(-12 -9.36)"/><path class="cls-1" d="M256.2,73.14q.56,0,.45,2a.48.48,0,0,0-.07.21l.1.06.33,0a4.92,4.92,0,0,1,1.92-.33,3.31,3.31,0,0,1,.6.08l.33,0q4.17.47,4.66,1.38a6.35,6.35,0,0,1,1.15,1.69,6.78,6.78,0,0,0,1.2-1.12A25.06,25.06,0,0,1,269.28,76a8.91,8.91,0,0,1,1.41-.15,7.66,7.66,0,0,1,1.93.54l.12,0a4.66,4.66,0,0,1,2.44,1.15,19.87,19.87,0,0,1,1.08,2.23l.66,2.76a.38.38,0,0,0-.06.17l.66,4.11q.17,0,.21,1.26l0,.66q0,.35-3.6.24a.55.55,0,0,1-.33.09c-.13,0-.28-1-.45-3a32.27,32.27,0,0,0-.88-5.92q-.62-1-1.35-1l-.44-.06c-.52,0-1.19.71-2,2.19A20.59,20.59,0,0,0,267.56,87l.13.39c0,.8-.28,1.18-.7,1.15-1.12,0-2.17,0-3.16.1q-.39,0-.54-3.18-1.35-8.44-3-8.54h0a2.63,2.63,0,0,0-1.75,1.27,8.6,8.6,0,0,0-1,3,1.23,1.23,0,0,0,0,.37c0,.12,0,.46-.1,1a27.34,27.34,0,0,0,.09,5.6l0,.11a1,1,0,0,1-.82.34l-.7-.09h-.72l-.11-.06a5.07,5.07,0,0,1-.81.12l-.11-.06-.22,0a1,1,0,0,1-.43-.19l-.31,0q-.78-12.17-.73-13l-.33-2.08c0-.22,1.1-.29,3.28-.21a.29.29,0,0,0,.15.06A2.6,2.6,0,0,1,256.2,73.14Z" transform="translate(-12 -9.36)"/><path class="cls-1" d="M292.85,73.27c.61,0,.88.39.82,1,0,.35.12,2.36.43,6a34.61,34.61,0,0,0,1.48,4.06,13.2,13.2,0,0,0,1,1.48,4.42,4.42,0,0,1,1,2.23v0c0,.09-.13.19-.37.3l-.24-.06-.33,0c-.17.06-.25.1-.25.12l-.22-.21a2.52,2.52,0,0,1-.73.12l-.76-.06c-.31,0-.63-.42-1-1.15l-1.24-2.29h-.06c-.58.73-1.22,1.46-1.93,2.2A4.7,4.7,0,0,1,288,88.27a9,9,0,0,1-3.31.25Q280.9,87.82,280,87a3.09,3.09,0,0,1-1.69-1.6,4.62,4.62,0,0,1-.46-2l0-.43A6.46,6.46,0,0,1,279,79.8a12.09,12.09,0,0,1,1.92-2.59A8.39,8.39,0,0,1,283.82,75a3.2,3.2,0,0,1,2.1-.73l.29.08a10.9,10.9,0,0,1,2.74.09l1.6.52a2.22,2.22,0,0,0,.75.31h.1a12.81,12.81,0,0,0-.06-1.56C291.32,73.44,291.84,73.29,292.85,73.27Zm-11.29,8.21-.06.76a4.44,4.44,0,0,0,.91,2.74,3.86,3.86,0,0,0,2.31,1.27l.82.07a2.19,2.19,0,0,0,1.36-.61,5.3,5.3,0,0,0,2.91-2.89,3.23,3.23,0,0,0,.43-1.56l0-.39a4.15,4.15,0,0,0-1.18-2.52,5.09,5.09,0,0,0-1.92-.79,5.51,5.51,0,0,0-3.75.78A11.1,11.1,0,0,0,281.56,81.48Zm14.76,6.82v0h.18l0,0c0-.07,0-.11-.09-.11S296.32,88.24,296.32,88.3Z" transform="translate(-12 -9.36)"/><path class="cls-1" d="M144.07,103.6a1.23,1.23,0,0,1,.64.29,19.11,19.11,0,0,0,1,1.93A16.83,16.83,0,0,0,146.8,108q1.37,2.25,4.26,8.12,1.62,3.73,2,4.27a9,9,0,0,1,1.24,2.77l.81,1.45-.17.27-.15,0-.57.12a0,0,0,0,1,0,0,21.66,21.66,0,0,0-3.82.4h-.05q-.09,0-.24-.69c-.16-.38-.57-1.66-1.24-3.85a7.54,7.54,0,0,0-1.08-2.26l-.85-.08c-.7,0-2.13,0-4.3.12l-3,0c-.54,1.18-1.09,2.56-1.65,4.15q-.15,0-.6,1.77c-.06,0-.15.24-.28.69l-.2.07c-.73,0-1.28-.07-1.65-.07l-1.86,0-.81,0-.12,0c-.32-.14-.48-.23-.48-.28v-.15a40.92,40.92,0,0,0,2.05-4.46q.24-.42,1.17-2.58a9,9,0,0,0,.76-1.5l3.82-7.19,1.93-3.22q.82-1.32,1-1.77a1.4,1.4,0,0,1,.76-.41Zm-2.58,11,.09,0h.6l3.54-.09.09-.12a26,26,0,0,0-2.05-3.78c-.11,0-.31.29-.61.88C142.65,112.32,142.1,113.34,141.49,114.58Z" transform="translate(-12 -9.36)"/><path class="cls-1" d="M165.77,110.44a8.74,8.74,0,0,1,4,1.81c1.3,1.74,2,3,2,3.94a40.59,40.59,0,0,1,.69,6.4c.13.85.34,1.85.63,3v0q0,.23-.72.24c-.11,0-.16.07-.16.09l-.11-.06c-1.53,0-2.48,0-2.86,0s-.69-.73-.64-2a47.56,47.56,0,0,1-.27-4.84q-.32-3.48-1.39-4.76a6.06,6.06,0,0,0-1.86-1l-.79-.08a4.3,4.3,0,0,0-2.56,1.14,7.38,7.38,0,0,0-1.86,3.9,4.89,4.89,0,0,0-.27,1,41.14,41.14,0,0,0,.17,5.39v.1q0,.36-1.41.27l-2.2-.22a.05.05,0,0,0-.06,0,.29.29,0,0,0-.15-.06,3.83,3.83,0,0,0-.52,0c-.1,0-.13-.69-.11-2-.08-1.52-.16-2.7-.25-3.55l.06-.09q-.18-2.25-.15-2.52a.4.4,0,0,0,.07-.2q-.15-2.1-.25-6c.1-.44.32-.64.64-.6q1.84.14,2.91.24l.42,0c.17,0,.27.65.31,1.9l.15.12c1.38-1,2.49-1.51,3.34-1.42A11.74,11.74,0,0,1,165.77,110.44Z" transform="translate(-12 -9.36)"/><path class="cls-1" d="M175.76,108.69c.91.22,1.34.52,1.3.9q.44,14.23.54,14.89c-.17.72-.44,1.06-.82,1a4.42,4.42,0,0,0-.91.24l-.39-.11-.66-.06a3.64,3.64,0,0,0-.61,0h0c-.71-.32-1-.76-1-1.32q.24-2.28-.28-14.19a2.67,2.67,0,0,0-.08-.84v-.06q.06-.5.84-.57l.17.08a3.57,3.57,0,0,1,.45-.08,2.63,2.63,0,0,1,.43.1Z" transform="translate(-12 -9.36)"/><path class="cls-1" d="M184.51,109a12.23,12.23,0,0,1,3.93.91c1,.67,1.45,1.23,1.45,1.68l.78,2.47c0,.39-.13.58-.37.58a8,8,0,0,1-2.19.27c-.49-1.58-1.05-2.53-1.68-2.86a3.43,3.43,0,0,0-1.83-.69c-1.35,0-2.37.8-3.06,2.41a1.5,1.5,0,0,0,0,.37v.27a2.48,2.48,0,0,0,2.79,2.1c2.79,0,4.83.44,6.14,1.32a4.15,4.15,0,0,1,1.65,3.37v.38a2.86,2.86,0,0,1-1.41,2.37,5.67,5.67,0,0,1-2.43,1.45,12.64,12.64,0,0,1-2.86.64h-.91a5.15,5.15,0,0,1-2.7-.6q-3.06-1.44-3.55-2.82a11.93,11.93,0,0,1-.87-2.92c.07-.4.17-.6.31-.6a21.91,21.91,0,0,0,2.28.15.29.29,0,0,1,.15-.06c.42.08.63.26.63.55a5.58,5.58,0,0,0,.91,2.55,4.07,4.07,0,0,0,3.06,1.56,4.94,4.94,0,0,0,2.74-1.36,2.48,2.48,0,0,0,.72-1.47v-.63q0-2.18-5.56-2.56a4.46,4.46,0,0,1-3.46-1.68,3.86,3.86,0,0,1-.82-2.34,4.14,4.14,0,0,1,.78-2,4.61,4.61,0,0,1,2.28-2A8.43,8.43,0,0,1,184.51,109Z" transform="translate(-12 -9.36)"/><path class="cls-1" d="M194.66,102.79a2.63,2.63,0,0,1,2.38,2l.05.67a1.79,1.79,0,0,1-1.44,1.51,2.77,2.77,0,0,1-1.41.24,2.08,2.08,0,0,1-2.13-2c.12-1.13.39-1.76.81-1.9A2.44,2.44,0,0,1,194.66,102.79Zm.64,5.9c.91.22,1.34.52,1.3.9q.43,14.23.54,14.89c-.17.72-.44,1.06-.82,1a4.42,4.42,0,0,0-.91.24l-.39-.11-.66-.06a3.64,3.64,0,0,0-.61,0h0c-.71-.32-1-.76-1-1.32q.24-2.28-.28-14.19a2.67,2.67,0,0,0-.08-.84v-.06q.06-.5.84-.57l.17.08a3.57,3.57,0,0,1,.45-.08,2.63,2.63,0,0,1,.43.1Z" transform="translate(-12 -9.36)"/><path class="cls-1" d="M204.13,110h0a11.31,11.31,0,0,1,4.66,1.18,6.68,6.68,0,0,1,2.13,2,4.67,4.67,0,0,0,.75,1.08,9,9,0,0,0,.6,1.39,9.92,9.92,0,0,1,.73,3v.15a8.34,8.34,0,0,1-1.38,3.27,3.76,3.76,0,0,1-1.2,1.09,8,8,0,0,1-6,2.13h-.34q-2.35,0-3.18-.9a16.87,16.87,0,0,1-2.47-2.82,5.58,5.58,0,0,1-1-3.18c-.06,0-.09-.2-.1-.58a.66.66,0,0,1,.1-.3,11.44,11.44,0,0,1,1.08-4.21,7.28,7.28,0,0,1,5.56-3.32Zm-2.73,7c0,.49,0,.82,0,1h.06a.37.37,0,0,0-.06.15,5.59,5.59,0,0,0,1.69,3.28A2.94,2.94,0,0,0,205,122q3.3,0,4.36-2.52a4.41,4.41,0,0,0,.21-1,5.91,5.91,0,0,0-1.5-3.57,6.07,6.07,0,0,0-2.67-2,.77.77,0,0,0-.4-.11h-.09q-1.74,0-2.88,2.43A3.79,3.79,0,0,0,201.4,117Z" transform="translate(-12 -9.36)"/><path class="cls-1" d="M240.79,104.19a.81.81,0,0,1,.6.42.46.46,0,0,1-.08.19c-.12,1.78-.11,2.67,0,2.68l0,.31a2.3,2.3,0,0,0,0,.69.74.74,0,0,1-.69.72l-.27,0a.32.32,0,0,1-.2-.06l-6-.06-.06.11v.15c0,2.8.06,5.51.18,8.15a5,5,0,0,1,0,.58l-.08.21a3.62,3.62,0,0,0,0,.67l-.06.21c0,3.83,0,6,.09,6.62-.08.21-.16.31-.22.3l-.21,0a22.19,22.19,0,0,1-3.43.12q-.78-.08-.72-.69.06-1.93.06-7.88l.13-7.6c0-.57-.07-.85-.13-.85a71.24,71.24,0,0,0-7.79.15h0c-.3-.15-.43-.47-.39-1l-.17-3.54,0-.27c.18-.26.57-.36,1.17-.31,4.16,0,7.89,0,11.21-.06a39.79,39.79,0,0,0,5.71,0A3.74,3.74,0,0,1,240.79,104.19Z" transform="translate(-12 -9.36)"/><path class="cls-1" d="M249.92,109.75a19.4,19.4,0,0,1,3.78.46,10.31,10.31,0,0,1,3.37,2,5.2,5.2,0,0,1,1.29,1.71,6,6,0,0,1,1,3.37c0,.41-.15.61-.36.61l-.82-.06a1.9,1.9,0,0,1-.46.1h-.88l-4.55.42a1.37,1.37,0,0,1-.42.15.34.34,0,0,0-.15,0A44.07,44.07,0,0,0,246,119v.11a9.84,9.84,0,0,0,1.39,2.38,5.6,5.6,0,0,0,4.41,2.07,8.7,8.7,0,0,0,4.29-2.32,4.68,4.68,0,0,1,1.35-1.45h.11c1.48.45,2.22.91,2.22,1.39v.21A14.25,14.25,0,0,1,257,123.5a6.16,6.16,0,0,1-1.5.73q0,.12-1.14.36a7.89,7.89,0,0,1-2.64.62.05.05,0,0,1-.06.06l-.1-.06a8.6,8.6,0,0,1-1.33.1h-.1c-.35,0-.76,0-1.24,0a.45.45,0,0,1-.16,0,12,12,0,0,1-5.11-2.43,5.77,5.77,0,0,1-1.92-4.34,11.17,11.17,0,0,1,1.56-5,10.14,10.14,0,0,1,3.36-2.64,4.8,4.8,0,0,1,2.11-1A3.43,3.43,0,0,1,249.92,109.75Zm-4.18,6.67.21.1c.71-.1,1.65-.2,2.83-.31a.43.43,0,0,1,.17.06q5.9-.13,5.89-.52v0A11.33,11.33,0,0,0,253.3,113a3.13,3.13,0,0,0-2.7-1.24h-.11a6.17,6.17,0,0,0-2.94,1.66,4.94,4.94,0,0,0-1.81,3v0Z" transform="translate(-12 -9.36)"/><path class="cls-1" d="M262.35,102.79a2.63,2.63,0,0,1,2.38,2l0,.67a1.79,1.79,0,0,1-1.44,1.51,2.77,2.77,0,0,1-1.41.24,2.08,2.08,0,0,1-2.13-2c.12-1.13.39-1.76.81-1.9A2.47,2.47,0,0,1,262.35,102.79Zm.65,5.9c.91.22,1.34.52,1.3.9q.43,14.23.54,14.89c-.17.72-.44,1.06-.82,1a4.42,4.42,0,0,0-.91.24l-.39-.11-.66-.06a3.64,3.64,0,0,0-.61,0h0c-.71-.32-1-.76-1-1.32q.24-2.28-.28-14.19a2.67,2.67,0,0,0-.08-.84v-.06q.06-.5.84-.57l.17.08a3.57,3.57,0,0,1,.45-.08,2.63,2.63,0,0,1,.43.1Z" transform="translate(-12 -9.36)"/><path class="cls-1" d="M282.94,109.65H283v.17a10.23,10.23,0,0,1-1.9,2.16,15.55,15.55,0,0,1-3.15,3.52c-1.07,1.06-1.62,1.75-1.65,2.08a44.48,44.48,0,0,0,3.87,4.88c1.81,1.49,2.72,2.26,2.74,2.31q-.21.65-.42.63l-4.29.54s-.08,0-.21,0a12.68,12.68,0,0,1-2-2.5l-2.35-3.15-.15-.06a24.82,24.82,0,0,0-2.41,2.77q-.56.77-1.23,1.83a2.06,2.06,0,0,1-1.56.51l-3.09.09q-.25-.06-.24-.18v0a7.72,7.72,0,0,1,1.62-2.38,9.21,9.21,0,0,1,1.05-1.48,14.58,14.58,0,0,1,2.26-2.74c.89-.92,1.34-1.5,1.36-1.75l0-.09q-2.26-2.91-4-5.36c-.3-.09-.84-.66-1.63-1.71a.44.44,0,0,0-.24-.12v-.06q0-.22,2.28-.27c1.5,0,2.52.38,3.06,1.24q2.31,3.18,3,3.91c.05,0,.71-.65,2-2a24.62,24.62,0,0,0,2.52-2.73.51.51,0,0,1,.31-.22l3.88.3A.93.93,0,0,1,282.94,109.65Z" transform="translate(-12 -9.36)"/><path class="cls-1" d="M291.17,109.75a19.4,19.4,0,0,1,3.78.46,10.31,10.31,0,0,1,3.37,2,5.2,5.2,0,0,1,1.29,1.71,6,6,0,0,1,1,3.37c0,.41-.15.61-.36.61l-.82-.06a1.9,1.9,0,0,1-.46.1h-.88l-4.55.42a1.37,1.37,0,0,1-.42.15.34.34,0,0,0-.15,0,44.07,44.07,0,0,0-5.74.61v.11a9.84,9.84,0,0,0,1.39,2.38,5.6,5.6,0,0,0,4.41,2.07,8.7,8.7,0,0,0,4.29-2.32,4.68,4.68,0,0,1,1.35-1.45h.11c1.48.45,2.22.91,2.22,1.39v.21a14.25,14.25,0,0,1-2.79,2.07,6.16,6.16,0,0,1-1.5.73q0,.12-1.14.36a7.89,7.89,0,0,1-2.64.62.05.05,0,0,1-.06.06l-.1-.06a8.6,8.6,0,0,1-1.33.1h-.1c-.35,0-.76,0-1.24,0a.45.45,0,0,1-.16,0,12,12,0,0,1-5.11-2.43,5.77,5.77,0,0,1-1.92-4.34,11.17,11.17,0,0,1,1.56-5,10.14,10.14,0,0,1,3.36-2.64,4.8,4.8,0,0,1,2.11-1A3.43,3.43,0,0,1,291.17,109.75ZM287,116.42l.21.1c.71-.1,1.65-.2,2.83-.31a.43.43,0,0,1,.17.06q5.9-.13,5.89-.52v0a11.33,11.33,0,0,0-1.54-2.74,3.13,3.13,0,0,0-2.7-1.24h-.11a6.17,6.17,0,0,0-2.94,1.66,4.94,4.94,0,0,0-1.81,3Z" transform="translate(-12 -9.36)"/><path class="cls-1" d="M303.61,102.79a2.63,2.63,0,0,1,2.38,2l.05.67A1.79,1.79,0,0,1,304.6,107a2.77,2.77,0,0,1-1.41.24,2.08,2.08,0,0,1-2.13-2c.12-1.13.39-1.76.81-1.9A2.44,2.44,0,0,1,303.61,102.79Zm.64,5.9c.91.22,1.34.52,1.3.9q.43,14.23.54,14.89c-.17.72-.44,1.06-.82,1a4.42,4.42,0,0,0-.91.24l-.39-.11-.66-.06a3.64,3.64,0,0,0-.61,0h0c-.71-.32-1-.76-1-1.32q.24-2.28-.28-14.19a2.67,2.67,0,0,0-.08-.84v-.06q.06-.5.84-.57l.17.08a3.57,3.57,0,0,1,.45-.08,2.63,2.63,0,0,1,.43.1Z" transform="translate(-12 -9.36)"/><path class="cls-1" d="M309.39,110.08l.13,0c.42,0,.61.4.57,1.15a10,10,0,0,0,0,1.08h.09a7.41,7.41,0,0,1,1.42-.55,5.2,5.2,0,0,1,1.72-.18,15.92,15.92,0,0,1,4.2,1.44,3.44,3.44,0,0,1,1.53,2.68c.13,0,.26.63.39,1.87l-.06.22V118c0,.16,0,.41,0,.76l-.09,0a5.47,5.47,0,0,0-.81,0c-1.38-.07-2.06-.21-2-.42l-.33-2.28a4.85,4.85,0,0,0-.87-2.34,1.64,1.64,0,0,0-.84-.31l-.31,0c-.65,0-1.47.46-2.46,1.48a8.48,8.48,0,0,0-1.26,3.22c0,.6-.08,2.25-.17,5a8.78,8.78,0,0,1,.24,1.32,1.76,1.76,0,0,0-.1.45l0,.32a.29.29,0,0,1-.33.21l-1.26-.07a11,11,0,0,0-1.71.09q-.3,0-.3-2a70.2,70.2,0,0,1-.27-7.75l-.13-3.57,0-.54a2.05,2.05,0,0,0-.1-.64.66.66,0,0,0,.06-.12c-.05-.28-.07-.43-.07-.46a.49.49,0,0,0,.06-.17h.54C308.15,110.11,309,110.06,309.39,110.08Z" transform="translate(-12 -9.36)"/><path class="cls-1" d="M334.8,110.1c.61.05.88.39.82,1,0,.35.12,2.36.43,6a34.61,34.61,0,0,0,1.48,4.06,13.2,13.2,0,0,0,1,1.48,4.42,4.42,0,0,1,1,2.23v0c0,.09-.13.19-.37.3l-.24-.06-.33,0c-.17.06-.25.1-.25.12l-.22-.21a2.52,2.52,0,0,1-.73.12l-.76-.06c-.31,0-.63-.42-1-1.15l-1.24-2.29h-.06c-.58.73-1.22,1.46-1.93,2.2A4.7,4.7,0,0,1,330,125.1a9,9,0,0,1-3.31.25q-3.81-.7-4.72-1.48a3.09,3.09,0,0,1-1.69-1.6,4.62,4.62,0,0,1-.46-2l0-.43a6.46,6.46,0,0,1,1.11-3.19,12.09,12.09,0,0,1,1.92-2.59,8.39,8.39,0,0,1,2.91-2.22,3.2,3.2,0,0,1,2.1-.73l.29.08a10.9,10.9,0,0,1,2.74.09l1.6.52a2.22,2.22,0,0,0,.75.31h.1a12.81,12.81,0,0,0-.06-1.56C333.28,110.26,333.79,110.12,334.8,110.1Zm-11.28,8.21-.06.76a4.44,4.44,0,0,0,.91,2.74,3.86,3.86,0,0,0,2.31,1.27l.82.07a2.19,2.19,0,0,0,1.36-.61,5.3,5.3,0,0,0,2.91-2.89,3.23,3.23,0,0,0,.43-1.56l0-.39a4.15,4.15,0,0,0-1.18-2.52,5.09,5.09,0,0,0-1.92-.79,5.51,5.51,0,0,0-3.75.78A10.73,10.73,0,0,0,323.52,118.31Zm14.76,6.82v0h.18l0,0c0-.07,0-.11-.09-.11S338.28,125.07,338.28,125.13Z" transform="translate(-12 -9.36)"/><path class="cls-2" d="M61,101.57l3.08.38c.44,0,.63.25.64.74,0,2.09.34,2.26,2.21,3.14a4.49,4.49,0,0,0,4.1,0,.75.75,0,0,1,.68.11c1.88,1.64,3.85,3.23,5,5.5s.56,4.68-1.25,6.56c-2.1,2.18-4.39,2.63-7.29,1.89-4.5-1.15-8.78-2.7-12.43-5.65a24.72,24.72,0,0,1-3.08-3,4.91,4.91,0,0,1,.66-7.53c2-1.7,4.51-2.13,7.66-2.17" transform="translate(-12 -9.36)"/><path class="cls-1" d="M177.8,101.74h0c.16-.08.26-.09.3,0l.29.28c.07,0,.11.05.12,0a.3.3,0,0,0,.06.09c.31.29.81.78,1.08,1l.12.22a1.24,1.24,0,0,1-.17.35l-.25.18c-.63.78-1.06,1.33-1.28,1.66-.66.76-1,1.21-1.13,1.36l-.07,0a6.46,6.46,0,0,1-.63.76s-.18,0-.4-.11l0-.06c-.05,0-.42-.41-.69-.63l0,0a.68.68,0,0,1-.15-.19l-.15-.13c-.31-.32-.45-.49-.42-.52a17.15,17.15,0,0,1,1.37-1.63l.08,0a4.23,4.23,0,0,0,.31-.39l.08,0a14.3,14.3,0,0,1,1.12-1.43A2.2,2.2,0,0,1,177.8,101.74Z" transform="translate(-12 -9.36)"/><path class="cls-2" d="M106,103.68c-6.81-6.83-15.11-10.2-24.83-9.54a11.74,11.74,0,0,0-7.46,3.06A23.83,23.83,0,0,1,78,96.09c6.35-1.07,12.45-.4,18,3,5,3.11,8,7.5,7.89,13.62a24.37,24.37,0,0,1-.51,3.36l-.45,0a2.9,2.9,0,0,1-.14-.7c.62-7.78-3.21-13.2-10-15.89-19.08-7.56-22.36,2.35-22.93,4.28,1-.76,1.75-1.4,2.56-2a6,6,0,0,1,7.26-.53,12,12,0,0,1,1.84,1.23c1.43,1.27,2.88,2.53,4.2,3.92a62,62,0,0,1,7.23,9.3,6.84,6.84,0,0,0,4.84,3.18,11.76,11.76,0,0,0,3.65,0c2.92-.48,5.4-1.85,6.47-4.75C109.39,110.34,108.89,106.57,106,103.68Z" transform="translate(-12 -9.36)"/><path class="cls-2" d="M64.53,85.17c-7.71-8.44-17.9-10.92-29.15-7.81a2.35,2.35,0,0,1-1-.15V77c7.74-3.46,15.37-2.62,22.82.84A24.34,24.34,0,0,1,69.51,89.47,15.68,15.68,0,0,1,71,94.59a12.38,12.38,0,0,0-.57-5A22.91,22.91,0,0,0,64,79.72,42.6,42.6,0,0,0,45.47,69.15a12,12,0,0,0-7.88.12C34.42,70.55,32,72.56,31.1,76a10.29,10.29,0,0,0,1.59,8.25c2,3.28,4.83,5.13,8.84,5a97.83,97.83,0,0,1,13.69.44,26.15,26.15,0,0,1,7.52,1.64c5.07,2.14,4.54,4.64,4.46,6.69,0,1.41,0,2.83,0,4.24l.29,0c.08-.2.17-.4.24-.6C68.09,100.45,74.74,96.35,64.53,85.17Z" transform="translate(-12 -9.36)"/><path class="cls-2" d="M77.81,67.4a39.19,39.19,0,0,0-1.43-10.21c-1.28-4.25-3.61-7.7-7.71-9.71a20.29,20.29,0,0,0-9.19-2,13.21,13.21,0,0,0-7.29,1.95,3.75,3.75,0,0,0-1.67,3.44c-.06,3.58,1.77,6.55,3.68,9.4.32.48.72.93,1,1.41a30.91,30.91,0,0,1,4.09,8.77A7.77,7.77,0,0,0,63,75.54l.12.1c4.33,3.54,8.08,7.47,9.61,12.86C74.68,73.1,70.2,59.74,59,48.6c-.34-.34-.8-.6-.3-1.15h.24C61.37,50,64.17,52.18,66.2,55a45.28,45.28,0,0,1,8.67,33.24c.81-1.84,1.61-3.67,2.37-5.53a8.45,8.45,0,0,0,.64-3C77.92,75.56,77.93,71.48,77.81,67.4Z" transform="translate(-12 -9.36)"/><path class="cls-2" d="M117.22,80.77c-.9-4.82-3.93-7.92-8.27-9.78a15,15,0,0,0-10-.37c-6.79,1.83-12.23,5.82-17.06,10.77-3.38,3.46-5.27,7.77-7.15,12.19l1-.38c4.9-8.11,11-15,20.37-18.18a21.49,21.49,0,0,1,16,.55,19.38,19.38,0,0,1,1.73,1l-.12.37a2.23,2.23,0,0,1-.73,0C104.79,74,97.12,75.65,90,80.25a49.72,49.72,0,0,0-12.8,12.46c2.22-.74,3.06-.78,6.68-.91a1.43,1.43,0,0,0,.64-.18A62.91,62.91,0,0,1,101,85.41c4.68-1.07,9.4-2,14.25-1.43a3.38,3.38,0,0,0,.84,0c.72-.09,1.21-.45,1.22-1.22A9.94,9.94,0,0,0,117.22,80.77Z" transform="translate(-12 -9.36)"/></svg>