<?xml version="1.0" encoding="UTF-8" standalone="no"?>
<svg
   id="Layer_1"
   data-name="Layer 1"
   viewBox="0 0 125 113"
   version="1.1"
   sodipodi:docname="quimica.svg"
   width="125"
   height="113"
   inkscape:version="1.2 (1:1.2.1+202207142221+cd75a1ee6d)"
   xmlns:inkscape="http://www.inkscape.org/namespaces/inkscape"
   xmlns:sodipodi="http://sodipodi.sourceforge.net/DTD/sodipodi-0.dtd"
   xmlns="http://www.w3.org/2000/svg"
   xmlns:svg="http://www.w3.org/2000/svg"
   xmlns:rdf="http://www.w3.org/1999/02/22-rdf-syntax-ns#"
   xmlns:cc="http://creativecommons.org/ns#"
   xmlns:dc="http://purl.org/dc/elements/1.1/">
  <defs
     id="defs987" />
  <sodipodi:namedview
     id="namedview985"
     pagecolor="#ffffff"
     bordercolor="#000000"
     borderopacity="0.25"
     inkscape:showpageshadow="2"
     inkscape:pageopacity="0.0"
     inkscape:pagecheckerboard="0"
     inkscape:deskcolor="#d1d1d1"
     showgrid="false"
     inkscape:zoom="4.4532627"
     inkscape:cx="56.587724"
     inkscape:cy="74.776635"
     inkscape:window-width="1366"
     inkscape:window-height="671"
     inkscape:window-x="0"
     inkscape:window-y="27"
     inkscape:window-maximized="1"
     inkscape:current-layer="Layer_1" />
  <title
     id="title946">quimica</title>
  <path
     d="M 78.103967,75.029472 V 64.562464 h 1.794802 a 1.7948032,1.529922 0 0 0 1.804612,-1.521562 v 0 A 1.7948032,1.529922 0 0 0 79.908577,61.51098 H 61.960546 a 1.7948032,1.529922 0 0 0 -1.834034,1.529922 v 0 a 1.7948032,1.529922 0 0 0 1.834034,1.521562 h 1.794803 v 10.467008 a 17.457648,14.881209 0 0 0 -3.383645,1.672045 L 49.396924,59.596488 v -7.25668 h 1.794803 a 1.7948032,1.529922 0 0 0 1.794803,-1.529922 v 0 A 1.7948032,1.529922 0 0 0 51.191727,49.279964 H 49.396924 V 44.690199 A 1.7948032,1.529922 0 0 0 47.60212,43.160276 H 45.807317 V 38.570511 A 1.7948032,1.529922 0 0 0 44.012515,37.040588 H 33.22408 a 1.7948032,1.529922 0 0 0 -1.794803,1.529923 v 4.589765 h -1.706534 a 1.7948032,1.529922 0 0 0 -1.794803,1.529923 v 4.589765 h -1.843842 a 1.7948032,1.529922 0 0 0 -1.794803,1.529922 v 0 a 1.7948032,1.529922 0 0 0 1.794803,1.529922 h 1.794804 v 7.25668 L 7.4495302,91.524204 a 8.993631,7.6663304 0 0 0 -1.0984588,3.661785 v 1.496476 a 8.9642081,7.6412498 0 0 0 8.9642086,7.641255 h 46.635458 a 8.8857468,7.5743679 0 0 0 3.668068,-0.68554 17.928417,15.282499 0 0 0 12.485161,-28.608708 z M 74.51436,64.562464 v 3.059844 H 67.335147 V 64.562464 Z M 66.138612,77.51246 A 1.7948032,1.529922 0 0 0 67.335147,76.0745 V 70.690512 H 74.51436 V 76.0745 a 1.7849955,1.5215618 0 0 0 1.196535,1.43796 14.348617,12.231016 0 0 1 9.072093,8.477272 5.3549864,4.5646853 0 0 0 -3.619029,1.329277 l -1.480958,1.262394 a 1.8046109,1.5382822 0 0 1 -1.265189,0.451453 h -0.637498 a 1.8046109,1.5382822 0 0 1 -1.265189,-0.451453 l -1.480958,-1.262394 a 5.3353711,4.5479649 0 0 0 -3.805375,-1.345998 h -0.608076 a 5.3353711,4.5479649 0 0 0 -3.805374,1.345998 l -1.480959,1.262394 a 1.8046109,1.5382822 0 0 1 -1.265188,0.451453 H 63.451311 A 1.8046109,1.5382822 0 0 1 62.186123,88.581403 L 60.705164,87.319009 A 5.3353711,4.5479649 0 0 0 57.086135,85.989732 14.319195,12.205935 0 0 1 66.138612,77.51246 Z M 35.048307,40.108793 h 7.179212 v 3.059843 h -7.179212 z m -3.579799,6.111328 h 14.348617 v 3.059843 H 31.468508 Z M 31.242931,60.716759 A 1.7653801,1.5048413 0 0 0 31.4587,59.981058 v -7.64125 h 14.348617 v 7.64125 a 1.8732645,1.5968038 0 0 0 0.215769,0.735701 l 6.394599,9.990474 a 5.3157558,4.5312444 0 0 0 -3.550375,1.320916 l -1.490766,1.262394 a 1.8046109,1.5382822 0 0 1 -1.265189,0.451453 h -0.617883 a 1.8046109,1.5382822 0 0 1 -1.265189,-0.451453 l -1.480958,-1.262394 a 5.3353711,4.5479649 0 0 0 -3.805374,-1.345997 h -0.617884 a 5.3353711,4.5479649 0 0 0 -3.805374,1.345997 l -1.480959,1.262394 a 1.8046109,1.5382822 0 0 1 -1.255381,0.468173 H 31.16447 A 1.8046109,1.5382822 0 0 1 29.899281,73.307264 L 28.418323,72.04487 A 5.3157558,4.5312444 0 0 0 24.867947,70.723953 Z M 15.325087,101.26387 A 5.3942171,4.5981262 0 0 1 9.9406776,96.67411 V 95.177625 A 5.3942171,4.5981262 0 0 1 10.597792,92.987241 L 22.906414,73.758716 h 1.686919 a 1.8046109,1.5382822 0 0 1 1.265189,0.451453 l 1.480958,1.220594 a 5.3353711,4.5479649 0 0 0 3.805375,1.345996 h 0.617883 a 5.3353711,4.5479649 0 0 0 3.844606,-1.345996 l 1.480957,-1.262396 a 1.8046109,1.5382822 0 0 1 1.225958,-0.409651 h 0.617884 a 1.8046109,1.5382822 0 0 1 1.265189,0.451453 l 1.480958,1.220594 a 5.3353711,4.5479649 0 0 0 3.805374,1.345996 h 0.617884 a 5.3353711,4.5479649 0 0 0 3.805374,-1.345996 l 1.480959,-1.262396 a 1.8046109,1.5382822 0 0 1 1.265188,-0.409651 h 1.686919 l 3.246338,5.074659 a 17.849955,15.215618 0 0 0 2.589224,22.447215 z m 55.599667,0 A 14.358425,12.239376 0 0 1 56.576137,89.032856 h 0.304038 a 1.8046109,1.5382822 0 0 1 1.265188,0.451452 l 1.480958,1.262395 a 5.3353711,4.5479649 0 0 0 3.805375,1.345997 h 0.617884 a 5.3353711,4.5479649 0 0 0 3.805374,-1.345997 l 1.480957,-1.262395 a 1.8046109,1.5382822 0 0 1 1.26519,-0.451452 h 0.617884 a 1.8046109,1.5382822 0 0 1 1.265188,0.451452 l 1.480957,1.262395 a 5.3353711,4.5479649 0 0 0 3.815184,1.345997 h 0.617883 a 5.3353711,4.5479649 0 0 0 3.805374,-1.345997 l 1.461343,-1.262395 a 1.8046109,1.5382822 0 0 1 1.265189,-0.451452 h 0.304038 A 14.319195,12.205935 0 0 1 70.914947,101.26387 Z"
     id="path948"
     style="stroke-width:0.905507" />
  <path
     d="m 18.934308,89.032856 a 5.3844094,4.5897659 0 1 0 5.38441,4.589762 5.3942171,4.5981262 0 0 0 -5.38441,-4.589762 z m 0,6.119686 a 1.7948032,1.529922 0 1 1 1.794804,-1.529924 1.7948032,1.529922 0 0 1 -1.794804,1.529924 z"
     id="path950"
     style="stroke-width:0.905507" />
  <path
     d="m 33.263311,85.973011 a 5.3844094,4.5897659 0 1 0 5.384409,4.589767 5.3942171,4.5981262 0 0 0 -5.384409,-4.589767 z m 0,6.119689 a 1.7948032,1.529922 0 1 1 1.794803,-1.529922 1.7948032,1.529922 0 0 1 -1.794803,1.529922 z"
     id="path952"
     style="stroke-width:0.905507" />
  <path
     d="m 45.817125,79.861684 a 5.3844094,4.5897659 0 1 0 5.38441,4.589766 5.3942171,4.5981262 0 0 0 -5.38441,-4.589766 z m 0,6.111327 a 1.7948032,1.529922 0 1 1 1.794803,-1.529921 1.7948032,1.529922 0 0 1 -1.794803,1.529921 z"
     id="path954"
     style="stroke-width:0.905507" />
  <rect
     x="47.611927"
     y="95.152542"
     width="3.5896063"
     height="3.0598443"
     id="rect956"
     style="stroke-width:0.905507" />
  <rect
     x="44.022324"
     y="92.092705"
     width="3.5896063"
     height="3.0598443"
     id="rect958"
     style="stroke-width:0.905507" />
  <rect
     x="40.432716"
     y="95.152542"
     width="3.5896063"
     height="3.0598443"
     id="rect960"
     style="stroke-width:0.905507" />
  <rect
     x="26.084101"
     y="81.391609"
     width="3.5896063"
     height="3.0598443"
     id="rect962"
     style="stroke-width:0.905507" />
  <path
     d="M 115.76541,30.937621 H 90.657781 a 1.7948032,1.529922 0 0 0 -1.794804,1.529922 v 6.119688 a 1.7948032,1.529922 0 0 0 1.794804,1.529922 h 1.834033 v 55.043752 a 10.788434,9.1962526 0 1 0 21.518026,0 V 40.108793 h 1.7948 a 1.7948032,1.529922 0 0 0 1.7948,-1.529922 v -6.119689 a 1.7948032,1.529922 0 0 0 -1.7948,-1.521561 z M 103.2116,101.26387 A 7.1890203,6.1280482 0 0 1 96.032382,95.144186 V 61.51098 H 110.381 v 33.633206 a 7.1792126,6.119688 0 0 1 -7.1694,6.119684 z M 110.381,58.451136 H 96.032382 V 40.108793 H 110.381 Z m 3.58961,-21.402187 H 92.491814 v -3.059844 h 21.576876 z"
     id="path964"
     style="stroke-width:0.905507" />
  <rect
     x="99.621986"
     y="93.62262"
     width="3.5896063"
     height="3.0598443"
     id="rect966"
     style="stroke-width:0.905507" />
  <rect
     x="103.21159"
     y="87.50293"
     width="3.5896063"
     height="3.0598443"
     id="rect968"
     style="stroke-width:0.905507" />
  <rect
     x="99.621986"
     y="81.391609"
     width="3.5896063"
     height="3.0598443"
     id="rect970"
     style="stroke-width:0.905507" />
  <rect
     x="103.21159"
     y="75.271919"
     width="3.5896063"
     height="3.0598443"
     id="rect972"
     style="stroke-width:0.905507" />
  <rect
     x="99.621986"
     y="69.160591"
     width="3.5896063"
     height="3.0598443"
     id="rect974"
     style="stroke-width:0.905507" />
  <path
     d="m 35.048307,26.347855 a 1.7948032,1.529922 0 0 1 1.794803,-1.529922 h 5.384409 v 7.641249 a 1.7948032,1.529922 0 0 0 1.794803,1.529923 v 0 a 1.7948032,1.529922 0 0 0 1.794803,-1.529923 v -7.641249 h 17.938224 v 32.103282 a 1.7948032,1.529922 0 0 0 1.794803,1.529921 v 0 a 1.7948032,1.529922 0 0 0 1.794803,-1.529921 V 24.817933 h 5.38441 a 1.7948032,1.529922 0 0 1 1.794802,1.529922 v 30.58172 a 1.7948032,1.529922 0 0 0 1.794804,1.529922 v 0 a 1.7948032,1.529922 0 0 0 1.794803,-1.529922 v -30.58172 a 5.3844094,4.5897659 0 0 0 -5.384409,-4.589766 h -5.38441 v -1.504842 a 1.7948032,1.529922 0 0 1 1.794804,-1.529922 h 21.576868 a 1.7948032,1.529922 0 0 1 1.775187,1.529922 v 6.119689 a 1.7948032,1.529922 0 0 0 1.794804,1.529922 v 0 a 1.7948032,1.529922 0 0 0 1.794803,-1.529922 v -6.119689 a 5.3844094,4.5897659 0 0 0 -5.38441,-4.589766 H 69.120143 a 5.3844094,4.5897659 0 0 0 -5.374601,4.589766 v 1.504842 H 45.817125 v -7.64125 a 1.7948032,1.529922 0 0 1 1.794803,-1.529922 h 60.984082 a 1.7948032,1.529922 0 0 1 1.79479,1.529922 v 12.231016 a 1.7948032,1.529922 0 0 0 1.79481,1.529922 v 0 a 1.7948032,1.529922 0 0 0 1.79481,-1.529922 V 14.116839 A 5.3844094,4.5897659 0 0 0 108.59601,9.527073 H 47.611928 a 5.3844094,4.5897659 0 0 0 -5.384409,4.589766 v 7.64125 H 36.84311 a 5.3844094,4.5897659 0 0 0 -5.38441,4.589766 v 6.119688 a 1.7948032,1.529922 0 0 0 1.794803,1.529921 v 0 a 1.7948032,1.529922 0 0 0 1.794804,-1.529921 z"
     id="path976"
     style="stroke-width:0.905507" />
  <path
     d="m 17.11989,32.467543 a 5.3844094,4.5897659 0 1 0 5.38441,-4.589766 5.3942171,4.5981262 0 0 0 -5.38441,4.589766 z m 7.169405,0 a 1.7948032,1.529922 0 1 1 -1.794803,-1.529922 1.7948032,1.529922 0 0 1 1.794803,1.529922 z"
     id="path978"
     style="stroke-width:0.905507" />
  <path
     d="m 15.325087,24.817933 a 8.9642081,7.6412498 0 1 0 -8.9642079,-7.64125 8.9740158,7.64961 0 0 0 8.9642079,7.64125 z m 0,-12.231016 a 5.3844094,4.5897659 0 1 1 -5.3844094,4.589766 5.3942171,4.5981262 0 0 1 5.3844094,-4.589766 z"
     id="path980"
     style="stroke-width:0.905507" />
  <path
     d="m 13.530283,52.339808 a 7.1792126,6.119688 0 1 0 -7.1792116,-6.119687 7.1890203,6.1280482 0 0 0 7.1792116,6.119687 z m 0,-9.196252 A 3.5896062,3.059844 0 1 1 9.9406776,46.2034 3.5896062,3.059844 0 0 1 13.530283,43.143556 Z"
     id="path982"
     style="stroke-width:0.905507" />
  <metadata
     id="metadata989">
    <rdf:RDF>
      <cc:Work
         rdf:about="">
        <dc:title>quimica</dc:title>
      </cc:Work>
    </rdf:RDF>
  </metadata>
</svg>
